<svg width="289" height="201" viewBox="0 0 289 201" fill="none" xmlns="http://www.w3.org/2000/svg">
<path d="M241.47 30.9068L219.176 31.1238C218.128 25.9691 214.607 12.4442 217.778 8.75507C217.922 7.3666 218.597 6.08732 219.662 5.18354C220.727 4.27976 222.099 3.82112 223.494 3.9031C226.95 -1.50145 232.705 -0.689994 236.595 2.68538C240.51 4.03515 241.986 6.4331 241.47 9.68723C244.369 12.223 244.904 15.3082 243.603 18.8201L241.47 30.9068Z" fill="#2F2E41"/>
<path d="M239.324 44.6293L223.239 42.4041L220.022 37.7062C224.454 34.7692 226.022 30.6669 223.982 25.0963L235.117 24.849C234.595 29.8098 236.237 33.6507 240.809 35.9754L239.324 44.6293Z" fill="#FFB9B9"/>
<path d="M219.437 189.59L218.822 197.992C218.794 198.372 218.848 198.754 218.98 199.111C219.111 199.469 219.318 199.795 219.587 200.066C219.855 200.337 220.178 200.548 220.534 200.684C220.891 200.821 221.272 200.879 221.653 200.856L225.972 200.595C226.172 200.583 226.367 200.527 226.543 200.431C226.719 200.335 226.871 200.201 226.99 200.04C227.108 199.878 227.19 199.693 227.229 199.496C227.267 199.299 227.262 199.097 227.213 198.902L224.816 189.322L219.437 189.59Z" fill="#E6E6E6"/>
<path d="M233.418 189.322L231.021 198.902C230.972 199.097 230.967 199.299 231.006 199.496C231.044 199.693 231.126 199.878 231.244 200.04C231.363 200.201 231.515 200.335 231.691 200.431C231.867 200.527 232.062 200.583 232.262 200.595L236.581 200.856C236.962 200.879 237.343 200.821 237.7 200.684C238.056 200.548 238.379 200.337 238.647 200.066C238.916 199.795 239.123 199.469 239.255 199.111C239.387 198.754 239.44 198.372 239.413 197.992L238.797 189.59L233.418 189.322Z" fill="#E6E6E6"/>
<path d="M239.077 190.757L233.249 190.172L227.446 128.201L225.254 189.973L219.528 189.768L209.877 104.218H246.748L239.077 190.757Z" fill="#EA4848"/>
<path d="M230.168 29.0523C236.318 29.0523 241.304 24.0708 241.304 17.9259C241.304 11.7809 236.318 6.79944 230.168 6.79944C224.018 6.79944 219.033 11.7809 219.033 17.9259C219.033 24.0708 224.018 29.0523 230.168 29.0523Z" fill="#FFB9B9"/>
<path d="M252.192 106.196L207.155 106.69C213.838 81.2667 217.837 57.6505 210.867 41.4151L222.002 35.9755C227.371 41.5712 233.351 40.9943 239.819 35.481L250.459 38.2008C248.637 59.4911 249.454 82.2932 252.192 106.196Z" fill="#EA4848"/>
<path d="M194.782 79.9867L222.745 91.1132L228.996 92.9504C229.276 93.0326 229.569 93.0575 229.859 93.0235C230.148 92.9895 230.428 92.8974 230.681 92.7528C230.934 92.6081 231.155 92.4138 231.331 92.1816C231.507 91.9494 231.634 91.684 231.705 91.4014C231.828 90.906 231.773 90.3828 231.547 89.9244C231.322 89.4661 230.942 89.1023 230.473 88.8977L223.982 86.9099L204.433 75.5362L208.516 64.7806L199.979 60.2064L194.782 79.9867Z" fill="#FFB9B9"/>
<path d="M195.03 59.7118C200.35 61.7857 204.581 65.325 207.897 70.0965L218.291 55.014L210.867 41.415L195.03 59.7118Z" fill="#EA4848"/>
<path d="M242.718 16.1227C238.199 14.9591 233.755 14.7994 229.436 16.2752C226.684 17.6068 223.38 17.4841 219.705 16.387V5.28613L239.544 5.81475L242.718 16.1227Z" fill="#2F2E41"/>
<path d="M222.652 67.0229C221.777 67.0239 220.939 67.3714 220.321 67.9892C219.702 68.607 219.354 69.4446 219.354 70.3183L220.655 97.547C220.656 98.4207 221.004 99.2583 221.622 99.8761C222.241 100.494 223.079 100.841 223.953 100.842H238.837C239.711 100.841 240.55 100.494 241.168 99.8761C241.786 99.2583 242.134 98.4207 242.135 97.547L243.437 70.3183C243.436 69.4446 243.088 68.607 242.47 67.9892C241.851 67.3714 241.013 67.0239 240.139 67.0229H222.652Z" fill="#3F3D56"/>
<path d="M264.881 77.9297L240.508 87.6268L238.669 88.3585C238.61 88.3812 238.552 88.4007 238.49 88.4202L232.329 90.2315C231.541 90.4624 230.451 89.4023 229.813 88.6706C229.497 88.318 229.319 87.864 229.309 87.3909C229.299 86.9178 229.46 86.457 229.761 86.0919C229.846 85.9938 229.94 85.9035 230.041 85.822C230.279 85.6374 230.558 85.5145 230.855 85.4643L237.009 84.2546C237.23 84.2113 237.442 84.1322 237.637 84.0205L240.508 82.349L255.41 73.6795C255.824 73.4388 256.14 73.0589 256.3 72.6075C256.461 72.1561 256.455 71.6625 256.285 71.2146L253.441 63.719C253.267 63.2604 253.265 62.754 253.437 62.2945C253.609 61.8349 253.942 61.4535 254.375 61.2216L259.088 58.6982C259.357 58.5537 259.655 58.4722 259.961 58.4598C260.266 58.4474 260.57 58.5044 260.85 58.6265C261.131 58.7486 261.379 58.9326 261.578 59.1647C261.777 59.3968 261.92 59.6709 261.997 59.9664L266.088 75.5363C266.214 76.0138 266.16 76.5207 265.938 76.9616C265.716 77.4024 265.339 77.7468 264.881 77.9297Z" fill="#FFB9B9"/>
<path d="M266.296 56.9921C260.976 59.066 256.745 62.6053 253.429 67.3768L243.036 52.2943L250.459 38.2008L266.296 56.9921Z" fill="#EA4848"/>
<path d="M237.579 27.829C232.708 29.8537 227.6 29.7714 222.283 27.829C223.83 25.1904 221.517 23.1239 220.33 20.4603L240.183 19.8708C238.664 22.1848 236.424 24.9186 237.579 27.829Z" fill="white"/>
<path d="M239.972 20.3112L239.742 20.0813L240.067 19.7561L242.011 17.4889L242.259 17.7003L240.306 19.9766L239.972 20.3112Z" fill="white"/>
<path d="M218.97 18.933L218.761 19.183L220.714 20.8089L220.922 20.559L218.97 18.933Z" fill="white"/>
<path d="M240.533 22.2229L237.115 27.588L237.389 27.7627L240.807 22.3976L240.533 22.2229Z" fill="white"/>
<path d="M219.328 22.2226L219.054 22.3972L222.471 27.7628L222.746 27.5882L219.328 22.2226Z" fill="white"/>
<path d="M241.159 81.889V87.7803L239.106 88.597C239.041 88.6224 238.976 88.6442 238.907 88.666L232.03 90.6878C231.151 90.9455 229.934 89.7622 229.222 88.9455C228.869 88.5519 228.669 88.0451 228.659 87.517C228.648 86.9889 228.827 86.4745 229.163 86.067C229.258 85.9575 229.363 85.8567 229.476 85.7657C229.741 85.5596 230.053 85.4224 230.384 85.3664L237.254 84.0161C237.5 83.9678 237.737 83.8795 237.955 83.7548L241.159 81.889Z" fill="white"/>
<path d="M244.133 60.8756H242.957C242.957 44.2551 239.532 32.6726 236.195 32.6726L235.901 31.4974C238.894 31.4974 240.802 36.318 241.876 40.3621C243.332 45.8446 244.133 53.1297 244.133 60.8756Z" fill="#3F3D56"/>
<path d="M217.083 56.7627H215.907C215.907 41.5409 219.356 32.085 224.434 32.085L224.14 33.2601C220.627 33.2601 217.083 40.5273 217.083 56.7627Z" fill="#3F3D56"/>
<path d="M243.545 64.1072C245.169 64.1072 246.485 62.7919 246.485 61.1694C246.485 59.5469 245.169 58.2316 243.545 58.2316C241.921 58.2316 240.605 59.5469 240.605 61.1694C240.605 62.7919 241.921 64.1072 243.545 64.1072Z" fill="#3F3D56"/>
<path d="M212.379 63.8134H211.203C211.203 59.6016 213.577 56.175 216.495 56.175V57.3502C214.226 57.3502 212.379 60.2496 212.379 63.8134Z" fill="#3F3D56"/>
<path d="M221.788 63.8134H220.612C220.612 60.2496 218.765 57.3502 216.496 57.3502V56.175C219.414 56.175 221.788 59.6016 221.788 63.8134Z" fill="#3F3D56"/>
<path d="M221.2 65.2824C221.849 65.2824 222.376 64.7563 222.376 64.1073C222.376 63.4583 221.849 62.9321 221.2 62.9321C220.55 62.9321 220.023 63.4583 220.023 64.1073C220.023 64.7563 220.55 65.2824 221.2 65.2824Z" fill="#3F3D56"/>
<path d="M211.791 65.2824C212.44 65.2824 212.967 64.7563 212.967 64.1073C212.967 63.4583 212.44 62.9321 211.791 62.9321C211.141 62.9321 210.615 63.4583 210.615 64.1073C210.615 64.7563 211.141 65.2824 211.791 65.2824Z" fill="#3F3D56"/>
<path d="M70.0597 24.6158L49.4046 28.1108C48.8944 28.1978 48.37 28.0925 47.9329 27.8154C47.4958 27.5384 47.1772 27.1091 47.0386 26.6108C45.5463 21.2291 42.4263 14.2085 45.4555 10.6842C45.6098 9.20158 46.3305 7.83551 47.4675 6.87042C48.6045 5.90532 50.0702 5.41556 51.5594 5.50309C55.2493 -0.268109 61.3953 0.598401 65.5492 4.20277C69.7298 5.64411 71.3059 8.20474 70.7547 11.6796C72.5607 13.2592 73.5076 15.0384 73.7073 16.9912C73.8019 18.0779 73.6635 19.1723 73.3013 20.2013C72.9392 21.2303 72.3615 22.1704 71.6069 22.9586L70.0597 24.6158Z" fill="#2F2E41"/>
<path d="M66.8487 40.8638L50.8364 39.9227C52.4057 36.3239 53.0325 32.8584 52.4063 29.5702H64.337C64.31 32.0949 65.5674 36.4622 66.8487 40.8638Z" fill="#9F616A"/>
<path d="M47.574 188.702L46.9173 197.673C46.8876 198.08 46.9451 198.487 47.086 198.869C47.2269 199.251 47.4479 199.599 47.7342 199.889C48.0206 200.178 48.3656 200.403 48.7461 200.549C49.1267 200.695 49.534 200.757 49.9407 200.732L54.5524 200.453C54.7661 200.44 54.9743 200.381 55.1623 200.278C55.3502 200.176 55.5132 200.033 55.6398 199.861C55.7664 199.688 55.8534 199.49 55.8946 199.28C55.9358 199.07 55.9303 198.854 55.8784 198.646L53.3185 188.415L47.574 188.702Z" fill="#E6E6E6"/>
<path d="M62.5043 188.415L59.9444 198.646C59.8925 198.854 59.8869 199.07 59.9282 199.28C59.9694 199.49 60.0564 199.688 60.183 199.861C60.3095 200.033 60.4726 200.176 60.6605 200.278C60.8484 200.381 61.0566 200.44 61.2703 200.453L65.882 200.732C66.2888 200.757 66.6961 200.695 67.0766 200.549C67.4572 200.403 67.8022 200.178 68.0885 199.889C68.3749 199.599 68.5959 199.251 68.7368 198.869C68.8777 198.487 68.9352 198.08 68.9055 197.673L68.2487 188.702L62.5043 188.415Z" fill="#E6E6E6"/>
<path d="M68.5462 189.948L62.3229 189.324L56.127 123.149L53.7854 189.111L47.6711 188.892L37.3657 97.5378H76.7378L68.5462 189.948Z" fill="#EA4848"/>
<path d="M58.6863 33.3784C65.2535 33.3784 70.5772 28.059 70.5772 21.4971C70.5772 14.9353 65.2535 9.61584 58.6863 9.61584C52.1191 9.61584 46.7954 14.9353 46.7954 21.4971C46.7954 28.059 52.1191 33.3784 58.6863 33.3784Z" fill="#9F616A"/>
<path d="M72.0877 15.8213C67.2616 14.9815 62.5166 14.8662 57.904 15.9314C54.9658 16.8925 51.4373 16.804 47.5132 16.0121V7.99988L68.6981 8.38141L72.0877 15.8213Z" fill="#2F2E41"/>
<path d="M66.5997 31.0304C61.3978 33.1924 55.9433 33.1046 50.2658 31.0304C51.9179 28.2128 49.4484 26.0061 48.1807 23.1618L69.38 22.5323C67.7588 25.0032 65.3667 27.9225 66.5997 31.0304Z" fill="white"/>
<path d="M46.7212 21.5392L46.5127 21.7892L48.5978 23.5253L48.8062 23.2754L46.7212 21.5392Z" fill="white"/>
<path d="M69.7642 25.0496L66.1143 30.7787L66.3889 30.9533L70.0388 25.2242L69.7642 25.0496Z" fill="white"/>
<path d="M47.1013 25.0494L46.8267 25.224L50.4757 30.9537L50.7504 30.779L47.1013 25.0494Z" fill="white"/>
<path d="M36.0796 75.6859L26.9746 70.039L34.7396 47.3153C35.6056 44.9705 37.2645 43.0018 39.4293 41.7495L42.045 40.2363L42.2725 63.1603L36.0796 75.6859Z" fill="#EA4848"/>
<path d="M75.4362 86.7221L74.0891 75.1935C74.0172 69.1083 75.0532 63.2251 77.5238 57.8042L78.7796 40.8637L64.9651 35.2169C64.9227 35.4982 64.8867 35.7793 64.8463 36.0606L58.3718 39.2952L52.0575 37.8613L52.0925 35.8444L39.5338 41.4912C43.6869 60.7839 41.4217 80.8185 34.2798 104.483L50.8247 109.003L50.9622 101.065L65.7073 100.013C65.8592 102.588 65.9812 105.118 66.0521 107.591C74.3723 110.652 74.6581 110.601 82.2388 106.219C79.2199 99.8769 76.8296 93.2774 75.4362 86.7221Z" fill="#EA4848"/>
<path d="M96.6752 72.8624L88.1982 70.0391L74.6387 54.2666L78.7791 40.864L97.6171 67.2159L96.6752 72.8624Z" fill="#EA4848"/>
<path d="M70.1084 85.0733C70.2471 85.6815 70.6215 86.2099 71.1495 86.5427C71.6776 86.8754 72.3161 86.9854 72.9252 86.8485L80.1211 85.2202L79.0811 80.6307L71.885 82.2587C71.2759 82.3966 70.7466 82.7706 70.4134 83.2984C70.0803 83.8262 69.9705 84.4646 70.1084 85.0733V85.0733Z" fill="#E6E6E6"/>
<path d="M76.5815 79.7641L80.6631 87.2932C87.5282 85.38 93.4779 79.3486 99.1871 72.235L97.6173 67.2156L87.8843 69.7253L76.5815 79.7641Z" fill="#EA4848"/>
<path d="M23.3643 56.1471L31.1998 57.5451L49.1097 82.99L39.5951 80.753L23.3643 56.1471Z" fill="#E6E6E6"/>
<path d="M21.9743 55.8356C21.8549 55.8374 21.7382 55.8712 21.6363 55.9335C21.5345 55.9958 21.4513 56.0843 21.3954 56.1897C21.3395 56.2952 21.313 56.4137 21.3186 56.5329C21.3243 56.6521 21.3619 56.7675 21.4275 56.8672L38.1684 82.2469C38.2618 82.3887 38.4061 82.4894 38.5716 82.5282L46.3607 84.3594C46.492 84.3903 46.6296 84.3805 46.7553 84.3314C46.881 84.2824 46.9887 84.1963 47.0643 84.0846C47.1399 83.9729 47.1797 83.8409 47.1784 83.7061C47.1772 83.5713 47.1349 83.4401 47.0573 83.3298L28.6767 57.2162C28.6269 57.145 28.5635 57.0844 28.4902 57.0377C28.4169 56.9911 28.3351 56.9593 28.2495 56.9443L22.0998 55.8469C22.0584 55.8395 22.0164 55.8357 21.9743 55.8356Z" fill="#3F3D56"/>
<path d="M32.4175 73.9818L32.8828 78.6645L40.2248 77.9363C40.8463 77.8747 41.4178 77.5689 41.8136 77.0862C42.2095 76.6035 42.3972 75.9835 42.3355 75.3626C42.2738 74.7416 41.9678 74.1705 41.4847 73.775C41.0017 73.3795 40.3812 73.1919 39.7597 73.2536L32.4175 73.9818Z" fill="#E6E6E6"/>
<path d="M26.0332 73.4394C26.0439 75.0361 26.6857 76.5639 27.8188 77.6898C28.9519 78.8158 30.4844 79.4486 32.0824 79.4504H33.2897L34.1686 72.132L26.8914 69.5143L26.0332 73.4394Z" fill="#EA4848"/>
<path d="M68.7999 23.3419L68.5698 23.112L68.9174 22.7647L70.9941 20.343L71.2411 20.5544L69.156 22.9852L68.7999 23.3419Z" fill="white"/>
<path d="M289 200.35H0V201H289V200.35Z" fill="#3F3D56"/>
<path d="M110.328 200.025H178.672V117.194C178.672 112.808 174.349 109.24 169.034 109.24H119.966C114.651 109.24 110.328 112.808 110.328 117.194V200.025Z" fill="#E6E6E6"/>
<path d="M115.535 196.599H173.465V126.391C173.465 122.673 169.8 119.648 165.296 119.648H123.704C119.199 119.648 115.535 122.673 115.535 126.391V196.599Z" fill="white"/>
<path d="M109.811 102.794C108.122 102.794 106.748 103.928 106.748 105.322V112.62C106.748 114.015 108.122 115.149 109.811 115.149H179.189C180.878 115.149 182.252 114.015 182.252 112.62V105.322C182.252 103.928 180.878 102.794 179.189 102.794H109.811Z" fill="#3F3D56"/>
<path d="M124.055 187.597C123.262 187.599 122.502 187.915 121.941 188.475C121.38 189.036 121.064 189.795 121.062 190.587C121.064 191.38 121.38 192.139 121.941 192.699C122.502 193.26 123.262 193.576 124.055 193.578H129.657V187.597H124.055Z" fill="#3F3D56"/>
<path d="M134.8 187.597H129.351V193.578H134.8C135.593 193.576 136.353 193.26 136.914 192.699C137.475 192.139 137.791 191.38 137.793 190.587C137.791 189.795 137.475 189.036 136.914 188.475C136.353 187.915 135.593 187.599 134.8 187.597Z" fill="#EA4848"/>
<path opacity="0.2" d="M136.753 188.329C137.225 188.87 137.485 189.563 137.486 190.281C137.484 191.073 137.168 191.832 136.607 192.393C136.046 192.953 135.286 193.269 134.493 193.271H129.351V193.578H134.8C135.593 193.576 136.353 193.26 136.914 192.699C137.475 192.139 137.791 191.38 137.793 190.587C137.792 190.158 137.699 189.735 137.52 189.345C137.34 188.955 137.079 188.609 136.753 188.329Z" fill="black"/>
<path d="M149.336 142.55C148.791 141.975 148.039 141.639 147.247 141.615C146.454 141.592 145.684 141.883 145.105 142.425C144.53 142.97 144.194 143.721 144.17 144.513C144.147 145.305 144.438 146.074 144.98 146.653L148.823 150.726L153.179 146.623L149.336 142.55Z" fill="#3F3D56"/>
<path d="M156.706 150.362L152.969 146.4L148.613 150.503L152.35 154.464C152.896 155.04 153.647 155.375 154.44 155.399C155.233 155.422 156.003 155.131 156.581 154.589C157.157 154.044 157.493 153.293 157.516 152.501C157.54 151.709 157.249 150.94 156.706 150.362Z" fill="#EA4848"/>
<path opacity="0.2" d="M157.513 152.284C157.442 152.998 157.116 153.663 156.594 154.156C156.015 154.698 155.246 154.989 154.453 154.965C153.66 154.942 152.909 154.606 152.363 154.031L148.836 150.292L148.613 150.503L152.35 154.465C152.896 155.04 153.647 155.375 154.44 155.399C155.233 155.422 156.003 155.131 156.581 154.589C156.893 154.295 157.138 153.936 157.299 153.538C157.459 153.14 157.532 152.713 157.513 152.284Z" fill="black"/>
<path d="M133.39 151.98C132.844 151.405 132.093 151.069 131.3 151.046C130.507 151.022 129.737 151.314 129.159 151.855C128.583 152.401 128.247 153.151 128.223 153.943C128.2 154.736 128.491 155.505 129.034 156.083L132.877 160.156L137.232 156.054L133.39 151.98Z" fill="#3F3D56"/>
<path d="M140.759 159.792L137.022 155.83L132.666 159.933L136.404 163.895C136.949 164.47 137.701 164.806 138.493 164.829C139.286 164.853 140.056 164.562 140.635 164.02C141.21 163.474 141.546 162.724 141.57 161.932C141.593 161.14 141.302 160.37 140.759 159.792Z" fill="#EA4848"/>
<path opacity="0.2" d="M141.566 161.715C141.496 162.429 141.17 163.093 140.647 163.586C140.069 164.128 139.299 164.419 138.506 164.396C137.713 164.372 136.962 164.036 136.416 163.461L132.889 159.723L132.666 159.933L136.404 163.895C136.949 164.47 137.701 164.806 138.493 164.829C139.286 164.853 140.056 164.562 140.635 164.02C140.947 163.725 141.191 163.366 141.352 162.969C141.513 162.571 141.586 162.143 141.566 161.715Z" fill="black"/>
<path d="M149.336 160.76C148.791 160.185 148.039 159.849 147.247 159.826C146.454 159.803 145.684 160.094 145.105 160.635C144.53 161.181 144.194 161.931 144.17 162.723C144.147 163.516 144.438 164.285 144.98 164.863L148.823 168.936L153.179 164.834L149.336 160.76Z" fill="#3F3D56"/>
<path d="M156.706 168.572L152.969 164.61L148.613 168.713L152.35 172.675C152.896 173.25 153.647 173.586 154.44 173.609C155.233 173.633 156.003 173.342 156.581 172.8C157.157 172.255 157.493 171.504 157.516 170.712C157.54 169.92 157.249 169.15 156.706 168.572Z" fill="#EA4848"/>
<path opacity="0.2" d="M157.513 170.495C157.442 171.209 157.116 171.873 156.594 172.366C156.015 172.908 155.246 173.199 154.453 173.176C153.66 173.152 152.909 172.816 152.363 172.241L148.836 168.503L148.613 168.713L152.35 172.675C152.896 173.25 153.647 173.586 154.44 173.609C155.233 173.633 156.003 173.342 156.581 172.8C156.893 172.505 157.138 172.147 157.299 171.749C157.459 171.351 157.532 170.923 157.513 170.495Z" fill="black"/>
<path d="M159.065 179.448C159.634 178.896 159.961 178.141 159.975 177.349C159.989 176.556 159.688 175.791 159.139 175.219C158.586 174.651 157.831 174.324 157.038 174.31C156.245 174.296 155.479 174.597 154.907 175.146L150.877 179.035L155.036 183.337L159.065 179.448Z" fill="#3F3D56"/>
<path d="M151.337 186.906L155.256 183.124L151.097 178.821L147.178 182.604C146.609 183.156 146.282 183.911 146.269 184.703C146.255 185.495 146.555 186.261 147.105 186.833C147.657 187.401 148.413 187.728 149.206 187.741C149.999 187.755 150.765 187.455 151.337 186.906Z" fill="#EA4848"/>
<path opacity="0.2" d="M149.423 187.735C148.707 187.674 148.038 187.356 147.539 186.84C146.989 186.269 146.689 185.503 146.703 184.711C146.716 183.918 147.043 183.164 147.612 182.611L151.311 179.042L151.097 178.821L147.178 182.604C146.609 183.156 146.282 183.911 146.269 184.703C146.255 185.495 146.555 186.261 147.105 186.833C147.403 187.141 147.765 187.381 148.165 187.536C148.565 187.692 148.994 187.76 149.423 187.735Z" fill="black"/>
<path d="M137.585 170.017C138.154 169.465 138.481 168.71 138.495 167.918C138.509 167.126 138.208 166.36 137.659 165.789C137.106 165.22 136.351 164.893 135.558 164.88C134.765 164.866 133.999 165.166 133.427 165.715L129.397 169.604L133.556 173.906L137.585 170.017Z" fill="#3F3D56"/>
<path d="M129.857 177.476L133.777 173.693L129.618 169.391L125.699 173.173C125.13 173.726 124.803 174.48 124.789 175.273C124.775 176.065 125.076 176.831 125.625 177.402C126.178 177.971 126.933 178.297 127.726 178.311C128.519 178.325 129.285 178.024 129.857 177.476Z" fill="#EA4848"/>
<path opacity="0.2" d="M127.943 178.305C127.228 178.243 126.559 177.925 126.059 177.41C125.51 176.838 125.209 176.073 125.223 175.28C125.237 174.488 125.564 173.733 126.133 173.181L129.831 169.612L129.618 169.391L125.699 173.173C125.13 173.726 124.803 174.48 124.789 175.273C124.775 176.065 125.076 176.831 125.625 177.402C125.924 177.71 126.286 177.95 126.686 178.106C127.086 178.262 127.515 178.329 127.943 178.305Z" fill="black"/>
<path d="M168.178 158.636C168.747 158.084 169.074 157.329 169.088 156.537C169.102 155.744 168.801 154.979 168.252 154.407C167.699 153.839 166.944 153.512 166.151 153.498C165.358 153.484 164.591 153.785 164.019 154.334L159.99 158.223L164.148 162.525L168.178 158.636Z" fill="#3F3D56"/>
<path d="M160.45 166.094L164.369 162.312L160.21 158.01L156.291 161.792C155.722 162.344 155.395 163.099 155.381 163.891C155.368 164.683 155.668 165.449 156.217 166.021C156.77 166.589 157.525 166.916 158.318 166.93C159.111 166.943 159.878 166.643 160.45 166.094Z" fill="#EA4848"/>
<path opacity="0.2" d="M158.536 166.923C157.82 166.862 157.151 166.544 156.652 166.028C156.102 165.457 155.802 164.691 155.815 163.899C155.829 163.106 156.156 162.352 156.725 161.799L160.423 158.23L160.21 158.01L156.291 161.792C155.722 162.344 155.395 163.099 155.381 163.891C155.368 164.683 155.668 165.449 156.217 166.021C156.516 166.329 156.878 166.569 157.278 166.725C157.678 166.88 158.107 166.948 158.536 166.923Z" fill="black"/>
<path d="M161.378 182.223C160.833 181.647 160.081 181.312 159.289 181.288C158.496 181.265 157.726 181.556 157.147 182.098C156.572 182.643 156.236 183.394 156.212 184.186C156.189 184.978 156.48 185.747 157.022 186.325L160.865 190.399L165.221 186.296L161.378 182.223Z" fill="#3F3D56"/>
<path d="M168.748 190.035L165.011 186.073L160.655 190.176L164.392 194.137C164.938 194.712 165.689 195.048 166.482 195.072C167.275 195.095 168.045 194.804 168.623 194.262C169.199 193.717 169.535 192.966 169.559 192.174C169.582 191.382 169.291 190.613 168.748 190.035Z" fill="#EA4848"/>
<path opacity="0.2" d="M169.555 191.957C169.484 192.671 169.158 193.336 168.636 193.828C168.057 194.37 167.288 194.661 166.495 194.638C165.702 194.615 164.951 194.279 164.405 193.704L160.878 189.965L160.655 190.175L164.392 194.137C164.938 194.712 165.689 195.048 166.482 195.072C167.275 195.095 168.045 194.804 168.623 194.262C168.935 193.967 169.18 193.609 169.341 193.211C169.501 192.813 169.574 192.385 169.555 191.957Z" fill="black"/>
<path d="M140.224 181.897C139.678 181.322 138.927 180.986 138.134 180.963C137.342 180.94 136.572 181.231 135.993 181.773C135.418 182.318 135.081 183.069 135.058 183.861C135.035 184.653 135.326 185.422 135.868 186L139.711 190.074L144.067 185.971L140.224 181.897Z" fill="#3F3D56"/>
<path d="M147.594 189.709L143.856 185.748L139.5 189.85L143.238 193.812C143.784 194.387 144.535 194.723 145.328 194.746C146.121 194.77 146.89 194.479 147.469 193.937C148.045 193.392 148.381 192.641 148.404 191.849C148.428 191.057 148.136 190.288 147.594 189.709Z" fill="#EA4848"/>
<path opacity="0.2" d="M148.4 191.632C148.33 192.346 148.004 193.011 147.482 193.503C146.903 194.045 146.133 194.336 145.341 194.313C144.548 194.289 143.797 193.953 143.251 193.378L139.724 189.64L139.5 189.85L143.238 193.812C143.784 194.387 144.535 194.723 145.328 194.746C146.121 194.77 146.89 194.479 147.469 193.937C147.781 193.642 148.026 193.284 148.186 192.886C148.347 192.488 148.42 192.06 148.4 191.632Z" fill="black"/>
<path d="M146.178 171.168C146.179 172.163 145.835 173.126 145.206 173.897C144.576 174.667 143.7 175.196 142.725 175.395C142.155 175.51 141.568 175.51 140.999 175.395C140.024 175.196 139.148 174.667 138.518 173.896C137.889 173.126 137.545 172.163 137.545 171.168C137.545 170.174 137.889 169.21 138.518 168.44C139.148 167.67 140.024 167.141 140.999 166.942C141.568 166.827 142.155 166.827 142.725 166.942C143.7 167.14 144.576 167.67 145.206 168.44C145.835 169.21 146.179 170.174 146.178 171.168Z" fill="#EA4848"/>
<path opacity="0.2" d="M142.726 166.942V175.395C142.156 175.51 141.569 175.51 140.999 175.395V166.942C141.569 166.827 142.156 166.827 142.726 166.942Z" fill="black"/>
<path d="M148.131 153.933C148.131 154.928 147.788 155.892 147.158 156.662C146.529 157.432 145.653 157.961 144.678 158.16C144.108 158.275 143.521 158.275 142.951 158.16C141.976 157.961 141.1 157.432 140.471 156.662C139.842 155.891 139.498 154.928 139.498 153.933C139.498 152.939 139.842 151.976 140.471 151.205C141.1 150.435 141.976 149.906 142.951 149.707C143.521 149.592 144.108 149.592 144.678 149.707C145.653 149.906 146.529 150.435 147.158 151.205C147.788 151.975 148.131 152.939 148.131 153.933Z" fill="#EA4848"/>
<path opacity="0.2" d="M144.678 149.707V158.16C144.108 158.275 143.521 158.275 142.952 158.16V149.707C143.521 149.592 144.108 149.592 144.678 149.707Z" fill="black"/>
<path d="M148.131 178.648C148.131 179.642 147.788 180.606 147.158 181.376C146.529 182.146 145.653 182.676 144.678 182.874C144.108 182.989 143.521 182.989 142.951 182.874C141.976 182.675 141.1 182.146 140.471 181.376C139.842 180.606 139.498 179.642 139.498 178.648C139.498 177.653 139.842 176.69 140.471 175.92C141.1 175.149 141.976 174.62 142.951 174.421C143.521 174.306 144.108 174.306 144.678 174.421C145.653 174.62 146.529 175.149 147.158 175.919C147.788 176.69 148.131 177.653 148.131 178.648Z" fill="#EA4848"/>
<path opacity="0.2" d="M144.678 174.421V182.874C144.108 182.989 143.521 182.989 142.952 182.874V174.421C143.521 174.306 144.108 174.306 144.678 174.421Z" fill="black"/>
<path d="M158.871 190.68C158.871 191.674 158.528 192.638 157.899 193.408C157.269 194.178 156.393 194.707 155.418 194.906C154.848 195.021 154.261 195.021 153.691 194.906C152.717 194.707 151.84 194.178 151.211 193.408C150.582 192.638 150.238 191.674 150.238 190.68C150.238 189.685 150.582 188.722 151.211 187.951C151.84 187.181 152.717 186.652 153.691 186.453C154.261 186.338 154.848 186.338 155.418 186.453C156.393 186.652 157.269 187.181 157.899 187.951C158.528 188.721 158.871 189.685 158.871 190.68Z" fill="#EA4848"/>
<path opacity="0.2" d="M155.418 186.453V194.906C154.848 195.021 154.261 195.021 153.691 194.906V186.453C154.261 186.338 154.848 186.338 155.418 186.453Z" fill="black"/>
<path d="M168.359 168.542C169.075 169.232 169.531 170.148 169.65 171.135C169.768 172.123 169.541 173.12 169.008 173.96C168.696 174.449 168.288 174.872 167.81 175.202C166.99 175.765 166 176.028 165.009 175.946C164.017 175.864 163.084 175.443 162.368 174.753C161.651 174.063 161.195 173.147 161.077 172.16C160.959 171.173 161.185 170.175 161.718 169.335C162.031 168.846 162.438 168.423 162.917 168.093C163.737 167.53 164.726 167.267 165.718 167.349C166.71 167.43 167.642 167.852 168.359 168.542Z" fill="#EA4848"/>
<path opacity="0.2" d="M162.916 168.093L169.008 173.96C168.695 174.45 168.288 174.872 167.81 175.202L161.718 169.335C162.031 168.846 162.438 168.423 162.916 168.093Z" fill="black"/>
<path d="M169.661 177.973C170.377 178.663 170.833 179.579 170.952 180.566C171.07 181.553 170.843 182.551 170.31 183.39C169.997 183.88 169.59 184.302 169.112 184.632C168.292 185.196 167.302 185.459 166.31 185.377C165.319 185.295 164.386 184.873 163.669 184.183C162.953 183.493 162.497 182.577 162.379 181.59C162.26 180.603 162.487 179.605 163.02 178.766C163.333 178.276 163.74 177.854 164.218 177.524C165.038 176.96 166.028 176.697 167.02 176.779C168.011 176.861 168.944 177.283 169.661 177.973Z" fill="#EA4848"/>
<path opacity="0.2" d="M164.218 177.524L170.31 183.39C169.997 183.88 169.59 184.302 169.111 184.632L163.02 178.766C163.333 178.276 163.74 177.854 164.218 177.524Z" fill="black"/>
<path d="M130.932 180.249C131.649 180.939 132.105 181.855 132.223 182.842C132.341 183.829 132.115 184.827 131.581 185.667C131.269 186.156 130.861 186.579 130.383 186.909C129.563 187.472 128.574 187.735 127.582 187.653C126.59 187.571 125.657 187.15 124.941 186.46C124.225 185.77 123.769 184.854 123.65 183.867C123.532 182.879 123.759 181.882 124.292 181.042C124.604 180.552 125.012 180.13 125.49 179.8C126.31 179.237 127.299 178.974 128.291 179.055C129.283 179.137 130.216 179.559 130.932 180.249Z" fill="#EA4848"/>
<path opacity="0.2" d="M125.49 179.8L131.581 185.667C131.269 186.156 130.861 186.579 130.383 186.909L124.292 181.042C124.604 180.552 125.011 180.13 125.49 179.8Z" fill="black"/>
<path opacity="0.2" d="M116.999 102.794H115.372V114.825H116.999V102.794Z" fill="black"/>
<path opacity="0.2" d="M126.437 102.794H124.81V114.825H126.437V102.794Z" fill="black"/>
<path opacity="0.2" d="M135.876 102.794H134.249V114.825H135.876V102.794Z" fill="black"/>
<path opacity="0.2" d="M145.314 102.794H143.687V114.825H145.314V102.794Z" fill="black"/>
<path opacity="0.2" d="M154.752 102.794H153.125V114.825H154.752V102.794Z" fill="black"/>
<path opacity="0.2" d="M164.19 102.794H162.562V114.825H164.19V102.794Z" fill="black"/>
<path opacity="0.2" d="M173.628 102.794H172V114.825H173.628V102.794Z" fill="black"/>
</svg>
