<svg width="917" height="550" viewBox="0 0 917 550" fill="none" xmlns="http://www.w3.org/2000/svg">
<path opacity="0.1" d="M12.0743 227.371H96.2023V329.518H18.2332C18.026 330.567 17.827 331.623 17.6115 332.679H96.2023V415.058C96.0614 415.021 95.937 414.977 95.8044 414.933C93.5829 414.15 91.3779 413.323 89.173 412.437L87.7638 411.868C85.5533 410.938 83.3428 409.953 81.1323 408.914C80.3614 408.553 79.5905 408.176 78.8279 407.792C66.5563 401.668 55.4082 393.909 45.7702 384.782C45.4884 384.539 45.2231 384.28 44.9413 384.044C43.5984 382.744 42.2804 381.43 41.0039 380.086L39.5947 378.609C38.0861 376.963 36.6271 375.271 35.2097 373.558C35.0024 373.307 34.8035 373.056 34.588 372.82C28.8232 365.699 24.0366 357.989 20.3304 349.855C20.2144 349.611 20.1149 349.345 20.0071 349.116C18.8687 346.507 17.8602 343.873 16.9815 341.215C16.6002 340.1 16.2355 339 15.9205 337.84C15.8045 337.501 15.705 337.168 15.6138 336.836C10.9055 320.465 10.3501 303.459 10.3501 286.571C10.3501 284.599 10.3501 282.62 10.3501 280.664C10.3501 273.833 10.4413 266.958 10.5739 260.091C10.5739 258.311 10.6568 256.539 10.6982 254.752C10.8143 250.218 10.9801 245.684 11.1956 241.15C11.2453 239.887 11.3117 238.632 11.3863 237.377C11.3863 236.653 11.4277 235.929 11.5106 235.206C11.7095 232.577 11.8753 229.97 12.0743 227.371Z" fill="#EA4848"/>
<path opacity="0.1" d="M96.2024 113.638H50.0559C57.5573 103.178 65.7534 93.1276 74.6005 83.5392C81.4557 76.0368 88.6923 68.7263 96.2024 61.6816V113.638Z" fill="#EA4848"/>
<path opacity="0.1" d="M96.2023 116.798V224.21H12.3395C12.3395 223.9 12.3975 223.583 12.4224 223.273C12.497 222.423 12.5716 221.574 12.6545 220.732C12.7457 219.743 12.8451 218.746 12.9529 217.779C13.0606 216.811 13.1767 215.63 13.301 214.559C13.4254 213.488 13.5414 212.403 13.6823 211.332C13.8233 210.261 13.9476 209.191 14.0968 208.127C14.246 207.064 14.3786 205.986 14.5361 204.923C14.6605 204.037 14.7931 203.158 14.9257 202.272C15.1164 201.024 15.3153 199.768 15.5309 198.528C15.5309 198.343 15.5889 198.151 15.622 197.974C17.135 188.892 19.1965 179.89 21.7976 171.006C24.5203 161.687 27.997 152.556 32.2006 143.685C36.6683 134.404 41.8992 125.43 47.8508 116.835L96.2023 116.798Z" fill="#EA4848"/>
<path opacity="0.1" d="M116.379 239.361V337.273H296.051V239.361H116.379ZM116.379 340.295V424.377C117.407 424.561 118.426 424.738 119.437 424.886C120.813 425.113 122.181 425.318 123.582 425.495C123.847 425.53 124.12 425.566 124.411 425.587C124.958 425.665 125.521 425.729 126.068 425.792C127.452 425.955 128.828 426.089 130.213 426.196C130.867 426.252 131.53 426.302 132.194 426.344L133.793 426.45C134.664 426.507 135.526 426.55 136.379 426.571C136.91 426.571 137.44 426.613 137.987 426.627C138.402 426.627 138.816 426.627 139.247 426.627C139.678 426.627 140.292 426.627 140.814 426.627C141.527 426.627 142.239 426.627 142.944 426.627H143.897C144.61 426.627 145.323 426.627 146.027 426.571H146.077C146.566 426.571 147.063 426.571 147.561 426.514C147.699 426.521 147.837 426.521 147.975 426.514C148.389 426.514 148.804 426.514 149.202 426.465H149.492L152.269 426.281C153.18 426.21 154.1 426.118 155.029 426.033L156.918 425.842C164.607 424.922 172.21 423.541 179.671 421.708C196.43 417.717 212.825 412.133 229.576 408.042C251.234 402.769 275.164 400.178 296.092 406.626V340.295H116.379ZM296.051 130.36V0.0115746C276.38 -0.170407 256.762 1.79419 237.674 5.85766C192.178 15.6177 151.357 36.7867 116.379 63.8231V130.352H125.397V133.375H116.379V236.339H296.051V133.382H162.422V130.36H296.051ZM526.83 86.3299C515.575 85.9901 504.385 82.9468 494.265 78.2472C474.911 69.2587 459.452 55.3796 442.179 43.6661C406.289 19.2697 361.78 4.54831 316.118 0.896273V130.36H572.608L573.247 129.786L526.83 86.3299ZM550.196 82.7911L574.971 106.006V76.7043C566.674 77.582 559.405 79.6698 550.229 82.7627L550.196 82.7911ZM574.971 445.256V340.295H522.181C522.04 339.849 521.899 339.396 521.733 338.943C521.89 339.396 522.023 339.849 522.172 340.295H316.151V416.202C318.107 417.441 320.038 418.743 321.953 420.066C324.017 421.482 326.056 422.975 328.103 424.44L330.167 425.898C331.153 426.606 332.148 427.314 333.151 427.979C335.14 429.357 337.149 430.716 339.176 432.056C340.179 432.764 341.207 433.401 342.227 434.066C358.412 444.633 375.486 454.168 393.309 462.596C397.304 464.483 401.335 466.326 405.402 468.123C408.113 469.305 410.84 470.48 413.575 471.62C417.686 473.332 421.83 474.984 426.008 476.574C464.522 491.337 505.248 501.467 547.021 506.675C556.299 507.845 565.613 508.765 574.962 509.435V445.249H575.791L574.971 445.256ZM316.151 133.382V236.339H575.004V133.382H316.151ZM316.151 239.361V337.273H575.004V239.361H316.151ZM595.095 76.5769V109.261L626.716 79.6345C616.24 78.1906 605.699 77.1597 595.095 76.5415V76.5769ZM595.095 239.397V337.273H846.862V239.361L595.095 239.397ZM845.942 453.027L846.828 340.295H595.095V510.561C611.312 511.142 627.554 510.977 643.749 510.065H644.031C651.767 509.65 659.467 509.046 667.132 508.253H667.306C708.194 504.19 748.175 495.08 785.998 481.21L845.942 453.027ZM895.408 255.484C894.463 253.58 893.477 251.691 892.474 249.822C890.601 246.283 888.62 242.844 886.581 239.404H866.937V337.273H916.602C916.577 309.557 908.363 281.247 895.433 255.449L895.408 255.484ZM866.937 340.33V437.293C880.928 425.842 892.747 412.741 901.26 397.765C911.496 379.731 916.179 360.204 916.56 340.316L866.937 340.33ZM866.937 210.867V236.346H884.741C879.355 227.575 873.42 219.058 866.961 210.832L866.937 210.867ZM696.191 95.7855C694.882 95.3609 693.572 94.9291 692.254 94.5116C678.355 90.1286 664.152 86.4838 649.726 83.5979L601.337 128.944L600.408 129.786L601.03 130.367H773.251C749.265 116.268 723.406 104.648 696.216 95.7501L696.191 95.7855ZM778.298 133.417H598.626L595.095 136.177V236.339H626.045H626.095H846.895V187.822C826.921 167.195 803.868 148.893 778.323 133.382L778.298 133.417Z" fill="#EA4848"/>
<path opacity="0.1" d="M96.2023 170.977V224.211H12.3395C12.3395 223.9 12.3975 223.583 12.4224 223.273C12.497 222.424 12.5716 221.574 12.6545 220.732C12.7457 219.743 12.8451 218.746 12.9529 217.779C13.0606 216.811 13.1767 215.63 13.301 214.559C13.4254 213.488 13.5414 212.403 13.6823 211.332C13.8233 210.262 13.9476 209.191 14.0968 208.127C14.246 207.064 14.3786 205.986 14.5361 204.923C14.6605 204.037 14.7931 203.158 14.9257 202.272C15.1164 201.024 15.3153 199.768 15.5309 198.528C15.5309 198.343 15.5889 198.151 15.622 197.974C17.135 188.892 19.1965 179.89 21.7976 171.006L96.2023 170.977Z" fill="#EA4848"/>
<path opacity="0.1" d="M12.0743 227.371H96.2023V329.518H18.2332C18.026 330.567 17.827 331.623 17.6115 332.679H96.2023V415.058C96.0614 415.021 95.937 414.977 95.8044 414.933C93.5829 414.15 91.3779 413.323 89.173 412.437L87.7638 411.868C85.5533 410.938 83.3428 409.953 81.1323 408.914C80.3614 408.553 79.5905 408.176 78.8279 407.792C66.5563 401.668 55.4082 393.909 45.7702 384.782C45.4884 384.539 45.2231 384.28 44.9413 384.044C43.5984 382.744 42.2804 381.43 41.0039 380.086L39.5947 378.609C38.0861 376.963 36.6271 375.271 35.2097 373.558C35.0024 373.307 34.8035 373.056 34.588 372.82C28.8232 365.699 24.0366 357.989 20.3304 349.855C20.2144 349.611 20.1149 349.345 20.0071 349.116C18.8687 346.507 17.8602 343.873 16.9815 341.215C16.6002 340.1 16.2355 339 15.9205 337.84C15.8045 337.501 15.705 337.168 15.6138 336.836C10.9055 320.465 10.3501 303.459 10.3501 286.571C10.3501 284.599 10.3501 282.62 10.3501 280.664C10.3501 273.833 10.4413 266.958 10.5739 260.091C10.5739 258.311 10.6568 256.539 10.6982 254.752C10.8143 250.218 10.9801 245.684 11.1956 241.15C11.2453 239.887 11.3117 238.632 11.3863 237.377C11.3863 236.653 11.4277 235.929 11.5106 235.206C11.7095 232.577 11.8753 229.97 12.0743 227.371Z" fill="#EA4848"/>
<path opacity="0.1" d="M179.543 132.172V224.21H116.288V132.172H125.306V101.01H162.326V132.172H179.543Z" fill="#EA4848"/>
<path opacity="0.1" d="M179.543 227.364H116.296V329.511H179.543V227.364Z" fill="#EA4848"/>
<path opacity="0.1" d="M116.288 332.679H179.543V417.598C172.082 419.508 164.478 420.947 156.789 421.903L154.899 422.11C153.971 422.206 153.051 422.287 152.139 422.369C151.227 422.45 150.282 422.509 149.362 422.561H149.072C148.674 422.561 148.243 422.605 147.853 422.612H147.43C146.933 422.612 146.436 422.657 145.938 422.671C145.234 422.708 144.529 422.716 143.808 422.723C143.501 422.723 143.211 422.723 142.904 422.723C142.192 422.723 141.487 422.723 140.774 422.723H139.207C138.785 422.723 138.379 422.723 137.939 422.723L136.339 422.671C135.51 422.671 134.615 422.59 133.753 422.538L132.162 422.435L130.18 422.273C128.788 422.162 127.404 422.021 126.036 421.852L124.378 421.645L123.549 421.542C122.165 421.35 120.797 421.143 119.404 420.906C118.385 420.751 117.373 420.559 116.346 420.375L116.288 332.679Z" fill="#EA4848"/>
<path opacity="0.1" d="M574.951 121.303H522.794V224.203H574.951V121.303Z" fill="#EA4848"/>
<path opacity="0.1" d="M574.959 227.364V329.518H316.076V285.456H453.968V311.449H522.794V227.364H574.959Z" fill="#EA4848"/>
<path opacity="0.1" d="M575.779 442.203H574.95V509.216C565.611 508.512 556.299 507.554 547.015 506.343C505.218 500.892 464.471 490.3 425.942 474.871C414.818 470.411 403.92 465.542 393.249 460.265C375.424 451.468 358.347 441.519 342.154 430.499C338.087 427.722 334.072 424.882 330.11 421.977C327.366 419.961 324.639 417.894 321.878 415.885C319.963 414.504 318.032 413.146 316.076 411.846V332.679H522.106C521.965 332.206 521.824 331.733 521.675 331.268C521.833 331.733 521.982 332.206 522.123 332.679H574.95V442.159C575.232 442.166 575.506 442.188 575.779 442.203Z" fill="#EA4848"/>
<path opacity="0.1" d="M792.859 224.21H626.012C626.012 224.21 626.012 224.21 626.07 224.247L625.996 224.21H595.044V121.31H603.814V197.368H643.892V152.324H677V116.798H710.986V152.354H744.093V197.398H792.859V224.21Z" fill="#EA4848"/>
<path opacity="0.1" d="M595.044 227.364V329.518H792.859V227.364H595.044ZM846.557 449.764L846.831 368.906H792.859V332.723H595.044V510.316C611.262 510.923 627.505 510.75 643.702 509.799V509.799H643.984C651.72 509.366 659.421 508.736 667.086 507.908H667.26C708.152 503.669 748.136 494.165 785.963 479.693" fill="#EA4848"/>
<path opacity="0.1" d="M870.423 332.679H916.569C916.163 353.421 911.488 373.794 901.259 392.61C892.746 408.242 880.917 421.911 866.941 433.851V368.869H870.423V332.679Z" fill="#EA4848"/>
<path opacity="0.1" d="M916.594 329.518H870.422V244.148H895.406C908.338 271.064 916.552 300.601 916.594 329.518Z" fill="#EA4848"/>
<path opacity="0.1" d="M574.959 149.91H547.016V182.172H574.959V149.91Z" fill="#EA4848"/>
<path opacity="0.1" d="M574.959 216.782H547.016V224.21H574.959V216.782Z" fill="#EA4848"/>
<path opacity="0.1" d="M574.959 227.364H547.016V249.037H574.959V227.364Z" fill="#EA4848"/>
<path opacity="0.1" d="M574.959 283.654H547.016V315.916H574.959V283.654Z" fill="#EA4848"/>
<path opacity="0.1" d="M574.959 350.527H547.016V382.789H574.959V350.527Z" fill="#EA4848"/>
<path opacity="0.1" d="M574.951 442.159C575.232 442.159 575.506 442.159 575.78 442.203H574.951V449.698H547.016V417.399H574.951V442.159Z" fill="#EA4848"/>
<path opacity="0.1" d="M574.951 484.257V509.179C565.611 508.475 556.3 507.517 547.016 506.306V484.257H574.951Z" fill="#EA4848"/>
<path opacity="0.1" d="M435.831 327.148H316.076V329.518H435.831V327.148Z" fill="#EA4848"/>
<path opacity="0.1" d="M435.831 332.671H316.076V341.754H435.831V332.671Z" fill="#EA4848"/>
<path opacity="0.1" d="M435.831 371.528H316.076V386.134H435.831V371.528Z" fill="#EA4848"/>
<path opacity="0.1" d="M435.823 415.907V430.514H342.154C338.087 427.747 334.069 424.906 330.101 421.992C327.358 419.976 324.639 417.909 321.87 415.907H435.823Z" fill="#EA4848"/>
<path opacity="0.1" d="M435.823 460.28V474.871H425.934C414.821 470.406 403.926 465.535 393.249 460.258L435.823 460.28Z" fill="#EA4848"/>
<path opacity="0.1" d="M667.285 237.266H643.71V258.267H667.285V237.266Z" fill="#EA4848"/>
<path opacity="0.1" d="M156.847 139.416H133.272V160.417H156.847V139.416Z" fill="#EA4848"/>
<path opacity="0.1" d="M156.847 188.197H133.272V209.198H156.847V188.197Z" fill="#EA4848"/>
<path opacity="0.1" d="M156.847 236.978H133.272V257.979H156.847V236.978Z" fill="#EA4848"/>
<path opacity="0.1" d="M156.847 285.752H133.272V306.752H156.847V285.752Z" fill="#EA4848"/>
<path opacity="0.1" d="M156.847 334.532H133.272V355.533H156.847V334.532Z" fill="#EA4848"/>
<path opacity="0.1" d="M156.847 383.313H133.272V404.314H156.847V383.313Z" fill="#EA4848"/>
<path opacity="0.1" d="M757.282 237.266H733.707V258.267H757.282V237.266Z" fill="#EA4848"/>
<path opacity="0.1" d="M667.285 289.067H643.71V310.068H667.285V289.067Z" fill="#EA4848"/>
<path opacity="0.1" d="M757.282 289.067H733.707V310.068H757.282V289.067Z" fill="#EA4848"/>
<path opacity="0.1" d="M667.285 340.861H643.71V361.862H667.285V340.861Z" fill="#EA4848"/>
<path opacity="0.1" d="M757.282 340.861H733.707V361.862H757.282V340.861Z" fill="#EA4848"/>
<path opacity="0.1" d="M667.285 392.661H643.71V413.662H667.285V392.661Z" fill="#EA4848"/>
<path opacity="0.1" d="M757.282 392.661H733.707V413.662H757.282V392.661Z" fill="#EA4848"/>
<path opacity="0.1" d="M667.285 444.463H643.71V465.464H667.285V444.463Z" fill="#EA4848"/>
<path opacity="0.1" d="M757.282 444.463H733.707V465.464H757.282V444.463Z" fill="#EA4848"/>
<path opacity="0.1" d="M643.71 509.799V496.256H667.277V507.872L643.71 509.799Z" fill="#EA4848"/>
<path opacity="0.1" d="M15.5229 197.959V209.974H96.2026V197.959H15.5229ZM23.5636 209.22H16.9819V198.698H23.6133L23.5636 209.22ZM31.5959 209.22H24.9645V198.698H31.5959V209.22ZM39.6116 209.22H32.9802V198.698H39.6116V209.22ZM47.644 209.22H41.0208V198.698H47.6522L47.644 209.22ZM55.668 209.22H49.0366V198.698H55.668V209.22ZM63.7003 209.22H57.0689V198.698H63.7003V209.22ZM71.7326 209.22H65.1012V198.698H71.7326V209.22ZM79.7567 209.22H73.1252V198.698H79.7567V209.22ZM87.7807 209.22H81.1493V198.698H87.7807V209.22ZM95.8047 209.22H89.1733V198.698H95.8047V209.22Z" fill="#EA4848"/>
<path opacity="0.1" d="M15.5229 232.917V244.931H96.2026V232.917H15.5229ZM23.5636 244.17H16.9819V233.677H23.6133L23.5636 244.17ZM31.5959 244.17H24.9645V233.677H31.5959V244.17ZM39.6116 244.17H32.9802V233.677H39.6116V244.17ZM47.644 244.17H41.0208V233.677H47.6522L47.644 244.17ZM55.668 244.17H49.0366V233.677H55.668V244.17ZM63.7003 244.17H57.0689V233.677H63.7003V244.17ZM71.7326 244.17H65.1012V233.677H71.7326V244.17ZM79.7567 244.17H73.1252V233.677H79.7567V244.17ZM87.7807 244.17H81.1493V233.677H87.7807V244.17ZM95.8047 244.17H89.1733V233.677H95.8047V244.17Z" fill="#EA4848"/>
<path opacity="0.1" d="M15.5229 267.889V279.925H96.2026V267.889H15.5229ZM23.5636 279.143H16.9819V268.642H23.6133L23.5636 279.143ZM31.5959 279.143H24.9645V268.642H31.5959V279.143ZM39.6116 279.143H32.9802V268.642H39.6116V279.143ZM47.644 279.143H41.0208V268.642H47.6522L47.644 279.143ZM55.668 279.143H49.0366V268.642H55.668V279.143ZM63.7003 279.143H57.0689V268.642H63.7003V279.143ZM71.7326 279.143H65.1012V268.642H71.7326V279.143ZM79.7567 279.143H73.1252V268.642H79.7567V279.143ZM87.7807 279.143H81.1493V268.642H87.7807V279.143ZM95.8047 279.143H89.1733V268.642H95.8047V279.143Z" fill="#EA4848"/>
<path opacity="0.1" d="M15.5229 302.861V314.86H96.2026V302.861H15.5229ZM23.5636 314.115H16.9819V303.607H23.6133L23.5636 314.115ZM31.5959 314.115H24.9645V303.607H31.5959V314.115ZM39.6116 314.115H32.9802V303.607H39.6116V314.115ZM47.644 314.115H41.0208V303.607H47.6522L47.644 314.115ZM55.668 314.115H49.0366V303.607H55.668V314.115ZM63.7003 314.115H57.0689V303.607H63.7003V314.115ZM71.7326 314.115H65.1012V303.607H71.7326V314.115ZM79.7567 314.115H73.1252V303.607H79.7567V314.115ZM87.7807 314.115H81.1493V303.607H87.7807V314.115ZM95.8047 314.115H89.1733V303.607H95.8047V314.115Z" fill="#EA4848"/>
<path opacity="0.1" d="M15.8707 337.826C16.194 338.955 16.5587 340.085 16.94 341.2V338.579H23.5715V349.079H20.0237C20.1314 349.323 20.2392 349.589 20.3469 349.818H96.2023V337.826H15.8707ZM31.6204 349.079H24.9889V338.579H31.6204V349.079ZM39.6361 349.079H33.0047V338.579H39.6361V349.079ZM47.6684 349.079H41.0204V338.579H47.6519L47.6684 349.079ZM55.6925 349.079H49.061V338.579H55.6925V349.079ZM63.7248 349.079H57.0934V338.579H63.7248V349.079ZM71.7571 349.079H65.1257V338.579H71.7571V349.079ZM79.7812 349.079H73.1497V338.579H79.7812V349.079ZM87.8052 349.079H81.1738V338.579H87.8052V349.079ZM95.8292 349.079H89.1978V338.579H95.8292V349.079Z" fill="#EA4848"/>
<path opacity="0.1" d="M34.6047 372.798C34.812 373.034 35.0109 373.3 35.2264 373.536H39.6115V378.58C40.084 379.082 40.5482 379.584 41.0289 380.056V373.507H47.6604V384.044H44.9746C45.2399 384.288 45.4969 384.546 45.8036 384.782H96.2273V372.798H34.6047ZM55.6678 384.044H49.0364V373.551H55.6678V384.044ZM63.7002 384.044H57.0687V373.551H63.7002V384.044ZM71.7325 384.044H65.101V373.551H71.7325V384.044ZM79.7565 384.044H73.1251V373.551H79.7565V384.044ZM87.7806 384.044H81.1491V373.551H87.7806V384.044ZM95.8046 384.044H89.1732V373.551H95.8046V384.044Z" fill="#EA4848"/>
<path opacity="0.1" d="M78.8613 407.762C79.6157 408.146 80.3866 408.501 81.1658 408.885V408.516H87.7972V411.839L89.2064 412.422V408.516H95.8378V414.903C95.965 414.959 96.0983 415.004 96.2357 415.036V407.762H78.8613Z" fill="#EA4848"/>
<path opacity="0.1" d="M626.013 224.211H626.062H626.013ZM574.951 442.151H575.78H574.951ZM521.675 331.261C521.833 331.734 521.965 332.206 522.115 332.671C521.982 332.206 521.841 331.734 521.675 331.261ZM626.013 224.188H626.062H626.013ZM125.339 113.616V116.769H162.368V113.616H125.339ZM574.951 442.151H575.78H574.951ZM521.675 331.261C521.833 331.734 521.965 332.206 522.115 332.671C521.982 332.206 521.841 331.734 521.675 331.261ZM626.013 224.188H626.062H626.013ZM574.951 442.129H575.78H574.951ZM521.675 331.261C521.833 331.734 521.965 332.206 522.115 332.671C521.982 332.206 521.841 331.734 521.675 331.261Z" fill="#EA4848"/>
<path d="M383.236 257.994C383.236 257.994 379.97 257.588 379.97 253.349C379.97 249.11 377.632 241.194 377.632 241.194C377.632 241.157 375.61 227.408 372.816 225.222C370.023 223.036 366.433 210.202 366.433 210.202C366.433 210.202 365.82 203.239 364.568 201.74C363.317 200.241 361.626 196.571 359.13 191.335C356.635 186.1 346.232 182.474 346.232 182.474C346.232 182.474 327.424 172.757 322.094 169.589C321.609 169.328 321.157 169.024 320.743 168.68C319.814 167.595 315.769 167.573 315.769 167.573C315.346 165.195 314.94 162.463 314.808 159.989C314.808 159.723 314.808 159.457 314.766 159.192C320.709 156.062 325.186 151.128 327.374 145.294C327.474 145.014 327.556 144.718 327.648 144.438C328.004 144.333 328.332 144.164 328.61 143.94C328.888 143.716 329.111 143.443 329.264 143.138C329.745 142.185 329.753 141.07 330.35 140.184C331.046 139.136 332.373 138.575 333.417 137.784C336.053 135.791 336.733 132.431 336.608 129.374C336.526 126.9 336.078 124.404 336.252 121.945L336.302 121.325C336.351 120.956 336.409 120.586 336.484 120.232C336.89 118.401 337.777 116.673 338.275 114.856C338.772 113.04 338.822 110.994 337.661 109.429C335.962 107.132 332.422 106.674 329.314 106.438C325.791 106.172 322.641 106.519 320.386 103.913C319.331 102.55 318.144 101.273 316.838 100.095C316.374 99.7109 311.865 97.2593 311.865 97.0969C307.464 95.281 302.475 94.9401 297.815 96.1369C295.477 96.7424 293.272 97.7319 290.901 98.2267C285.787 99.3048 279.901 98.1381 275.558 100.745C273.137 102.222 271.687 104.57 270.327 106.859C269.222 108.744 268.1 110.627 266.962 112.508C265.13 115.602 263.265 118.748 262.494 122.174C262.332 122.92 262.232 123.675 262.195 124.434V124.471C262.195 124.744 262.195 125.017 262.195 125.29V125.637C262.195 125.896 262.195 126.147 262.245 126.376C262.295 126.605 262.287 126.678 262.311 126.833C262.336 126.989 262.378 127.336 262.428 127.572C262.477 127.808 262.577 128.222 262.676 128.547C262.718 128.687 262.776 128.82 262.825 128.953C262.908 129.204 263.008 129.448 263.116 129.691C263.174 129.817 263.232 129.95 263.298 130.075C263.422 130.334 263.571 130.585 263.721 130.814C263.787 130.917 263.837 131.013 263.903 131.109C264.134 131.452 264.389 131.783 264.666 132.099C266.44 134.07 269.051 135.325 270.982 137.172C270.982 137.245 270.982 137.319 270.982 137.386C270.982 137.592 270.982 137.792 270.982 137.999C271.085 142.116 272.315 146.148 274.565 149.745C276.816 153.342 280.02 156.395 283.897 158.638C283.897 158.918 283.938 159.206 283.955 159.487C284.116 161.679 284.086 163.879 283.864 166.066C283.526 165.712 283.104 165.43 282.627 165.241C282.151 165.052 281.633 164.96 281.112 164.973C280.755 164.958 280.399 164.985 280.051 165.055L279.976 165.003V165.069C278.152 165.468 275.906 167.159 273.759 171.966C273.759 171.966 267.227 178.524 262.253 178.25C257.28 177.977 244.688 185.074 244.688 185.074C244.688 185.074 232.404 192.177 229.768 199.414C228.294 203.517 226.528 207.533 224.479 211.436L209.293 239.311L206.491 261.427C206.491 261.427 208.041 271.263 207.735 272.762C207.428 274.261 214.109 287.782 214.109 287.782C214.109 287.782 236.184 322.333 245.202 324.105L245.849 323.699C246.235 323.879 246.644 324.015 247.067 324.105L248.924 322.939C249.036 324.239 248.989 325.546 248.783 326.838C247.54 330.249 249.248 352.513 251.419 356.877C253.591 361.241 252.82 418.462 252.82 418.462L252.514 423.513C252.514 423.513 252.514 423.676 252.588 423.956L252.514 425.152L252.737 425.256C252.97 426.858 252.894 428.484 252.514 430.063C251.734 432.278 251.419 438.54 251.419 438.54C251.419 438.54 245.211 473.896 248.153 481C251.096 488.104 253.599 495.887 253.599 495.887C253.599 495.887 256.708 504.748 253.749 506.262C250.789 507.776 242.376 510.316 244.108 514.008C245.683 517.419 251.66 526.561 252.547 527.898L252.472 528.599L251.254 540.363C251.451 541.916 251.924 543.431 252.654 544.852C253.989 547.415 256.584 550.073 261.516 549.785C262.345 549.733 263.306 549.645 264.235 549.534C273.262 548.456 284.378 544.867 284.378 544.867C283.8 544.54 283.271 544.151 282.803 543.708V543.708C282.359 543.325 282.007 542.865 281.769 542.358C281.531 541.85 281.412 541.304 281.418 540.754C281.551 538.612 277.05 528.407 275.931 525.897C275.757 525.535 275.666 525.328 275.666 525.328C275.666 525.328 285.928 515.773 284.22 507.303C284.22 507.303 272.864 501.396 276.602 498.154C280.341 494.912 287.022 485.6 287.022 485.6C287.022 485.6 287.329 450.783 287.022 445.585C286.702 441.977 286.894 438.347 287.594 434.782C287.718 434.243 287.867 433.718 288.025 433.201C293.195 433.889 298.414 434.242 303.642 434.257C305.548 434.257 307.488 434.257 309.444 434.154C309.444 434.646 309.469 435.178 309.519 435.749C309.95 444.374 310.754 459.497 311.409 465.116C312.337 473.173 317.468 494.883 317.468 494.883C317.468 494.883 307.679 500.48 319.176 514.274C319.176 514.274 319.176 519.273 318.413 519.997C317.599 522.362 316.943 524.769 316.449 527.204C315.968 529.803 315.769 532.432 316.548 533.798C318.413 537.062 329.604 536.796 329.604 536.796L329.878 536.752C331.99 536.557 334.125 536.738 336.159 537.285C338.192 537.831 340.083 538.732 341.723 539.934C345.975 542.977 362.115 541.64 370.851 540.673C374.275 540.289 376.563 539.934 376.563 539.934C376.674 539.589 376.713 539.229 376.679 538.871C376.588 536.958 374.905 532.764 363.499 529.02C363.499 529.02 352.773 522.596 352.922 516.999H352.698H351.455C352.358 516.954 352.938 516.999 352.938 516.999C352.938 516.999 348.736 503.338 350.452 502.23C352.167 501.122 347.028 485.984 347.028 485.984C347.028 485.984 344.085 460.582 343.928 458.803C343.934 457.276 344.194 455.758 344.699 454.298L343.928 440.372C343.928 440.372 343.779 435.742 343.928 434.235C343.903 432.928 343.784 431.623 343.571 430.329C343.497 429.812 343.422 429.273 343.339 428.741C347.36 427.833 349.971 426.991 349.971 426.991L349.507 378.513C352.922 372.606 353.552 359.646 353.535 350.453C353.535 344.545 353.237 340.174 353.237 340.174L357.904 333.388C357.904 333.388 358.981 325.265 357.274 323.485C356.519 322.68 356.859 321.846 357.481 321.159C357.804 320.931 358.144 320.724 358.5 320.539C358.5 320.539 358.451 320.472 358.393 320.376C358.719 320.134 359.065 319.914 359.429 319.719C359.429 319.719 357.771 317.43 359.255 316.463C360.647 317.304 361.891 317.94 362.836 318.456C362.769 318.996 362.703 319.306 362.703 319.306L363.101 318.567C364.013 319.025 364.568 319.306 364.568 319.306C364.568 319.306 371.879 306.331 371.722 304.419C371.564 302.506 376.695 294.45 376.695 294.45C376.695 294.45 377.317 290.219 380.119 288.447C382.921 286.674 382.291 273.833 382.291 273.833C382.291 273.833 383.07 267.143 384.935 264.411C386.8 261.678 383.236 257.994 383.236 257.994ZM243.346 252.3L243.486 255.394C242.658 254.206 242.061 253.349 242.061 253.349L243.346 252.3Z" fill="url(#paint0_linear)"/>
<path d="M364.966 313.701L363.176 320.495C363.176 320.495 348.835 313.974 346.249 305.689C343.663 297.404 350.576 294.258 350.576 294.258L363.938 299.302L364.966 313.701Z" fill="white"/>
<path opacity="0.1" d="M364.966 313.701L363.176 320.495C363.176 320.495 348.835 313.974 346.249 305.689C343.663 297.404 350.576 294.258 350.576 294.258L363.938 299.302L364.966 313.701Z" fill="black"/>
<path d="M284.485 544.911C284.485 544.911 271.223 549.253 262.104 549.8C257.263 550.088 254.719 547.444 253.409 544.897C252.693 543.48 252.232 541.973 252.041 540.429L253.227 528.725L253.856 522.493L273.229 518.01L275.972 525.483L276.229 526.052C277.332 528.548 281.75 538.701 281.617 540.821C281.612 541.363 281.73 541.901 281.963 542.402C282.197 542.904 282.542 543.358 282.977 543.737C283.422 544.184 283.929 544.579 284.485 544.911V544.911Z" fill="white"/>
<path d="M375.079 538.959C375.112 539.315 375.073 539.673 374.963 540.015C374.963 540.015 346.597 544.232 340.795 540.015C339.159 538.784 337.252 537.87 335.196 537.334C333.14 536.797 330.982 536.649 328.858 536.899C328.858 536.899 317.883 537.165 316.051 533.946C315.289 532.594 315.487 529.973 315.96 527.388C316.442 524.967 317.084 522.572 317.883 520.218L318.322 519.908L320.934 518.04L351.504 517.235H351.737C351.587 522.803 362.115 529.19 362.115 529.19C373.297 532.882 374.947 537.054 375.079 538.959Z" fill="white"/>
<path opacity="0.1" d="M375.079 538.96C375.108 539.315 375.066 539.673 374.955 540.016C374.955 540.016 346.597 544.232 340.795 540.016C339.16 538.785 337.254 537.872 335.2 537.335C333.146 536.799 330.989 536.65 328.867 536.899C328.867 536.899 317.883 537.165 316.06 533.946C315.297 532.587 315.488 529.973 315.96 527.388C320.188 527.765 326.861 528.703 329.48 530.94C333.442 534.344 340.157 537.741 344.276 538.007C347.501 538.192 366.79 538.738 375.079 538.96Z" fill="black"/>
<path d="M304.164 195.006C293.222 191.217 279.147 178.701 282.662 172.853C283.442 171.377 283.906 169.784 284.03 168.156C284.256 165.946 284.289 163.725 284.129 161.51C283.883 157.884 283.393 154.274 282.662 150.7C282.662 150.7 316.822 151.386 314.833 155.869C314.252 157.183 314.161 159.465 314.319 162.02C314.476 164.575 314.891 167.462 315.322 169.906C315.918 173.259 316.515 175.814 316.515 175.814C316.515 175.814 314.426 178.42 313.2 178.561C311.973 178.701 319.864 200.403 304.164 195.006Z" fill="#CF6F80"/>
<path opacity="0.1" d="M276.205 526.052L275.948 526.303C265.735 515.3 253.384 529.013 253.384 529.013L253.202 528.725L253.832 522.493L273.204 518.01L275.948 525.483L276.205 526.052Z" fill="black"/>
<path opacity="0.1" d="M351.745 518.01C351.745 518.01 344.284 517.87 340.306 521.001C336.327 524.132 317.096 521.68 317.925 521.001C318.17 520.664 318.318 520.279 318.356 519.879L320.967 518.01L351.538 517.206C351.654 517.7 351.745 518.01 351.745 518.01Z" fill="black"/>
<path d="M288.912 431.606C288.356 432.83 287.934 434.099 287.652 435.395C286.961 438.943 286.768 442.555 287.08 446.146C287.387 451.315 287.08 485.955 287.08 485.955C287.08 485.955 280.523 495.193 276.867 498.449C273.212 501.706 284.328 507.554 284.328 507.554C285.986 515.972 275.939 525.483 275.939 525.483C265.727 514.481 253.376 528.201 253.376 528.201C253.376 528.201 246.661 517.863 244.987 514.17C243.312 510.478 251.544 507.923 254.437 506.424C257.33 504.925 254.296 496.086 254.296 496.086C254.296 496.086 251.85 488.34 248.949 481.273C246.048 474.207 252.149 439.028 252.149 439.028C252.149 439.028 252.464 432.78 253.218 430.602C253.599 429.03 253.674 427.412 253.442 425.817C253.392 425.278 253.334 424.828 253.293 424.525C253.251 424.222 253.218 424.082 253.218 424.082L253.334 423.905L257.479 417.022C257.479 417.022 290.901 427.272 288.912 431.606Z" fill="#EA4848"/>
<path d="M351.745 517.198C351.745 517.198 344.284 517.058 340.306 520.152C336.327 523.246 317.096 520.831 317.924 520.152C318.753 519.473 318.687 514.444 318.687 514.444C307.405 500.724 317.029 495.156 317.029 495.156C317.029 495.156 311.989 473.557 311.078 465.545C310.439 459.947 309.652 444.905 309.229 436.318C309.047 432.625 308.939 430.085 308.939 430.085L318.157 428.431L319.342 428.217L341.574 424.244C341.574 424.244 342.187 427.936 342.602 430.957C342.808 432.246 342.925 433.546 342.95 434.848C342.801 436.325 342.95 440.948 342.95 440.948L343.704 454.808C343.211 456.262 342.957 457.772 342.95 459.29C343.099 461.055 345.992 486.324 345.992 486.324C345.992 486.324 351.024 501.403 349.308 502.489C347.592 503.574 351.745 517.198 351.745 517.198Z" fill="#EA4848"/>
<path opacity="0.1" d="M314.833 155.869C314.252 157.183 314.161 159.465 314.319 162.02C309.743 164.474 304.483 165.729 299.143 165.64C293.803 165.552 288.599 164.123 284.129 161.518C283.883 157.889 283.393 154.276 282.662 150.7C282.662 150.7 316.822 151.372 314.833 155.869Z" fill="black"/>
<path d="M328.037 139.549C328.044 142.21 327.574 144.855 326.645 147.384C324.568 153.05 320.309 157.88 314.622 161.02C308.934 164.16 302.183 165.408 295.563 164.543C288.942 163.678 282.878 160.755 278.442 156.293C274.007 151.83 271.485 146.114 271.322 140.155C271.322 139.948 271.322 139.756 271.322 139.549C271.258 136.195 271.944 132.863 273.34 129.747C274.737 126.632 276.815 123.795 279.455 121.403C282.096 119.01 285.244 117.11 288.717 115.813C292.19 114.516 295.918 113.848 299.684 113.848C303.45 113.848 307.178 114.516 310.651 115.813C314.124 117.11 317.272 119.01 319.912 121.403C322.552 123.795 324.631 126.632 326.028 129.747C327.424 132.863 328.11 136.195 328.046 139.549H328.037Z" fill="#CF6F80"/>
<path opacity="0.1" d="M304.164 195.005C293.222 191.217 279.147 178.701 282.662 172.853C283.442 171.377 283.906 169.784 284.03 168.156L299.008 179.122L308.276 185.893L315.322 169.914C315.918 173.266 316.515 175.821 316.515 175.821C316.515 175.821 314.426 178.428 313.2 178.568C311.973 178.708 319.864 200.403 304.164 195.005Z" fill="black"/>
<path d="M342.9 243.469L330.391 430.661L314.078 431.614L271.836 323.072L278.766 194.208L280.225 166.982L299.008 180.724L308.284 187.496L315.537 171.051L329.024 181.522L342.9 243.469Z" fill="#EA4848"/>
<path opacity="0.1" d="M288.912 431.606C288.356 432.83 287.934 434.099 287.652 435.395C275.782 433.762 264.253 430.553 253.45 425.876L253.227 425.773L253.301 424.584L253.343 423.964L257.487 417.081C257.487 417.081 290.901 427.272 288.912 431.606Z" fill="black"/>
<path opacity="0.1" d="M318.347 435.424C315.313 435.884 312.252 436.195 309.179 436.355C308.997 432.662 308.889 430.122 308.889 430.122L318.107 428.468L318.347 435.424Z" fill="black"/>
<path opacity="0.1" d="M342.552 430.994C336.658 432.36 327.557 433.896 319.408 432.936L319.292 428.254L341.524 424.281C341.524 424.281 342.137 427.936 342.552 430.994Z" fill="black"/>
<path opacity="0.1" d="M319.259 433.792C285.273 438.961 254.147 424.141 254.147 424.141L254.445 419.119C254.445 419.119 255.216 362.194 253.077 357.83C250.939 353.466 249.273 331.335 250.483 327.938C251.693 324.541 246.065 273.604 246.065 273.604L245.153 252.928L211.78 240.884L226.701 213.178C228.716 209.294 230.449 205.298 231.89 201.216C234.484 194.023 246.529 186.957 246.529 186.957C246.529 186.957 258.88 179.897 263.762 180.163C268.645 180.429 275.044 173.916 275.044 173.916C279.769 163.186 284.046 168.045 284.046 168.045C284.046 168.555 284.046 168.045 283.814 169.633C282.156 181.411 310.622 218.628 311.028 219.285L313.738 278.109L316.482 352.55L319.259 433.792Z" fill="black"/>
<path d="M318.347 433.792C284.361 438.961 253.227 424.141 253.227 424.141L253.533 419.12C253.533 419.12 254.304 362.194 252.157 357.83C250.01 353.466 248.352 331.335 249.571 327.938C250.789 324.541 245.153 273.604 245.153 273.604L244.233 252.928L210.843 240.84L225.764 213.134C227.775 209.248 229.508 205.252 230.953 201.172C233.539 193.979 245.592 186.912 245.592 186.912C245.592 186.912 257.943 179.853 262.817 180.119C267.691 180.385 274.099 173.872 274.099 173.872C278.832 163.142 284.046 168.001 284.046 168.001C284.046 168.511 283.549 168.74 283.814 169.589C287.461 181.012 309.71 218.584 310.116 219.241L312.86 278.064L315.603 352.506L318.347 433.792Z" fill="white"/>
<path opacity="0.1" d="M309.188 220.917C305.532 219.558 286.168 199.864 286.168 199.864V195.382C285.464 193.905 281.278 194.806 277.879 195.84L279.338 168.614L280.996 169.84C284.627 181.256 308.765 220.26 309.188 220.917Z" fill="black"/>
<path d="M310.108 219.285C306.444 217.927 287.08 198.233 287.08 198.233V193.75C286.375 192.273 282.189 193.174 278.791 194.208L280.258 166.982L281.916 168.208C285.555 179.624 309.702 218.635 310.108 219.285Z" fill="white"/>
<path opacity="0.1" d="M254.147 317.504C254.602 317.504 277.779 315.333 277.779 315.333C277.779 315.333 291.813 339.915 290.893 345.897C289.973 351.878 288.307 357.173 282.662 356.235C277.017 355.297 252.281 356.973 252.281 356.973L254.147 317.504Z" fill="black"/>
<path d="M253.227 315.872C253.683 315.872 276.86 313.701 276.86 313.701C276.86 313.701 290.885 338.291 289.973 344.265C289.061 350.239 287.379 355.541 281.742 354.603C276.105 353.665 251.362 355.341 251.362 355.341L253.227 315.872Z" fill="white"/>
<path d="M270.692 304.33C270.692 304.33 291.962 314.513 292.418 317.622C292.874 320.731 281.592 316.263 279.155 315.724C277.551 315.38 275.918 315.153 274.273 315.045L258.018 315.436L270.692 304.33Z" fill="#CF6F80"/>
<path opacity="0.1" d="M303.252 222.187C304.488 222.187 305.491 221.295 305.491 220.193C305.491 219.092 304.488 218.2 303.252 218.2C302.016 218.2 301.014 219.092 301.014 220.193C301.014 221.295 302.016 222.187 303.252 222.187Z" fill="black"/>
<path d="M303.252 221.375C304.488 221.375 305.491 220.482 305.491 219.381C305.491 218.28 304.488 217.387 303.252 217.387C302.016 217.387 301.014 218.28 301.014 219.381C301.014 220.482 302.016 221.375 303.252 221.375Z" fill="#3F3D56"/>
<path opacity="0.1" d="M307.372 308.495C308.608 308.495 309.61 307.603 309.61 306.501C309.61 305.4 308.608 304.508 307.372 304.508C306.136 304.508 305.134 305.4 305.134 306.501C305.134 307.603 306.136 308.495 307.372 308.495Z" fill="black"/>
<path d="M307.372 307.676C308.608 307.676 309.61 306.783 309.61 305.682C309.61 304.581 308.608 303.688 307.372 303.688C306.136 303.688 305.134 304.581 305.134 305.682C305.134 306.783 306.136 307.676 307.372 307.676Z" fill="#3F3D56"/>
<path opacity="0.1" d="M305.482 265.341C306.718 265.341 307.72 264.449 307.72 263.347C307.72 262.246 306.718 261.354 305.482 261.354C304.246 261.354 303.244 262.246 303.244 263.347C303.244 264.449 304.246 265.341 305.482 265.341Z" fill="black"/>
<path d="M305.482 264.529C306.718 264.529 307.72 263.636 307.72 262.535C307.72 261.434 306.718 260.541 305.482 260.541C304.246 260.541 303.244 261.434 303.244 262.535C303.244 263.636 304.246 264.529 305.482 264.529Z" fill="#3F3D56"/>
<path d="M357.075 314.631C357.075 314.631 358.6 316.67 357.075 317.622C355.549 318.575 357.224 320.879 357.224 320.879C357.224 320.879 353.419 322.865 355.094 324.652C356.768 326.439 355.707 334.51 355.707 334.51L351.131 341.259C351.131 341.259 351.405 345.609 351.421 351.487C351.421 360.658 350.816 373.551 347.467 379.429L347.932 427.656C347.932 427.656 331.908 432.869 318.496 431.281L316.507 353.894C316.507 353.894 319.408 310.009 320.478 301.591C321.103 297.22 321.358 292.814 321.24 288.41C321.24 288.41 320.784 275.236 319.251 269.122C319.251 269.122 317.593 242.634 317.427 235.302C317.352 231.794 317.56 221.56 317.792 211.827C318.049 201.186 318.339 191.151 318.339 191.151L315.313 169.825C315.313 169.825 318.339 169.552 319.251 170.637C319.659 170.977 320.103 171.281 320.577 171.546V171.546C325.799 174.691 344.251 184.365 344.251 184.365C344.251 184.365 354.464 187.983 356.909 193.167C359.354 198.351 361.054 202.028 362.239 203.505C363.424 204.982 364.071 211.923 364.071 211.923C364.071 211.923 367.586 224.698 370.329 226.862C373.073 229.025 375.079 242.789 375.079 242.789L350.833 259.773C350.833 259.773 348.703 288.026 348.247 289.119C347.791 290.212 357.075 314.631 357.075 314.631Z" fill="white"/>
<path d="M357.995 314.632C357.995 314.632 359.512 316.67 357.995 317.622C356.478 318.575 358.136 320.879 358.136 320.879C358.136 320.879 354.356 322.887 356.014 324.674C357.671 326.461 356.627 334.532 356.627 334.532L352.051 341.282C352.051 341.282 352.325 345.631 352.35 351.509C352.35 360.68 351.745 373.573 348.396 379.451L348.852 427.678C348.852 427.678 332.804 432.891 319.408 431.304L317.427 353.916C317.427 353.916 320.328 310.031 321.397 301.613C322.024 297.243 322.276 292.836 322.152 288.432C322.152 288.432 321.696 275.258 320.171 269.144C320.171 269.144 318.513 242.657 318.339 235.324C318.264 231.816 318.48 221.582 318.703 211.849C318.96 201.208 319.251 191.173 319.251 191.173L315.255 169.559C315.255 169.559 319.251 169.559 320.171 170.659C320.575 171.003 321.02 171.308 321.497 171.568C326.719 174.713 345.179 184.387 345.179 184.387C345.179 184.387 355.384 188.005 357.829 193.189C360.274 198.373 361.974 202.05 363.167 203.527C364.361 205.004 364.991 211.945 364.991 211.945C364.991 211.945 368.506 224.72 371.249 226.884C373.993 229.047 375.974 242.782 375.974 242.782L351.728 259.766C351.728 259.766 349.598 288.018 349.133 289.111C348.669 290.204 357.995 314.632 357.995 314.632Z" fill="white"/>
<path opacity="0.1" d="M328.957 197.442L331.146 203.128L319.624 213.466C319.881 202.833 320.171 192.79 320.171 192.79L316.175 171.176C316.175 171.176 320.171 171.176 321.091 172.277C321.494 172.62 321.939 172.922 322.417 173.178L332.215 198.358L328.957 197.442Z" fill="black"/>
<path d="M328.037 195.81L330.234 201.496L318.712 211.834C318.969 201.194 319.259 191.158 319.259 191.158L315.255 169.544C315.255 169.544 319.259 169.544 320.171 170.645C320.577 170.986 321.022 171.291 321.497 171.553L331.303 196.726L328.037 195.81Z" fill="white"/>
<path opacity="0.1" d="M328.037 139.549C328.044 142.21 327.574 144.855 326.645 147.384C326.488 147.406 326.328 147.399 326.175 147.365C326.021 147.331 325.876 147.27 325.75 147.185C325.534 140.539 321.862 134.299 317.344 128.99C316.076 127.387 314.538 125.967 312.785 124.781C311.013 123.595 308.808 123.039 306.601 123.223C304.115 123.525 301.918 125.032 299.406 125.224C296.091 125.467 293.123 123.422 289.832 123.319C288.494 123.33 287.175 123.595 285.961 124.097C284.747 124.599 283.668 125.325 282.795 126.228C281.066 128.05 279.781 130.172 279.023 132.46C277.72 135.93 277.01 139.554 276.917 143.212C276.876 145.279 276.652 147.871 274.497 148.625C274.659 147.104 274.465 145.57 273.927 144.12C273.389 142.669 272.519 141.334 271.372 140.199L271.322 140.155C271.322 139.948 271.322 139.756 271.322 139.549C271.258 136.195 271.944 132.863 273.34 129.747C274.737 126.632 276.815 123.795 279.455 121.403C282.096 119.01 285.244 117.11 288.717 115.813C292.19 114.516 295.918 113.848 299.684 113.848C303.45 113.848 307.178 114.516 310.651 115.813C314.124 117.11 317.272 119.01 319.912 121.403C322.552 123.795 324.631 126.632 326.028 129.747C327.424 132.863 328.11 136.195 328.046 139.549H328.037Z" fill="black"/>
<path d="M311.426 99.4303C307.118 97.6253 302.219 97.2839 297.649 98.4703C295.353 99.0758 293.189 100.058 290.86 100.553C285.886 101.623 280.084 100.464 275.815 103.056C273.444 104.533 272.018 106.866 270.692 109.133L267.376 114.76C265.569 117.839 263.746 120.97 262.991 124.36C262.237 127.749 262.693 131.545 265.105 134.269C266.862 136.256 269.457 137.504 271.364 139.372C272.506 140.508 273.372 141.843 273.908 143.291C274.445 144.74 274.639 146.271 274.48 147.79C276.644 147.052 276.851 144.452 276.901 142.385C276.993 138.727 277.703 135.103 279.006 131.633C279.763 129.345 281.047 127.222 282.778 125.401C283.652 124.499 284.732 123.773 285.945 123.271C287.158 122.77 288.478 122.504 289.816 122.491C293.131 122.595 296.107 124.633 299.39 124.389C301.876 124.205 304.081 122.691 306.585 122.395C308.792 122.209 310.998 122.765 312.769 123.954C314.521 125.138 316.056 126.558 317.319 128.163C321.845 133.472 325.517 139.697 325.733 146.358C326.67 146.97 328.021 146.173 328.485 145.228C328.949 144.283 328.966 143.175 329.554 142.274C330.234 141.233 331.536 140.679 332.555 139.896C335.141 137.91 335.788 134.565 335.688 131.53C335.589 128.495 334.926 125.416 335.572 122.432C335.962 120.601 336.841 118.888 337.321 117.079C337.802 115.27 337.86 113.239 336.725 111.681C335.067 109.392 331.577 108.941 328.535 108.727C325.078 108.461 321.986 108.801 319.781 106.209C318.746 104.857 317.581 103.587 316.3 102.414C315.86 102.03 311.426 99.5927 311.426 99.4303Z" fill="#512E4E"/>
<path opacity="0.1" d="M221.329 255.151L212.667 240.884L209.923 262.897C209.923 262.897 211.448 272.674 211.142 274.173C210.835 275.672 217.392 289.111 217.392 289.111C217.392 289.111 239.052 323.478 247.896 325.25L277.779 306.228L269.855 297.264C269.855 297.264 267.111 296.311 266.423 297.264C266.423 297.264 251.71 274.712 250.184 273.08C248.659 271.448 248.958 268.192 248.958 268.192C248.958 268.192 246.67 266.021 247.432 263.983C248.195 261.944 243.014 254.878 243.014 254.878L247.739 250.942L221.329 255.151Z" fill="black"/>
<path d="M213.123 239.26L210.835 240.884L208.091 262.897C208.091 262.897 209.617 272.674 209.31 274.173C209.003 275.672 215.568 289.111 215.568 289.111C215.568 289.111 237.22 323.478 246.065 325.25L275.956 306.228L268.023 297.264C268.023 297.264 265.279 296.311 264.591 297.264C264.591 297.264 249.878 274.712 248.352 273.08C246.827 271.448 247.134 268.192 247.134 268.192C247.134 268.192 244.846 266.021 245.609 263.983C246.371 261.944 241.182 254.878 241.182 254.878L245.907 250.942L213.123 239.26Z" fill="white"/>
<path opacity="0.1" d="M355.094 325.494C356.752 327.288 355.707 335.345 355.707 335.345L351.132 342.094C351.132 342.094 351.405 346.45 351.422 352.321L343.729 354.462C343.034 354.656 342.297 354.698 341.58 354.586C340.862 354.475 340.185 354.211 339.605 353.819C339.025 353.427 338.559 352.916 338.245 352.331C337.932 351.745 337.78 351.101 337.802 350.453L339.129 312.342L357.075 318.457C355.55 319.402 357.224 321.72 357.224 321.72C357.224 321.72 353.419 323.699 355.094 325.494Z" fill="black"/>
<path d="M356.014 324.674C357.671 326.469 356.627 334.532 356.627 334.532L352.051 341.282C352.051 341.282 352.325 345.631 352.35 351.509L344.516 353.687C343.836 353.876 343.114 353.917 342.412 353.806C341.71 353.696 341.047 353.438 340.48 353.054C339.912 352.67 339.456 352.17 339.148 351.597C338.841 351.024 338.692 350.394 338.714 349.759L340.048 311.53L358.003 317.644C356.47 318.59 358.144 320.901 358.144 320.901C358.144 320.901 354.356 322.887 356.014 324.674Z" fill="white"/>
<path d="M361.957 306.509C361.957 306.509 360.739 313.443 357.688 313.849C354.638 314.255 353.27 325.065 350.228 324.681C347.186 324.297 349.2 314.631 349.308 312.756C349.415 310.88 345.992 303.112 348.553 301.347C351.115 299.582 359.222 301.347 359.222 301.347L361.957 306.509Z" fill="#CF6F80"/>
<path opacity="0.1" d="M368.447 253.113L374.2 242.775C374.2 242.775 376.488 250.654 376.488 254.863C376.488 259.072 379.688 259.485 379.688 259.485C379.688 259.485 383.194 263.178 381.346 265.865C379.497 268.553 378.751 275.244 378.751 275.244C378.751 275.244 379.356 288.011 376.612 289.776C373.869 291.541 373.297 295.757 373.297 295.757C373.297 295.757 368.257 303.769 368.414 305.674C368.572 307.579 361.402 320.48 361.402 320.48C361.402 320.48 364.908 304.449 344.475 297.522C344.475 297.522 344.317 292.08 345.843 290.588C347.368 289.097 349.747 288.417 348.255 280.878C346.763 273.338 347.824 264.329 347.824 262.52C347.824 260.711 352.399 249.428 352.399 249.428L368.447 253.113Z" fill="black"/>
<path d="M370.934 241.298L375.958 242.775C375.958 242.775 378.254 250.654 378.254 254.863C378.254 259.072 381.454 259.485 381.454 259.485C381.454 259.485 384.96 263.178 383.111 265.865C381.263 268.553 380.525 275.244 380.525 275.244C380.525 275.244 381.13 288.011 378.387 289.776C375.643 291.541 375.029 295.757 375.029 295.757C375.029 295.757 369.998 303.769 370.155 305.674C370.313 307.579 363.134 320.48 363.134 320.48C363.134 320.48 366.649 304.448 346.208 297.522C346.208 297.522 346.058 292.08 347.584 290.588C349.109 289.096 351.488 288.417 349.996 280.878C348.504 273.338 349.565 264.329 349.565 262.52C349.565 260.711 354.14 249.428 354.14 249.428L370.934 241.298Z" fill="white"/>
<path opacity="0.1" d="M259.982 509.253C259.982 509.253 267.99 504.77 273.245 508.027C278.5 511.283 259.982 509.253 259.982 509.253Z" fill="black"/>
<path opacity="0.1" d="M322.202 495.392C322.202 495.392 329.289 494.58 335.241 500.288C341.193 505.996 322.202 495.392 322.202 495.392Z" fill="black"/>
<g opacity="0.1">
<path opacity="0.1" d="M332.572 138.279C331.552 139.062 330.242 139.623 329.563 140.664C328.982 141.558 328.966 142.658 328.502 143.618C328.037 144.578 326.686 145.361 325.749 144.755C325.534 138.109 321.854 131.87 317.336 126.553C316.073 124.948 314.538 123.529 312.785 122.344C311.011 121.156 308.803 120.6 306.593 120.786C304.106 121.089 301.918 122.595 299.406 122.78C296.09 123.031 293.115 120.985 289.824 120.882C288.486 120.894 287.167 121.16 285.955 121.663C284.743 122.166 283.665 122.894 282.794 123.799C281.064 125.617 279.779 127.737 279.023 130.024C277.72 133.493 277.01 137.118 276.917 140.775C276.868 142.835 276.652 145.405 274.513 146.173C274.563 146.719 274.563 147.267 274.513 147.812C276.669 147.074 276.884 144.475 276.934 142.407C277.026 138.749 277.736 135.125 279.039 131.656C279.796 129.367 281.081 127.244 282.811 125.423C283.683 124.521 284.762 123.795 285.974 123.294C287.186 122.792 288.504 122.526 289.84 122.514C293.156 122.617 296.14 124.655 299.423 124.412C301.91 124.227 304.114 122.713 306.61 122.418C308.819 122.232 311.027 122.788 312.802 123.976C314.554 125.16 316.089 126.58 317.352 128.185C321.87 133.494 325.551 139.719 325.766 146.38C326.703 146.993 328.054 146.195 328.518 145.25C328.982 144.305 328.999 143.197 329.579 142.296C330.259 141.255 331.569 140.701 332.588 139.919C335.174 137.932 335.821 134.587 335.722 131.552C335.722 131.456 335.722 131.36 335.722 131.272C335.564 133.9 334.777 136.581 332.572 138.279Z" fill="black"/>
<path opacity="0.1" d="M271.38 137.755C269.474 135.887 266.871 134.639 265.122 132.66C263.649 130.908 262.808 128.799 262.71 126.612C262.449 129.345 263.305 132.07 265.122 134.284C266.871 136.271 269.474 137.519 271.38 139.387C273.211 141.214 274.31 143.531 274.505 145.974C274.632 144.487 274.421 142.993 273.884 141.58C273.347 140.168 272.495 138.867 271.38 137.755V137.755Z" fill="black"/>
<path opacity="0.1" d="M337.338 115.462C336.849 117.271 335.979 118.991 335.581 120.815C335.345 122.034 335.259 123.272 335.324 124.507C335.352 123.804 335.437 123.103 335.581 122.41C335.979 120.579 336.849 118.866 337.338 117.057C337.623 116.059 337.716 115.025 337.612 114C337.56 114.492 337.469 114.981 337.338 115.462V115.462Z" fill="black"/>
</g>
<path opacity="0.1" d="M110.626 539.277C155.234 539.277 191.396 534.103 191.396 527.721C191.396 521.338 155.234 516.164 110.626 516.164C66.0171 516.164 29.8547 521.338 29.8547 527.721C29.8547 534.103 66.0171 539.277 110.626 539.277Z" fill="#EA4848"/>
<path d="M113.229 306.339H108.032V410.583H113.229V306.339Z" fill="#535461"/>
<path d="M145.889 410.266L145.565 414.962L145.101 421.608L144.91 424.37L144.454 431.016L144.256 433.777L143.791 440.423L138.552 515.795C138.325 519.038 136.718 522.082 134.061 524.307C131.403 526.532 127.893 527.771 124.245 527.772H97.0065C93.3599 527.771 89.851 526.532 87.1944 524.306C84.5377 522.081 82.9332 519.037 82.7075 515.795L77.4936 440.372L77.0294 433.726L76.8387 430.964L76.3745 424.318L76.1839 421.556L75.7197 414.91L75.3881 410.214C75.3305 409.31 75.4808 408.405 75.8299 407.555C76.1789 406.705 76.7193 405.927 77.4179 405.269C78.1165 404.612 78.9585 404.088 79.8924 403.731C80.8262 403.374 81.8321 403.19 82.8484 403.192H138.561C139.573 403.199 140.573 403.392 141.499 403.757C142.425 404.123 143.257 404.653 143.943 405.316C144.63 405.979 145.157 406.76 145.491 407.611C145.826 408.463 145.961 409.366 145.889 410.266V410.266Z" fill="#3F3D56"/>
<path d="M145.565 414.962L145.101 421.586H76.1507L75.6865 414.962H145.565Z" fill="#9D9CB5"/>
<path d="M144.91 424.348L144.455 430.979H76.8056L76.3414 424.348H144.91Z" fill="#9D9CB5"/>
<path d="M144.256 433.748L143.8 440.372H77.4604L76.9962 433.748H144.256Z" fill="#9D9CB5"/>
<path d="M67.7536 345.409C98.0178 364.919 110.651 395.431 110.651 395.431C110.651 395.431 74.1778 394.316 43.9053 374.806C13.6328 355.297 1.02478 324.792 1.02478 324.792C1.02478 324.792 37.4811 325.9 67.7536 345.409Z" fill="#EA4848"/>
<path d="M1 324.792C1 324.792 38.8655 343.511 51.0093 359.011C63.1531 374.511 110.651 395.431 110.651 395.431" stroke="#535461" stroke-width="2" stroke-miterlimit="10"/>
<path d="M87.2916 306.11C103.762 316.721 110.651 333.328 110.651 333.328C110.651 333.328 90.7979 332.723 74.3188 322.112C57.8397 311.5 50.9679 294.886 50.9679 294.886C50.9679 294.886 70.8125 295.491 87.2916 306.11Z" fill="#EA4848"/>
<path d="M50.9679 294.886C50.9679 294.886 71.5751 305.076 78.1816 313.509C84.7882 321.942 110.651 333.328 110.651 333.328" stroke="#535461" stroke-width="2" stroke-miterlimit="10"/>
<path d="M134.565 332.487C115.641 351.014 111.637 375.227 111.637 375.227C111.637 375.227 138.32 369.394 157.228 350.859C176.136 332.324 180.156 308.119 180.156 308.119C180.156 308.119 153.49 313.96 134.565 332.487Z" fill="#EA4848"/>
<path d="M180.173 308.126C180.173 308.126 155.52 327.118 149.254 340.203C142.987 353.288 111.637 375.227 111.637 375.227" stroke="#535461" stroke-width="2" stroke-miterlimit="10"/>
<path d="M829.258 325.966C829.258 325.966 815.572 265.312 820.811 257.765C820.811 257.765 821.002 250.75 820.687 241.807C820.687 241.468 820.687 241.128 820.687 240.781C821.609 241.328 822.569 241.822 823.563 242.258C828.39 244.467 833.932 245.104 839.23 244.059L835.085 239.946C834.091 238.964 833.054 237.901 832.839 236.601C832.623 235.302 833.22 234.142 833.734 232.983C837.672 224.122 837.879 212.979 830.294 206.215C823.887 200.529 822.328 193.189 815.373 187.998C810.292 184.195 807.499 178.62 804.863 173.229C802.633 168.673 800.386 164.08 799.11 159.251C798.115 155.477 797.717 151.571 796.349 147.886C794.982 144.201 792.42 140.62 788.417 138.973C786.991 138.39 785.408 138.058 784.106 137.282C782.399 136.256 781.371 134.587 780.136 133.125C773.861 125.741 752.847 130.09 742.9 133.088C740.196 133.843 737.692 135.079 735.539 136.721L735.63 136.588C735.705 136.477 735.796 136.367 735.879 136.256C734.79 137.04 733.85 137.975 733.094 139.025C731.643 141.07 731.038 143.456 729.828 145.671C728.369 148.292 720.254 155.61 723.744 158.557C723.988 158.754 724.268 158.914 724.572 159.029C725.883 159.515 727.325 159.643 728.717 159.398L728.568 159.716C727.376 162.315 726.765 165.097 726.769 167.905C726.769 180.037 738.001 189.873 751.869 189.873C754.476 189.876 757.068 189.519 759.553 188.817C759.611 189.098 759.661 189.379 759.719 189.659C759.719 189.77 759.761 189.881 759.777 189.992L759.338 190.538C759.316 190.504 759.291 190.472 759.263 190.442L746.249 206.643C744.26 207.891 732.804 215.275 732.157 220.814C731.477 226.876 730.798 233.973 730.798 233.973L730.707 235.494C730.138 235.917 729.473 236.225 728.757 236.398C728.042 236.57 727.293 236.601 726.562 236.491C722.5 235.9 722.5 249.782 722.5 249.782C722.5 249.782 719.798 251.998 717.941 250.078C716.084 248.158 711.177 254.663 711.177 254.663L680.424 255.845L679.719 255.882L678.061 251.311C677.883 250.829 677.498 250.429 676.991 250.198C676.483 249.967 675.894 249.924 675.351 250.078C675.222 250.115 675.097 250.162 674.978 250.218L674.862 250.277L674.646 250.41L674.538 250.499C674.479 250.547 674.424 250.598 674.373 250.654L674.273 250.757L674.223 250.801C674.032 251.037 673.905 251.31 673.853 251.597C673.802 251.884 673.826 252.178 673.925 252.455L675.351 256.377C669.416 257.44 663.348 260.438 668.296 268.694L643.213 264.566L651.328 270.636L693.222 278.337C692.667 279.224 693.032 280.508 694.764 282.318C702.225 290.123 715.819 292.242 721.29 292.789C722.735 295.668 724.539 298.393 726.67 300.911L726.197 308.687C726.197 308.687 712.346 367.954 709.809 370.959C711.09 369.666 712.262 368.292 713.316 366.846C709.295 379.023 703.675 395.689 702.2 398.185C699.829 402.173 697.632 418.307 700.335 419.341C701.164 419.659 703.534 419.503 706.916 419.275V420.611L706.767 471.26C706.767 471.26 707.447 502.326 705.582 505.287C703.717 508.248 703.219 514.458 703.219 514.458C703.219 514.458 695.759 526.709 689.849 531.634C689.808 531.673 689.764 531.707 689.716 531.738L689.534 530.586C689.534 530.586 682.43 538.576 666.713 538.125C666.713 538.125 657.255 543.604 671.281 543.9C685.306 544.195 703.219 543.457 703.219 543.457C703.219 543.457 715.728 526.473 726.206 528.688V541.559H729.413V528.481C730.901 527.609 732.174 526.476 733.156 525.152C734.138 523.828 734.808 522.341 735.125 520.779C735.399 519.17 735.198 517.525 734.541 516.006C733.884 514.487 732.794 513.147 731.378 512.118C730.742 511.605 730.232 510.981 729.879 510.285C729.527 509.589 729.34 508.835 729.331 508.071L729.214 508.16C729.214 507.901 729.14 507.635 729.107 507.362C728.187 500.716 727.034 487.004 731.104 476.857C736.683 462.945 738.374 443.569 734.312 432.035C733.002 428.348 731.925 424.598 731.088 420.803C730.988 420.323 730.897 419.865 730.814 419.437C733.591 419.772 736.34 420.265 739.046 420.914C748.454 423.225 769.036 423.653 786.61 423.528C786.651 423.956 786.701 424.407 786.759 424.857C787.072 427.988 787.727 431.084 788.715 434.102C790.92 440.01 791.931 466.054 791.931 466.054C791.931 466.054 794.775 487.469 793.224 496.182C792.395 501.026 791.567 505.893 791.094 510.781V510.877C791.094 510.877 786.435 522.692 783.029 529.109C782.946 529.271 782.855 529.434 782.772 529.589C781.863 529.663 780.969 529.839 780.111 530.113C780.111 530.113 775.543 538.236 770.993 539.58C766.442 540.924 767.95 545.347 778.254 543.722C788.558 542.098 804.117 540.769 804.117 540.769L804.788 532.484L807.954 528.954L807.126 537.217L810.499 536.626L810.052 526.576L815.232 520.802C815.232 520.802 821.491 515.839 812.19 506.077V506.291C812.091 506.151 812 506.003 811.892 505.863V505.819C810.35 503.692 809.123 499.727 811.37 492.689C815.431 479.974 817.794 468.432 817.794 468.432C817.794 468.432 826.862 437.514 815.962 422.885H816.443C815.326 420.827 814.536 418.64 814.097 416.387C814.042 416.121 813.992 415.848 813.948 415.568C822.013 415.154 829.929 413.854 836.387 411.048C836.362 411.019 832.474 337.648 829.258 325.966ZM726.86 274.793V274.941L725.202 275.015L726.86 274.793ZM721.174 275.495C720.901 275.548 720.646 275.657 720.428 275.812C719.715 276.71 719.268 277.754 719.126 278.847L716.54 278.33C716.54 278.33 714.725 277.983 712.114 277.592L710.879 276.484C714.277 276.233 717.808 275.864 721.174 275.495V275.495Z" fill="url(#paint1_linear)"/>
<path d="M806.744 526.68L805.758 537.143L809.065 536.552L808.568 525.203L806.744 526.68Z" fill="#1D2366"/>
<path d="M731.287 476.998C727.3 487.114 728.427 500.768 729.322 507.399C729.654 509.851 729.96 511.342 729.96 511.342C729.96 511.342 724 523.438 723.503 523.896C723.006 524.353 705.963 533.621 705.963 533.621L694.051 539.816C694.051 539.816 681.965 535.098 687.759 533.473C688.943 533.05 690.01 532.402 690.884 531.575C696.687 526.665 703.973 514.458 703.973 514.458C703.973 514.458 704.471 508.263 706.294 505.317C708.118 502.37 707.455 471.408 707.455 471.408L707.596 420.936V414.357L730.267 414.504C730.41 416.738 730.737 418.959 731.245 421.15C732.059 424.932 733.113 428.67 734.403 432.345C738.399 443.857 736.741 463.137 731.287 476.998Z" fill="#FFB0B1"/>
<path opacity="0.1" d="M729.96 511.342C729.96 511.342 724 523.438 723.503 523.896C723.006 524.354 705.963 533.621 705.963 533.621L694.051 539.816C694.051 539.816 681.965 535.098 687.759 533.473C688.943 533.05 690.01 532.402 690.884 531.575L691.398 534.802L695.369 534.655L729.355 507.414C729.654 509.851 729.96 511.342 729.96 511.342Z" fill="black"/>
<path d="M729.546 508.101L695.369 535.526L691.399 535.674L690.57 530.505C690.57 530.505 683.623 538.465 668.189 538.022C668.189 538.022 658.921 543.479 672.657 543.774C686.392 544.07 703.932 543.331 703.932 543.331C703.932 543.331 716.184 526.347 726.438 528.563V541.389H729.587V528.444C731.052 527.566 732.302 526.433 733.262 525.113C734.222 523.793 734.873 522.314 735.174 520.765C735.447 519.168 735.254 517.537 734.614 516.026C733.974 514.515 732.908 513.177 731.519 512.14C730.899 511.622 730.404 510.996 730.064 510.302C729.725 509.607 729.549 508.858 729.546 508.101V508.101Z" fill="#1D2366"/>
<path d="M809.894 492.771C807.689 499.786 808.891 503.736 810.399 505.856V505.9C812.334 508.517 813.68 511.444 814.362 514.518L814.494 515.182L798.944 535.378L790.505 538.332C790.505 538.332 776.936 534.204 779.414 533.023C780.036 532.735 781.006 531.199 782.116 529.079C785.432 522.692 790.008 510.907 790.008 510.907V510.811C790.489 505.944 791.251 501.093 792.097 496.264C793.614 487.572 790.828 466.239 790.828 466.239C790.828 466.239 789.834 440.298 787.678 434.398C786.705 431.398 786.059 428.322 785.747 425.212C785.299 421.52 785.2 418.477 785.2 418.477C785.2 418.477 794.136 407.401 810.516 419.363C811.825 420.317 812.978 421.431 813.939 422.672C825.254 437.012 816.144 468.602 816.144 468.602C816.144 468.602 813.864 480.092 809.894 492.771Z" fill="#FFB0B1"/>
<path opacity="0.1" d="M814.52 515.182L798.969 535.378L790.531 538.332C790.531 538.332 776.961 534.204 779.44 533.023C780.061 532.735 781.031 531.199 782.142 529.079C787.886 529.035 790.862 533.909 790.862 533.909L798.14 532.875C798.14 532.875 807.739 516.068 809.894 515.042C812.049 514.015 810.226 507.37 810.226 507.37V505.678C810.284 505.738 810.334 505.804 810.4 505.863V505.907C812.335 508.524 813.681 511.451 814.362 514.525L814.52 515.182Z" fill="black"/>
<path d="M791.359 534.344C791.359 534.344 787.214 527.566 779.273 530.069C779.273 530.069 774.805 538.192 770.337 539.506C765.869 540.82 767.361 545.251 777.458 543.634C787.554 542.017 802.773 540.68 802.773 540.68L803.436 532.417L813.699 520.772C813.699 520.772 819.816 515.832 810.714 506.107V507.798C810.714 507.798 812.538 514.444 810.383 515.47C808.228 516.497 798.662 533.311 798.662 533.311L791.359 534.344Z" fill="#1D2366"/>
<path opacity="0.1" d="M730.292 414.49C730.435 416.723 730.762 418.945 731.27 421.135C721.936 419.917 713.274 420.523 707.596 420.921V414.342L730.292 414.49Z" fill="black"/>
<path opacity="0.1" d="M814.859 424.51C814.859 424.51 801.596 425.086 785.78 425.204C785.333 421.512 785.233 418.47 785.233 418.47C785.233 418.47 794.169 407.393 810.549 419.356C811.858 420.31 813.011 421.424 813.972 422.664C814.229 423.294 814.525 423.91 814.859 424.51V424.51Z" fill="black"/>
<path d="M814.859 423.181C814.859 423.181 756.768 425.684 739.062 421.261C721.356 416.838 703.808 420.67 701.163 419.644C698.519 418.618 700.666 402.542 702.987 398.562C705.308 394.582 718.04 354.33 718.04 354.33L730.292 297.426L743.198 294.258L744.11 294.029L766.599 288.506L783.078 284.452C783.078 284.452 815.846 398.414 813.036 406.817C812.015 410.035 811.851 413.421 812.555 416.705C812.984 418.948 813.76 421.127 814.859 423.181V423.181Z" fill="#1D2366"/>
<path d="M687.585 258.511C687.585 258.511 675.98 269.587 684.767 275.76C693.554 281.934 699.331 276.351 699.331 276.351L687.585 258.511Z" fill="#C7DAF5"/>
<path opacity="0.1" d="M687.585 258.511C687.585 258.511 675.98 269.587 684.767 275.76C693.554 281.934 699.331 276.351 699.331 276.351L687.585 258.511Z" fill="black"/>
<path d="M781.346 185.687C781.346 185.687 779.986 186.839 777.939 188.537C775.021 190.966 770.703 194.518 766.873 197.494C761.568 201.607 757.191 204.627 758.758 202.05C760.324 199.473 760.026 194.983 759.247 190.782C759.189 190.501 759.139 190.221 759.081 189.947C758.436 186.862 757.58 183.814 756.52 180.82C756.52 180.82 765.091 170.955 769.832 167.063C771.598 165.586 772.833 164.981 772.907 166.007C772.99 167.388 774.151 170.438 775.593 173.672C775.635 173.776 775.676 173.872 775.726 173.975C776.687 176.19 777.773 178.465 778.727 180.429C780.185 183.442 781.346 185.687 781.346 185.687Z" fill="#FFB0B1"/>
<path opacity="0.1" d="M775.726 173.975C774.92 177.834 772.966 181.43 770.067 184.387C767.168 187.343 763.431 189.552 759.247 190.782C758.588 187.411 757.677 184.083 756.52 180.82C756.52 180.82 772.659 162.249 772.907 166.007C772.965 167.433 774.225 170.593 775.726 173.975Z" fill="black"/>
<path opacity="0.1" d="M757.638 195.744L759.727 193.123C759.727 193.123 761.111 200.64 766.201 197.324C771.291 194.009 771.539 222.276 771.539 222.276L766.077 295.034L726.603 292.929L727.722 257.772L732.19 240.05L743.24 214.286L749.813 205.772L757.638 195.744Z" fill="black"/>
<path d="M771.54 222.726L766.566 288.513L766.044 295.484L744.036 294.31L743.207 294.265L726.628 293.379L727.747 258.215L732.215 240.493L743.265 214.729L749.838 206.215L757.663 196.15L759.752 193.536C759.752 193.536 761.136 201.053 766.226 197.738L766.334 197.671C771.307 194.865 771.54 222.726 771.54 222.726Z" fill="#1D2366"/>
<path d="M732.77 234.334C732.77 234.334 730.789 238.027 726.81 237.429C722.832 236.83 722.84 250.72 722.84 250.72C722.84 250.72 720.196 252.936 718.372 251.016C716.548 249.096 711.741 255.587 711.741 255.587L681.617 256.768C681.617 256.768 695.021 262.225 692.393 278.736C692.393 278.736 737.902 276.226 739.394 272.393C740.886 268.561 732.77 234.334 732.77 234.334Z" fill="white"/>
<path opacity="0.03" d="M732.77 234.334C732.77 234.334 730.789 238.027 726.81 237.429C722.832 236.83 722.84 250.72 722.84 250.72C722.84 250.72 720.196 252.936 718.372 251.016C716.548 249.096 711.741 255.587 711.741 255.587L681.617 256.768C681.617 256.768 695.021 262.225 692.393 278.736C692.393 278.736 737.902 276.226 739.394 272.393C740.886 268.561 732.77 234.334 732.77 234.334Z" fill="black"/>
<path d="M645.227 265.444L653.168 271.485L718.538 283.721L710.431 276.351L645.227 265.444Z" fill="white"/>
<path d="M757.763 198.07C756.677 199.547 753.568 207.108 750.974 213.71C748.81 219.211 747.003 224.048 747.003 224.048C747.003 224.048 742.784 248.52 740.629 252.943C738.474 257.366 739.642 274.616 739.642 274.616L731.61 317.216C731.61 317.216 727.971 339.184 722.351 352.306C716.805 365.221 710.63 371.276 710.439 371.468C712.926 368.47 726.479 309.44 726.479 309.44L730.955 234.992C730.955 234.992 731.61 227.917 732.273 221.87C732.936 215.822 746.365 207.566 746.365 207.566L759.313 191.166C760.614 192.716 759.744 195.419 757.763 198.07Z" fill="white"/>
<path d="M724 293.749C724 293.749 704.935 293.01 695.701 283.13C686.466 273.25 717.046 279.187 717.046 279.187L724.995 280.811L724 293.749Z" fill="#FFB0B1"/>
<path opacity="0.1" d="M813.035 406.825C812.015 410.042 811.85 413.428 812.555 416.712C791.757 418.027 769.508 413.02 769.508 413.02C765.364 416.417 754.447 421.423 754.447 421.423L748.495 355.703C744.69 346.842 743.198 300.417 743.198 300.417C743.198 300.417 743.538 297.987 744.027 294.347C744.027 294.258 744.027 294.162 744.069 294.074C745.552 283.905 748.495 264.817 749.937 262.24C751.927 258.695 743.82 249.266 743.82 249.266L747.509 221.242L747.956 217.86C755.732 214.766 761.692 204.886 761.692 204.886L766.267 197.745C771.241 194.902 771.498 222.763 771.498 222.763L766.524 288.55L783.003 284.496C783.003 284.496 815.845 398.421 813.035 406.825Z" fill="black"/>
<path d="M834.381 411.366C811.709 421.394 770.503 412.104 770.503 412.104C766.359 415.501 755.442 420.508 755.442 420.508L749.482 354.787C745.685 345.926 744.193 299.501 744.193 299.501C744.193 299.501 748.984 264.861 750.974 261.324C751.554 260.29 751.272 258.754 750.584 257.1C747.201 249.227 745.957 240.753 746.953 232.37L748.545 220.326L748.984 216.952C756.768 213.85 762.728 203.97 762.728 203.97L766.873 197.501L774.499 185.583L778.113 179.942L778.726 180.436L783.41 184.217C783.41 184.217 785.399 185.694 788.383 187.909C794.874 192.783 806.089 201.363 811.875 206.614C816.965 211.236 818.573 229.217 819.037 242.753C819.344 251.665 819.161 258.651 819.161 258.651C814.03 266.176 827.451 326.587 827.451 326.587C830.576 338.261 834.381 411.366 834.381 411.366Z" fill="white"/>
<path opacity="0.03" d="M790.862 203.822C790.862 203.822 775.303 230.207 777.11 240.234C778.917 250.262 784.056 261.612 781.578 264.263C780.726 265.267 779.625 266.083 778.361 266.645C777.097 267.207 775.704 267.502 774.291 267.505C771.805 267.652 765.173 271.78 765.173 272.223C765.173 272.666 759.047 272.666 753.568 274.734C748.089 276.802 739.999 277.976 739.999 277.976C739.999 277.976 724.249 277.533 722.782 278.862C721.315 280.191 719.806 288.144 722.948 294.487C726.089 300.83 729.579 305.564 732.215 306.428C734.851 307.291 751.579 302.3 765.148 301.118C778.718 299.937 793.448 290.359 793.448 290.359C793.448 290.359 809.67 285.19 812.513 276.499C815.357 267.808 809.04 220.038 809.04 220.038C809.04 220.038 804.266 197.775 790.862 203.822Z" fill="black"/>
<path opacity="0.03" d="M788.872 201.607C788.872 201.607 773.313 227.999 775.137 238.019C776.961 248.04 782.083 259.397 779.597 262.055C778.748 263.06 777.649 263.877 776.386 264.439C775.123 265.002 773.731 265.295 772.319 265.297C769.832 265.444 763.2 269.572 763.2 270.015C763.2 270.458 757.075 270.458 751.595 272.519C746.116 274.579 738.026 275.76 738.026 275.76C738.026 275.76 722.276 275.317 720.817 276.646C719.358 277.976 717.833 285.936 720.983 292.272C724.133 298.607 727.614 303.348 730.25 304.212C732.886 305.076 749.614 300.084 763.184 298.91C776.753 297.736 791.484 288.144 791.484 288.144C791.484 288.144 807.697 282.975 810.508 274.291C813.318 265.607 807.034 217.823 807.034 217.823C807.034 217.823 802.276 195.567 788.872 201.607Z" fill="black"/>
<path d="M790.373 202.493C790.373 202.493 774.814 228.885 776.637 238.905C778.461 248.926 783.584 260.283 781.105 262.934C780.257 263.942 779.157 264.76 777.892 265.324C776.627 265.888 775.233 266.182 773.819 266.183C771.332 266.331 764.701 270.458 764.701 270.894C764.701 271.33 758.583 271.337 753.096 273.405C747.608 275.472 739.526 276.646 739.526 276.646C739.526 276.646 723.776 276.203 722.309 277.533C720.842 278.862 719.333 286.822 722.475 293.158C725.617 299.494 729.106 304.234 731.742 305.098C734.378 305.962 751.106 300.97 764.676 299.789C778.245 298.607 792.975 289.03 792.975 289.03C792.975 289.03 809.198 283.861 812.041 275.17C814.884 266.478 808.609 218.709 808.609 218.709C808.609 218.709 803.768 196.482 790.373 202.493Z" fill="white"/>
<path opacity="0.1" d="M790.033 273.279C790.033 273.279 777.599 271.064 781.926 274.756C786.253 278.448 786.228 281.683 791.525 281.535C796.822 281.387 790.033 273.279 790.033 273.279Z" fill="black"/>
<path opacity="0.1" d="M811.046 352.72C811.046 352.72 805.426 356.109 816.177 363.922C826.928 371.735 811.046 352.72 811.046 352.72Z" fill="black"/>
<path opacity="0.1" d="M800.32 380.581C800.32 381.024 798.33 396.826 805.774 400.777C813.218 404.728 800.32 380.581 800.32 380.581Z" fill="black"/>
<path d="M682.131 256.731C676.129 256.916 663.165 258.548 669.888 269.72C675.831 279.608 685.82 272.999 691.44 267.985C690.069 263.31 686.737 259.282 682.131 256.731V256.731Z" fill="#FFB0B1"/>
<path d="M691.514 267.896L691.763 267.667L691.514 267.896Z" fill="#FFB0B1"/>
<path opacity="0.1" d="M788.383 188.36C782.017 192.236 776.679 195.508 775.634 196.187C772.783 198.07 767.345 209.124 763.839 214.766C761.045 219.307 751.968 220.474 748.545 220.762L748.984 217.387C756.768 214.286 762.728 204.406 762.728 204.406L778.113 180.377L783.41 184.667C783.41 184.667 785.399 186.144 788.383 188.36Z" fill="black"/>
<path d="M788.383 187.917C782.017 191.793 776.679 195.065 775.634 195.751C772.783 197.627 767.345 208.681 763.839 214.323C761.045 218.864 751.968 220.031 748.545 220.319L748.984 216.944C756.768 213.843 762.728 203.963 762.728 203.963L778.113 179.934L783.41 184.21C783.41 184.21 785.399 185.672 788.383 187.917Z" fill="#DCE7FF"/>
<path d="M776.131 169.101C776.135 173.534 774.626 177.863 771.804 181.514C768.472 185.831 763.513 188.942 757.827 190.28C752.141 191.619 746.105 191.097 740.813 188.81C735.522 186.523 731.326 182.622 728.987 177.815C726.648 173.008 726.321 167.613 728.066 162.61C729.81 157.606 733.509 153.326 738.494 150.544C743.478 147.763 749.416 146.665 755.231 147.451C761.045 148.236 766.352 150.852 770.186 154.825C774.021 158.797 776.13 163.862 776.131 169.101V169.101Z" fill="#FFB0B1"/>
<path opacity="0.1" d="M819.037 242.76C815.671 240.915 812.929 238.292 811.104 235.169C809.72 232.732 808.8 229.919 806.437 228.191C804.307 226.64 801.464 226.263 798.811 225.569C790.091 223.273 782.78 216.184 782.506 208.09C782.373 204.28 783.708 200.477 783.103 196.704C782.759 194.568 781.806 192.547 780.334 190.833C779.604 190.014 778.803 189.246 777.939 188.537C776.778 187.562 775.56 186.617 774.499 185.583C773.83 184.943 773.246 184.237 772.758 183.479C772.364 182.858 772.044 182.202 771.805 181.522C770.147 177.003 771.655 171.642 769.832 167.071L769.732 166.82C769.044 165.195 767.643 163.57 765.695 163.445C763.747 163.319 762.081 164.759 760.224 165.402C756.337 166.746 752.142 164.457 748.901 162.123C745.66 159.79 742.004 157.124 737.885 157.641C735.158 157.988 733.002 159.642 730.491 160.499C729.924 160.694 729.338 160.845 728.742 160.949C730.867 156.227 734.772 152.311 739.787 149.876C744.801 147.44 750.61 146.636 756.218 147.601C761.825 148.567 766.88 151.241 770.514 155.166C774.148 159.091 776.134 164.021 776.132 169.109C776.134 170.645 775.954 172.177 775.593 173.68C775.634 173.783 775.676 173.879 775.725 173.982C776.687 176.198 777.773 178.472 778.726 180.436L783.41 184.217C783.41 184.217 785.399 185.694 788.383 187.909C794.874 192.783 806.089 201.363 811.875 206.614C816.965 211.251 818.556 229.224 819.037 242.76Z" fill="black"/>
<path d="M730.201 147.007C731.386 144.859 731.975 142.451 733.392 140.413C735.473 137.46 739.103 135.569 742.834 134.425C752.574 131.434 773.156 127.092 779.307 134.425C780.517 135.901 781.52 137.541 783.194 138.56C784.471 139.335 786.013 139.667 787.413 140.251C791.334 141.89 793.838 145.464 795.172 149.112C796.507 152.76 796.905 156.674 797.883 160.432C799.134 165.254 801.331 169.825 803.52 174.366C806.097 179.727 808.833 185.288 813.807 189.076C820.595 194.245 822.096 201.563 828.396 207.234C835.856 213.968 835.616 225.082 831.769 233.906C831.264 235.065 830.692 236.277 830.891 237.51C831.09 238.743 832.118 239.865 833.087 240.847L837.166 244.946C827.517 247.021 816.6 242.531 812.107 234.652C810.723 232.215 809.803 229.409 807.432 227.674C805.31 226.123 802.459 225.754 799.814 225.06C791.094 222.756 783.783 215.659 783.509 207.566C783.377 203.763 784.711 199.96 784.106 196.194C783.769 194.045 782.813 192.009 781.329 190.287C779.05 187.636 775.61 185.856 773.753 182.903C770.611 177.963 772.998 171.546 770.735 166.244C770.039 164.619 768.646 162.995 766.699 162.869C764.751 162.743 763.084 164.183 761.219 164.826C757.34 166.17 753.146 163.888 749.904 161.547C746.663 159.206 743.008 156.548 738.88 157.072C736.152 157.412 734.006 159.066 731.494 159.93C729.637 160.565 725.874 161.134 724.249 159.738C720.817 156.925 728.767 149.636 730.201 147.007Z" fill="#591D4B"/>
<path opacity="0.1" d="M814.412 232.215C813.019 229.778 812.107 226.972 809.737 225.244C807.615 223.694 804.763 223.317 802.111 222.623C793.398 220.326 786.087 213.23 785.806 205.137C785.673 201.334 787.007 197.524 786.411 193.758C786.063 191.621 785.107 189.6 783.634 187.887C781.346 185.236 777.906 183.456 776.057 180.503C772.916 175.57 775.303 169.153 773.032 163.844C772.344 162.226 770.943 160.602 769.003 160.469C767.063 160.336 765.381 161.791 763.524 162.433C759.644 163.777 755.442 161.488 752.209 159.155C748.976 156.821 745.304 154.155 741.184 154.672C738.457 155.019 736.302 156.673 733.798 157.53C731.942 158.165 728.17 158.741 726.545 157.345C723.13 154.392 731.08 147.118 732.505 144.504C733.691 142.348 734.279 139.948 735.705 137.91C735.78 137.799 735.863 137.688 735.945 137.578C734.879 138.365 733.959 139.297 733.218 140.339C731.801 142.377 731.212 144.77 730.027 146.934C728.593 149.548 720.643 156.843 724.067 159.775C725.725 161.178 729.455 160.602 731.312 159.967C733.798 159.103 735.97 157.449 738.697 157.109C742.842 156.585 746.489 159.251 749.722 161.584C752.955 163.917 757.183 166.207 761.045 164.863C762.902 164.22 764.527 162.773 766.516 162.906C768.506 163.039 769.832 164.656 770.553 166.28C772.816 171.582 770.429 177.999 773.57 182.94C775.427 185.842 778.867 187.658 781.147 190.324C782.63 192.046 783.587 194.081 783.924 196.231C784.529 199.997 783.194 203.8 783.327 207.603C783.601 215.726 790.912 222.793 799.632 225.097C802.26 225.791 805.128 226.16 807.25 227.711C809.629 229.446 810.566 232.252 811.925 234.689C816.418 242.568 827.335 247.058 836.984 244.983L835.061 243.048C826.697 243.159 818.233 238.92 814.412 232.215Z" fill="black"/>
<path opacity="0.1" d="M757.265 198.513C756.179 199.99 753.071 207.551 750.476 214.153C748.047 213.311 745.842 207.943 745.842 207.943L758.79 191.535C760.117 193.159 759.246 195.855 757.265 198.513Z" fill="black"/>
<path d="M757.763 198.07C756.677 199.547 753.568 207.108 750.974 213.71C748.545 212.875 746.34 207.5 746.34 207.5L759.288 191.099C760.614 192.716 759.744 195.419 757.763 198.07Z" fill="#DCE7FF"/>
<path d="M682.479 273.508L675.301 253.342C675.216 253.106 675.184 252.857 675.207 252.61C675.23 252.363 675.308 252.122 675.436 251.902C675.564 251.682 675.739 251.486 675.952 251.326C676.165 251.167 676.411 251.046 676.677 250.971V250.971C677.211 250.823 677.789 250.868 678.286 251.098C678.783 251.327 679.158 251.722 679.329 252.197L686.508 272.342L685.795 276.558L682.479 273.508Z" fill="#BE8B87"/>
<path opacity="0.1" d="M675.98 251.569C676.516 251.419 677.096 251.463 677.595 251.693C678.094 251.922 678.47 252.319 678.641 252.795L685.82 272.94L685.281 276.1L685.803 276.587L686.516 272.371L679.296 252.227C679.125 251.752 678.75 251.357 678.253 251.127C677.756 250.898 677.178 250.852 676.644 251.001V251.001C676.194 251.131 675.806 251.391 675.541 251.739C675.682 251.672 675.829 251.615 675.98 251.569V251.569Z" fill="white"/>
<path d="M682.479 273.508L686.508 272.371L685.919 275.827L685.795 276.587L684.618 275.495L682.479 273.508Z" fill="#EFC8C4"/>
<path d="M684.618 275.495C684.688 275.416 684.775 275.35 684.875 275.303C684.933 275.27 685.001 275.252 685.07 275.252C685.139 275.252 685.206 275.27 685.264 275.303C685.321 275.363 685.368 275.43 685.405 275.502C685.46 275.583 685.535 275.653 685.624 275.705C685.713 275.758 685.814 275.792 685.919 275.805L685.795 276.543L684.618 275.495Z" fill="#727A9C"/>
<path d="M675.259 260.504C675.259 260.504 689.658 260.431 686.267 265.888C682.877 271.345 677.58 272.002 677.58 272.002L675.259 260.504Z" fill="#FFB0B1"/>
<defs>
<linearGradient id="paint0_linear" x1="295.974" y1="549.822" x2="295.974" y2="95.4354" gradientUnits="userSpaceOnUse">
<stop stop-color="#808080" stop-opacity="0.25"/>
<stop offset="0.54" stop-color="#808080" stop-opacity="0.12"/>
<stop offset="1" stop-color="#808080" stop-opacity="0.1"/>
</linearGradient>
<linearGradient id="paint1_linear" x1="185030" y1="342818" x2="185030" y2="109578" gradientUnits="userSpaceOnUse">
<stop stop-color="#808080" stop-opacity="0.25"/>
<stop offset="0.54" stop-color="#808080" stop-opacity="0.12"/>
<stop offset="1" stop-color="#808080" stop-opacity="0.1"/>
</linearGradient>
</defs>
</svg>
