<svg width="917" height="556" viewBox="0 0 917 556" fill="none" xmlns="http://www.w3.org/2000/svg">
<path opacity="0.1" d="M305.532 555.675C350.14 555.675 386.303 550.501 386.303 544.119C386.303 537.736 350.14 532.562 305.532 532.562C260.923 532.562 224.761 537.736 224.761 544.119C224.761 550.501 260.923 555.675 305.532 555.675Z" fill="#EA4848"/>
<path opacity="0.1" d="M744.591 556C800.255 556 845.38 550.826 845.38 544.443C845.38 538.061 800.255 532.887 744.591 532.887C688.926 532.887 643.801 538.061 643.801 544.443C643.801 550.826 688.926 556 744.591 556Z" fill="#EA4848"/>
<path opacity="0.1" d="M12.4722 227.738H96.6002V329.885H18.6312C18.4239 330.933 18.225 331.989 18.0095 333.045H96.6002V415.425C96.4593 415.388 96.335 415.344 96.2023 415.299C93.9808 414.517 91.7759 413.689 89.5709 412.803L88.1617 412.235C85.9512 411.304 83.7408 410.32 81.5303 409.281C80.7594 408.919 79.9885 408.543 79.2259 408.159C66.9543 402.035 55.8062 394.275 46.1682 385.149C45.8863 384.905 45.6211 384.647 45.3393 384.411C43.9964 383.111 42.6784 381.797 41.4018 380.453L39.9927 378.976C38.484 377.329 37.0251 375.638 35.6076 373.925C35.4004 373.674 35.2015 373.423 34.9859 373.186C29.2211 366.066 24.4345 358.356 20.7284 350.221C20.6123 349.978 20.5128 349.712 20.4051 349.483C19.2667 346.874 18.2581 344.24 17.3795 341.582C16.9982 340.467 16.6334 339.366 16.3185 338.207C16.2024 337.867 16.1029 337.535 16.0117 337.203C11.3034 320.832 10.748 303.826 10.748 286.938C10.748 284.966 10.748 282.987 10.748 281.03C10.748 274.2 10.8392 267.325 10.9719 260.457C10.9719 258.678 11.0547 256.906 11.0962 255.119C11.2122 250.585 11.378 246.051 11.5936 241.517C11.6433 240.254 11.7096 238.999 11.7842 237.743C11.7842 237.02 11.8257 236.296 11.9085 235.572C12.1075 232.944 12.2733 230.337 12.4722 227.738Z" fill="#EA4848"/>
<path opacity="0.1" d="M96.6003 114.004H50.4539C57.9552 103.545 66.1513 93.4942 74.9984 83.9058C81.8537 76.4033 89.0903 69.0929 96.6003 62.0482V114.004Z" fill="#EA4848"/>
<path opacity="0.1" d="M96.6002 117.165V224.577H12.7374C12.7374 224.267 12.7955 223.949 12.8203 223.639C12.8949 222.79 12.9695 221.941 13.0524 221.099C13.1436 220.11 13.2431 219.113 13.3508 218.145C13.4586 217.178 13.5746 215.996 13.699 214.926C13.8233 213.855 13.9394 212.77 14.0803 211.699C14.2212 210.628 14.3455 209.557 14.4948 208.494C14.644 207.431 14.7766 206.353 14.9341 205.289C15.0584 204.403 15.1911 203.524 15.3237 202.638C15.5143 201.39 15.7133 200.135 15.9288 198.894C15.9288 198.71 15.9868 198.518 16.02 198.341C17.5329 189.259 19.5944 180.257 22.1955 171.373C24.9182 162.054 28.395 152.923 32.5986 144.051C37.0662 134.77 42.2972 125.796 48.2488 117.202L96.6002 117.165Z" fill="#EA4848"/>
<path opacity="0.1" d="M116.777 239.728V337.639H296.449V239.728H116.777ZM116.777 340.662V424.743C117.805 424.927 118.824 425.104 119.835 425.253C121.211 425.479 122.579 425.685 123.98 425.862C124.245 425.897 124.518 425.932 124.809 425.954C125.356 426.031 125.919 426.095 126.466 426.159C127.85 426.322 129.226 426.456 130.611 426.562C131.265 426.619 131.928 426.668 132.592 426.711L134.191 426.817C135.062 426.874 135.924 426.916 136.777 426.937C137.308 426.937 137.838 426.98 138.385 426.994C138.8 426.994 139.214 426.994 139.645 426.994C140.076 426.994 140.689 426.994 141.212 426.994C141.924 426.994 142.637 426.994 143.342 426.994H144.295C145.008 426.994 145.721 426.994 146.425 426.937H146.475C146.964 426.937 147.461 426.937 147.959 426.881C148.097 426.888 148.235 426.888 148.373 426.881C148.787 426.881 149.202 426.881 149.6 426.831H149.89L152.667 426.647C153.578 426.576 154.498 426.484 155.427 426.399L157.316 426.208C165.005 425.288 172.608 423.907 180.069 422.075C196.828 418.083 213.223 412.499 229.974 408.408C251.632 403.135 275.562 400.545 296.49 406.993V340.662H116.777ZM296.449 130.726V0.378152C276.778 0.19617 257.16 2.16077 238.072 6.22424C192.576 15.9842 151.755 37.1533 116.777 64.1897V130.719H125.795V133.741H116.777V236.706H296.449V133.748H162.82V130.726H296.449ZM527.228 86.6964C515.972 86.3567 504.783 83.3133 494.663 78.6138C475.309 69.6253 459.85 55.7461 442.577 44.0327C406.687 19.6363 362.177 4.91489 316.516 1.26285V130.726H573.006L573.645 130.153L527.228 86.6964ZM550.594 83.1576L575.369 106.372V77.0709C567.072 77.9485 559.803 80.0364 550.627 83.1293L550.594 83.1576ZM575.369 445.622V340.662H522.578C522.438 340.216 522.297 339.763 522.131 339.31C522.288 339.763 522.421 340.216 522.57 340.662H316.549V416.569C318.505 417.807 320.436 419.11 322.351 420.433C324.415 421.849 326.454 423.342 328.501 424.807L330.565 426.265C331.551 426.973 332.546 427.681 333.549 428.346C335.538 429.724 337.546 431.082 339.574 432.423C340.577 433.13 341.605 433.767 342.625 434.433C358.81 444.999 375.884 454.535 393.707 462.962C397.702 464.85 401.733 466.692 405.8 468.49C408.511 469.672 411.238 470.847 413.973 471.986C418.084 473.699 422.228 475.35 426.406 476.941C464.92 491.703 505.646 501.833 547.419 507.042C556.697 508.212 566.011 509.132 575.36 509.802V445.615H576.189L575.369 445.622ZM316.549 133.748V236.706H575.402V133.748H316.549ZM316.549 239.728V337.639H575.402V239.728H316.549ZM595.493 76.9435V109.628L627.114 80.001C616.638 78.5572 606.097 77.5262 595.493 76.9081V76.9435ZM595.493 239.763V337.639H847.26V239.728L595.493 239.763ZM846.34 453.393L847.226 340.662H595.493V510.927C611.71 511.509 627.952 511.343 644.147 510.432H644.429C652.165 510.016 659.865 509.413 667.53 508.62H667.704C708.592 504.556 748.573 495.447 786.396 481.576L846.34 453.393ZM895.806 255.851C894.861 253.947 893.875 252.057 892.872 250.189C890.999 246.65 889.018 243.21 886.979 239.771H867.335V337.639H917C916.975 309.924 908.761 281.613 895.831 255.815L895.806 255.851ZM867.335 340.697V437.66C881.326 426.208 893.145 413.108 901.658 398.132C911.894 380.098 916.577 360.571 916.958 340.683L867.335 340.697ZM867.335 211.234V236.713H885.138C879.753 227.942 873.818 219.425 867.359 211.198L867.335 211.234ZM696.589 96.1521C695.28 95.7274 693.97 95.2957 692.652 94.8781C678.753 90.4952 664.55 86.8503 650.123 83.9645L601.735 129.311L600.806 130.153L601.428 130.733H773.648C749.663 116.635 723.804 105.015 696.614 96.1167L696.589 96.1521ZM778.696 133.784H599.024L595.493 136.544V236.706H626.443H626.493H847.293V188.189C827.319 167.562 804.266 149.259 778.721 133.748L778.696 133.784Z" fill="#EA4848"/>
<path opacity="0.1" d="M96.6002 171.344V224.577H12.7374C12.7374 224.267 12.7955 223.949 12.8203 223.639C12.8949 222.79 12.9695 221.941 13.0524 221.099C13.1436 220.11 13.2431 219.113 13.3508 218.145C13.4586 217.178 13.5746 215.997 13.699 214.926C13.8233 213.855 13.9394 212.77 14.0803 211.699C14.2212 210.628 14.3455 209.557 14.4948 208.494C14.644 207.431 14.7766 206.353 14.9341 205.289C15.0584 204.403 15.1911 203.524 15.3237 202.638C15.5143 201.39 15.7133 200.135 15.9288 198.894C15.9288 198.71 15.9868 198.518 16.02 198.341C17.5329 189.259 19.5944 180.257 22.1955 171.373L96.6002 171.344Z" fill="#EA4848"/>
<path opacity="0.1" d="M12.4722 227.738H96.6002V329.885H18.6312C18.4239 330.933 18.225 331.989 18.0095 333.045H96.6002V415.425C96.4593 415.388 96.335 415.344 96.2023 415.299C93.9808 414.517 91.7759 413.689 89.5709 412.803L88.1617 412.235C85.9512 411.304 83.7408 410.32 81.5303 409.281C80.7594 408.919 79.9885 408.543 79.2259 408.159C66.9543 402.035 55.8062 394.275 46.1682 385.149C45.8863 384.905 45.6211 384.647 45.3393 384.411C43.9964 383.111 42.6784 381.797 41.4018 380.453L39.9927 378.976C38.484 377.329 37.0251 375.638 35.6076 373.925C35.4004 373.674 35.2015 373.423 34.9859 373.186C29.2211 366.066 24.4345 358.356 20.7284 350.221C20.6123 349.978 20.5128 349.712 20.4051 349.483C19.2667 346.874 18.2581 344.24 17.3795 341.582C16.9982 340.467 16.6334 339.366 16.3185 338.207C16.2024 337.867 16.1029 337.535 16.0117 337.203C11.3034 320.832 10.748 303.826 10.748 286.938C10.748 284.966 10.748 282.987 10.748 281.03C10.748 274.2 10.8392 267.325 10.9719 260.457C10.9719 258.678 11.0547 256.906 11.0962 255.119C11.2122 250.585 11.378 246.051 11.5936 241.517C11.6433 240.254 11.7096 238.999 11.7842 237.743C11.7842 237.02 11.8257 236.296 11.9085 235.572C12.1075 232.944 12.2733 230.337 12.4722 227.738Z" fill="#EA4848"/>
<path opacity="0.1" d="M179.941 132.539V224.577H116.686V132.539H125.704V101.377H162.724V132.539H179.941Z" fill="#EA4848"/>
<path opacity="0.1" d="M179.941 227.73H116.694V329.877H179.941V227.73Z" fill="#EA4848"/>
<path opacity="0.1" d="M116.686 333.045H179.941V417.965C172.479 419.875 164.876 421.313 157.187 422.27L155.297 422.477C154.369 422.573 153.449 422.654 152.537 422.735C151.625 422.816 150.68 422.875 149.76 422.927H149.47C149.072 422.927 148.641 422.971 148.251 422.979H147.828C147.331 422.979 146.834 423.023 146.336 423.038C145.632 423.075 144.927 423.082 144.206 423.09C143.899 423.09 143.609 423.09 143.302 423.09C142.59 423.09 141.885 423.09 141.172 423.09H139.605C139.183 423.09 138.776 423.09 138.337 423.09L136.737 423.038C135.908 423.038 135.013 422.957 134.151 422.905L132.56 422.802L130.578 422.639C129.186 422.528 127.801 422.388 126.434 422.218L124.776 422.011L123.947 421.908C122.563 421.716 121.195 421.509 119.802 421.273C118.783 421.118 117.771 420.926 116.744 420.741L116.686 333.045Z" fill="#EA4848"/>
<path opacity="0.1" d="M575.348 121.669H523.192V224.57H575.348V121.669Z" fill="#EA4848"/>
<path opacity="0.1" d="M575.357 227.73V329.885H316.474V285.823H454.366V311.815H523.192V227.73H575.357Z" fill="#EA4848"/>
<path opacity="0.1" d="M576.177 442.569H575.348V509.582C566.009 508.878 556.697 507.921 547.413 506.71C505.616 501.258 464.869 490.667 426.34 475.238C415.216 470.777 404.318 465.909 393.647 460.631C375.822 451.834 358.745 441.886 342.552 430.865C338.485 428.089 334.47 425.248 330.508 422.344C327.764 420.328 325.037 418.26 322.276 416.252C320.361 414.871 318.43 413.512 316.474 412.212V333.045H522.504C522.363 332.573 522.222 332.1 522.073 331.635C522.23 332.1 522.38 332.573 522.521 333.045H575.348V442.525C575.63 442.532 575.904 442.555 576.177 442.569Z" fill="#EA4848"/>
<path opacity="0.1" d="M711.376 114.004H677.39V104.597H692.626V76.5732C693.946 77.0015 695.262 77.4421 696.571 77.895V104.597H711.376V114.004Z" fill="#EA4848"/>
<path opacity="0.1" d="M793.257 224.577H626.41C626.41 224.577 626.41 224.577 626.468 224.614L626.394 224.577H595.442V121.677H604.212V197.735H644.29V152.691H677.398V117.165H711.384V152.72H744.491V197.765H793.257V224.577Z" fill="#EA4848"/>
<path opacity="0.1" d="M595.442 227.73V329.885H793.257V227.73H595.442ZM846.955 450.131L847.229 369.273H793.257V333.09H595.442V510.682C611.66 511.289 627.903 511.117 644.1 510.165H644.382C652.118 509.732 659.819 509.102 667.484 508.275H667.658C708.55 504.036 748.534 494.531 786.361 480.06" fill="#EA4848"/>
<path opacity="0.1" d="M870.821 333.045H916.967C916.561 353.788 911.886 374.161 901.657 392.976C893.144 408.609 881.315 422.277 867.339 434.218V369.236H870.821V333.045Z" fill="#EA4848"/>
<path opacity="0.1" d="M916.992 329.885H870.82V244.515H895.804C908.735 271.431 916.95 300.968 916.992 329.885Z" fill="#EA4848"/>
<path opacity="0.1" d="M575.357 150.276H547.414V182.538H575.357V150.276Z" fill="#EA4848"/>
<path opacity="0.1" d="M575.357 217.148H547.414V224.577H575.357V217.148Z" fill="#EA4848"/>
<path opacity="0.1" d="M575.357 227.73H547.414V249.403H575.357V227.73Z" fill="#EA4848"/>
<path opacity="0.1" d="M575.357 284.021H547.414V316.283H575.357V284.021Z" fill="#EA4848"/>
<path opacity="0.1" d="M575.357 350.893H547.414V383.155H575.357V350.893Z" fill="#EA4848"/>
<path opacity="0.1" d="M575.349 442.525C575.63 442.525 575.904 442.525 576.177 442.57H575.349V450.065H547.414V417.766H575.349V442.525Z" fill="#EA4848"/>
<path opacity="0.1" d="M575.349 484.623V509.545C566.009 508.841 556.698 507.884 547.414 506.673V484.623H575.349Z" fill="#EA4848"/>
<path opacity="0.1" d="M436.229 327.514H316.474V329.885H436.229V327.514Z" fill="#EA4848"/>
<path opacity="0.1" d="M436.229 333.038H316.474V342.121H436.229V333.038Z" fill="#EA4848"/>
<path opacity="0.1" d="M436.229 371.894H316.474V386.5H436.229V371.894Z" fill="#EA4848"/>
<path opacity="0.1" d="M436.221 416.274V430.88H342.552C338.485 428.113 334.467 425.273 330.499 422.359C327.756 420.343 325.037 418.275 322.268 416.274H436.221Z" fill="#EA4848"/>
<path opacity="0.1" d="M436.221 460.646V475.238H426.332C415.219 470.773 404.324 465.901 393.647 460.624L436.221 460.646Z" fill="#EA4848"/>
<path opacity="0.1" d="M667.683 237.633H644.108V258.634H667.683V237.633Z" fill="#EA4848"/>
<path opacity="0.1" d="M157.245 139.783H133.67V160.784H157.245V139.783Z" fill="#EA4848"/>
<path opacity="0.1" d="M157.245 188.564H133.67V209.565H157.245V188.564Z" fill="#EA4848"/>
<path opacity="0.1" d="M157.245 237.344H133.67V258.346H157.245V237.344Z" fill="#EA4848"/>
<path opacity="0.1" d="M157.245 286.118H133.67V307.119H157.245V286.118Z" fill="#EA4848"/>
<path opacity="0.1" d="M157.245 334.899H133.67V355.9H157.245V334.899Z" fill="#EA4848"/>
<path opacity="0.1" d="M157.245 383.68H133.67V404.681H157.245V383.68Z" fill="#EA4848"/>
<path opacity="0.1" d="M757.68 237.633H734.105V258.634H757.68V237.633Z" fill="#EA4848"/>
<path opacity="0.1" d="M667.683 289.434H644.108V310.435H667.683V289.434Z" fill="#EA4848"/>
<path opacity="0.1" d="M757.68 289.434H734.105V310.435H757.68V289.434Z" fill="#EA4848"/>
<path opacity="0.1" d="M667.683 341.227H644.108V362.228H667.683V341.227Z" fill="#EA4848"/>
<path opacity="0.1" d="M757.68 341.227H734.105V362.228H757.68V341.227Z" fill="#EA4848"/>
<path opacity="0.1" d="M667.683 393.028H644.108V414.029H667.683V393.028Z" fill="#EA4848"/>
<path opacity="0.1" d="M757.68 393.028H734.105V414.029H757.68V393.028Z" fill="#EA4848"/>
<path opacity="0.1" d="M667.683 444.829H644.108V465.83H667.683V444.829Z" fill="#EA4848"/>
<path opacity="0.1" d="M757.68 444.829H734.105V465.83H757.68V444.829Z" fill="#EA4848"/>
<path opacity="0.1" d="M644.108 510.165V496.623H667.674V508.238L644.108 510.165Z" fill="#EA4848"/>
<path opacity="0.1" d="M15.9209 198.326V210.34H96.6006V198.326H15.9209ZM23.9615 209.587H17.3798V199.064H24.0112L23.9615 209.587ZM31.9938 209.587H25.3624V199.064H31.9938V209.587ZM40.0096 209.587H33.3782V199.064H40.0096V209.587ZM48.0419 209.587H41.4188V199.064H48.0502L48.0419 209.587ZM56.0659 209.587H49.4345V199.064H56.0659V209.587ZM64.0983 209.587H57.4668V199.064H64.0983V209.587ZM72.1306 209.587H65.4992V199.064H72.1306V209.587ZM80.1546 209.587H73.5232V199.064H80.1546V209.587ZM88.1787 209.587H81.5472V199.064H88.1787V209.587ZM96.2027 209.587H89.5713V199.064H96.2027V209.587Z" fill="#EA4848"/>
<path opacity="0.1" d="M15.9209 233.283V245.297H96.6006V233.283H15.9209ZM23.9615 244.537H17.3798V234.044H24.0112L23.9615 244.537ZM31.9938 244.537H25.3624V234.044H31.9938V244.537ZM40.0096 244.537H33.3782V234.044H40.0096V244.537ZM48.0419 244.537H41.4188V234.044H48.0502L48.0419 244.537ZM56.0659 244.537H49.4345V234.044H56.0659V244.537ZM64.0983 244.537H57.4668V234.044H64.0983V244.537ZM72.1306 244.537H65.4992V234.044H72.1306V244.537ZM80.1546 244.537H73.5232V234.044H80.1546V244.537ZM88.1787 244.537H81.5472V234.044H88.1787V244.537ZM96.2027 244.537H89.5713V234.044H96.2027V244.537Z" fill="#EA4848"/>
<path opacity="0.1" d="M15.9209 268.255V280.292H96.6006V268.255H15.9209ZM23.9615 279.509H17.3798V269.009H24.0112L23.9615 279.509ZM31.9938 279.509H25.3624V269.009H31.9938V279.509ZM40.0096 279.509H33.3782V269.009H40.0096V279.509ZM48.0419 279.509H41.4188V269.009H48.0502L48.0419 279.509ZM56.0659 279.509H49.4345V269.009H56.0659V279.509ZM64.0983 279.509H57.4668V269.009H64.0983V279.509ZM72.1306 279.509H65.4992V269.009H72.1306V279.509ZM80.1546 279.509H73.5232V269.009H80.1546V279.509ZM88.1787 279.509H81.5472V269.009H88.1787V279.509ZM96.2027 279.509H89.5713V269.009H96.2027V279.509Z" fill="#EA4848"/>
<path opacity="0.1" d="M15.9209 303.228V315.227H96.6006V303.228H15.9209ZM23.9615 314.481H17.3798V303.973H24.0112L23.9615 314.481ZM31.9938 314.481H25.3624V303.973H31.9938V314.481ZM40.0096 314.481H33.3782V303.973H40.0096V314.481ZM48.0419 314.481H41.4188V303.973H48.0502L48.0419 314.481ZM56.0659 314.481H49.4345V303.973H56.0659V314.481ZM64.0983 314.481H57.4668V303.973H64.0983V314.481ZM72.1306 314.481H65.4992V303.973H72.1306V314.481ZM80.1546 314.481H73.5232V303.973H80.1546V314.481ZM88.1787 314.481H81.5472V303.973H88.1787V314.481ZM96.2027 314.481H89.5713V303.973H96.2027V314.481Z" fill="#EA4848"/>
<path opacity="0.1" d="M16.2687 338.192C16.592 339.322 16.9567 340.452 17.338 341.567V338.945H23.9694V349.446H20.4216C20.5294 349.69 20.6371 349.955 20.7449 350.184H96.6002V338.192H16.2687ZM32.0183 349.446H25.3869V338.945H32.0183V349.446ZM40.0341 349.446H33.4026V338.945H40.0341V349.446ZM48.0664 349.446H41.4184V338.945H48.0498L48.0664 349.446ZM56.0904 349.446H49.459V338.945H56.0904V349.446ZM64.1228 349.446H57.4913V338.945H64.1228V349.446ZM72.1551 349.446H65.5236V338.945H72.1551V349.446ZM80.1791 349.446H73.5477V338.945H80.1791V349.446ZM88.2031 349.446H81.5717V338.945H88.2031V349.446ZM96.2272 349.446H89.5957V338.945H96.2272V349.446Z" fill="#EA4848"/>
<path opacity="0.1" d="M35.0027 373.164C35.2099 373.401 35.4089 373.666 35.6244 373.903H40.0094V378.946C40.4819 379.448 40.9461 379.95 41.4269 380.423V373.873H48.0583V384.411H45.3726C45.6378 384.654 45.8948 384.913 46.2015 385.149H96.6253V373.164H35.0027ZM56.0658 384.411H49.4343V373.917H56.0658V384.411ZM64.0981 384.411H57.4667V373.917H64.0981V384.411ZM72.1304 384.411H65.499V373.917H72.1304V384.411ZM80.1545 384.411H73.523V373.917H80.1545V384.411ZM88.1785 384.411H81.5471V373.917H88.1785V384.411ZM96.2025 384.411H89.5711V373.917H96.2025V384.411Z" fill="#EA4848"/>
<path opacity="0.1" d="M79.2593 408.129C80.0136 408.513 80.7845 408.867 81.5637 409.251V408.882H88.1951V412.205L89.6043 412.789V408.882H96.2358V415.27C96.3629 415.326 96.4963 415.371 96.6337 415.403V408.129H79.2593Z" fill="#EA4848"/>
<path opacity="0.1" d="M626.411 224.577H626.46H626.411ZM575.349 442.518H576.178H575.349ZM522.073 331.628C522.231 332.1 522.363 332.573 522.513 333.038C522.38 332.573 522.239 332.1 522.073 331.628ZM626.411 224.555H626.46H626.411ZM125.737 113.982V117.135H162.766V113.982H125.737ZM575.349 442.518H576.178H575.349ZM522.073 331.628C522.231 332.1 522.363 332.573 522.513 333.038C522.38 332.573 522.239 332.1 522.073 331.628ZM626.411 224.555H626.46H626.411ZM575.349 442.496H576.178H575.349ZM522.073 331.628C522.231 332.1 522.363 332.573 522.513 333.038C522.38 332.573 522.239 332.1 522.073 331.628Z" fill="#EA4848"/>
<path d="M383.634 258.36C383.634 258.36 380.368 257.954 380.368 253.716C380.368 249.477 378.03 241.561 378.03 241.561C378.03 241.524 376.007 227.774 373.214 225.589C370.421 223.403 366.831 210.569 366.831 210.569C366.831 210.569 366.218 203.606 364.966 202.107C363.714 200.608 362.023 196.938 359.528 191.702C357.033 186.467 346.63 182.841 346.63 182.841C346.63 182.841 327.822 173.123 322.492 169.955C322.007 169.695 321.555 169.391 321.141 169.047C320.212 167.962 316.167 167.939 316.167 167.939C315.744 165.562 315.338 162.829 315.206 160.356C315.206 160.09 315.206 159.824 315.164 159.558C321.107 156.429 325.584 151.494 327.772 145.661C327.872 145.38 327.954 145.085 328.046 144.804C328.402 144.7 328.729 144.53 329.008 144.306C329.286 144.083 329.509 143.81 329.662 143.505C330.143 142.552 330.151 141.437 330.748 140.551C331.444 139.502 332.771 138.941 333.815 138.151C336.451 136.157 337.131 132.797 337.006 129.74C336.923 127.267 336.476 124.771 336.65 122.312L336.7 121.691C336.749 121.322 336.807 120.953 336.882 120.598C337.288 118.767 338.175 117.039 338.673 115.223C339.17 113.406 339.22 111.361 338.059 109.795C336.36 107.499 332.82 107.041 329.712 106.805C326.189 106.539 323.039 106.886 320.784 104.279C319.729 102.917 318.542 101.639 317.236 100.461C316.772 100.077 312.263 97.6259 312.263 97.4634C307.862 95.6476 302.873 95.3067 298.212 96.5035C295.875 97.109 293.67 98.0985 291.299 98.5932C286.185 99.6713 280.299 98.5046 275.956 101.111C273.535 102.588 272.085 104.936 270.725 107.226C269.62 109.111 268.498 110.994 267.36 112.875C265.528 115.969 263.663 119.114 262.892 122.541C262.73 123.286 262.63 124.041 262.593 124.8V124.837C262.593 125.11 262.593 125.384 262.593 125.657V126.004C262.593 126.262 262.593 126.513 262.643 126.742C262.693 126.971 262.685 127.045 262.709 127.2C262.734 127.355 262.776 127.702 262.825 127.938C262.875 128.175 262.975 128.588 263.074 128.913C263.116 129.054 263.174 129.186 263.223 129.319C263.306 129.57 263.406 129.814 263.513 130.058C263.571 130.183 263.63 130.316 263.696 130.442C263.82 130.7 263.969 130.951 264.119 131.18C264.185 131.284 264.235 131.38 264.301 131.476C264.532 131.819 264.787 132.149 265.064 132.465C266.837 134.437 269.449 135.692 271.38 137.538C271.38 137.612 271.38 137.686 271.38 137.752C271.38 137.959 271.38 138.158 271.38 138.365C271.482 142.482 272.713 146.515 274.963 150.112C277.214 153.709 280.418 156.762 284.295 159.004C284.295 159.285 284.336 159.573 284.353 159.854C284.514 162.045 284.484 164.245 284.262 166.433C283.924 166.079 283.501 165.797 283.025 165.608C282.549 165.418 282.031 165.327 281.51 165.34C281.153 165.325 280.796 165.352 280.448 165.421L280.374 165.37V165.436C278.55 165.835 276.304 167.526 274.157 172.333C274.157 172.333 267.625 178.89 262.651 178.617C257.678 178.344 245.086 185.44 245.086 185.44C245.086 185.44 232.802 192.544 230.166 199.781C228.692 203.884 226.926 207.899 224.877 211.802L209.691 239.678L206.889 261.794C206.889 261.794 208.439 271.63 208.133 273.129C207.826 274.628 214.507 288.149 214.507 288.149C214.507 288.149 236.582 322.7 245.6 324.472L246.247 324.066C246.633 324.245 247.042 324.382 247.465 324.472L249.322 323.305C249.434 324.606 249.386 325.913 249.181 327.204C247.938 330.616 249.645 352.88 251.817 357.244C253.989 361.608 253.218 418.829 253.218 418.829L252.911 423.88C252.911 423.88 252.911 424.042 252.986 424.323L252.911 425.519L253.135 425.622C253.368 427.224 253.292 428.85 252.911 430.43C252.132 432.645 251.817 438.907 251.817 438.907C251.817 438.907 245.609 474.263 248.551 481.367C251.494 488.47 253.997 496.253 253.997 496.253C253.997 496.253 257.106 505.115 254.147 506.628C251.187 508.142 242.774 510.682 244.506 514.375C246.081 517.786 252.058 526.928 252.945 528.264L252.87 528.966L251.651 540.729C251.849 542.282 252.322 543.798 253.052 545.219C254.387 547.781 256.981 550.44 261.914 550.152C262.743 550.1 263.704 550.011 264.633 549.9C273.66 548.822 284.775 545.234 284.775 545.234C284.198 544.907 283.669 544.518 283.201 544.074C282.757 543.691 282.405 543.232 282.167 542.724C281.929 542.216 281.81 541.671 281.816 541.12C281.949 538.979 277.448 528.774 276.329 526.263C276.155 525.901 276.063 525.695 276.063 525.695C276.063 525.695 286.326 516.139 284.618 507.67C284.618 507.67 273.262 501.762 277 498.52C280.739 495.279 287.42 485.967 287.42 485.967C287.42 485.967 287.726 451.15 287.42 445.951C287.1 442.343 287.292 438.714 287.992 435.148C288.116 434.609 288.265 434.085 288.423 433.568C293.593 434.255 298.812 434.608 304.04 434.624C305.946 434.624 307.886 434.624 309.842 434.52C309.842 435.013 309.867 435.544 309.917 436.116C310.348 444.74 311.152 459.863 311.807 465.483C312.735 473.539 317.866 495.249 317.866 495.249C317.866 495.249 308.077 500.846 319.574 514.64C319.574 514.64 319.574 519.639 318.811 520.363C317.997 522.729 317.341 525.135 316.847 527.57C316.366 530.17 316.167 532.798 316.946 534.164C318.811 537.428 330.002 537.162 330.002 537.162L330.275 537.118C332.388 536.924 334.523 537.105 336.557 537.651C338.59 538.197 340.481 539.098 342.121 540.301C346.373 543.343 362.513 542.007 371.249 541.039C374.673 540.655 376.961 540.301 376.961 540.301C377.072 539.956 377.111 539.595 377.077 539.237C376.986 537.325 375.303 533.131 363.897 529.387C363.897 529.387 353.17 522.962 353.32 517.365H353.096H351.852C352.756 517.321 353.336 517.365 353.336 517.365C353.336 517.365 349.134 503.704 350.849 502.596C352.565 501.489 347.426 486.351 347.426 486.351C347.426 486.351 344.483 460.949 344.326 459.169C344.332 457.642 344.592 456.124 345.097 454.665L344.326 440.738C344.326 440.738 344.177 436.108 344.326 434.602C344.301 433.294 344.182 431.989 343.969 430.695C343.895 430.178 343.82 429.639 343.737 429.108C347.758 428.2 350.369 427.358 350.369 427.358L349.904 378.88C353.32 372.972 353.95 360.013 353.933 350.819C353.933 344.912 353.635 340.54 353.635 340.54L358.302 333.754C358.302 333.754 359.379 325.631 357.672 323.852C356.917 323.047 357.257 322.212 357.879 321.526C358.202 321.298 358.542 321.09 358.898 320.905C358.898 320.905 358.849 320.839 358.791 320.743C359.116 320.5 359.463 320.281 359.827 320.086C359.827 320.086 358.169 317.797 359.653 316.829C361.045 317.671 362.289 318.306 363.234 318.823C363.167 319.362 363.101 319.672 363.101 319.672L363.499 318.934C364.411 319.392 364.966 319.672 364.966 319.672C364.966 319.672 372.277 306.698 372.12 304.785C371.962 302.873 377.093 294.817 377.093 294.817C377.093 294.817 377.715 290.585 380.517 288.813C383.319 287.041 382.689 274.2 382.689 274.2C382.689 274.2 383.468 267.509 385.333 264.777C387.198 262.045 383.634 258.36 383.634 258.36ZM243.743 252.667L243.884 255.761C243.055 254.572 242.459 253.716 242.459 253.716L243.743 252.667Z" fill="url(#paint0_linear)"/>
<path d="M365.364 314.068L363.574 320.861C363.574 320.861 349.233 314.341 346.647 306.056C344.061 297.77 350.974 294.625 350.974 294.625L364.336 299.668L365.364 314.068Z" fill="white"/>
<path opacity="0.1" d="M365.364 314.068L363.574 320.861C363.574 320.861 349.233 314.341 346.647 306.056C344.061 297.77 350.974 294.625 350.974 294.625L364.336 299.668L365.364 314.068Z" fill="black"/>
<path d="M284.883 545.278C284.883 545.278 271.621 549.62 262.502 550.166C257.661 550.454 255.117 547.811 253.807 545.263C253.091 543.847 252.63 542.339 252.439 540.796L253.624 529.092L254.254 522.859L273.627 518.377L276.37 525.85L276.627 526.418C277.73 528.914 282.148 539.068 282.015 541.187C282.01 541.73 282.127 542.268 282.361 542.769C282.595 543.27 282.939 543.724 283.375 544.104C283.82 544.551 284.327 544.945 284.883 545.278Z" fill="white"/>
<path d="M375.477 539.326C375.51 539.681 375.471 540.039 375.361 540.382C375.361 540.382 346.995 544.598 341.193 540.382C339.557 539.15 337.65 538.237 335.594 537.7C333.538 537.163 331.38 537.016 329.256 537.266C329.256 537.266 318.281 537.532 316.449 534.312C315.686 532.961 315.885 530.339 316.358 527.755C316.84 525.333 317.482 522.939 318.281 520.585L318.72 520.275L321.331 518.406L351.902 517.602H352.134C351.985 523.169 362.513 529.557 362.513 529.557C373.695 533.249 375.345 537.421 375.477 539.326Z" fill="white"/>
<path opacity="0.1" d="M375.477 539.326C375.506 539.682 375.464 540.039 375.353 540.382C375.353 540.382 346.995 544.599 341.193 540.382C339.558 539.151 337.652 538.238 335.598 537.702C333.544 537.165 331.387 537.017 329.264 537.266C329.264 537.266 318.281 537.532 316.457 534.312C315.695 532.953 315.886 530.339 316.358 527.755C320.586 528.131 327.258 529.069 329.878 531.307C333.84 534.711 340.554 538.108 344.674 538.374C347.899 538.558 367.188 539.105 375.477 539.326Z" fill="black"/>
<path opacity="0.1" d="M284.883 545.278C284.883 545.278 271.621 549.62 262.502 550.166C257.661 550.454 255.117 547.811 253.815 545.256C257.189 546.267 261.872 547.331 264.334 546.356C267.252 545.204 277.597 544.458 283.4 544.141C283.841 544.571 284.339 544.953 284.883 545.278Z" fill="black"/>
<path d="M304.562 195.372C293.62 191.584 279.545 179.068 283.06 173.219C283.84 171.743 284.304 170.15 284.427 168.523C284.654 166.313 284.687 164.091 284.527 161.877C284.281 158.25 283.791 154.64 283.06 151.066C283.06 151.066 317.22 151.753 315.23 156.235C314.65 157.55 314.559 159.831 314.717 162.386C314.874 164.941 315.288 167.829 315.72 170.273C316.316 173.625 316.913 176.18 316.913 176.18C316.913 176.18 314.824 178.787 313.597 178.927C312.371 179.068 320.262 200.77 304.562 195.372Z" fill="#CF6F80"/>
<path opacity="0.1" d="M276.602 526.418L276.346 526.67C266.133 515.667 253.782 529.38 253.782 529.38L253.6 529.092L254.23 522.859L273.602 518.377L276.346 525.85L276.602 526.418Z" fill="black"/>
<path opacity="0.1" d="M352.143 518.377C352.143 518.377 344.682 518.237 340.704 521.368C336.725 524.498 317.494 522.047 318.323 521.368C318.568 521.031 318.716 520.645 318.754 520.245L321.365 518.377L351.936 517.572C352.052 518.067 352.143 518.377 352.143 518.377Z" fill="black"/>
<path d="M289.31 431.973C288.754 433.197 288.332 434.465 288.05 435.761C287.359 439.31 287.166 442.922 287.478 446.513C287.785 451.682 287.478 486.322 287.478 486.322C287.478 486.322 280.921 495.559 277.265 498.816C273.61 502.072 284.726 507.921 284.726 507.921C286.384 516.339 276.337 525.85 276.337 525.85C266.125 514.847 253.774 528.567 253.774 528.567C253.774 528.567 247.059 518.229 245.385 514.537C243.71 510.845 251.942 508.29 254.835 506.791C257.728 505.292 254.694 496.453 254.694 496.453C254.694 496.453 252.248 488.707 249.347 481.64C246.446 474.573 252.547 439.394 252.547 439.394C252.547 439.394 252.862 433.147 253.616 430.969C253.997 429.397 254.072 427.778 253.84 426.184C253.79 425.645 253.732 425.194 253.691 424.891C253.649 424.589 253.616 424.448 253.616 424.448L253.732 424.271L257.877 417.389C257.877 417.389 291.299 427.638 289.31 431.973Z" fill="#EA4848"/>
<path d="M352.143 517.565C352.143 517.565 344.682 517.424 340.704 520.518C336.725 523.613 317.494 521.198 318.322 520.518C319.151 519.839 319.085 514.81 319.085 514.81C307.803 501.09 317.427 495.522 317.427 495.522C317.427 495.522 312.387 473.923 311.476 465.911C310.837 460.314 310.05 445.272 309.627 436.684C309.445 432.992 309.337 430.452 309.337 430.452L318.555 428.798L319.74 428.583L341.972 424.611C341.972 424.611 342.585 428.303 343 431.323C343.206 432.613 343.323 433.912 343.348 435.215C343.199 436.691 343.348 441.314 343.348 441.314L344.102 455.174C343.609 456.628 343.355 458.138 343.348 459.657C343.497 461.422 346.39 486.691 346.39 486.691C346.39 486.691 351.422 501.77 349.706 502.855C347.99 503.941 352.143 517.565 352.143 517.565Z" fill="#EA4848"/>
<path opacity="0.1" d="M315.231 156.235C314.65 157.55 314.559 159.831 314.717 162.386C310.141 164.841 304.881 166.096 299.541 166.007C294.201 165.918 288.997 164.489 284.527 161.884C284.281 158.255 283.791 154.643 283.06 151.066C283.06 151.066 317.22 151.738 315.231 156.235Z" fill="black"/>
<path d="M328.435 139.916C328.442 142.577 327.972 145.222 327.043 147.751C324.966 153.417 320.707 158.247 315.02 161.387C309.332 164.527 302.581 165.774 295.961 164.909C289.34 164.044 283.276 161.122 278.84 156.659C274.405 152.196 271.883 146.48 271.72 140.521C271.72 140.315 271.72 140.123 271.72 139.916C271.656 136.562 272.342 133.229 273.738 130.114C275.135 126.998 277.213 124.162 279.853 121.769C282.493 119.377 285.642 117.477 289.115 116.18C292.588 114.883 296.316 114.215 300.082 114.215C303.848 114.215 307.576 114.883 311.049 116.18C314.522 117.477 317.67 119.377 320.31 121.769C322.95 124.162 325.029 126.998 326.426 130.114C327.822 133.229 328.508 136.562 328.444 139.916H328.435Z" fill="#CF6F80"/>
<path opacity="0.1" d="M304.562 195.372C293.62 191.584 279.545 179.067 283.06 173.219C283.84 171.743 284.304 170.15 284.427 168.523L299.406 179.488L308.674 186.26L315.72 170.28C316.316 173.633 316.913 176.188 316.913 176.188C316.913 176.188 314.824 178.794 313.597 178.935C312.371 179.075 320.262 200.77 304.562 195.372Z" fill="black"/>
<path d="M343.298 243.835L330.789 431.028L314.476 431.98L272.234 323.438L279.164 194.575L280.623 167.349L299.406 181.091L308.682 187.862L315.935 171.417L329.422 181.888L343.298 243.835Z" fill="#EA4848"/>
<path opacity="0.1" d="M289.31 431.973C288.754 433.197 288.332 434.465 288.05 435.761C276.18 434.128 264.651 430.92 253.848 426.243L253.625 426.139L253.699 424.95L253.741 424.33L257.885 417.448C257.885 417.448 291.299 427.638 289.31 431.973Z" fill="black"/>
<path opacity="0.1" d="M318.745 435.791C315.711 436.25 312.65 436.561 309.577 436.721C309.395 433.029 309.287 430.489 309.287 430.489L318.505 428.835L318.745 435.791Z" fill="black"/>
<path opacity="0.1" d="M342.95 431.36C337.056 432.726 327.954 434.262 319.806 433.302L319.69 428.62L341.922 424.648C341.922 424.648 342.535 428.303 342.95 431.36Z" fill="black"/>
<path opacity="0.1" d="M319.657 434.159C285.671 439.328 254.545 424.507 254.545 424.507L254.843 419.486C254.843 419.486 255.614 362.56 253.475 358.196C251.337 353.832 249.67 331.701 250.881 328.305C252.091 324.908 246.462 273.971 246.462 273.971L245.551 253.295L212.178 241.251L227.099 213.545C229.114 209.66 230.847 205.665 232.288 201.582C234.882 194.39 246.927 187.323 246.927 187.323C246.927 187.323 259.278 180.264 264.16 180.53C269.043 180.795 275.442 174.282 275.442 174.282C280.167 163.553 284.444 168.412 284.444 168.412C284.444 168.921 284.444 168.412 284.212 170C282.554 181.778 311.02 218.995 311.426 219.652L314.136 278.475L316.88 352.916L319.657 434.159Z" fill="black"/>
<path d="M318.745 434.159C284.759 439.328 253.624 424.507 253.624 424.507L253.931 419.486C253.931 419.486 254.702 362.56 252.555 358.196C250.408 353.832 248.75 331.701 249.969 328.305C251.187 324.908 245.551 273.971 245.551 273.971L244.631 253.295L211.241 241.207L226.162 213.501C228.173 209.615 229.906 205.619 231.351 201.538C233.937 194.346 245.99 187.279 245.99 187.279C245.99 187.279 258.341 180.22 263.215 180.485C268.089 180.751 274.497 174.238 274.497 174.238C279.23 163.509 284.444 168.368 284.444 168.368C284.444 168.877 283.947 169.106 284.212 169.955C287.859 181.379 310.108 218.95 310.514 219.608L313.258 278.431L316.001 352.872L318.745 434.159Z" fill="white"/>
<path opacity="0.1" d="M309.586 221.284C305.93 219.925 286.566 200.231 286.566 200.231V195.749C285.862 194.272 281.676 195.173 278.277 196.207L279.736 168.981L281.394 170.206C285.024 181.623 309.163 220.627 309.586 221.284Z" fill="black"/>
<path d="M310.506 219.652C306.842 218.293 287.478 198.599 287.478 198.599V194.117C286.773 192.64 282.587 193.541 279.189 194.575L280.656 167.349L282.314 168.574C285.953 179.991 310.099 219.002 310.506 219.652Z" fill="white"/>
<path opacity="0.1" d="M254.545 317.871C255 317.871 278.177 315.7 278.177 315.7C278.177 315.7 292.211 340.282 291.291 346.263C290.371 352.245 288.705 357.539 283.06 356.601C277.415 355.664 252.679 357.34 252.679 357.34L254.545 317.871Z" fill="black"/>
<path d="M253.625 316.239C254.08 316.239 277.257 314.068 277.257 314.068C277.257 314.068 291.283 338.657 290.371 344.631C289.459 350.605 287.777 355.907 282.14 354.969C276.503 354.032 251.759 355.708 251.759 355.708L253.625 316.239Z" fill="white"/>
<path d="M271.09 304.697C271.09 304.697 292.36 314.88 292.816 317.989C293.272 321.098 281.99 316.63 279.553 316.091C277.949 315.747 276.316 315.519 274.671 315.412L258.416 315.803L271.09 304.697Z" fill="#CF6F80"/>
<path opacity="0.1" d="M303.65 222.554C304.886 222.554 305.888 221.661 305.888 220.56C305.888 219.459 304.886 218.566 303.65 218.566C302.414 218.566 301.412 219.459 301.412 220.56C301.412 221.661 302.414 222.554 303.65 222.554Z" fill="black"/>
<path d="M303.65 221.742C304.886 221.742 305.888 220.849 305.888 219.748C305.888 218.647 304.886 217.754 303.65 217.754C302.414 217.754 301.412 218.647 301.412 219.748C301.412 220.849 302.414 221.742 303.65 221.742Z" fill="#3F3D56"/>
<path opacity="0.1" d="M307.77 308.862C309.006 308.862 310.008 307.969 310.008 306.868C310.008 305.767 309.006 304.874 307.77 304.874C306.534 304.874 305.532 305.767 305.532 306.868C305.532 307.969 306.534 308.862 307.77 308.862Z" fill="black"/>
<path d="M307.77 308.042C309.006 308.042 310.008 307.149 310.008 306.048C310.008 304.947 309.006 304.054 307.77 304.054C306.534 304.054 305.532 304.947 305.532 306.048C305.532 307.149 306.534 308.042 307.77 308.042Z" fill="#3F3D56"/>
<path opacity="0.1" d="M305.88 265.708C307.116 265.708 308.118 264.815 308.118 263.714C308.118 262.613 307.116 261.72 305.88 261.72C304.644 261.72 303.642 262.613 303.642 263.714C303.642 264.815 304.644 265.708 305.88 265.708Z" fill="black"/>
<path d="M305.88 264.895C307.116 264.895 308.118 264.003 308.118 262.902C308.118 261.801 307.116 260.908 305.88 260.908C304.644 260.908 303.642 261.801 303.642 262.902C303.642 264.003 304.644 264.895 305.88 264.895Z" fill="#3F3D56"/>
<path d="M357.473 314.998C357.473 314.998 358.998 317.036 357.473 317.989C355.947 318.941 357.622 321.245 357.622 321.245C357.622 321.245 353.817 323.232 355.492 325.019C357.166 326.806 356.105 334.877 356.105 334.877L351.529 341.626C351.529 341.626 351.803 345.975 351.819 351.853C351.819 361.024 351.214 373.917 347.865 379.795L348.33 428.022C348.33 428.022 332.306 433.236 318.894 431.648L316.905 354.26C316.905 354.26 319.806 310.375 320.875 301.957C321.501 297.587 321.756 293.181 321.638 288.776C321.638 288.776 321.182 275.603 319.649 269.489C319.649 269.489 317.991 243.001 317.825 235.668C317.75 232.161 317.958 221.926 318.19 212.194C318.447 201.553 318.737 191.518 318.737 191.518L315.711 170.192C315.711 170.192 318.737 169.918 319.649 171.004C320.057 171.344 320.501 171.648 320.975 171.912C326.197 175.058 344.649 184.731 344.649 184.731C344.649 184.731 354.862 188.35 357.307 193.533C359.752 198.717 361.452 202.395 362.637 203.872C363.822 205.348 364.469 212.29 364.469 212.29C364.469 212.29 367.983 225.064 370.727 227.228C373.471 229.392 375.477 243.156 375.477 243.156L351.231 260.14C351.231 260.14 349.1 288.392 348.645 289.485C348.189 290.578 357.473 314.998 357.473 314.998Z" fill="white"/>
<path d="M358.393 314.998C358.393 314.998 359.91 317.036 358.393 317.989C356.876 318.941 358.534 321.245 358.534 321.245C358.534 321.245 354.754 323.254 356.412 325.041C358.069 326.828 357.025 334.899 357.025 334.899L352.449 341.648C352.449 341.648 352.723 345.997 352.748 351.875C352.748 361.047 352.143 373.94 348.794 379.818L349.25 428.045C349.25 428.045 333.202 433.258 319.806 431.67L317.825 354.283C317.825 354.283 320.726 310.398 321.795 301.98C322.422 297.609 322.674 293.203 322.55 288.799C322.55 288.799 322.094 275.625 320.569 269.511C320.569 269.511 318.911 243.023 318.737 235.691C318.662 232.183 318.878 221.948 319.101 212.216C319.358 201.575 319.649 191.54 319.649 191.54L315.653 169.926C315.653 169.926 319.649 169.926 320.569 171.026C320.973 171.37 321.418 171.674 321.895 171.934C327.117 175.08 345.577 184.753 345.577 184.753C345.577 184.753 355.782 188.372 358.227 193.556C360.672 198.739 362.372 202.417 363.565 203.894C364.759 205.371 365.389 212.312 365.389 212.312C365.389 212.312 368.903 225.087 371.647 227.25C374.391 229.414 376.372 243.149 376.372 243.149L352.126 260.133C352.126 260.133 349.996 288.385 349.531 289.478C349.067 290.571 358.393 314.998 358.393 314.998Z" fill="white"/>
<path opacity="0.1" d="M329.355 197.809L331.544 203.495L320.022 213.833C320.279 203.2 320.569 193.157 320.569 193.157L316.573 171.543C316.573 171.543 320.569 171.543 321.489 172.643C321.892 172.986 322.337 173.288 322.815 173.544L332.613 198.725L329.355 197.809Z" fill="black"/>
<path d="M328.435 196.177L330.632 201.863L319.11 212.201C319.367 201.56 319.657 191.525 319.657 191.525L315.653 169.911C315.653 169.911 319.657 169.911 320.569 171.011C320.975 171.353 321.42 171.657 321.895 171.919L331.701 197.093L328.435 196.177Z" fill="white"/>
<path opacity="0.1" d="M328.435 139.916C328.442 142.577 327.972 145.222 327.043 147.751C326.886 147.772 326.726 147.766 326.573 147.732C326.419 147.697 326.274 147.636 326.148 147.551C325.932 140.905 322.26 134.666 317.742 129.356C316.474 127.753 314.936 126.334 313.183 125.147C311.411 123.961 309.206 123.406 306.999 123.589C304.513 123.892 302.316 125.398 299.804 125.59C296.488 125.834 293.521 123.788 290.23 123.685C288.892 123.696 287.573 123.962 286.359 124.463C285.145 124.965 284.066 125.692 283.192 126.595C281.464 128.416 280.179 130.539 279.421 132.827C278.118 136.296 277.408 139.921 277.315 143.578C277.274 145.646 277.05 148.238 274.895 148.991C275.057 147.471 274.863 145.937 274.325 144.486C273.787 143.036 272.917 141.701 271.77 140.566L271.72 140.521C271.72 140.315 271.72 140.123 271.72 139.916C271.656 136.562 272.342 133.229 273.738 130.114C275.135 126.998 277.213 124.162 279.853 121.769C282.493 119.377 285.642 117.477 289.115 116.18C292.588 114.883 296.316 114.215 300.082 114.215C303.848 114.215 307.576 114.883 311.049 116.18C314.522 117.477 317.67 119.377 320.31 121.769C322.95 124.162 325.029 126.998 326.426 130.114C327.822 133.229 328.508 136.562 328.444 139.916H328.435Z" fill="black"/>
<path d="M311.824 99.7968C307.516 97.9918 302.617 97.6505 298.047 98.8369C295.751 99.4424 293.587 100.425 291.258 100.919C286.284 101.99 280.482 100.831 276.213 103.423C273.842 104.899 272.416 107.233 271.09 109.5L267.774 115.127C265.967 118.206 264.144 121.337 263.389 124.726C262.635 128.116 263.091 131.911 265.503 134.636C267.26 136.622 269.855 137.87 271.761 139.739C272.904 140.875 273.77 142.209 274.306 143.658C274.843 145.106 275.037 146.638 274.878 148.157C277.042 147.418 277.249 144.819 277.299 142.751C277.391 139.094 278.101 135.469 279.404 132C280.161 129.711 281.445 127.588 283.176 125.767C284.05 124.865 285.13 124.139 286.343 123.638C287.556 123.136 288.876 122.87 290.213 122.858C293.529 122.961 296.505 125 299.788 124.756C302.274 124.571 304.479 123.057 306.983 122.762C309.19 122.576 311.396 123.132 313.167 124.32C314.919 125.505 316.454 126.925 317.717 128.529C322.243 133.839 325.915 140.064 326.131 146.724C327.068 147.337 328.419 146.54 328.883 145.594C329.347 144.649 329.364 143.542 329.952 142.641C330.632 141.599 331.933 141.046 332.953 140.263C335.539 138.277 336.186 134.931 336.086 131.896C335.987 128.862 335.324 125.782 335.97 122.799C336.36 120.968 337.239 119.255 337.719 117.445C338.2 115.636 338.258 113.606 337.123 112.047C335.465 109.758 331.975 109.308 328.933 109.094C325.476 108.828 322.384 109.168 320.179 106.576C319.144 105.223 317.979 103.953 316.698 102.78C316.258 102.396 311.824 99.9593 311.824 99.7968Z" fill="#512E4E"/>
<path opacity="0.1" d="M221.727 255.517L213.065 241.251L210.321 263.264C210.321 263.264 211.846 273.04 211.54 274.539C211.233 276.038 217.79 289.478 217.79 289.478C217.79 289.478 239.45 323.845 248.294 325.617L278.177 306.595L270.253 297.63C270.253 297.63 267.509 296.678 266.821 297.63C266.821 297.63 252.108 275.079 250.582 273.447C249.057 271.815 249.355 268.558 249.355 268.558C249.355 268.558 247.068 266.387 247.83 264.349C248.593 262.311 243.412 255.244 243.412 255.244L248.137 251.308L221.727 255.517Z" fill="black"/>
<path d="M213.521 239.626L211.233 241.251L208.489 263.264C208.489 263.264 210.014 273.04 209.708 274.539C209.401 276.038 215.966 289.478 215.966 289.478C215.966 289.478 237.618 323.845 246.463 325.617L276.354 306.595L268.421 297.63C268.421 297.63 265.677 296.678 264.989 297.63C264.989 297.63 250.276 275.079 248.75 273.447C247.225 271.815 247.532 268.558 247.532 268.558C247.532 268.558 245.244 266.387 246.007 264.349C246.769 262.311 241.58 255.244 241.58 255.244L246.305 251.308L213.521 239.626Z" fill="white"/>
<path opacity="0.1" d="M355.492 325.86C357.15 327.655 356.105 335.711 356.105 335.711L351.529 342.46C351.529 342.46 351.803 346.817 351.82 352.688L344.127 354.829C343.432 355.022 342.695 355.065 341.978 354.953C341.26 354.841 340.583 354.578 340.003 354.186C339.423 353.793 338.957 353.283 338.643 352.697C338.33 352.112 338.178 351.468 338.2 350.819L339.527 312.709L357.473 318.823C355.948 319.768 357.622 322.087 357.622 322.087C357.622 322.087 353.817 324.066 355.492 325.86Z" fill="black"/>
<path d="M356.412 325.041C358.069 326.835 357.025 334.899 357.025 334.899L352.449 341.648C352.449 341.648 352.723 345.997 352.748 351.875L344.914 354.054C344.233 354.242 343.512 354.283 342.81 354.173C342.108 354.063 341.445 353.805 340.878 353.421C340.31 353.036 339.854 352.537 339.546 351.964C339.239 351.39 339.09 350.76 339.112 350.125L340.446 311.897L358.401 318.011C356.867 318.956 358.542 321.267 358.542 321.267C358.542 321.267 354.754 323.254 356.412 325.041Z" fill="white"/>
<path d="M362.355 306.875C362.355 306.875 361.137 313.809 358.086 314.215C355.036 314.621 353.668 325.432 350.626 325.048C347.584 324.664 349.598 314.998 349.706 313.122C349.813 311.247 346.39 303.479 348.951 301.714C351.513 299.949 359.62 301.714 359.62 301.714L362.355 306.875Z" fill="#CF6F80"/>
<path opacity="0.1" d="M368.845 253.479L374.598 243.141C374.598 243.141 376.886 251.02 376.886 255.229C376.886 259.438 380.086 259.852 380.086 259.852C380.086 259.852 383.592 263.544 381.744 266.232C379.895 268.92 379.149 275.61 379.149 275.61C379.149 275.61 379.754 288.378 377.01 290.142C374.267 291.907 373.695 296.124 373.695 296.124C373.695 296.124 368.655 304.136 368.812 306.041C368.97 307.946 361.8 320.846 361.8 320.846C361.8 320.846 365.306 304.815 344.873 297.889C344.873 297.889 344.715 292.446 346.241 290.955C347.766 289.463 350.145 288.784 348.653 281.244C347.161 273.705 348.222 264.696 348.222 262.887C348.222 261.078 352.797 249.795 352.797 249.795L368.845 253.479Z" fill="black"/>
<path d="M371.332 241.664L376.356 243.141C376.356 243.141 378.652 251.02 378.652 255.229C378.652 259.438 381.852 259.852 381.852 259.852C381.852 259.852 385.358 263.544 383.509 266.232C381.661 268.92 380.923 275.61 380.923 275.61C380.923 275.61 381.528 288.378 378.785 290.142C376.041 291.907 375.427 296.124 375.427 296.124C375.427 296.124 370.396 304.136 370.553 306.041C370.711 307.946 363.532 320.846 363.532 320.846C363.532 320.846 367.047 304.815 346.605 297.889C346.605 297.889 346.456 292.446 347.981 290.955C349.507 289.463 351.886 288.784 350.394 281.244C348.902 273.705 349.963 264.696 349.963 262.887C349.963 261.078 354.538 249.795 354.538 249.795L371.332 241.664Z" fill="white"/>
<path opacity="0.1" d="M260.38 509.619C260.38 509.619 268.388 505.137 273.643 508.393C278.898 511.65 260.38 509.619 260.38 509.619Z" fill="black"/>
<path opacity="0.1" d="M322.6 495.759C322.6 495.759 329.687 494.946 335.639 500.655C341.59 506.363 322.6 495.759 322.6 495.759Z" fill="black"/>
<g opacity="0.1">
<path opacity="0.1" d="M332.97 138.646C331.95 139.429 330.64 139.99 329.961 141.031C329.38 141.925 329.364 143.025 328.9 143.985C328.435 144.945 327.084 145.727 326.147 145.122C325.932 138.476 322.251 132.236 317.734 126.92C316.471 125.315 314.936 123.895 313.183 122.711C311.409 121.522 309.201 120.967 306.991 121.152C304.504 121.455 302.316 122.962 299.804 123.146C296.488 123.397 293.512 121.352 290.222 121.248C288.884 121.26 287.565 121.527 286.353 122.03C285.141 122.533 284.063 123.261 283.192 124.165C281.462 125.983 280.177 128.104 279.421 130.39C278.118 133.86 277.408 137.484 277.315 141.142C277.265 143.202 277.05 145.772 274.911 146.54C274.961 147.085 274.961 147.634 274.911 148.179C277.067 147.441 277.282 144.841 277.332 142.774C277.424 139.116 278.134 135.492 279.437 132.022C280.194 129.733 281.478 127.611 283.209 125.79C284.081 124.888 285.16 124.162 286.372 123.66C287.584 123.159 288.902 122.893 290.238 122.88C293.554 122.984 296.538 125.022 299.821 124.778C302.307 124.594 304.512 123.08 307.007 122.784C309.217 122.599 311.425 123.154 313.2 124.342C314.952 125.527 316.487 126.947 317.75 128.552C322.268 133.861 325.949 140.086 326.164 146.747C327.101 147.359 328.452 146.562 328.916 145.617C329.38 144.672 329.397 143.564 329.977 142.663C330.657 141.622 331.967 141.068 332.986 140.285C335.572 138.299 336.219 134.954 336.119 131.919C336.119 131.823 336.119 131.727 336.119 131.638C335.962 134.267 335.174 136.948 332.97 138.646Z" fill="black"/>
<path opacity="0.1" d="M271.778 138.122C269.872 136.253 267.269 135.005 265.52 133.026C264.047 131.275 263.206 129.166 263.108 126.979C262.847 129.712 263.703 132.436 265.52 134.651C267.269 136.637 269.872 137.885 271.778 139.754C273.609 141.581 274.708 143.897 274.903 146.34C275.03 144.854 274.819 143.359 274.282 141.947C273.745 140.535 272.893 139.234 271.778 138.122Z" fill="black"/>
<path opacity="0.1" d="M337.736 115.828C337.247 117.637 336.377 119.358 335.979 121.182C335.743 122.401 335.657 123.639 335.722 124.874C335.75 124.17 335.835 123.469 335.979 122.777C336.377 120.946 337.247 119.232 337.736 117.423C338.021 116.425 338.113 115.392 338.009 114.366C337.958 114.859 337.867 115.347 337.736 115.828Z" fill="black"/>
</g>
<path opacity="0.1" d="M111.024 539.644C155.632 539.644 191.794 534.47 191.794 528.087C191.794 521.705 155.632 516.531 111.024 516.531C66.415 516.531 30.2527 521.705 30.2527 528.087C30.2527 534.47 66.415 539.644 111.024 539.644Z" fill="#EA4848"/>
<path d="M113.627 306.706H108.43V410.95H113.627V306.706Z" fill="#535461"/>
<path d="M146.286 410.632L145.963 415.329L145.499 421.975L145.308 424.736L144.852 431.382L144.653 434.144L144.189 440.79L138.95 516.162C138.723 519.404 137.116 522.448 134.458 524.673C131.8 526.898 128.291 528.138 124.643 528.139H97.4045C93.7579 528.138 90.249 526.898 87.5923 524.673C84.9357 522.448 83.3311 519.404 83.1055 516.162L77.8915 440.738L77.4273 434.092L77.2367 431.331L76.7725 424.685L76.5818 421.923L76.1176 415.277L75.786 410.581C75.7284 409.677 75.8788 408.772 76.2278 407.922C76.5769 407.071 77.1173 406.293 77.8158 405.636C78.5144 404.978 79.3565 404.455 80.2903 404.098C81.2241 403.74 82.2301 403.557 83.2464 403.558H138.959C139.971 403.566 140.971 403.758 141.897 404.124C142.823 404.489 143.654 405.02 144.341 405.683C145.028 406.345 145.555 407.127 145.889 407.978C146.224 408.829 146.359 409.733 146.286 410.632Z" fill="#3F3D56"/>
<path d="M145.963 415.329L145.499 421.953H76.5487L76.0845 415.329H145.963Z" fill="#9D9CB5"/>
<path d="M145.308 424.714L144.853 431.345H77.2036L76.7394 424.714H145.308Z" fill="#9D9CB5"/>
<path d="M144.654 434.115L144.198 440.738H77.8584L77.3942 434.115H144.654Z" fill="#9D9CB5"/>
<path d="M68.1515 345.776C98.4158 365.285 111.049 395.797 111.049 395.797C111.049 395.797 74.5758 394.682 44.3032 375.173C14.0307 355.663 1.42273 325.159 1.42273 325.159C1.42273 325.159 37.879 326.266 68.1515 345.776Z" fill="#EA4848"/>
<path d="M1.39795 325.159C1.39795 325.159 39.2634 343.878 51.4073 359.378C63.5511 374.877 111.049 395.797 111.049 395.797" stroke="#535461" stroke-width="2" stroke-miterlimit="10"/>
<path d="M87.6895 306.476C104.16 317.088 111.049 333.695 111.049 333.695C111.049 333.695 91.1959 333.09 74.7168 322.478C58.2377 311.867 51.3658 295.252 51.3658 295.252C51.3658 295.252 71.2104 295.858 87.6895 306.476Z" fill="#EA4848"/>
<path d="M51.3658 295.252C51.3658 295.252 71.973 305.443 78.5796 313.876C85.1862 322.308 111.049 333.695 111.049 333.695" stroke="#535461" stroke-width="2" stroke-miterlimit="10"/>
<path d="M134.963 332.853C116.039 351.381 112.035 375.594 112.035 375.594C112.035 375.594 138.718 369.76 157.626 351.226C176.534 332.691 180.554 308.485 180.554 308.485C180.554 308.485 153.888 314.326 134.963 332.853Z" fill="#EA4848"/>
<path d="M180.571 308.492C180.571 308.492 155.918 327.485 149.652 340.57C143.385 353.655 112.035 375.594 112.035 375.594" stroke="#535461" stroke-width="2" stroke-miterlimit="10"/>
<path d="M829.656 326.333C829.656 326.333 815.97 265.678 821.209 258.131C821.209 258.131 821.4 251.116 821.085 242.174C821.085 241.834 821.085 241.494 821.085 241.147C822.006 241.695 822.967 242.188 823.961 242.624C828.788 244.833 834.33 245.471 839.628 244.426L835.483 240.313C834.489 239.331 833.452 238.268 833.237 236.968C833.021 235.668 833.618 234.509 834.132 233.35C838.07 224.488 838.277 213.345 830.692 206.581C824.284 200.896 822.726 193.556 815.771 188.364C810.69 184.561 807.896 178.986 805.26 173.596C803.031 169.04 800.784 164.447 799.508 159.617C798.513 155.844 798.115 151.938 796.747 148.253C795.38 144.568 792.818 140.987 788.815 139.34C787.389 138.756 785.806 138.424 784.504 137.649C782.797 136.622 781.769 134.954 780.534 133.491C774.259 126.107 753.245 130.457 743.298 133.455C740.594 134.21 738.09 135.446 735.937 137.088L736.028 136.955C736.103 136.844 736.194 136.733 736.277 136.622C735.188 137.407 734.248 138.342 733.492 139.392C732.041 141.437 731.436 143.822 730.226 146.037C728.767 148.659 720.652 155.977 724.142 158.923C724.386 159.121 724.666 159.281 724.97 159.396C726.281 159.881 727.723 160.01 729.115 159.765L728.966 160.082C727.774 162.682 727.163 165.464 727.167 168.272C727.167 180.404 738.399 190.24 752.267 190.24C754.874 190.242 757.466 189.886 759.951 189.184C760.009 189.465 760.059 189.745 760.117 190.026C760.117 190.137 760.159 190.247 760.175 190.358L759.736 190.905C759.714 190.871 759.689 190.839 759.661 190.809L746.647 207.01C744.658 208.258 733.202 215.642 732.555 221.18C731.875 227.243 731.196 234.339 731.196 234.339L731.105 235.86C730.536 236.284 729.871 236.592 729.155 236.764C728.439 236.936 727.691 236.968 726.96 236.857C722.898 236.266 722.898 250.149 722.898 250.149C722.898 250.149 720.196 252.364 718.339 250.444C716.482 248.524 711.575 255.03 711.575 255.03L680.822 256.211L680.117 256.248L678.459 251.677C678.281 251.195 677.896 250.795 677.389 250.564C676.881 250.334 676.292 250.29 675.749 250.444C675.62 250.482 675.495 250.529 675.376 250.585L675.26 250.644L675.044 250.777L674.936 250.865C674.877 250.913 674.821 250.965 674.77 251.02L674.671 251.124L674.621 251.168C674.43 251.404 674.303 251.676 674.251 251.963C674.199 252.251 674.224 252.545 674.323 252.822L675.749 256.743C669.813 257.806 663.746 260.804 668.694 269.06L643.611 264.932L651.726 271.002L693.62 278.704C693.065 279.59 693.43 280.875 695.162 282.684C702.622 290.489 716.217 292.609 721.688 293.155C723.133 296.034 724.937 298.759 727.068 301.278L726.595 309.054C726.595 309.054 712.744 368.32 710.207 371.326C711.488 370.033 712.66 368.658 713.714 367.213C709.693 379.389 704.073 396.056 702.598 398.552C700.227 402.539 698.03 418.674 700.733 419.708C701.561 420.025 703.932 419.87 707.314 419.641V420.978L707.165 471.627C707.165 471.627 707.845 502.693 705.98 505.654C704.115 508.615 703.617 514.825 703.617 514.825C703.617 514.825 696.157 527.076 690.247 532.001C690.206 532.039 690.162 532.074 690.114 532.104L689.932 530.952C689.932 530.952 682.828 538.942 667.111 538.492C667.111 538.492 657.653 543.971 671.679 544.266C685.704 544.562 703.617 543.823 703.617 543.823C703.617 543.823 716.126 526.839 726.603 529.055V541.925H729.811V528.848C731.299 527.975 732.572 526.843 733.554 525.519C734.536 524.195 735.206 522.707 735.523 521.146C735.797 519.537 735.596 517.891 734.939 516.372C734.282 514.853 733.192 513.513 731.776 512.484C731.14 511.972 730.63 511.348 730.277 510.652C729.925 509.955 729.738 509.201 729.728 508.438L729.612 508.526C729.612 508.268 729.538 508.002 729.505 507.729C728.585 501.083 727.432 487.37 731.502 477.224C737.081 463.312 738.772 443.936 734.71 432.401C733.4 428.714 732.323 424.965 731.486 421.17C731.386 420.69 731.295 420.232 731.212 419.804C733.989 420.138 736.738 420.632 739.444 421.28C748.852 423.592 769.434 424.02 787.008 423.895C787.049 424.323 787.099 424.773 787.157 425.224C787.47 428.355 788.125 431.451 789.113 434.469C791.318 440.376 792.329 466.421 792.329 466.421C792.329 466.421 795.172 487.835 793.622 496.549C792.793 501.393 791.964 506.259 791.492 511.148V511.244C791.492 511.244 786.833 523.059 783.427 529.475C783.344 529.638 783.252 529.8 783.17 529.955C782.261 530.029 781.367 530.205 780.509 530.48C780.509 530.48 775.941 538.602 771.39 539.946C766.84 541.29 768.348 545.714 778.652 544.089C788.955 542.464 804.514 541.135 804.514 541.135L805.186 532.85L808.352 529.32L807.524 537.583L810.897 536.993L810.45 526.943L815.63 521.168C815.63 521.168 821.889 516.206 812.588 506.444V506.658C812.489 506.518 812.398 506.37 812.29 506.23V506.185C810.748 504.059 809.521 500.093 811.768 493.056C815.829 480.34 818.192 468.799 818.192 468.799C818.192 468.799 827.26 437.88 816.36 423.252H816.841C815.724 421.194 814.934 419.007 814.495 416.754C814.44 416.488 814.39 416.215 814.346 415.934C822.411 415.521 830.327 414.221 836.785 411.415C836.76 411.385 832.872 338.015 829.656 326.333ZM727.258 275.16V275.307L725.6 275.381L727.258 275.16ZM721.572 275.861C721.299 275.915 721.044 276.024 720.826 276.179C720.113 277.077 719.666 278.121 719.524 279.214L716.938 278.697C716.938 278.697 715.123 278.35 712.512 277.958L711.277 276.851C714.675 276.6 718.206 276.23 721.572 275.861Z" fill="url(#paint1_linear)"/>
<path d="M807.142 527.046L806.156 537.51L809.463 536.919L808.966 525.569L807.142 527.046Z" fill="#1D2366"/>
<path d="M731.685 477.364C727.697 487.481 728.825 501.134 729.72 507.766C730.052 510.217 730.358 511.709 730.358 511.709C730.358 511.709 724.398 523.804 723.901 524.262C723.404 524.72 706.361 533.987 706.361 533.987L694.449 540.183C694.449 540.183 682.363 535.464 688.157 533.84C689.341 533.416 690.408 532.769 691.282 531.942C697.085 527.031 704.371 514.825 704.371 514.825C704.371 514.825 704.869 508.63 706.692 505.683C708.516 502.737 707.853 471.774 707.853 471.774L707.994 421.303V414.723L730.665 414.871C730.808 417.104 731.135 419.326 731.643 421.517C732.457 425.299 733.511 429.036 734.801 432.711C738.797 444.224 737.139 463.504 731.685 477.364Z" fill="#FFB0B1"/>
<path opacity="0.1" d="M730.358 511.709C730.358 511.709 724.398 523.804 723.901 524.262C723.404 524.72 706.361 533.987 706.361 533.987L694.449 540.183C694.449 540.183 682.363 535.464 688.157 533.84C689.341 533.417 690.408 532.769 691.282 531.942L691.796 535.169L695.767 535.021L729.753 507.781C730.052 510.217 730.358 511.709 730.358 511.709Z" fill="black"/>
<path d="M729.944 508.467L695.767 535.893L691.797 536.04L690.968 530.871C690.968 530.871 684.021 538.832 668.587 538.388C668.587 538.388 659.319 543.845 673.055 544.141C686.79 544.436 704.33 543.698 704.33 543.698C704.33 543.698 716.582 526.714 726.835 528.929V541.756H729.985V528.811C731.45 527.933 732.7 526.8 733.66 525.48C734.62 524.16 735.271 522.681 735.572 521.131C735.845 519.535 735.652 517.903 735.012 516.393C734.372 514.882 733.306 513.544 731.917 512.506C731.296 511.988 730.801 511.363 730.462 510.668C730.123 509.974 729.947 509.225 729.944 508.467Z" fill="#1D2366"/>
<path d="M810.292 493.137C808.087 500.152 809.289 504.103 810.797 506.222V506.267C812.732 508.883 814.078 511.81 814.76 514.884L814.892 515.549L799.342 535.745L790.903 538.699C790.903 538.699 777.334 534.571 779.812 533.389C780.434 533.101 781.404 531.565 782.514 529.446C785.83 523.059 790.406 511.273 790.406 511.273V511.177C790.886 506.311 791.649 501.459 792.495 496.63C794.012 487.939 791.226 466.606 791.226 466.606C791.226 466.606 790.232 440.664 788.076 434.764C787.103 431.765 786.457 428.688 786.145 425.578C785.697 421.886 785.598 418.844 785.598 418.844C785.598 418.844 794.534 407.767 810.913 419.73C812.223 420.684 813.376 421.798 814.337 423.038C825.652 437.378 816.542 468.969 816.542 468.969C816.542 468.969 814.262 480.458 810.292 493.137Z" fill="#FFB0B1"/>
<path opacity="0.1" d="M814.918 515.549L799.367 535.745L790.928 538.699C790.928 538.699 777.359 534.571 779.837 533.389C780.459 533.101 781.429 531.565 782.54 529.446C788.284 529.402 791.26 534.275 791.26 534.275L798.538 533.242C798.538 533.242 808.137 516.435 810.292 515.408C812.447 514.382 810.624 507.736 810.624 507.736V506.045C810.682 506.104 810.732 506.171 810.798 506.23V506.274C812.733 508.891 814.078 511.817 814.76 514.892L814.918 515.549Z" fill="black"/>
<path d="M791.757 534.711C791.757 534.711 787.612 527.932 779.671 530.436C779.671 530.436 775.203 538.558 770.735 539.873C766.267 541.187 767.759 545.618 777.856 544C787.952 542.383 803.171 541.047 803.171 541.047L803.834 532.784L814.097 521.139C814.097 521.139 820.214 516.199 811.112 506.474V508.165C811.112 508.165 812.936 514.81 810.781 515.837C808.626 516.863 799.06 533.677 799.06 533.677L791.757 534.711Z" fill="#1D2366"/>
<path opacity="0.1" d="M730.69 414.856C730.833 417.09 731.16 419.311 731.668 421.502C722.334 420.284 713.672 420.889 707.994 421.288V414.708L730.69 414.856Z" fill="black"/>
<path opacity="0.1" d="M815.257 424.877C815.257 424.877 801.994 425.453 786.178 425.571C785.731 421.879 785.631 418.836 785.631 418.836C785.631 418.836 794.567 407.76 810.946 419.722C812.256 420.677 813.409 421.79 814.37 423.031C814.627 423.66 814.923 424.276 815.257 424.877Z" fill="black"/>
<path d="M815.257 423.548C815.257 423.548 757.166 426.051 739.46 421.628C721.754 417.204 704.206 421.037 701.561 420.011C698.917 418.984 701.064 402.908 703.385 398.928C705.706 394.948 718.438 354.696 718.438 354.696L730.69 297.793L743.596 294.625L744.508 294.396L766.997 288.872L783.476 284.818C783.476 284.818 816.244 398.781 813.434 407.184C812.413 410.402 812.249 413.787 812.953 417.072C813.382 419.315 814.158 421.494 815.257 423.548Z" fill="#1D2366"/>
<path d="M687.983 258.877C687.983 258.877 676.378 269.954 685.165 276.127C693.952 282.3 699.729 276.718 699.729 276.718L687.983 258.877Z" fill="#C7DAF5"/>
<path opacity="0.1" d="M687.983 258.877C687.983 258.877 676.378 269.954 685.165 276.127C693.952 282.3 699.729 276.718 699.729 276.718L687.983 258.877Z" fill="black"/>
<path d="M781.744 186.053C781.744 186.053 780.384 187.205 778.337 188.903C775.419 191.333 771.1 194.885 767.271 197.861C761.966 201.974 757.589 204.994 759.156 202.417C760.722 199.84 760.424 195.35 759.645 191.148C759.587 190.868 759.537 190.587 759.479 190.314C758.834 187.228 757.978 184.18 756.917 181.187C756.917 181.187 765.489 171.321 770.23 167.43C771.996 165.953 773.231 165.348 773.305 166.374C773.388 167.755 774.549 170.805 775.991 174.039C776.033 174.142 776.074 174.238 776.124 174.342C777.085 176.557 778.171 178.831 779.124 180.796C780.583 183.808 781.744 186.053 781.744 186.053Z" fill="#FFB0B1"/>
<path opacity="0.1" d="M776.124 174.342C775.318 178.201 773.364 181.797 770.465 184.753C767.566 187.71 763.829 189.918 759.645 191.148C758.986 187.777 758.074 184.45 756.917 181.187C756.917 181.187 773.057 162.615 773.305 166.374C773.363 167.799 774.623 170.96 776.124 174.342Z" fill="black"/>
<path opacity="0.1" d="M758.036 196.111L760.125 193.489C760.125 193.489 761.509 201.006 766.599 197.691C771.689 194.375 771.937 222.642 771.937 222.642L766.475 295.4L727.001 293.296L728.12 258.139L732.588 240.416L743.638 214.653L750.211 206.138L758.036 196.111Z" fill="black"/>
<path d="M771.938 223.093L766.964 288.88L766.442 295.85L744.434 294.676L743.605 294.632L727.026 293.746L728.145 258.582L732.613 240.859L743.663 215.096L750.236 206.581L758.061 196.517L760.15 193.903C760.15 193.903 761.534 201.42 766.624 198.104L766.732 198.038C771.705 195.232 771.938 223.093 771.938 223.093Z" fill="#1D2366"/>
<path d="M733.168 234.701C733.168 234.701 731.187 238.393 727.208 237.795C723.23 237.197 723.238 251.087 723.238 251.087C723.238 251.087 720.594 253.302 718.77 251.382C716.946 249.462 712.138 255.953 712.138 255.953L682.015 257.135C682.015 257.135 695.419 262.592 692.791 279.103C692.791 279.103 738.299 276.592 739.792 272.76C741.284 268.927 733.168 234.701 733.168 234.701Z" fill="white"/>
<path opacity="0.03" d="M733.168 234.701C733.168 234.701 731.187 238.393 727.208 237.795C723.23 237.197 723.238 251.087 723.238 251.087C723.238 251.087 720.594 253.302 718.77 251.382C716.946 249.462 712.138 255.953 712.138 255.953L682.015 257.135C682.015 257.135 695.419 262.592 692.791 279.103C692.791 279.103 738.299 276.592 739.792 272.76C741.284 268.927 733.168 234.701 733.168 234.701Z" fill="black"/>
<path d="M645.625 265.811L653.566 271.851L718.936 284.087L710.829 276.718L645.625 265.811Z" fill="white"/>
<path d="M758.161 198.437C757.075 199.913 753.966 207.475 751.372 214.077C749.208 219.578 747.401 224.415 747.401 224.415C747.401 224.415 743.182 248.886 741.027 253.309C738.871 257.733 740.04 274.982 740.04 274.982L732.008 317.582C732.008 317.582 728.369 339.551 722.749 352.673C717.203 365.588 711.028 371.643 710.837 371.835C713.324 368.837 726.877 309.807 726.877 309.807L731.353 235.358C731.353 235.358 732.008 228.284 732.671 222.236C733.334 216.188 746.763 207.933 746.763 207.933L759.711 191.532C761.012 193.083 760.142 195.786 758.161 198.437Z" fill="white"/>
<path d="M724.398 294.115C724.398 294.115 705.333 293.377 696.099 283.497C686.864 273.616 717.444 279.553 717.444 279.553L725.393 281.178L724.398 294.115Z" fill="#FFB0B1"/>
<path opacity="0.1" d="M813.433 407.191C812.413 410.409 812.248 413.794 812.953 417.079C792.155 418.393 769.906 413.387 769.906 413.387C765.762 416.783 754.845 421.79 754.845 421.79L748.893 356.07C745.088 347.208 743.596 300.783 743.596 300.783C743.596 300.783 743.936 298.354 744.425 294.713C744.425 294.625 744.425 294.529 744.467 294.44C745.95 284.272 748.893 265.183 750.335 262.606C752.325 259.062 744.218 249.632 744.218 249.632L747.907 221.609L748.354 218.227C756.13 215.133 762.09 205.252 762.09 205.252L766.665 198.112C771.639 195.269 771.896 223.13 771.896 223.13L766.922 288.917L783.401 284.863C783.401 284.863 816.243 398.788 813.433 407.191Z" fill="black"/>
<path d="M834.779 411.733C812.107 421.761 770.901 412.471 770.901 412.471C766.757 415.868 755.839 420.874 755.839 420.874L749.879 355.154C746.083 346.293 744.591 299.868 744.591 299.868C744.591 299.868 749.382 265.228 751.372 261.691C751.952 260.657 751.67 259.121 750.982 257.467C747.599 249.594 746.355 241.12 747.351 232.737L748.943 220.693L749.382 217.318C757.166 214.217 763.126 204.337 763.126 204.337L767.27 197.868L774.897 185.95L778.511 180.308L779.124 180.803L783.808 184.584C783.808 184.584 785.797 186.06 788.781 188.276C795.272 193.149 806.487 201.73 812.273 206.98C817.363 211.603 818.971 229.584 819.435 243.119C819.742 252.032 819.559 259.018 819.559 259.018C814.428 266.542 827.849 326.953 827.849 326.953C830.974 338.628 834.779 411.733 834.779 411.733Z" fill="white"/>
<path opacity="0.03" d="M791.26 204.189C791.26 204.189 775.701 230.573 777.508 240.601C779.315 250.629 784.454 261.979 781.976 264.63C781.124 265.634 780.023 266.449 778.759 267.012C777.495 267.574 776.102 267.868 774.689 267.871C772.203 268.019 765.571 272.147 765.571 272.59C765.571 273.033 759.445 273.033 753.966 275.101C748.487 277.168 740.397 278.342 740.397 278.342C740.397 278.342 724.647 277.899 723.18 279.228C721.713 280.558 720.204 288.511 723.346 294.854C726.487 301.197 729.977 305.93 732.613 306.794C735.249 307.658 751.977 302.666 765.546 301.485C779.116 300.303 793.846 290.726 793.846 290.726C793.846 290.726 810.068 285.557 812.911 276.865C815.755 268.174 809.438 220.405 809.438 220.405C809.438 220.405 804.664 198.141 791.26 204.189Z" fill="black"/>
<path opacity="0.03" d="M789.27 201.974C789.27 201.974 773.711 228.365 775.535 238.386C777.359 248.406 782.481 259.763 779.995 262.422C779.146 263.427 778.047 264.243 776.784 264.806C775.521 265.368 774.129 265.662 772.717 265.663C770.23 265.811 763.598 269.939 763.598 270.382C763.598 270.825 757.473 270.825 751.993 272.885C746.514 274.945 738.424 276.127 738.424 276.127C738.424 276.127 722.674 275.684 721.215 277.013C719.756 278.342 718.231 286.303 721.381 292.638C724.531 298.974 728.012 303.715 730.648 304.579C733.284 305.443 750.012 300.451 763.582 299.277C777.151 298.103 791.882 288.51 791.882 288.51C791.882 288.51 808.095 283.341 810.906 274.657C813.716 265.973 807.432 218.19 807.432 218.19C807.432 218.19 802.674 195.933 789.27 201.974Z" fill="black"/>
<path d="M790.771 202.86C790.771 202.86 775.211 229.251 777.035 239.272C778.859 249.292 783.982 260.649 781.503 263.3C780.655 264.308 779.555 265.126 778.29 265.69C777.025 266.254 775.631 266.548 774.217 266.549C771.73 266.697 765.099 270.825 765.099 271.261C765.099 271.696 758.981 271.704 753.494 273.771C748.006 275.839 739.924 277.013 739.924 277.013C739.924 277.013 724.174 276.57 722.707 277.899C721.24 279.228 719.731 287.189 722.873 293.524C726.015 299.86 729.504 304.601 732.14 305.465C734.776 306.329 751.504 301.337 765.074 300.155C778.643 298.974 793.373 289.397 793.373 289.397C793.373 289.397 809.596 284.228 812.439 275.536C815.282 266.845 809.007 219.076 809.007 219.076C809.007 219.076 804.166 196.849 790.771 202.86Z" fill="white"/>
<path opacity="0.1" d="M790.431 273.646C790.431 273.646 777.997 271.431 782.324 275.123C786.651 278.815 786.626 282.049 791.923 281.902C797.22 281.754 790.431 273.646 790.431 273.646Z" fill="black"/>
<path opacity="0.1" d="M811.444 353.086C811.444 353.086 805.824 356.476 816.575 364.288C827.326 372.101 811.444 353.086 811.444 353.086Z" fill="black"/>
<path opacity="0.1" d="M800.718 380.947C800.718 381.39 798.728 397.193 806.172 401.143C813.615 405.094 800.718 380.947 800.718 380.947Z" fill="black"/>
<path d="M682.529 257.098C676.527 257.282 663.563 258.914 670.286 270.087C676.229 279.974 686.218 273.365 691.838 268.351C690.467 263.677 687.135 259.649 682.529 257.098Z" fill="#FFB0B1"/>
<path d="M691.912 268.263L692.161 268.034L691.912 268.263Z" fill="#FFB0B1"/>
<path opacity="0.1" d="M788.781 188.726C782.415 192.603 777.077 195.874 776.032 196.554C773.181 198.437 767.743 209.491 764.237 215.133C761.443 219.674 752.366 220.841 748.943 221.129L749.382 217.754C757.166 214.653 763.126 204.772 763.126 204.772L778.511 180.744L783.808 185.034C783.808 185.034 785.797 186.511 788.781 188.726Z" fill="black"/>
<path d="M788.781 188.283C782.415 192.16 777.077 195.431 776.032 196.118C773.181 197.994 767.743 209.048 764.237 214.69C761.443 219.231 752.366 220.398 748.943 220.686L749.382 217.311C757.166 214.21 763.126 204.329 763.126 204.329L778.511 180.301L783.808 184.576C783.808 184.576 785.797 186.038 788.781 188.283Z" fill="#DCE7FF"/>
<path d="M776.529 169.468C776.533 173.901 775.024 178.23 772.202 181.881C768.87 186.198 763.911 189.308 758.225 190.647C752.539 191.985 746.503 191.464 741.211 189.177C735.92 186.89 731.724 182.989 729.385 178.182C727.046 173.375 726.719 167.98 728.464 162.977C730.208 157.973 733.907 153.692 738.892 150.911C743.876 148.13 749.814 147.032 755.629 147.817C761.443 148.603 766.75 151.219 770.584 155.191C774.419 159.163 776.528 164.229 776.529 169.468Z" fill="#FFB0B1"/>
<path opacity="0.1" d="M819.435 243.126C816.069 241.282 813.327 238.658 811.502 235.535C810.118 233.099 809.198 230.285 806.835 228.557C804.705 227.006 801.862 226.63 799.209 225.936C790.489 223.639 783.178 216.55 782.904 208.457C782.771 204.647 784.106 200.844 783.501 197.07C783.157 194.935 782.204 192.914 780.732 191.2C780.002 190.38 779.201 189.612 778.337 188.903C777.176 187.929 775.958 186.983 774.896 185.95C774.228 185.31 773.644 184.603 773.156 183.845C772.762 183.225 772.442 182.569 772.202 181.888C770.545 177.369 772.053 172.008 770.23 167.437L770.13 167.186C769.442 165.562 768.041 163.937 766.093 163.812C764.145 163.686 762.479 165.126 760.622 165.768C756.735 167.112 752.54 164.823 749.299 162.49C746.058 160.156 742.402 157.491 738.283 158.007C735.555 158.354 733.4 160.009 730.889 160.865C730.322 161.061 729.736 161.211 729.14 161.316C731.265 156.593 735.17 152.678 740.185 150.242C745.199 147.806 751.008 147.002 756.616 147.968C762.223 148.933 767.278 151.608 770.912 155.533C774.546 159.458 776.532 164.388 776.53 169.475C776.532 171.012 776.352 172.544 775.991 174.046C776.032 174.15 776.074 174.246 776.123 174.349C777.085 176.564 778.171 178.839 779.124 180.803L783.807 184.584C783.807 184.584 785.797 186.06 788.781 188.276C795.272 193.149 806.487 201.73 812.273 206.98C817.363 211.618 818.954 229.591 819.435 243.126Z" fill="black"/>
<path d="M730.599 147.374C731.784 145.225 732.373 142.818 733.79 140.78C735.871 137.826 739.501 135.936 743.232 134.791C752.972 131.801 773.554 127.459 779.704 134.791C780.915 136.268 781.918 137.907 783.592 138.926C784.869 139.702 786.41 140.034 787.811 140.617C791.732 142.257 794.236 145.831 795.57 149.479C796.905 153.126 797.303 157.04 798.281 160.799C799.532 165.621 801.729 170.192 803.917 174.733C806.495 180.094 809.231 185.654 814.204 189.443C820.993 194.612 822.494 201.929 828.794 207.601C836.254 214.335 836.014 225.448 832.167 234.273C831.662 235.432 831.09 236.643 831.289 237.876C831.488 239.109 832.516 240.232 833.485 241.214L837.564 245.312C827.915 247.387 816.998 242.898 812.505 235.019C811.121 232.582 810.201 229.776 807.83 228.04C805.708 226.49 802.856 226.12 800.212 225.426C791.492 223.122 784.181 216.026 783.907 207.933C783.774 204.13 785.109 200.327 784.504 196.561C784.167 194.411 783.21 192.376 781.727 190.654C779.448 188.003 776.007 186.223 774.151 183.269C771.009 178.329 773.396 171.912 771.133 166.61C770.437 164.986 769.044 163.361 767.096 163.236C765.148 163.11 763.482 164.55 761.617 165.192C757.738 166.536 753.543 164.255 750.302 161.914C747.061 159.573 743.406 156.915 739.278 157.439C736.55 157.779 734.403 159.433 731.892 160.297C730.035 160.932 726.272 161.5 724.647 160.105C721.215 157.291 729.165 150.003 730.599 147.374Z" fill="#591D4B"/>
<path opacity="0.1" d="M814.81 232.582C813.417 230.145 812.505 227.339 810.135 225.611C808.013 224.06 805.161 223.684 802.508 222.989C793.796 220.693 786.485 213.597 786.203 205.503C786.071 201.7 787.405 197.89 786.809 194.124C786.461 191.988 785.505 189.967 784.032 188.254C781.744 185.603 778.304 183.823 776.455 180.869C773.314 175.937 775.701 169.52 773.43 164.21C772.742 162.593 771.341 160.969 769.401 160.836C767.461 160.703 765.779 162.157 763.922 162.8C760.042 164.144 755.84 161.855 752.607 159.521C749.374 157.188 745.702 154.522 741.582 155.039C738.855 155.386 736.7 157.04 734.196 157.897C732.34 158.532 728.568 159.108 726.943 157.712C723.528 154.758 731.478 147.485 732.903 144.871C734.089 142.714 734.677 140.315 736.103 138.276C736.178 138.166 736.26 138.055 736.343 137.944C735.277 138.731 734.356 139.663 733.616 140.706C732.199 142.744 731.61 145.137 730.425 147.3C728.991 149.914 721.041 157.21 724.465 160.141C726.123 161.544 729.853 160.969 731.71 160.333C734.196 159.469 736.368 157.815 739.095 157.476C743.24 156.951 746.887 159.617 750.12 161.951C753.353 164.284 757.581 166.573 761.443 165.229C763.3 164.587 764.925 163.14 766.914 163.272C768.904 163.405 770.23 165.023 770.951 166.647C773.214 171.949 770.827 178.366 773.968 183.306C775.825 186.208 779.265 188.025 781.545 190.69C783.028 192.413 783.985 194.448 784.322 196.598C784.927 200.364 783.592 204.167 783.725 207.97C783.999 216.092 791.31 223.159 800.03 225.463C802.658 226.157 805.526 226.527 807.648 228.077C810.027 229.813 810.964 232.619 812.323 235.055C816.816 242.934 827.733 247.424 837.382 245.349L835.459 243.414C827.095 243.525 818.631 239.287 814.81 232.582Z" fill="black"/>
<path opacity="0.1" d="M757.663 198.88C756.577 200.357 753.469 207.918 750.874 214.52C748.445 213.678 746.24 208.309 746.24 208.309L759.188 191.901C760.514 193.526 759.644 196.221 757.663 198.88Z" fill="black"/>
<path d="M758.161 198.437C757.075 199.913 753.966 207.475 751.372 214.076C748.943 213.242 746.738 207.866 746.738 207.866L759.686 191.466C761.012 193.083 760.142 195.786 758.161 198.437Z" fill="#DCE7FF"/>
<path d="M682.877 273.875L675.699 253.708C675.614 253.472 675.582 253.223 675.605 252.976C675.628 252.729 675.706 252.489 675.834 252.268C675.962 252.048 676.137 251.853 676.35 251.693C676.563 251.533 676.809 251.413 677.075 251.338C677.609 251.189 678.187 251.235 678.684 251.464C679.181 251.694 679.556 252.089 679.727 252.564L686.906 272.708L686.193 276.925L682.877 273.875Z" fill="#BE8B87"/>
<path opacity="0.1" d="M676.378 251.936C676.914 251.785 677.494 251.829 677.993 252.059C678.492 252.289 678.868 252.685 679.039 253.162L686.218 273.306L685.679 276.467L686.201 276.954L686.914 272.738L679.694 252.593C679.523 252.119 679.148 251.723 678.651 251.494C678.154 251.264 677.576 251.219 677.042 251.367C676.592 251.497 676.204 251.757 675.939 252.106C676.08 252.038 676.227 251.982 676.378 251.936Z" fill="white"/>
<path d="M682.877 273.875L686.906 272.738L686.317 276.193L686.193 276.954L685.016 275.861L682.877 273.875Z" fill="#EFC8C4"/>
<path d="M685.016 275.861C685.086 275.782 685.173 275.717 685.273 275.669C685.331 275.636 685.399 275.619 685.468 275.619C685.537 275.619 685.604 275.636 685.662 275.669C685.719 275.73 685.766 275.797 685.803 275.868C685.858 275.95 685.933 276.019 686.022 276.072C686.111 276.124 686.212 276.158 686.317 276.171L686.193 276.91L685.016 275.861Z" fill="#727A9C"/>
<path d="M675.657 260.871C675.657 260.871 690.055 260.797 686.665 266.254C683.275 271.711 677.978 272.368 677.978 272.368L675.657 260.871Z" fill="#FFB0B1"/>
<defs>
<linearGradient id="paint0_linear" x1="296.372" y1="550.188" x2="296.372" y2="95.802" gradientUnits="userSpaceOnUse">
<stop stop-color="#808080" stop-opacity="0.25"/>
<stop offset="0.54" stop-color="#808080" stop-opacity="0.12"/>
<stop offset="1" stop-color="#808080" stop-opacity="0.1"/>
</linearGradient>
<linearGradient id="paint1_linear" x1="185031" y1="342819" x2="185031" y2="109578" gradientUnits="userSpaceOnUse">
<stop stop-color="#808080" stop-opacity="0.25"/>
<stop offset="0.54" stop-color="#808080" stop-opacity="0.12"/>
<stop offset="1" stop-color="#808080" stop-opacity="0.1"/>
</linearGradient>
</defs>
</svg>
