<svg width="502" height="371" viewBox="0 0 502 371" fill="none" xmlns="http://www.w3.org/2000/svg">
<g clip-path="url(#clip0)">
<path opacity="0.1" d="M32.8558 145.413H76.4859V204.889H36.0459C35.9427 205.504 35.8395 206.114 35.7234 206.729H76.4859V254.687C76.4171 254.687 76.3483 254.635 76.2838 254.61C75.1373 254.154 73.9908 253.671 72.8443 253.161C72.5992 253.049 72.3585 252.933 72.1091 252.825C70.9626 252.284 69.8161 251.71 68.6696 251.105C68.2698 250.895 67.8699 250.676 67.4787 250.452C61.1137 246.9 55.3288 242.397 50.3241 237.097C50.1737 236.955 50.0361 236.801 49.8942 236.667C49.1977 235.911 48.5141 235.145 47.852 234.363C47.6026 234.075 47.3619 233.782 47.1168 233.503C46.3343 232.548 45.5776 231.559 44.8467 230.566C44.7349 230.416 44.6318 230.27 44.5243 230.136C41.5302 225.993 39.0472 221.503 37.1293 216.765C37.0691 216.623 37.0133 216.468 36.9574 216.335C36.364 214.83 35.8266 213.303 35.3623 211.747C35.1645 211.098 34.971 210.457 34.8077 209.782C34.7475 209.588 34.7002 209.391 34.6486 209.197C32.2323 199.674 31.9529 189.776 31.9529 179.926C31.9529 178.779 31.9529 177.632 31.9529 176.486C31.9873 172.464 32.0346 168.447 32.0948 164.434C32.1177 163.402 32.1392 162.366 32.1593 161.325C32.2194 158.691 32.3054 156.051 32.4172 153.406C32.443 152.675 32.4774 151.939 32.5161 151.213C32.5333 150.791 32.5548 150.37 32.5806 149.949C32.658 148.427 32.7497 146.915 32.8558 145.413Z" fill="#EA4848"/>
<path opacity="0.1" d="M76.4859 79.1902H52.5513C56.4437 73.1041 60.6947 67.2549 65.2817 61.6736C68.8416 57.3052 72.5907 53.0486 76.4859 48.9468V79.1902Z" fill="#EA4848"/>
<path opacity="0.1" d="M76.4859 81.0217V143.572H32.9934C32.9934 143.392 33.0192 143.207 33.0364 143.026C33.0751 142.532 33.1138 142.042 33.1568 141.547C33.1998 140.971 33.2557 140.395 33.3116 139.827C33.3675 139.26 33.4233 138.572 33.4921 137.948C33.5609 137.325 33.6168 136.693 33.6856 136.07C33.7544 135.446 33.8232 134.823 33.9006 134.204C33.978 133.584 34.0468 132.957 34.1327 132.338C34.1972 131.826 34.2617 131.31 34.3348 130.794C34.4337 130.067 34.5369 129.341 34.6444 128.618C34.6444 128.507 34.6788 128.399 34.696 128.292C35.4817 123.004 36.5495 117.763 37.8947 112.589C39.3073 107.163 41.1106 101.847 43.2904 96.6809C45.6067 91.2683 48.3198 86.0343 51.4077 81.0217H76.4859Z" fill="#EA4848"/>
<path opacity="0.1" d="M86.9077 145.413V204.889H180.101V145.413H86.9077ZM86.9077 206.729V257.809C87.4408 257.916 87.9654 258.024 88.4942 258.114C89.2036 258.251 89.9173 258.376 90.6439 258.484L91.0738 258.544C91.3576 258.591 91.6456 258.63 91.9337 258.664C92.6517 258.767 93.3697 258.845 94.0834 258.914C94.4187 258.948 94.767 258.974 95.1066 259.004L95.9364 259.064C96.3878 259.099 96.835 259.124 97.2821 259.141C97.5573 259.141 97.8324 259.163 98.1119 259.172C98.3914 259.18 98.5418 259.172 98.7654 259.172H99.578C99.9477 259.172 100.317 259.172 100.683 259.172H101.156C101.526 259.172 101.895 259.172 102.261 259.137H102.282C102.54 259.137 102.794 259.137 103.052 259.107C103.125 259.111 103.198 259.111 103.271 259.107C103.486 259.107 103.701 259.107 103.907 259.081C103.956 259.077 104.005 259.077 104.054 259.081C104.531 259.051 105.012 259.012 105.498 258.969C105.984 258.927 106.444 258.875 106.93 258.823L107.906 258.703C111.894 258.145 115.838 257.305 119.708 256.192C128.405 253.767 136.905 250.375 145.599 247.894C156.829 244.691 169.245 243.113 180.097 247.012V206.729H86.9077ZM180.101 79.1901V0.00859047C169.899 -0.10366 159.725 1.08839 149.825 3.55576C126.226 9.48492 105.034 22.345 86.9077 38.7695V79.1858H91.5983V81.0218H86.9077V143.572H180.101V81.0218H110.786V79.1815L180.101 79.1901ZM299.83 52.4423C293.992 52.2359 288.188 50.3914 282.934 47.5321C272.899 42.0759 264.876 33.6401 255.916 26.5286C237.3 11.7078 214.212 2.76034 190.527 0.541741V79.1901H323.554L323.885 78.8419L299.83 52.4423ZM311.95 50.2925L324.801 64.3995V46.5819C320.476 47.128 316.71 48.3964 311.95 50.2753V50.2925ZM324.801 270.492V206.729H297.397C297.328 206.458 297.251 206.183 297.165 205.908C297.246 206.183 297.319 206.458 297.392 206.729H190.527V252.838C191.542 253.591 192.544 254.386 193.537 255.186C194.609 256.063 195.673 256.95 196.731 257.847L197.797 258.729C198.309 259.159 198.829 259.589 199.345 259.997C200.38 260.831 201.422 261.657 202.471 262.474C202.995 262.886 203.523 263.292 204.053 263.69C212.451 270.109 221.308 275.902 230.554 281.022C232.627 282.179 234.72 283.292 236.827 284.38C238.229 285.102 239.64 285.81 241.062 286.504C243.195 287.545 245.344 288.548 247.511 289.514C267.489 298.482 288.614 304.635 310.282 307.796C315.092 308.504 319.923 309.063 324.775 309.473V270.484H325.205L324.801 270.492ZM190.527 81.0218V143.572H324.801V81.0218H190.527ZM190.527 145.404V204.889H324.801V145.413L190.527 145.404ZM335.223 46.4959V66.4031L351.621 48.4007C346.186 47.5035 340.72 46.8686 335.223 46.4959ZM335.223 145.413V204.889H465.816V145.413H335.223ZM465.356 275.209L465.816 206.729H335.223V310.165C343.635 310.515 352.059 310.413 360.46 309.86H360.606C364.619 309.602 368.613 309.235 372.589 308.759H372.679C393.894 306.289 414.638 300.748 434.259 292.309L465.356 275.209ZM491.011 155.181C490.515 154.035 490.006 152.888 489.485 151.742C488.513 149.592 487.49 147.502 486.432 145.417H476.242V204.889H502C501.979 188.043 497.714 170.845 491.011 155.181ZM476.242 206.729V265.634C483.496 258.681 489.631 250.723 494.042 241.625C499.352 230.665 501.781 218.807 501.983 206.725L476.242 206.729ZM476.242 128.081V143.56H485.478C482.678 138.239 479.595 133.072 476.242 128.081ZM387.675 58.1694C386.996 57.9071 386.312 57.6448 385.629 57.3954C378.421 54.7314 371.055 52.5172 363.573 50.7654L338.473 78.3087L337.983 78.8376L338.305 79.1858H427.638C415.196 70.6236 401.781 63.5688 387.675 58.1694ZM430.261 81.0218H337.054L335.223 82.6943V143.572H351.281H465.816V114.077C455.46 101.552 443.506 90.439 430.261 81.0218Z" fill="#EA4848"/>
<path opacity="0.1" d="M76.4859 112.577V143.572H32.9934C32.9934 143.392 33.0192 143.207 33.0364 143.026C33.0751 142.532 33.1138 142.042 33.1568 141.547C33.1998 140.971 33.2557 140.395 33.3116 139.827C33.3675 139.26 33.4233 138.572 33.4921 137.948C33.5609 137.325 33.6168 136.693 33.6856 136.07C33.7544 135.446 33.8232 134.823 33.9006 134.204C33.978 133.584 34.0468 132.957 34.1327 132.338C34.1972 131.826 34.2617 131.31 34.3348 130.794C34.4337 130.067 34.5369 129.341 34.6444 128.618C34.6444 128.507 34.6788 128.399 34.696 128.292C35.4817 123.004 36.5495 117.763 37.8947 112.589L76.4859 112.577Z" fill="#EA4848"/>
<path opacity="0.1" d="M32.8558 145.413H76.4859V204.889H36.0459C35.9427 205.504 35.8395 206.114 35.7234 206.729H76.4859V254.687C76.4171 254.687 76.3483 254.635 76.2838 254.61C75.1373 254.154 73.9908 253.671 72.8443 253.161C72.5992 253.049 72.3585 252.933 72.1091 252.825C70.9626 252.284 69.8161 251.71 68.6696 251.105C68.2698 250.895 67.8699 250.676 67.4787 250.452C61.1137 246.9 55.3288 242.397 50.3241 237.097C50.1737 236.955 50.0361 236.801 49.8942 236.667C49.1977 235.911 48.5141 235.145 47.852 234.363C47.6026 234.075 47.3619 233.782 47.1168 233.503C46.3343 232.548 45.5776 231.559 44.8467 230.566C44.7349 230.416 44.6318 230.27 44.5243 230.136C41.5302 225.993 39.0472 221.503 37.1293 216.765C37.0691 216.623 37.0133 216.468 36.9574 216.335C36.364 214.83 35.8266 213.303 35.3623 211.747C35.1645 211.098 34.971 210.457 34.8077 209.782C34.7475 209.588 34.7002 209.391 34.6486 209.197C32.2323 199.674 31.9529 189.776 31.9529 179.926C31.9529 178.779 31.9529 177.632 31.9529 176.486C31.9873 172.464 32.0346 168.447 32.0948 164.434C32.1177 163.402 32.1392 162.366 32.1593 161.325C32.2194 158.691 32.3054 156.051 32.4172 153.406C32.443 152.675 32.4774 151.939 32.5161 151.213C32.5333 150.791 32.5548 150.37 32.5806 149.949C32.658 148.427 32.7497 146.915 32.8558 145.413Z" fill="#EA4848"/>
<path opacity="0.1" d="M119.712 89.9821V143.572H86.9036V89.9821H91.5813V71.8378H110.782V89.9821H119.712Z" fill="#EA4848"/>
<path opacity="0.1" d="M119.708 145.408H86.9036V204.885H119.708V145.408Z" fill="#EA4848"/>
<path opacity="0.1" d="M86.9077 206.729H119.712V256.175C115.842 257.289 111.899 258.127 107.91 258.681C107.583 258.729 107.261 258.767 106.934 258.802C106.453 258.858 105.975 258.909 105.498 258.952L104.058 259.068H103.912L103.275 259.103H103.056C102.798 259.103 102.545 259.133 102.287 259.137H102.265C101.895 259.137 101.53 259.163 101.16 259.172H100.687C100.322 259.172 99.9563 259.172 99.5823 259.172H98.774H98.1162C97.8367 259.172 97.5616 259.172 97.2821 259.137C96.8407 259.12 96.3936 259.094 95.9407 259.06L95.1109 259C94.767 258.974 94.423 258.939 94.0834 258.905C93.3611 258.842 92.6445 258.76 91.9337 258.66L91.0738 258.539L90.6439 258.479C89.9259 258.372 89.2122 258.251 88.4942 258.114C87.9611 258.019 87.4365 257.912 86.9077 257.8V206.729Z" fill="#EA4848"/>
<path opacity="0.1" d="M324.797 83.6531H297.745V143.568H324.797V83.6531Z" fill="#EA4848"/>
<path opacity="0.1" d="M324.801 145.408V204.889H190.527V179.233H262.047V194.368H297.745V145.408H324.801Z" fill="#EA4848"/>
<path opacity="0.1" d="M325.227 270.505C325.085 270.505 324.943 270.505 324.797 270.48V309.498C319.95 309.1 315.12 308.543 310.308 307.826C288.632 304.666 267.499 298.516 247.511 289.553C241.741 286.95 236.089 284.114 230.554 281.044C221.311 275.92 212.455 270.128 204.057 263.712C201.942 262.095 199.858 260.443 197.806 258.755C196.383 257.576 194.973 256.373 193.537 255.207C192.548 254.403 191.546 253.608 190.527 252.851V206.729H297.393C297.315 206.454 297.246 206.183 297.169 205.908C297.251 206.183 297.328 206.454 297.397 206.729H324.801V270.475C324.943 270.48 325.085 270.492 325.227 270.505Z" fill="#EA4848"/>
<path opacity="0.1" d="M395.354 79.1901H377.726V73.7124H385.624V57.3954C386.309 57.6476 386.991 57.9056 387.671 58.1693V73.7124H395.349L395.354 79.1901Z" fill="#EA4848"/>
<path opacity="0.1" d="M437.827 143.572H351.281C351.289 143.574 351.298 143.574 351.307 143.572H351.268H335.223V83.6574H339.771V127.943H360.555V101.716H377.731V81.0217H395.358V101.729H412.526V127.956H437.832L437.827 143.572Z" fill="#EA4848"/>
<path opacity="0.1" d="M335.223 145.413V204.889H437.832V145.413H335.223ZM465.67 274.895L465.816 227.815H437.832V206.746H335.223V310.165C343.635 310.515 352.059 310.413 360.46 309.86H360.606C364.619 309.602 368.613 309.235 372.589 308.759H372.679C393.894 306.289 414.638 300.748 434.259 292.309" fill="#EA4848"/>
<path opacity="0.1" d="M478.048 206.729H501.983C501.776 218.807 499.352 230.669 494.042 241.625C489.631 250.727 483.495 258.686 476.242 265.638V227.802H478.048V206.729Z" fill="#EA4848"/>
<path opacity="0.1" d="M502 204.889H478.048V155.181H491.011C497.714 170.845 501.979 188.043 502 204.889Z" fill="#EA4848"/>
<path opacity="0.1" d="M324.801 100.31H310.308V119.095H324.801V100.31Z" fill="#EA4848"/>
<path opacity="0.1" d="M324.801 139.247H310.308V143.572H324.801V139.247Z" fill="#EA4848"/>
<path opacity="0.1" d="M324.801 145.408H310.308V158.028H324.801V145.408Z" fill="#EA4848"/>
<path opacity="0.1" d="M324.801 178.184H310.308V196.969H324.801V178.184Z" fill="#EA4848"/>
<path opacity="0.1" d="M324.801 217.121H310.308V235.906H324.801V217.121Z" fill="#EA4848"/>
<path opacity="0.1" d="M324.801 270.475C324.943 270.475 325.085 270.475 325.231 270.505C325.089 270.505 324.947 270.505 324.801 270.479V274.844H310.308V256.059H324.801V270.475Z" fill="#EA4848"/>
<path opacity="0.1" d="M324.801 294.992V309.498C319.951 309.1 315.12 308.543 310.308 307.826V294.992H324.801Z" fill="#EA4848"/>
<path opacity="0.1" d="M252.64 203.509H190.527V204.889H252.64V203.509Z" fill="#EA4848"/>
<path opacity="0.1" d="M252.64 206.725H190.527V212.013H252.64V206.725Z" fill="#EA4848"/>
<path opacity="0.1" d="M252.64 229.35H190.527V237.854H252.64V229.35Z" fill="#EA4848"/>
<path opacity="0.1" d="M252.64 255.19V263.695H204.057C201.942 262.084 199.858 260.43 197.806 258.733C196.379 257.559 194.968 256.355 193.537 255.19H252.64Z" fill="#EA4848"/>
<path opacity="0.1" d="M252.64 281.026V289.553H247.511C241.741 286.95 236.089 284.114 230.554 281.044L252.64 281.026Z" fill="#EA4848"/>
<path opacity="0.1" d="M372.688 151.174H360.46V163.402H372.688V151.174Z" fill="#EA4848"/>
<path opacity="0.1" d="M107.94 94.2001H95.7126V106.428H107.94V94.2001Z" fill="#EA4848"/>
<path opacity="0.1" d="M107.94 122.603H95.7126V134.831H107.94V122.603Z" fill="#EA4848"/>
<path opacity="0.1" d="M107.94 151.006H95.7126V163.235H107.94V151.006Z" fill="#EA4848"/>
<path opacity="0.1" d="M107.94 179.405H95.7126V191.633H107.94V179.405Z" fill="#EA4848"/>
<path opacity="0.1" d="M107.94 207.809H95.7126V220.037H107.94V207.809Z" fill="#EA4848"/>
<path opacity="0.1" d="M107.94 236.212H95.7126V248.44H107.94V236.212Z" fill="#EA4848"/>
<path opacity="0.1" d="M419.366 151.174H407.139V163.402H419.366V151.174Z" fill="#EA4848"/>
<path opacity="0.1" d="M372.688 181.336H360.46V193.564H372.688V181.336Z" fill="#EA4848"/>
<path opacity="0.1" d="M419.366 181.336H407.139V193.564H419.366V181.336Z" fill="#EA4848"/>
<path opacity="0.1" d="M372.688 211.493H360.46V223.721H372.688V211.493Z" fill="#EA4848"/>
<path opacity="0.1" d="M419.366 211.493H407.139V223.721H419.366V211.493Z" fill="#EA4848"/>
<path opacity="0.1" d="M372.688 241.655H360.46V253.883H372.688V241.655Z" fill="#EA4848"/>
<path opacity="0.1" d="M419.366 241.655H407.139V253.883H419.366V241.655Z" fill="#EA4848"/>
<path opacity="0.1" d="M372.688 271.817H360.46V284.045H372.688V271.817Z" fill="#EA4848"/>
<path opacity="0.1" d="M419.366 271.817H407.139V284.045H419.366V271.817Z" fill="#EA4848"/>
<path opacity="0.1" d="M360.46 309.86V301.974H372.683V308.737L360.46 309.86Z" fill="#EA4848"/>
<path opacity="0.1" d="M34.6443 128.279V135.274H76.4859V128.279H34.6443ZM38.8104 134.836H35.3709V128.722H38.8104V134.836ZM42.9765 134.836H39.537V128.722H42.9765V134.836ZM47.134 134.836H43.6945V128.722H47.134V134.836ZM51.3001 134.836H47.8606V128.722H51.3001V134.836ZM55.4619 134.836H52.0224V128.722H55.4619V134.836ZM59.628 134.836H56.1885V128.722H59.628V134.836ZM63.7941 134.836H60.3546V128.722H63.7941V134.836ZM67.9559 134.836H64.5164V128.722H67.9559V134.836ZM72.1177 134.836H68.6782V128.722H72.1177V134.836ZM76.2838 134.836H72.8443V128.722H76.2838V134.836Z" fill="#EA4848"/>
<path opacity="0.1" d="M34.6443 148.642V155.637H76.4859V148.642H34.6443ZM38.8104 155.199H35.3709V149.084H38.8104V155.199ZM42.9765 155.199H39.537V149.084H42.9765V155.199ZM47.134 155.199H43.6945V149.084H47.134V155.199ZM51.3001 155.199H47.8606V149.084H51.3001V155.199ZM55.4619 155.199H52.0224V149.084H55.4619V155.199ZM59.628 155.199H56.1885V149.084H59.628V155.199ZM63.7941 155.199H60.3546V149.084H63.7941V155.199ZM67.9559 155.199H64.5164V149.084H67.9559V155.199ZM72.1177 155.199H68.6782V149.084H72.1177V155.199ZM76.2838 155.199H72.8443V149.084H76.2838V155.199Z" fill="#EA4848"/>
<path opacity="0.1" d="M34.6443 169.009V176H76.4859V169.009H34.6443ZM38.8104 175.557H35.3709V169.443H38.8104V175.557ZM42.9765 175.557H39.537V169.443H42.9765V175.557ZM47.134 175.557H43.6945V169.443H47.134V175.557ZM51.3001 175.557H47.8606V169.443H51.3001V175.557ZM55.4619 175.557H52.0224V169.443H55.4619V175.557ZM59.628 175.557H56.1885V169.443H59.628V175.557ZM63.7941 175.557H60.3546V169.443H63.7941V175.557ZM67.9559 175.557H64.5164V169.443H67.9559V175.557ZM72.1177 175.557H68.6782V169.443H72.1177V175.557ZM76.2838 175.557H72.8443V169.443H76.2838V175.557Z" fill="#EA4848"/>
<path opacity="0.1" d="M34.6443 189.372V196.363H76.4859V189.372H34.6443ZM38.8104 195.924H35.3709V189.802H38.8104V195.924ZM42.9765 195.924H39.537V189.802H42.9765V195.924ZM47.134 195.924H43.6945V189.802H47.134V195.924ZM51.3001 195.924H47.8606V189.802H51.3001V195.924ZM55.4619 195.924H52.0224V189.802H55.4619V195.924ZM59.628 195.924H56.1885V189.802H59.628V195.924ZM63.7941 195.924H60.3546V189.802H63.7941V195.924ZM67.9559 195.924H64.5164V189.802H67.9559V195.924ZM72.1177 195.924H68.6782V189.802H72.1177V195.924ZM76.2838 195.924H72.8443V189.802H76.2838V195.924Z" fill="#EA4848"/>
<path opacity="0.1" d="M34.8464 209.726C35.0098 210.388 35.2033 211.042 35.4011 211.691V210.169H38.8406V216.279H36.9961C37.0477 216.425 37.1036 216.575 37.1638 216.709H76.5031V209.726H34.8464ZM43.0153 216.279H39.5758V210.169H43.0153V216.279ZM47.1728 216.279H43.7333V210.169H47.1728V216.279ZM51.3389 216.279H47.8994V210.169H51.3389V216.279ZM55.5007 216.279H52.0611V210.169H55.5007V216.279ZM59.6668 216.279H56.2272V210.169H59.6668V216.279ZM63.8329 216.279H60.3934V210.169H63.8329V216.279ZM67.9947 216.279H64.5552V210.169H67.9947V216.279ZM72.1565 216.279H68.7169V210.169H72.1565V216.279ZM76.3226 216.279H72.883V210.169H76.3226V216.279Z" fill="#EA4848"/>
<path opacity="0.1" d="M44.5374 230.089C44.6491 230.227 44.7523 230.381 44.8598 230.519H47.1342V233.456L47.8694 234.316V230.502H51.3089V236.667H49.8944C50.032 236.809 50.1652 236.96 50.3243 237.097H76.4775V230.089H44.5374ZM55.4836 236.667H52.0441V230.528H55.4836V236.667ZM59.6497 236.667H56.2102V230.528H59.6497V236.667ZM63.8158 236.667H60.3763V230.528H63.8158V236.667ZM67.9776 236.667H64.5381V230.528H67.9776V236.667ZM72.1394 236.667H68.6999V230.528H72.1394V236.667ZM76.3055 236.667H72.866V230.528H76.3055V236.667Z" fill="#EA4848"/>
<path opacity="0.1" d="M67.4917 250.452C67.8872 250.676 68.2871 250.882 68.6869 251.101V250.886H72.1264V252.825C72.3758 252.933 72.6123 253.049 72.8573 253.161V250.886H76.2968V254.61C76.3622 254.639 76.4298 254.664 76.4989 254.683V250.452H67.4917Z" fill="#EA4848"/>
<path opacity="0.1" d="M324.797 270.475H325.227H324.797ZM297.165 205.908C297.246 206.183 297.319 206.458 297.393 206.729C297.328 206.458 297.251 206.183 297.165 205.908ZM91.5984 79.1901V81.0217H110.804V79.1815L91.5984 79.1901ZM324.801 270.475H325.231H324.801ZM297.165 205.908C297.246 206.183 297.319 206.458 297.393 206.729C297.328 206.458 297.251 206.183 297.165 205.908ZM324.797 270.475H325.227H324.797ZM297.165 205.908C297.246 206.183 297.319 206.458 297.393 206.729C297.328 206.458 297.251 206.183 297.165 205.908Z" fill="#EA4848"/>
<path opacity="0.1" d="M378.1 371C401.237 371 419.994 367.987 419.994 364.271C419.994 360.555 401.237 357.542 378.1 357.542C354.963 357.542 336.207 360.555 336.207 364.271C336.207 367.987 354.963 371 378.1 371Z" fill="#EA4848"/>
<path opacity="0.1" d="M189.16 364.271C212.297 364.271 231.053 361.259 231.053 357.542C231.053 353.826 212.297 350.813 189.16 350.813C166.023 350.813 147.267 353.826 147.267 357.542C147.267 361.259 166.023 364.271 189.16 364.271Z" fill="#EA4848"/>
<path d="M237.39 179.616C237.38 179.573 237.358 179.535 237.326 179.504C236.685 178.872 228.517 167.319 228.517 167.319C228.517 167.319 228.087 166.029 227.39 164.352C227.613 164.063 227.781 163.735 227.885 163.385C227.922 163.237 227.949 163.086 227.966 162.934C227.966 162.886 228.001 162.848 228.014 162.8C228.163 162.217 228.148 161.604 227.971 161.029C227.923 161.176 227.864 161.32 227.794 161.459C227.633 160.958 227.416 160.476 227.149 160.023C226.066 158.157 224.518 156.583 223.379 154.764C221.654 151.939 220.968 148.599 221.44 145.322C221.44 145.49 221.44 145.662 221.44 145.83C221.483 145.18 221.569 144.533 221.698 143.895C221.877 143.168 222.118 142.458 222.416 141.771C223.439 139.428 225.094 137.385 226.1 135.033C226.438 134.24 226.694 133.415 226.866 132.57C227.22 131.159 227.349 129.7 227.248 128.249C227.248 128.593 227.192 128.937 227.141 129.276C227.032 125.786 225.623 122.463 223.19 119.959C219.677 116.429 214.634 115.057 209.81 114.335C207.783 114.099 205.847 113.36 204.178 112.185C202.325 110.986 199.93 110.698 197.763 110.96C195.273 111.229 192.958 112.373 191.232 114.189C188.941 116.709 187.948 120.277 185.273 122.401C183.653 123.691 181.597 124.293 179.71 125.17C177.823 126.047 176.038 127.32 175.432 129.203C175.432 129.203 175.432 129.177 175.432 129.164V129.272L175.406 129.341C174.779 131.568 175.991 133.834 176.623 136.057C177.281 138.357 177.324 140.786 177.358 143.164C177.406 146.071 177.449 148.981 177.401 151.892C177.38 153.036 177.341 154.192 177.255 155.332C176.237 155.64 175.249 156.037 174.301 156.519C173.338 157.146 169.735 161.037 169.735 161.037L162.689 187.962L162.783 188.069L162.689 188.435L163.046 188.353C164.043 189.428 167.022 192.489 170.238 194.398L170.539 199.678C170.539 199.678 170.901 204.975 175.772 207.164C175.884 209 176.232 216.455 174.62 219.409C173.503 221.567 172.978 223.982 173.098 226.409C173.098 226.409 173.661 230.889 173.02 233.245C172.646 234.82 172.618 236.457 172.938 238.043C172.938 238.043 172.938 238.564 172.938 239.458C172.938 244.226 172.994 259.507 172.938 261.235C172.857 263.278 172.938 293.483 172.938 293.483C172.938 293.483 172.539 308.578 171.257 312.667C169.976 316.756 170.299 330.296 170.299 330.296C170.299 330.296 169.495 346.424 172.337 349.605C172.337 349.747 172.311 349.893 172.306 350.035C172.306 350.1 172.306 350.173 172.306 350.237C172.272 351.463 172.509 352.765 173.562 353.165C175.712 353.991 178.553 356.467 179.091 357.177C179.628 357.886 182.754 359.653 186.83 359.18C189.383 358.893 191.953 358.776 194.521 358.828C194.521 358.828 196.129 358.536 195.609 356.536C195.274 355.289 194.018 353.372 193.124 352.112C193.287 352.155 193.446 352.189 193.597 352.219L193.752 352.25H193.872C193.938 352.253 194.004 352.253 194.07 352.25H194.156C194.236 352.256 194.317 352.256 194.397 352.25C195.476 352.146 199.5 354.021 200.218 355.259C200.936 356.498 203.468 357.439 205.377 357.676C206.512 357.813 209.376 357.581 211.779 357.271C212.989 357.146 214.188 356.928 215.365 356.618C215.932 356.403 216.053 355.715 215.889 354.941C215.696 353.958 215.171 353.072 214.402 352.43C213.705 351.936 212.785 350.633 212.106 349.567L211.925 349.278C213.125 348.135 215.292 344.394 215.949 343.62C216.749 342.679 214.66 308.243 214.66 308.243V290.98L217.863 274.642L220.103 265.995L222.024 252.942C222.024 252.942 225.387 237.695 224.35 236.199C224.35 236.169 223.491 220.471 222.588 216.7C222.196 215.019 222.295 211.235 222.528 207.555C222.77 207.314 222.939 207.009 223.015 206.676C223.092 206.342 223.071 205.994 222.957 205.672C222.893 205.451 222.81 205.237 222.708 205.031C222.708 204.967 222.708 204.898 222.708 204.833C224.565 203.979 226.506 203.319 228.499 202.864C231.702 202.236 230.903 200.585 230.903 200.585C230.903 200.585 231.625 199.171 232.102 198.306C232.579 197.442 232.184 189.815 232.102 189.187C232.072 188.933 231.874 187.532 231.647 185.941C232.674 185.21 234.011 184.303 235.469 183.443C238.242 181.8 237.618 180.068 237.39 179.616ZM195.6 288.624C195.6 288.624 193.197 294.755 194.16 296.325C195.123 297.894 194.001 303.72 194.001 303.72L193.197 312.366C193.197 312.366 190.957 328.404 191.757 332.175C192.385 335.133 192.617 343.968 192.69 347.653C192.635 347.675 192.582 347.701 192.531 347.731L192.423 347.787C192.793 346.338 192.638 343.405 190.802 337.506L190.648 313.14C190.648 313.14 190.364 284.995 192.587 281.848C194.809 278.7 195.596 273.356 195.596 273.356C195.596 273.356 195.115 281.065 194.801 283.108C194.487 285.15 195.6 288.624 195.6 288.624ZM191.125 349.188C191.103 349.24 191.078 349.291 191.06 349.339L190.94 349.184C191.001 349.19 191.063 349.191 191.125 349.188Z" fill="url(#paint0_linear)"/>
<path d="M215.635 358.845C214.393 359.322 207.656 360.135 205.773 359.907C203.89 359.679 201.396 358.725 200.687 357.478C199.977 356.231 196 354.348 194.934 354.468C194.497 354.481 194.061 354.42 193.644 354.287C192.909 354.065 192.19 353.789 191.494 353.462C191.397 352.92 191.413 352.364 191.542 351.828C191.567 351.72 191.598 351.614 191.636 351.51C191.887 350.805 192.406 350.227 193.081 349.902L193.236 349.829C193.534 349.7 193.845 349.605 194.164 349.545C197.544 348.896 211.487 350.199 211.487 350.199C211.487 350.199 211.878 350.899 212.415 351.768C213.086 352.843 213.997 354.154 214.685 354.649C215.447 355.3 215.964 356.192 216.151 357.177C216.315 357.938 216.194 358.634 215.635 358.845Z" fill="white"/>
<path opacity="0.1" d="M215.635 358.845C214.393 359.322 207.66 360.135 205.777 359.907C203.894 359.679 201.4 358.72 200.686 357.478C199.973 356.235 196.004 354.348 194.938 354.468C193.872 354.588 191.499 353.462 191.499 353.462C191.499 353.462 191.129 351.742 192.204 350.568L194.353 352.095C194.353 352.095 200.106 353.879 201.172 355.534C202.239 357.19 204.182 358.114 206.989 358.282C209.087 358.419 213.907 357.602 216.164 357.194C216.315 357.938 216.199 358.634 215.635 358.845Z" fill="black"/>
<path d="M195.054 361.038C192.518 360.988 189.982 361.108 187.462 361.395C183.425 361.868 180.342 360.105 179.805 359.378C179.267 358.652 176.485 356.196 174.349 355.337C173.304 354.932 173.059 353.617 173.106 352.387C173.106 352.323 173.106 352.249 173.106 352.185C173.146 351.406 173.261 350.633 173.45 349.876L190.179 349.519L191.628 351.484L191.851 351.785L192.733 352.985C192.733 352.985 193.133 353.509 193.657 354.275C194.543 355.564 195.781 357.469 196.112 358.729C196.641 360.745 195.054 361.038 195.054 361.038Z" fill="white"/>
<path opacity="0.1" d="M195.054 361.038C192.518 360.988 189.982 361.108 187.462 361.395C183.429 361.868 180.342 360.105 179.809 359.378C179.276 358.652 176.485 356.175 174.349 355.345C173.304 354.941 173.059 353.625 173.106 352.396C174.301 352.675 176.812 353.389 177.797 354.631C179.087 356.291 181.395 359.082 184.676 359.258C187.324 359.4 193.773 358.927 196.138 358.738C196.645 360.745 195.054 361.038 195.054 361.038Z" fill="black"/>
<path opacity="0.1" d="M193.064 349.885C192.87 351.321 192.273 351.708 191.843 351.794C191.738 351.814 191.63 351.814 191.525 351.794C191.468 351.79 191.412 351.781 191.357 351.768C191.357 351.768 176.335 355.087 173.299 352.4C173.222 352.331 173.151 352.256 173.084 352.176C173.124 351.397 173.239 350.624 173.428 349.867L190.157 349.511L191.606 351.476C191.857 350.77 192.376 350.192 193.051 349.867L193.064 349.885Z" fill="black"/>
<path opacity="0.1" d="M212.411 351.751C212.076 352.12 211.796 352.331 211.62 352.258C210.829 351.94 204.345 350.835 202.286 351.785C200.227 352.735 193.257 351.94 193.257 351.94C193.257 351.94 193.257 351.114 193.219 349.79C193.517 349.661 193.828 349.566 194.147 349.506C197.526 348.857 211.469 350.16 211.469 350.16C211.469 350.16 211.878 350.882 212.411 351.751Z" fill="black"/>
<path d="M222.222 254.494L220.322 267.625L218.112 276.327L214.947 292.777V310.191C214.947 310.191 217.003 344.837 216.212 345.783C215.42 346.729 212.415 352.116 211.624 351.802C210.833 351.488 204.349 350.379 202.29 351.325C200.231 352.271 193.261 351.484 193.261 351.484C193.261 351.484 193.102 338.039 192.311 334.243C191.52 330.446 193.734 314.31 193.734 314.31L194.525 305.612C194.525 305.612 195.635 299.756 194.684 298.173C193.734 296.591 196.108 290.434 196.108 290.434C196.108 290.434 195.003 286.947 195.321 284.892C195.639 282.837 196.108 275.084 196.108 275.084C196.108 275.084 195.321 280.468 193.124 283.628C190.927 286.788 191.206 315.109 191.206 315.109L191.361 339.617C195.321 352.593 191.361 351.325 191.361 351.325C191.361 351.325 176.339 354.649 173.304 351.957C170.268 349.266 171.137 332.325 171.137 332.325C171.137 332.325 170.823 318.721 172.087 314.611C173.351 310.5 173.751 295.31 173.751 295.31C173.751 295.31 173.669 264.933 173.751 262.882C173.811 261.162 173.751 245.765 173.751 240.954C173.751 240.06 173.751 239.531 173.751 239.531L175.565 235.025L197.062 232.333H207.346C207.346 232.333 222.824 235.971 224.423 237.54C224.457 237.566 224.487 237.598 224.509 237.635C225.545 239.153 222.222 254.494 222.222 254.494Z" fill="#EA4848"/>
<path opacity="0.1" d="M196.121 323.468C196.121 323.468 200.85 334.857 203.081 335.649C205.313 336.44 196.121 323.468 196.121 323.468Z" fill="black"/>
<path opacity="0.1" d="M197.87 340.236C197.87 340.236 213.838 341.027 213.679 342.769C213.52 344.51 197.87 340.236 197.87 340.236Z" fill="black"/>
<path opacity="0.1" d="M176.507 335.683C177.139 336.281 188.687 337.403 187.737 338.495C186.787 339.587 177.457 341.711 177.457 341.711L176.507 335.683Z" fill="black"/>
<path opacity="0.1" d="M174.611 316.034C174.611 316.507 176.984 331.22 177.62 331.852C178.257 332.484 183.472 333.116 183.472 333.116L174.611 316.034Z" fill="black"/>
<path d="M191.83 114.924C189.564 117.457 188.584 121.047 185.944 123.188C184.34 124.478 182.311 125.093 180.445 125.97C178.579 126.847 176.73 128.184 176.176 130.171C175.557 132.406 176.752 134.689 177.38 136.925C178.029 139.238 178.067 141.655 178.106 144.075C178.149 147.003 178.196 149.931 178.145 152.86C178.067 157.421 177.689 162.194 175.269 166.059C184.009 168.841 193.304 169.22 202.471 169.576C204.232 169.702 206.002 169.657 207.755 169.443C209.274 169.14 210.776 168.76 212.256 168.304C215.182 167.529 218.198 167.143 221.225 167.156C222.545 167.156 223.89 167.237 225.163 166.893C226.435 166.549 227.661 165.668 228.005 164.395C228.31 163.252 227.863 162.035 227.278 161.007C226.212 159.133 224.699 157.568 223.555 155.719C222.387 153.766 221.695 151.566 221.533 149.297C221.371 147.027 221.744 144.751 222.622 142.652C223.637 140.292 225.27 138.237 226.268 135.872C227.289 133.333 227.561 130.554 227.051 127.865C226.54 125.176 225.269 122.69 223.387 120.703C219.918 117.151 214.939 115.775 210.175 115.045C208.169 114.808 206.256 114.068 204.612 112.895C202.785 111.691 200.416 111.398 198.275 111.665C195.805 111.942 193.517 113.099 191.83 114.924Z" fill="#3F3D56"/>
<g opacity="0.1">
<path opacity="0.1" d="M222.755 140.171C221.879 142.243 221.503 144.493 221.659 146.737C221.755 145.132 222.126 143.556 222.755 142.076C223.766 139.716 225.399 137.66 226.397 135.296C227.212 133.321 227.555 131.183 227.399 129.053C227.31 130.546 226.971 132.014 226.397 133.395C225.399 135.76 223.766 137.811 222.755 140.171Z" fill="black"/>
<path opacity="0.1" d="M178.235 143.491C178.261 145.176 178.287 146.866 178.291 148.551C178.291 146.23 178.269 143.912 178.235 141.595C178.201 139.191 178.158 136.758 177.508 134.44C177.079 132.97 176.442 131.478 176.219 129.994C175.836 132.101 176.924 134.238 177.508 136.34C178.158 138.636 178.201 141.087 178.235 143.491Z" fill="black"/>
<path opacity="0.1" d="M225.309 164.434C224.019 164.782 222.695 164.705 221.375 164.696C218.35 164.677 215.337 165.056 212.411 165.823C210.931 166.277 209.428 166.656 207.909 166.958C206.155 167.176 204.384 167.222 202.621 167.096C193.764 166.747 184.783 166.373 176.3 163.841C176.048 164.403 175.761 164.949 175.44 165.475C184.181 168.252 193.476 168.635 202.638 168.992C204.401 169.118 206.172 169.072 207.927 168.854C209.44 168.555 210.937 168.178 212.411 167.723C215.33 166.953 218.338 166.57 221.358 166.584C222.678 166.584 224.019 166.666 225.292 166.317C226.564 165.969 227.79 165.096 228.134 163.824C228.279 163.234 228.264 162.617 228.091 162.035C227.708 163.239 226.526 164.077 225.309 164.434Z" fill="black"/>
</g>
<path d="M212.574 159.339C212.256 160.053 210.915 166.218 210.597 166.85C210.278 167.482 208.541 177.599 208.382 178.167C208.223 178.735 196.933 175.794 196.933 175.794L190.136 170.097L183.149 163.144C183.149 163.144 182.943 156.871 188.089 154.859C188.439 154.721 188.798 154.609 189.164 154.523C195.407 153.023 194.779 134.04 194.779 134.04L207.591 139.574C207.591 139.574 205.218 150.65 205.3 152.786C205.321 153.504 205.884 153.952 206.62 154.223C207.756 154.546 208.94 154.674 210.119 154.601C210.119 154.601 212.892 158.63 212.574 159.339Z" fill="#FBBEBE"/>
<path d="M235.512 180.14L237.33 180.618C237.33 180.618 238.676 182.664 235.512 184.569C233.502 185.79 231.574 187.138 229.738 188.606L220.386 191.453L218.585 185.799L227.287 179.195L235.512 180.14Z" fill="#EA4848"/>
<path opacity="0.1" d="M235.512 180.14L237.33 180.618C237.33 180.618 238.676 182.664 235.512 184.569C233.502 185.79 231.574 187.138 229.738 188.606L220.386 191.453L218.585 185.799L227.287 179.195L235.512 180.14Z" fill="black"/>
<path d="M167.267 185.601L163.63 189.161C163.63 189.161 170.191 196.754 175.238 197.227C180.286 197.7 183.541 191.453 183.541 191.453L179.172 184.573L167.267 185.601Z" fill="#EA4848"/>
<path opacity="0.1" d="M167.267 185.601L163.63 189.161C163.63 189.161 170.191 196.754 175.238 197.227C180.286 197.7 183.541 191.453 183.541 191.453L179.172 184.573L167.267 185.601Z" fill="black"/>
<path opacity="0.1" d="M201.817 146.445C208.805 146.445 214.47 140.779 214.47 133.791C214.47 126.802 208.805 121.137 201.817 121.137C194.829 121.137 189.164 126.802 189.164 133.791C189.164 140.779 194.829 146.445 201.817 146.445Z" fill="black"/>
<path d="M201.817 145.494C208.805 145.494 214.47 139.829 214.47 132.841C214.47 125.852 208.805 120.187 201.817 120.187C194.829 120.187 189.164 125.852 189.164 132.841C189.164 139.829 194.829 145.494 201.817 145.494Z" fill="#FBBEBE"/>
<path opacity="0.1" d="M224.518 239.071C221.637 239.401 218.799 240.036 216.052 240.967C211.323 242.541 174.263 240.993 173.747 240.967C173.747 240.073 173.747 239.544 173.747 239.544L175.561 235.038L197.058 232.346H207.342C207.342 232.346 222.82 235.984 224.419 237.553C224.484 238.499 224.518 239.071 224.518 239.071Z" fill="black"/>
<path opacity="0.1" d="M212.574 159.339C212.256 160.053 210.915 166.218 210.597 166.85C210.278 167.483 208.541 177.599 208.382 178.167C208.223 178.735 196.933 175.794 196.933 175.794L190.136 170.097L183.149 163.144C183.149 163.144 182.943 156.871 188.089 154.859L200.867 169.551L206.62 154.223C207.756 154.546 208.94 154.674 210.119 154.601C210.119 154.601 212.892 158.63 212.574 159.339Z" fill="black"/>
<path d="M200.867 170.024L187.788 154.975C187.023 154.486 186.148 154.195 185.242 154.129C184.336 154.062 183.428 154.221 182.599 154.592C179.671 155.861 176.034 156.888 175.084 157.52C174.134 158.152 170.574 162.065 170.574 162.065L181.176 189.802L176.507 208.071C176.507 208.071 177.221 217.405 175.402 220.806C174.295 222.981 173.776 225.407 173.897 227.845C173.897 227.845 174.452 232.355 173.82 234.724C173.45 236.308 173.423 237.953 173.738 239.548C173.738 239.548 211.31 241.13 216.053 239.548C218.798 238.615 221.636 237.979 224.518 237.652C224.518 237.652 223.658 221.829 222.798 218.033C221.938 214.236 223.512 199.764 223.512 199.764L222.484 184.26L228.65 168.351C228.65 168.351 225.309 158.152 221.827 157.125C221.827 157.125 215.502 155.62 214.157 154.91C212.811 154.201 208.855 153.565 208.855 153.565L206.779 154.261L200.867 170.024Z" fill="#EA4848"/>
<path opacity="0.1" d="M219.115 183.736L191.593 181.865C190.897 181.817 190.294 182.343 190.247 183.04L187.292 226.495C187.244 227.191 187.771 227.794 188.467 227.842L215.988 229.713C216.685 229.76 217.288 229.234 217.335 228.538L220.29 185.083C220.337 184.386 219.811 183.783 219.115 183.736Z" fill="black"/>
<path d="M220.062 182.792L192.541 180.921C191.844 180.873 191.241 181.4 191.194 182.096L188.239 225.551C188.192 226.247 188.718 226.85 189.415 226.898L216.936 228.769C217.632 228.817 218.235 228.29 218.283 227.594L221.238 184.139C221.285 183.443 220.759 182.84 220.062 182.792Z" fill="#3F3D56"/>
<path d="M219.154 186.199L192.98 184.419L190.29 223.978L216.464 225.758L219.154 186.199Z" fill="white"/>
<path opacity="0.1" d="M216.807 196.296L195.426 194.799L195.009 200.758L216.39 202.255L216.807 196.296Z" fill="black"/>
<path opacity="0.1" d="M216.034 219.978L212.641 219.747L212.429 222.853L215.822 223.083L216.034 219.978Z" fill="black"/>
<path opacity="0.1" d="M212.687 212.482L195.319 211.301L195.107 214.407L212.476 215.588L212.687 212.482Z" fill="black"/>
<path d="M215.914 184.72L197.83 183.49L197.505 188.264L215.59 189.494L215.914 184.72Z" fill="#3F3D56"/>
<path opacity="0.1" d="M215.914 184.72L197.83 183.49L197.505 188.264L215.59 189.494L215.914 184.72Z" fill="black"/>
<path opacity="0.1" d="M202.449 238.198C202.449 238.198 202.29 261.614 196.121 275.059C196.121 275.059 203.559 257.34 203.559 256.631C203.559 255.921 207.669 248.483 206.568 246.268C205.467 244.054 202.449 238.198 202.449 238.198Z" fill="black"/>
<path opacity="0.1" d="M202.785 129.676C202.548 127.604 203.056 125.514 204.216 123.781C204.078 125.518 204.57 127.247 205.6 128.652C206.631 130.057 208.133 131.045 209.831 131.435C209.686 131.309 209.583 131.142 209.535 130.956C209.486 130.771 209.495 130.575 209.56 130.394C210.442 131.392 211.117 132.574 212.114 133.451C213.112 134.328 214.608 134.853 215.782 134.229C217.377 133.369 217.394 131.104 216.981 129.341C216.095 125.586 214.278 122.116 211.697 119.25C211.053 118.383 210.217 117.677 209.255 117.188C208.293 116.699 207.231 116.439 206.151 116.429C203.709 116.24 201.172 116.455 198.984 117.551C197.752 118.223 196.599 119.029 195.544 119.955L189.525 124.865C188.946 125.282 188.45 125.804 188.064 126.404C187.805 126.906 187.65 127.454 187.608 128.016C187.454 129.624 187.752 131.244 188.467 132.692C189.182 134.14 190.287 135.361 191.658 136.216C191.629 134.945 191.978 133.694 192.662 132.622C193.346 131.55 194.333 130.706 195.497 130.196C195.68 130.349 195.827 130.539 195.93 130.753C196.033 130.967 196.09 131.201 196.095 131.439L197.363 129.177C197.552 128.766 197.849 128.413 198.223 128.158C199.005 127.728 199.981 128.236 200.648 128.842C201.314 129.448 201.963 130.205 202.858 130.299L202.892 126.933" fill="black"/>
<path d="M202.785 129.203C202.548 127.129 203.055 125.039 204.216 123.304C203.829 126.744 206.422 130.295 209.836 130.957C209.691 130.833 209.587 130.667 209.539 130.482C209.49 130.296 209.499 130.101 209.565 129.921C210.446 130.919 211.121 132.097 212.119 132.978C213.116 133.86 214.612 134.38 215.786 133.752C217.381 132.892 217.398 130.626 216.986 128.868C216.1 125.114 214.283 121.643 211.702 118.777C210.901 117.8 209.891 117.016 208.748 116.481C207.92 116.174 207.05 115.997 206.168 115.956C203.726 115.767 201.19 115.978 199.001 117.074C197.77 117.749 196.617 118.556 195.562 119.482L189.543 124.392C188.962 124.808 188.466 125.33 188.081 125.931C187.822 126.432 187.667 126.981 187.625 127.543C187.472 129.151 187.769 130.769 188.485 132.217C189.2 133.665 190.305 134.884 191.675 135.739C191.647 134.468 191.997 133.217 192.681 132.146C193.364 131.074 194.35 130.23 195.514 129.719C195.696 129.872 195.843 130.062 195.946 130.276C196.049 130.49 196.106 130.724 196.112 130.962L197.376 128.709C197.564 128.296 197.861 127.944 198.236 127.69C199.018 127.26 199.994 127.767 200.661 128.373C201.327 128.98 201.976 129.732 202.871 129.831L202.905 126.46" fill="#3F3D56"/>
<path d="M208.778 209.017C207.673 208.458 189.401 211.308 189.401 211.308C189.401 211.308 186.391 210.448 179.117 209.253C171.842 208.058 171.378 200.946 171.378 200.946L170.582 186.71L173.037 184.561L183.554 191.44C183.554 191.44 183.717 194.918 183.554 195.546C183.45 195.976 183.175 196.488 183.201 196.836C183.209 196.93 183.248 197.019 183.312 197.089C183.375 197.159 183.46 197.206 183.554 197.223C184.267 197.403 193.992 198.977 193.992 198.977C193.992 198.977 216.534 197.434 222.153 205.027C222.599 205.584 222.935 206.22 223.147 206.901C224.54 212.091 209.78 209.511 208.778 209.017Z" fill="#FBBEBE"/>
<path opacity="0.1" d="M223.159 206.931C222.299 207.314 221.766 207.589 221.766 207.589C221.766 207.589 213.701 207.353 209.169 205.71C204.638 204.068 199.13 204.36 199.13 204.36C199.13 204.36 180.247 201.11 183.175 196.866C183.183 196.96 183.222 197.049 183.286 197.119C183.349 197.189 183.435 197.236 183.528 197.253C184.241 197.434 193.967 199.007 193.967 199.007C193.967 199.007 216.508 197.464 222.127 205.057C222.586 205.611 222.937 206.247 223.159 206.931Z" fill="black"/>
<path d="M231.001 181.882C231.001 181.882 232.111 189.711 232.188 190.348C232.265 190.984 232.665 198.65 232.188 199.523C231.711 200.396 231.001 201.815 231.001 201.815C231.001 201.815 231.793 203.474 228.628 204.111C225.464 204.747 221.749 206.639 221.749 206.639C221.749 206.639 213.679 206.402 209.174 204.743C204.668 203.083 199.13 203.397 199.13 203.397C199.13 203.397 175.161 199.282 185.445 194.26C195.729 189.238 203.004 196.04 203.004 196.04L214.47 195.331C214.47 195.331 218.744 192.717 219.931 192.958C220.768 193.064 221.619 192.927 222.381 192.562L222.463 184.255L231.001 181.882Z" fill="#FBBEBE"/>
<path opacity="0.1" d="M172.857 162.663L170.561 162.542L163.604 189.63C163.604 189.63 171.115 187.729 174.353 189.63C177.59 191.53 183.528 191.921 183.528 191.921L181.313 170.329L172.857 162.663Z" fill="black"/>
<path d="M172.857 162.185L170.561 162.065L163.604 189.152C163.604 189.152 171.115 187.252 174.353 189.152C177.59 191.053 183.528 191.444 183.528 191.444L181.313 169.852L172.857 162.185Z" fill="#EA4848"/>
<path opacity="0.1" d="M225.468 168.119L228.628 168.833C228.628 168.833 236.698 180.442 237.33 181.091C237.962 181.74 234.321 184.101 232.82 184.101C231.32 184.101 223.963 184.96 221.827 186.947C219.69 188.933 220.58 178.937 220.58 178.709C220.58 178.481 223.233 172.173 223.233 172.173L225.468 168.119Z" fill="black"/>
<path d="M225.468 167.646L228.628 168.355C228.628 168.355 236.698 179.986 237.33 180.618C237.962 181.25 234.321 183.628 232.82 183.628C231.32 183.628 223.963 184.487 221.827 186.474C219.69 188.46 220.58 178.464 220.58 178.236C220.58 178.008 223.25 171.679 223.25 171.679L225.468 167.646Z" fill="#EA4848"/>
<g opacity="0.1">
<path opacity="0.1" d="M204.195 123.343C204.176 123.013 204.183 122.682 204.216 122.354C203.562 123.336 203.111 124.44 202.892 125.6V126.598C202.892 126.598 202.892 126.576 202.892 126.563V126.8C202.892 127.496 202.892 128.197 202.871 128.894H202.81V129.216C202.81 129.104 202.81 128.997 202.789 128.885C201.929 128.747 201.314 128.025 200.674 127.449C200.033 126.873 199.031 126.322 198.249 126.765C197.874 127.019 197.576 127.372 197.389 127.784L196.112 130.037C196.106 129.8 196.05 129.567 195.947 129.354C195.844 129.14 195.696 128.951 195.514 128.799C194.35 129.309 193.363 130.153 192.679 131.225C191.996 132.297 191.646 133.547 191.675 134.818C190.5 134.082 189.518 133.077 188.808 131.886C188.099 130.695 187.683 129.353 187.595 127.969C187.52 129.514 187.859 131.051 188.576 132.421C189.293 133.791 190.363 134.945 191.675 135.764C191.647 134.494 191.997 133.243 192.681 132.172C193.364 131.1 194.35 130.255 195.514 129.745C195.696 129.898 195.843 130.088 195.946 130.302C196.049 130.516 196.106 130.75 196.112 130.987L197.376 128.734C197.563 128.322 197.861 127.97 198.236 127.715C199.018 127.286 199.994 127.793 200.661 128.399C201.327 129.005 201.976 129.758 202.871 129.857C202.871 128.756 202.882 127.658 202.905 126.563C203.116 125.414 203.554 124.32 204.195 123.343Z" fill="black"/>
<path opacity="0.1" d="M202.741 127.672C202.763 127.38 202.797 127.088 202.84 126.813L202.888 125.626C202.758 126.3 202.709 126.987 202.741 127.672Z" fill="black"/>
<path opacity="0.1" d="M215.786 132.802C214.612 133.43 213.116 132.905 212.118 132.028C211.121 131.151 210.446 129.968 209.565 128.971C209.499 129.151 209.49 129.347 209.539 129.533C209.587 129.719 209.691 129.886 209.835 130.011C209.749 130.011 209.668 129.968 209.586 129.947C210.446 130.936 211.13 132.097 212.118 132.957C213.107 133.817 214.612 134.358 215.786 133.731C216.96 133.103 217.295 131.632 217.192 130.201C217.114 131.327 216.71 132.303 215.786 132.802Z" fill="black"/>
<path opacity="0.1" d="M209.56 129.938C208.123 129.547 206.839 128.725 205.881 127.583C204.924 126.441 204.338 125.033 204.203 123.549C203.958 126.924 206.503 130.308 209.836 130.957C209.694 130.834 209.592 130.671 209.543 130.49C209.494 130.308 209.5 130.116 209.56 129.938Z" fill="black"/>
</g>
<path d="M416.034 200.211C416.034 200.211 414.34 199.975 414.34 197.511C414.34 195.047 413.127 190.434 413.127 190.434C413.127 190.434 412.078 182.406 410.629 181.134C409.181 179.861 407.319 172.388 407.319 172.388C407.319 172.388 407.001 168.334 406.352 167.461C405.702 166.588 404.825 164.451 403.531 161.403C402.237 158.355 396.854 156.265 396.854 156.265C396.854 156.265 387.099 150.607 384.334 148.762C384.082 148.609 383.845 148.431 383.629 148.229C383.148 147.601 381.05 147.588 381.05 147.588C380.83 146.2 380.62 144.609 380.551 143.168C380.551 143.014 380.551 142.859 380.551 142.704C383.634 140.882 385.955 138.009 387.09 134.612C387.142 134.449 387.185 134.281 387.232 134.113C387.421 134.055 387.595 133.958 387.743 133.827C387.891 133.697 388.01 133.536 388.092 133.357C388.337 132.802 388.346 132.157 388.655 131.637C389.016 131.026 389.704 130.699 390.246 130.244C391.613 129.079 391.966 127.122 391.901 125.346C391.858 123.902 391.626 122.449 391.716 121.017C391.716 120.896 391.716 120.776 391.742 120.656C391.768 120.445 391.798 120.226 391.837 120.019C392.048 118.953 392.508 117.947 392.765 116.889C393.023 115.831 393.049 114.64 392.447 113.729C391.566 112.392 389.73 112.125 388.118 112.009C386.291 111.854 384.678 112.052 383.487 110.534C382.941 109.742 382.325 108.999 381.647 108.316C381.407 108.092 379.068 106.66 379.068 106.57C376.779 105.506 374.183 105.306 371.759 106.007C370.542 106.359 369.403 106.936 368.169 107.224C365.52 107.851 362.468 107.172 360.215 108.69C358.959 109.55 358.207 110.921 357.502 112.25C356.929 113.345 356.347 114.441 355.756 115.539C354.802 117.341 353.839 119.172 353.439 121.167C353.355 121.603 353.302 122.044 353.28 122.487C353.28 122.646 353.28 122.805 353.28 122.964C353.28 123.033 353.28 123.102 353.28 123.171C353.28 123.317 353.28 123.463 353.306 123.601C353.332 123.738 353.306 123.777 353.336 123.867C353.366 123.958 353.375 124.16 353.4 124.297C353.426 124.435 353.478 124.68 353.529 124.865C353.529 124.947 353.581 125.024 353.607 125.106C353.633 125.187 353.701 125.394 353.757 125.536C353.813 125.678 353.817 125.686 353.852 125.759C353.916 125.91 353.994 126.056 354.071 126.189C354.105 126.245 354.131 126.301 354.166 126.357C354.284 126.558 354.416 126.751 354.561 126.933C355.477 128.081 356.836 128.812 357.837 129.887C357.837 129.93 357.837 129.973 357.837 130.016C357.837 130.132 357.837 130.248 357.837 130.368C357.899 132.766 358.545 135.112 359.72 137.203C360.895 139.293 362.563 141.065 364.579 142.364C364.579 142.528 364.6 142.695 364.609 142.863C364.693 144.138 364.677 145.417 364.562 146.69C364.386 146.484 364.167 146.32 363.92 146.21C363.673 146.1 363.404 146.046 363.134 146.053C362.949 146.044 362.764 146.06 362.584 146.101L362.545 146.071V146.109C361.599 146.341 360.434 147.326 359.321 150.125C359.321 150.125 355.933 153.943 353.353 153.784C350.773 153.625 344.243 157.761 344.243 157.761C344.243 157.761 337.871 161.893 336.504 166.107C335.74 168.497 334.822 170.835 333.757 173.106L325.859 189.325L324.41 202.223C324.41 202.223 325.214 207.946 325.055 208.823C324.895 209.7 328.361 217.569 328.361 217.569C328.361 217.569 339.81 237.682 344.488 238.714L344.823 238.482C345.024 238.583 345.236 238.661 345.455 238.714L346.418 238.039C346.478 238.795 346.452 239.555 346.341 240.305C345.7 242.296 346.586 255.255 347.712 257.796C348.839 260.337 348.439 293.659 348.439 293.659L348.28 296.595C348.28 296.595 348.28 296.69 348.319 296.853L348.28 297.55L348.396 297.61C348.516 298.544 348.477 299.492 348.28 300.413C347.876 301.703 347.712 305.345 347.712 305.345C347.712 305.345 344.488 325.932 346.018 330.068C347.549 334.204 348.843 338.736 348.843 338.736C348.843 338.736 350.455 343.895 348.92 344.755C347.386 345.615 343.039 347.142 343.925 349.287C344.741 351.273 347.841 356.596 348.301 357.375L348.263 357.805L347.631 364.654C347.733 365.558 347.978 366.441 348.357 367.268C349.049 368.764 350.391 370.308 352.953 370.14C353.383 370.11 353.878 370.063 354.363 369.998C359.045 369.366 364.807 367.277 364.807 367.277C364.508 367.087 364.235 366.861 363.994 366.602C363.764 366.379 363.582 366.111 363.458 365.815C363.335 365.52 363.273 365.202 363.276 364.882C363.345 363.631 361.01 357.693 360.426 356.227L360.292 355.9C360.292 355.9 365.615 350.332 364.729 345.405C364.729 345.405 358.839 341.965 360.778 340.073C362.717 338.181 366.182 332.764 366.182 332.764C366.182 332.764 366.341 312.491 366.182 309.468C366.017 307.366 366.116 305.251 366.479 303.174C366.544 302.864 366.621 302.559 366.703 302.254C369.387 302.659 372.097 302.864 374.811 302.869C375.803 302.869 376.806 302.848 377.821 302.808C377.821 303.095 377.834 303.405 377.86 303.737C378.083 308.759 378.5 317.569 378.84 320.841C379.321 325.527 381.983 338.173 381.983 338.173C381.983 338.173 376.905 341.427 382.868 349.463C382.868 349.463 382.868 352.37 382.473 352.796C382.05 354.174 381.71 355.577 381.454 356.996C381.204 358.505 381.101 360.04 381.505 360.832C382.473 362.732 388.277 362.577 388.277 362.577C388.324 362.566 388.371 362.559 388.419 362.556C389.514 362.44 390.622 362.544 391.677 362.861C392.732 363.179 393.713 363.703 394.563 364.404C396.768 366.176 405.135 365.402 409.671 364.834C411.446 364.607 412.633 364.404 412.633 364.404C412.69 364.203 412.71 363.994 412.693 363.785C412.646 362.672 411.773 360.23 405.857 358.05C405.857 358.05 400.294 354.309 400.371 351.05H400.246H399.606C400.01 351.037 400.294 351.037 400.294 351.037C400.294 351.037 398.114 343.087 399.004 342.438C399.894 341.789 397.228 332.979 397.228 332.979C397.228 332.979 395.702 318.188 395.616 317.156C395.622 316.267 395.758 315.383 396.02 314.533L395.616 306.42C395.616 306.42 395.539 303.724 395.616 302.847C395.607 302.086 395.547 301.326 395.435 300.573C395.397 300.272 395.358 299.958 395.315 299.648C397.4 299.119 398.755 298.633 398.755 298.633L398.514 270.406C400.285 266.967 400.612 259.417 400.603 254.068C400.603 250.628 400.448 248.083 400.448 248.083L402.869 244.132C402.869 244.132 403.428 239.402 402.542 238.366C402.151 237.897 402.327 237.411 402.65 237.011C402.819 236.872 402.999 236.746 403.187 236.633C403.166 236.603 403.147 236.572 403.131 236.539C403.3 236.397 403.48 236.269 403.669 236.156C403.669 236.156 402.809 234.823 403.578 234.26C404.301 234.75 404.946 235.141 405.436 235.421C405.401 235.734 405.367 235.915 405.367 235.915L405.573 235.485C406.046 235.752 406.334 235.915 406.334 235.915C406.334 235.915 410.126 228.361 410.045 227.251C409.963 226.142 412.624 221.447 412.624 221.447C412.624 221.447 412.947 218.979 414.4 217.947C415.853 216.915 415.526 209.438 415.526 209.438C415.526 209.438 415.931 205.543 416.898 203.956C417.865 202.37 416.034 200.211 416.034 200.211ZM343.477 196.896L343.551 198.698C343.121 198.005 342.811 197.511 342.811 197.511L343.477 196.896Z" fill="url(#paint1_linear)"/>
<path d="M406.558 232.647L405.629 236.603C405.629 236.603 398.192 232.798 396.854 227.982C395.517 223.167 399.094 221.331 399.094 221.331L406.029 224.263L406.558 232.647Z" fill="white"/>
<path opacity="0.1" d="M406.558 232.647L405.629 236.603C405.629 236.603 398.192 232.798 396.854 227.982C395.517 223.167 399.094 221.331 399.094 221.331L406.029 224.263L406.558 232.647Z" fill="black"/>
<path d="M364.816 367.272C364.816 367.272 357.936 369.8 353.207 370.119C350.696 370.286 349.376 368.747 348.697 367.264C348.328 366.446 348.087 365.575 347.983 364.684L348.607 357.869L348.934 354.244L358.981 351.63L360.404 355.986L360.538 356.313C361.105 357.77 363.401 363.678 363.332 364.912C363.327 365.231 363.386 365.548 363.506 365.843C363.627 366.139 363.806 366.407 364.033 366.632C364.266 366.877 364.529 367.093 364.816 367.272Z" fill="white"/>
<path d="M411.782 363.807C411.8 364.015 411.779 364.225 411.722 364.426C411.722 364.426 397.009 366.877 394 364.426C393.154 363.71 392.168 363.178 391.105 362.865C390.042 362.552 388.925 362.464 387.826 362.607C387.826 362.607 382.133 362.762 381.183 360.887C380.788 360.101 380.891 358.574 381.136 357.074C381.386 355.662 381.719 354.267 382.133 352.894L382.361 352.714L383.716 351.626L399.572 351.157H399.692C399.615 354.399 405.071 358.118 405.071 358.118C410.879 360.268 411.735 362.697 411.782 363.807Z" fill="white"/>
<path opacity="0.1" d="M411.786 363.807C411.801 364.015 411.78 364.225 411.722 364.426C411.722 364.426 397.009 366.877 394.004 364.426C393.157 363.709 392.171 363.178 391.107 362.864C390.043 362.551 388.925 362.464 387.826 362.607C387.826 362.607 382.129 362.762 381.179 360.887C380.788 360.101 380.887 358.574 381.132 357.069C383.324 357.289 386.785 357.835 388.144 359.142C390.199 361.12 393.682 363.097 395.814 363.256C397.499 363.36 407.521 363.678 411.786 363.807Z" fill="black"/>
<path opacity="0.1" d="M364.815 367.272C364.815 367.272 357.936 369.801 353.207 370.119C350.696 370.286 349.376 368.747 348.697 367.264C350.451 367.853 352.88 368.468 354.157 367.904C355.671 367.229 361.036 366.799 364.046 366.615C364.273 366.866 364.531 367.087 364.815 367.272Z" fill="black"/>
<path d="M375.022 163.518C369.347 161.313 362.047 154.025 363.869 150.619C364.272 149.759 364.513 148.832 364.579 147.885C364.696 146.598 364.713 145.305 364.63 144.015C364.502 141.902 364.248 139.799 363.869 137.716C363.869 137.716 381.587 138.116 380.555 140.726C380.254 141.496 380.203 142.824 380.289 144.308C380.375 145.791 380.585 147.481 380.809 148.904C381.114 150.852 381.428 152.344 381.428 152.344C381.428 152.344 380.34 153.861 379.708 153.943C379.076 154.025 383.165 166.678 375.022 163.518Z" fill="#CF6F80"/>
<path opacity="0.1" d="M360.52 356.291L360.387 356.437C355.09 350.031 348.684 358.019 348.684 358.019L348.589 357.848L348.916 354.223L358.964 351.609L360.387 355.964L360.52 356.291Z" fill="black"/>
<path opacity="0.1" d="M399.7 351.609C399.7 351.609 395.831 351.531 393.767 353.354C391.704 355.177 381.729 353.746 382.159 353.354C382.284 353.156 382.361 352.93 382.383 352.697L383.737 351.609L399.593 351.14C399.653 351.441 399.7 351.609 399.7 351.609Z" fill="black"/>
<path d="M367.111 301.299C366.824 302.012 366.605 302.75 366.458 303.505C366.099 305.571 365.999 307.674 366.161 309.765C366.32 312.775 366.161 332.944 366.161 332.944C366.161 332.944 362.76 338.323 360.86 340.219C358.96 342.115 364.729 345.521 364.729 345.521C365.589 350.426 360.378 355.964 360.378 355.964C355.081 349.558 348.675 357.542 348.675 357.542C348.675 357.542 345.193 351.523 344.324 349.373C343.456 347.223 347.725 345.74 349.226 344.863C350.726 343.986 349.148 338.843 349.148 338.843C349.148 338.843 347.884 334.333 346.379 330.218C344.875 326.104 348.039 305.624 348.039 305.624C348.039 305.624 348.202 301.983 348.594 300.714C348.789 299.799 348.828 298.857 348.71 297.928C348.684 297.614 348.654 297.356 348.632 297.176C348.611 296.995 348.594 296.918 348.594 296.918L348.654 296.815L350.804 292.807C350.804 292.807 368.143 298.775 367.111 301.299Z" fill="#EA4848"/>
<path d="M399.701 351.136C399.701 351.136 395.831 351.054 393.767 352.856C391.704 354.657 381.729 353.251 382.159 352.856C382.589 352.46 382.55 349.536 382.55 349.536C376.699 341.543 381.69 338.302 381.69 338.302C381.69 338.302 379.081 325.725 378.608 321.06C378.277 317.805 377.868 309.021 377.649 304.047C377.554 301.897 377.499 300.413 377.499 300.413L382.236 299.472L382.851 299.351L394.382 297.034C394.382 297.034 394.7 299.184 394.915 300.942C395.024 301.693 395.083 302.45 395.092 303.208C395.019 304.068 395.092 306.764 395.092 306.764L395.487 314.83C395.232 315.677 395.099 316.556 395.092 317.44C395.173 318.472 396.674 333.181 396.674 333.181C396.674 333.181 399.284 341.96 398.394 342.593C397.504 343.225 399.701 351.136 399.701 351.136Z" fill="#EA4848"/>
<path opacity="0.1" d="M380.555 140.739C380.254 141.509 380.203 142.837 380.289 144.321C377.915 145.75 375.187 146.48 372.417 146.429C369.648 146.377 366.949 145.545 364.63 144.028C364.502 141.915 364.248 139.812 363.869 137.729C363.869 137.729 381.587 138.129 380.555 140.739Z" fill="black"/>
<path d="M387.396 131.245C387.443 135.147 385.938 138.906 383.213 141.698C380.487 144.489 376.765 146.084 372.864 146.131C368.963 146.177 365.203 144.673 362.412 141.947C359.621 139.222 358.026 135.499 357.979 131.598C357.979 131.478 357.979 131.366 357.979 131.245C357.979 127.343 359.53 123.601 362.289 120.842C365.048 118.082 368.79 116.532 372.692 116.532C376.594 116.532 380.336 118.082 383.095 120.842C385.854 123.601 387.404 127.343 387.404 131.245H387.396Z" fill="#CF6F80"/>
<path opacity="0.1" d="M375.022 163.518C369.347 161.313 362.047 154.025 363.869 150.619C364.272 149.759 364.513 148.832 364.579 147.885L372.348 154.274L377.155 158.217L380.809 148.917C381.114 150.865 381.428 152.356 381.428 152.356C381.428 152.356 380.34 153.874 379.708 153.956C379.076 154.038 383.165 166.678 375.022 163.518Z" fill="black"/>
<path d="M395.113 191.754L388.625 300.749L380.164 301.303L358.25 238.104L361.845 163.071L362.606 147.219L372.348 155.22L377.155 159.163L380.917 149.588L387.912 155.684L395.113 191.754Z" fill="#EA4848"/>
<path opacity="0.1" d="M367.111 301.299C366.824 302.012 366.605 302.75 366.458 303.505C360.295 302.556 354.31 300.688 348.701 297.963L348.585 297.902L348.624 297.21V296.849L350.774 292.842C350.774 292.842 368.143 298.775 367.111 301.299Z" fill="black"/>
<path opacity="0.1" d="M382.378 303.522C380.804 303.791 379.217 303.973 377.623 304.068C377.529 301.918 377.473 300.435 377.473 300.435L382.236 299.472L382.378 303.522Z" fill="black"/>
<path opacity="0.1" d="M394.932 300.942C391.876 301.738 387.151 302.632 382.929 302.073L382.868 299.351L394.399 297.034C394.399 297.034 394.705 299.166 394.932 300.942Z" fill="black"/>
<path opacity="0.1" d="M382.851 302.572C365.224 305.581 349.08 296.952 349.08 296.952L349.234 294.028C349.234 294.028 349.634 260.883 348.525 258.342C347.416 255.801 346.552 242.932 347.179 240.967C347.807 239.002 344.888 209.335 344.888 209.335L344.415 197.296L327.093 190.258L334.831 174.121C335.876 171.859 336.775 169.533 337.523 167.156C338.869 162.964 345.116 158.849 345.116 158.849C345.116 158.849 351.522 154.738 354.054 154.893C356.586 155.048 359.905 151.256 359.905 151.256C362.356 145.008 364.575 147.816 364.575 147.816C364.575 148.117 364.575 147.816 364.454 148.741C363.594 155.598 378.358 177.268 378.569 177.655L379.992 211.906L381.415 255.25L382.851 302.572Z" fill="black"/>
<path d="M382.379 302.572C364.751 305.581 348.603 296.952 348.603 296.952L348.762 294.028C348.762 294.028 349.157 260.883 348.048 258.342C346.939 255.801 346.075 242.919 346.707 240.937C347.339 238.955 344.402 209.318 344.402 209.318L343.925 197.279L326.607 190.24L334.346 174.104C335.388 171.842 336.287 169.517 337.037 167.143C338.383 162.964 344.651 158.845 344.651 158.845C344.651 158.845 351.058 154.734 353.586 154.889C356.114 155.044 359.45 151.256 359.45 151.256C361.905 145.008 364.609 147.816 364.609 147.816C364.609 148.117 364.351 148.246 364.489 148.741C366.38 155.392 377.92 177.268 378.131 177.655L379.554 211.906L380.947 255.272L382.379 302.572Z" fill="white"/>
<path opacity="0.1" d="M377.627 178.623C375.731 177.832 365.688 166.365 365.688 166.365V163.755C365.323 162.895 363.147 163.419 361.389 164.021L362.145 148.169L363.005 148.882C364.884 155.53 377.421 178.24 377.627 178.623Z" fill="black"/>
<path d="M378.105 177.677C376.205 176.881 366.161 165.419 366.161 165.419V162.805C365.796 161.945 363.625 162.469 361.862 163.071L362.606 147.236L363.466 147.945C365.362 154.584 377.894 177.29 378.105 177.677Z" fill="white"/>
<path opacity="0.1" d="M349.08 234.862C349.316 234.862 361.337 233.598 361.337 233.598C361.337 233.598 368.616 247.915 368.139 251.394C367.662 254.872 366.797 257.959 363.87 257.413C360.942 256.867 348.112 257.843 348.112 257.843L349.08 234.862Z" fill="black"/>
<path d="M348.602 233.911C348.843 233.911 360.864 232.647 360.864 232.647C360.864 232.647 368.139 246.987 367.666 250.426C367.193 253.866 366.32 256.992 363.397 256.446C360.473 255.9 347.635 256.876 347.635 256.876L348.602 233.911Z" fill="white"/>
<path d="M357.661 227.208C357.661 227.208 368.693 233.142 368.93 234.948C369.166 236.753 363.315 234.157 362.051 233.838C361.218 233.641 360.372 233.508 359.518 233.443L351.087 233.671L357.661 227.208Z" fill="#CF6F80"/>
<path opacity="0.1" d="M374.545 179.362C375.186 179.362 375.706 178.843 375.706 178.201C375.706 177.56 375.186 177.041 374.545 177.041C373.904 177.041 373.384 177.56 373.384 178.201C373.384 178.843 373.904 179.362 374.545 179.362Z" fill="black"/>
<path d="M374.545 178.889C375.186 178.889 375.706 178.37 375.706 177.728C375.706 177.087 375.186 176.568 374.545 176.568C373.904 176.568 373.384 177.087 373.384 177.728C373.384 178.37 373.904 178.889 374.545 178.889Z" fill="#3F3D56"/>
<path opacity="0.1" d="M376.682 229.616C377.323 229.616 377.842 229.096 377.842 228.455C377.842 227.814 377.323 227.294 376.682 227.294C376.04 227.294 375.521 227.814 375.521 228.455C375.521 229.096 376.04 229.616 376.682 229.616Z" fill="black"/>
<path d="M376.682 229.139C377.323 229.139 377.842 228.619 377.842 227.978C377.842 227.337 377.323 226.817 376.682 226.817C376.04 226.817 375.521 227.337 375.521 227.978C375.521 228.619 376.04 229.139 376.682 229.139Z" fill="#3F3D56"/>
<path opacity="0.1" d="M375.706 204.489C376.347 204.489 376.867 203.969 376.867 203.328C376.867 202.687 376.347 202.167 375.706 202.167C375.065 202.167 374.545 202.687 374.545 203.328C374.545 203.969 375.065 204.489 375.706 204.489Z" fill="black"/>
<path d="M375.706 204.016C376.347 204.016 376.867 203.496 376.867 202.855C376.867 202.214 376.347 201.694 375.706 201.694C375.065 201.694 374.545 202.214 374.545 202.855C374.545 203.496 375.065 204.016 375.706 204.016Z" fill="#3F3D56"/>
<path d="M402.465 233.202C402.465 233.202 403.256 234.389 402.465 234.922C401.674 235.455 402.542 236.822 402.542 236.822C402.542 236.822 400.569 237.974 401.437 239.019C402.306 240.064 401.756 244.755 401.756 244.755L399.382 248.706C399.382 248.706 399.524 251.239 399.533 254.661C399.533 260.001 399.219 267.508 397.482 270.931L397.714 299.012C397.714 299.012 389.403 302.052 382.447 301.123L381.415 256.063C381.415 256.063 382.92 230.51 383.475 225.609C383.799 223.064 383.931 220.499 383.87 217.934C383.87 217.934 383.634 210.264 382.838 206.708C382.838 206.708 381.978 191.281 381.892 187.011C381.854 184.969 381.961 179.01 382.082 173.343C382.215 167.147 382.365 161.304 382.365 161.304L380.796 148.882C380.796 148.882 382.365 148.728 382.838 149.355C383.05 149.553 383.281 149.73 383.526 149.884C386.239 151.716 395.81 157.348 395.81 157.348C395.81 157.348 401.106 159.455 402.375 162.473C403.643 165.492 404.524 167.633 405.139 168.493C405.754 169.353 406.089 173.394 406.089 173.394C406.089 173.394 407.912 180.833 409.335 182.093C410.759 183.352 411.782 191.35 411.782 191.35L399.206 201.239C399.206 201.239 398.101 217.689 397.865 218.325C397.628 218.962 402.465 233.202 402.465 233.202Z" fill="white"/>
<path d="M402.942 233.202C402.942 233.202 403.729 234.389 402.942 234.922C402.155 235.455 403.015 236.822 403.015 236.822C403.015 236.822 401.042 237.974 401.91 239.019C402.779 240.064 402.229 244.755 402.229 244.755L399.864 248.706C399.864 248.706 400.006 251.239 400.019 254.661C400.019 260.001 399.705 267.508 397.968 270.931L398.204 299.012C398.204 299.012 389.894 302.051 382.937 301.123L381.91 256.063C381.91 256.063 383.41 230.51 383.969 225.609C384.294 223.064 384.425 220.499 384.36 217.934C384.36 217.934 384.124 210.264 383.333 206.708C383.333 206.708 382.473 191.281 382.383 187.011C382.344 184.969 382.451 179.01 382.572 173.343C382.705 167.147 382.856 161.304 382.856 161.304L380.783 148.715C380.783 148.715 382.856 148.715 383.333 149.355C383.543 149.556 383.773 149.733 384.021 149.884C386.729 151.716 396.3 157.348 396.3 157.348C396.3 157.348 401.584 159.455 402.873 162.473C404.163 165.492 405.023 167.633 405.638 168.493C406.253 169.353 406.588 173.394 406.588 173.394C406.588 173.394 408.411 180.833 409.834 182.093C411.257 183.352 412.285 191.35 412.285 191.35L399.709 201.239C399.709 201.239 398.604 217.689 398.363 218.325C398.123 218.962 402.942 233.202 402.942 233.202Z" fill="white"/>
<path opacity="0.1" d="M387.882 164.954L389.021 168.265L383.041 174.284C383.174 168.089 383.324 162.246 383.324 162.246L381.252 149.661C381.252 149.661 383.324 149.661 383.802 150.301C384.011 150.502 384.242 150.679 384.489 150.83L389.571 165.487L387.882 164.954Z" fill="black"/>
<path d="M387.396 164.004L388.535 167.311L382.559 173.33C382.688 167.134 382.843 161.291 382.843 161.291L380.766 148.702C380.766 148.702 382.843 148.702 383.316 149.343C383.527 149.542 383.757 149.719 384.004 149.871L389.116 164.542L387.396 164.004Z" fill="white"/>
<path opacity="0.1" d="M387.396 131.245C387.397 132.795 387.154 134.334 386.674 135.807C386.593 135.821 386.51 135.818 386.43 135.799C386.35 135.78 386.275 135.744 386.209 135.696C386.093 131.826 384.193 128.188 381.85 125.097C381.191 124.165 380.393 123.338 379.485 122.646C378.566 121.956 377.422 121.633 376.278 121.739C374.988 121.915 373.848 122.792 372.546 122.904C370.826 123.046 369.287 121.855 367.58 121.799C366.886 121.805 366.201 121.959 365.572 122.251C364.942 122.544 364.382 122.967 363.93 123.493C363.032 124.552 362.366 125.787 361.974 127.118C361.298 129.138 360.929 131.248 360.882 133.378C360.86 134.582 360.744 136.091 359.626 136.53C359.711 135.645 359.61 134.752 359.331 133.908C359.052 133.065 358.601 132.288 358.005 131.628L357.979 131.598C357.979 131.478 357.979 131.366 357.979 131.245C357.979 127.343 359.53 123.601 362.289 120.842C365.048 118.082 368.79 116.532 372.692 116.532C376.594 116.532 380.336 118.082 383.095 120.842C385.854 123.601 387.404 127.343 387.404 131.245H387.396Z" fill="black"/>
<path d="M378.797 107.886C376.563 106.835 374.022 106.636 371.651 107.327C370.46 107.679 369.338 108.251 368.13 108.539C365.55 109.163 362.541 108.488 360.327 109.997C359.097 110.857 358.358 112.215 357.67 113.54L355.95 116.812C355.013 118.605 354.067 120.428 353.676 122.401C353.284 124.375 353.521 126.585 354.772 128.176C355.679 129.328 357.029 130.055 358.018 131.142C358.612 131.806 359.062 132.585 359.341 133.43C359.619 134.276 359.719 135.17 359.634 136.057C360.752 135.627 360.864 134.109 360.89 132.905C360.938 130.775 361.306 128.665 361.982 126.645C362.374 125.314 363.041 124.079 363.938 123.02C364.39 122.493 364.95 122.069 365.58 121.776C366.209 121.484 366.894 121.329 367.588 121.322C369.308 121.382 370.852 122.573 372.554 122.427C373.844 122.32 374.988 121.442 376.286 121.266C377.431 121.158 378.575 121.481 379.493 122.173C380.402 122.863 381.199 123.69 381.854 124.624C384.201 127.72 386.106 131.34 386.218 135.223C386.703 135.575 387.404 135.111 387.645 134.561C387.886 134.01 387.894 133.365 388.2 132.841C388.552 132.234 389.227 131.908 389.756 131.452C391.097 130.295 391.433 128.348 391.381 126.58C391.329 124.813 390.986 123.02 391.321 121.283C391.523 120.221 391.979 119.22 392.228 118.166C392.477 117.113 392.508 115.93 391.918 115.023C391.059 113.695 389.249 113.428 387.671 113.303C385.878 113.148 384.274 113.346 383.131 111.837C382.592 111.051 381.988 110.311 381.325 109.627C381.088 109.399 378.797 107.98 378.797 107.886Z" fill="#512E4E"/>
<path opacity="0.1" d="M332.054 198.556L327.566 190.253L326.143 203.066C326.143 203.066 326.934 208.759 326.775 209.631C326.615 210.504 330.016 218.33 330.016 218.33C330.016 218.33 341.251 238.344 345.838 239.372L361.316 228.296L357.206 223.076C357.206 223.076 355.782 222.522 355.426 223.076C355.426 223.076 347.79 209.945 347.003 208.999C346.216 208.054 346.367 206.149 346.367 206.149C346.367 206.149 345.18 204.885 345.576 203.698C345.971 202.511 343.306 198.401 343.306 198.401L345.756 196.109L332.054 198.556Z" fill="black"/>
<path d="M327.802 189.303L326.615 190.253L325.192 203.066C325.192 203.066 325.983 208.759 325.824 209.632C325.665 210.504 329.07 218.33 329.07 218.33C329.07 218.33 340.3 238.344 344.888 239.372L360.391 228.296L356.277 223.076C356.277 223.076 354.854 222.522 354.497 223.076C354.497 223.076 346.865 209.945 346.074 208.999C345.283 208.054 345.442 206.149 345.442 206.149C345.442 206.149 344.256 204.885 344.651 203.698C345.047 202.511 342.355 198.401 342.355 198.401L344.806 196.109L327.802 189.303Z" fill="white"/>
<path opacity="0.1" d="M401.437 239.514C402.297 240.559 401.755 245.254 401.755 245.254L399.382 249.179C399.382 249.179 399.524 251.716 399.533 255.139L395.543 256.385C395.182 256.498 394.799 256.523 394.426 256.457C394.054 256.392 393.702 256.238 393.401 256.009C393.1 255.781 392.858 255.483 392.695 255.141C392.532 254.8 392.453 254.425 392.465 254.046L393.157 231.86L402.465 235.416C401.674 235.967 402.542 237.317 402.542 237.317C402.542 237.317 400.569 238.469 401.437 239.514Z" fill="black"/>
<path d="M401.91 239.041C402.77 240.081 402.229 244.777 402.229 244.777L399.864 248.706C399.864 248.706 400.006 251.239 400.019 254.661L395.956 255.93C395.603 256.04 395.229 256.065 394.865 256.001C394.5 255.938 394.157 255.788 393.862 255.565C393.567 255.341 393.331 255.051 393.171 254.717C393.012 254.383 392.935 254.016 392.946 253.647L393.638 231.383L402.942 234.948C402.147 235.498 403.015 236.848 403.015 236.848C403.015 236.848 401.042 237.996 401.91 239.041Z" fill="white"/>
<path d="M404.997 228.455C404.997 228.455 404.365 232.493 402.783 232.729C401.201 232.965 400.492 239.26 398.914 239.041C397.336 238.822 398.381 233.185 398.437 232.093C398.493 231.001 396.717 226.477 398.041 225.45C399.365 224.422 403.579 225.45 403.579 225.45L404.997 228.455Z" fill="#CF6F80"/>
<path opacity="0.1" d="M408.342 197.369L411.322 191.35C411.322 191.35 412.513 195.937 412.513 198.388C412.513 200.839 414.172 201.08 414.172 201.08C414.172 201.08 415.991 203.229 415.032 204.799C414.073 206.368 413.691 210.255 413.691 210.255C413.691 210.255 414.005 217.689 412.581 218.717C411.158 219.744 410.84 222.199 410.84 222.199C410.84 222.199 408.23 226.864 408.312 227.974C408.394 229.083 404.675 236.594 404.675 236.594C404.675 236.594 406.493 227.26 395.895 223.227C395.895 223.227 395.814 220.062 396.605 219.194C397.396 218.325 398.63 217.904 397.856 213.536C397.082 209.167 397.632 203.9 397.632 202.847C397.632 201.793 400.006 195.228 400.006 195.228L408.342 197.369Z" fill="black"/>
<path d="M409.666 190.49L412.272 191.35C412.272 191.35 413.463 195.937 413.463 198.388C413.463 200.839 415.122 201.08 415.122 201.08C415.122 201.08 416.941 203.229 415.982 204.799C415.024 206.368 414.637 210.255 414.637 210.255C414.637 210.255 414.955 217.689 413.532 218.717C412.109 219.744 411.812 222.199 411.812 222.199C411.812 222.199 409.202 226.864 409.284 227.974C409.366 229.083 405.642 236.594 405.642 236.594C405.642 236.594 407.461 227.26 396.863 223.227C396.863 223.227 396.786 220.062 397.577 219.194C398.368 218.325 399.602 217.904 398.828 213.536C398.054 209.167 398.604 203.9 398.604 202.847C398.604 201.793 400.977 195.228 400.977 195.228L409.666 190.49Z" fill="white"/>
<path opacity="0.1" d="M352.106 346.51C352.106 346.51 356.26 343.9 358.985 345.796C361.711 347.692 352.106 346.51 352.106 346.51Z" fill="black"/>
<path opacity="0.1" d="M384.386 338.439C384.386 338.439 388.062 337.966 391.149 341.29C394.236 344.613 384.386 338.439 384.386 338.439Z" fill="black"/>
<g opacity="0.1">
<path opacity="0.1" d="M389.756 130.506C389.227 130.966 388.548 131.288 388.195 131.895C387.895 132.415 387.886 133.06 387.645 133.614C387.404 134.169 386.704 134.629 386.213 134.277C386.102 130.407 384.197 126.774 381.854 123.678C381.199 122.745 380.402 121.92 379.494 121.232C378.574 120.538 377.429 120.213 376.282 120.32C374.992 120.496 373.857 121.373 372.554 121.485C370.835 121.627 369.291 120.436 367.584 120.38C366.891 120.385 366.206 120.539 365.578 120.832C364.949 121.124 364.39 121.548 363.938 122.074C363.041 123.133 362.375 124.368 361.982 125.699C361.307 127.719 360.938 129.829 360.89 131.959C360.864 133.159 360.753 134.655 359.643 135.102C359.669 135.421 359.669 135.742 359.643 136.061C360.765 135.631 360.877 134.113 360.903 132.909C360.951 130.78 361.319 128.669 361.995 126.649C362.387 125.318 363.054 124.083 363.951 123.024C364.403 122.498 364.962 122.074 365.591 121.781C366.219 121.488 366.904 121.333 367.597 121.326C369.317 121.386 370.865 122.577 372.567 122.431C373.857 122.324 375.001 121.447 376.295 121.27C377.441 121.162 378.586 121.486 379.506 122.177C380.415 122.867 381.212 123.694 381.867 124.628C384.21 127.724 386.115 131.344 386.226 135.227C386.717 135.579 387.417 135.115 387.658 134.565C387.899 134.014 387.907 133.369 388.208 132.845C388.561 132.239 389.24 131.912 389.769 131.456C391.11 130.299 391.446 128.352 391.394 126.585C391.394 126.529 391.394 126.477 391.394 126.421C391.308 127.96 390.9 129.521 389.756 130.506Z" fill="black"/>
<path opacity="0.1" d="M358.014 130.205C357.029 129.117 355.679 128.386 354.772 127.234C354.006 126.217 353.569 124.989 353.521 123.717C353.386 125.308 353.83 126.894 354.772 128.184C355.679 129.336 357.029 130.063 358.014 131.151C358.965 132.214 359.536 133.563 359.639 134.986C359.704 134.121 359.593 133.251 359.314 132.43C359.035 131.608 358.592 130.852 358.014 130.205Z" fill="black"/>
<path opacity="0.1" d="M392.228 117.22C391.975 118.273 391.523 119.275 391.317 120.337C391.193 121.055 391.148 121.785 391.184 122.513C391.198 122.102 391.242 121.692 391.317 121.288C391.523 120.226 391.975 119.224 392.228 118.17C392.374 117.589 392.422 116.987 392.37 116.39C392.343 116.67 392.295 116.947 392.228 117.22Z" fill="black"/>
</g>
<path opacity="0.1" d="M57.0658 360.685C80.2027 360.685 98.9589 357.673 98.9589 353.956C98.9589 350.24 80.2027 347.227 57.0658 347.227C33.9288 347.227 15.1726 350.24 15.1726 353.956C15.1726 357.673 33.9288 360.685 57.0658 360.685Z" fill="#EA4848"/>
<path d="M58.4157 225.05H55.72V285.747H58.4157V225.05Z" fill="#535461"/>
<path d="M75.3597 285.567L75.1877 288.301L74.9512 292.171L74.8523 293.779L74.6116 297.649L74.5084 299.257L74.2719 303.126L71.5504 347.012C71.4344 348.901 70.6025 350.673 69.2243 351.969C67.8462 353.265 66.0257 353.987 64.134 353.986H50.0019C48.105 353.987 46.2798 353.262 44.9006 351.96C43.5215 350.657 42.6931 348.876 42.5855 346.982L39.864 303.096L39.6275 299.227L39.5286 297.619L39.2836 293.749L39.1847 292.141L38.9482 288.271L38.7762 285.537C38.7465 285.013 38.8237 284.488 39.0032 283.994C39.1826 283.501 39.4606 283.049 39.8202 282.667C40.1797 282.284 40.6134 281.979 41.0947 281.769C41.576 281.56 42.0949 281.45 42.6199 281.448H71.5203C72.0476 281.451 72.5687 281.561 73.0517 281.773C73.5346 281.985 73.9692 282.293 74.3287 282.679C74.6883 283.065 74.9652 283.52 75.1425 284.016C75.3197 284.513 75.3937 285.041 75.3597 285.567Z" fill="#3F3D56"/>
<path d="M75.1876 288.297L74.9469 292.158H39.1846L38.9438 288.297H75.1876Z" fill="#9D9CB5"/>
<path d="M74.8479 293.766L74.6114 297.627H39.5242L39.2834 293.766H74.8479Z" fill="#9D9CB5"/>
<path d="M74.5082 299.24L74.2718 303.096H39.8638L39.623 299.24H74.5082Z" fill="#9D9CB5"/>
<path d="M34.8465 247.804C50.5478 259.163 57.0872 276.929 57.0872 276.929C57.0872 276.929 38.1699 276.28 22.4643 264.92C6.75865 253.561 0.210693 235.808 0.210693 235.808C0.210693 235.808 19.128 236.444 34.8465 247.804Z" fill="#EA4848"/>
<path d="M0.210693 235.808C0.210693 235.808 19.846 246.707 26.1446 255.732C32.4432 264.757 57.07 276.938 57.07 276.938" stroke="#535461" stroke-width="2" stroke-miterlimit="10"/>
<path d="M44.9628 224.921C53.51 231.099 57.0699 240.769 57.0699 240.769C57.0699 240.769 46.7514 240.417 38.2257 234.238C29.7 228.06 26.1187 218.385 26.1187 218.385C26.1187 218.385 36.42 218.738 44.9628 224.921Z" fill="#EA4848"/>
<path d="M26.1187 218.385C26.1187 218.385 36.8069 224.319 40.2378 229.229C43.6687 234.139 57.0699 240.769 57.0699 240.769" stroke="#535461" stroke-width="2" stroke-miterlimit="10"/>
<path d="M69.4866 240.279C59.6711 251.067 57.5945 265.165 57.5945 265.165C57.5945 265.165 71.4342 261.769 81.2411 250.977C91.048 240.185 93.1332 226.09 93.1332 226.09C93.1332 226.09 79.3021 229.491 69.4866 240.279Z" fill="#EA4848"/>
<path d="M93.1418 226.095C93.1418 226.095 80.3554 237.153 77.1051 244.772C73.8547 252.391 57.5945 265.165 57.5945 265.165" stroke="#535461" stroke-width="2" stroke-miterlimit="10"/>
</g>
<defs>
<linearGradient id="paint0_linear" x1="200.149" y1="359.258" x2="200.149" y2="110.891" gradientUnits="userSpaceOnUse">
<stop stop-color="#808080" stop-opacity="0.25"/>
<stop offset="0.54" stop-color="#808080" stop-opacity="0.12"/>
<stop offset="1" stop-color="#808080" stop-opacity="0.1"/>
</linearGradient>
<linearGradient id="paint1_linear" x1="81808.2" y1="232760" x2="81808.2" y2="69967.2" gradientUnits="userSpaceOnUse">
<stop stop-color="#808080" stop-opacity="0.25"/>
<stop offset="0.54" stop-color="#808080" stop-opacity="0.12"/>
<stop offset="1" stop-color="#808080" stop-opacity="0.1"/>
</linearGradient>
<clipPath id="clip0">
<rect width="502" height="371" fill="white"/>
</clipPath>
</defs>
</svg>
