<svg width="916" height="578" viewBox="0 0 916 578" fill="none" xmlns="http://www.w3.org/2000/svg">
<g clip-path="url(#clip0)">
<path opacity="0.1" d="M304.532 577.675C349.14 577.675 385.303 572.501 385.303 566.119C385.303 559.736 349.14 554.562 304.532 554.562C259.923 554.562 223.761 559.736 223.761 566.119C223.761 572.501 259.923 577.675 304.532 577.675Z" fill="#EA4848"/>
<path opacity="0.1" d="M743.591 578C799.255 578 844.38 572.826 844.38 566.443C844.38 560.061 799.255 554.887 743.591 554.887C687.926 554.887 642.801 560.061 642.801 566.443C642.801 572.826 687.926 578 743.591 578Z" fill="#EA4848"/>
<path opacity="0.1" d="M11.4722 249.738H95.6002V351.885H17.6312C17.4239 352.933 17.225 353.989 17.0095 355.045H95.6002V437.425C95.4593 437.388 95.335 437.344 95.2023 437.299C92.9808 436.517 90.7759 435.689 88.5709 434.803L87.1617 434.235C84.9512 433.304 82.7408 432.32 80.5303 431.281C79.7594 430.919 78.9885 430.543 78.2259 430.159C65.9543 424.035 54.8062 416.275 45.1682 407.149C44.8863 406.905 44.6211 406.647 44.3393 406.411C42.9964 405.111 41.6784 403.797 40.4018 402.453L38.9927 400.976C37.484 399.329 36.0251 397.638 34.6076 395.925C34.4004 395.674 34.2015 395.423 33.9859 395.186C28.2211 388.066 23.4345 380.356 19.7284 372.221C19.6123 371.978 19.5128 371.712 19.4051 371.483C18.2667 368.874 17.2581 366.24 16.3795 363.582C15.9982 362.467 15.6334 361.366 15.3185 360.207C15.2024 359.867 15.1029 359.535 15.0117 359.203C10.3034 342.832 9.74805 325.826 9.74805 308.938C9.74805 306.966 9.74805 304.987 9.74805 303.03C9.74805 296.2 9.83923 289.325 9.97186 282.457C9.97186 280.678 10.0547 278.906 10.0962 277.119C10.2122 272.585 10.378 268.051 10.5936 263.517C10.6433 262.254 10.7096 260.999 10.7842 259.743C10.7842 259.02 10.8257 258.296 10.9085 257.572C11.1075 254.944 11.2733 252.337 11.4722 249.738Z" fill="#EA4848"/>
<path opacity="0.1" d="M95.6003 136.004H49.4539C56.9552 125.545 65.1513 115.494 73.9984 105.906C80.8537 98.4033 88.0903 91.0929 95.6003 84.0482V136.004Z" fill="#EA4848"/>
<path opacity="0.1" d="M95.6002 139.165V246.577H11.7374C11.7374 246.267 11.7955 245.949 11.8203 245.639C11.8949 244.79 11.9695 243.941 12.0524 243.099C12.1436 242.11 12.2431 241.113 12.3508 240.145C12.4586 239.178 12.5746 237.996 12.699 236.926C12.8233 235.855 12.9394 234.77 13.0803 233.699C13.2212 232.628 13.3455 231.557 13.4948 230.494C13.644 229.431 13.7766 228.353 13.9341 227.289C14.0584 226.403 14.1911 225.524 14.3237 224.638C14.5143 223.39 14.7133 222.135 14.9288 220.894C14.9288 220.71 14.9868 220.518 15.02 220.341C16.5329 211.259 18.5944 202.257 21.1955 193.373C23.9182 184.054 27.395 174.923 31.5986 166.051C36.0662 156.77 41.2972 147.796 47.2488 139.202L95.6002 139.165Z" fill="#EA4848"/>
<path opacity="0.1" d="M115.777 261.728V359.639H295.449V261.728H115.777ZM115.777 362.662V446.743C116.805 446.927 117.824 447.104 118.835 447.253C120.211 447.479 121.579 447.685 122.98 447.862C123.245 447.897 123.518 447.932 123.809 447.954C124.356 448.031 124.919 448.095 125.466 448.159C126.85 448.322 128.226 448.456 129.611 448.562C130.265 448.619 130.928 448.668 131.592 448.711L133.191 448.817C134.062 448.874 134.924 448.916 135.777 448.937C136.308 448.937 136.838 448.98 137.385 448.994C137.8 448.994 138.214 448.994 138.645 448.994C139.076 448.994 139.689 448.994 140.212 448.994C140.924 448.994 141.637 448.994 142.342 448.994H143.295C144.008 448.994 144.721 448.994 145.425 448.937H145.475C145.964 448.937 146.461 448.937 146.959 448.881C147.097 448.888 147.235 448.888 147.373 448.881C147.787 448.881 148.202 448.881 148.6 448.831H148.89L151.667 448.647C152.578 448.576 153.498 448.484 154.427 448.399L156.316 448.208C164.005 447.288 171.608 445.907 179.069 444.075C195.828 440.083 212.223 434.499 228.974 430.408C250.632 425.135 274.562 422.545 295.49 428.993V362.662H115.777ZM295.449 152.726V22.3782C275.778 22.1962 256.16 24.1608 237.072 28.2242C191.576 37.9842 150.755 59.1533 115.777 86.1897V152.719H124.795V155.741H115.777V258.706H295.449V155.748H161.82V152.726H295.449ZM526.228 108.696C514.972 108.357 503.783 105.313 493.663 100.614C474.309 91.6253 458.85 77.7461 441.577 66.0327C405.687 41.6363 361.177 26.9149 315.516 23.2629V152.726H572.006L572.645 152.153L526.228 108.696ZM549.594 105.158L574.369 128.372V99.0709C566.072 99.9485 558.803 102.036 549.627 105.129L549.594 105.158ZM574.369 467.622V362.662H521.578C521.438 362.216 521.297 361.763 521.131 361.31C521.288 361.763 521.421 362.216 521.57 362.662H315.549V438.569C317.505 439.807 319.436 441.11 321.351 442.433C323.415 443.849 325.454 445.342 327.501 446.807L329.565 448.265C330.551 448.973 331.546 449.681 332.549 450.346C334.538 451.724 336.546 453.082 338.574 454.423C339.577 455.13 340.605 455.767 341.625 456.433C357.81 466.999 374.884 476.535 392.707 484.962C396.702 486.85 400.733 488.692 404.8 490.49C407.511 491.672 410.238 492.847 412.973 493.986C417.084 495.699 421.228 497.35 425.406 498.941C463.92 513.703 504.646 523.833 546.419 529.042C555.697 530.212 565.011 531.132 574.36 531.802V467.615H575.189L574.369 467.622ZM315.549 155.748V258.706H574.402V155.748H315.549ZM315.549 261.728V359.639H574.402V261.728H315.549ZM594.493 98.9435V131.628L626.114 102.001C615.638 100.557 605.097 99.5262 594.493 98.9081V98.9435ZM594.493 261.763V359.639H846.26V261.728L594.493 261.763ZM845.34 475.393L846.226 362.662H594.493V532.927C610.71 533.509 626.952 533.343 643.147 532.432H643.429C651.165 532.016 658.865 531.413 666.53 530.62H666.704C707.592 526.556 747.573 517.447 785.396 503.576L845.34 475.393ZM894.806 277.851C893.861 275.947 892.875 274.057 891.872 272.189C889.999 268.65 888.018 265.21 885.979 261.771H866.335V359.639H916C915.975 331.924 907.761 303.613 894.831 277.815L894.806 277.851ZM866.335 362.697V459.66C880.326 448.208 892.145 435.108 900.658 420.132C910.894 402.098 915.577 382.571 915.958 362.683L866.335 362.697ZM866.335 233.234V258.713H884.138C878.753 249.942 872.818 241.425 866.359 233.198L866.335 233.234ZM695.589 118.152C694.28 117.727 692.97 117.296 691.652 116.878C677.753 112.495 663.55 108.85 649.123 105.964L600.735 151.311L599.806 152.153L600.428 152.733H772.648C748.663 138.635 722.804 127.015 695.614 118.117L695.589 118.152ZM777.696 155.784H598.024L594.493 158.544V258.706H625.443H625.493H846.293V210.189C826.319 189.562 803.266 171.259 777.721 155.748L777.696 155.784Z" fill="#EA4848"/>
<path opacity="0.1" d="M95.6002 193.344V246.577H11.7374C11.7374 246.267 11.7955 245.95 11.8203 245.639C11.8949 244.79 11.9695 243.941 12.0524 243.099C12.1436 242.11 12.2431 241.113 12.3508 240.145C12.4586 239.178 12.5746 237.997 12.699 236.926C12.8233 235.855 12.9394 234.77 13.0803 233.699C13.2212 232.628 13.3455 231.557 13.4948 230.494C13.644 229.431 13.7766 228.353 13.9341 227.289C14.0584 226.403 14.1911 225.525 14.3237 224.638C14.5143 223.39 14.7133 222.135 14.9288 220.895C14.9288 220.71 14.9868 220.518 15.02 220.341C16.5329 211.259 18.5944 202.257 21.1955 193.373L95.6002 193.344Z" fill="#EA4848"/>
<path opacity="0.1" d="M11.4722 249.738H95.6002V351.885H17.6312C17.4239 352.933 17.225 353.989 17.0095 355.045H95.6002V437.425C95.4593 437.388 95.335 437.344 95.2023 437.299C92.9808 436.517 90.7759 435.689 88.5709 434.803L87.1617 434.235C84.9512 433.304 82.7408 432.32 80.5303 431.281C79.7594 430.919 78.9885 430.543 78.2259 430.159C65.9543 424.035 54.8062 416.275 45.1682 407.149C44.8863 406.905 44.6211 406.647 44.3393 406.411C42.9964 405.111 41.6784 403.797 40.4018 402.453L38.9927 400.976C37.484 399.329 36.0251 397.638 34.6076 395.925C34.4004 395.674 34.2015 395.423 33.9859 395.186C28.2211 388.066 23.4345 380.356 19.7284 372.221C19.6123 371.978 19.5128 371.712 19.4051 371.483C18.2667 368.874 17.2581 366.24 16.3795 363.582C15.9982 362.467 15.6334 361.366 15.3185 360.207C15.2024 359.867 15.1029 359.535 15.0117 359.203C10.3034 342.832 9.74805 325.826 9.74805 308.938C9.74805 306.966 9.74805 304.987 9.74805 303.03C9.74805 296.2 9.83923 289.325 9.97186 282.457C9.97186 280.678 10.0547 278.906 10.0962 277.119C10.2122 272.585 10.378 268.051 10.5936 263.517C10.6433 262.254 10.7096 260.999 10.7842 259.743C10.7842 259.02 10.8257 258.296 10.9085 257.572C11.1075 254.944 11.2733 252.337 11.4722 249.738Z" fill="#EA4848"/>
<path opacity="0.1" d="M178.941 154.539V246.577H115.686V154.539H124.704V123.377H161.724V154.539H178.941Z" fill="#EA4848"/>
<path opacity="0.1" d="M178.941 249.73H115.694V351.877H178.941V249.73Z" fill="#EA4848"/>
<path opacity="0.1" d="M115.686 355.045H178.941V439.965C171.479 441.875 163.876 443.313 156.187 444.27L154.297 444.477C153.369 444.573 152.449 444.654 151.537 444.735C150.625 444.816 149.68 444.875 148.76 444.927H148.47C148.072 444.927 147.641 444.971 147.251 444.979H146.828C146.331 444.979 145.834 445.023 145.336 445.038C144.632 445.075 143.927 445.082 143.206 445.09C142.899 445.09 142.609 445.09 142.302 445.09C141.59 445.09 140.885 445.09 140.172 445.09H138.605C138.183 445.09 137.776 445.09 137.337 445.09L135.737 445.038C134.908 445.038 134.013 444.957 133.151 444.905L131.56 444.802L129.578 444.639C128.186 444.528 126.801 444.388 125.434 444.218L123.776 444.011L122.947 443.908C121.563 443.716 120.195 443.509 118.802 443.273C117.783 443.118 116.771 442.926 115.744 442.741L115.686 355.045Z" fill="#EA4848"/>
<path opacity="0.1" d="M574.348 143.669H522.192V246.57H574.348V143.669Z" fill="#EA4848"/>
<path opacity="0.1" d="M574.357 249.73V351.885H315.474V307.823H453.366V333.815H522.192V249.73H574.357Z" fill="#EA4848"/>
<path opacity="0.1" d="M575.177 464.569H574.348V531.582C565.009 530.878 555.697 529.921 546.413 528.71C504.616 523.258 463.869 512.667 425.34 497.238C414.216 492.777 403.318 487.909 392.647 482.631C374.822 473.834 357.745 463.886 341.552 452.865C337.485 450.089 333.47 447.248 329.508 444.344C326.764 442.328 324.037 440.26 321.276 438.252C319.361 436.871 317.43 435.512 315.474 434.212V355.045H521.504C521.363 354.573 521.222 354.1 521.073 353.635C521.23 354.1 521.38 354.573 521.521 355.045H574.348V464.525C574.63 464.532 574.904 464.555 575.177 464.569Z" fill="#EA4848"/>
<path opacity="0.1" d="M710.376 136.004H676.39V126.597H691.626V98.5732C692.946 99.0015 694.262 99.4421 695.571 99.895V126.597H710.376V136.004Z" fill="#EA4848"/>
<path opacity="0.1" d="M792.257 246.577H625.41C625.41 246.577 625.41 246.577 625.468 246.614L625.394 246.577H594.442V143.677H603.212V219.735H643.29V174.691H676.398V139.165H710.384V174.72H743.491V219.765H792.257V246.577Z" fill="#EA4848"/>
<path opacity="0.1" d="M594.442 249.73V351.885H792.257V249.73H594.442ZM845.955 472.131L846.229 391.273H792.257V355.09H594.442V532.682C610.66 533.289 626.903 533.117 643.1 532.165H643.382C651.118 531.732 658.819 531.102 666.484 530.275H666.658C707.55 526.036 747.534 516.531 785.361 502.06" fill="#EA4848"/>
<path opacity="0.1" d="M869.821 355.045H915.967C915.561 375.788 910.886 396.161 900.657 414.976C892.144 430.609 880.315 444.277 866.339 456.218V391.236H869.821V355.045Z" fill="#EA4848"/>
<path opacity="0.1" d="M915.992 351.885H869.82V266.515H894.804C907.735 293.431 915.95 322.968 915.992 351.885Z" fill="#EA4848"/>
<path opacity="0.1" d="M574.357 172.276H546.414V204.538H574.357V172.276Z" fill="#EA4848"/>
<path opacity="0.1" d="M574.357 239.148H546.414V246.577H574.357V239.148Z" fill="#EA4848"/>
<path opacity="0.1" d="M574.357 249.73H546.414V271.403H574.357V249.73Z" fill="#EA4848"/>
<path opacity="0.1" d="M574.357 306.021H546.414V338.283H574.357V306.021Z" fill="#EA4848"/>
<path opacity="0.1" d="M574.357 372.893H546.414V405.155H574.357V372.893Z" fill="#EA4848"/>
<path opacity="0.1" d="M574.349 464.525C574.63 464.525 574.904 464.525 575.177 464.57H574.349V472.065H546.414V439.766H574.349V464.525Z" fill="#EA4848"/>
<path opacity="0.1" d="M574.349 506.623V531.545C565.009 530.841 555.698 529.884 546.414 528.673V506.623H574.349Z" fill="#EA4848"/>
<path opacity="0.1" d="M435.229 349.514H315.474V351.885H435.229V349.514Z" fill="#EA4848"/>
<path opacity="0.1" d="M435.229 355.038H315.474V364.121H435.229V355.038Z" fill="#EA4848"/>
<path opacity="0.1" d="M435.229 393.894H315.474V408.5H435.229V393.894Z" fill="#EA4848"/>
<path opacity="0.1" d="M435.221 438.274V452.88H341.552C337.485 450.113 333.467 447.273 329.499 444.359C326.756 442.343 324.037 440.275 321.268 438.274H435.221Z" fill="#EA4848"/>
<path opacity="0.1" d="M435.221 482.646V497.238H425.332C414.219 492.773 403.324 487.901 392.647 482.624L435.221 482.646Z" fill="#EA4848"/>
<path opacity="0.1" d="M666.683 259.633H643.108V280.634H666.683V259.633Z" fill="#EA4848"/>
<path opacity="0.1" d="M156.245 161.783H132.67V182.784H156.245V161.783Z" fill="#EA4848"/>
<path opacity="0.1" d="M156.245 210.564H132.67V231.565H156.245V210.564Z" fill="#EA4848"/>
<path opacity="0.1" d="M156.245 259.344H132.67V280.346H156.245V259.344Z" fill="#EA4848"/>
<path opacity="0.1" d="M156.245 308.118H132.67V329.119H156.245V308.118Z" fill="#EA4848"/>
<path opacity="0.1" d="M156.245 356.899H132.67V377.9H156.245V356.899Z" fill="#EA4848"/>
<path opacity="0.1" d="M156.245 405.68H132.67V426.681H156.245V405.68Z" fill="#EA4848"/>
<path opacity="0.1" d="M756.68 259.633H733.105V280.634H756.68V259.633Z" fill="#EA4848"/>
<path opacity="0.1" d="M666.683 311.434H643.108V332.435H666.683V311.434Z" fill="#EA4848"/>
<path opacity="0.1" d="M756.68 311.434H733.105V332.435H756.68V311.434Z" fill="#EA4848"/>
<path opacity="0.1" d="M666.683 363.227H643.108V384.228H666.683V363.227Z" fill="#EA4848"/>
<path opacity="0.1" d="M756.68 363.227H733.105V384.228H756.68V363.227Z" fill="#EA4848"/>
<path opacity="0.1" d="M666.683 415.028H643.108V436.029H666.683V415.028Z" fill="#EA4848"/>
<path opacity="0.1" d="M756.68 415.028H733.105V436.029H756.68V415.028Z" fill="#EA4848"/>
<path opacity="0.1" d="M666.683 466.829H643.108V487.83H666.683V466.829Z" fill="#EA4848"/>
<path opacity="0.1" d="M756.68 466.829H733.105V487.83H756.68V466.829Z" fill="#EA4848"/>
<path opacity="0.1" d="M643.108 532.165V518.623H666.674V530.238L643.108 532.165Z" fill="#EA4848"/>
<path opacity="0.1" d="M14.9209 220.326V232.34H95.6006V220.326H14.9209ZM22.9615 231.587H16.3798V221.064H23.0112L22.9615 231.587ZM30.9938 231.587H24.3624V221.064H30.9938V231.587ZM39.0096 231.587H32.3782V221.064H39.0096V231.587ZM47.0419 231.587H40.4188V221.064H47.0502L47.0419 231.587ZM55.0659 231.587H48.4345V221.064H55.0659V231.587ZM63.0983 231.587H56.4668V221.064H63.0983V231.587ZM71.1306 231.587H64.4992V221.064H71.1306V231.587ZM79.1546 231.587H72.5232V221.064H79.1546V231.587ZM87.1787 231.587H80.5472V221.064H87.1787V231.587ZM95.2027 231.587H88.5713V221.064H95.2027V231.587Z" fill="#EA4848"/>
<path opacity="0.1" d="M14.9209 255.283V267.297H95.6006V255.283H14.9209ZM22.9615 266.537H16.3798V256.044H23.0112L22.9615 266.537ZM30.9938 266.537H24.3624V256.044H30.9938V266.537ZM39.0096 266.537H32.3782V256.044H39.0096V266.537ZM47.0419 266.537H40.4188V256.044H47.0502L47.0419 266.537ZM55.0659 266.537H48.4345V256.044H55.0659V266.537ZM63.0983 266.537H56.4668V256.044H63.0983V266.537ZM71.1306 266.537H64.4992V256.044H71.1306V266.537ZM79.1546 266.537H72.5232V256.044H79.1546V266.537ZM87.1787 266.537H80.5472V256.044H87.1787V266.537ZM95.2027 266.537H88.5713V256.044H95.2027V266.537Z" fill="#EA4848"/>
<path opacity="0.1" d="M14.9209 290.255V302.292H95.6006V290.255H14.9209ZM22.9615 301.509H16.3798V291.009H23.0112L22.9615 301.509ZM30.9938 301.509H24.3624V291.009H30.9938V301.509ZM39.0096 301.509H32.3782V291.009H39.0096V301.509ZM47.0419 301.509H40.4188V291.009H47.0502L47.0419 301.509ZM55.0659 301.509H48.4345V291.009H55.0659V301.509ZM63.0983 301.509H56.4668V291.009H63.0983V301.509ZM71.1306 301.509H64.4992V291.009H71.1306V301.509ZM79.1546 301.509H72.5232V291.009H79.1546V301.509ZM87.1787 301.509H80.5472V291.009H87.1787V301.509ZM95.2027 301.509H88.5713V291.009H95.2027V301.509Z" fill="#EA4848"/>
<path opacity="0.1" d="M14.9209 325.228V337.227H95.6006V325.228H14.9209ZM22.9615 336.481H16.3798V325.973H23.0112L22.9615 336.481ZM30.9938 336.481H24.3624V325.973H30.9938V336.481ZM39.0096 336.481H32.3782V325.973H39.0096V336.481ZM47.0419 336.481H40.4188V325.973H47.0502L47.0419 336.481ZM55.0659 336.481H48.4345V325.973H55.0659V336.481ZM63.0983 336.481H56.4668V325.973H63.0983V336.481ZM71.1306 336.481H64.4992V325.973H71.1306V336.481ZM79.1546 336.481H72.5232V325.973H79.1546V336.481ZM87.1787 336.481H80.5472V325.973H87.1787V336.481ZM95.2027 336.481H88.5713V325.973H95.2027V336.481Z" fill="#EA4848"/>
<path opacity="0.1" d="M15.2687 360.192C15.592 361.322 15.9567 362.452 16.338 363.567V360.945H22.9694V371.446H19.4216C19.5294 371.69 19.6371 371.955 19.7449 372.184H95.6002V360.192H15.2687ZM31.0183 371.446H24.3869V360.945H31.0183V371.446ZM39.0341 371.446H32.4026V360.945H39.0341V371.446ZM47.0664 371.446H40.4184V360.945H47.0498L47.0664 371.446ZM55.0904 371.446H48.459V360.945H55.0904V371.446ZM63.1228 371.446H56.4913V360.945H63.1228V371.446ZM71.1551 371.446H64.5236V360.945H71.1551V371.446ZM79.1791 371.446H72.5477V360.945H79.1791V371.446ZM87.2031 371.446H80.5717V360.945H87.2031V371.446ZM95.2272 371.446H88.5957V360.945H95.2272V371.446Z" fill="#EA4848"/>
<path opacity="0.1" d="M34.0027 395.164C34.2099 395.401 34.4089 395.666 34.6244 395.903H39.0094V400.946C39.4819 401.448 39.9461 401.95 40.4269 402.423V395.873H47.0583V406.411H44.3726C44.6378 406.654 44.8948 406.913 45.2015 407.149H95.6253V395.164H34.0027ZM55.0658 406.411H48.4343V395.917H55.0658V406.411ZM63.0981 406.411H56.4667V395.917H63.0981V406.411ZM71.1304 406.411H64.499V395.917H71.1304V406.411ZM79.1545 406.411H72.523V395.917H79.1545V406.411ZM87.1785 406.411H80.5471V395.917H87.1785V406.411ZM95.2025 406.411H88.5711V395.917H95.2025V406.411Z" fill="#EA4848"/>
<path opacity="0.1" d="M78.2593 430.129C79.0136 430.513 79.7845 430.867 80.5637 431.251V430.882H87.1951V434.205L88.6043 434.789V430.882H95.2358V437.27C95.3629 437.326 95.4963 437.371 95.6337 437.403V430.129H78.2593Z" fill="#EA4848"/>
<path opacity="0.1" d="M625.411 246.577H625.46H625.411ZM574.349 464.518H575.178H574.349ZM521.073 353.628C521.231 354.1 521.363 354.573 521.513 355.038C521.38 354.573 521.239 354.1 521.073 353.628ZM625.411 246.555H625.46H625.411ZM124.737 135.982V139.135H161.766V135.982H124.737ZM574.349 464.518H575.178H574.349ZM521.073 353.628C521.231 354.1 521.363 354.573 521.513 355.038C521.38 354.573 521.239 354.1 521.073 353.628ZM625.411 246.555H625.46H625.411ZM574.349 464.496H575.178H574.349ZM521.073 353.628C521.231 354.1 521.363 354.573 521.513 355.038C521.38 354.573 521.239 354.1 521.073 353.628Z" fill="#EA4848"/>
<path d="M382.634 280.36C382.634 280.36 379.368 279.954 379.368 275.716C379.368 271.477 377.03 263.561 377.03 263.561C377.03 263.524 375.007 249.774 372.214 247.589C369.421 245.403 365.831 232.569 365.831 232.569C365.831 232.569 365.218 225.606 363.966 224.107C362.714 222.608 361.023 218.938 358.528 213.702C356.033 208.467 345.63 204.841 345.63 204.841C345.63 204.841 326.822 195.123 321.492 191.955C321.007 191.695 320.555 191.391 320.141 191.047C319.212 189.962 315.167 189.939 315.167 189.939C314.744 187.562 314.338 184.829 314.206 182.356C314.206 182.09 314.206 181.824 314.164 181.558C320.107 178.429 324.584 173.494 326.772 167.661C326.872 167.38 326.954 167.085 327.046 166.804C327.402 166.7 327.729 166.53 328.008 166.306C328.286 166.083 328.509 165.81 328.662 165.505C329.143 164.552 329.151 163.437 329.748 162.551C330.444 161.502 331.771 160.941 332.815 160.151C335.451 158.157 336.131 154.797 336.006 151.74C335.923 149.267 335.476 146.771 335.65 144.312L335.7 143.691C335.749 143.322 335.807 142.953 335.882 142.598C336.288 140.767 337.175 139.039 337.673 137.223C338.17 135.406 338.22 133.361 337.059 131.795C335.36 129.499 331.82 129.041 328.712 128.805C325.189 128.539 322.039 128.886 319.784 126.279C318.729 124.917 317.542 123.639 316.236 122.461C315.772 122.077 311.263 119.626 311.263 119.463C306.862 117.648 301.873 117.307 297.212 118.503C294.875 119.109 292.67 120.098 290.299 120.593C285.185 121.671 279.299 120.505 274.956 123.111C272.535 124.588 271.085 126.936 269.725 129.226C268.62 131.111 267.498 132.994 266.36 134.875C264.528 137.969 262.663 141.114 261.892 144.541C261.73 145.286 261.63 146.041 261.593 146.8V146.837C261.593 147.11 261.593 147.384 261.593 147.657V148.004C261.593 148.262 261.593 148.513 261.643 148.742C261.693 148.971 261.685 149.045 261.709 149.2C261.734 149.355 261.776 149.702 261.825 149.938C261.875 150.175 261.975 150.588 262.074 150.913C262.116 151.054 262.174 151.186 262.223 151.319C262.306 151.57 262.406 151.814 262.513 152.058C262.571 152.183 262.63 152.316 262.696 152.442C262.82 152.7 262.969 152.951 263.119 153.18C263.185 153.284 263.235 153.38 263.301 153.476C263.532 153.819 263.787 154.149 264.064 154.465C265.837 156.437 268.449 157.692 270.38 159.538C270.38 159.612 270.38 159.686 270.38 159.752C270.38 159.959 270.38 160.158 270.38 160.365C270.482 164.482 271.713 168.515 273.963 172.112C276.214 175.709 279.418 178.762 283.295 181.004C283.295 181.285 283.336 181.573 283.353 181.854C283.514 184.045 283.484 186.245 283.262 188.433C282.924 188.079 282.501 187.797 282.025 187.608C281.549 187.418 281.031 187.327 280.51 187.34C280.153 187.325 279.796 187.352 279.448 187.421L279.374 187.37V187.436C277.55 187.835 275.304 189.526 273.157 194.333C273.157 194.333 266.625 200.89 261.651 200.617C256.678 200.344 244.086 207.44 244.086 207.44C244.086 207.44 231.802 214.544 229.166 221.781C227.692 225.884 225.926 229.899 223.877 233.802L208.691 261.678L205.889 283.794C205.889 283.794 207.439 293.63 207.133 295.129C206.826 296.628 213.507 310.149 213.507 310.149C213.507 310.149 235.582 344.7 244.6 346.472L245.247 346.066C245.633 346.245 246.042 346.382 246.465 346.472L248.322 345.305C248.434 346.606 248.386 347.913 248.181 349.204C246.938 352.616 248.645 374.88 250.817 379.244C252.989 383.608 252.218 440.829 252.218 440.829L251.911 445.88C251.911 445.88 251.911 446.042 251.986 446.323L251.911 447.519L252.135 447.622C252.368 449.224 252.292 450.85 251.911 452.43C251.132 454.645 250.817 460.907 250.817 460.907C250.817 460.907 244.609 496.263 247.551 503.367C250.494 510.47 252.997 518.253 252.997 518.253C252.997 518.253 256.106 527.115 253.147 528.628C250.187 530.142 241.774 532.682 243.506 536.375C245.081 539.786 251.058 548.928 251.945 550.264L251.87 550.966L250.651 562.729C250.849 564.282 251.322 565.798 252.052 567.219C253.387 569.781 255.981 572.44 260.914 572.152C261.743 572.1 262.704 572.011 263.633 571.9C272.66 570.822 283.775 567.234 283.775 567.234C283.198 566.907 282.669 566.518 282.201 566.074C281.757 565.691 281.405 565.232 281.167 564.724C280.929 564.216 280.81 563.671 280.816 563.12C280.949 560.979 276.448 550.774 275.329 548.263C275.155 547.901 275.063 547.695 275.063 547.695C275.063 547.695 285.326 538.139 283.618 529.67C283.618 529.67 272.262 523.762 276 520.52C279.739 517.279 286.42 507.967 286.42 507.967C286.42 507.967 286.726 473.15 286.42 467.951C286.1 464.343 286.292 460.714 286.992 457.148C287.116 456.609 287.265 456.085 287.423 455.568C292.593 456.255 297.812 456.608 303.04 456.624C304.946 456.624 306.886 456.624 308.842 456.52C308.842 457.013 308.867 457.544 308.917 458.116C309.348 466.74 310.152 481.863 310.807 487.483C311.735 495.539 316.866 517.249 316.866 517.249C316.866 517.249 307.077 522.846 318.574 536.64C318.574 536.64 318.574 541.639 317.811 542.363C316.997 544.729 316.341 547.135 315.847 549.57C315.366 552.17 315.167 554.798 315.946 556.164C317.811 559.428 329.002 559.162 329.002 559.162L329.275 559.118C331.388 558.924 333.523 559.105 335.557 559.651C337.59 560.197 339.481 561.098 341.121 562.301C345.373 565.343 361.513 564.007 370.249 563.039C373.673 562.655 375.961 562.301 375.961 562.301C376.072 561.956 376.111 561.595 376.077 561.237C375.986 559.325 374.303 555.131 362.897 551.387C362.897 551.387 352.17 544.962 352.32 539.365H352.096H350.852C351.756 539.321 352.336 539.365 352.336 539.365C352.336 539.365 348.134 525.704 349.849 524.596C351.565 523.489 346.426 508.351 346.426 508.351C346.426 508.351 343.483 482.949 343.326 481.169C343.332 479.642 343.592 478.124 344.097 476.665L343.326 462.738C343.326 462.738 343.177 458.108 343.326 456.602C343.301 455.294 343.182 453.989 342.969 452.695C342.895 452.178 342.82 451.639 342.737 451.108C346.758 450.2 349.369 449.358 349.369 449.358L348.904 400.88C352.32 394.972 352.95 382.013 352.933 372.819C352.933 366.912 352.635 362.54 352.635 362.54L357.302 355.754C357.302 355.754 358.379 347.631 356.672 345.852C355.917 345.047 356.257 344.212 356.879 343.526C357.202 343.298 357.542 343.09 357.898 342.905C357.898 342.905 357.849 342.839 357.791 342.743C358.116 342.5 358.463 342.281 358.827 342.086C358.827 342.086 357.169 339.797 358.653 338.829C360.045 339.671 361.289 340.306 362.234 340.823C362.167 341.362 362.101 341.672 362.101 341.672L362.499 340.934C363.411 341.392 363.966 341.672 363.966 341.672C363.966 341.672 371.277 328.698 371.12 326.785C370.962 324.873 376.093 316.817 376.093 316.817C376.093 316.817 376.715 312.585 379.517 310.813C382.319 309.041 381.689 296.2 381.689 296.2C381.689 296.2 382.468 289.509 384.333 286.777C386.198 284.045 382.634 280.36 382.634 280.36ZM242.743 274.667L242.884 277.761C242.055 276.572 241.459 275.716 241.459 275.716L242.743 274.667Z" fill="url(#paint0_linear)"/>
<path d="M364.364 336.068L362.574 342.861C362.574 342.861 348.233 336.341 345.647 328.056C343.061 319.77 349.974 316.625 349.974 316.625L363.336 321.668L364.364 336.068Z" fill="white"/>
<path opacity="0.1" d="M364.364 336.068L362.574 342.861C362.574 342.861 348.233 336.341 345.647 328.056C343.061 319.77 349.974 316.625 349.974 316.625L363.336 321.668L364.364 336.068Z" fill="black"/>
<path d="M283.883 567.278C283.883 567.278 270.621 571.62 261.502 572.166C256.661 572.454 254.117 569.811 252.807 567.263C252.091 565.847 251.63 564.339 251.439 562.796L252.624 551.092L253.254 544.859L272.627 540.377L275.37 547.85L275.627 548.418C276.73 550.914 281.148 561.068 281.015 563.187C281.01 563.73 281.127 564.268 281.361 564.769C281.595 565.27 281.939 565.724 282.375 566.104C282.82 566.551 283.327 566.945 283.883 567.278Z" fill="white"/>
<path d="M374.477 561.326C374.51 561.681 374.471 562.039 374.361 562.382C374.361 562.382 345.995 566.598 340.193 562.382C338.557 561.15 336.65 560.237 334.594 559.7C332.538 559.163 330.38 559.016 328.256 559.266C328.256 559.266 317.281 559.532 315.449 556.312C314.686 554.961 314.885 552.339 315.358 549.755C315.84 547.333 316.482 544.939 317.281 542.585L317.72 542.275L320.331 540.406L350.902 539.602H351.134C350.985 545.169 361.513 551.557 361.513 551.557C372.695 555.249 374.345 559.421 374.477 561.326Z" fill="white"/>
<path opacity="0.1" d="M374.477 561.326C374.506 561.682 374.464 562.039 374.353 562.382C374.353 562.382 345.995 566.599 340.193 562.382C338.558 561.151 336.652 560.238 334.598 559.702C332.544 559.165 330.387 559.017 328.264 559.266C328.264 559.266 317.281 559.532 315.457 556.312C314.695 554.953 314.886 552.339 315.358 549.755C319.586 550.131 326.258 551.069 328.878 553.307C332.84 556.711 339.554 560.108 343.674 560.374C346.899 560.558 366.188 561.105 374.477 561.326Z" fill="black"/>
<path opacity="0.1" d="M283.883 567.278C283.883 567.278 270.621 571.62 261.502 572.166C256.661 572.454 254.117 569.811 252.815 567.256C256.189 568.267 260.872 569.331 263.334 568.356C266.252 567.204 276.597 566.458 282.4 566.141C282.841 566.571 283.339 566.953 283.883 567.278Z" fill="black"/>
<path d="M303.562 217.372C292.62 213.584 278.545 201.068 282.06 195.219C282.84 193.743 283.304 192.15 283.427 190.523C283.654 188.313 283.687 186.091 283.527 183.877C283.281 180.25 282.791 176.64 282.06 173.066C282.06 173.066 316.22 173.753 314.23 178.235C313.65 179.55 313.559 181.831 313.717 184.386C313.874 186.941 314.288 189.829 314.72 192.273C315.316 195.625 315.913 198.18 315.913 198.18C315.913 198.18 313.824 200.787 312.597 200.927C311.371 201.068 319.262 222.77 303.562 217.372Z" fill="#CF6F80"/>
<path opacity="0.1" d="M275.602 548.418L275.346 548.67C265.133 537.667 252.782 551.38 252.782 551.38L252.6 551.092L253.23 544.859L272.602 540.377L275.346 547.85L275.602 548.418Z" fill="black"/>
<path opacity="0.1" d="M351.143 540.377C351.143 540.377 343.682 540.237 339.704 543.368C335.725 546.498 316.494 544.047 317.323 543.368C317.568 543.031 317.716 542.645 317.754 542.245L320.365 540.377L350.936 539.572C351.052 540.067 351.143 540.377 351.143 540.377Z" fill="black"/>
<path d="M288.31 453.973C287.754 455.197 287.332 456.465 287.05 457.761C286.359 461.31 286.166 464.922 286.478 468.513C286.785 473.682 286.478 508.322 286.478 508.322C286.478 508.322 279.921 517.559 276.265 520.816C272.61 524.072 283.726 529.921 283.726 529.921C285.384 538.339 275.337 547.85 275.337 547.85C265.125 536.847 252.774 550.567 252.774 550.567C252.774 550.567 246.059 540.229 244.385 536.537C242.71 532.845 250.942 530.29 253.835 528.791C256.728 527.292 253.694 518.453 253.694 518.453C253.694 518.453 251.248 510.707 248.347 503.64C245.446 496.573 251.547 461.394 251.547 461.394C251.547 461.394 251.862 455.147 252.616 452.969C252.997 451.397 253.072 449.778 252.84 448.184C252.79 447.645 252.732 447.194 252.691 446.891C252.649 446.589 252.616 446.448 252.616 446.448L252.732 446.271L256.877 439.389C256.877 439.389 290.299 449.638 288.31 453.973Z" fill="#EA4848"/>
<path d="M351.143 539.565C351.143 539.565 343.682 539.424 339.704 542.518C335.725 545.613 316.494 543.198 317.322 542.518C318.151 541.839 318.085 536.81 318.085 536.81C306.803 523.09 316.427 517.522 316.427 517.522C316.427 517.522 311.387 495.923 310.476 487.911C309.837 482.314 309.05 467.272 308.627 458.684C308.445 454.992 308.337 452.452 308.337 452.452L317.555 450.798L318.74 450.583L340.972 446.611C340.972 446.611 341.585 450.303 342 453.323C342.206 454.613 342.323 455.912 342.348 457.215C342.199 458.691 342.348 463.314 342.348 463.314L343.102 477.174C342.609 478.628 342.355 480.138 342.348 481.657C342.497 483.422 345.39 508.691 345.39 508.691C345.39 508.691 350.422 523.77 348.706 524.855C346.99 525.941 351.143 539.565 351.143 539.565Z" fill="#EA4848"/>
<path opacity="0.1" d="M314.231 178.235C313.65 179.55 313.559 181.831 313.717 184.386C309.141 186.841 303.881 188.096 298.541 188.007C293.201 187.918 287.997 186.489 283.527 183.884C283.281 180.255 282.791 176.643 282.06 173.066C282.06 173.066 316.22 173.738 314.231 178.235Z" fill="black"/>
<path d="M327.435 161.916C327.442 164.577 326.972 167.222 326.043 169.751C323.966 175.417 319.707 180.247 314.02 183.387C308.332 186.527 301.581 187.774 294.961 186.909C288.34 186.044 282.276 183.122 277.84 178.659C273.405 174.196 270.883 168.48 270.72 162.521C270.72 162.315 270.72 162.123 270.72 161.916C270.656 158.562 271.342 155.229 272.738 152.114C274.135 148.998 276.213 146.162 278.853 143.769C281.493 141.377 284.642 139.477 288.115 138.18C291.588 136.883 295.316 136.215 299.082 136.215C302.848 136.215 306.576 136.883 310.049 138.18C313.522 139.477 316.67 141.377 319.31 143.769C321.95 146.162 324.029 148.998 325.426 152.114C326.822 155.229 327.508 158.562 327.444 161.916H327.435Z" fill="#CF6F80"/>
<path opacity="0.1" d="M303.562 217.372C292.62 213.584 278.545 201.067 282.06 195.219C282.84 193.743 283.304 192.15 283.427 190.523L298.406 201.488L307.674 208.26L314.72 192.28C315.316 195.633 315.913 198.188 315.913 198.188C315.913 198.188 313.824 200.794 312.597 200.935C311.371 201.075 319.262 222.77 303.562 217.372Z" fill="black"/>
<path d="M342.298 265.835L329.789 453.028L313.476 453.98L271.234 345.438L278.164 216.575L279.623 189.349L298.406 203.091L307.682 209.862L314.935 193.417L328.422 203.888L342.298 265.835Z" fill="#EA4848"/>
<path opacity="0.1" d="M288.31 453.973C287.754 455.197 287.332 456.465 287.05 457.761C275.18 456.128 263.651 452.92 252.848 448.243L252.625 448.139L252.699 446.95L252.741 446.33L256.885 439.448C256.885 439.448 290.299 449.638 288.31 453.973Z" fill="black"/>
<path opacity="0.1" d="M317.745 457.791C314.711 458.25 311.65 458.561 308.577 458.721C308.395 455.029 308.287 452.489 308.287 452.489L317.505 450.835L317.745 457.791Z" fill="black"/>
<path opacity="0.1" d="M341.95 453.36C336.056 454.726 326.954 456.262 318.806 455.302L318.69 450.62L340.922 446.648C340.922 446.648 341.535 450.303 341.95 453.36Z" fill="black"/>
<path opacity="0.1" d="M318.657 456.159C284.671 461.328 253.545 446.507 253.545 446.507L253.843 441.486C253.843 441.486 254.614 384.56 252.475 380.196C250.337 375.832 248.67 353.701 249.881 350.305C251.091 346.908 245.462 295.971 245.462 295.971L244.551 275.295L211.178 263.251L226.099 235.545C228.114 231.66 229.847 227.665 231.288 223.582C233.882 216.39 245.927 209.323 245.927 209.323C245.927 209.323 258.278 202.264 263.16 202.53C268.043 202.795 274.442 196.282 274.442 196.282C279.167 185.553 283.444 190.412 283.444 190.412C283.444 190.921 283.444 190.412 283.212 192C281.554 203.778 310.02 240.995 310.426 241.652L313.136 300.475L315.88 374.916L318.657 456.159Z" fill="black"/>
<path d="M317.745 456.159C283.759 461.328 252.624 446.507 252.624 446.507L252.931 441.486C252.931 441.486 253.702 384.56 251.555 380.196C249.408 375.832 247.75 353.701 248.969 350.305C250.187 346.908 244.551 295.971 244.551 295.971L243.631 275.295L210.241 263.207L225.162 235.501C227.173 231.615 228.906 227.619 230.351 223.538C232.937 216.346 244.99 209.279 244.99 209.279C244.99 209.279 257.341 202.22 262.215 202.485C267.089 202.751 273.497 196.238 273.497 196.238C278.23 185.509 283.444 190.368 283.444 190.368C283.444 190.877 282.947 191.106 283.212 191.955C286.859 203.379 309.108 240.95 309.514 241.608L312.258 300.431L315.001 374.872L317.745 456.159Z" fill="white"/>
<path opacity="0.1" d="M308.586 243.284C304.93 241.925 285.566 222.231 285.566 222.231V217.749C284.862 216.272 280.676 217.173 277.277 218.207L278.736 190.981L280.394 192.206C284.024 203.623 308.163 242.627 308.586 243.284Z" fill="black"/>
<path d="M309.506 241.652C305.842 240.293 286.478 220.599 286.478 220.599V216.117C285.773 214.64 281.587 215.541 278.189 216.575L279.656 189.349L281.314 190.574C284.953 201.991 309.099 241.002 309.506 241.652Z" fill="white"/>
<path opacity="0.1" d="M253.545 339.871C254 339.871 277.177 337.7 277.177 337.7C277.177 337.7 291.211 362.282 290.291 368.263C289.371 374.245 287.705 379.539 282.06 378.601C276.415 377.664 251.679 379.34 251.679 379.34L253.545 339.871Z" fill="black"/>
<path d="M252.625 338.239C253.08 338.239 276.257 336.068 276.257 336.068C276.257 336.068 290.283 360.657 289.371 366.631C288.459 372.605 286.777 377.907 281.14 376.969C275.503 376.032 250.759 377.708 250.759 377.708L252.625 338.239Z" fill="white"/>
<path d="M270.09 326.697C270.09 326.697 291.36 336.88 291.816 339.989C292.272 343.098 280.99 338.63 278.553 338.091C276.949 337.747 275.316 337.519 273.671 337.412L257.416 337.803L270.09 326.697Z" fill="#CF6F80"/>
<path opacity="0.1" d="M302.65 244.554C303.886 244.554 304.888 243.661 304.888 242.56C304.888 241.459 303.886 240.566 302.65 240.566C301.414 240.566 300.412 241.459 300.412 242.56C300.412 243.661 301.414 244.554 302.65 244.554Z" fill="black"/>
<path d="M302.65 243.742C303.886 243.742 304.888 242.849 304.888 241.748C304.888 240.647 303.886 239.754 302.65 239.754C301.414 239.754 300.412 240.647 300.412 241.748C300.412 242.849 301.414 243.742 302.65 243.742Z" fill="#3F3D56"/>
<path opacity="0.1" d="M306.77 330.862C308.006 330.862 309.008 329.969 309.008 328.868C309.008 327.767 308.006 326.874 306.77 326.874C305.534 326.874 304.532 327.767 304.532 328.868C304.532 329.969 305.534 330.862 306.77 330.862Z" fill="black"/>
<path d="M306.77 330.042C308.006 330.042 309.008 329.149 309.008 328.048C309.008 326.947 308.006 326.054 306.77 326.054C305.534 326.054 304.532 326.947 304.532 328.048C304.532 329.149 305.534 330.042 306.77 330.042Z" fill="#3F3D56"/>
<path opacity="0.1" d="M304.88 287.708C306.116 287.708 307.118 286.815 307.118 285.714C307.118 284.613 306.116 283.72 304.88 283.72C303.644 283.72 302.642 284.613 302.642 285.714C302.642 286.815 303.644 287.708 304.88 287.708Z" fill="black"/>
<path d="M304.88 286.895C306.116 286.895 307.118 286.003 307.118 284.902C307.118 283.801 306.116 282.908 304.88 282.908C303.644 282.908 302.642 283.801 302.642 284.902C302.642 286.003 303.644 286.895 304.88 286.895Z" fill="#3F3D56"/>
<path d="M356.473 336.998C356.473 336.998 357.998 339.036 356.473 339.989C354.947 340.941 356.622 343.245 356.622 343.245C356.622 343.245 352.817 345.232 354.492 347.019C356.166 348.806 355.105 356.877 355.105 356.877L350.529 363.626C350.529 363.626 350.803 367.975 350.819 373.853C350.819 383.024 350.214 395.917 346.865 401.795L347.33 450.022C347.33 450.022 331.306 455.236 317.894 453.648L315.905 376.26C315.905 376.26 318.806 332.375 319.875 323.957C320.501 319.587 320.756 315.181 320.638 310.776C320.638 310.776 320.182 297.603 318.649 291.489C318.649 291.489 316.991 265.001 316.825 257.668C316.75 254.161 316.958 243.926 317.19 234.194C317.447 223.553 317.737 213.518 317.737 213.518L314.711 192.192C314.711 192.192 317.737 191.918 318.649 193.004C319.057 193.344 319.501 193.648 319.975 193.912C325.197 197.058 343.649 206.731 343.649 206.731C343.649 206.731 353.862 210.35 356.307 215.533C358.752 220.717 360.452 224.395 361.637 225.872C362.822 227.348 363.469 234.29 363.469 234.29C363.469 234.29 366.983 247.064 369.727 249.228C372.471 251.392 374.477 265.156 374.477 265.156L350.231 282.14C350.231 282.14 348.1 310.392 347.645 311.485C347.189 312.578 356.473 336.998 356.473 336.998Z" fill="white"/>
<path d="M357.393 336.998C357.393 336.998 358.91 339.036 357.393 339.989C355.876 340.941 357.534 343.245 357.534 343.245C357.534 343.245 353.754 345.254 355.412 347.041C357.069 348.828 356.025 356.899 356.025 356.899L351.449 363.648C351.449 363.648 351.723 367.997 351.748 373.875C351.748 383.047 351.143 395.94 347.794 401.818L348.25 450.045C348.25 450.045 332.202 455.258 318.806 453.67L316.825 376.283C316.825 376.283 319.726 332.398 320.795 323.98C321.422 319.609 321.674 315.203 321.55 310.799C321.55 310.799 321.094 297.625 319.569 291.511C319.569 291.511 317.911 265.023 317.737 257.691C317.662 254.183 317.878 243.948 318.101 234.216C318.358 223.575 318.649 213.54 318.649 213.54L314.653 191.926C314.653 191.926 318.649 191.926 319.569 193.026C319.973 193.37 320.418 193.674 320.895 193.934C326.117 197.08 344.577 206.753 344.577 206.753C344.577 206.753 354.782 210.372 357.227 215.556C359.672 220.739 361.372 224.417 362.565 225.894C363.759 227.371 364.389 234.312 364.389 234.312C364.389 234.312 367.903 247.087 370.647 249.25C373.391 251.414 375.372 265.149 375.372 265.149L351.126 282.133C351.126 282.133 348.996 310.385 348.531 311.478C348.067 312.571 357.393 336.998 357.393 336.998Z" fill="white"/>
<path opacity="0.1" d="M328.355 219.809L330.544 225.495L319.022 235.833C319.279 225.2 319.569 215.157 319.569 215.157L315.573 193.543C315.573 193.543 319.569 193.543 320.489 194.643C320.892 194.986 321.337 195.288 321.815 195.544L331.613 220.725L328.355 219.809Z" fill="black"/>
<path d="M327.435 218.177L329.632 223.863L318.11 234.201C318.367 223.56 318.657 213.525 318.657 213.525L314.653 191.911C314.653 191.911 318.657 191.911 319.569 193.011C319.975 193.353 320.42 193.657 320.895 193.92L330.701 219.093L327.435 218.177Z" fill="white"/>
<path opacity="0.1" d="M327.435 161.916C327.442 164.577 326.972 167.222 326.043 169.751C325.886 169.772 325.726 169.766 325.573 169.732C325.419 169.697 325.274 169.636 325.148 169.551C324.932 162.905 321.26 156.666 316.742 151.356C315.474 149.753 313.936 148.334 312.183 147.147C310.411 145.961 308.206 145.406 305.999 145.589C303.513 145.892 301.316 147.398 298.804 147.59C295.488 147.834 292.521 145.788 289.23 145.685C287.892 145.696 286.573 145.962 285.359 146.463C284.145 146.965 283.066 147.692 282.192 148.595C280.464 150.416 279.179 152.539 278.421 154.827C277.118 158.296 276.408 161.921 276.315 165.578C276.274 167.646 276.05 170.238 273.895 170.991C274.057 169.471 273.863 167.937 273.325 166.486C272.787 165.036 271.917 163.701 270.77 162.566L270.72 162.521C270.72 162.315 270.72 162.123 270.72 161.916C270.656 158.562 271.342 155.229 272.738 152.114C274.135 148.998 276.213 146.162 278.853 143.769C281.493 141.377 284.642 139.477 288.115 138.18C291.588 136.883 295.316 136.215 299.082 136.215C302.848 136.215 306.576 136.883 310.049 138.18C313.522 139.477 316.67 141.377 319.31 143.769C321.95 146.162 324.029 148.998 325.426 152.114C326.822 155.229 327.508 158.562 327.444 161.916H327.435Z" fill="black"/>
<path d="M310.824 121.797C306.516 119.992 301.617 119.65 297.047 120.837C294.751 121.442 292.587 122.425 290.258 122.919C285.284 123.99 279.482 122.831 275.213 125.423C272.842 126.899 271.416 129.233 270.09 131.5L266.774 137.127C264.967 140.206 263.144 143.337 262.389 146.726C261.635 150.116 262.091 153.911 264.503 156.636C266.26 158.622 268.855 159.87 270.761 161.739C271.904 162.875 272.77 164.209 273.306 165.658C273.843 167.106 274.037 168.638 273.878 170.157C276.042 169.418 276.249 166.819 276.299 164.751C276.391 161.094 277.101 157.469 278.404 154C279.161 151.711 280.445 149.588 282.176 147.767C283.05 146.865 284.13 146.139 285.343 145.638C286.556 145.136 287.876 144.87 289.213 144.858C292.529 144.961 295.505 147 298.788 146.756C301.274 146.571 303.479 145.057 305.983 144.762C308.19 144.576 310.396 145.132 312.167 146.32C313.919 147.505 315.454 148.925 316.717 150.529C321.243 155.839 324.915 162.064 325.131 168.724C326.068 169.337 327.419 168.54 327.883 167.594C328.347 166.649 328.364 165.542 328.952 164.641C329.632 163.599 330.933 163.046 331.953 162.263C334.539 160.277 335.186 156.931 335.086 153.896C334.987 150.862 334.324 147.782 334.97 144.799C335.36 142.968 336.239 141.255 336.719 139.445C337.2 137.636 337.258 135.606 336.123 134.047C334.465 131.758 330.975 131.308 327.933 131.094C324.476 130.828 321.384 131.168 319.179 128.576C318.144 127.223 316.979 125.953 315.698 124.78C315.258 124.396 310.824 121.959 310.824 121.797Z" fill="#512E4E"/>
<path opacity="0.1" d="M220.727 277.517L212.065 263.251L209.321 285.264C209.321 285.264 210.846 295.04 210.54 296.539C210.233 298.038 216.79 311.478 216.79 311.478C216.79 311.478 238.45 345.845 247.294 347.617L277.177 328.595L269.253 319.63C269.253 319.63 266.509 318.678 265.821 319.63C265.821 319.63 251.108 297.079 249.582 295.447C248.057 293.815 248.355 290.558 248.355 290.558C248.355 290.558 246.068 288.387 246.83 286.349C247.593 284.311 242.412 277.244 242.412 277.244L247.137 273.308L220.727 277.517Z" fill="black"/>
<path d="M212.521 261.626L210.233 263.251L207.489 285.264C207.489 285.264 209.014 295.04 208.708 296.539C208.401 298.038 214.966 311.478 214.966 311.478C214.966 311.478 236.618 345.845 245.463 347.617L275.354 328.595L267.421 319.63C267.421 319.63 264.677 318.678 263.989 319.63C263.989 319.63 249.276 297.079 247.75 295.447C246.225 293.815 246.532 290.558 246.532 290.558C246.532 290.558 244.244 288.387 245.007 286.349C245.769 284.311 240.58 277.244 240.58 277.244L245.305 273.308L212.521 261.626Z" fill="white"/>
<path opacity="0.1" d="M354.492 347.86C356.15 349.655 355.105 357.711 355.105 357.711L350.529 364.46C350.529 364.46 350.803 368.817 350.82 374.688L343.127 376.829C342.432 377.022 341.695 377.065 340.978 376.953C340.26 376.841 339.583 376.578 339.003 376.186C338.423 375.793 337.957 375.283 337.643 374.697C337.33 374.112 337.178 373.468 337.2 372.819L338.527 334.709L356.473 340.823C354.948 341.768 356.622 344.087 356.622 344.087C356.622 344.087 352.817 346.066 354.492 347.86Z" fill="black"/>
<path d="M355.412 347.041C357.069 348.835 356.025 356.899 356.025 356.899L351.449 363.648C351.449 363.648 351.723 367.997 351.748 373.875L343.914 376.054C343.233 376.242 342.512 376.283 341.81 376.173C341.108 376.063 340.445 375.805 339.878 375.421C339.31 375.036 338.854 374.537 338.546 373.964C338.239 373.39 338.09 372.76 338.112 372.125L339.446 333.897L357.401 340.011C355.867 340.956 357.542 343.267 357.542 343.267C357.542 343.267 353.754 345.254 355.412 347.041Z" fill="white"/>
<path d="M361.355 328.875C361.355 328.875 360.137 335.809 357.086 336.215C354.036 336.621 352.668 347.432 349.626 347.048C346.584 346.664 348.598 336.998 348.706 335.122C348.813 333.247 345.39 325.479 347.951 323.714C350.513 321.949 358.62 323.714 358.62 323.714L361.355 328.875Z" fill="#CF6F80"/>
<path opacity="0.1" d="M367.845 275.479L373.598 265.141C373.598 265.141 375.886 273.02 375.886 277.229C375.886 281.438 379.086 281.852 379.086 281.852C379.086 281.852 382.592 285.544 380.744 288.232C378.895 290.92 378.149 297.61 378.149 297.61C378.149 297.61 378.754 310.378 376.01 312.142C373.267 313.907 372.695 318.124 372.695 318.124C372.695 318.124 367.655 326.136 367.812 328.041C367.97 329.946 360.8 342.846 360.8 342.846C360.8 342.846 364.306 326.815 343.873 319.889C343.873 319.889 343.715 314.446 345.241 312.955C346.766 311.463 349.145 310.784 347.653 303.244C346.161 295.705 347.222 286.696 347.222 284.887C347.222 283.078 351.797 271.795 351.797 271.795L367.845 275.479Z" fill="black"/>
<path d="M370.332 263.664L375.356 265.141C375.356 265.141 377.652 273.02 377.652 277.229C377.652 281.438 380.852 281.852 380.852 281.852C380.852 281.852 384.358 285.544 382.509 288.232C380.661 290.92 379.923 297.61 379.923 297.61C379.923 297.61 380.528 310.378 377.785 312.142C375.041 313.907 374.427 318.124 374.427 318.124C374.427 318.124 369.396 326.136 369.553 328.041C369.711 329.946 362.532 342.846 362.532 342.846C362.532 342.846 366.047 326.815 345.605 319.889C345.605 319.889 345.456 314.446 346.981 312.955C348.507 311.463 350.886 310.784 349.394 303.244C347.902 295.705 348.963 286.696 348.963 284.887C348.963 283.078 353.538 271.795 353.538 271.795L370.332 263.664Z" fill="white"/>
<path opacity="0.1" d="M259.38 531.619C259.38 531.619 267.388 527.137 272.643 530.393C277.898 533.65 259.38 531.619 259.38 531.619Z" fill="black"/>
<path opacity="0.1" d="M321.6 517.759C321.6 517.759 328.687 516.946 334.639 522.655C340.59 528.363 321.6 517.759 321.6 517.759Z" fill="black"/>
<g opacity="0.1">
<path opacity="0.1" d="M331.97 160.646C330.95 161.429 329.64 161.99 328.961 163.031C328.38 163.925 328.364 165.025 327.9 165.985C327.435 166.945 326.084 167.727 325.147 167.122C324.932 160.476 321.251 154.236 316.734 148.92C315.471 147.315 313.936 145.895 312.183 144.711C310.409 143.522 308.201 142.967 305.991 143.152C303.504 143.455 301.316 144.962 298.804 145.146C295.488 145.397 292.512 143.352 289.222 143.248C287.884 143.26 286.565 143.527 285.353 144.03C284.141 144.533 283.063 145.261 282.192 146.165C280.462 147.983 279.177 150.104 278.421 152.39C277.118 155.86 276.408 159.484 276.315 163.142C276.265 165.202 276.05 167.772 273.911 168.54C273.961 169.085 273.961 169.634 273.911 170.179C276.067 169.441 276.282 166.841 276.332 164.774C276.424 161.116 277.134 157.492 278.437 154.022C279.194 151.733 280.478 149.611 282.209 147.79C283.081 146.888 284.16 146.162 285.372 145.66C286.584 145.159 287.902 144.893 289.238 144.88C292.554 144.984 295.538 147.022 298.821 146.778C301.307 146.594 303.512 145.08 306.007 144.784C308.217 144.599 310.425 145.154 312.2 146.342C313.952 147.527 315.487 148.947 316.75 150.552C321.268 155.861 324.949 162.086 325.164 168.747C326.101 169.359 327.452 168.562 327.916 167.617C328.38 166.672 328.397 165.564 328.977 164.663C329.657 163.622 330.967 163.068 331.986 162.285C334.572 160.299 335.219 156.954 335.119 153.919C335.119 153.823 335.119 153.727 335.119 153.638C334.962 156.267 334.174 158.948 331.97 160.646Z" fill="black"/>
<path opacity="0.1" d="M270.778 160.122C268.872 158.253 266.269 157.005 264.52 155.026C263.047 153.275 262.206 151.166 262.108 148.979C261.847 151.712 262.703 154.436 264.52 156.651C266.269 158.637 268.872 159.885 270.778 161.754C272.609 163.581 273.708 165.897 273.903 168.34C274.03 166.854 273.819 165.359 273.282 163.947C272.745 162.535 271.893 161.234 270.778 160.122Z" fill="black"/>
<path opacity="0.1" d="M336.736 137.828C336.247 139.637 335.377 141.358 334.979 143.182C334.743 144.401 334.657 145.639 334.722 146.874C334.75 146.17 334.835 145.469 334.979 144.777C335.377 142.946 336.247 141.232 336.736 139.423C337.021 138.425 337.113 137.392 337.009 136.366C336.958 136.859 336.867 137.347 336.736 137.828Z" fill="black"/>
</g>
<path opacity="0.1" d="M110.024 561.644C154.632 561.644 190.794 556.47 190.794 550.087C190.794 543.705 154.632 538.531 110.024 538.531C65.415 538.531 29.2527 543.705 29.2527 550.087C29.2527 556.47 65.415 561.644 110.024 561.644Z" fill="#EA4848"/>
<path d="M112.627 328.706H107.43V432.95H112.627V328.706Z" fill="#535461"/>
<path d="M145.286 432.632L144.963 437.329L144.499 443.975L144.308 446.736L143.852 453.382L143.653 456.144L143.189 462.79L137.95 538.162C137.723 541.404 136.116 544.448 133.458 546.673C130.8 548.898 127.291 550.138 123.643 550.139H96.4045C92.7579 550.138 89.249 548.898 86.5923 546.673C83.9357 544.448 82.3311 541.404 82.1055 538.162L76.8915 462.738L76.4273 456.092L76.2367 453.331L75.7725 446.685L75.5818 443.923L75.1176 437.277L74.786 432.581C74.7284 431.677 74.8788 430.772 75.2278 429.922C75.5769 429.071 76.1173 428.293 76.8158 427.636C77.5144 426.978 78.3565 426.455 79.2903 426.098C80.2241 425.74 81.2301 425.557 82.2464 425.558H137.959C138.971 425.566 139.971 425.758 140.897 426.124C141.823 426.489 142.654 427.02 143.341 427.683C144.028 428.345 144.555 429.127 144.889 429.978C145.224 430.829 145.359 431.733 145.286 432.632Z" fill="#3F3D56"/>
<path d="M144.963 437.329L144.499 443.953H75.5487L75.0845 437.329H144.963Z" fill="#9D9CB5"/>
<path d="M144.308 446.714L143.853 453.345H76.2036L75.7394 446.714H144.308Z" fill="#9D9CB5"/>
<path d="M143.654 456.115L143.198 462.738H76.8584L76.3942 456.115H143.654Z" fill="#9D9CB5"/>
<path d="M67.1515 367.776C97.4158 387.285 110.049 417.797 110.049 417.797C110.049 417.797 73.5758 416.682 43.3032 397.173C13.0307 377.663 0.422729 347.159 0.422729 347.159C0.422729 347.159 36.879 348.266 67.1515 367.776Z" fill="#EA4848"/>
<path d="M0.397949 347.159C0.397949 347.159 38.2634 365.878 50.4073 381.378C62.5511 396.877 110.049 417.797 110.049 417.797" stroke="#535461" stroke-width="2" stroke-miterlimit="10"/>
<path d="M86.6895 328.476C103.16 339.088 110.049 355.695 110.049 355.695C110.049 355.695 90.1959 355.09 73.7168 344.478C57.2377 333.867 50.3658 317.252 50.3658 317.252C50.3658 317.252 70.2104 317.858 86.6895 328.476Z" fill="#EA4848"/>
<path d="M50.3658 317.252C50.3658 317.252 70.973 327.443 77.5796 335.876C84.1862 344.308 110.049 355.695 110.049 355.695" stroke="#535461" stroke-width="2" stroke-miterlimit="10"/>
<path d="M133.963 354.853C115.039 373.381 111.035 397.594 111.035 397.594C111.035 397.594 137.718 391.76 156.626 373.226C175.534 354.691 179.554 330.485 179.554 330.485C179.554 330.485 152.888 336.326 133.963 354.853Z" fill="#EA4848"/>
<path d="M179.571 330.492C179.571 330.492 154.918 349.485 148.652 362.57C142.385 375.655 111.035 397.594 111.035 397.594" stroke="#535461" stroke-width="2" stroke-miterlimit="10"/>
<path d="M828.656 348.333C828.656 348.333 814.97 287.678 820.209 280.131C820.209 280.131 820.4 273.116 820.085 264.174C820.085 263.834 820.085 263.494 820.085 263.147C821.006 263.695 821.967 264.188 822.961 264.624C827.788 266.833 833.33 267.471 838.628 266.426L834.483 262.313C833.489 261.331 832.452 260.268 832.237 258.968C832.021 257.668 832.618 256.509 833.132 255.35C837.07 246.488 837.277 235.345 829.692 228.581C823.284 222.896 821.726 215.556 814.771 210.364C809.69 206.561 806.896 200.986 804.26 195.596C802.031 191.04 799.784 186.447 798.508 181.617C797.513 177.844 797.115 173.938 795.747 170.253C794.38 166.568 791.818 162.987 787.815 161.34C786.389 160.756 784.806 160.424 783.504 159.649C781.797 158.622 780.769 156.954 779.534 155.491C773.259 148.107 752.245 152.457 742.298 155.455C739.594 156.21 737.09 157.446 734.937 159.088L735.028 158.955C735.103 158.844 735.194 158.733 735.277 158.622C734.188 159.407 733.248 160.342 732.492 161.392C731.041 163.437 730.436 165.822 729.226 168.037C727.767 170.659 719.652 177.977 723.142 180.923C723.386 181.121 723.666 181.281 723.97 181.396C725.281 181.881 726.723 182.01 728.115 181.765L727.966 182.082C726.774 184.682 726.163 187.464 726.167 190.272C726.167 202.404 737.399 212.24 751.267 212.24C753.874 212.242 756.466 211.886 758.951 211.184C759.009 211.465 759.059 211.745 759.117 212.026C759.117 212.137 759.159 212.247 759.175 212.358L758.736 212.905C758.714 212.871 758.689 212.839 758.661 212.809L745.647 229.01C743.658 230.258 732.202 237.642 731.555 243.18C730.875 249.243 730.196 256.339 730.196 256.339L730.105 257.86C729.536 258.284 728.871 258.592 728.155 258.764C727.439 258.936 726.691 258.968 725.96 258.857C721.898 258.266 721.898 272.149 721.898 272.149C721.898 272.149 719.196 274.364 717.339 272.444C715.482 270.524 710.575 277.03 710.575 277.03L679.822 278.211L679.117 278.248L677.459 273.677C677.281 273.195 676.896 272.795 676.389 272.564C675.881 272.334 675.292 272.29 674.749 272.444C674.62 272.482 674.495 272.529 674.376 272.585L674.26 272.644L674.044 272.777L673.936 272.865C673.877 272.913 673.821 272.965 673.77 273.02L673.671 273.124L673.621 273.168C673.43 273.404 673.303 273.676 673.251 273.963C673.199 274.251 673.224 274.545 673.323 274.822L674.749 278.743C668.813 279.806 662.746 282.804 667.694 291.06L642.611 286.932L650.726 293.002L692.62 300.704C692.065 301.59 692.43 302.875 694.162 304.684C701.622 312.489 715.217 314.609 720.688 315.155C722.133 318.034 723.937 320.759 726.068 323.278L725.595 331.054C725.595 331.054 711.744 390.32 709.207 393.326C710.488 392.033 711.66 390.658 712.714 389.213C708.693 401.389 703.073 418.056 701.598 420.552C699.227 424.539 697.03 440.674 699.733 441.708C700.561 442.025 702.932 441.87 706.314 441.641V442.978L706.165 493.627C706.165 493.627 706.845 524.693 704.98 527.654C703.115 530.615 702.617 536.825 702.617 536.825C702.617 536.825 695.157 549.076 689.247 554.001C689.206 554.039 689.162 554.074 689.114 554.104L688.932 552.952C688.932 552.952 681.828 560.942 666.111 560.492C666.111 560.492 656.653 565.971 670.679 566.266C684.704 566.562 702.617 565.823 702.617 565.823C702.617 565.823 715.126 548.839 725.603 551.055V563.925H728.811V550.848C730.299 549.975 731.572 548.843 732.554 547.519C733.536 546.195 734.206 544.707 734.523 543.146C734.797 541.537 734.596 539.891 733.939 538.372C733.282 536.853 732.192 535.513 730.776 534.484C730.14 533.972 729.63 533.348 729.277 532.652C728.925 531.955 728.738 531.201 728.728 530.438L728.612 530.526C728.612 530.268 728.538 530.002 728.505 529.729C727.585 523.083 726.432 509.37 730.502 499.224C736.081 485.312 737.772 465.936 733.71 454.401C732.4 450.714 731.323 446.965 730.486 443.17C730.386 442.69 730.295 442.232 730.212 441.804C732.989 442.138 735.738 442.632 738.444 443.28C747.852 445.592 768.434 446.02 786.008 445.895C786.049 446.323 786.099 446.773 786.157 447.224C786.47 450.355 787.125 453.451 788.113 456.469C790.318 462.376 791.329 488.421 791.329 488.421C791.329 488.421 794.172 509.835 792.622 518.549C791.793 523.393 790.964 528.259 790.492 533.148V533.244C790.492 533.244 785.833 545.059 782.427 551.475C782.344 551.638 782.252 551.8 782.17 551.955C781.261 552.029 780.367 552.205 779.509 552.48C779.509 552.48 774.941 560.602 770.39 561.946C765.84 563.29 767.348 567.714 777.652 566.089C787.955 564.464 803.514 563.135 803.514 563.135L804.186 554.85L807.352 551.32L806.524 559.583L809.897 558.993L809.45 548.943L814.63 543.168C814.63 543.168 820.889 538.206 811.588 528.444V528.658C811.489 528.518 811.398 528.37 811.29 528.23V528.185C809.748 526.059 808.521 522.093 810.768 515.056C814.829 502.34 817.192 490.799 817.192 490.799C817.192 490.799 826.26 459.88 815.36 445.252H815.841C814.724 443.194 813.934 441.007 813.495 438.754C813.44 438.488 813.39 438.215 813.346 437.934C821.411 437.521 829.327 436.221 835.785 433.415C835.76 433.385 831.872 360.015 828.656 348.333ZM726.258 297.16V297.307L724.6 297.381L726.258 297.16ZM720.572 297.861C720.299 297.915 720.044 298.024 719.826 298.179C719.113 299.077 718.666 300.121 718.524 301.214L715.938 300.697C715.938 300.697 714.123 300.35 711.512 299.958L710.277 298.851C713.675 298.6 717.206 298.23 720.572 297.861Z" fill="url(#paint1_linear)"/>
<path d="M806.142 549.046L805.156 559.51L808.463 558.919L807.966 547.569L806.142 549.046Z" fill="#1D2366"/>
<path d="M730.685 499.364C726.697 509.481 727.825 523.134 728.72 529.766C729.052 532.217 729.358 533.709 729.358 533.709C729.358 533.709 723.398 545.804 722.901 546.262C722.404 546.72 705.361 555.987 705.361 555.987L693.449 562.183C693.449 562.183 681.363 557.464 687.157 555.84C688.341 555.416 689.408 554.769 690.282 553.942C696.085 549.031 703.371 536.825 703.371 536.825C703.371 536.825 703.869 530.63 705.692 527.683C707.516 524.737 706.853 493.774 706.853 493.774L706.994 443.303V436.723L729.665 436.871C729.808 439.104 730.135 441.326 730.643 443.517C731.457 447.299 732.511 451.036 733.801 454.711C737.797 466.224 736.139 485.504 730.685 499.364Z" fill="#FFB0B1"/>
<path opacity="0.1" d="M729.358 533.709C729.358 533.709 723.398 545.804 722.901 546.262C722.404 546.72 705.361 555.987 705.361 555.987L693.449 562.183C693.449 562.183 681.363 557.464 687.157 555.84C688.341 555.417 689.408 554.769 690.282 553.942L690.796 557.169L694.767 557.021L728.753 529.781C729.052 532.217 729.358 533.709 729.358 533.709Z" fill="black"/>
<path d="M728.944 530.467L694.767 557.893L690.797 558.04L689.968 552.871C689.968 552.871 683.021 560.832 667.587 560.388C667.587 560.388 658.319 565.845 672.055 566.141C685.79 566.436 703.33 565.698 703.33 565.698C703.33 565.698 715.582 548.714 725.835 550.929V563.756H728.985V550.811C730.45 549.933 731.7 548.8 732.66 547.48C733.62 546.16 734.271 544.681 734.572 543.131C734.845 541.535 734.652 539.903 734.012 538.393C733.372 536.882 732.306 535.544 730.917 534.506C730.296 533.988 729.801 533.363 729.462 532.668C729.123 531.974 728.947 531.225 728.944 530.467Z" fill="#1D2366"/>
<path d="M809.292 515.137C807.087 522.152 808.289 526.103 809.797 528.222V528.267C811.732 530.883 813.078 533.81 813.76 536.884L813.892 537.549L798.342 557.745L789.903 560.699C789.903 560.699 776.334 556.571 778.812 555.389C779.434 555.101 780.404 553.565 781.514 551.446C784.83 545.059 789.406 533.273 789.406 533.273V533.177C789.886 528.311 790.649 523.459 791.495 518.63C793.012 509.939 790.226 488.606 790.226 488.606C790.226 488.606 789.232 462.664 787.076 456.764C786.103 453.765 785.457 450.688 785.145 447.578C784.697 443.886 784.598 440.844 784.598 440.844C784.598 440.844 793.534 429.767 809.913 441.73C811.223 442.684 812.376 443.798 813.337 445.038C824.652 459.378 815.542 490.969 815.542 490.969C815.542 490.969 813.262 502.458 809.292 515.137Z" fill="#FFB0B1"/>
<path opacity="0.1" d="M813.918 537.549L798.367 557.745L789.928 560.699C789.928 560.699 776.359 556.571 778.837 555.389C779.459 555.101 780.429 553.565 781.54 551.446C787.284 551.402 790.26 556.275 790.26 556.275L797.538 555.242C797.538 555.242 807.137 538.435 809.292 537.408C811.447 536.382 809.624 529.736 809.624 529.736V528.045C809.682 528.104 809.732 528.171 809.798 528.23V528.274C811.733 530.891 813.078 533.817 813.76 536.892L813.918 537.549Z" fill="black"/>
<path d="M790.757 556.711C790.757 556.711 786.612 549.932 778.671 552.436C778.671 552.436 774.203 560.558 769.735 561.873C765.267 563.187 766.759 567.618 776.856 566C786.952 564.383 802.171 563.047 802.171 563.047L802.834 554.784L813.097 543.139C813.097 543.139 819.214 538.199 810.112 528.474V530.165C810.112 530.165 811.936 536.81 809.781 537.837C807.626 538.863 798.06 555.677 798.06 555.677L790.757 556.711Z" fill="#1D2366"/>
<path opacity="0.1" d="M729.69 436.856C729.833 439.09 730.16 441.311 730.668 443.502C721.334 442.284 712.672 442.889 706.994 443.288V436.708L729.69 436.856Z" fill="black"/>
<path opacity="0.1" d="M814.257 446.877C814.257 446.877 800.994 447.453 785.178 447.571C784.731 443.879 784.631 440.836 784.631 440.836C784.631 440.836 793.567 429.76 809.946 441.722C811.256 442.677 812.409 443.79 813.37 445.031C813.627 445.66 813.923 446.276 814.257 446.877Z" fill="black"/>
<path d="M814.257 445.548C814.257 445.548 756.166 448.051 738.46 443.628C720.754 439.204 703.206 443.037 700.561 442.011C697.917 440.984 700.064 424.908 702.385 420.928C704.706 416.948 717.438 376.696 717.438 376.696L729.69 319.793L742.596 316.625L743.508 316.396L765.997 310.872L782.476 306.818C782.476 306.818 815.244 420.781 812.434 429.184C811.413 432.402 811.249 435.787 811.953 439.072C812.382 441.315 813.158 443.494 814.257 445.548Z" fill="#1D2366"/>
<path d="M686.983 280.877C686.983 280.877 675.378 291.954 684.165 298.127C692.952 304.3 698.729 298.718 698.729 298.718L686.983 280.877Z" fill="#C7DAF5"/>
<path opacity="0.1" d="M686.983 280.877C686.983 280.877 675.378 291.954 684.165 298.127C692.952 304.3 698.729 298.718 698.729 298.718L686.983 280.877Z" fill="black"/>
<path d="M780.744 208.053C780.744 208.053 779.384 209.205 777.337 210.903C774.419 213.333 770.1 216.885 766.271 219.861C760.966 223.974 756.589 226.994 758.156 224.417C759.722 221.84 759.424 217.35 758.645 213.148C758.587 212.868 758.537 212.587 758.479 212.314C757.834 209.228 756.978 206.18 755.917 203.187C755.917 203.187 764.489 193.321 769.23 189.43C770.996 187.953 772.231 187.348 772.305 188.374C772.388 189.755 773.549 192.805 774.991 196.039C775.033 196.142 775.074 196.238 775.124 196.342C776.085 198.557 777.171 200.831 778.124 202.796C779.583 205.808 780.744 208.053 780.744 208.053Z" fill="#FFB0B1"/>
<path opacity="0.1" d="M775.124 196.342C774.318 200.201 772.364 203.797 769.465 206.753C766.566 209.71 762.829 211.918 758.645 213.148C757.986 209.777 757.074 206.45 755.917 203.187C755.917 203.187 772.057 184.615 772.305 188.374C772.363 189.799 773.623 192.96 775.124 196.342Z" fill="black"/>
<path opacity="0.1" d="M757.036 218.111L759.125 215.489C759.125 215.489 760.509 223.006 765.599 219.691C770.689 216.375 770.937 244.642 770.937 244.642L765.475 317.4L726.001 315.296L727.12 280.139L731.588 262.416L742.638 236.653L749.211 228.138L757.036 218.111Z" fill="black"/>
<path d="M770.938 245.093L765.964 310.88L765.442 317.85L743.434 316.676L742.605 316.632L726.026 315.746L727.145 280.582L731.613 262.859L742.663 237.096L749.236 228.581L757.061 218.517L759.15 215.903C759.15 215.903 760.534 223.42 765.624 220.104L765.732 220.038C770.705 217.232 770.938 245.093 770.938 245.093Z" fill="#1D2366"/>
<path d="M732.168 256.701C732.168 256.701 730.187 260.393 726.208 259.795C722.23 259.197 722.238 273.087 722.238 273.087C722.238 273.087 719.594 275.302 717.77 273.382C715.946 271.462 711.138 277.953 711.138 277.953L681.015 279.135C681.015 279.135 694.419 284.592 691.791 301.103C691.791 301.103 737.299 298.592 738.792 294.76C740.284 290.927 732.168 256.701 732.168 256.701Z" fill="white"/>
<path opacity="0.03" d="M732.168 256.701C732.168 256.701 730.187 260.393 726.208 259.795C722.23 259.197 722.238 273.087 722.238 273.087C722.238 273.087 719.594 275.302 717.77 273.382C715.946 271.462 711.138 277.953 711.138 277.953L681.015 279.135C681.015 279.135 694.419 284.592 691.791 301.103C691.791 301.103 737.299 298.592 738.792 294.76C740.284 290.927 732.168 256.701 732.168 256.701Z" fill="black"/>
<path d="M644.625 287.811L652.566 293.851L717.936 306.087L709.829 298.718L644.625 287.811Z" fill="white"/>
<path d="M757.161 220.437C756.075 221.914 752.966 229.475 750.372 236.077C748.208 241.578 746.401 246.415 746.401 246.415C746.401 246.415 742.182 270.886 740.027 275.31C737.871 279.733 739.04 296.982 739.04 296.982L731.008 339.583C731.008 339.583 727.369 361.551 721.749 374.673C716.203 387.588 710.028 393.643 709.837 393.835C712.324 390.837 725.877 331.807 725.877 331.807L730.353 257.358C730.353 257.358 731.008 250.284 731.671 244.236C732.334 238.189 745.763 229.933 745.763 229.933L758.711 213.532C760.012 215.083 759.142 217.786 757.161 220.437Z" fill="white"/>
<path d="M723.398 316.115C723.398 316.115 704.333 315.377 695.099 305.497C685.864 295.616 716.444 301.553 716.444 301.553L724.393 303.178L723.398 316.115Z" fill="#FFB0B1"/>
<path opacity="0.1" d="M812.433 429.191C811.413 432.409 811.248 435.794 811.953 439.079C791.155 440.393 768.906 435.387 768.906 435.387C764.762 438.783 753.845 443.79 753.845 443.79L747.893 378.07C744.088 369.208 742.596 322.783 742.596 322.783C742.596 322.783 742.936 320.354 743.425 316.713C743.425 316.625 743.425 316.529 743.467 316.44C744.95 306.272 747.893 287.183 749.335 284.606C751.325 281.062 743.218 271.632 743.218 271.632L746.907 243.609L747.354 240.227C755.13 237.133 761.09 227.252 761.09 227.252L765.665 220.112C770.639 217.269 770.896 245.13 770.896 245.13L765.922 310.917L782.401 306.863C782.401 306.863 815.243 420.788 812.433 429.191Z" fill="black"/>
<path d="M833.779 433.733C811.107 443.761 769.901 434.471 769.901 434.471C765.757 437.868 754.839 442.874 754.839 442.874L748.879 377.154C745.083 368.293 743.591 321.868 743.591 321.868C743.591 321.868 748.382 287.228 750.372 283.691C750.952 282.657 750.67 281.121 749.982 279.467C746.599 271.594 745.355 263.12 746.351 254.737L747.943 242.693L748.382 239.318C756.166 236.217 762.126 226.337 762.126 226.337L766.27 219.868L773.897 207.95L777.511 202.308L778.124 202.803L782.808 206.584C782.808 206.584 784.797 208.06 787.781 210.276C794.272 215.149 805.487 223.73 811.273 228.98C816.363 233.603 817.971 251.584 818.435 265.119C818.742 274.032 818.559 281.018 818.559 281.018C813.428 288.542 826.849 348.953 826.849 348.953C829.974 360.628 833.779 433.733 833.779 433.733Z" fill="white"/>
<path opacity="0.03" d="M790.26 226.189C790.26 226.189 774.701 252.573 776.508 262.601C778.315 272.629 783.454 283.979 780.976 286.63C780.124 287.634 779.023 288.449 777.759 289.012C776.495 289.574 775.102 289.868 773.689 289.871C771.203 290.019 764.571 294.147 764.571 294.59C764.571 295.033 758.445 295.033 752.966 297.101C747.487 299.168 739.397 300.342 739.397 300.342C739.397 300.342 723.647 299.899 722.18 301.228C720.713 302.558 719.204 310.511 722.346 316.854C725.487 323.197 728.977 327.93 731.613 328.794C734.249 329.658 750.977 324.666 764.546 323.485C778.116 322.303 792.846 312.726 792.846 312.726C792.846 312.726 809.068 307.557 811.911 298.865C814.755 290.174 808.438 242.405 808.438 242.405C808.438 242.405 803.664 220.141 790.26 226.189Z" fill="black"/>
<path opacity="0.03" d="M788.27 223.974C788.27 223.974 772.711 250.365 774.535 260.386C776.359 270.406 781.481 281.763 778.995 284.422C778.146 285.427 777.047 286.243 775.784 286.806C774.521 287.368 773.129 287.662 771.717 287.663C769.23 287.811 762.598 291.939 762.598 292.382C762.598 292.825 756.473 292.825 750.993 294.885C745.514 296.946 737.424 298.127 737.424 298.127C737.424 298.127 721.674 297.684 720.215 299.013C718.756 300.342 717.231 308.303 720.381 314.638C723.531 320.974 727.012 325.715 729.648 326.579C732.284 327.443 749.012 322.451 762.582 321.277C776.151 320.103 790.882 310.511 790.882 310.511C790.882 310.511 807.095 305.342 809.906 296.658C812.716 287.974 806.432 240.19 806.432 240.19C806.432 240.19 801.674 217.933 788.27 223.974Z" fill="black"/>
<path d="M789.771 224.86C789.771 224.86 774.211 251.251 776.035 261.272C777.859 271.292 782.982 282.649 780.503 285.3C779.655 286.308 778.555 287.126 777.29 287.69C776.025 288.254 774.631 288.548 773.217 288.549C770.73 288.697 764.099 292.825 764.099 293.261C764.099 293.696 757.981 293.704 752.494 295.771C747.006 297.839 738.924 299.013 738.924 299.013C738.924 299.013 723.174 298.57 721.707 299.899C720.24 301.228 718.731 309.189 721.873 315.524C725.015 321.86 728.504 326.601 731.14 327.465C733.776 328.329 750.504 323.337 764.074 322.155C777.643 320.974 792.373 311.397 792.373 311.397C792.373 311.397 808.596 306.228 811.439 297.536C814.282 288.845 808.007 241.076 808.007 241.076C808.007 241.076 803.166 218.849 789.771 224.86Z" fill="white"/>
<path opacity="0.1" d="M789.431 295.646C789.431 295.646 776.997 293.431 781.324 297.123C785.651 300.815 785.626 304.049 790.923 303.902C796.22 303.754 789.431 295.646 789.431 295.646Z" fill="black"/>
<path opacity="0.1" d="M810.444 375.086C810.444 375.086 804.824 378.476 815.575 386.288C826.326 394.101 810.444 375.086 810.444 375.086Z" fill="black"/>
<path opacity="0.1" d="M799.718 402.947C799.718 403.39 797.728 419.193 805.172 423.143C812.615 427.094 799.718 402.947 799.718 402.947Z" fill="black"/>
<path d="M681.529 279.098C675.527 279.282 662.563 280.914 669.286 292.087C675.229 301.974 685.218 295.365 690.838 290.351C689.467 285.677 686.135 281.649 681.529 279.098Z" fill="#FFB0B1"/>
<path d="M690.912 290.263L691.161 290.034L690.912 290.263Z" fill="#FFB0B1"/>
<path opacity="0.1" d="M787.781 210.726C781.415 214.603 776.077 217.874 775.032 218.554C772.181 220.437 766.743 231.491 763.237 237.133C760.443 241.674 751.366 242.841 747.943 243.129L748.382 239.754C756.166 236.653 762.126 226.772 762.126 226.772L777.511 202.744L782.808 207.034C782.808 207.034 784.797 208.511 787.781 210.726Z" fill="black"/>
<path d="M787.781 210.283C781.415 214.16 776.077 217.431 775.032 218.118C772.181 219.994 766.743 231.048 763.237 236.69C760.443 241.231 751.366 242.398 747.943 242.686L748.382 239.311C756.166 236.21 762.126 226.329 762.126 226.329L777.511 202.301L782.808 206.576C782.808 206.576 784.797 208.038 787.781 210.283Z" fill="#DCE7FF"/>
<path d="M775.529 191.468C775.533 195.901 774.024 200.23 771.202 203.881C767.87 208.198 762.911 211.308 757.225 212.647C751.539 213.985 745.503 213.464 740.211 211.177C734.92 208.89 730.724 204.989 728.385 200.182C726.046 195.375 725.719 189.98 727.464 184.977C729.208 179.973 732.907 175.692 737.892 172.911C742.876 170.13 748.814 169.032 754.629 169.817C760.443 170.603 765.75 173.219 769.584 177.191C773.419 181.163 775.528 186.229 775.529 191.468Z" fill="#FFB0B1"/>
<path opacity="0.1" d="M818.435 265.126C815.069 263.282 812.327 260.658 810.502 257.535C809.118 255.099 808.198 252.285 805.835 250.557C803.705 249.006 800.862 248.63 798.209 247.936C789.489 245.639 782.178 238.55 781.904 230.457C781.771 226.647 783.106 222.844 782.501 219.07C782.157 216.935 781.204 214.914 779.732 213.2C779.002 212.38 778.201 211.612 777.337 210.903C776.176 209.929 774.958 208.983 773.896 207.95C773.228 207.31 772.644 206.603 772.156 205.845C771.762 205.225 771.442 204.569 771.202 203.888C769.545 199.369 771.053 194.008 769.23 189.437L769.13 189.186C768.442 187.562 767.041 185.937 765.093 185.812C763.145 185.686 761.479 187.126 759.622 187.768C755.735 189.112 751.54 186.823 748.299 184.49C745.058 182.156 741.402 179.491 737.283 180.007C734.555 180.354 732.4 182.009 729.889 182.865C729.322 183.061 728.736 183.211 728.14 183.316C730.265 178.593 734.17 174.678 739.185 172.242C744.199 169.806 750.008 169.002 755.616 169.968C761.223 170.933 766.278 173.608 769.912 177.533C773.546 181.458 775.532 186.388 775.53 191.475C775.532 193.012 775.352 194.544 774.991 196.046C775.032 196.15 775.074 196.246 775.123 196.349C776.085 198.564 777.171 200.839 778.124 202.803L782.807 206.584C782.807 206.584 784.797 208.06 787.781 210.276C794.272 215.149 805.487 223.73 811.273 228.98C816.363 233.618 817.954 251.591 818.435 265.126Z" fill="black"/>
<path d="M729.599 169.374C730.784 167.225 731.373 164.818 732.79 162.78C734.871 159.826 738.501 157.936 742.232 156.791C751.972 153.801 772.554 149.459 778.704 156.791C779.915 158.268 780.918 159.907 782.592 160.926C783.869 161.702 785.41 162.034 786.811 162.617C790.732 164.257 793.236 167.831 794.57 171.479C795.905 175.126 796.303 179.04 797.281 182.799C798.532 187.621 800.729 192.192 802.917 196.733C805.495 202.094 808.231 207.654 813.204 211.443C819.993 216.612 821.494 223.929 827.794 229.601C835.254 236.335 835.014 247.448 831.167 256.273C830.662 257.432 830.09 258.643 830.289 259.876C830.488 261.109 831.516 262.232 832.485 263.214L836.564 267.312C826.915 269.387 815.998 264.898 811.505 257.019C810.121 254.582 809.201 251.776 806.83 250.04C804.708 248.49 801.856 248.12 799.212 247.426C790.492 245.122 783.181 238.026 782.907 229.933C782.774 226.13 784.109 222.327 783.504 218.561C783.167 216.411 782.21 214.376 780.727 212.654C778.448 210.003 775.007 208.223 773.151 205.269C770.009 200.329 772.396 193.912 770.133 188.61C769.437 186.986 768.044 185.361 766.096 185.236C764.148 185.11 762.482 186.55 760.617 187.192C756.738 188.536 752.543 186.255 749.302 183.914C746.061 181.573 742.406 178.915 738.278 179.439C735.55 179.779 733.403 181.433 730.892 182.297C729.035 182.932 725.272 183.5 723.647 182.105C720.215 179.291 728.165 172.003 729.599 169.374Z" fill="#591D4B"/>
<path opacity="0.1" d="M813.81 254.582C812.417 252.145 811.505 249.339 809.135 247.611C807.013 246.06 804.161 245.684 801.508 244.989C792.796 242.693 785.485 235.597 785.203 227.503C785.071 223.7 786.405 219.89 785.809 216.124C785.461 213.988 784.505 211.967 783.032 210.254C780.744 207.603 777.304 205.823 775.455 202.869C772.314 197.937 774.701 191.52 772.43 186.21C771.742 184.593 770.341 182.969 768.401 182.836C766.461 182.703 764.779 184.157 762.922 184.8C759.042 186.144 754.84 183.855 751.607 181.521C748.374 179.188 744.702 176.522 740.582 177.039C737.855 177.386 735.7 179.04 733.196 179.897C731.34 180.532 727.568 181.108 725.943 179.712C722.528 176.758 730.478 169.485 731.903 166.871C733.089 164.714 733.677 162.315 735.103 160.276C735.178 160.166 735.26 160.055 735.343 159.944C734.277 160.731 733.356 161.663 732.616 162.706C731.199 164.744 730.61 167.137 729.425 169.3C727.991 171.914 720.041 179.21 723.465 182.141C725.123 183.544 728.853 182.969 730.71 182.333C733.196 181.469 735.368 179.815 738.095 179.476C742.24 178.951 745.887 181.617 749.12 183.951C752.353 186.284 756.581 188.573 760.443 187.229C762.3 186.587 763.925 185.14 765.914 185.272C767.904 185.405 769.23 187.023 769.951 188.647C772.214 193.949 769.827 200.366 772.968 205.306C774.825 208.208 778.265 210.025 780.545 212.69C782.028 214.413 782.985 216.448 783.322 218.598C783.927 222.364 782.592 226.167 782.725 229.97C782.999 238.092 790.31 245.159 799.03 247.463C801.658 248.157 804.526 248.527 806.648 250.077C809.027 251.813 809.964 254.619 811.323 257.055C815.816 264.934 826.733 269.424 836.382 267.349L834.459 265.414C826.095 265.525 817.631 261.287 813.81 254.582Z" fill="black"/>
<path opacity="0.1" d="M756.663 220.88C755.577 222.357 752.469 229.918 749.874 236.52C747.445 235.678 745.24 230.309 745.24 230.309L758.188 213.901C759.514 215.526 758.644 218.221 756.663 220.88Z" fill="black"/>
<path d="M757.161 220.437C756.075 221.913 752.966 229.475 750.372 236.076C747.943 235.242 745.738 229.866 745.738 229.866L758.686 213.466C760.012 215.083 759.142 217.786 757.161 220.437Z" fill="#DCE7FF"/>
<path d="M681.877 295.875L674.699 275.708C674.614 275.472 674.582 275.223 674.605 274.976C674.628 274.729 674.706 274.489 674.834 274.268C674.962 274.048 675.137 273.853 675.35 273.693C675.563 273.533 675.809 273.413 676.075 273.338C676.609 273.189 677.187 273.235 677.684 273.464C678.181 273.694 678.556 274.089 678.727 274.564L685.906 294.708L685.193 298.925L681.877 295.875Z" fill="#BE8B87"/>
<path opacity="0.1" d="M675.378 273.936C675.914 273.785 676.494 273.829 676.993 274.059C677.492 274.289 677.868 274.685 678.039 275.162L685.218 295.306L684.679 298.467L685.201 298.954L685.914 294.738L678.694 274.593C678.523 274.119 678.148 273.723 677.651 273.494C677.154 273.264 676.576 273.219 676.042 273.367C675.592 273.497 675.204 273.757 674.939 274.106C675.08 274.038 675.227 273.982 675.378 273.936Z" fill="white"/>
<path d="M681.877 295.875L685.906 294.738L685.317 298.193L685.193 298.954L684.016 297.861L681.877 295.875Z" fill="#EFC8C4"/>
<path d="M684.016 297.861C684.086 297.782 684.173 297.717 684.273 297.669C684.331 297.636 684.399 297.619 684.468 297.619C684.537 297.619 684.604 297.636 684.662 297.669C684.719 297.73 684.766 297.797 684.803 297.868C684.858 297.95 684.933 298.019 685.022 298.072C685.111 298.124 685.212 298.158 685.317 298.171L685.193 298.91L684.016 297.861Z" fill="#727A9C"/>
<path d="M674.657 282.871C674.657 282.871 689.055 282.797 685.665 288.254C682.275 293.711 676.978 294.368 676.978 294.368L674.657 282.871Z" fill="#FFB0B1"/>
<path d="M585.108 37.9702H584.486C559.751 37.9702 537.876 49.63 525.292 66.8355C512.709 49.63 490.834 37.9702 466.099 37.9702H465.477C446.914 38.1278 429.17 44.8051 416.103 56.5512C403.035 68.2972 395.699 84.1627 395.689 100.7C395.689 121.236 405.786 150.374 425.473 174.351C462.982 220.038 525.292 260.009 525.292 260.009C525.292 260.009 587.603 220.045 625.104 174.351C644.799 150.374 654.887 121.236 654.887 100.7C654.877 84.164 647.542 68.2996 634.477 56.5538C621.411 44.8079 603.67 38.1297 585.108 37.9702ZM576.214 177.866C573.397 177.857 570.649 177.088 568.33 175.662C566.012 174.237 564.232 172.22 563.224 169.876H548.436C547.462 169.871 546.515 169.595 545.726 169.086C544.937 168.578 544.345 167.863 544.035 167.041L539.492 154.849L525.118 199.591C524.838 200.452 524.252 201.209 523.448 201.748C522.644 202.288 521.665 202.58 520.659 202.581H520.369C519.318 202.536 518.317 202.171 517.533 201.548C516.748 200.924 516.228 200.079 516.058 199.155L501.245 119.788L490.419 166.753C490.171 167.645 489.595 168.437 488.782 169.003C487.969 169.57 486.967 169.877 485.935 169.876H465.104C464.479 169.9 463.856 169.811 463.271 169.614C462.687 169.417 462.153 169.117 461.701 168.732C461.25 168.347 460.891 167.884 460.646 167.372C460.401 166.86 460.274 166.309 460.274 165.752C460.274 165.195 460.401 164.644 460.646 164.132C460.891 163.62 461.25 163.158 461.701 162.772C462.153 162.387 462.687 162.087 463.271 161.89C463.856 161.694 464.479 161.604 465.104 161.628H482.288L497.623 98.4847C497.874 97.5511 498.482 96.7245 499.343 96.146C500.203 95.5675 501.262 95.2732 502.339 95.3133C503.416 95.3534 504.443 95.7255 505.246 96.3659C506.049 97.0063 506.578 97.8754 506.741 98.8244L521.869 179.786L534.75 139.756C535.019 138.913 535.586 138.169 536.367 137.637C537.149 137.105 538.102 136.812 539.086 136.802H539.177C540.151 136.802 541.1 137.076 541.889 137.586C542.678 138.095 543.267 138.813 543.57 139.637L551.785 161.65H563.042C563.842 159.484 565.299 157.557 567.251 156.082C569.203 154.607 571.575 153.641 574.104 153.29C576.634 152.94 579.223 153.219 581.585 154.097C583.948 154.975 585.993 156.417 587.493 158.264C588.994 160.112 589.893 162.292 590.09 164.566C590.287 166.84 589.775 169.118 588.611 171.149C587.447 173.179 585.675 174.884 583.492 176.075C581.308 177.266 578.798 177.896 576.238 177.896L576.214 177.866Z" fill="#EA4848"/>
</g>
<defs>
<linearGradient id="paint0_linear" x1="295.372" y1="572.188" x2="295.372" y2="117.802" gradientUnits="userSpaceOnUse">
<stop stop-color="#808080" stop-opacity="0.25"/>
<stop offset="0.54" stop-color="#808080" stop-opacity="0.12"/>
<stop offset="1" stop-color="#808080" stop-opacity="0.1"/>
</linearGradient>
<linearGradient id="paint1_linear" x1="185030" y1="342841" x2="185030" y2="109600" gradientUnits="userSpaceOnUse">
<stop stop-color="#808080" stop-opacity="0.25"/>
<stop offset="0.54" stop-color="#808080" stop-opacity="0.12"/>
<stop offset="1" stop-color="#808080" stop-opacity="0.1"/>
</linearGradient>
<clipPath id="clip0">
<rect width="916" height="578" fill="white"/>
</clipPath>
</defs>
</svg>
