<svg width="908" height="567" viewBox="0 0 908 567" fill="none" xmlns="http://www.w3.org/2000/svg">
<path opacity="0.1" d="M146.847 394.313H123.272V415.314H146.847V394.313Z" fill="#EA4848"/>
<path opacity="0.1" d="M106.288 343.679H169.543V428.598C162.082 430.508 154.478 431.947 146.789 432.903L144.899 433.11C143.971 433.206 143.051 433.287 142.139 433.369C141.227 433.45 140.282 433.509 139.362 433.561H139.072C138.674 433.561 138.243 433.605 137.853 433.612H137.43C136.933 433.612 136.436 433.657 135.938 433.671C135.234 433.708 134.529 433.716 133.808 433.723C133.501 433.723 133.211 433.723 132.904 433.723C132.192 433.723 131.487 433.723 130.774 433.723H129.207C128.785 433.723 128.379 433.723 127.939 433.723L126.339 433.671C125.51 433.671 124.615 433.59 123.753 433.538L122.162 433.435L120.18 433.273C118.788 433.162 117.404 433.021 116.036 432.852L114.378 432.645L113.549 432.542C112.165 432.35 110.797 432.143 109.404 431.906C108.385 431.751 107.373 431.559 106.346 431.375L106.288 343.679Z" fill="#EA4848"/>
<path opacity="0.1" d="M146.847 345.532H123.272V366.533H146.847V345.532Z" fill="#EA4848"/>
<path opacity="0.1" d="M146.847 296.752H123.272V317.752H146.847V296.752Z" fill="#EA4848"/>
<path opacity="0.1" d="M169.543 238.364H106.296V340.511H169.543V238.364Z" fill="#EA4848"/>
<path opacity="0.1" d="M146.847 247.978H123.272V268.979H146.847V247.978Z" fill="#EA4848"/>
<path opacity="0.1" d="M146.847 199.197H123.272V220.198H146.847V199.197Z" fill="#EA4848"/>
<path opacity="0.1" d="M169.543 143.172V235.21H106.288V143.172H115.306V112.01H152.326V143.172H169.543Z" fill="#EA4848"/>
<path opacity="0.1" d="M2.07427 238.371H86.2023V340.518H8.23321C8.02598 341.567 7.82704 342.623 7.61152 343.679H86.2023V426.058C86.0614 426.021 85.937 425.977 85.8044 425.933C83.5829 425.15 81.3779 424.323 79.173 423.437L77.7638 422.868C75.5533 421.938 73.3428 420.953 71.1323 419.914C70.3614 419.553 69.5905 419.176 68.8279 418.792C56.5563 412.668 45.4082 404.909 35.7702 395.782C35.4884 395.539 35.2231 395.28 34.9413 395.044C33.5984 393.744 32.2804 392.43 31.0039 391.086L29.5947 389.609C28.0861 387.963 26.6271 386.271 25.2097 384.558C25.0024 384.307 24.8035 384.056 24.588 383.82C18.8232 376.699 14.0366 368.989 10.3304 360.855C10.2144 360.611 10.1149 360.345 10.0071 360.116C8.86873 357.507 7.86019 354.873 6.98153 352.215C6.60022 351.1 6.23549 350 5.9205 348.84C5.80445 348.501 5.70498 348.168 5.6138 347.836C0.905479 331.465 0.350098 314.459 0.350098 297.571C0.350098 295.599 0.350098 293.62 0.350098 291.664C0.350098 284.833 0.44128 277.958 0.573909 271.091C0.573909 269.311 0.6568 267.539 0.698246 265.752C0.814296 261.218 0.980084 256.684 1.19561 252.15C1.24534 250.887 1.31166 249.632 1.38626 248.377C1.38626 247.653 1.42771 246.929 1.5106 246.206C1.70954 243.577 1.87533 240.97 2.07427 238.371Z" fill="#EA4848"/>
<path opacity="0.1" d="M86.2023 127.798V235.21H2.33948C2.33948 234.9 2.3975 234.583 2.42237 234.273C2.49697 233.423 2.57158 232.574 2.65447 231.732C2.74565 230.743 2.84512 229.746 2.95288 228.779C3.06064 227.811 3.1767 226.63 3.30104 225.559C3.42537 224.488 3.54142 223.403 3.68234 222.332C3.82326 221.261 3.9476 220.191 4.09681 219.127C4.24601 218.064 4.37864 216.986 4.53614 215.923C4.66048 215.037 4.7931 214.158 4.92573 213.272C5.11639 212.024 5.31533 210.768 5.53085 209.528C5.53085 209.343 5.58888 209.151 5.62204 208.974C7.13499 199.892 9.19649 190.89 11.7976 182.006C14.5203 172.687 17.997 163.556 22.2006 154.685C26.6683 145.404 31.8992 136.43 37.8508 127.835L86.2023 127.798Z" fill="#EA4848"/>
<path opacity="0.1" d="M86.2023 181.977V235.211H2.33948C2.33948 234.9 2.3975 234.583 2.42237 234.273C2.49697 233.424 2.57158 232.574 2.65447 231.732C2.74565 230.743 2.84512 229.746 2.95288 228.779C3.06064 227.811 3.1767 226.63 3.30104 225.559C3.42537 224.488 3.54142 223.403 3.68234 222.332C3.82326 221.262 3.9476 220.191 4.09681 219.127C4.24601 218.064 4.37864 216.986 4.53614 215.923C4.66048 215.037 4.7931 214.158 4.92573 213.272C5.11639 212.024 5.31533 210.768 5.53085 209.528C5.53085 209.343 5.58888 209.151 5.62204 208.974C7.13499 199.892 9.19649 190.89 11.7976 182.006L86.2023 181.977Z" fill="#EA4848"/>
<path opacity="0.1" d="M2.07427 238.371H86.2023V340.518H8.23321C8.02598 341.567 7.82704 342.623 7.61152 343.679H86.2023V426.058C86.0614 426.021 85.937 425.977 85.8044 425.933C83.5829 425.15 81.3779 424.323 79.173 423.437L77.7638 422.868C75.5533 421.938 73.3428 420.953 71.1323 419.914C70.3614 419.553 69.5905 419.176 68.8279 418.792C56.5563 412.668 45.4082 404.909 35.7702 395.782C35.4884 395.539 35.2231 395.28 34.9413 395.044C33.5984 393.744 32.2804 392.43 31.0039 391.086L29.5947 389.609C28.0861 387.963 26.6271 386.271 25.2097 384.558C25.0024 384.307 24.8035 384.056 24.588 383.82C18.8232 376.699 14.0366 368.989 10.3304 360.855C10.2144 360.611 10.1149 360.345 10.0071 360.116C8.86873 357.507 7.86019 354.873 6.98153 352.215C6.60022 351.1 6.23549 350 5.9205 348.84C5.80445 348.501 5.70498 348.168 5.6138 347.836C0.905479 331.465 0.350098 314.459 0.350098 297.571C0.350098 295.599 0.350098 293.62 0.350098 291.664C0.350098 284.833 0.44128 277.958 0.573909 271.091C0.573909 269.311 0.6568 267.539 0.698246 265.752C0.814296 261.218 0.980084 256.684 1.19561 252.15C1.24534 250.887 1.31166 249.632 1.38626 248.377C1.38626 247.653 1.42771 246.929 1.5106 246.206C1.70954 243.577 1.87533 240.97 2.07427 238.371Z" fill="#EA4848"/>
<path opacity="0.1" d="M5.52295 208.959V220.974H86.2026V208.959H5.52295ZM13.5636 220.22H6.98187V209.698H13.6133L13.5636 220.22ZM21.5959 220.22H14.9645V209.698H21.5959V220.22ZM29.6116 220.22H22.9802V209.698H29.6116V220.22ZM37.644 220.22H31.0208V209.698H37.6522L37.644 220.22ZM45.668 220.22H39.0366V209.698H45.668V220.22ZM53.7003 220.22H47.0689V209.698H53.7003V220.22ZM61.7326 220.22H55.1012V209.698H61.7326V220.22ZM69.7567 220.22H63.1252V209.698H69.7567V220.22ZM77.7807 220.22H71.1493V209.698H77.7807V220.22ZM85.8047 220.22H79.1733V209.698H85.8047V220.22Z" fill="#EA4848"/>
<path opacity="0.1" d="M5.52295 243.917V255.931H86.2026V243.917H5.52295ZM13.5636 255.17H6.98187V244.677H13.6133L13.5636 255.17ZM21.5959 255.17H14.9645V244.677H21.5959V255.17ZM29.6116 255.17H22.9802V244.677H29.6116V255.17ZM37.644 255.17H31.0208V244.677H37.6522L37.644 255.17ZM45.668 255.17H39.0366V244.677H45.668V255.17ZM53.7003 255.17H47.0689V244.677H53.7003V255.17ZM61.7326 255.17H55.1012V244.677H61.7326V255.17ZM69.7567 255.17H63.1252V244.677H69.7567V255.17ZM77.7807 255.17H71.1493V244.677H77.7807V255.17ZM85.8047 255.17H79.1733V244.677H85.8047V255.17Z" fill="#EA4848"/>
<path opacity="0.1" d="M5.52295 278.889V290.925H86.2026V278.889H5.52295ZM13.5636 290.143H6.98187V279.642H13.6133L13.5636 290.143ZM21.5959 290.143H14.9645V279.642H21.5959V290.143ZM29.6116 290.143H22.9802V279.642H29.6116V290.143ZM37.644 290.143H31.0208V279.642H37.6522L37.644 290.143ZM45.668 290.143H39.0366V279.642H45.668V290.143ZM53.7003 290.143H47.0689V279.642H53.7003V290.143ZM61.7326 290.143H55.1012V279.642H61.7326V290.143ZM69.7567 290.143H63.1252V279.642H69.7567V290.143ZM77.7807 290.143H71.1493V279.642H77.7807V290.143ZM85.8047 290.143H79.1733V279.642H85.8047V290.143Z" fill="#EA4848"/>
<path opacity="0.1" d="M5.52295 313.861V325.86H86.2026V313.861H5.52295ZM13.5636 325.115H6.98187V314.607H13.6133L13.5636 325.115ZM21.5959 325.115H14.9645V314.607H21.5959V325.115ZM29.6116 325.115H22.9802V314.607H29.6116V325.115ZM37.644 325.115H31.0208V314.607H37.6522L37.644 325.115ZM45.668 325.115H39.0366V314.607H45.668V325.115ZM53.7003 325.115H47.0689V314.607H53.7003V325.115ZM61.7326 325.115H55.1012V314.607H61.7326V325.115ZM69.7567 325.115H63.1252V314.607H69.7567V325.115ZM77.7807 325.115H71.1493V314.607H77.7807V325.115ZM85.8047 325.115H79.1733V314.607H85.8047V325.115Z" fill="#EA4848"/>
<path opacity="0.1" d="M5.87073 348.826C6.19401 349.955 6.55873 351.085 6.94004 352.2V349.579H13.5715V360.079H10.0237C10.1314 360.323 10.2392 360.589 10.3469 360.818H86.2023V348.826H5.87073ZM21.6204 360.079H14.9889V349.579H21.6204V360.079ZM29.6361 360.079H23.0047V349.579H29.6361V360.079ZM37.6684 360.079H31.0204V349.579H37.6519L37.6684 360.079ZM45.6925 360.079H39.061V349.579H45.6925V360.079ZM53.7248 360.079H47.0934V349.579H53.7248V360.079ZM61.7571 360.079H55.1257V349.579H61.7571V360.079ZM69.7812 360.079H63.1497V349.579H69.7812V360.079ZM77.8052 360.079H71.1738V349.579H77.8052V360.079ZM85.8292 360.079H79.1978V349.579H85.8292V360.079Z" fill="#EA4848"/>
<path opacity="0.1" d="M24.6047 383.798C24.812 384.034 25.0109 384.3 25.2264 384.536H29.6115V389.58C30.084 390.082 30.5482 390.584 31.0289 391.056V384.507H37.6604V395.044H34.9746C35.2399 395.288 35.4969 395.546 35.8036 395.782H86.2273V383.798H24.6047ZM45.6678 395.044H39.0364V384.551H45.6678V395.044ZM53.7002 395.044H47.0687V384.551H53.7002V395.044ZM61.7325 395.044H55.101V384.551H61.7325V395.044ZM69.7565 395.044H63.1251V384.551H69.7565V395.044ZM77.7806 395.044H71.1491V384.551H77.7806V395.044ZM85.8046 395.044H79.1732V384.551H85.8046V395.044Z" fill="#EA4848"/>
<path opacity="0.1" d="M107 239.361V337.273H286.672V239.361H107ZM107 340.295V424.377C108.028 424.561 109.047 424.738 110.058 424.886C111.434 425.113 112.802 425.318 114.203 425.495C114.468 425.53 114.742 425.566 115.032 425.587C115.579 425.665 116.142 425.729 116.689 425.792C118.074 425.955 119.449 426.089 120.834 426.196C121.488 426.252 122.152 426.302 122.815 426.344L124.414 426.45C125.285 426.507 126.147 426.55 127 426.571C127.531 426.571 128.061 426.613 128.608 426.627C129.023 426.627 129.437 426.627 129.868 426.627C130.299 426.627 130.913 426.627 131.435 426.627C132.148 426.627 132.86 426.627 133.565 426.627H134.518C135.231 426.627 135.944 426.627 136.648 426.571H136.698C137.187 426.571 137.684 426.571 138.182 426.514C138.32 426.521 138.458 426.521 138.596 426.514C139.011 426.514 139.425 426.514 139.823 426.465H140.113L142.89 426.281C143.801 426.21 144.721 426.118 145.65 426.033L147.54 425.842C155.228 424.922 162.831 423.541 170.292 421.708C187.051 417.717 203.446 412.133 220.197 408.042C241.856 402.769 265.785 400.178 286.713 406.626V340.295H107ZM286.672 130.36V0.0115746C267.001 -0.170407 247.383 1.79419 228.295 5.85766C182.799 15.6177 141.978 36.7867 107 63.8231V130.352H116.018V133.375H107V236.339H286.672V133.382H153.043V130.36H286.672ZM517.452 86.3299C506.196 85.9901 495.006 82.9468 484.886 78.2472C465.532 69.2587 450.073 55.3796 432.8 43.6661C396.91 19.2697 352.401 4.54831 306.739 0.896273V130.36H563.229L563.868 129.786L517.452 86.3299ZM540.817 82.7911L565.592 106.006V76.7043C557.295 77.582 550.026 79.6698 540.85 82.7627L540.817 82.7911ZM565.592 445.256V340.295H512.802C512.661 339.849 512.52 339.396 512.354 338.943C512.512 339.396 512.644 339.849 512.793 340.295H306.772V416.202C308.728 417.441 310.659 418.743 312.574 420.066C314.638 421.482 316.677 422.975 318.724 424.44L320.788 425.898C321.774 426.606 322.769 427.314 323.772 427.979C325.761 429.357 327.77 430.716 329.798 432.056C330.801 432.764 331.828 433.401 332.848 434.066C349.033 444.633 366.107 454.168 383.93 462.596C387.926 464.483 391.957 466.326 396.024 468.123C398.734 469.305 401.461 470.48 404.196 471.62C408.307 473.332 412.452 474.984 416.629 476.574C455.143 491.337 495.869 501.467 537.643 506.675C546.92 507.845 556.234 508.765 565.583 509.435V445.249H566.412L565.592 445.256ZM306.772 133.382V236.339H565.625V133.382H306.772ZM306.772 239.361V337.273H565.625V239.361H306.772ZM585.716 76.5769V109.261L617.337 79.6345C606.861 78.1906 596.32 77.1597 585.716 76.5415V76.5769ZM585.716 239.397V337.273H837.483V239.361L585.716 239.397ZM836.563 453.027L837.45 340.295H585.716V510.561C601.933 511.142 618.175 510.977 634.371 510.065H634.652C642.388 509.65 650.088 509.046 657.753 508.253H657.927C698.815 504.19 738.796 495.08 776.62 481.21L836.563 453.027ZM886.029 255.484C885.084 253.58 884.098 251.691 883.095 249.822C881.222 246.283 879.241 242.844 877.202 239.404H857.558V337.273H907.223C907.198 309.557 898.984 281.247 886.054 255.449L886.029 255.484ZM857.558 340.33V437.293C871.549 425.842 883.368 412.741 891.881 397.765C902.117 379.731 906.8 360.204 907.182 340.316L857.558 340.33ZM857.558 210.867V236.346H875.362C869.976 227.575 864.041 219.058 857.583 210.832L857.558 210.867ZM686.813 95.7855C685.503 95.3609 684.193 94.9291 682.875 94.5116C668.976 90.1286 654.773 86.4838 640.347 83.5979L591.958 128.944L591.029 129.786L591.651 130.367H763.872C739.886 116.268 714.028 104.648 686.837 95.7501L686.813 95.7855ZM768.919 133.417H589.247L585.716 136.177V236.339H616.666H616.716H837.516V187.822C817.542 167.195 794.489 148.893 768.944 133.382L768.919 133.417Z" fill="#EA4848"/>
<path opacity="0.1" d="M564.619 228.748V330.903H305.736V286.84H443.629V312.833H512.455V228.748H564.619Z" fill="#EA4848"/>
<path opacity="0.1" d="M565.44 443.587H564.611V510.6C555.272 509.896 545.96 508.938 536.676 507.727C494.878 502.276 454.132 491.684 415.603 476.255C404.478 471.795 393.581 466.927 382.91 461.649C365.085 452.852 348.007 442.903 331.815 431.883C327.747 429.107 323.732 426.266 319.77 423.362C317.026 421.346 314.299 419.278 311.539 417.269C309.624 415.889 307.693 414.53 305.736 413.23V334.063H511.767C511.626 333.59 511.485 333.118 511.336 332.653C511.493 333.118 511.642 333.59 511.783 334.063H564.611V443.543C564.893 443.55 565.166 443.572 565.44 443.587Z" fill="#EA4848"/>
<path opacity="0.1" d="M425.492 328.532H305.736V330.903H425.492V328.532Z" fill="#EA4848"/>
<path opacity="0.1" d="M425.492 334.056H305.736V343.138H425.492V334.056Z" fill="#EA4848"/>
<path opacity="0.1" d="M425.492 372.912H305.736V387.518H425.492V372.912Z" fill="#EA4848"/>
<path opacity="0.1" d="M425.484 417.292V431.898H331.815C327.747 429.131 323.73 426.291 319.762 423.376C317.018 421.361 314.3 419.293 311.531 417.292H425.484Z" fill="#EA4848"/>
<path opacity="0.1" d="M425.484 461.664V476.256H415.594C404.481 471.79 393.586 466.919 382.91 461.642L425.484 461.664Z" fill="#EA4848"/>
<path opacity="0.1" d="M615.673 225.595H615.723H615.673ZM564.611 443.536H565.44H564.611ZM511.336 332.645C511.493 333.118 511.626 333.591 511.775 334.056C511.643 333.591 511.502 333.118 511.336 332.645ZM615.673 225.573H615.723H615.673ZM115 115V118.153H152.028V115H115ZM564.611 443.536H565.44H564.611ZM511.336 332.645C511.493 333.118 511.626 333.591 511.775 334.056C511.643 333.591 511.502 333.118 511.336 332.645ZM615.673 225.573H615.723H615.673ZM564.611 443.514H565.44H564.611ZM511.336 332.645C511.493 333.118 511.626 333.591 511.775 334.056C511.643 333.591 511.502 333.118 511.336 332.645Z" fill="#EA4848"/>
<path opacity="0.1" d="M148.643 550.874C193.251 550.874 229.413 545.7 229.413 539.318C229.413 532.935 193.251 527.761 148.643 527.761C104.034 527.761 67.8717 532.935 67.8717 539.318C67.8717 545.7 104.034 550.874 148.643 550.874Z" fill="#EA4848"/>
<path d="M226.744 253.559C226.744 253.559 223.478 253.153 223.478 248.914C223.478 244.676 221.141 236.76 221.141 236.76C221.141 236.723 219.118 222.973 216.325 220.788C213.531 218.602 209.942 205.768 209.942 205.768C209.942 205.768 209.329 198.804 208.077 197.305C206.825 195.806 205.134 192.136 202.639 186.901C200.144 181.665 189.741 178.04 189.741 178.04C189.741 178.04 170.933 168.322 165.603 165.154C165.118 164.894 164.665 164.589 164.251 164.246C163.323 163.16 159.278 163.138 159.278 163.138C158.855 160.76 158.449 158.028 158.316 155.554C158.316 155.289 158.316 155.023 158.275 154.757C164.218 151.627 168.695 146.693 170.883 140.86C170.982 140.579 171.065 140.284 171.156 140.003C171.512 139.899 171.84 139.729 172.119 139.505C172.397 139.281 172.62 139.008 172.773 138.704C173.254 137.751 173.262 136.636 173.859 135.75C174.555 134.701 175.881 134.14 176.926 133.35C179.562 131.356 180.241 127.996 180.117 124.939C180.034 122.465 179.587 119.969 179.761 117.511L179.81 116.89C179.86 116.521 179.918 116.152 179.993 115.797C180.399 113.966 181.286 112.238 181.783 110.422C182.281 108.605 182.33 106.56 181.17 104.994C179.47 102.698 175.931 102.24 172.823 102.003C169.3 101.738 166.15 102.085 163.895 99.478C162.84 98.1156 161.653 96.8382 160.347 95.6603C159.883 95.2763 155.374 92.8247 155.374 92.6623C150.972 90.8464 145.984 90.5056 141.323 91.7023C138.986 92.3078 136.781 93.2973 134.41 93.7921C129.295 94.8702 123.41 93.7035 119.066 96.3101C116.646 97.787 115.195 100.135 113.836 102.424C112.731 104.31 111.609 106.193 110.47 108.073C108.638 111.167 106.773 114.313 106.002 117.739C105.84 118.485 105.741 119.24 105.704 119.999V120.036C105.704 120.309 105.704 120.582 105.704 120.856V121.203C105.704 121.461 105.704 121.712 105.754 121.941C105.804 122.17 105.795 122.244 105.82 122.399C105.845 122.554 105.886 122.901 105.936 123.137C105.986 123.374 106.085 123.787 106.185 124.112C106.226 124.252 106.284 124.385 106.334 124.518C106.417 124.769 106.516 125.013 106.624 125.257C106.682 125.382 106.74 125.515 106.807 125.641C106.931 125.899 107.08 126.15 107.229 126.379C107.296 126.482 107.345 126.578 107.412 126.674C107.643 127.018 107.898 127.348 108.174 127.664C109.948 129.636 112.559 130.891 114.491 132.737C114.491 132.811 114.491 132.885 114.491 132.951C114.491 133.158 114.491 133.357 114.491 133.564C114.593 137.681 115.823 141.714 118.074 145.311C120.325 148.908 123.528 151.96 127.405 154.203C127.405 154.484 127.447 154.772 127.463 155.052C127.625 157.244 127.595 159.444 127.372 161.632C127.035 161.278 126.612 160.996 126.136 160.806C125.66 160.617 125.142 160.526 124.62 160.539C124.264 160.523 123.907 160.551 123.559 160.62L123.485 160.568V160.635C121.661 161.034 119.415 162.725 117.268 167.532C117.268 167.532 110.736 174.089 105.762 173.816C100.789 173.543 88.1971 180.639 88.1971 180.639C88.1971 180.639 75.9124 187.743 73.2764 194.979C71.803 199.083 70.0365 203.098 67.9878 207.001L52.8018 234.877L50 256.993C50 256.993 51.5501 266.829 51.2434 268.328C50.9367 269.827 57.6179 283.347 57.6179 283.347C57.6179 283.347 79.6923 317.899 88.711 319.671L89.3576 319.265C89.7434 319.444 90.1527 319.581 90.5761 319.671L92.4329 318.504C92.5444 319.805 92.4972 321.112 92.292 322.403C91.0486 325.815 92.7562 348.078 94.928 352.443C97.0998 356.807 96.3289 414.028 96.3289 414.028L96.0222 419.079C96.0222 419.079 96.0222 419.241 96.0968 419.522L96.0222 420.718L96.246 420.821C96.4784 422.423 96.4027 424.049 96.0222 425.628C95.243 427.844 94.928 434.106 94.928 434.106C94.928 434.106 88.7193 469.462 91.662 476.565C94.6047 483.669 97.1081 491.452 97.1081 491.452C97.1081 491.452 100.217 500.313 97.2573 501.827C94.298 503.341 85.8844 505.881 87.6168 509.573C89.1918 512.985 95.1684 522.127 96.0553 523.463L95.9807 524.165L94.7622 535.928C94.9595 537.481 95.4324 538.997 96.1631 540.418C97.4977 542.98 100.092 545.638 105.024 545.35C105.853 545.299 106.815 545.21 107.743 545.099C116.77 544.021 127.886 540.432 127.886 540.432C127.309 540.106 126.78 539.716 126.311 539.273V539.273C125.868 538.89 125.516 538.431 125.278 537.923C125.04 537.415 124.921 536.87 124.927 536.319C125.06 534.178 120.558 523.973 119.439 521.462C119.265 521.1 119.174 520.894 119.174 520.894C119.174 520.894 129.436 511.338 127.729 502.868C127.729 502.868 116.372 496.961 120.111 493.719C123.849 490.478 130.531 481.166 130.531 481.166C130.531 481.166 130.837 446.349 130.531 441.15C130.211 437.542 130.403 433.912 131.102 430.347C131.227 429.808 131.376 429.284 131.534 428.767C136.704 429.454 141.923 429.807 147.151 429.823C149.057 429.823 150.997 429.823 152.953 429.719C152.953 430.212 152.978 430.743 153.028 431.314C153.459 439.939 154.263 455.062 154.918 460.682C155.846 468.738 160.977 490.448 160.977 490.448C160.977 490.448 151.187 496.045 162.685 509.839C162.685 509.839 162.685 514.838 161.922 515.562C161.108 517.928 160.452 520.334 159.957 522.769C159.477 525.368 159.278 527.997 160.057 529.363C161.922 532.627 173.113 532.361 173.113 532.361L173.386 532.317C175.499 532.122 177.634 532.304 179.667 532.85C181.701 533.396 183.592 534.297 185.232 535.5C189.484 538.542 205.623 537.205 214.36 536.238C217.784 535.854 220.071 535.5 220.071 535.5C220.182 535.154 220.222 534.794 220.188 534.436C220.096 532.524 218.414 528.33 207.008 524.586C207.008 524.586 196.281 518.161 196.43 512.564H196.207H194.963C195.867 512.52 196.447 512.564 196.447 512.564C196.447 512.564 192.244 498.903 193.96 497.795C195.676 496.688 190.537 481.55 190.537 481.55C190.537 481.55 187.594 456.148 187.437 454.368C187.443 452.841 187.703 451.323 188.207 449.864L187.437 435.937C187.437 435.937 187.287 431.307 187.437 429.801C187.411 428.493 187.292 427.188 187.08 425.894C187.005 425.377 186.931 424.838 186.848 424.307C190.868 423.398 193.479 422.557 193.479 422.557L193.015 374.079C196.43 368.171 197.06 355.212 197.044 346.018C197.044 340.111 196.745 335.739 196.745 335.739L201.412 328.953C201.412 328.953 202.49 320.83 200.782 319.051C200.028 318.246 200.368 317.411 200.99 316.725C201.312 316.496 201.653 316.289 202.009 316.104C202.009 316.104 201.959 316.038 201.901 315.942C202.227 315.699 202.574 315.48 202.938 315.285C202.938 315.285 201.28 312.995 202.763 312.028C204.156 312.87 205.399 313.505 206.344 314.022C206.278 314.561 206.212 314.871 206.212 314.871L206.61 314.133C207.521 314.59 208.077 314.871 208.077 314.871C208.077 314.871 215.388 301.897 215.231 299.984C215.073 298.072 220.204 290.015 220.204 290.015C220.204 290.015 220.826 285.784 223.628 284.012C226.429 282.24 225.799 269.398 225.799 269.398C225.799 269.398 226.579 262.708 228.444 259.976C230.309 257.244 226.744 253.559 226.744 253.559ZM86.8542 247.866L86.9951 250.96C86.1662 249.771 85.5694 248.914 85.5694 248.914L86.8542 247.866Z" fill="url(#paint0_linear)"/>
<path d="M208.475 309.266L206.684 316.06C206.684 316.06 192.344 309.54 189.758 301.255C187.172 292.969 194.085 289.824 194.085 289.824L207.447 294.867L208.475 309.266Z" fill="white"/>
<path opacity="0.1" d="M208.475 309.266L206.684 316.06C206.684 316.06 192.344 309.54 189.758 301.255C187.172 292.969 194.085 289.824 194.085 289.824L207.447 294.867L208.475 309.266Z" fill="black"/>
<path d="M127.994 540.477C127.994 540.477 114.731 544.819 105.613 545.365C100.772 545.653 98.2272 543.01 96.9175 540.462C96.2021 539.046 95.7405 537.538 95.5498 535.995L96.7352 524.29L97.3652 518.058L116.737 513.576L119.481 521.049L119.738 521.617C120.84 524.113 125.259 534.267 125.126 536.386C125.121 536.929 125.238 537.467 125.472 537.968C125.705 538.469 126.05 538.923 126.485 539.303C126.93 539.75 127.437 540.144 127.994 540.477V540.477Z" fill="white"/>
<path d="M218.588 534.525C218.621 534.88 218.582 535.238 218.472 535.581C218.472 535.581 190.106 539.797 184.303 535.581C182.667 534.349 180.76 533.436 178.705 532.899C176.649 532.362 174.49 532.214 172.367 532.465C172.367 532.465 161.392 532.731 159.56 529.511C158.797 528.16 158.996 525.538 159.469 522.954C159.951 520.532 160.593 518.138 161.392 515.784L161.831 515.474L164.442 513.605L195.013 512.8H195.245C195.096 518.368 205.623 524.756 205.623 524.756C216.806 528.448 218.455 532.62 218.588 534.525Z" fill="white"/>
<path opacity="0.1" d="M218.588 534.525C218.617 534.881 218.575 535.238 218.464 535.581C218.464 535.581 190.106 539.797 184.303 535.581C182.668 534.35 180.763 533.437 178.709 532.901C176.655 532.364 174.497 532.216 172.375 532.465C172.375 532.465 161.392 532.731 159.568 529.511C158.806 528.152 158.996 525.538 159.469 522.954C163.696 523.33 170.369 524.268 172.989 526.506C176.951 529.91 183.665 533.307 187.785 533.572C191.01 533.757 210.299 534.303 218.588 534.525Z" fill="black"/>
<path opacity="0.1" d="M127.994 540.477C127.994 540.477 114.731 544.819 105.613 545.365C100.772 545.653 98.2273 543.01 96.9259 540.455C100.3 541.466 104.983 542.53 107.445 541.555C110.363 540.403 120.708 539.657 126.51 539.34C126.952 539.77 127.45 540.152 127.994 540.477Z" fill="black"/>
<path d="M147.673 190.571C136.731 186.783 122.656 174.266 126.171 168.418C126.951 166.942 127.415 165.349 127.538 163.722C127.764 161.512 127.798 159.29 127.638 157.076C127.391 153.449 126.901 149.839 126.171 146.265C126.171 146.265 160.331 146.952 158.341 151.434C157.761 152.748 157.67 155.03 157.827 157.585C157.985 160.14 158.399 163.027 158.83 165.472C159.427 168.824 160.024 171.379 160.024 171.379C160.024 171.379 157.935 173.986 156.708 174.126C155.481 174.266 163.373 195.969 147.673 190.571Z" fill="#CF6F80"/>
<path opacity="0.1" d="M119.713 521.617L119.456 521.868C109.244 510.866 96.8927 524.578 96.8927 524.578L96.7103 524.29L97.3403 518.058L116.712 513.576L119.456 521.049L119.713 521.617Z" fill="black"/>
<path opacity="0.1" d="M195.254 513.576C195.254 513.576 187.793 513.436 183.814 516.566C179.835 519.697 160.604 517.246 161.433 516.566C161.679 516.23 161.827 515.844 161.864 515.444L164.475 513.576L195.046 512.771C195.162 513.266 195.254 513.576 195.254 513.576Z" fill="black"/>
<path d="M132.42 427.172C131.865 428.396 131.443 429.664 131.16 430.96C130.469 434.509 130.277 438.12 130.589 441.712C130.895 446.881 130.589 481.52 130.589 481.52C130.589 481.52 124.032 490.758 120.376 494.015C116.721 497.271 127.836 503.12 127.836 503.12C129.494 511.538 119.448 521.049 119.448 521.049C109.235 510.046 96.8842 523.766 96.8842 523.766C96.8842 523.766 90.1699 513.428 88.4955 509.736C86.821 506.044 95.0523 503.489 97.9453 501.99C100.838 500.491 97.8044 491.652 97.8044 491.652C97.8044 491.652 95.359 483.906 92.4578 476.839C89.5565 469.772 95.6574 434.593 95.6574 434.593C95.6574 434.593 95.9724 428.346 96.7267 426.168C97.1073 424.596 97.183 422.977 96.9506 421.383C96.9008 420.843 96.8428 420.393 96.8013 420.09C96.7599 419.788 96.7267 419.647 96.7267 419.647L96.8428 419.47L100.987 412.588C100.987 412.588 134.41 422.837 132.42 427.172Z" fill="#EA4848"/>
<path d="M195.253 512.764C195.253 512.764 187.793 512.623 183.814 515.717C179.835 518.811 160.604 516.397 161.433 515.717C162.262 515.038 162.196 510.009 162.196 510.009C150.914 496.289 160.538 490.721 160.538 490.721C160.538 490.721 155.498 469.122 154.586 461.11C153.948 455.513 153.16 440.471 152.738 431.883C152.555 428.191 152.448 425.651 152.448 425.651L161.665 423.996L162.851 423.782L185.082 419.81C185.082 419.81 185.696 423.502 186.11 426.522C186.317 427.811 186.433 429.111 186.458 430.413C186.309 431.89 186.458 436.513 186.458 436.513L187.213 450.373C186.72 451.827 186.466 453.337 186.458 454.856C186.608 456.62 189.501 481.89 189.501 481.89C189.501 481.89 194.532 496.969 192.816 498.054C191.1 499.14 195.253 512.764 195.253 512.764Z" fill="#EA4848"/>
<path opacity="0.1" d="M158.341 151.434C157.761 152.748 157.67 155.03 157.827 157.585C153.252 160.04 147.992 161.295 142.651 161.206C137.311 161.117 132.107 159.688 127.638 157.083C127.392 153.454 126.902 149.842 126.171 146.265C126.171 146.265 160.331 146.937 158.341 151.434Z" fill="black"/>
<path d="M171.546 135.115C171.553 137.776 171.083 140.42 170.154 142.949C168.077 148.616 163.818 153.446 158.13 156.586C152.443 159.726 145.692 160.973 139.071 160.108C132.451 159.243 126.387 156.321 121.951 151.858C117.515 147.395 114.993 141.679 114.831 135.72C114.831 135.513 114.831 135.321 114.831 135.115C114.766 131.76 115.452 128.428 116.849 125.313C118.245 122.197 120.324 119.36 122.964 116.968C125.604 114.576 128.753 112.676 132.226 111.379C135.699 110.082 139.427 109.414 143.193 109.414C146.958 109.414 150.687 110.082 154.16 111.379C157.633 112.676 160.781 114.576 163.421 116.968C166.061 119.36 168.14 122.197 169.536 125.313C170.933 128.428 171.619 131.76 171.554 135.115H171.546Z" fill="#CF6F80"/>
<path opacity="0.1" d="M147.673 190.571C136.731 186.783 122.656 174.266 126.171 168.418C126.951 166.942 127.415 165.349 127.538 163.722L142.517 174.687L151.784 181.459L158.83 165.479C159.427 168.831 160.024 171.386 160.024 171.386C160.024 171.386 157.935 173.993 156.708 174.133C155.481 174.274 163.373 195.969 147.673 190.571Z" fill="black"/>
<path d="M186.409 239.034L173.9 426.227L157.587 427.179L115.345 318.637L122.274 189.773L123.733 162.547L142.517 176.29L151.793 183.061L159.046 166.616L172.532 177.087L186.409 239.034Z" fill="#EA4848"/>
<path opacity="0.1" d="M132.421 427.172C131.865 428.396 131.443 429.664 131.161 430.96C119.29 429.327 107.762 426.119 96.9592 421.442L96.7354 421.338L96.81 420.149L96.8514 419.529L100.996 412.647C100.996 412.647 134.41 422.837 132.421 427.172Z" fill="black"/>
<path opacity="0.1" d="M161.856 430.99C158.821 431.449 155.761 431.76 152.688 431.92C152.505 428.228 152.398 425.688 152.398 425.688L161.615 424.034L161.856 430.99Z" fill="black"/>
<path opacity="0.1" d="M186.06 426.559C180.167 427.925 171.065 429.461 162.917 428.501L162.801 423.819L185.033 419.847C185.033 419.847 185.646 423.502 186.06 426.559Z" fill="black"/>
<path opacity="0.1" d="M162.768 429.358C128.782 434.527 97.6553 419.706 97.6553 419.706L97.9537 414.685C97.9537 414.685 98.7246 357.759 96.586 353.395C94.4473 349.031 92.7812 326.9 93.9914 323.503C95.2017 320.107 89.5732 269.17 89.5732 269.17L88.6614 248.493L55.2887 236.45L70.2094 208.744C72.2247 204.859 73.958 200.863 75.3985 196.781C77.9931 189.589 90.0374 182.522 90.0374 182.522C90.0374 182.522 102.388 175.463 107.271 175.728C112.153 175.994 118.553 169.481 118.553 169.481C123.278 158.752 127.555 163.611 127.555 163.611C127.555 164.12 127.555 163.611 127.323 165.198C125.665 176.976 154.13 214.193 154.536 214.851L157.247 273.674L159.991 348.115L162.768 429.358Z" fill="black"/>
<path d="M161.856 429.358C127.87 434.527 96.7352 419.706 96.7352 419.706L97.0419 414.685C97.0419 414.685 97.8128 357.759 95.6659 353.395C93.5189 349.031 91.8611 326.9 93.0796 323.503C94.2981 320.107 88.6614 269.17 88.6614 269.17L87.7413 248.494L54.3521 236.405L69.2728 208.7C71.2837 204.813 73.0169 200.818 74.4619 196.737C77.0481 189.545 89.1008 182.478 89.1008 182.478C89.1008 182.478 101.452 175.418 106.326 175.684C111.2 175.95 117.608 169.437 117.608 169.437C122.341 158.708 127.555 163.567 127.555 163.567C127.555 164.076 127.057 164.305 127.323 165.154C130.97 176.578 153.218 214.149 153.625 214.806L156.368 273.63L159.112 348.071L161.856 429.358Z" fill="white"/>
<path opacity="0.1" d="M152.696 216.483C149.041 215.124 129.677 195.43 129.677 195.43V190.948C128.972 189.471 124.786 190.372 121.388 191.405L122.847 164.179L124.504 165.405C128.135 176.821 152.274 215.825 152.696 216.483Z" fill="black"/>
<path d="M153.616 214.851C149.952 213.492 130.589 193.798 130.589 193.798V189.316C129.884 187.839 125.698 188.74 122.299 189.774L123.767 162.547L125.424 163.773C129.063 175.189 153.21 214.201 153.616 214.851Z" fill="white"/>
<path opacity="0.1" d="M97.6553 313.069C98.1112 313.069 121.288 310.898 121.288 310.898C121.288 310.898 135.322 335.481 134.402 341.462C133.482 347.443 131.815 352.738 126.17 351.8C120.525 350.862 95.7902 352.539 95.7902 352.539L97.6553 313.069Z" fill="black"/>
<path d="M96.7352 311.437C97.1911 311.437 120.368 309.266 120.368 309.266C120.368 309.266 134.394 333.856 133.482 339.83C132.57 345.804 130.887 351.106 125.25 350.168C119.614 349.23 94.8701 350.907 94.8701 350.907L96.7352 311.437Z" fill="white"/>
<path d="M114.201 299.896C114.201 299.896 135.471 310.079 135.927 313.188C136.383 316.296 125.101 311.829 122.664 311.29C121.06 310.946 119.427 310.718 117.782 310.611L101.526 311.002L114.201 299.896Z" fill="#CF6F80"/>
<path opacity="0.1" d="M146.761 217.753C147.997 217.753 148.999 216.86 148.999 215.759C148.999 214.658 147.997 213.765 146.761 213.765C145.525 213.765 144.523 214.658 144.523 215.759C144.523 216.86 145.525 217.753 146.761 217.753Z" fill="black"/>
<path d="M146.761 216.94C147.997 216.94 148.999 216.048 148.999 214.947C148.999 213.846 147.997 212.953 146.761 212.953C145.525 212.953 144.523 213.846 144.523 214.947C144.523 216.048 145.525 216.94 146.761 216.94Z" fill="#3F3D56"/>
<path opacity="0.1" d="M150.881 304.061C152.117 304.061 153.119 303.168 153.119 302.067C153.119 300.966 152.117 300.073 150.881 300.073C149.645 300.073 148.643 300.966 148.643 302.067C148.643 303.168 149.645 304.061 150.881 304.061Z" fill="black"/>
<path d="M150.881 303.241C152.117 303.241 153.119 302.348 153.119 301.247C153.119 300.146 152.117 299.253 150.881 299.253C149.645 299.253 148.643 300.146 148.643 301.247C148.643 302.348 149.645 303.241 150.881 303.241Z" fill="#3F3D56"/>
<path opacity="0.1" d="M148.991 260.907C150.227 260.907 151.229 260.014 151.229 258.913C151.229 257.812 150.227 256.919 148.991 256.919C147.755 256.919 146.753 257.812 146.753 258.913C146.753 260.014 147.755 260.907 148.991 260.907Z" fill="black"/>
<path d="M148.991 260.094C150.227 260.094 151.229 259.202 151.229 258.101C151.229 256.999 150.227 256.107 148.991 256.107C147.755 256.107 146.753 256.999 146.753 258.101C146.753 259.202 147.755 260.094 148.991 260.094Z" fill="#3F3D56"/>
<path d="M200.583 310.197C200.583 310.197 202.109 312.235 200.583 313.188C199.058 314.14 200.733 316.444 200.733 316.444C200.733 316.444 196.928 318.43 198.602 320.217C200.277 322.004 199.216 330.075 199.216 330.075L194.64 336.825C194.64 336.825 194.914 341.174 194.93 347.052C194.93 356.223 194.325 369.116 190.976 374.994L191.44 423.221C191.44 423.221 175.417 428.434 162.005 426.847L160.016 349.459C160.016 349.459 162.917 305.574 163.986 297.156C164.612 292.786 164.867 288.38 164.749 283.975C164.749 283.975 164.293 270.802 162.759 264.687C162.759 264.687 161.102 238.2 160.936 230.867C160.861 227.36 161.068 217.125 161.301 207.392C161.558 196.752 161.848 186.716 161.848 186.716L158.822 165.39C158.822 165.39 161.848 165.117 162.759 166.203C163.168 166.543 163.612 166.847 164.086 167.111V167.111C169.308 170.257 187.76 179.93 187.76 179.93C187.76 179.93 197.972 183.549 200.418 188.732C202.863 193.916 204.562 197.593 205.748 199.07C206.933 200.547 207.58 207.488 207.58 207.488C207.58 207.488 211.094 220.263 213.838 222.427C216.582 224.591 218.588 238.355 218.588 238.355L194.342 255.339C194.342 255.339 192.211 283.591 191.755 284.684C191.299 285.777 200.583 310.197 200.583 310.197Z" fill="white"/>
<path d="M201.503 310.197C201.503 310.197 203.02 312.235 201.503 313.188C199.986 314.14 201.644 316.444 201.644 316.444C201.644 316.444 197.864 318.453 199.522 320.24C201.18 322.027 200.136 330.098 200.136 330.098L195.56 336.847C195.56 336.847 195.834 341.196 195.858 347.074C195.858 356.246 195.253 369.139 191.904 375.017L192.36 423.243C192.36 423.243 176.312 428.457 162.917 426.869L160.936 349.482C160.936 349.482 163.837 305.597 164.906 297.178C165.533 292.808 165.785 288.402 165.66 283.997C165.66 283.997 165.205 270.824 163.679 264.71C163.679 264.71 162.021 238.222 161.847 230.889C161.773 227.382 161.988 217.147 162.212 207.415C162.469 196.774 162.759 186.739 162.759 186.739L158.764 165.125C158.764 165.125 162.759 165.125 163.679 166.225C164.084 166.569 164.529 166.873 165.006 167.133C170.228 170.279 188.688 179.952 188.688 179.952C188.688 179.952 198.892 183.571 201.338 188.754C203.783 193.938 205.482 197.616 206.676 199.092C207.87 200.569 208.5 207.511 208.5 207.511C208.5 207.511 212.014 220.285 214.758 222.449C217.502 224.613 219.483 238.348 219.483 238.348L195.237 255.331C195.237 255.331 193.106 283.584 192.642 284.677C192.178 285.77 201.503 310.197 201.503 310.197Z" fill="white"/>
<path opacity="0.1" d="M172.466 193.008L174.654 198.694L163.132 209.032C163.389 198.398 163.679 188.356 163.679 188.356L159.684 166.742C159.684 166.742 163.679 166.742 164.6 167.842C165.003 168.185 165.448 168.487 165.926 168.743L175.724 193.924L172.466 193.008Z" fill="black"/>
<path d="M171.546 191.376L173.743 197.062L162.22 207.4C162.477 196.759 162.768 186.724 162.768 186.724L158.764 165.11C158.764 165.11 162.768 165.11 163.679 166.21C164.086 166.552 164.53 166.856 165.006 167.118L174.812 192.291L171.546 191.376Z" fill="white"/>
<path opacity="0.1" d="M171.546 135.115C171.553 137.776 171.083 140.421 170.154 142.949C169.997 142.971 169.837 142.965 169.683 142.931C169.529 142.896 169.385 142.835 169.258 142.75C169.043 136.104 165.371 129.864 160.853 124.555C159.585 122.952 158.047 121.532 156.294 120.346C154.522 119.16 152.317 118.605 150.11 118.788C147.623 119.091 145.427 120.597 142.915 120.789C139.599 121.033 136.632 118.987 133.341 118.884C132.003 118.895 130.683 119.161 129.47 119.662C128.256 120.164 127.177 120.891 126.303 121.793C124.574 123.615 123.29 125.738 122.532 128.026C121.228 131.495 120.518 135.12 120.426 138.777C120.385 140.845 120.161 143.437 118.006 144.19C118.168 142.669 117.974 141.135 117.436 139.685C116.898 138.235 116.028 136.9 114.881 135.765L114.831 135.72C114.831 135.513 114.831 135.321 114.831 135.115C114.766 131.76 115.452 128.428 116.849 125.313C118.245 122.197 120.324 119.36 122.964 116.968C125.604 114.576 128.753 112.676 132.226 111.379C135.699 110.082 139.427 109.414 143.193 109.414C146.958 109.414 150.687 110.082 154.16 111.379C157.633 112.676 160.781 114.576 163.421 116.968C166.061 119.36 168.14 122.197 169.536 125.313C170.933 128.428 171.619 131.76 171.554 135.115H171.546Z" fill="black"/>
<path d="M154.934 94.9957C150.627 93.1907 145.728 92.8493 141.158 94.0357C138.861 94.6412 136.698 95.6234 134.369 96.1181C129.395 97.1888 123.593 96.0295 119.324 98.6214C116.953 100.098 115.527 102.432 114.201 104.699L110.885 110.326C109.078 113.405 107.254 116.536 106.5 119.925C105.746 123.315 106.202 127.11 108.614 129.835C110.371 131.821 112.966 133.069 114.872 134.937C116.014 136.074 116.881 137.408 117.417 138.857C117.953 140.305 118.148 141.837 117.989 143.356C120.153 142.617 120.36 140.018 120.409 137.95C120.502 134.293 121.212 130.668 122.515 127.199C123.271 124.91 124.556 122.787 126.287 120.966C127.161 120.064 128.24 119.338 129.454 118.837C130.667 118.335 131.987 118.069 133.324 118.057C136.64 118.16 139.616 120.198 142.898 119.955C145.385 119.77 147.59 118.256 150.093 117.961C152.301 117.775 154.506 118.331 156.277 119.519C158.03 120.704 159.565 122.124 160.828 123.728C165.354 129.037 169.026 135.262 169.242 141.923C170.178 142.536 171.53 141.738 171.994 140.793C172.458 139.848 172.475 138.74 173.063 137.84C173.743 136.798 175.044 136.244 176.064 135.462C178.65 133.475 179.297 130.13 179.197 127.095C179.098 124.06 178.435 120.981 179.081 117.998C179.471 116.167 180.349 114.453 180.83 112.644C181.311 110.835 181.369 108.804 180.233 107.246C178.575 104.957 175.086 104.507 172.043 104.293C168.587 104.027 165.495 104.366 163.29 101.774C162.255 100.422 161.09 99.152 159.808 97.979C159.369 97.595 154.934 95.1582 154.934 94.9957Z" fill="#512E4E"/>
<path opacity="0.1" d="M64.8379 250.716L56.1756 236.45L53.4319 258.462C53.4319 258.462 54.9571 268.239 54.6504 269.738C54.3437 271.237 60.9005 284.677 60.9005 284.677C60.9005 284.677 82.5605 319.043 91.4052 320.816L121.288 301.794L113.364 292.829C113.364 292.829 110.62 291.877 109.932 292.829C109.932 292.829 95.2182 270.277 93.693 268.645C92.1678 267.014 92.4662 263.757 92.4662 263.757C92.4662 263.757 90.1784 261.586 90.941 259.548C91.7036 257.51 86.5228 250.443 86.5228 250.443L91.2477 246.507L64.8379 250.716Z" fill="black"/>
<path d="M56.6316 234.825L54.3437 236.45L51.6 258.462C51.6 258.462 53.1252 268.239 52.8185 269.738C52.5118 271.237 59.0769 284.677 59.0769 284.677C59.0769 284.677 80.7286 319.043 89.5732 320.816L119.464 301.794L111.532 292.829C111.532 292.829 108.788 291.877 108.1 292.829C108.1 292.829 93.3863 270.277 91.8611 268.645C90.3359 267.013 90.6426 263.757 90.6426 263.757C90.6426 263.757 88.3547 261.586 89.1173 259.548C89.88 257.51 84.6909 250.443 84.6909 250.443L89.4158 246.507L56.6316 234.825Z" fill="white"/>
<path opacity="0.1" d="M198.602 321.059C200.26 322.854 199.216 330.91 199.216 330.91L194.64 337.659C194.64 337.659 194.914 342.016 194.93 347.886L187.238 350.028C186.543 350.221 185.806 350.264 185.088 350.152C184.371 350.04 183.694 349.777 183.114 349.384C182.534 348.992 182.068 348.482 181.754 347.896C181.44 347.311 181.288 346.667 181.311 346.018L182.637 307.908L200.584 314.022C199.058 314.967 200.733 317.286 200.733 317.286C200.733 317.286 196.928 319.265 198.602 321.059Z" fill="black"/>
<path d="M199.522 320.24C201.18 322.034 200.136 330.098 200.136 330.098L195.56 336.847C195.56 336.847 195.833 341.196 195.858 347.074L188.025 349.253C187.344 349.441 186.623 349.482 185.92 349.372C185.218 349.262 184.556 349.004 183.988 348.619C183.421 348.235 182.964 347.736 182.657 347.162C182.35 346.589 182.201 345.959 182.223 345.324L183.557 307.096L201.512 313.21C199.978 314.155 201.653 316.466 201.653 316.466C201.653 316.466 197.864 318.453 199.522 320.24Z" fill="white"/>
<path d="M205.466 302.074C205.466 302.074 204.247 309.008 201.197 309.414C198.146 309.82 196.779 320.631 193.736 320.247C190.694 319.863 192.709 310.197 192.816 308.321C192.924 306.446 189.501 298.677 192.062 296.913C194.623 295.148 202.73 296.913 202.73 296.913L205.466 302.074Z" fill="#CF6F80"/>
<path opacity="0.1" d="M211.956 248.678L217.709 238.34C217.709 238.34 219.997 246.219 219.997 250.428C219.997 254.637 223.196 255.051 223.196 255.051C223.196 255.051 226.703 258.743 224.854 261.431C223.006 264.119 222.26 270.809 222.26 270.809C222.26 270.809 222.865 283.576 220.121 285.341C217.377 287.106 216.805 291.323 216.805 291.323C216.805 291.323 211.765 299.335 211.923 301.24C212.08 303.145 204.91 316.045 204.91 316.045C204.91 316.045 208.417 300.014 187.983 293.087C187.983 293.087 187.826 287.645 189.351 286.154C190.876 284.662 193.256 283.983 191.763 276.443C190.271 268.904 191.332 259.895 191.332 258.086C191.332 256.277 195.908 244.993 195.908 244.993L211.956 248.678Z" fill="black"/>
<path d="M214.443 236.863L219.466 238.34C219.466 238.34 221.763 246.219 221.763 250.428C221.763 254.637 224.962 255.051 224.962 255.051C224.962 255.051 228.469 258.743 226.62 261.431C224.772 264.119 224.034 270.809 224.034 270.809C224.034 270.809 224.639 283.576 221.895 285.341C219.151 287.106 218.538 291.323 218.538 291.323C218.538 291.323 213.506 299.335 213.664 301.24C213.821 303.145 206.643 316.045 206.643 316.045C206.643 316.045 210.158 300.014 189.716 293.087C189.716 293.087 189.567 287.645 191.092 286.154C192.617 284.662 194.996 283.983 193.504 276.443C192.012 268.904 193.073 259.895 193.073 258.086C193.073 256.277 197.649 244.993 197.649 244.993L214.443 236.863Z" fill="white"/>
<path opacity="0.1" d="M103.491 504.818C103.491 504.818 111.498 500.336 116.754 503.592C122.009 506.849 103.491 504.818 103.491 504.818Z" fill="black"/>
<path opacity="0.1" d="M165.711 490.958C165.711 490.958 172.798 490.145 178.75 495.853C184.701 501.561 165.711 490.958 165.711 490.958Z" fill="black"/>
<g opacity="0.1">
<path opacity="0.1" d="M176.08 133.845C175.061 134.627 173.751 135.189 173.071 136.23C172.491 137.123 172.474 138.224 172.01 139.184C171.546 140.144 170.195 140.926 169.258 140.321C169.043 133.675 165.362 127.435 160.844 122.118C159.581 120.514 158.046 119.094 156.294 117.909C154.519 116.721 152.311 116.166 150.102 116.351C147.615 116.654 145.426 118.16 142.915 118.345C139.599 118.596 136.623 116.551 133.332 116.447C131.995 116.459 130.676 116.726 129.464 117.229C128.251 117.732 127.174 118.46 126.303 119.364C124.573 121.182 123.288 123.303 122.531 125.589C121.229 129.059 120.519 132.683 120.426 136.341C120.376 138.401 120.161 140.971 118.022 141.739C118.072 142.284 118.072 142.832 118.022 143.378C120.177 142.639 120.393 140.04 120.442 137.973C120.535 134.315 121.245 130.69 122.548 127.221C123.305 124.932 124.589 122.81 126.32 120.989C127.192 120.087 128.27 119.361 129.482 118.859C130.694 118.357 132.012 118.092 133.349 118.079C136.665 118.183 139.649 120.221 142.931 119.977C145.418 119.792 147.623 118.279 150.118 117.983C152.328 117.797 154.536 118.353 156.31 119.541C158.063 120.726 159.598 122.146 160.861 123.75C165.379 129.06 169.059 135.285 169.275 141.945C170.211 142.558 171.563 141.761 172.027 140.816C172.491 139.87 172.508 138.763 173.088 137.862C173.767 136.821 175.077 136.267 176.097 135.484C178.683 133.498 179.33 130.153 179.23 127.118C179.23 127.022 179.23 126.926 179.23 126.837C179.073 129.466 178.285 132.146 176.08 133.845Z" fill="black"/>
<path opacity="0.1" d="M114.889 133.321C112.982 131.452 110.38 130.204 108.63 128.225C107.158 126.473 106.317 124.365 106.218 122.178C105.957 124.91 106.814 127.635 108.63 129.85C110.38 131.836 112.982 133.084 114.889 134.952C116.719 136.78 117.818 139.096 118.014 141.539C118.141 140.052 117.929 138.558 117.392 137.146C116.855 135.734 116.004 134.433 114.889 133.321V133.321Z" fill="black"/>
<path opacity="0.1" d="M180.847 111.027C180.358 112.836 179.487 114.557 179.089 116.381C178.854 117.6 178.768 118.838 178.832 120.073C178.86 119.369 178.946 118.668 179.089 117.976C179.487 116.144 180.358 114.431 180.847 112.622C181.132 111.624 181.224 110.591 181.12 109.565C181.069 110.058 180.977 110.546 180.847 111.027V111.027Z" fill="black"/>
</g>
<path opacity="0.1" d="M146.847 150.416H123.272V171.417H146.847V150.416Z" fill="#EA4848"/>
<path opacity="0.1" d="M86.2024 124.638H40.0559C47.5573 114.178 55.7534 104.128 64.6005 94.5392C71.4557 87.0368 78.6923 79.7263 86.2024 72.6816V124.638Z" fill="#EA4848"/>
<path opacity="0.1" d="M734.193 566.633C789.857 566.633 834.982 561.459 834.982 555.077C834.982 548.694 789.857 543.52 734.193 543.52C678.528 543.52 633.403 548.694 633.403 555.077C633.403 561.459 678.528 566.633 734.193 566.633Z" fill="#EA4848"/>
<path opacity="0.1" d="M564.951 132.303H512.794V235.203H564.951V132.303Z" fill="#EA4848"/>
<path opacity="0.1" d="M782.859 235.21H616.012C616.012 235.21 616.012 235.21 616.07 235.247L615.996 235.21H585.044V132.31H593.814V208.368H633.892V163.324H667V127.798H700.986V163.354H734.093V208.398H782.859V235.21Z" fill="#EA4848"/>
<path opacity="0.1" d="M585.044 238.364V340.518H782.859V238.364H585.044ZM836.557 460.764L836.831 379.906H782.859V343.723H585.044V521.316C601.262 521.923 617.505 521.75 633.702 520.799V520.799H633.984C641.72 520.366 649.421 519.736 657.086 518.908H657.26C698.152 514.669 738.136 505.165 775.963 490.693" fill="#EA4848"/>
<path opacity="0.1" d="M860.423 343.679H906.569C906.163 364.421 901.488 384.794 891.259 403.61C882.746 419.242 870.917 432.911 856.941 444.851V379.869H860.423V343.679Z" fill="#EA4848"/>
<path opacity="0.1" d="M906.594 340.518H860.422V255.148H885.406C898.338 282.064 906.552 311.601 906.594 340.518Z" fill="#EA4848"/>
<path opacity="0.1" d="M564.959 160.91H537.016V193.172H564.959V160.91Z" fill="#EA4848"/>
<path opacity="0.1" d="M564.959 227.782H537.016V235.21H564.959V227.782Z" fill="#EA4848"/>
<path opacity="0.1" d="M564.959 238.364H537.016V260.037H564.959V238.364Z" fill="#EA4848"/>
<path opacity="0.1" d="M564.959 294.654H537.016V326.916H564.959V294.654Z" fill="#EA4848"/>
<path opacity="0.1" d="M564.959 361.527H537.016V393.789H564.959V361.527Z" fill="#EA4848"/>
<path opacity="0.1" d="M564.951 453.159C565.232 453.159 565.506 453.159 565.78 453.203H564.951V460.698H537.016V428.399H564.951V453.159Z" fill="#EA4848"/>
<path opacity="0.1" d="M564.951 495.257V520.179C555.611 519.475 546.3 518.517 537.016 517.306V495.257H564.951Z" fill="#EA4848"/>
<path opacity="0.1" d="M657.285 248.266H633.71V269.267H657.285V248.266Z" fill="#EA4848"/>
<path opacity="0.1" d="M747.282 248.266H723.707V269.267H747.282V248.266Z" fill="#EA4848"/>
<path opacity="0.1" d="M657.285 300.067H633.71V321.068H657.285V300.067Z" fill="#EA4848"/>
<path opacity="0.1" d="M747.282 300.067H723.707V321.068H747.282V300.067Z" fill="#EA4848"/>
<path opacity="0.1" d="M657.285 351.861H633.71V372.862H657.285V351.861Z" fill="#EA4848"/>
<path opacity="0.1" d="M747.282 351.861H723.707V372.862H747.282V351.861Z" fill="#EA4848"/>
<path opacity="0.1" d="M657.285 403.661H633.71V424.662H657.285V403.661Z" fill="#EA4848"/>
<path opacity="0.1" d="M747.282 403.661H723.707V424.662H747.282V403.661Z" fill="#EA4848"/>
<path opacity="0.1" d="M657.285 455.463H633.71V476.464H657.285V455.463Z" fill="#EA4848"/>
<path opacity="0.1" d="M747.282 455.463H723.707V476.464H747.282V455.463Z" fill="#EA4848"/>
<path opacity="0.1" d="M633.71 520.799V507.256H657.277V518.872L633.71 520.799Z" fill="#EA4848"/>
<path opacity="0.1" d="M68.8613 418.762C69.6157 419.146 70.3866 419.501 71.1658 419.885V419.516H77.7972V422.839L79.2064 423.422V419.516H85.8378V425.903C85.965 425.959 86.0983 426.004 86.2357 426.036V418.762H68.8613Z" fill="#EA4848"/>
<path d="M819.258 336.966C819.258 336.966 805.572 276.312 810.811 268.765C810.811 268.765 811.002 261.75 810.687 252.807C810.687 252.468 810.687 252.128 810.687 251.781C811.609 252.328 812.569 252.822 813.563 253.258C818.39 255.467 823.932 256.104 829.23 255.059L825.085 250.946C824.091 249.964 823.054 248.901 822.839 247.601C822.623 246.302 823.22 245.142 823.734 243.983C827.672 235.122 827.879 223.979 820.294 217.215C813.887 211.529 812.328 204.189 805.373 198.998C800.292 195.195 797.499 189.62 794.863 184.229C792.633 179.673 790.386 175.08 789.11 170.251C788.115 166.477 787.717 162.571 786.349 158.886C784.982 155.201 782.42 151.62 778.417 149.973C776.991 149.39 775.408 149.058 774.106 148.282C772.399 147.256 771.371 145.587 770.136 144.125C763.861 136.741 742.847 141.09 732.9 144.088C730.196 144.843 727.692 146.079 725.539 147.721L725.63 147.588C725.705 147.477 725.796 147.367 725.879 147.256C724.79 148.04 723.85 148.975 723.094 150.025C721.643 152.07 721.038 154.456 719.828 156.671C718.369 159.292 710.254 166.61 713.744 169.557C713.988 169.754 714.268 169.914 714.572 170.029C715.883 170.515 717.325 170.643 718.717 170.398L718.568 170.716C717.376 173.315 716.765 176.097 716.769 178.905C716.769 191.037 728.001 200.873 741.869 200.873C744.476 200.876 747.068 200.519 749.553 199.817C749.611 200.098 749.661 200.379 749.719 200.659C749.719 200.77 749.761 200.881 749.777 200.992L749.338 201.538C749.316 201.504 749.291 201.472 749.263 201.442L736.249 217.643C734.26 218.891 722.804 226.275 722.157 231.814C721.477 237.876 720.798 244.973 720.798 244.973L720.707 246.494C720.138 246.917 719.473 247.225 718.757 247.398C718.042 247.57 717.293 247.601 716.562 247.491C712.5 246.9 712.5 260.782 712.5 260.782C712.5 260.782 709.798 262.998 707.941 261.078C706.084 259.158 701.177 265.663 701.177 265.663L670.424 266.845L669.719 266.882L668.061 262.311C667.883 261.829 667.498 261.429 666.991 261.198C666.483 260.967 665.894 260.924 665.351 261.078C665.222 261.115 665.097 261.162 664.978 261.218L664.862 261.277L664.646 261.41L664.538 261.499C664.479 261.547 664.424 261.598 664.373 261.654L664.273 261.757L664.223 261.801C664.032 262.037 663.905 262.31 663.853 262.597C663.802 262.884 663.826 263.178 663.925 263.455L665.351 267.377C659.416 268.44 653.348 271.438 658.296 279.694L633.213 275.566L641.328 281.636L683.222 289.337C682.667 290.224 683.032 291.508 684.764 293.318C692.225 301.123 705.819 303.242 711.29 303.789C712.735 306.668 714.539 309.393 716.67 311.911L716.197 319.687C716.197 319.687 702.346 378.954 699.809 381.959C701.09 380.666 702.262 379.292 703.316 377.846C699.295 390.023 693.675 406.689 692.2 409.185C689.829 413.173 687.632 429.307 690.335 430.341C691.164 430.659 693.534 430.503 696.916 430.275V431.611L696.767 482.26C696.767 482.26 697.447 513.326 695.582 516.287C693.717 519.248 693.219 525.458 693.219 525.458C693.219 525.458 685.759 537.709 679.849 542.634C679.808 542.673 679.764 542.707 679.716 542.738L679.534 541.586C679.534 541.586 672.43 549.576 656.713 549.125C656.713 549.125 647.255 554.604 661.281 554.9C675.306 555.195 693.219 554.457 693.219 554.457C693.219 554.457 705.728 537.473 716.206 539.688V552.559H719.413V539.481C720.901 538.609 722.174 537.476 723.156 536.152C724.138 534.828 724.808 533.341 725.125 531.779C725.399 530.17 725.198 528.525 724.541 527.006C723.884 525.487 722.794 524.147 721.378 523.118C720.742 522.605 720.232 521.981 719.879 521.285C719.527 520.589 719.34 519.835 719.331 519.071L719.214 519.16C719.214 518.901 719.14 518.635 719.107 518.362C718.187 511.716 717.034 498.004 721.104 487.857C726.683 473.945 728.374 454.569 724.312 443.035C723.002 439.348 721.925 435.598 721.088 431.803C720.988 431.323 720.897 430.865 720.814 430.437C723.591 430.772 726.34 431.265 729.046 431.914C738.454 434.225 759.036 434.653 776.61 434.528C776.651 434.956 776.701 435.407 776.759 435.857C777.072 438.988 777.727 442.084 778.715 445.102C780.92 451.01 781.931 477.054 781.931 477.054C781.931 477.054 784.775 498.469 783.224 507.182C782.395 512.026 781.567 516.893 781.094 521.781V521.877C781.094 521.877 776.435 533.692 773.029 540.109C772.946 540.271 772.855 540.434 772.772 540.589C771.863 540.663 770.969 540.839 770.111 541.113C770.111 541.113 765.543 549.236 760.993 550.58C756.442 551.924 757.95 556.347 768.254 554.722C778.558 553.098 794.117 551.769 794.117 551.769L794.788 543.484L797.954 539.954L797.126 548.217L800.499 547.626L800.052 537.576L805.232 531.802C805.232 531.802 811.491 526.839 802.19 517.077V517.291C802.091 517.151 802 517.003 801.892 516.863V516.819C800.35 514.692 799.123 510.727 801.37 503.689C805.431 490.974 807.794 479.432 807.794 479.432C807.794 479.432 816.862 448.514 805.962 433.885H806.443C805.326 431.827 804.536 429.64 804.097 427.387C804.042 427.121 803.992 426.848 803.948 426.568C812.013 426.154 819.929 424.854 826.387 422.048C826.362 422.019 822.474 348.648 819.258 336.966ZM716.86 285.793V285.941L715.202 286.015L716.86 285.793ZM711.174 286.495C710.901 286.548 710.646 286.657 710.428 286.812C709.715 287.71 709.268 288.754 709.126 289.847L706.54 289.33C706.54 289.33 704.725 288.983 702.114 288.592L700.879 287.484C704.277 287.233 707.808 286.864 711.174 286.495V286.495Z" fill="url(#paint1_linear)"/>
<path d="M796.744 537.68L795.758 548.143L799.065 547.552L798.568 536.203L796.744 537.68Z" fill="#1D2366"/>
<path d="M721.287 487.998C717.3 498.114 718.427 511.768 719.322 518.399C719.654 520.851 719.96 522.342 719.96 522.342C719.96 522.342 714 534.438 713.503 534.896C713.006 535.353 695.963 544.621 695.963 544.621L684.051 550.816C684.051 550.816 671.965 546.098 677.759 544.473C678.943 544.05 680.01 543.402 680.884 542.575C686.687 537.665 693.973 525.458 693.973 525.458C693.973 525.458 694.471 519.263 696.294 516.317C698.118 513.37 697.455 482.408 697.455 482.408L697.596 431.936V425.357L720.267 425.504C720.41 427.738 720.737 429.959 721.245 432.15C722.059 435.932 723.113 439.67 724.403 443.345C728.399 454.857 726.741 474.137 721.287 487.998Z" fill="#FFB0B1"/>
<path opacity="0.1" d="M719.96 522.342C719.96 522.342 714 534.438 713.503 534.896C713.006 535.354 695.963 544.621 695.963 544.621L684.051 550.816C684.051 550.816 671.965 546.098 677.759 544.473C678.943 544.05 680.01 543.402 680.884 542.575L681.398 545.802L685.369 545.655L719.355 518.414C719.654 520.851 719.96 522.342 719.96 522.342Z" fill="black"/>
<path d="M719.546 519.101L685.369 546.526L681.399 546.674L680.57 541.505C680.57 541.505 673.623 549.465 658.189 549.022C658.189 549.022 648.921 554.479 662.657 554.774C676.392 555.07 693.932 554.331 693.932 554.331C693.932 554.331 706.184 537.347 716.438 539.563V552.389H719.587V539.444C721.052 538.566 722.302 537.433 723.262 536.113C724.222 534.793 724.873 533.314 725.174 531.765C725.447 530.168 725.254 528.537 724.614 527.026C723.974 525.515 722.908 524.177 721.519 523.14C720.899 522.622 720.404 521.996 720.064 521.302C719.725 520.607 719.549 519.858 719.546 519.101V519.101Z" fill="#1D2366"/>
<path d="M799.894 503.771C797.689 510.786 798.891 514.736 800.399 516.856V516.9C802.334 519.517 803.68 522.444 804.362 525.518L804.494 526.182L788.944 546.378L780.505 549.332C780.505 549.332 766.936 545.204 769.414 544.023C770.036 543.735 771.006 542.199 772.116 540.079C775.432 533.692 780.008 521.907 780.008 521.907V521.811C780.489 516.944 781.251 512.093 782.097 507.264C783.614 498.572 780.828 477.239 780.828 477.239C780.828 477.239 779.834 451.298 777.678 445.398C776.705 442.398 776.059 439.322 775.747 436.212C775.299 432.52 775.2 429.477 775.2 429.477C775.2 429.477 784.136 418.401 800.516 430.363C801.825 431.317 802.978 432.431 803.939 433.672C815.254 448.012 806.144 479.602 806.144 479.602C806.144 479.602 803.864 491.092 799.894 503.771Z" fill="#FFB0B1"/>
<path opacity="0.1" d="M804.52 526.182L788.969 546.378L780.531 549.332C780.531 549.332 766.961 545.204 769.44 544.023C770.061 543.735 771.031 542.199 772.142 540.079C777.886 540.035 780.862 544.909 780.862 544.909L788.14 543.875C788.14 543.875 797.739 527.068 799.894 526.042C802.049 525.015 800.226 518.37 800.226 518.37V516.678C800.284 516.738 800.334 516.804 800.4 516.863V516.907C802.335 519.524 803.681 522.451 804.362 525.525L804.52 526.182Z" fill="black"/>
<path d="M781.359 545.344C781.359 545.344 777.214 538.566 769.273 541.069C769.273 541.069 764.805 549.192 760.337 550.506C755.869 551.82 757.361 556.251 767.458 554.634C777.554 553.017 792.773 551.68 792.773 551.68L793.436 543.417L803.699 531.772C803.699 531.772 809.816 526.832 800.714 517.107V518.798C800.714 518.798 802.538 525.444 800.383 526.47C798.228 527.497 788.662 544.311 788.662 544.311L781.359 545.344Z" fill="#1D2366"/>
<path opacity="0.1" d="M720.292 425.49C720.435 427.723 720.762 429.945 721.27 432.135C711.936 430.917 703.274 431.523 697.596 431.921V425.342L720.292 425.49Z" fill="black"/>
<path opacity="0.1" d="M804.859 435.51C804.859 435.51 791.596 436.086 775.78 436.204C775.333 432.512 775.233 429.47 775.233 429.47C775.233 429.47 784.169 418.393 800.549 430.356C801.858 431.31 803.011 432.424 803.972 433.664C804.229 434.294 804.525 434.91 804.859 435.51V435.51Z" fill="black"/>
<path d="M804.859 434.181C804.859 434.181 746.768 436.684 729.062 432.261C711.356 427.838 693.808 431.67 691.163 430.644C688.519 429.618 690.666 413.542 692.987 409.562C695.308 405.582 708.04 365.33 708.04 365.33L720.292 308.426L733.198 305.258L734.11 305.029L756.599 299.506L773.078 295.452C773.078 295.452 805.846 409.414 803.036 417.817C802.015 421.035 801.851 424.421 802.555 427.705C802.984 429.948 803.76 432.127 804.859 434.181V434.181Z" fill="#1D2366"/>
<path d="M677.585 269.511C677.585 269.511 665.98 280.587 674.767 286.76C683.554 292.934 689.331 287.351 689.331 287.351L677.585 269.511Z" fill="#C7DAF5"/>
<path opacity="0.1" d="M677.585 269.511C677.585 269.511 665.98 280.587 674.767 286.76C683.554 292.934 689.331 287.351 689.331 287.351L677.585 269.511Z" fill="black"/>
<path d="M771.346 196.687C771.346 196.687 769.986 197.839 767.939 199.537C765.021 201.966 760.703 205.518 756.873 208.494C751.568 212.607 747.191 215.627 748.758 213.05C750.324 210.473 750.026 205.983 749.247 201.782C749.189 201.501 749.139 201.221 749.081 200.947C748.436 197.862 747.58 194.814 746.52 191.82C746.52 191.82 755.091 181.955 759.832 178.063C761.598 176.586 762.833 175.981 762.907 177.007C762.99 178.388 764.151 181.438 765.593 184.672C765.635 184.776 765.676 184.872 765.726 184.975C766.687 187.19 767.773 189.465 768.727 191.429C770.185 194.442 771.346 196.687 771.346 196.687Z" fill="#FFB0B1"/>
<path opacity="0.1" d="M765.726 184.975C764.92 188.834 762.966 192.43 760.067 195.387C757.168 198.343 753.431 200.552 749.247 201.782C748.588 198.411 747.677 195.083 746.52 191.82C746.52 191.82 762.659 173.249 762.907 177.007C762.965 178.433 764.225 181.593 765.726 184.975Z" fill="black"/>
<path opacity="0.1" d="M747.638 206.744L749.727 204.123C749.727 204.123 751.111 211.64 756.201 208.324C761.291 205.009 761.539 233.276 761.539 233.276L756.077 306.034L716.603 303.929L717.722 268.772L722.19 251.05L733.24 225.286L739.813 216.772L747.638 206.744Z" fill="black"/>
<path d="M761.54 233.726L756.566 299.513L756.044 306.484L734.036 305.31L733.207 305.265L716.628 304.379L717.747 269.215L722.215 251.493L733.265 225.729L739.838 217.215L747.663 207.15L749.752 204.536C749.752 204.536 751.136 212.053 756.226 208.738L756.334 208.671C761.307 205.865 761.54 233.726 761.54 233.726Z" fill="#1D2366"/>
<path d="M722.77 245.334C722.77 245.334 720.789 249.027 716.81 248.429C712.832 247.83 712.84 261.72 712.84 261.72C712.84 261.72 710.196 263.936 708.372 262.016C706.548 260.096 701.741 266.587 701.741 266.587L671.617 267.768C671.617 267.768 685.021 273.225 682.393 289.736C682.393 289.736 727.902 287.226 729.394 283.393C730.886 279.561 722.77 245.334 722.77 245.334Z" fill="white"/>
<path opacity="0.03" d="M722.77 245.334C722.77 245.334 720.789 249.027 716.81 248.429C712.832 247.83 712.84 261.72 712.84 261.72C712.84 261.72 710.196 263.936 708.372 262.016C706.548 260.096 701.741 266.587 701.741 266.587L671.617 267.768C671.617 267.768 685.021 273.225 682.393 289.736C682.393 289.736 727.902 287.226 729.394 283.393C730.886 279.561 722.77 245.334 722.77 245.334Z" fill="black"/>
<path d="M635.227 276.444L643.168 282.485L708.538 294.721L700.431 287.351L635.227 276.444Z" fill="white"/>
<path d="M747.763 209.07C746.677 210.547 743.568 218.108 740.974 224.71C738.81 230.211 737.003 235.048 737.003 235.048C737.003 235.048 732.784 259.52 730.629 263.943C728.474 268.366 729.642 285.616 729.642 285.616L721.61 328.216C721.61 328.216 717.971 350.184 712.351 363.306C706.805 376.221 700.63 382.276 700.439 382.468C702.926 379.47 716.479 320.44 716.479 320.44L720.955 245.992C720.955 245.992 721.61 238.917 722.273 232.87C722.936 226.822 736.365 218.566 736.365 218.566L749.313 202.166C750.614 203.716 749.744 206.419 747.763 209.07Z" fill="white"/>
<path d="M714 304.749C714 304.749 694.935 304.01 685.701 294.13C676.466 284.25 707.046 290.187 707.046 290.187L714.995 291.811L714 304.749Z" fill="#FFB0B1"/>
<path opacity="0.1" d="M803.035 417.825C802.015 421.042 801.85 424.428 802.555 427.712C781.757 429.027 759.508 424.02 759.508 424.02C755.364 427.417 744.447 432.423 744.447 432.423L738.495 366.703C734.69 357.842 733.198 311.417 733.198 311.417C733.198 311.417 733.538 308.987 734.027 305.347C734.027 305.258 734.027 305.162 734.069 305.074C735.552 294.905 738.495 275.817 739.937 273.24C741.927 269.695 733.82 260.266 733.82 260.266L737.509 232.242L737.956 228.86C745.732 225.766 751.692 215.886 751.692 215.886L756.267 208.745C761.241 205.902 761.498 233.763 761.498 233.763L756.524 299.55L773.003 295.496C773.003 295.496 805.845 409.421 803.035 417.825Z" fill="black"/>
<path d="M824.381 422.366C801.709 432.394 760.503 423.104 760.503 423.104C756.359 426.501 745.442 431.508 745.442 431.508L739.482 365.787C735.685 356.926 734.193 310.501 734.193 310.501C734.193 310.501 738.984 275.861 740.974 272.324C741.554 271.29 741.272 269.754 740.584 268.1C737.201 260.227 735.957 251.753 736.953 243.37L738.545 231.326L738.984 227.952C746.768 224.85 752.728 214.97 752.728 214.97L756.873 208.501L764.499 196.583L768.113 190.942L768.726 191.436L773.41 195.217C773.41 195.217 775.399 196.694 778.383 198.909C784.874 203.783 796.089 212.363 801.875 217.614C806.965 222.236 808.573 240.217 809.037 253.753C809.344 262.665 809.161 269.651 809.161 269.651C804.03 277.176 817.451 337.587 817.451 337.587C820.576 349.261 824.381 422.366 824.381 422.366Z" fill="white"/>
<path opacity="0.03" d="M780.862 214.822C780.862 214.822 765.303 241.207 767.11 251.234C768.917 261.262 774.056 272.612 771.578 275.263C770.726 276.267 769.625 277.083 768.361 277.645C767.097 278.207 765.704 278.502 764.291 278.505C761.805 278.652 755.173 282.78 755.173 283.223C755.173 283.666 749.047 283.666 743.568 285.734C738.089 287.802 729.999 288.976 729.999 288.976C729.999 288.976 714.249 288.533 712.782 289.862C711.315 291.191 709.806 299.144 712.948 305.487C716.089 311.83 719.579 316.564 722.215 317.428C724.851 318.291 741.579 313.3 755.148 312.118C768.718 310.937 783.448 301.359 783.448 301.359C783.448 301.359 799.67 296.19 802.513 287.499C805.357 278.808 799.04 231.038 799.04 231.038C799.04 231.038 794.266 208.775 780.862 214.822Z" fill="black"/>
<path opacity="0.03" d="M778.872 212.607C778.872 212.607 763.313 238.999 765.137 249.019C766.961 259.04 772.083 270.397 769.597 273.055C768.748 274.06 767.649 274.877 766.386 275.439C765.123 276.002 763.731 276.295 762.319 276.297C759.832 276.444 753.2 280.572 753.2 281.015C753.2 281.458 747.075 281.458 741.595 283.519C736.116 285.579 728.026 286.76 728.026 286.76C728.026 286.76 712.276 286.317 710.817 287.646C709.358 288.976 707.833 296.936 710.983 303.272C714.133 309.607 717.614 314.348 720.25 315.212C722.886 316.076 739.614 311.084 753.184 309.91C766.753 308.736 781.484 299.144 781.484 299.144C781.484 299.144 797.697 293.975 800.508 285.291C803.318 276.607 797.034 228.823 797.034 228.823C797.034 228.823 792.276 206.567 778.872 212.607Z" fill="black"/>
<path d="M780.373 213.493C780.373 213.493 764.814 239.885 766.637 249.905C768.461 259.926 773.584 271.283 771.105 273.934C770.257 274.942 769.157 275.76 767.892 276.324C766.627 276.888 765.233 277.182 763.819 277.183C761.332 277.331 754.701 281.458 754.701 281.894C754.701 282.33 748.583 282.337 743.096 284.405C737.608 286.472 729.526 287.646 729.526 287.646C729.526 287.646 713.776 287.203 712.309 288.533C710.842 289.862 709.333 297.822 712.475 304.158C715.617 310.494 719.106 315.234 721.742 316.098C724.378 316.962 741.106 311.97 754.676 310.789C768.245 309.607 782.975 300.03 782.975 300.03C782.975 300.03 799.198 294.861 802.041 286.17C804.884 277.478 798.609 229.709 798.609 229.709C798.609 229.709 793.768 207.482 780.373 213.493Z" fill="white"/>
<path opacity="0.1" d="M780.033 284.279C780.033 284.279 767.599 282.064 771.926 285.756C776.253 289.448 776.228 292.683 781.525 292.535C786.822 292.387 780.033 284.279 780.033 284.279Z" fill="black"/>
<path opacity="0.1" d="M801.046 363.72C801.046 363.72 795.426 367.109 806.177 374.922C816.928 382.735 801.046 363.72 801.046 363.72Z" fill="black"/>
<path opacity="0.1" d="M790.32 391.581C790.32 392.024 788.33 407.826 795.774 411.777C803.218 415.728 790.32 391.581 790.32 391.581Z" fill="black"/>
<path d="M672.131 267.731C666.129 267.916 653.165 269.548 659.888 280.72C665.831 290.608 675.82 283.999 681.44 278.985C680.069 274.31 676.737 270.282 672.131 267.731V267.731Z" fill="#FFB0B1"/>
<path d="M681.514 278.896L681.763 278.667L681.514 278.896Z" fill="#FFB0B1"/>
<path opacity="0.1" d="M778.383 199.36C772.017 203.236 766.679 206.508 765.634 207.187C762.783 209.07 757.345 220.124 753.839 225.766C751.045 230.307 741.968 231.474 738.545 231.762L738.984 228.387C746.768 225.286 752.728 215.406 752.728 215.406L768.113 191.377L773.41 195.667C773.41 195.667 775.399 197.144 778.383 199.36Z" fill="black"/>
<path d="M778.383 198.917C772.017 202.793 766.679 206.065 765.634 206.751C762.783 208.627 757.345 219.681 753.839 225.323C751.045 229.864 741.968 231.031 738.545 231.319L738.984 227.944C746.768 224.843 752.728 214.963 752.728 214.963L768.113 190.934L773.41 195.21C773.41 195.21 775.399 196.672 778.383 198.917Z" fill="#DCE7FF"/>
<path d="M766.131 180.101C766.135 184.534 764.626 188.863 761.804 192.514C758.472 196.831 753.513 199.942 747.827 201.28C742.141 202.619 736.105 202.097 730.813 199.81C725.522 197.523 721.326 193.622 718.987 188.815C716.648 184.008 716.321 178.613 718.066 173.61C719.81 168.606 723.509 164.326 728.494 161.544C733.478 158.763 739.416 157.665 745.231 158.451C751.045 159.236 756.352 161.852 760.186 165.825C764.021 169.797 766.13 174.862 766.131 180.101V180.101Z" fill="#FFB0B1"/>
<path opacity="0.1" d="M809.037 253.76C805.671 251.915 802.929 249.292 801.104 246.169C799.72 243.732 798.8 240.919 796.437 239.191C794.307 237.64 791.464 237.263 788.811 236.569C780.091 234.273 772.78 227.184 772.506 219.09C772.373 215.28 773.708 211.477 773.103 207.704C772.759 205.568 771.806 203.547 770.334 201.833C769.604 201.014 768.803 200.246 767.939 199.537C766.778 198.562 765.56 197.617 764.499 196.583C763.83 195.943 763.246 195.237 762.758 194.479C762.364 193.858 762.044 193.202 761.805 192.522C760.147 188.003 761.655 182.642 759.832 178.071L759.732 177.82C759.044 176.195 757.643 174.57 755.695 174.445C753.747 174.319 752.081 175.759 750.224 176.402C746.337 177.746 742.142 175.457 738.901 173.123C735.66 170.79 732.004 168.124 727.885 168.641C725.158 168.988 723.002 170.642 720.491 171.499C719.924 171.694 719.338 171.845 718.742 171.949C720.867 167.227 724.772 163.311 729.787 160.876C734.801 158.44 740.61 157.636 746.218 158.601C751.825 159.567 756.88 162.241 760.514 166.166C764.148 170.091 766.134 175.021 766.132 180.109C766.134 181.645 765.954 183.177 765.593 184.68C765.634 184.783 765.676 184.879 765.725 184.982C766.687 187.198 767.773 189.472 768.726 191.436L773.41 195.217C773.41 195.217 775.399 196.694 778.383 198.909C784.874 203.783 796.089 212.363 801.875 217.614C806.965 222.251 808.556 240.224 809.037 253.76Z" fill="black"/>
<path d="M720.201 158.007C721.386 155.859 721.975 153.451 723.392 151.413C725.473 148.46 729.103 146.569 732.834 145.425C742.574 142.434 763.156 138.092 769.307 145.425C770.517 146.901 771.52 148.541 773.194 149.56C774.471 150.335 776.013 150.667 777.413 151.251C781.334 152.89 783.838 156.464 785.172 160.112C786.507 163.76 786.905 167.674 787.883 171.432C789.134 176.254 791.331 180.825 793.52 185.366C796.097 190.727 798.833 196.288 803.807 200.076C810.595 205.245 812.096 212.563 818.396 218.234C825.856 224.968 825.616 236.082 821.769 244.906C821.264 246.065 820.692 247.277 820.891 248.51C821.09 249.743 822.118 250.865 823.087 251.847L827.166 255.946C817.517 258.021 806.6 253.531 802.107 245.652C800.723 243.215 799.803 240.409 797.432 238.674C795.31 237.123 792.459 236.754 789.814 236.06C781.094 233.756 773.783 226.659 773.509 218.566C773.377 214.763 774.711 210.96 774.106 207.194C773.769 205.045 772.813 203.009 771.329 201.287C769.05 198.636 765.61 196.856 763.753 193.903C760.611 188.963 762.998 182.546 760.735 177.244C760.039 175.619 758.646 173.995 756.699 173.869C754.751 173.743 753.084 175.183 751.219 175.826C747.34 177.17 743.146 174.888 739.904 172.547C736.663 170.206 733.008 167.548 728.88 168.072C726.152 168.412 724.006 170.066 721.494 170.93C719.637 171.565 715.874 172.134 714.249 170.738C710.817 167.925 718.767 160.636 720.201 158.007Z" fill="#591D4B"/>
<path opacity="0.1" d="M804.412 243.215C803.019 240.778 802.107 237.972 799.737 236.244C797.615 234.694 794.763 234.317 792.111 233.623C783.398 231.326 776.087 224.23 775.806 216.137C775.673 212.334 777.007 208.524 776.411 204.758C776.063 202.621 775.107 200.6 773.634 198.887C771.346 196.236 767.906 194.456 766.057 191.503C762.916 186.57 765.303 180.153 763.032 174.844C762.344 173.226 760.943 171.602 759.003 171.469C757.063 171.336 755.381 172.791 753.524 173.433C749.644 174.777 745.442 172.488 742.209 170.155C738.976 167.821 735.304 165.155 731.184 165.672C728.457 166.019 726.302 167.673 723.798 168.53C721.942 169.165 718.17 169.741 716.545 168.345C713.13 165.392 721.08 158.118 722.505 155.504C723.691 153.348 724.279 150.948 725.705 148.91C725.78 148.799 725.863 148.688 725.945 148.578C724.879 149.365 723.959 150.297 723.218 151.339C721.801 153.377 721.212 155.77 720.027 157.934C718.593 160.548 710.643 167.843 714.067 170.775C715.725 172.178 719.455 171.602 721.312 170.967C723.798 170.103 725.97 168.449 728.697 168.109C732.842 167.585 736.489 170.251 739.722 172.584C742.955 174.917 747.183 177.207 751.045 175.863C752.902 175.22 754.527 173.773 756.516 173.906C758.506 174.039 759.832 175.656 760.553 177.28C762.816 182.582 760.429 188.999 763.57 193.94C765.427 196.842 768.867 198.658 771.147 201.324C772.63 203.046 773.587 205.081 773.924 207.231C774.529 210.997 773.194 214.8 773.327 218.603C773.601 226.726 780.912 233.793 789.632 236.097C792.26 236.791 795.128 237.16 797.25 238.711C799.629 240.446 800.566 243.252 801.925 245.689C806.418 253.568 817.335 258.058 826.984 255.983L825.061 254.048C816.697 254.159 808.233 249.92 804.412 243.215Z" fill="black"/>
<path opacity="0.1" d="M747.265 209.513C746.179 210.99 743.071 218.551 740.476 225.153C738.047 224.311 735.842 218.943 735.842 218.943L748.79 202.535C750.117 204.159 749.246 206.855 747.265 209.513Z" fill="black"/>
<path d="M747.763 209.07C746.677 210.547 743.568 218.108 740.974 224.71C738.545 223.875 736.34 218.5 736.34 218.5L749.288 202.099C750.614 203.716 749.744 206.419 747.763 209.07Z" fill="#DCE7FF"/>
<path d="M672.479 284.508L665.301 264.342C665.216 264.106 665.184 263.857 665.207 263.61C665.23 263.363 665.308 263.122 665.436 262.902C665.564 262.682 665.739 262.486 665.952 262.326C666.165 262.167 666.411 262.046 666.677 261.971V261.971C667.211 261.823 667.789 261.868 668.286 262.098C668.783 262.327 669.158 262.722 669.329 263.197L676.508 283.342L675.795 287.558L672.479 284.508Z" fill="#BE8B87"/>
<path opacity="0.1" d="M665.98 262.569C666.516 262.419 667.096 262.463 667.595 262.693C668.094 262.922 668.47 263.319 668.641 263.795L675.82 283.94L675.281 287.1L675.803 287.587L676.516 283.371L669.296 263.227C669.125 262.752 668.75 262.357 668.253 262.127C667.756 261.898 667.178 261.852 666.644 262.001V262.001C666.194 262.131 665.806 262.391 665.541 262.739C665.682 262.672 665.829 262.615 665.98 262.569V262.569Z" fill="white"/>
<path d="M672.479 284.508L676.508 283.371L675.919 286.827L675.795 287.587L674.618 286.495L672.479 284.508Z" fill="#EFC8C4"/>
<path d="M674.618 286.495C674.688 286.416 674.775 286.35 674.875 286.303C674.933 286.27 675.001 286.252 675.07 286.252C675.139 286.252 675.206 286.27 675.264 286.303C675.321 286.363 675.368 286.43 675.405 286.502C675.46 286.583 675.535 286.653 675.624 286.705C675.713 286.758 675.814 286.792 675.919 286.805L675.795 287.543L674.618 286.495Z" fill="#727A9C"/>
<path d="M665.259 271.504C665.259 271.504 679.658 271.431 676.267 276.888C672.877 282.345 667.58 283.002 667.58 283.002L665.259 271.504Z" fill="#FFB0B1"/>
<defs>
<linearGradient id="paint0_linear" x1="139.483" y1="545.387" x2="139.483" y2="91.0008" gradientUnits="userSpaceOnUse">
<stop stop-color="#808080" stop-opacity="0.25"/>
<stop offset="0.54" stop-color="#808080" stop-opacity="0.12"/>
<stop offset="1" stop-color="#808080" stop-opacity="0.1"/>
</linearGradient>
<linearGradient id="paint1_linear" x1="185020" y1="342829" x2="185020" y2="109589" gradientUnits="userSpaceOnUse">
<stop stop-color="#808080" stop-opacity="0.25"/>
<stop offset="0.54" stop-color="#808080" stop-opacity="0.12"/>
<stop offset="1" stop-color="#808080" stop-opacity="0.1"/>
</linearGradient>
</defs>
</svg>
