<svg width="289" height="201" viewBox="0 0 289 201" fill="none" xmlns="http://www.w3.org/2000/svg">
<path d="M241.47 30.9068L219.176 31.1238C218.128 25.9691 214.607 12.4442 217.778 8.75507C217.922 7.3666 218.597 6.08732 219.662 5.18354C220.727 4.27976 222.099 3.82112 223.494 3.9031C226.95 -1.50145 232.705 -0.689994 236.595 2.68538C240.51 4.03515 241.986 6.4331 241.47 9.68723C244.369 12.223 244.904 15.3082 243.603 18.8201L241.47 30.9068Z" fill="#2F2E41"/>
<path d="M239.324 44.6295L223.239 42.4042L220.022 37.7063C224.454 34.7693 226.022 30.667 223.982 25.0964L235.117 24.8491C234.595 29.8099 236.237 33.6509 240.809 35.9756L239.324 44.6295Z" fill="#FFB9B9"/>
<path d="M219.437 189.59L218.822 197.992C218.794 198.372 218.848 198.754 218.98 199.111C219.111 199.469 219.318 199.795 219.587 200.066C219.855 200.337 220.178 200.548 220.534 200.684C220.891 200.821 221.272 200.879 221.653 200.856L225.972 200.595C226.172 200.583 226.367 200.527 226.543 200.431C226.719 200.335 226.871 200.201 226.99 200.04C227.108 199.878 227.19 199.693 227.229 199.496C227.267 199.299 227.262 199.097 227.213 198.902L224.816 189.322L219.437 189.59Z" fill="#E6E6E6"/>
<path d="M233.418 189.322L231.021 198.902C230.972 199.097 230.967 199.299 231.006 199.496C231.044 199.693 231.126 199.878 231.244 200.04C231.363 200.201 231.515 200.335 231.691 200.431C231.867 200.527 232.062 200.583 232.262 200.595L236.581 200.856C236.962 200.879 237.343 200.821 237.7 200.684C238.056 200.548 238.379 200.337 238.647 200.066C238.916 199.795 239.123 199.469 239.255 199.111C239.387 198.754 239.44 198.372 239.413 197.992L238.797 189.59L233.418 189.322Z" fill="#E6E6E6"/>
<path d="M239.077 190.757L233.249 190.172L227.446 128.201L225.254 189.973L219.528 189.768L209.877 104.218H246.748L239.077 190.757Z" fill="#EA4848"/>
<path d="M230.168 29.0524C236.318 29.0524 241.304 24.071 241.304 17.926C241.304 11.781 236.318 6.79956 230.168 6.79956C224.018 6.79956 219.033 11.781 219.033 17.926C219.033 24.071 224.018 29.0524 230.168 29.0524Z" fill="#FFB9B9"/>
<path d="M252.192 106.196L207.155 106.69C213.838 81.2667 217.837 57.6505 210.867 41.4151L222.002 35.9755C227.371 41.5712 233.351 40.9943 239.819 35.481L250.459 38.2008C248.637 59.4911 249.454 82.2932 252.192 106.196Z" fill="#EA4848"/>
<path d="M194.782 79.9867L222.745 91.1132L228.996 92.9504C229.276 93.0326 229.569 93.0575 229.859 93.0235C230.148 92.9895 230.428 92.8974 230.681 92.7528C230.934 92.6081 231.155 92.4138 231.331 92.1816C231.507 91.9494 231.634 91.684 231.705 91.4014C231.828 90.906 231.773 90.3828 231.547 89.9244C231.322 89.4661 230.942 89.1023 230.473 88.8977L223.982 86.9099L204.433 75.5362L208.516 64.7806L199.979 60.2064L194.782 79.9867Z" fill="#FFB9B9"/>
<path d="M195.029 59.7118C200.349 61.7857 204.581 65.325 207.897 70.0965L218.29 55.014L210.866 41.415L195.029 59.7118Z" fill="#EA4848"/>
<path d="M242.718 16.1227C238.199 14.9591 233.755 14.7994 229.436 16.2752C226.684 17.6068 223.38 17.4841 219.705 16.387V5.28613L239.544 5.81475L242.718 16.1227Z" fill="#2F2E41"/>
<path d="M222.652 67.0229C221.777 67.0239 220.939 67.3714 220.321 67.9892C219.702 68.607 219.354 69.4446 219.354 70.3183L220.655 97.547C220.656 98.4207 221.004 99.2583 221.622 99.8761C222.241 100.494 223.079 100.841 223.953 100.842H238.837C239.711 100.841 240.55 100.494 241.168 99.8761C241.786 99.2583 242.134 98.4207 242.135 97.547L243.437 70.3183C243.436 69.4446 243.088 68.607 242.47 67.9892C241.851 67.3714 241.013 67.0239 240.139 67.0229H222.652Z" fill="#3F3D56"/>
<path d="M264.881 77.9297L240.508 87.6268L238.669 88.3585C238.61 88.3812 238.552 88.4007 238.49 88.4202L232.329 90.2315C231.541 90.4624 230.451 89.4023 229.813 88.6706C229.497 88.318 229.319 87.864 229.309 87.3909C229.299 86.9178 229.46 86.457 229.761 86.0919C229.846 85.9938 229.94 85.9035 230.041 85.822C230.279 85.6374 230.558 85.5145 230.855 85.4643L237.009 84.2546C237.23 84.2113 237.442 84.1322 237.637 84.0205L240.508 82.349L255.41 73.6795C255.824 73.4388 256.14 73.0589 256.3 72.6075C256.461 72.1561 256.455 71.6625 256.285 71.2146L253.441 63.719C253.267 63.2604 253.265 62.754 253.437 62.2945C253.609 61.8349 253.942 61.4535 254.375 61.2216L259.088 58.6982C259.357 58.5537 259.655 58.4722 259.961 58.4598C260.266 58.4474 260.57 58.5044 260.85 58.6265C261.131 58.7486 261.379 58.9326 261.578 59.1647C261.777 59.3968 261.92 59.6709 261.997 59.9664L266.088 75.5363C266.214 76.0138 266.16 76.5207 265.938 76.9616C265.716 77.4024 265.339 77.7468 264.881 77.9297Z" fill="#FFB9B9"/>
<path d="M266.296 56.9921C260.976 59.066 256.745 62.6053 253.429 67.3768L243.036 52.2943L250.459 38.2008L266.296 56.9921Z" fill="#EA4848"/>
<path d="M237.579 27.829C232.708 29.8537 227.6 29.7714 222.283 27.829C223.83 25.1904 221.517 23.1239 220.33 20.4603L240.183 19.8708C238.664 22.1848 236.424 24.9186 237.579 27.829Z" fill="white"/>
<path d="M239.972 20.3112L239.742 20.0813L240.067 19.7561L242.011 17.4889L242.259 17.7003L240.306 19.9766L239.972 20.3112Z" fill="white"/>
<path d="M218.97 18.9329L218.761 19.1829L220.714 20.8088L220.922 20.5589L218.97 18.9329Z" fill="white"/>
<path d="M240.533 22.2229L237.115 27.588L237.39 27.7627L240.808 22.3976L240.533 22.2229Z" fill="white"/>
<path d="M219.328 22.2226L219.054 22.3972L222.471 27.7628L222.746 27.5882L219.328 22.2226Z" fill="white"/>
<path d="M241.159 81.889V87.7803L239.106 88.597C239.041 88.6224 238.976 88.6442 238.907 88.666L232.03 90.6878C231.151 90.9455 229.934 89.7622 229.222 88.9455C228.869 88.5519 228.669 88.0451 228.659 87.517C228.648 86.9889 228.827 86.4745 229.163 86.067C229.258 85.9575 229.363 85.8567 229.476 85.7657C229.741 85.5596 230.053 85.4224 230.384 85.3664L237.254 84.0161C237.5 83.9678 237.737 83.8795 237.955 83.7548L241.159 81.889Z" fill="white"/>
<path d="M244.133 60.8756H242.957C242.957 44.2551 239.532 32.6726 236.195 32.6726L235.901 31.4974C238.894 31.4974 240.802 36.318 241.876 40.3621C243.332 45.8446 244.133 53.1297 244.133 60.8756Z" fill="#3F3D56"/>
<path d="M217.083 56.7627H215.907C215.907 41.5409 219.356 32.085 224.434 32.085L224.14 33.2601C220.627 33.2601 217.083 40.5273 217.083 56.7627Z" fill="#3F3D56"/>
<path d="M243.545 64.1072C245.169 64.1072 246.485 62.7919 246.485 61.1694C246.485 59.5469 245.169 58.2316 243.545 58.2316C241.921 58.2316 240.605 59.5469 240.605 61.1694C240.605 62.7919 241.921 64.1072 243.545 64.1072Z" fill="#3F3D56"/>
<path d="M212.379 63.8134H211.203C211.203 59.6016 213.577 56.175 216.495 56.175V57.3502C214.226 57.3502 212.379 60.2496 212.379 63.8134Z" fill="#3F3D56"/>
<path d="M221.787 63.8134H220.611C220.611 60.2496 218.765 57.3502 216.495 57.3502V56.175C219.413 56.175 221.787 59.6016 221.787 63.8134Z" fill="#3F3D56"/>
<path d="M221.2 65.2824C221.849 65.2824 222.376 64.7563 222.376 64.1073C222.376 63.4583 221.849 62.9321 221.2 62.9321C220.55 62.9321 220.023 63.4583 220.023 64.1073C220.023 64.7563 220.55 65.2824 221.2 65.2824Z" fill="#3F3D56"/>
<path d="M211.791 65.2824C212.441 65.2824 212.967 64.7563 212.967 64.1073C212.967 63.4583 212.441 62.9321 211.791 62.9321C211.142 62.9321 210.615 63.4583 210.615 64.1073C210.615 64.7563 211.142 65.2824 211.791 65.2824Z" fill="#3F3D56"/>
<path d="M70.0602 24.6158L49.4051 28.1108C48.8949 28.1978 48.3705 28.0925 47.9334 27.8154C47.4963 27.5384 47.1777 27.1091 47.0391 26.6108C45.5468 21.2291 42.4268 14.2085 45.456 10.6842C45.6103 9.20158 46.331 7.83551 47.468 6.87042C48.6049 5.90532 50.0706 5.41556 51.5599 5.50309C55.2498 -0.268109 61.3958 0.598401 65.5497 4.20277C69.7303 5.64411 71.3064 8.20474 70.7552 11.6796C72.5612 13.2592 73.5081 15.0384 73.7077 16.9912C73.8024 18.0779 73.664 19.1723 73.3018 20.2013C72.9396 21.2303 72.362 22.1704 71.6074 22.9586L70.0602 24.6158Z" fill="#2F2E41"/>
<path d="M66.8487 40.8638L50.8364 39.9227C52.4057 36.3239 53.0325 32.8584 52.4063 29.5702H64.337C64.31 32.0949 65.5674 36.4622 66.8487 40.8638Z" fill="#9F616A"/>
<path d="M47.5745 188.702L46.9178 197.673C46.888 198.08 46.9456 198.487 47.0864 198.869C47.2273 199.251 47.4484 199.599 47.7347 199.889C48.021 200.178 48.3661 200.403 48.7466 200.549C49.1272 200.695 49.5345 200.757 49.9412 200.732L54.5529 200.453C54.7666 200.44 54.9748 200.381 55.1627 200.278C55.3507 200.176 55.5137 200.033 55.6403 199.861C55.7668 199.688 55.8538 199.49 55.8951 199.28C55.9363 199.07 55.9308 198.854 55.8789 198.646L53.319 188.415L47.5745 188.702Z" fill="#E6E6E6"/>
<path d="M62.5043 188.415L59.9444 198.646C59.8925 198.854 59.8869 199.07 59.9282 199.28C59.9694 199.49 60.0564 199.688 60.183 199.861C60.3095 200.033 60.4726 200.176 60.6605 200.278C60.8484 200.381 61.0566 200.44 61.2703 200.453L65.882 200.732C66.2888 200.757 66.6961 200.695 67.0766 200.549C67.4572 200.403 67.8022 200.178 68.0885 199.889C68.3749 199.599 68.5959 199.251 68.7368 198.869C68.8777 198.487 68.9352 198.08 68.9055 197.673L68.2487 188.702L62.5043 188.415Z" fill="#E6E6E6"/>
<path d="M68.5467 189.948L62.3234 189.324L56.1275 123.149L53.7858 189.111L47.6716 188.892L37.3662 97.5378H76.7382L68.5467 189.948Z" fill="#EA4848"/>
<path d="M58.6863 33.3785C65.2535 33.3785 70.5772 28.0591 70.5772 21.4972C70.5772 14.9354 65.2535 9.61597 58.6863 9.61597C52.1191 9.61597 46.7954 14.9354 46.7954 21.4972C46.7954 28.0591 52.1191 33.3785 58.6863 33.3785Z" fill="#9F616A"/>
<path d="M72.0877 15.8213C67.2616 14.9815 62.5166 14.8662 57.904 15.9314C54.9658 16.8925 51.4373 16.804 47.5132 16.0121V7.99988L68.6981 8.38141L72.0877 15.8213Z" fill="#2F2E41"/>
<path d="M66.5997 31.0304C61.3978 33.1924 55.9433 33.1046 50.2658 31.0304C51.9179 28.2128 49.4484 26.0061 48.1807 23.1618L69.38 22.5323C67.7588 25.0032 65.3667 27.9225 66.5997 31.0304Z" fill="white"/>
<path d="M46.7212 21.5392L46.5127 21.7892L48.5978 23.5253L48.8062 23.2754L46.7212 21.5392Z" fill="white"/>
<path d="M69.7642 25.0496L66.1143 30.7787L66.3889 30.9533L70.0388 25.2242L69.7642 25.0496Z" fill="white"/>
<path d="M47.1008 25.0494L46.8262 25.224L50.4752 30.9537L50.7499 30.779L47.1008 25.0494Z" fill="white"/>
<path d="M36.0796 75.6859L26.9746 70.039L34.7396 47.3153C35.6056 44.9705 37.2645 43.0018 39.4293 41.7495L42.045 40.2363L42.2725 63.1603L36.0796 75.6859Z" fill="#EA4848"/>
<path d="M75.4362 86.7223L74.0891 75.1936C74.0172 69.1085 75.0532 63.2252 77.5238 57.8043L78.7796 40.8639L64.9651 35.217C64.9227 35.4983 64.8867 35.7794 64.8463 36.0607L58.3718 39.2953L52.0575 37.8614L52.0925 35.8445L39.5338 41.4913C43.6869 60.784 41.4217 80.8186 34.2798 104.483L50.8247 109.003L50.9622 101.065L65.7073 100.013C65.8592 102.588 65.9812 105.118 66.0521 107.592C74.3723 110.652 74.6581 110.601 82.2388 106.219C79.2199 99.877 76.8296 93.2775 75.4362 86.7223Z" fill="#EA4848"/>
<path d="M96.6752 72.8624L88.1982 70.0391L74.6387 54.2666L78.7791 40.864L97.6171 67.2159L96.6752 72.8624Z" fill="#EA4848"/>
<path d="M70.1084 85.0733C70.2471 85.6815 70.6215 86.2099 71.1495 86.5427C71.6776 86.8754 72.3161 86.9854 72.9252 86.8485L80.1211 85.2202L79.0811 80.6307L71.885 82.2587C71.2759 82.3966 70.7466 82.7706 70.4134 83.2984C70.0803 83.8262 69.9705 84.4646 70.1084 85.0733V85.0733Z" fill="#E6E6E6"/>
<path d="M76.5815 79.7641L80.6631 87.2932C87.5282 85.38 93.4779 79.3486 99.1871 72.235L97.6173 67.2156L87.8843 69.7253L76.5815 79.7641Z" fill="#EA4848"/>
<path d="M23.3643 56.1471L31.1998 57.5451L49.1097 82.99L39.5951 80.753L23.3643 56.1471Z" fill="#E6E6E6"/>
<path d="M21.9743 55.8357C21.8549 55.8375 21.7382 55.8713 21.6363 55.9336C21.5345 55.9959 21.4513 56.0844 21.3954 56.1899C21.3395 56.2953 21.313 56.4138 21.3186 56.533C21.3243 56.6522 21.3619 56.7677 21.4275 56.8674L38.1684 82.247C38.2618 82.3889 38.4061 82.4896 38.5716 82.5284L46.3607 84.3595C46.492 84.3904 46.6296 84.3806 46.7553 84.3316C46.881 84.2825 46.9887 84.1964 47.0643 84.0847C47.1399 83.9731 47.1797 83.8411 47.1784 83.7063C47.1772 83.5715 47.1349 83.4402 47.0573 83.33L28.6767 57.2163C28.6269 57.1452 28.5635 57.0845 28.4902 57.0379C28.4169 56.9912 28.3351 56.9595 28.2495 56.9444L22.0998 55.847C22.0584 55.8396 22.0164 55.8358 21.9743 55.8357Z" fill="#3F3D56"/>
<path d="M32.4175 73.9818L32.8828 78.6645L40.2248 77.9363C40.8463 77.8747 41.4178 77.5689 41.8136 77.0862C42.2095 76.6035 42.3972 75.9835 42.3355 75.3626C42.2738 74.7416 41.9678 74.1705 41.4847 73.775C41.0017 73.3795 40.3812 73.1919 39.7597 73.2536L32.4175 73.9818Z" fill="#E6E6E6"/>
<path d="M26.0332 73.4394C26.0439 75.0361 26.6857 76.5639 27.8188 77.6898C28.9519 78.8158 30.4844 79.4486 32.0824 79.4504H33.2897L34.1686 72.132L26.8914 69.5143L26.0332 73.4394Z" fill="#EA4848"/>
<path d="M68.7999 23.3419L68.5698 23.112L68.9174 22.7647L70.9941 20.343L71.2411 20.5544L69.156 22.9852L68.7999 23.3419Z" fill="white"/>
<path d="M289 200.35H0V201H289V200.35Z" fill="#3F3D56"/>
<path opacity="0.2" d="M169.554 191.957C169.484 192.671 169.158 193.336 168.636 193.828C168.057 194.37 167.287 194.661 166.494 194.638C165.702 194.615 164.95 194.279 164.405 193.704L160.878 189.965L160.654 190.175L164.392 194.137C164.938 194.712 165.689 195.048 166.482 195.072C167.274 195.095 168.044 194.804 168.623 194.262C168.935 193.967 169.179 193.609 169.34 193.211C169.501 192.813 169.574 192.385 169.554 191.957Z" fill="black"/>
</svg>
