<svg width="471" height="311" viewBox="0 0 471 311" fill="none" xmlns="http://www.w3.org/2000/svg">
<path opacity="0.1" d="M0.902873 145.411H44.533V204.888H4.09301C3.98983 205.502 3.88664 206.113 3.77056 206.728H44.533V254.686C44.4642 254.686 44.3954 254.634 44.3309 254.608C43.1844 254.152 42.0379 253.669 40.8914 253.159C40.6464 253.047 40.4056 252.931 40.1562 252.824C39.0097 252.282 37.8632 251.709 36.7167 251.104C36.3169 250.893 35.917 250.674 35.5258 250.45C29.1609 246.899 23.3759 242.395 18.3713 237.096C18.2208 236.954 18.0832 236.799 17.9413 236.666C17.2448 235.909 16.5612 235.144 15.8991 234.361C15.6497 234.073 15.409 233.781 15.1639 233.501C14.3814 232.547 13.6247 231.558 12.8938 230.565C12.7821 230.414 12.6789 230.268 12.5714 230.135C9.57729 225.991 7.09435 221.502 5.17646 216.763C5.11626 216.621 5.06037 216.466 5.00448 216.333C4.41117 214.828 3.87374 213.302 3.40941 211.745C3.21164 211.096 3.01817 210.456 2.85479 209.781C2.7946 209.587 2.74731 209.389 2.69571 209.196C0.279462 199.672 0 189.774 0 179.924C0 178.777 0 177.631 0 176.484C0.0343951 172.463 0.081689 168.446 0.14188 164.433C0.16481 163.401 0.186308 162.364 0.206372 161.324C0.266563 158.69 0.35255 156.05 0.464334 153.404C0.49013 152.673 0.524527 151.938 0.563221 151.211C0.580419 150.79 0.601916 150.369 0.627713 149.947C0.705101 148.425 0.796821 146.913 0.902873 145.411Z" fill="#EA4848"/>
<path opacity="0.1" d="M44.533 79.1887H20.5984C24.4909 73.1026 28.7418 67.2534 33.3289 61.6721C36.8887 57.3037 40.6378 53.0471 44.533 48.9453V79.1887Z" fill="#EA4848"/>
<path opacity="0.1" d="M44.5331 81.0205V143.571H1.04053C1.04053 143.391 1.06632 143.206 1.08352 143.025C1.12221 142.531 1.16091 142.04 1.2039 141.546C1.2469 140.97 1.30279 140.394 1.35868 139.826C1.41457 139.259 1.47046 138.571 1.53925 137.947C1.60804 137.324 1.66394 136.692 1.73273 136.068C1.80152 135.445 1.87031 134.821 1.9477 134.202C2.02509 133.583 2.09387 132.955 2.17986 132.336C2.24435 131.825 2.30884 131.309 2.38193 130.793C2.48082 130.066 2.584 129.339 2.69149 128.617C2.69149 128.505 2.72588 128.398 2.74308 128.29C3.52885 123.003 4.59662 117.762 5.94182 112.588C7.35447 107.162 9.15775 101.845 11.3375 96.6797C13.6538 91.2671 16.3669 86.0331 19.4548 81.0205H44.5331Z" fill="#EA4848"/>
<path opacity="0.1" d="M54.9548 145.411V204.888H148.148V145.411H54.9548ZM54.9548 206.728V257.807C55.488 257.915 56.0125 258.022 56.5413 258.113C57.2507 258.25 57.9644 258.375 58.691 258.482L59.1209 258.543C59.4047 258.59 59.6928 258.628 59.9808 258.663C60.6988 258.766 61.4168 258.843 62.1305 258.912C62.4659 258.947 62.8141 258.972 63.1538 259.003L63.9835 259.063C64.435 259.097 64.8821 259.123 65.3292 259.14C65.6044 259.14 65.8796 259.162 66.159 259.17C66.4385 259.179 66.589 259.17 66.8125 259.17H67.6251C67.9949 259.17 68.3646 259.17 68.7301 259.17H69.203C69.5727 259.17 69.9425 259.17 70.3079 259.136H70.3294C70.5874 259.136 70.841 259.136 71.099 259.106C71.172 259.11 71.2452 259.11 71.3183 259.106C71.5332 259.106 71.7482 259.106 71.9546 259.08C72.0032 259.076 72.0521 259.076 72.1008 259.08C72.578 259.05 73.0595 259.011 73.5454 258.968C74.0312 258.925 74.4912 258.874 74.9771 258.822L75.953 258.702C79.9411 258.143 83.8848 257.304 87.7548 256.191C96.4525 253.766 104.952 250.373 113.646 247.892C124.876 244.689 137.292 243.111 148.144 247.011V206.728H54.9548ZM148.148 79.1888V0.00724769C137.946 -0.105003 127.772 1.08704 117.872 3.55442C94.2727 9.48358 73.081 22.3437 54.9548 38.7682V79.1845H59.6455V81.0204H54.9548V143.571H148.148V81.0204H78.8336V79.1802L148.148 79.1888ZM267.877 52.4409C262.039 52.2346 256.235 50.39 250.981 47.5308C240.946 42.0746 232.923 33.6388 223.964 26.5272C205.347 11.7065 182.26 2.75899 158.574 0.540399V79.1888H291.601L291.932 78.8405L267.877 52.4409ZM279.997 50.2911L292.848 64.3981V46.5806C288.523 47.1266 284.757 48.395 279.997 50.2739V50.2911ZM292.848 270.491V206.728H265.444C265.375 206.457 265.298 206.182 265.212 205.907C265.293 206.182 265.367 206.457 265.44 206.728H158.574V252.837C159.589 253.589 160.591 254.385 161.584 255.185C162.656 256.062 163.721 256.949 164.778 257.846L165.844 258.727C166.356 259.157 166.876 259.587 167.392 259.996C168.427 260.83 169.469 261.655 170.518 262.472C171.042 262.885 171.57 263.291 172.1 263.689C180.498 270.107 189.355 275.9 198.601 281.021C200.674 282.177 202.768 283.291 204.874 284.379C206.276 285.101 207.687 285.809 209.109 286.503C211.242 287.543 213.391 288.547 215.558 289.513C235.536 298.481 256.661 304.633 278.329 307.794C283.139 308.502 287.97 309.061 292.822 309.471V270.483H293.252L292.848 270.491ZM158.574 81.0204V143.571H292.848V81.0204H158.574ZM158.574 145.403V204.888H292.848V145.411L158.574 145.403ZM303.27 46.4946V66.4017L319.668 48.3993C314.233 47.5021 308.767 46.8672 303.27 46.4946ZM303.27 145.411V204.888H433.864V145.411H303.27ZM433.404 275.208L433.864 206.728H303.27V310.164C311.682 310.513 320.106 310.411 328.507 309.858H328.653C332.666 309.6 336.66 309.233 340.636 308.758H340.726C361.942 306.288 382.685 300.747 402.306 292.307L433.404 275.208ZM459.058 155.18C458.562 154.033 458.053 152.887 457.532 151.74C456.56 149.591 455.537 147.501 454.479 145.416H444.29V204.888H470.047C470.026 188.042 465.761 170.843 459.058 155.18ZM444.29 206.728V265.633C451.543 258.68 457.678 250.722 462.089 241.624C467.399 230.664 469.828 218.806 470.03 206.724L444.29 206.728ZM444.29 128.08V143.558H453.525C450.725 138.237 447.642 133.07 444.29 128.08ZM355.722 58.168C355.043 57.9057 354.359 57.6435 353.676 57.3941C346.468 54.7301 339.102 52.5158 331.62 50.7641L306.52 78.3074L306.03 78.8362L306.353 79.1845H395.685C383.243 70.6223 369.828 63.5674 355.722 58.168ZM398.308 81.0204H305.101L303.27 82.693V143.571H319.328H433.864V114.076C423.507 101.551 411.553 90.4376 398.308 81.0204Z" fill="#EA4848"/>
<path opacity="0.1" d="M44.5331 112.575V143.571H1.04053C1.04053 143.39 1.06632 143.206 1.08352 143.025C1.12221 142.531 1.16091 142.04 1.2039 141.546C1.2469 140.97 1.30279 140.394 1.35868 139.826C1.41457 139.259 1.47046 138.571 1.53925 137.947C1.60804 137.324 1.66394 136.692 1.73273 136.068C1.80152 135.445 1.87031 134.821 1.9477 134.202C2.02509 133.583 2.09387 132.955 2.17986 132.336C2.24435 131.825 2.30884 131.309 2.38193 130.793C2.48082 130.066 2.584 129.339 2.69149 128.617C2.69149 128.505 2.72588 128.398 2.74308 128.29C3.52885 123.003 4.59662 117.761 5.94182 112.588L44.5331 112.575Z" fill="#EA4848"/>
<path opacity="0.1" d="M0.902873 145.411H44.533V204.888H4.09301C3.98983 205.502 3.88664 206.113 3.77056 206.728H44.533V254.686C44.4642 254.686 44.3954 254.634 44.3309 254.608C43.1844 254.152 42.0379 253.669 40.8914 253.159C40.6464 253.047 40.4056 252.931 40.1562 252.824C39.0097 252.282 37.8632 251.709 36.7167 251.104C36.3169 250.893 35.917 250.674 35.5258 250.45C29.1609 246.899 23.3759 242.395 18.3713 237.096C18.2208 236.954 18.0832 236.799 17.9413 236.666C17.2448 235.909 16.5612 235.144 15.8991 234.361C15.6497 234.073 15.409 233.781 15.1639 233.501C14.3814 232.547 13.6247 231.558 12.8938 230.565C12.7821 230.414 12.6789 230.268 12.5714 230.135C9.57729 225.991 7.09435 221.502 5.17646 216.763C5.11626 216.621 5.06037 216.466 5.00448 216.333C4.41117 214.828 3.87374 213.302 3.40941 211.745C3.21164 211.096 3.01817 210.456 2.85479 209.781C2.7946 209.587 2.74731 209.389 2.69571 209.196C0.279462 199.672 0 189.774 0 179.924C0 178.777 0 177.631 0 176.484C0.0343951 172.463 0.081689 168.446 0.14188 164.433C0.16481 163.401 0.186308 162.364 0.206372 161.324C0.266563 158.69 0.35255 156.05 0.464334 153.404C0.49013 152.673 0.524527 151.938 0.563221 151.211C0.580419 150.79 0.601916 150.369 0.627713 149.947C0.705101 148.425 0.796821 146.913 0.902873 145.411Z" fill="#EA4848"/>
<path opacity="0.1" d="M87.759 89.9808V143.571H54.9504V89.9808H59.6282V71.8364H78.8292V89.9808H87.759Z" fill="#EA4848"/>
<path opacity="0.1" d="M87.7547 145.407H54.9504V204.883H87.7547V145.407Z" fill="#EA4848"/>
<path opacity="0.1" d="M54.9548 206.728H87.7591V256.173C83.8895 257.288 79.9457 258.125 75.9573 258.68C75.6305 258.727 75.3081 258.766 74.9813 258.8C74.4998 258.856 74.0226 258.908 73.5453 258.951L72.1051 259.067H71.9589L71.3226 259.101H71.1033C70.8453 259.101 70.5917 259.132 70.3337 259.136H70.3122C69.9425 259.136 69.577 259.162 69.2073 259.17H68.7343C68.3689 259.17 68.0035 259.17 67.6294 259.17H66.8211H66.1633C65.8839 259.17 65.6087 259.17 65.3292 259.136C64.8878 259.119 64.4407 259.093 63.9878 259.058L63.158 258.998C62.8141 258.972 62.4701 258.938 62.1305 258.904C61.4082 258.841 60.6916 258.759 59.9808 258.659L59.1209 258.538L58.691 258.478C57.973 258.37 57.2593 258.25 56.5413 258.112C56.0082 258.018 55.4837 257.91 54.9548 257.799V206.728Z" fill="#EA4848"/>
<path opacity="0.1" d="M75.9874 94.1987H63.76V106.427H75.9874V94.1987Z" fill="#EA4848"/>
<path opacity="0.1" d="M75.9874 122.602H63.76V134.83H75.9874V122.602Z" fill="#EA4848"/>
<path opacity="0.1" d="M75.9874 151.005H63.76V163.233H75.9874V151.005Z" fill="#EA4848"/>
<path opacity="0.1" d="M75.9874 179.404H63.76V191.632H75.9874V179.404Z" fill="#EA4848"/>
<path opacity="0.1" d="M75.9874 207.807H63.76V220.035H75.9874V207.807Z" fill="#EA4848"/>
<path opacity="0.1" d="M2.69141 128.277V135.273H44.533V128.277H2.69141ZM6.85751 134.834H3.418V128.72H6.85751V134.834ZM11.0236 134.834H7.5841V128.72H11.0236V134.834ZM15.1811 134.834H11.7416V128.72H15.1811V134.834ZM19.3472 134.834H15.9077V128.72H19.3472V134.834ZM23.509 134.834H20.0695V128.72H23.509V134.834ZM27.6751 134.834H24.2356V128.72H27.6751V134.834ZM31.8412 134.834H28.4017V128.72H31.8412V134.834ZM36.003 134.834H32.5635V128.72H36.003V134.834ZM40.1648 134.834H36.7253V128.72H40.1648V134.834ZM44.3309 134.834H40.8914V128.72H44.3309V134.834Z" fill="#EA4848"/>
<path opacity="0.1" d="M2.69141 148.64V155.636H44.533V148.64H2.69141ZM6.85751 155.197H3.418V149.083H6.85751V155.197ZM11.0236 155.197H7.5841V149.083H11.0236V155.197ZM15.1811 155.197H11.7416V149.083H15.1811V155.197ZM19.3472 155.197H15.9077V149.083H19.3472V155.197ZM23.509 155.197H20.0695V149.083H23.509V155.197ZM27.6751 155.197H24.2356V149.083H27.6751V155.197ZM31.8412 155.197H28.4017V149.083H31.8412V155.197ZM36.003 155.197H32.5635V149.083H36.003V155.197ZM40.1648 155.197H36.7253V149.083H40.1648V155.197ZM44.3309 155.197H40.8914V149.083H44.3309V155.197Z" fill="#EA4848"/>
<path opacity="0.1" d="M2.69141 169.008V175.999H44.533V169.008H2.69141ZM6.85751 175.556H3.418V169.442H6.85751V175.556ZM11.0236 175.556H7.5841V169.442H11.0236V175.556ZM15.1811 175.556H11.7416V169.442H15.1811V175.556ZM19.3472 175.556H15.9077V169.442H19.3472V175.556ZM23.509 175.556H20.0695V169.442H23.509V175.556ZM27.6751 175.556H24.2356V169.442H27.6751V175.556ZM31.8412 175.556H28.4017V169.442H31.8412V175.556ZM36.003 175.556H32.5635V169.442H36.003V175.556ZM40.1648 175.556H36.7253V169.442H40.1648V175.556ZM44.3309 175.556H40.8914V169.442H44.3309V175.556Z" fill="#EA4848"/>
<path opacity="0.1" d="M2.69141 189.371V196.362H44.533V189.371H2.69141ZM6.85751 195.923H3.418V189.801H6.85751V195.923ZM11.0236 195.923H7.5841V189.801H11.0236V195.923ZM15.1811 195.923H11.7416V189.801H15.1811V195.923ZM19.3472 195.923H15.9077V189.801H19.3472V195.923ZM23.509 195.923H20.0695V189.801H23.509V195.923ZM27.6751 195.923H24.2356V189.801H27.6751V195.923ZM31.8412 195.923H28.4017V189.801H31.8412V195.923ZM36.003 195.923H32.5635V189.801H36.003V195.923ZM40.1648 195.923H36.7253V189.801H40.1648V195.923ZM44.3309 195.923H40.8914V189.801H44.3309V195.923Z" fill="#EA4848"/>
<path opacity="0.1" d="M2.89355 209.725C3.05693 210.387 3.2504 211.04 3.44818 211.69V210.168H6.88768V216.277H5.04324C5.09484 216.424 5.15073 216.574 5.21092 216.707H44.5502V209.725H2.89355ZM11.0624 216.277H7.62287V210.168H11.0624V216.277ZM15.2199 216.277H11.7804V210.168H15.2199V216.277ZM19.386 216.277H15.9465V210.168H19.386V216.277ZM23.5478 216.277H20.1083V210.168H23.5478V216.277ZM27.7139 216.277H24.2744V210.168H27.7139V216.277ZM31.88 216.277H28.4405V210.168H31.88V216.277ZM36.0418 216.277H32.6023V210.168H36.0418V216.277ZM40.2036 216.277H36.7641V210.168H40.2036V216.277ZM44.3697 216.277H40.9302V210.168H44.3697V216.277Z" fill="#EA4848"/>
<path opacity="0.1" d="M12.5842 230.088C12.696 230.225 12.7992 230.38 12.9067 230.518H15.1811V233.454L15.9162 234.314V230.501H19.3558V236.666H17.9413C18.0788 236.808 18.2121 236.959 18.3712 237.096H44.5243V230.088H12.5842ZM23.5305 236.666H20.0909V230.526H23.5305V236.666ZM27.6966 236.666H24.2571V230.526H27.6966V236.666ZM31.8627 236.666H28.4232V230.526H31.8627V236.666ZM36.0245 236.666H32.585V230.526H36.0245V236.666ZM40.1863 236.666H36.7468V230.526H40.1863V236.666ZM44.3524 236.666H40.9129V230.526H44.3524V236.666Z" fill="#EA4848"/>
<path opacity="0.1" d="M292.844 270.474H293.274H292.844ZM265.212 205.907C265.293 206.182 265.366 206.457 265.439 206.728C265.375 206.457 265.298 206.182 265.212 205.907ZM59.6453 79.1888V81.0204H78.8506V79.1802L59.6453 79.1888ZM292.848 270.474H293.278H292.848ZM265.212 205.907C265.293 206.182 265.366 206.457 265.439 206.728C265.375 206.457 265.298 206.182 265.212 205.907ZM292.844 270.474H293.274H292.844ZM265.212 205.907C265.293 206.182 265.366 206.457 265.439 206.728C265.375 206.457 265.298 206.182 265.212 205.907Z" fill="#EA4848"/>
</svg>
