<svg width="162" height="105" viewBox="0 0 162 105" fill="none" xmlns="http://www.w3.org/2000/svg">
<path d="M13.0938 7.30707C13.0938 3.7355 10.1984 0.840147 6.62686 0.840147C3.0553 0.840147 0.159973 3.7355 0.159973 7.30707C0.159973 10.8786 3.0553 13.7739 6.62686 13.7739C10.1984 13.7739 13.0938 10.8786 13.0938 7.30707Z" fill="#EEEEEE"/>
<path d="M13.0938 33.08C13.0938 29.5085 10.1984 26.6131 6.62686 26.6131C3.0553 26.6131 0.159973 29.5085 0.159973 33.08C0.159973 36.6516 3.0553 39.5469 6.62686 39.5469C10.1984 39.5469 13.0938 36.6516 13.0938 33.08Z" fill="#EEEEEE"/>
<path d="M13.0938 58.8535C13.0938 55.2819 10.1984 52.3865 6.62686 52.3865C3.0553 52.3865 0.159973 55.2819 0.159973 58.8535C0.159973 62.425 3.0553 65.3203 6.62686 65.3203C10.1984 65.3203 13.0938 62.425 13.0938 58.8535Z" fill="#EEEEEE"/>
<path d="M13.0938 84.6268C13.0938 81.0553 10.1984 78.16 6.62686 78.16C3.0553 78.16 0.159973 81.0553 0.159973 84.6268C0.159973 88.1984 3.0553 91.0938 6.62686 91.0938C10.1984 91.0938 13.0938 88.1984 13.0938 84.6268Z" fill="#EEEEEE"/>
<path d="M40.0938 7.30707C40.0938 3.7355 37.1984 0.840147 33.6269 0.840147C30.0553 0.840147 27.16 3.7355 27.16 7.30707C27.16 10.8786 30.0553 13.7739 33.6269 13.7739C37.1984 13.7739 40.0938 10.8786 40.0938 7.30707Z" fill="#EEEEEE"/>
<path d="M40.0938 33.08C40.0938 29.5085 37.1984 26.6131 33.6269 26.6131C30.0553 26.6131 27.16 29.5085 27.16 33.08C27.16 36.6516 30.0553 39.5469 33.6269 39.5469C37.1984 39.5469 40.0938 36.6516 40.0938 33.08Z" fill="#EEEEEE"/>
<path d="M40.0938 58.8535C40.0938 55.2819 37.1984 52.3865 33.6269 52.3865C30.0553 52.3865 27.16 55.2819 27.16 58.8535C27.16 62.425 30.0553 65.3203 33.6269 65.3203C37.1984 65.3203 40.0938 62.425 40.0938 58.8535Z" fill="#EEEEEE"/>
<path d="M40.0938 84.6268C40.0938 81.0553 37.1984 78.16 33.6269 78.16C30.0553 78.16 27.16 81.0553 27.16 84.6268C27.16 88.1984 30.0553 91.0938 33.6269 91.0938C37.1984 91.0938 40.0938 88.1984 40.0938 84.6268Z" fill="#EEEEEE"/>
<path d="M67.0938 7.30707C67.0938 3.7355 64.1984 0.840147 60.6269 0.840147C57.0553 0.840147 54.16 3.7355 54.16 7.30707C54.16 10.8786 57.0553 13.7739 60.6269 13.7739C64.1984 13.7739 67.0938 10.8786 67.0938 7.30707Z" fill="#EEEEEE"/>
<path d="M67.0938 33.08C67.0938 29.5085 64.1984 26.6131 60.6269 26.6131C57.0553 26.6131 54.16 29.5085 54.16 33.08C54.16 36.6516 57.0553 39.5469 60.6269 39.5469C64.1984 39.5469 67.0938 36.6516 67.0938 33.08Z" fill="#EEEEEE"/>
<path d="M67.0938 58.8535C67.0938 55.2819 64.1984 52.3865 60.6269 52.3865C57.0553 52.3865 54.16 55.2819 54.16 58.8535C54.16 62.425 57.0553 65.3203 60.6269 65.3203C64.1984 65.3203 67.0938 62.425 67.0938 58.8535Z" fill="#EEEEEE"/>
<path d="M67.0938 84.6268C67.0938 81.0553 64.1984 78.16 60.6269 78.16C57.0553 78.16 54.16 81.0553 54.16 84.6268C54.16 88.1984 57.0553 91.0938 60.6269 91.0938C64.1984 91.0938 67.0938 88.1984 67.0938 84.6268Z" fill="#EEEEEE"/>
<path d="M94.0938 7.30707C94.0938 3.7355 91.1984 0.840147 87.6269 0.840147C84.0553 0.840147 81.16 3.7355 81.16 7.30707C81.16 10.8786 84.0553 13.7739 87.6269 13.7739C91.1984 13.7739 94.0938 10.8786 94.0938 7.30707Z" fill="#EEEEEE"/>
<path d="M94.0938 33.08C94.0938 29.5085 91.1984 26.6131 87.6269 26.6131C84.0553 26.6131 81.16 29.5085 81.16 33.08C81.16 36.6516 84.0553 39.5469 87.6269 39.5469C91.1984 39.5469 94.0938 36.6516 94.0938 33.08Z" fill="#EEEEEE"/>
<path d="M94.0938 58.8535C94.0938 55.2819 91.1984 52.3865 87.6269 52.3865C84.0553 52.3865 81.16 55.2819 81.16 58.8535C81.16 62.425 84.0553 65.3203 87.6269 65.3203C91.1984 65.3203 94.0938 62.425 94.0938 58.8535Z" fill="#EEEEEE"/>
<path d="M94.0938 84.6268C94.0938 81.0553 91.1984 78.16 87.6269 78.16C84.0553 78.16 81.16 81.0553 81.16 84.6268C81.16 88.1984 84.0553 91.0938 87.6269 91.0938C91.1984 91.0938 94.0938 88.1984 94.0938 84.6268Z" fill="#EEEEEE"/>
<path d="M121.094 7.30707C121.094 3.7355 118.198 0.840147 114.627 0.840147C111.055 0.840147 108.16 3.7355 108.16 7.30707C108.16 10.8786 111.055 13.7739 114.627 13.7739C118.198 13.7739 121.094 10.8786 121.094 7.30707Z" fill="#EEEEEE"/>
<path d="M121.094 33.08C121.094 29.5085 118.198 26.6131 114.627 26.6131C111.055 26.6131 108.16 29.5085 108.16 33.08C108.16 36.6516 111.055 39.5469 114.627 39.5469C118.198 39.5469 121.094 36.6516 121.094 33.08Z" fill="#EEEEEE"/>
<path d="M121.094 58.8535C121.094 55.2819 118.198 52.3865 114.627 52.3865C111.055 52.3865 108.16 55.2819 108.16 58.8535C108.16 62.425 111.055 65.3203 114.627 65.3203C118.198 65.3203 121.094 62.425 121.094 58.8535Z" fill="#EEEEEE"/>
<path d="M121.094 84.6268C121.094 81.0553 118.198 78.16 114.627 78.16C111.055 78.16 108.16 81.0553 108.16 84.6268C108.16 88.1984 111.055 91.0938 114.627 91.0938C118.198 91.0938 121.094 88.1984 121.094 84.6268Z" fill="#EEEEEE"/>
<path d="M148.094 7.30707C148.094 3.7355 145.198 0.840147 141.627 0.840147C138.055 0.840147 135.16 3.7355 135.16 7.30707C135.16 10.8786 138.055 13.7739 141.627 13.7739C145.198 13.7739 148.094 10.8786 148.094 7.30707Z" fill="#EEEEEE"/>
<path d="M148.094 33.08C148.094 29.5085 145.198 26.6131 141.627 26.6131C138.055 26.6131 135.16 29.5085 135.16 33.08C135.16 36.6516 138.055 39.5469 141.627 39.5469C145.198 39.5469 148.094 36.6516 148.094 33.08Z" fill="#EEEEEE"/>
<path d="M148.094 58.8535C148.094 55.2819 145.198 52.3865 141.627 52.3865C138.055 52.3865 135.16 55.2819 135.16 58.8535C135.16 62.425 138.055 65.3203 141.627 65.3203C145.198 65.3203 148.094 62.425 148.094 58.8535Z" fill="#EEEEEE"/>
<path d="M148.094 84.6268C148.094 81.0553 145.198 78.16 141.627 78.16C138.055 78.16 135.16 81.0553 135.16 84.6268C135.16 88.1984 138.055 91.0938 141.627 91.0938C145.198 91.0938 148.094 88.1984 148.094 84.6268Z" fill="#EEEEEE"/>
<path d="M26.9338 20.4672C26.9338 16.8957 24.0385 14.0003 20.4669 14.0003C16.8953 14.0003 14 16.8957 14 20.4672C14 24.0388 16.8953 26.9341 20.4669 26.9341C24.0385 26.9341 26.9338 24.0388 26.9338 20.4672Z" fill="#EEEEEE"/>
<path d="M26.9338 46.2402C26.9338 42.6686 24.0385 39.7733 20.4669 39.7733C16.8953 39.7733 14 42.6686 14 46.2402C14 49.8117 16.8953 52.707 20.4669 52.707C24.0385 52.707 26.9338 49.8117 26.9338 46.2402Z" fill="#EEEEEE"/>
<path d="M26.9338 72.0136C26.9338 68.442 24.0385 65.5467 20.4669 65.5467C16.8953 65.5467 14 68.442 14 72.0136C14 75.5852 16.8953 78.4805 20.4669 78.4805C24.0385 78.4805 26.9338 75.5852 26.9338 72.0136Z" fill="#EEEEEE"/>
<path d="M26.9338 97.787C26.9338 94.2154 24.0385 91.3201 20.4669 91.3201C16.8953 91.3201 14 94.2154 14 97.787C14 101.359 16.8953 104.254 20.4669 104.254C24.0385 104.254 26.9338 101.359 26.9338 97.787Z" fill="#EEEEEE"/>
<path d="M53.9338 20.4672C53.9338 16.8957 51.0385 14.0003 47.4669 14.0003C43.8953 14.0003 41 16.8957 41 20.4672C41 24.0388 43.8953 26.9341 47.4669 26.9341C51.0385 26.9341 53.9338 24.0388 53.9338 20.4672Z" fill="#EEEEEE"/>
<path d="M53.9338 46.2402C53.9338 42.6686 51.0385 39.7733 47.4669 39.7733C43.8953 39.7733 41 42.6686 41 46.2402C41 49.8117 43.8953 52.707 47.4669 52.707C51.0385 52.707 53.9338 49.8117 53.9338 46.2402Z" fill="#EEEEEE"/>
<path d="M53.9338 72.0136C53.9338 68.442 51.0385 65.5467 47.4669 65.5467C43.8953 65.5467 41 68.442 41 72.0136C41 75.5852 43.8953 78.4805 47.4669 78.4805C51.0385 78.4805 53.9338 75.5852 53.9338 72.0136Z" fill="#EEEEEE"/>
<path d="M53.9338 97.787C53.9338 94.2154 51.0385 91.3201 47.4669 91.3201C43.8953 91.3201 41 94.2154 41 97.787C41 101.359 43.8953 104.254 47.4669 104.254C51.0385 104.254 53.9338 101.359 53.9338 97.787Z" fill="#EEEEEE"/>
<path d="M80.9338 20.4672C80.9338 16.8957 78.0385 14.0003 74.4669 14.0003C70.8953 14.0003 68 16.8957 68 20.4672C68 24.0388 70.8953 26.9341 74.4669 26.9341C78.0385 26.9341 80.9338 24.0388 80.9338 20.4672Z" fill="#EEEEEE"/>
<path d="M80.9338 46.2402C80.9338 42.6686 78.0385 39.7733 74.4669 39.7733C70.8953 39.7733 68 42.6686 68 46.2402C68 49.8117 70.8953 52.707 74.4669 52.707C78.0385 52.707 80.9338 49.8117 80.9338 46.2402Z" fill="#EEEEEE"/>
<path d="M80.9338 72.0136C80.9338 68.442 78.0385 65.5467 74.4669 65.5467C70.8953 65.5467 68 68.442 68 72.0136C68 75.5852 70.8953 78.4805 74.4669 78.4805C78.0385 78.4805 80.9338 75.5852 80.9338 72.0136Z" fill="#EEEEEE"/>
<path d="M80.9338 97.787C80.9338 94.2154 78.0385 91.3201 74.4669 91.3201C70.8953 91.3201 68 94.2154 68 97.787C68 101.359 70.8953 104.254 74.4669 104.254C78.0385 104.254 80.9338 101.359 80.9338 97.787Z" fill="#EEEEEE"/>
<path d="M107.934 20.4672C107.934 16.8957 105.038 14.0003 101.467 14.0003C97.8953 14.0003 95 16.8957 95 20.4672C95 24.0388 97.8953 26.9341 101.467 26.9341C105.038 26.9341 107.934 24.0388 107.934 20.4672Z" fill="#EEEEEE"/>
<path d="M107.934 46.2402C107.934 42.6686 105.038 39.7733 101.467 39.7733C97.8953 39.7733 95 42.6686 95 46.2402C95 49.8117 97.8953 52.707 101.467 52.707C105.038 52.707 107.934 49.8117 107.934 46.2402Z" fill="#EEEEEE"/>
<path d="M107.934 72.0136C107.934 68.442 105.038 65.5467 101.467 65.5467C97.8953 65.5467 95 68.442 95 72.0136C95 75.5852 97.8953 78.4805 101.467 78.4805C105.038 78.4805 107.934 75.5852 107.934 72.0136Z" fill="#EEEEEE"/>
<path d="M107.934 97.787C107.934 94.2154 105.038 91.3201 101.467 91.3201C97.8953 91.3201 95 94.2154 95 97.787C95 101.359 97.8953 104.254 101.467 104.254C105.038 104.254 107.934 101.359 107.934 97.787Z" fill="#EEEEEE"/>
<path d="M134.934 20.4672C134.934 16.8957 132.038 14.0003 128.467 14.0003C124.895 14.0003 122 16.8957 122 20.4672C122 24.0388 124.895 26.9341 128.467 26.9341C132.038 26.9341 134.934 24.0388 134.934 20.4672Z" fill="#EEEEEE"/>
<path d="M134.934 46.2402C134.934 42.6686 132.038 39.7733 128.467 39.7733C124.895 39.7733 122 42.6686 122 46.2402C122 49.8117 124.895 52.707 128.467 52.707C132.038 52.707 134.934 49.8117 134.934 46.2402Z" fill="#EEEEEE"/>
<path d="M134.934 72.0136C134.934 68.442 132.038 65.5467 128.467 65.5467C124.895 65.5467 122 68.442 122 72.0136C122 75.5852 124.895 78.4805 128.467 78.4805C132.038 78.4805 134.934 75.5852 134.934 72.0136Z" fill="#EEEEEE"/>
<path d="M134.934 97.787C134.934 94.2154 132.038 91.3201 128.467 91.3201C124.895 91.3201 122 94.2154 122 97.787C122 101.359 124.895 104.254 128.467 104.254C132.038 104.254 134.934 101.359 134.934 97.787Z" fill="#EEEEEE"/>
<path d="M161.934 20.4672C161.934 16.8957 159.038 14.0003 155.467 14.0003C151.895 14.0003 149 16.8957 149 20.4672C149 24.0388 151.895 26.9341 155.467 26.9341C159.038 26.9341 161.934 24.0388 161.934 20.4672Z" fill="#EEEEEE"/>
<path d="M161.934 46.2402C161.934 42.6686 159.038 39.7733 155.467 39.7733C151.895 39.7733 149 42.6686 149 46.2402C149 49.8117 151.895 52.707 155.467 52.707C159.038 52.707 161.934 49.8117 161.934 46.2402Z" fill="#EEEEEE"/>
<path d="M161.934 72.0136C161.934 68.442 159.038 65.5467 155.467 65.5467C151.895 65.5467 149 68.442 149 72.0136C149 75.5852 151.895 78.4805 155.467 78.4805C159.038 78.4805 161.934 75.5852 161.934 72.0136Z" fill="#EEEEEE"/>
<path d="M161.934 97.787C161.934 94.2154 159.038 91.3201 155.467 91.3201C151.895 91.3201 149 94.2154 149 97.787C149 101.359 151.895 104.254 155.467 104.254C159.038 104.254 161.934 101.359 161.934 97.787Z" fill="#EEEEEE"/>
</svg>
