<svg width="260" height="223" viewBox="0 0 260 223" fill="none" xmlns="http://www.w3.org/2000/svg">
<path d="M189.419 0H188.797C164.062 0 142.186 11.6598 129.603 28.8653C117.02 11.6598 95.1446 0 70.4093 0H69.7876C51.2245 0.157588 33.4812 6.83493 20.4136 18.581C7.34597 30.327 0.0100771 46.1925 0 62.7298C0 83.2656 10.0964 112.404 29.7834 136.381C67.2925 182.068 129.603 222.039 129.603 222.039C129.603 222.039 191.914 182.075 229.415 136.381C249.11 112.404 259.198 83.2656 259.198 62.7298C259.188 46.1938 251.853 30.3294 238.787 18.5835C225.722 6.83772 207.98 0.159521 189.419 0ZM180.524 139.896C177.707 139.886 174.959 139.118 172.641 137.692C170.323 136.266 168.543 134.249 167.535 131.906H152.747C151.773 131.901 150.825 131.624 150.036 131.116C149.247 130.608 148.656 129.893 148.345 129.07L143.803 116.879L129.429 161.621C129.149 162.482 128.563 163.239 127.759 163.778C126.955 164.318 125.976 164.61 124.969 164.611H124.679C123.629 164.566 122.628 164.201 121.844 163.577C121.059 162.954 120.538 162.109 120.369 161.185L105.556 81.8182L94.7301 128.783C94.4818 129.675 93.9053 130.467 93.0925 131.033C92.2797 131.599 91.2774 131.907 90.2456 131.906H69.4146C68.7901 131.93 68.1668 131.84 67.5821 131.644C66.9973 131.447 66.4633 131.147 66.0121 130.762C65.5609 130.377 65.2019 129.914 64.9566 129.402C64.7113 128.89 64.5849 128.339 64.5849 127.782C64.5849 127.225 64.7113 126.674 64.9566 126.162C65.2019 125.65 65.5609 125.187 66.0121 124.802C66.4633 124.417 66.9973 124.117 67.5821 123.92C68.1668 123.723 68.7901 123.634 69.4146 123.658H86.5983L101.933 60.5145C102.185 59.5809 102.793 58.7542 103.653 58.1758C104.514 57.5973 105.573 57.303 106.649 57.3431C107.726 57.3832 108.754 57.7553 109.557 58.3957C110.36 59.0361 110.888 59.9051 111.052 60.8542L126.18 141.816L139.061 101.785C139.329 100.942 139.897 100.199 140.678 99.6668C141.459 99.1345 142.413 98.8415 143.397 98.8317H143.488C144.462 98.832 145.411 99.1063 146.2 99.6154C146.989 100.125 147.577 100.843 147.881 101.667L156.096 123.68H167.353C168.153 121.514 169.61 119.587 171.562 118.112C173.514 116.636 175.885 115.67 178.415 115.32C180.945 114.97 183.533 115.249 185.896 116.127C188.259 117.004 190.303 118.446 191.804 120.294C193.305 122.141 194.203 124.322 194.401 126.596C194.598 128.87 194.086 131.147 192.922 133.178C191.757 135.209 189.986 136.914 187.802 138.105C185.619 139.295 183.109 139.925 180.549 139.925L180.524 139.896Z" fill="#EA4848"/>
</svg>
