<svg width="972" height="371" viewBox="0 0 972 371" fill="none" xmlns="http://www.w3.org/2000/svg">
<path opacity="0.1" d="M114 148.411V207.888H207.193V148.411H114ZM114 209.728V260.807C114.533 260.915 115.058 261.022 115.586 261.113C116.296 261.25 117.01 261.375 117.736 261.482L118.166 261.542C118.45 261.59 118.738 261.628 119.026 261.663C119.744 261.766 120.462 261.843 121.176 261.912C121.511 261.947 121.859 261.972 122.199 262.003L123.029 262.063C123.48 262.097 123.927 262.123 124.374 262.14C124.65 262.14 124.925 262.162 125.204 262.17C125.484 262.179 125.634 262.17 125.858 262.17H126.67C127.04 262.17 127.41 262.17 127.775 262.17H128.248C128.618 262.17 128.988 262.17 129.353 262.136H129.375C129.633 262.136 129.886 262.136 130.144 262.106C130.217 262.11 130.29 262.11 130.363 262.106C130.578 262.106 130.793 262.106 131 262.08C131.048 262.076 131.097 262.076 131.146 262.08C131.623 262.05 132.105 262.011 132.591 261.968C133.076 261.925 133.536 261.874 134.022 261.822L134.998 261.702C138.986 261.143 142.93 260.304 146.8 259.191C155.498 256.766 163.998 253.373 172.691 250.892C183.921 247.689 196.337 246.111 207.189 250.011V209.728H114ZM207.193 82.1888V3.00725C196.991 2.895 186.817 4.08704 176.917 6.55442C153.318 12.4836 132.126 25.3437 114 41.7682V82.1845H118.691V84.0204H114V146.571H207.193V84.0204H137.879V82.1802L207.193 82.1888ZM326.923 55.4409C321.084 55.2346 315.28 53.39 310.026 50.5308C299.991 45.0746 291.969 36.6388 283.009 29.5272C264.392 14.7065 241.305 5.75899 217.619 3.5404V82.1888H350.647L350.978 81.8405L326.923 55.4409ZM339.043 53.2911L351.893 67.3981V49.5806C347.568 50.1266 343.802 51.395 339.043 53.2739V53.2911ZM351.893 273.491V209.728H324.489C324.42 209.457 324.343 209.182 324.257 208.907C324.339 209.182 324.412 209.457 324.485 209.728H217.619V255.837C218.634 256.589 219.636 257.385 220.629 258.185C221.701 259.062 222.766 259.949 223.823 260.846L224.89 261.727C225.401 262.157 225.921 262.587 226.437 262.996C227.472 263.83 228.514 264.655 229.563 265.472C230.088 265.885 230.615 266.291 231.145 266.689C239.543 273.107 248.4 278.9 257.647 284.021C259.719 285.177 261.813 286.291 263.919 287.379C265.321 288.101 266.733 288.809 268.154 289.503C270.287 290.543 272.436 291.547 274.603 292.513C294.581 301.481 315.706 307.633 337.374 310.794C342.184 311.502 347.015 312.061 351.868 312.471V273.483H352.297L351.893 273.491ZM217.619 84.0204V146.571H351.893V84.0204H217.619ZM217.619 148.403V207.888H351.893V148.411L217.619 148.403ZM362.315 49.4946V69.4018L378.713 51.3993C373.278 50.5021 367.813 49.8672 362.315 49.4946ZM362.315 148.411V207.888H492.909V148.411H362.315ZM492.449 278.208L492.909 209.728H362.315V313.164C370.727 313.513 379.151 313.411 387.552 312.858H387.699C391.711 312.6 395.705 312.233 399.681 311.758H399.771C420.987 309.288 441.73 303.747 461.351 295.307L492.449 278.208ZM518.103 158.18C517.607 157.033 517.098 155.887 516.577 154.74C515.605 152.591 514.582 150.501 513.524 148.416H503.335V207.888H529.092C529.071 191.042 524.806 173.843 518.103 158.18V158.18ZM503.335 209.728V268.633C510.588 261.68 516.723 253.722 521.134 244.624C526.444 233.664 528.873 221.806 529.075 209.724L503.335 209.728ZM503.335 131.08V146.558H512.57C509.77 141.237 506.688 136.07 503.335 131.08V131.08ZM414.768 61.168C414.088 60.9057 413.405 60.6435 412.721 60.3941C405.513 57.7301 398.147 55.5158 390.665 53.7641L365.565 81.3074L365.075 81.8362L365.398 82.1845H454.73C442.288 73.6223 428.873 66.5674 414.768 61.168V61.168ZM457.353 84.0204H364.147L362.315 85.693V146.571H378.373H492.909V117.076C482.552 104.551 470.598 93.4376 457.353 84.0204V84.0204Z" fill="#EA4848"/>
<path opacity="0.1" d="M351.893 148.407V207.888H217.619V182.232H289.14V197.367H324.837V148.407H351.893Z" fill="#EA4848"/>
<path opacity="0.1" d="M352.319 273.504C352.177 273.504 352.035 273.504 351.889 273.478V312.497C347.042 312.099 342.213 311.541 337.4 310.825C315.724 307.664 294.591 301.515 274.603 292.551C268.834 289.949 263.181 287.112 257.647 284.042C248.403 278.919 239.547 273.126 231.15 266.711C229.034 265.094 226.95 263.441 224.898 261.753C223.475 260.575 222.065 259.371 220.629 258.206C219.64 257.402 218.638 256.607 217.619 255.85V209.728H324.485C324.407 209.453 324.339 209.182 324.261 208.907C324.343 209.182 324.42 209.453 324.489 209.728H351.893V273.474C352.035 273.478 352.177 273.491 352.319 273.504Z" fill="#EA4848"/>
<path opacity="0.1" d="M279.733 206.508H217.619V207.888H279.733V206.508Z" fill="#EA4848"/>
<path opacity="0.1" d="M279.733 209.724H217.619V215.012H279.733V209.724Z" fill="#EA4848"/>
<path opacity="0.1" d="M279.733 232.348H217.619V240.853H279.733V232.348Z" fill="#EA4848"/>
<path opacity="0.1" d="M351.889 273.474H352.319H351.889ZM324.257 208.907C324.338 209.182 324.412 209.457 324.485 209.728C324.42 209.457 324.343 209.182 324.257 208.907ZM118.69 82.1888V84.0204H137.896V82.1802L118.69 82.1888ZM351.893 273.474H352.323H351.893ZM324.257 208.907C324.338 209.182 324.412 209.457 324.485 209.728C324.42 209.457 324.343 209.182 324.257 208.907ZM351.889 273.474H352.319H351.889ZM324.257 208.907C324.338 209.182 324.412 209.457 324.485 209.728C324.42 209.457 324.343 209.182 324.257 208.907Z" fill="#EA4848"/>
<g opacity="0.1">
<path opacity="0.1" d="M249.848 143.17C248.971 145.242 248.595 147.491 248.751 149.736C248.847 148.131 249.218 146.554 249.848 145.075C250.858 142.714 252.492 140.659 253.489 138.294C254.304 136.32 254.648 134.182 254.491 132.051C254.402 133.545 254.064 135.013 253.489 136.394C252.492 138.759 250.858 140.81 249.848 143.17Z" fill="black"/>
<path opacity="0.1" d="M205.327 146.489C205.353 148.175 205.379 149.865 205.383 151.55C205.383 149.228 205.362 146.911 205.327 144.593C205.293 142.19 205.25 139.756 204.601 137.439C204.171 135.968 203.534 134.476 203.311 132.993C202.928 135.1 204.016 137.237 204.601 139.339C205.25 141.635 205.293 144.086 205.327 146.489Z" fill="black"/>
<path opacity="0.1" d="M252.401 167.433C251.111 167.781 249.787 167.704 248.467 167.695C245.443 167.676 242.429 168.055 239.503 168.822C238.023 169.276 236.52 169.655 235.002 169.957C233.248 170.174 231.476 170.221 229.713 170.094C220.857 169.746 211.875 169.372 203.393 166.839C203.141 167.402 202.854 167.947 202.533 168.473C211.273 171.251 220.569 171.633 229.731 171.99C231.494 172.117 233.265 172.071 235.019 171.853C236.532 171.554 238.029 171.176 239.503 170.722C242.423 169.952 245.431 169.569 248.45 169.583C249.77 169.583 251.111 169.664 252.384 169.316C253.657 168.968 254.882 168.095 255.226 166.822C255.371 166.233 255.356 165.615 255.183 165.034C254.8 166.237 253.618 167.076 252.401 167.433Z" fill="black"/>
</g>
<path opacity="0.1" d="M181.893 370.038C205.03 370.038 223.786 367.026 223.786 363.309C223.786 359.593 205.03 356.58 181.893 356.58C158.756 356.58 140 359.593 140 363.309C140 367.026 158.756 370.038 181.893 370.038Z" fill="#EA4848"/>
<path d="M228.483 182.745C228.472 182.703 228.45 182.664 228.418 182.634C227.777 182.002 219.609 170.449 219.609 170.449C219.609 170.449 219.179 169.159 218.482 167.482C218.705 167.193 218.873 166.865 218.977 166.514C219.014 166.366 219.041 166.215 219.058 166.063C219.058 166.016 219.093 165.977 219.106 165.93C219.255 165.347 219.24 164.733 219.063 164.158C219.015 164.306 218.956 164.45 218.886 164.588C218.725 164.087 218.508 163.606 218.241 163.152C217.158 161.286 215.61 159.712 214.471 157.894C212.746 155.068 212.06 151.729 212.532 148.452C212.532 148.619 212.532 148.791 212.532 148.959C212.575 148.309 212.661 147.663 212.79 147.024C212.969 146.298 213.21 145.587 213.508 144.9C214.531 142.557 216.186 140.515 217.192 138.163C217.53 137.37 217.786 136.544 217.958 135.699C218.312 134.288 218.441 132.83 218.34 131.378C218.34 131.722 218.284 132.066 218.233 132.406C218.124 128.916 216.715 125.593 214.282 123.088C210.769 119.558 205.726 118.187 200.902 117.465C198.875 117.228 196.939 116.489 195.27 115.315C193.417 114.115 191.022 113.827 188.855 114.089C186.365 114.359 184.05 115.503 182.324 117.318C180.033 119.838 179.04 123.407 176.365 125.531C174.745 126.82 172.689 127.422 170.802 128.3C168.915 129.177 167.13 130.449 166.524 132.333C166.524 132.333 166.524 132.307 166.524 132.294V132.401L166.498 132.47C165.871 134.697 167.083 136.963 167.715 139.186C168.373 141.486 168.416 143.916 168.45 146.293C168.498 149.2 168.541 152.111 168.493 155.022C168.472 156.165 168.433 157.322 168.347 158.461C167.329 158.769 166.341 159.166 165.393 159.648C164.43 160.276 160.827 164.167 160.827 164.167L153.781 191.091L153.875 191.198L153.781 191.564L154.138 191.482C155.135 192.557 158.115 195.618 161.33 197.527L161.631 202.807C161.631 202.807 161.993 208.105 166.864 210.293C166.976 212.129 167.324 219.584 165.712 222.538C164.595 224.696 164.07 227.111 164.19 229.538C164.19 229.538 164.753 234.018 164.112 236.374C163.738 237.949 163.71 239.586 164.03 241.173V241.173C164.03 241.173 164.03 241.693 164.03 242.587C164.03 247.356 164.086 262.636 164.03 264.365C163.949 266.407 164.03 296.612 164.03 296.612C164.03 296.612 163.631 311.708 162.349 315.797C161.068 319.886 161.391 333.425 161.391 333.425C161.391 333.425 160.587 349.553 163.429 352.735C163.429 352.877 163.403 353.023 163.398 353.165C163.398 353.229 163.398 353.302 163.398 353.367C163.364 354.592 163.601 355.895 164.654 356.295C166.804 357.12 169.645 359.597 170.183 360.306C170.72 361.016 173.846 362.783 177.922 362.31C180.475 362.023 183.045 361.905 185.613 361.957V361.957C185.613 361.957 187.221 361.665 186.701 359.666C186.366 358.419 185.11 356.501 184.216 355.241C184.379 355.284 184.539 355.319 184.689 355.349L184.844 355.379H184.964C185.03 355.383 185.096 355.383 185.162 355.379H185.248C185.328 355.385 185.409 355.385 185.489 355.379V355.379C186.568 355.276 190.592 357.15 191.31 358.389C192.028 359.627 194.56 360.569 196.469 360.805C197.604 360.943 200.468 360.71 202.871 360.401C204.081 360.276 205.28 360.057 206.457 359.747C207.024 359.532 207.145 358.844 206.981 358.07C206.788 357.088 206.263 356.201 205.494 355.559C204.797 355.065 203.877 353.762 203.198 352.696L203.017 352.408C204.217 351.264 206.384 347.524 207.042 346.75C207.841 345.808 205.752 311.372 205.752 311.372V294.11L208.955 277.771L211.195 269.125L213.117 256.071C213.117 256.071 216.479 240.825 215.443 239.328C215.443 239.298 214.583 223.6 213.68 219.83C213.289 218.148 213.387 214.365 213.62 210.684C213.862 210.443 214.031 210.138 214.107 209.805C214.184 209.472 214.164 209.123 214.05 208.801C213.985 208.581 213.902 208.366 213.8 208.16C213.8 208.096 213.8 208.027 213.8 207.963C215.657 207.108 217.598 206.448 219.591 205.993C222.794 205.366 221.995 203.715 221.995 203.715C221.995 203.715 222.717 202.3 223.194 201.436C223.672 200.572 223.276 192.944 223.194 192.316C223.164 192.063 222.966 190.661 222.739 189.07C223.766 188.339 225.103 187.432 226.561 186.572C229.334 184.93 228.71 183.197 228.483 182.745ZM186.693 291.753C186.693 291.753 184.289 297.885 185.252 299.454C186.215 301.023 185.093 306.849 185.093 306.849L184.289 315.496C184.289 315.496 182.049 331.533 182.849 335.304C183.477 338.262 183.709 347.098 183.782 350.783C183.727 350.804 183.674 350.83 183.623 350.86L183.515 350.916C183.885 349.467 183.73 346.535 181.894 340.636L181.74 316.27C181.74 316.27 181.456 288.124 183.679 284.977C185.901 281.83 186.688 276.485 186.688 276.485C186.688 276.485 186.207 284.195 185.893 286.237C185.579 288.279 186.693 291.753 186.693 291.753ZM182.217 352.318C182.195 352.369 182.17 352.421 182.152 352.468L182.032 352.313C182.093 352.319 182.155 352.321 182.217 352.318V352.318Z" fill="url(#paint0_linear)"/>
<path d="M208.369 364.612C207.126 365.089 200.389 365.902 198.506 365.674C196.623 365.446 194.129 364.492 193.42 363.245C192.711 361.998 188.734 360.115 187.667 360.235C187.23 360.248 186.794 360.187 186.378 360.055C185.642 359.832 184.924 359.556 184.228 359.229C184.131 358.687 184.147 358.131 184.275 357.595C184.3 357.487 184.332 357.381 184.37 357.277C184.621 356.572 185.14 355.994 185.814 355.669L185.969 355.596C186.267 355.467 186.579 355.372 186.898 355.312C190.277 354.663 204.22 355.966 204.22 355.966C204.22 355.966 204.611 356.666 205.149 357.535C205.819 358.61 206.731 359.921 207.419 360.416C208.181 361.067 208.698 361.959 208.885 362.944C209.048 363.705 208.928 364.401 208.369 364.612Z" fill="white"/>
<path opacity="0.1" d="M208.369 364.612C207.126 365.089 200.393 365.902 198.51 365.674C196.627 365.446 194.134 364.487 193.42 363.245C192.706 362.002 188.738 360.115 187.672 360.235C186.605 360.355 184.232 359.229 184.232 359.229C184.232 359.229 183.862 357.509 184.937 356.335L187.087 357.862C187.087 357.862 192.839 359.646 193.906 361.301C194.972 362.957 196.915 363.881 199.723 364.049C201.821 364.186 206.64 363.37 208.898 362.961C209.048 363.705 208.932 364.401 208.369 364.612Z" fill="black"/>
<path d="M187.788 366.805C185.252 366.756 182.715 366.875 180.195 367.162C176.158 367.635 173.075 365.872 172.538 365.145C172 364.419 169.219 361.964 167.082 361.104C166.037 360.699 165.792 359.384 165.839 358.154C165.839 358.09 165.839 358.017 165.839 357.952C165.879 357.173 165.994 356.4 166.183 355.643L182.912 355.286L184.361 357.251L184.585 357.552L185.466 358.752C185.466 358.752 185.866 359.276 186.391 360.042C187.276 361.332 188.514 363.236 188.845 364.496C189.374 366.513 187.788 366.805 187.788 366.805Z" fill="white"/>
<path opacity="0.1" d="M187.788 366.805C185.252 366.756 182.715 366.875 180.195 367.162C176.162 367.635 173.075 365.872 172.542 365.145C172.009 364.419 169.219 361.942 167.082 361.112C166.037 360.708 165.792 359.392 165.839 358.163C167.035 358.442 169.546 359.156 170.53 360.399C171.82 362.058 174.129 364.849 177.409 365.025C180.058 365.167 186.507 364.694 188.871 364.505C189.379 366.513 187.788 366.805 187.788 366.805Z" fill="black"/>
<path d="M213.314 257.623L211.414 270.754L209.204 279.456L206.04 295.907V313.32C206.04 313.32 208.095 347.966 207.304 348.912C206.513 349.858 203.507 355.246 202.716 354.932C201.925 354.618 195.442 353.509 193.382 354.454C191.323 355.4 184.354 354.614 184.354 354.614C184.354 354.614 184.195 341.169 183.404 337.372C182.612 333.576 184.827 317.439 184.827 317.439L185.618 308.741C185.618 308.741 186.727 302.885 185.777 301.303C184.827 299.72 187.2 293.563 187.2 293.563C187.2 293.563 186.095 290.076 186.413 288.021C186.731 285.966 187.2 278.214 187.2 278.214C187.2 278.214 186.413 283.597 184.216 286.757C182.019 289.917 182.299 318.239 182.299 318.239L182.453 342.747C186.413 355.723 182.453 354.454 182.453 354.454C182.453 354.454 167.431 357.778 164.396 355.086C161.361 352.395 162.229 335.454 162.229 335.454C162.229 335.454 161.915 321.851 163.179 317.74C164.443 313.63 164.843 298.439 164.843 298.439C164.843 298.439 164.761 268.062 164.843 266.012C164.903 264.292 164.843 248.895 164.843 244.084C164.843 243.189 164.843 242.66 164.843 242.66L166.657 238.154L188.154 235.463H198.438C198.438 235.463 213.916 239.1 215.516 240.67C215.55 240.696 215.579 240.728 215.602 240.764C216.638 242.282 213.314 257.623 213.314 257.623Z" fill="#EA4848"/>
<path d="M182.922 118.054C180.656 120.586 179.676 124.176 177.036 126.317C175.433 127.607 173.403 128.222 171.537 129.099C169.671 129.976 167.823 131.313 167.268 133.3C166.649 135.536 167.844 137.819 168.472 140.055C169.121 142.368 169.16 144.784 169.198 147.205C169.241 150.133 169.289 153.061 169.237 155.989C169.16 160.551 168.781 165.323 166.361 169.189C175.101 171.971 184.397 172.349 193.563 172.706C195.325 172.831 197.094 172.787 198.847 172.573C200.366 172.27 201.868 171.89 203.348 171.433C206.275 170.659 209.29 170.273 212.317 170.285C213.637 170.285 214.983 170.367 216.255 170.023C217.528 169.679 218.753 168.797 219.097 167.525C219.402 166.381 218.955 165.164 218.37 164.137C217.304 162.262 215.791 160.697 214.647 158.848C213.48 156.895 212.787 154.696 212.625 152.426C212.463 150.156 212.836 147.881 213.714 145.782C214.729 143.421 216.363 141.366 217.36 139.001C218.382 136.462 218.653 133.683 218.143 130.994C217.632 128.306 216.361 125.82 214.48 123.832C211.01 120.281 206.031 118.905 201.268 118.174C199.262 117.937 197.348 117.198 195.704 116.024C193.877 114.82 191.508 114.528 189.367 114.794C186.897 115.071 184.609 116.228 182.922 118.054Z" fill="#3F3D56"/>
<g opacity="0.1">
<path opacity="0.1" d="M213.848 143.301C212.971 145.373 212.595 147.622 212.751 149.866C212.847 148.261 213.218 146.685 213.848 145.206C214.858 142.845 216.492 140.79 217.489 138.425C218.304 136.45 218.648 134.313 218.491 132.182C218.402 133.675 218.064 135.143 217.489 136.525C216.492 138.889 214.858 140.94 213.848 143.301Z" fill="black"/>
<path opacity="0.1" d="M169.327 146.62C169.353 148.306 169.379 149.995 169.383 151.681C169.383 149.359 169.362 147.041 169.327 144.724C169.293 142.321 169.25 139.887 168.601 137.569C168.171 136.099 167.534 134.607 167.311 133.124C166.928 135.23 168.016 137.367 168.601 139.47C169.25 141.766 169.293 144.217 169.327 146.62Z" fill="black"/>
<path opacity="0.1" d="M216.401 167.563C215.111 167.912 213.787 167.834 212.467 167.826C209.443 167.807 206.429 168.185 203.503 168.952C202.023 169.407 200.52 169.786 199.002 170.087C197.248 170.305 195.476 170.351 193.713 170.225C184.857 169.877 175.875 169.503 167.393 166.97C167.141 167.532 166.854 168.078 166.533 168.604C175.273 171.382 184.569 171.764 193.731 172.121C195.494 172.247 197.265 172.201 199.019 171.983C200.532 171.685 202.029 171.307 203.503 170.853C206.423 170.083 209.431 169.7 212.45 169.713C213.77 169.713 215.111 169.795 216.384 169.447C217.657 169.098 218.882 168.226 219.226 166.953C219.371 166.363 219.356 165.746 219.183 165.164C218.8 166.368 217.618 167.207 216.401 167.563Z" fill="black"/>
</g>
<path d="M203.667 162.468C203.348 163.182 202.007 169.348 201.689 169.98C201.371 170.612 199.634 180.729 199.475 181.296C199.316 181.864 188.025 178.923 188.025 178.923L181.228 173.226L174.242 166.274C174.242 166.274 174.035 160 179.182 157.988C179.531 157.851 179.891 157.739 180.256 157.653C186.499 156.152 185.871 137.17 185.871 137.17L198.684 142.703C198.684 142.703 196.31 153.779 196.392 155.916C196.414 156.634 196.977 157.081 197.712 157.352C198.849 157.675 200.032 157.803 201.212 157.73C201.212 157.73 203.985 161.759 203.667 162.468Z" fill="#FBBEBE"/>
<path opacity="0.1" d="M192.909 149.574C199.898 149.574 205.562 143.909 205.562 136.92C205.562 129.932 199.898 124.266 192.909 124.266C185.921 124.266 180.256 129.932 180.256 136.92C180.256 143.909 185.921 149.574 192.909 149.574Z" fill="black"/>
<path d="M192.909 148.624C199.898 148.624 205.562 142.958 205.562 135.97C205.562 128.981 199.898 123.316 192.909 123.316C185.921 123.316 180.256 128.981 180.256 135.97C180.256 142.958 185.921 148.624 192.909 148.624Z" fill="#FBBEBE"/>
<path opacity="0.1" d="M215.61 242.2C212.729 242.53 209.891 243.166 207.145 244.096C202.415 245.67 165.355 244.122 164.839 244.096C164.839 243.202 164.839 242.673 164.839 242.673L166.653 238.167L188.15 235.476H198.434C198.434 235.476 213.912 239.113 215.511 240.683C215.576 241.628 215.61 242.2 215.61 242.2Z" fill="black"/>
<path opacity="0.1" d="M203.667 162.468C203.348 163.182 202.007 169.348 201.689 169.98C201.371 170.612 199.634 180.729 199.475 181.296C199.316 181.864 188.025 178.923 188.025 178.923L181.228 173.226L174.242 166.274C174.242 166.274 174.035 160 179.182 157.988L191.959 172.68L197.712 157.352C198.849 157.675 200.032 157.803 201.212 157.73C201.212 157.73 203.985 161.759 203.667 162.468Z" fill="black"/>
<path d="M191.959 173.153L178.881 158.104C178.115 157.616 177.24 157.325 176.334 157.258C175.429 157.191 174.52 157.351 173.691 157.722C170.764 158.99 167.126 160.018 166.176 160.65C165.226 161.282 161.666 165.194 161.666 165.194L172.268 192.931L167.599 211.2C167.599 211.2 168.313 220.535 166.494 223.936C165.387 226.11 164.868 228.537 164.989 230.974C164.989 230.974 165.544 235.484 164.912 237.853C164.543 239.437 164.515 241.082 164.83 242.678C164.83 242.678 202.403 244.26 207.145 242.678C209.891 241.744 212.729 241.108 215.61 240.781C215.61 240.781 214.75 224.959 213.891 221.162C213.031 217.366 214.604 202.893 214.604 202.893L213.577 187.389L219.742 171.48C219.742 171.48 216.401 161.282 212.919 160.254C212.919 160.254 206.595 158.749 205.249 158.04C203.903 157.33 199.948 156.694 199.948 156.694L197.871 157.391L191.959 173.153Z" fill="#EA4848"/>
<path opacity="0.1" d="M210.207 186.865L182.686 184.994C181.989 184.947 181.386 185.473 181.339 186.169L178.384 229.624C178.337 230.321 178.863 230.924 179.559 230.971L207.081 232.842C207.777 232.89 208.38 232.364 208.428 231.667L211.382 188.212C211.43 187.516 210.903 186.913 210.207 186.865Z" fill="black"/>
<path d="M211.154 185.922L183.633 184.05C182.937 184.003 182.334 184.529 182.286 185.226L179.332 228.68C179.284 229.377 179.811 229.98 180.507 230.027L208.028 231.899C208.725 231.946 209.328 231.42 209.375 230.723L212.33 187.269C212.377 186.572 211.851 185.969 211.154 185.922Z" fill="#3F3D56"/>
<path d="M210.246 189.328L184.072 187.548L181.382 227.108L207.556 228.888L210.246 189.328Z" fill="white"/>
<path opacity="0.1" d="M193.877 132.805C193.641 130.733 194.148 128.644 195.309 126.911C195.171 128.648 195.662 130.377 196.693 131.782C197.724 133.187 199.225 134.174 200.924 134.564C200.779 134.438 200.675 134.271 200.627 134.086C200.579 133.9 200.588 133.704 200.653 133.523C201.534 134.521 202.209 135.703 203.207 136.581C204.204 137.458 205.7 137.982 206.874 137.359C208.469 136.499 208.486 134.233 208.074 132.47C207.188 128.716 205.371 125.245 202.79 122.379C202.146 121.512 201.31 120.807 200.348 120.318C199.385 119.828 198.323 119.568 197.243 119.558C194.801 119.369 192.265 119.584 190.076 120.681C188.845 121.353 187.691 122.159 186.637 123.084L180.618 127.994C180.039 128.411 179.543 128.934 179.156 129.533C178.898 130.035 178.743 130.583 178.7 131.146C178.546 132.754 178.844 134.373 179.559 135.821C180.275 137.27 181.38 138.49 182.75 139.345C182.721 138.074 183.071 136.823 183.754 135.751C184.438 134.68 185.425 133.835 186.589 133.326C186.772 133.478 186.92 133.668 187.023 133.882C187.126 134.097 187.182 134.331 187.187 134.568L188.455 132.307C188.644 131.895 188.941 131.543 189.315 131.288C190.098 130.858 191.074 131.365 191.74 131.971C192.407 132.578 193.056 133.334 193.95 133.429L193.984 130.062" fill="black"/>
<path d="M193.877 132.333C193.64 130.259 194.147 128.168 195.309 126.433C194.922 129.873 197.514 133.425 200.928 134.087C200.783 133.962 200.679 133.796 200.631 133.611C200.582 133.426 200.592 133.23 200.657 133.051C201.538 134.048 202.213 135.226 203.211 136.108C204.208 136.989 205.705 137.509 206.878 136.882C208.473 136.022 208.491 133.756 208.078 131.997C207.192 128.243 205.375 124.772 202.794 121.906C201.993 120.93 200.984 120.145 199.84 119.61C199.012 119.304 198.142 119.127 197.261 119.085C194.818 118.896 192.282 119.107 190.093 120.203C188.863 120.878 187.709 121.686 186.654 122.611L180.635 127.521C180.055 127.937 179.559 128.46 179.173 129.061C178.914 129.562 178.759 130.11 178.717 130.673C178.564 132.28 178.862 133.899 179.577 135.346C180.292 136.794 181.397 138.013 182.767 138.868C182.739 137.597 183.089 136.347 183.773 135.275C184.456 134.204 185.443 133.359 186.607 132.848C186.788 133.002 186.936 133.191 187.039 133.406C187.142 133.62 187.198 133.853 187.204 134.091L188.468 131.838C188.656 131.426 188.953 131.073 189.328 130.819C190.111 130.389 191.087 130.896 191.753 131.503C192.419 132.109 193.069 132.861 193.963 132.96L193.997 129.589" fill="#3F3D56"/>
<path d="M199.87 212.146C198.765 211.587 180.493 214.438 180.493 214.438C180.493 214.438 177.483 213.578 170.209 212.383C162.934 211.187 162.47 204.076 162.47 204.076L161.675 189.84L164.13 187.69L174.646 194.569C174.646 194.569 174.809 198.048 174.646 198.675C174.543 199.105 174.267 199.617 174.293 199.965C174.301 200.06 174.34 200.149 174.404 200.219C174.468 200.289 174.553 200.336 174.646 200.352C175.36 200.533 185.085 202.107 185.085 202.107C185.085 202.107 207.626 200.563 213.246 208.156C213.691 208.713 214.028 209.349 214.239 210.031C215.632 215.22 200.872 212.641 199.87 212.146Z" fill="#FBBEBE"/>
<path opacity="0.1" d="M214.252 210.061C213.392 210.443 212.859 210.719 212.859 210.719C212.859 210.719 204.793 210.482 200.261 208.84C195.73 207.197 190.222 207.49 190.222 207.49C190.222 207.49 171.34 204.239 174.267 199.995C174.275 200.09 174.314 200.179 174.378 200.249C174.442 200.319 174.527 200.366 174.62 200.382C175.334 200.563 185.059 202.137 185.059 202.137C185.059 202.137 207.6 200.593 213.22 208.186C213.679 208.74 214.029 209.376 214.252 210.061V210.061Z" fill="black"/>
<path d="M222.094 185.011C222.094 185.011 223.203 192.841 223.28 193.477C223.358 194.113 223.758 201.78 223.28 202.652C222.803 203.525 222.094 204.944 222.094 204.944C222.094 204.944 222.885 206.604 219.72 207.24C216.556 207.877 212.841 209.768 212.841 209.768C212.841 209.768 204.772 209.532 200.266 207.872C195.76 206.213 190.222 206.526 190.222 206.526C190.222 206.526 166.253 202.412 176.538 197.39C186.822 192.368 194.096 199.17 194.096 199.17L205.563 198.46C205.563 198.46 209.836 195.846 211.023 196.087C211.861 196.194 212.712 196.056 213.473 195.691L213.555 187.385L222.094 185.011Z" fill="#FBBEBE"/>
<g opacity="0.1">
<path opacity="0.1" d="M195.287 126.472C195.268 126.142 195.276 125.812 195.309 125.483C194.654 126.466 194.204 127.57 193.984 128.729V129.727C193.984 129.727 193.984 129.705 193.984 129.693V129.929C193.984 130.626 193.984 131.326 193.963 132.023H193.903V132.345C193.903 132.234 193.903 132.126 193.881 132.014C193.021 131.877 192.406 131.154 191.766 130.578C191.125 130.002 190.124 129.452 189.341 129.895C188.966 130.149 188.669 130.501 188.481 130.914L187.204 133.167C187.199 132.93 187.142 132.696 187.039 132.483C186.936 132.269 186.789 132.08 186.607 131.928C185.442 132.438 184.455 133.282 183.771 134.354C183.088 135.426 182.738 136.677 182.767 137.948C181.593 137.212 180.61 136.207 179.9 135.016C179.191 133.825 178.775 132.482 178.687 131.099C178.612 132.643 178.951 134.18 179.668 135.55C180.386 136.921 181.455 138.075 182.767 138.894C182.739 137.623 183.089 136.373 183.773 135.301C184.456 134.229 185.443 133.385 186.607 132.874C186.788 133.027 186.936 133.217 187.039 133.431C187.142 133.646 187.198 133.879 187.204 134.117L188.468 131.864C188.656 131.452 188.953 131.099 189.328 130.845C190.111 130.415 191.087 130.922 191.753 131.529C192.419 132.135 193.069 132.887 193.963 132.986C193.963 131.885 193.974 130.788 193.997 129.693C194.208 128.544 194.647 127.449 195.287 126.472V126.472Z" fill="black"/>
<path opacity="0.1" d="M193.834 130.802C193.855 130.509 193.89 130.217 193.933 129.942L193.98 128.755C193.851 129.429 193.802 130.116 193.834 130.802Z" fill="black"/>
<path opacity="0.1" d="M206.878 135.931C205.704 136.559 204.208 136.034 203.211 135.157C202.213 134.28 201.538 133.098 200.657 132.1C200.592 132.281 200.583 132.477 200.631 132.663C200.679 132.848 200.783 133.015 200.928 133.141C200.842 133.141 200.76 133.098 200.678 133.076C201.538 134.065 202.222 135.226 203.211 136.086C204.2 136.946 205.704 137.488 206.878 136.86C208.052 136.232 208.387 134.762 208.284 133.33C208.207 134.457 207.802 135.433 206.878 135.931Z" fill="black"/>
<path opacity="0.1" d="M200.653 133.068C199.215 132.676 197.931 131.854 196.974 130.712C196.016 129.57 195.431 128.163 195.296 126.679C195.051 130.054 197.596 133.438 200.928 134.087C200.786 133.964 200.684 133.801 200.635 133.619C200.586 133.438 200.592 133.246 200.653 133.068V133.068Z" fill="black"/>
</g>
<path opacity="0.1" d="M515.281 233.066C515.677 233.29 516.076 233.496 516.476 233.716V233.501H519.916V235.44C520.165 235.547 520.402 235.663 520.647 235.775V233.501H524.086V237.224C524.152 237.254 524.219 237.278 524.288 237.297V233.066H515.281Z" fill="#EA4848"/>
<path opacity="0.1" d="M504.855 343.3C527.992 343.3 546.748 340.287 546.748 336.571C546.748 332.855 527.992 329.842 504.855 329.842C481.718 329.842 462.962 332.855 462.962 336.571C462.962 340.287 481.718 343.3 504.855 343.3Z" fill="#EA4848"/>
<path d="M506.205 207.664H503.509V268.362H506.205V207.664Z" fill="#535461"/>
<path d="M523.149 268.181L522.977 270.916L522.741 274.785L522.642 276.394L522.401 280.263L522.298 281.871L522.061 285.741L519.34 329.627C519.224 331.515 518.392 333.288 517.014 334.584C515.636 335.88 513.815 336.601 511.923 336.601H497.791C495.894 336.602 494.069 335.877 492.69 334.574C491.311 333.272 490.482 331.491 490.375 329.597L487.653 285.711L487.417 281.841L487.318 280.233L487.073 276.363L486.974 274.755L486.738 270.886L486.566 268.151C486.536 267.627 486.613 267.102 486.792 266.609C486.972 266.116 487.25 265.664 487.609 265.281C487.969 264.899 488.403 264.594 488.884 264.384C489.365 264.174 489.884 264.065 490.409 264.062H519.31C519.837 264.065 520.358 264.176 520.841 264.388C521.324 264.599 521.758 264.908 522.118 265.293C522.478 265.679 522.754 266.134 522.932 266.631C523.109 267.127 523.183 267.655 523.149 268.181V268.181Z" fill="#3F3D56"/>
<path d="M522.977 270.912L522.736 274.773H486.974L486.733 270.912H522.977Z" fill="#9D9CB5"/>
<path d="M522.637 276.381L522.401 280.242H487.314L487.073 276.381H522.637Z" fill="#9D9CB5"/>
<path d="M522.298 281.854L522.061 285.711H487.653L487.412 281.854H522.298Z" fill="#9D9CB5"/>
<path d="M482.636 230.418C498.337 241.778 504.877 259.544 504.877 259.544C504.877 259.544 485.959 258.894 470.254 247.535C454.548 236.175 448 218.422 448 218.422C448 218.422 466.917 219.058 482.636 230.418Z" fill="#EA4848"/>
<path d="M448 218.422C448 218.422 467.635 229.322 473.934 238.346C480.232 247.371 504.859 259.552 504.859 259.552" stroke="#535461" stroke-width="2" stroke-miterlimit="10"/>
<path d="M492.752 207.535C501.299 213.714 504.859 223.384 504.859 223.384C504.859 223.384 494.541 223.031 486.015 216.853C477.489 210.674 473.908 201 473.908 201C473.908 201 484.209 201.353 492.752 207.535Z" fill="#EA4848"/>
<path d="M473.908 201C473.908 201 484.596 206.933 488.027 211.844C491.458 216.754 504.859 223.384 504.859 223.384" stroke="#535461" stroke-width="2" stroke-miterlimit="10"/>
<path d="M517.276 222.894C507.46 233.681 505.384 247.78 505.384 247.78C505.384 247.78 519.223 244.383 529.03 233.591C538.837 222.799 540.922 208.705 540.922 208.705C540.922 208.705 527.091 212.106 517.276 222.894Z" fill="#EA4848"/>
<path d="M540.931 208.709C540.931 208.709 528.145 219.768 524.894 227.387C521.644 235.006 505.384 247.78 505.384 247.78" stroke="#535461" stroke-width="2" stroke-miterlimit="10"/>
<path opacity="0.1" d="M556 145.411V204.888H649.193V145.411H556ZM556 206.728V257.807C556.533 257.915 557.058 258.022 557.586 258.113C558.296 258.25 559.01 258.375 559.736 258.482L560.166 258.543C560.45 258.59 560.738 258.628 561.026 258.663C561.744 258.766 562.462 258.843 563.176 258.912C563.511 258.947 563.859 258.972 564.199 259.003L565.029 259.063C565.48 259.097 565.927 259.123 566.374 259.14C566.65 259.14 566.925 259.162 567.204 259.17C567.484 259.179 567.634 259.17 567.858 259.17H568.67C569.04 259.17 569.41 259.17 569.775 259.17H570.248C570.618 259.17 570.988 259.17 571.353 259.136H571.375C571.633 259.136 571.886 259.136 572.144 259.106C572.217 259.11 572.29 259.11 572.363 259.106C572.578 259.106 572.793 259.106 573 259.08C573.048 259.076 573.097 259.076 573.146 259.08C573.623 259.05 574.105 259.011 574.591 258.968C575.076 258.925 575.536 258.874 576.022 258.822L576.998 258.702C580.986 258.143 584.93 257.304 588.8 256.191C597.498 253.766 605.998 250.373 614.691 247.892C625.921 244.689 638.337 243.111 649.189 247.011V206.728H556ZM649.193 79.1888V0.00724769C638.991 -0.105003 628.817 1.08704 618.917 3.55442C595.318 9.48358 574.126 22.3437 556 38.7682V79.1845H560.691V81.0204H556V143.571H649.193V81.0204H579.879V79.1802L649.193 79.1888ZM768.923 52.4409C763.084 52.2346 757.28 50.39 752.026 47.5308C741.991 42.0746 733.969 33.6388 725.009 26.5272C706.392 11.7065 683.305 2.75899 659.619 0.540399V79.1888H792.647L792.978 78.8405L768.923 52.4409ZM781.043 50.2911L793.893 64.3981V46.5806C789.568 47.1266 785.802 48.395 781.043 50.2739V50.2911ZM793.893 270.491V206.728H766.489C766.42 206.457 766.343 206.182 766.257 205.907C766.339 206.182 766.412 206.457 766.485 206.728H659.619V252.837C660.634 253.589 661.636 254.385 662.629 255.185C663.701 256.062 664.766 256.949 665.823 257.846L666.89 258.727C667.401 259.157 667.921 259.587 668.437 259.996C669.472 260.83 670.514 261.655 671.563 262.472C672.088 262.885 672.615 263.291 673.145 263.689C681.543 270.107 690.4 275.9 699.647 281.021C701.719 282.177 703.813 283.291 705.919 284.379C707.321 285.101 708.733 285.809 710.154 286.503C712.287 287.543 714.436 288.547 716.603 289.513C736.581 298.481 757.706 304.633 779.374 307.794C784.184 308.502 789.015 309.061 793.868 309.471V270.483H794.297L793.893 270.491ZM659.619 81.0204V143.571H793.893V81.0204H659.619ZM659.619 145.403V204.888H793.893V145.411L659.619 145.403ZM804.315 46.4946V66.4017L820.713 48.3993C815.278 47.5021 809.813 46.8672 804.315 46.4946ZM804.315 145.411V204.888H934.909V145.411H804.315ZM934.449 275.208L934.909 206.728H804.315V310.164C812.727 310.513 821.151 310.411 829.552 309.858H829.699C833.711 309.6 837.705 309.233 841.681 308.758H841.771C862.987 306.288 883.73 300.747 903.351 292.307L934.449 275.208ZM960.103 155.18C959.607 154.033 959.098 152.887 958.577 151.74C957.605 149.591 956.582 147.501 955.524 145.416H945.335V204.888H971.092C971.071 188.042 966.806 170.843 960.103 155.18ZM945.335 206.728V265.633C952.588 258.68 958.723 250.722 963.134 241.624C968.444 230.664 970.873 218.806 971.075 206.724L945.335 206.728ZM945.335 128.08V143.558H954.57C951.77 138.237 948.688 133.07 945.335 128.08ZM856.768 58.168C856.088 57.9057 855.405 57.6435 854.721 57.3941C847.513 54.7301 840.147 52.5158 832.665 50.7641L807.565 78.3074L807.075 78.8362L807.398 79.1845H896.73C884.288 70.6223 870.873 63.5674 856.768 58.168ZM899.353 81.0204H806.147L804.315 82.693V143.571H820.373H934.909V114.076C924.552 101.551 912.598 90.4376 899.353 81.0204Z" fill="#EA4848"/>
<path opacity="0.1" d="M906.92 143.571H820.373C820.382 143.573 820.39 143.573 820.399 143.571H820.36H804.315V83.656H808.864V127.942H829.647V101.714H846.823V81.0204H864.45V101.727H881.618V127.955H906.924L906.92 143.571Z" fill="#EA4848"/>
<path opacity="0.1" d="M804.315 145.411V204.888H906.924V145.411H804.315ZM934.762 274.894L934.909 227.813H906.924V206.745H804.315V310.164C812.727 310.513 821.151 310.411 829.552 309.858H829.698C833.711 309.6 837.705 309.233 841.681 308.758H841.771C862.987 306.288 883.73 300.746 903.351 292.307" fill="#EA4848"/>
<path opacity="0.1" d="M841.78 151.173H829.552V163.401H841.78V151.173Z" fill="#EA4848"/>
<path opacity="0.1" d="M888.458 151.173H876.231V163.401H888.458V151.173Z" fill="#EA4848"/>
<path opacity="0.1" d="M841.78 181.334H829.552V193.563H841.78V181.334Z" fill="#EA4848"/>
<path opacity="0.1" d="M888.458 181.334H876.231V193.563H888.458V181.334Z" fill="#EA4848"/>
<path opacity="0.1" d="M841.78 211.492H829.552V223.72H841.78V211.492Z" fill="#EA4848"/>
<path opacity="0.1" d="M888.458 211.492H876.231V223.72H888.458V211.492Z" fill="#EA4848"/>
<path opacity="0.1" d="M841.78 241.654H829.552V253.882H841.78V241.654Z" fill="#EA4848"/>
<path opacity="0.1" d="M888.458 241.654H876.231V253.882H888.458V241.654Z" fill="#EA4848"/>
<path opacity="0.1" d="M841.78 271.815H829.552V284.043H841.78V271.815Z" fill="#EA4848"/>
<path opacity="0.1" d="M888.458 271.815H876.231V284.043H888.458V271.815Z" fill="#EA4848"/>
<path opacity="0.1" d="M829.552 309.858V301.973H841.776V308.736L829.552 309.858Z" fill="#EA4848"/>
<path opacity="0.1" d="M847.193 370.999C870.33 370.999 889.086 367.986 889.086 364.27C889.086 360.553 870.33 357.541 847.193 357.541C824.056 357.541 805.3 360.553 805.3 364.27C805.3 367.986 824.056 370.999 847.193 370.999Z" fill="#EA4848"/>
<path d="M885.126 200.21C885.126 200.21 883.432 199.973 883.432 197.51C883.432 195.046 882.22 190.433 882.22 190.433C882.22 190.433 881.171 182.405 879.722 181.132C878.273 179.86 876.411 172.387 876.411 172.387C876.411 172.387 876.093 168.333 875.444 167.46C874.795 166.587 873.918 164.45 872.623 161.402C871.329 158.353 865.946 156.264 865.946 156.264C865.946 156.264 856.191 150.605 853.427 148.761C853.174 148.608 852.938 148.429 852.722 148.228C852.24 147.6 850.142 147.587 850.142 147.587C849.923 146.198 849.712 144.607 849.643 143.167C849.643 143.012 849.643 142.857 849.643 142.703C852.726 140.88 855.048 138.007 856.183 134.611C856.234 134.447 856.277 134.28 856.324 134.112C856.513 134.054 856.687 133.956 856.836 133.826C856.984 133.695 857.103 133.535 857.184 133.355C857.429 132.801 857.438 132.156 857.748 131.635C858.109 131.025 858.797 130.698 859.338 130.242C860.706 129.077 861.058 127.121 860.994 125.345C860.951 123.9 860.718 122.447 860.809 121.015C860.809 120.895 860.809 120.775 860.835 120.654C860.86 120.444 860.89 120.224 860.929 120.018C861.14 118.952 861.6 117.945 861.858 116.888C862.116 115.83 862.142 114.639 861.54 113.728C860.658 112.39 858.822 112.124 857.21 112.008C855.383 111.853 853.771 112.051 852.58 110.533C852.033 109.74 851.418 108.998 850.74 108.314C850.499 108.091 848.16 106.659 848.16 106.569C845.872 105.505 843.275 105.305 840.851 106.005C839.634 106.358 838.495 106.934 837.261 107.222C834.613 107.85 831.56 107.171 829.307 108.688C828.052 109.548 827.299 110.92 826.594 112.249C826.021 113.343 825.439 114.44 824.849 115.538C823.894 117.339 822.931 119.171 822.531 121.166C822.448 121.602 822.395 122.043 822.372 122.486V122.486C822.372 122.645 822.372 122.804 822.372 122.963C822.372 123.032 822.372 123.101 822.372 123.169C822.372 123.316 822.372 123.462 822.398 123.599C822.424 123.737 822.398 123.776 822.428 123.866C822.458 123.956 822.467 124.158 822.493 124.296C822.518 124.434 822.57 124.679 822.622 124.864C822.622 124.945 822.673 125.023 822.699 125.104C822.725 125.186 822.794 125.392 822.85 125.534C822.905 125.676 822.91 125.685 822.944 125.758C823.009 125.908 823.086 126.055 823.163 126.188C823.198 126.244 823.224 126.3 823.258 126.356C823.376 126.557 823.508 126.749 823.653 126.932C824.569 128.08 825.928 128.811 826.93 129.885C826.93 129.928 826.93 129.971 826.93 130.014C826.93 130.131 826.93 130.247 826.93 130.367C826.991 132.765 827.637 135.111 828.812 137.201C829.987 139.292 831.655 141.064 833.671 142.363C833.671 142.526 833.693 142.694 833.701 142.862C833.785 144.137 833.769 145.416 833.654 146.688C833.478 146.483 833.259 146.319 833.012 146.209C832.765 146.098 832.497 146.045 832.226 146.052C832.042 146.043 831.857 146.059 831.676 146.099L831.637 146.069V146.108C830.692 146.34 829.526 147.325 828.413 150.124C828.413 150.124 825.025 153.942 822.445 153.783C819.866 153.624 813.335 157.76 813.335 157.76C813.335 157.76 806.963 161.892 805.596 166.105C804.832 168.495 803.914 170.833 802.849 173.105L794.951 189.323L793.502 202.222C793.502 202.222 794.306 207.945 794.147 208.822C793.988 209.699 797.453 217.567 797.453 217.567C797.453 217.567 808.902 237.681 813.58 238.713L813.915 238.481C814.116 238.582 814.329 238.66 814.547 238.713L815.51 238.038C815.57 238.794 815.544 239.554 815.433 240.304C814.792 242.294 815.678 255.253 816.805 257.794C817.931 260.335 817.531 293.657 817.531 293.657L817.372 296.594C817.372 296.594 817.372 296.689 817.411 296.852L817.372 297.549L817.488 297.609C817.609 298.543 817.569 299.491 817.372 300.412C816.968 301.702 816.805 305.344 816.805 305.344C816.805 305.344 813.58 325.93 815.111 330.066C816.641 334.203 817.935 338.734 817.935 338.734C817.935 338.734 819.548 343.894 818.013 344.754C816.478 345.614 812.131 347.14 813.017 349.286C813.834 351.272 816.934 356.595 817.394 357.373L817.355 357.803L816.723 364.652C816.825 365.557 817.07 366.439 817.449 367.267C818.142 368.763 819.483 370.306 822.046 370.139C822.475 370.109 822.97 370.061 823.456 369.997C828.138 369.365 833.899 367.275 833.899 367.275C833.6 367.086 833.327 366.859 833.086 366.6V366.6C832.856 366.377 832.674 366.11 832.55 365.814C832.427 365.518 832.365 365.201 832.368 364.88C832.437 363.629 830.103 357.691 829.518 356.225L829.385 355.899C829.385 355.899 834.707 350.331 833.822 345.403C833.822 345.403 827.931 341.963 829.87 340.072C831.809 338.18 835.275 332.762 835.275 332.762C835.275 332.762 835.434 312.49 835.275 309.467C835.109 307.365 835.209 305.25 835.571 303.172C835.636 302.863 835.713 302.558 835.795 302.252C838.479 302.657 841.189 302.863 843.904 302.867C844.895 302.867 845.898 302.847 846.913 302.807C846.913 303.094 846.926 303.403 846.952 303.736C847.175 308.758 847.592 317.568 847.932 320.84C848.414 325.526 851.075 338.171 851.075 338.171C851.075 338.171 845.997 341.426 851.961 349.462C851.961 349.462 851.961 352.369 851.565 352.794C851.142 354.173 850.802 355.576 850.546 356.995C850.297 358.504 850.194 360.039 850.598 360.83C851.565 362.731 857.369 362.576 857.369 362.576C857.416 362.565 857.463 362.558 857.511 362.554C858.607 362.438 859.714 362.542 860.769 362.86C861.824 363.177 862.805 363.702 863.655 364.403C865.86 366.175 874.227 365.401 878.763 364.833C880.539 364.605 881.725 364.403 881.725 364.403C881.782 364.202 881.803 363.992 881.785 363.784V363.784C881.738 362.67 880.865 360.228 874.949 358.048C874.949 358.048 869.386 354.308 869.463 351.049H869.339H868.698C869.102 351.036 869.386 351.036 869.386 351.036C869.386 351.036 867.206 343.086 868.096 342.436C868.986 341.787 866.321 332.977 866.321 332.977C866.321 332.977 864.794 318.187 864.708 317.155C864.714 316.265 864.85 315.382 865.112 314.532L864.708 306.419C864.708 306.419 864.631 303.723 864.708 302.846C864.7 302.084 864.639 301.324 864.528 300.571C864.489 300.27 864.45 299.956 864.407 299.647C866.492 299.118 867.847 298.632 867.847 298.632L867.606 270.405C869.377 266.965 869.704 259.415 869.696 254.067C869.696 250.627 869.541 248.082 869.541 248.082L871.961 244.13C871.961 244.13 872.52 239.401 871.635 238.365C871.243 237.896 871.42 237.41 871.742 237.01C871.912 236.871 872.091 236.745 872.279 236.632C872.258 236.602 872.24 236.57 872.224 236.537C872.393 236.396 872.572 236.268 872.761 236.155C872.761 236.155 871.901 234.822 872.671 234.258C873.393 234.749 874.038 235.14 874.528 235.419C874.494 235.733 874.459 235.914 874.459 235.914L874.666 235.484C875.139 235.75 875.427 235.914 875.427 235.914C875.427 235.914 879.219 228.359 879.137 227.25C879.055 226.141 881.717 221.446 881.717 221.446C881.717 221.446 882.039 218.978 883.492 217.946C884.945 216.914 884.619 209.437 884.619 209.437C884.619 209.437 885.023 205.541 885.99 203.955C886.958 202.368 885.126 200.21 885.126 200.21ZM812.57 196.895L812.643 198.696C812.213 198.004 811.903 197.51 811.903 197.51L812.57 196.895Z" fill="url(#paint1_linear)"/>
<path d="M875.65 232.646L874.722 236.602C874.722 236.602 867.284 232.796 865.947 227.981C864.61 223.165 868.187 221.329 868.187 221.329L875.122 224.262L875.65 232.646Z" fill="white"/>
<path opacity="0.1" d="M875.65 232.646L874.722 236.602C874.722 236.602 867.284 232.796 865.947 227.981C864.61 223.165 868.187 221.329 868.187 221.329L875.122 224.262L875.65 232.646Z" fill="black"/>
<path d="M833.908 367.271C833.908 367.271 827.029 369.799 822.299 370.117C819.789 370.285 818.469 368.746 817.789 367.262C817.42 366.444 817.18 365.574 817.076 364.683L817.699 357.868L818.026 354.243L828.074 351.629L829.497 355.984L829.63 356.311C830.197 357.769 832.493 363.676 832.425 364.91C832.419 365.23 832.478 365.547 832.599 365.842C832.719 366.138 832.898 366.406 833.125 366.63C833.358 366.876 833.621 367.091 833.908 367.271V367.271Z" fill="white"/>
<path d="M880.874 363.805C880.892 364.014 880.872 364.224 880.814 364.425C880.814 364.425 866.102 366.875 863.092 364.425C862.246 363.709 861.26 363.177 860.197 362.864C859.134 362.551 858.017 362.463 856.918 362.606C856.918 362.606 851.226 362.761 850.276 360.886C849.88 360.099 849.983 358.573 850.228 357.072C850.479 355.661 850.812 354.265 851.226 352.893L851.454 352.712L852.808 351.625L868.664 351.156H868.784C868.707 354.398 874.163 358.117 874.163 358.117C879.971 360.267 880.827 362.696 880.874 363.805Z" fill="white"/>
<path opacity="0.1" d="M880.878 363.805C880.894 364.014 880.872 364.224 880.814 364.425C880.814 364.425 866.101 366.875 863.096 364.425C862.25 363.708 861.263 363.176 860.199 362.863C859.135 362.55 858.017 362.462 856.918 362.606C856.918 362.606 851.221 362.761 850.271 360.886C849.88 360.099 849.979 358.573 850.224 357.068C852.416 357.287 855.877 357.833 857.236 359.14C859.291 361.118 862.774 363.096 864.906 363.255C866.591 363.358 876.613 363.676 880.878 363.805Z" fill="black"/>
<path opacity="0.1" d="M833.907 367.271C833.907 367.271 827.028 369.799 822.299 370.117C819.788 370.285 818.468 368.746 817.789 367.262C819.543 367.851 821.972 368.466 823.249 367.903C824.763 367.228 830.128 366.798 833.138 366.613C833.365 366.865 833.623 367.086 833.907 367.271V367.271Z" fill="black"/>
<path d="M844.114 163.517C838.439 161.311 831.139 154.023 832.962 150.618C833.365 149.758 833.605 148.831 833.671 147.884C833.788 146.597 833.806 145.303 833.723 144.014C833.595 141.901 833.341 139.798 832.962 137.715C832.962 137.715 850.679 138.115 849.648 140.725C849.347 141.494 849.295 142.823 849.381 144.306C849.467 145.79 849.678 147.479 849.901 148.903C850.207 150.85 850.52 152.342 850.52 152.342C850.52 152.342 849.433 153.86 848.801 153.942C848.169 154.023 852.257 166.677 844.114 163.517Z" fill="#CF6F80"/>
<path opacity="0.1" d="M829.612 356.29L829.479 356.436C824.182 350.029 817.776 358.018 817.776 358.018L817.682 357.846L818.008 354.222L828.056 351.607L829.479 355.963L829.612 356.29Z" fill="black"/>
<path opacity="0.1" d="M868.793 351.607C868.793 351.607 864.923 351.53 862.86 353.353C860.796 355.176 850.821 353.744 851.251 353.353C851.377 353.155 851.453 352.929 851.475 352.695L852.829 351.607L868.685 351.139C868.745 351.44 868.793 351.607 868.793 351.607Z" fill="black"/>
<path d="M836.203 301.298C835.916 302.01 835.697 302.749 835.55 303.503C835.191 305.57 835.092 307.673 835.253 309.764C835.412 312.773 835.253 332.943 835.253 332.943C835.253 332.943 831.852 338.322 829.952 340.218C828.052 342.114 833.822 345.519 833.822 345.519C834.681 350.425 829.471 355.963 829.471 355.963C824.174 349.557 817.768 357.541 817.768 357.541C817.768 357.541 814.285 351.521 813.417 349.372C812.548 347.222 816.817 345.738 818.318 344.861C819.818 343.984 818.241 338.842 818.241 338.842C818.241 338.842 816.977 334.332 815.472 330.217C813.967 326.102 817.131 305.623 817.131 305.623C817.131 305.623 817.295 301.981 817.686 300.713C817.881 299.797 817.92 298.855 817.802 297.927C817.776 297.613 817.746 297.355 817.725 297.174C817.703 296.994 817.686 296.916 817.686 296.916L817.746 296.813L819.896 292.806C819.896 292.806 837.235 298.774 836.203 301.298Z" fill="#EA4848"/>
<path d="M868.793 351.134C868.793 351.134 864.923 351.053 862.86 352.854C860.796 354.656 850.821 353.25 851.251 352.854C851.681 352.459 851.643 349.535 851.643 349.535C845.791 341.542 850.783 338.3 850.783 338.3C850.783 338.3 848.173 325.724 847.7 321.059C847.369 317.804 846.961 309.02 846.741 304.045C846.647 301.895 846.591 300.412 846.591 300.412L851.329 299.47L851.944 299.35L863.475 297.033C863.475 297.033 863.793 299.182 864.008 300.941C864.116 301.691 864.175 302.448 864.184 303.207C864.111 304.067 864.184 306.763 864.184 306.763L864.579 314.829C864.324 315.675 864.191 316.554 864.184 317.438C864.266 318.47 865.766 333.179 865.766 333.179C865.766 333.179 868.376 341.959 867.486 342.591C866.596 343.223 868.793 351.134 868.793 351.134Z" fill="#EA4848"/>
<path opacity="0.1" d="M849.648 140.738C849.347 141.507 849.295 142.836 849.381 144.319C847.008 145.748 844.28 146.479 841.51 146.427C838.74 146.376 836.041 145.544 833.723 144.027C833.595 141.914 833.341 139.811 832.962 137.728C832.962 137.728 850.68 138.128 849.648 140.738Z" fill="black"/>
<path d="M856.488 131.244C856.535 135.145 855.03 138.905 852.305 141.697C849.58 144.488 845.857 146.083 841.956 146.129C838.055 146.176 834.296 144.671 831.504 141.946C828.713 139.22 827.119 135.498 827.072 131.597C827.072 131.476 827.072 131.365 827.072 131.244C827.072 127.342 828.622 123.6 831.381 120.84C834.14 118.081 837.882 116.531 841.784 116.531C845.686 116.531 849.428 118.081 852.188 120.84C854.947 123.6 856.497 127.342 856.497 131.244H856.488Z" fill="#CF6F80"/>
<path opacity="0.1" d="M844.114 163.517C838.439 161.311 831.139 154.023 832.962 150.618C833.365 149.758 833.605 148.831 833.671 147.884L841.44 154.273L846.247 158.215L849.901 148.915C850.207 150.863 850.52 152.355 850.52 152.355C850.52 152.355 849.433 153.873 848.801 153.955C848.169 154.036 852.257 166.677 844.114 163.517Z" fill="black"/>
<path d="M864.205 191.752L857.718 300.747L849.256 301.302L827.343 238.102L830.937 163.07L831.698 147.217L841.44 155.219L846.247 159.161L850.009 149.586L857.004 155.683L864.205 191.752Z" fill="#EA4848"/>
<path opacity="0.1" d="M836.204 301.298C835.916 302.01 835.697 302.749 835.55 303.503C829.387 302.554 823.402 300.686 817.794 297.961L817.677 297.901L817.716 297.209V296.848L819.866 292.84C819.866 292.84 837.235 298.774 836.204 301.298Z" fill="black"/>
<path opacity="0.1" d="M851.471 303.521C849.897 303.79 848.309 303.972 846.715 304.067C846.621 301.917 846.565 300.434 846.565 300.434L851.329 299.47L851.471 303.521Z" fill="black"/>
<path opacity="0.1" d="M864.025 300.941C860.968 301.736 856.243 302.631 852.021 302.072L851.961 299.35L863.492 297.033C863.492 297.033 863.797 299.165 864.025 300.941Z" fill="black"/>
<path opacity="0.1" d="M851.943 302.57C834.316 305.58 818.172 296.951 818.172 296.951L818.327 294.027C818.327 294.027 818.726 260.881 817.617 258.34C816.508 255.799 815.644 242.931 816.272 240.966C816.899 239.001 813.98 209.334 813.98 209.334L813.507 197.295L796.185 190.256L803.924 174.12C804.969 171.858 805.868 169.531 806.615 167.154C807.961 162.962 814.208 158.848 814.208 158.848C814.208 158.848 820.614 154.737 823.146 154.892C825.679 155.047 828.998 151.254 828.998 151.254C831.448 145.007 833.667 147.815 833.667 147.815C833.667 148.116 833.667 147.815 833.546 148.739C832.687 155.597 847.451 177.267 847.661 177.654L849.084 211.905L850.508 255.249L851.943 302.57Z" fill="black"/>
<path d="M851.471 302.57C833.843 305.58 817.695 296.951 817.695 296.951L817.854 294.027C817.854 294.027 818.249 260.881 817.14 258.34C816.031 255.799 815.167 242.918 815.799 240.936C816.431 238.953 813.494 209.316 813.494 209.316L813.017 197.277L795.699 190.239L803.438 174.103C804.481 171.841 805.38 169.516 806.13 167.141C807.475 162.962 813.744 158.843 813.744 158.843C813.744 158.843 820.15 154.733 822.678 154.888C825.206 155.042 828.542 151.254 828.542 151.254C830.997 145.007 833.701 147.815 833.701 147.815C833.701 148.116 833.443 148.245 833.581 148.739C835.473 155.391 847.012 177.267 847.223 177.654L848.646 211.905L850.039 255.27L851.471 302.57Z" fill="white"/>
<path opacity="0.1" d="M846.72 178.621C844.824 177.83 834.78 166.363 834.78 166.363V163.753C834.415 162.894 832.239 163.418 830.481 164.02L831.238 148.167L832.098 148.881C833.976 155.528 846.513 178.239 846.72 178.621Z" fill="black"/>
<path d="M847.197 177.675C845.297 176.88 835.253 165.417 835.253 165.417V162.803C834.888 161.943 832.717 162.468 830.954 163.07L831.698 147.234L832.558 147.944C834.454 154.582 846.987 177.288 847.197 177.675Z" fill="white"/>
<path opacity="0.1" d="M818.172 234.86C818.408 234.86 830.429 233.596 830.429 233.596C830.429 233.596 837.708 247.914 837.231 251.392C836.754 254.871 835.89 257.958 832.962 257.412C830.034 256.866 817.205 257.842 817.205 257.842L818.172 234.86Z" fill="black"/>
<path d="M817.695 233.91C817.935 233.91 829.956 232.646 829.956 232.646C829.956 232.646 837.231 246.985 836.758 250.425C836.285 253.864 835.412 256.99 832.489 256.444C829.565 255.898 816.727 256.874 816.727 256.874L817.695 233.91Z" fill="white"/>
<path d="M826.753 227.207C826.753 227.207 837.786 233.14 838.022 234.946C838.259 236.752 832.407 234.155 831.143 233.837C830.311 233.639 829.464 233.507 828.611 233.441L820.18 233.669L826.753 227.207Z" fill="#CF6F80"/>
<path opacity="0.1" d="M843.637 179.361C844.278 179.361 844.798 178.841 844.798 178.2C844.798 177.559 844.278 177.039 843.637 177.039C842.996 177.039 842.476 177.559 842.476 178.2C842.476 178.841 842.996 179.361 843.637 179.361Z" fill="black"/>
<path d="M843.637 178.888C844.278 178.888 844.798 178.368 844.798 177.727C844.798 177.086 844.278 176.566 843.637 176.566C842.996 176.566 842.476 177.086 842.476 177.727C842.476 178.368 842.996 178.888 843.637 178.888Z" fill="#3F3D56"/>
<path opacity="0.1" d="M845.774 229.615C846.415 229.615 846.935 229.095 846.935 228.454C846.935 227.813 846.415 227.293 845.774 227.293C845.133 227.293 844.613 227.813 844.613 228.454C844.613 229.095 845.133 229.615 845.774 229.615Z" fill="black"/>
<path d="M845.774 229.138C846.415 229.138 846.935 228.618 846.935 227.977C846.935 227.336 846.415 226.816 845.774 226.816C845.133 226.816 844.613 227.336 844.613 227.977C844.613 228.618 845.133 229.138 845.774 229.138Z" fill="#3F3D56"/>
<path opacity="0.1" d="M844.798 204.488C845.439 204.488 845.959 203.968 845.959 203.327C845.959 202.686 845.439 202.166 844.798 202.166C844.157 202.166 843.637 202.686 843.637 203.327C843.637 203.968 844.157 204.488 844.798 204.488Z" fill="black"/>
<path d="M844.798 204.015C845.439 204.015 845.959 203.495 845.959 202.854C845.959 202.213 845.439 201.693 844.798 201.693C844.157 201.693 843.637 202.213 843.637 202.854C843.637 203.495 844.157 204.015 844.798 204.015Z" fill="#3F3D56"/>
<path d="M871.557 233.201C871.557 233.201 872.348 234.387 871.557 234.92C870.766 235.454 871.635 236.821 871.635 236.821C871.635 236.821 869.661 237.973 870.53 239.018C871.398 240.063 870.848 244.754 870.848 244.754L868.475 248.705C868.475 248.705 868.617 251.237 868.625 254.66C868.625 260 868.311 267.507 866.574 270.93L866.806 299.01C866.806 299.01 858.496 302.05 851.539 301.121L850.508 256.062C850.508 256.062 852.012 230.509 852.567 225.608C852.892 223.063 853.024 220.497 852.962 217.933C852.962 217.933 852.726 210.262 851.931 206.706C851.931 206.706 851.071 191.279 850.985 187.01C850.946 184.968 851.054 179.008 851.174 173.341C851.307 167.146 851.458 161.303 851.458 161.303L849.888 148.881C849.888 148.881 851.458 148.726 851.931 149.354C852.142 149.552 852.373 149.729 852.619 149.883C855.331 151.714 864.902 157.347 864.902 157.347C864.902 157.347 870.199 159.454 871.467 162.472C872.735 165.49 873.617 167.632 874.232 168.492C874.846 169.351 875.182 173.393 875.182 173.393C875.182 173.393 877.005 180.831 878.428 182.091C879.851 183.351 880.874 191.348 880.874 191.348L868.298 201.237C868.298 201.237 867.193 217.688 866.957 218.324C866.72 218.96 871.557 233.201 871.557 233.201Z" fill="white"/>
<path d="M872.034 233.201C872.034 233.201 872.821 234.387 872.034 234.92C871.248 235.454 872.108 236.821 872.108 236.821C872.108 236.821 870.134 237.973 871.003 239.018C871.871 240.063 871.321 244.754 871.321 244.754L868.956 248.705C868.956 248.705 869.098 251.237 869.111 254.66C869.111 260 868.797 267.507 867.06 270.93L867.297 299.01C867.297 299.01 858.986 302.05 852.029 301.121L851.002 256.062C851.002 256.062 852.502 230.509 853.061 225.608C853.386 223.063 853.517 220.497 853.453 217.933C853.453 217.933 853.216 210.262 852.425 206.706C852.425 206.706 851.565 191.279 851.475 187.01C851.436 184.968 851.544 179.008 851.664 173.342C851.797 167.146 851.948 161.303 851.948 161.303L849.875 148.713C849.875 148.713 851.948 148.713 852.425 149.354C852.635 149.554 852.865 149.732 853.113 149.883V149.883C855.822 151.715 865.392 157.347 865.392 157.347C865.392 157.347 870.676 159.454 871.966 162.472C873.256 165.49 874.115 167.632 874.73 168.492C875.345 169.351 875.68 173.393 875.68 173.393C875.68 173.393 877.503 180.831 878.926 182.091C880.35 183.351 881.377 191.348 881.377 191.348L868.801 201.237C868.801 201.237 867.696 217.688 867.456 218.324C867.215 218.96 872.034 233.201 872.034 233.201Z" fill="white"/>
<path opacity="0.1" d="M856.974 164.953L858.113 168.264L852.133 174.283C852.266 168.087 852.417 162.244 852.417 162.244L850.344 149.659C850.344 149.659 852.417 149.659 852.894 150.3C853.104 150.5 853.334 150.677 853.582 150.829V150.829L858.664 165.486L856.974 164.953Z" fill="black"/>
<path d="M856.488 164.003L857.627 167.309L851.651 173.329C851.78 167.133 851.935 161.29 851.935 161.29L849.858 148.701C849.858 148.701 851.935 148.701 852.408 149.341C852.619 149.54 852.849 149.717 853.096 149.87V149.87L858.208 164.54L856.488 164.003Z" fill="white"/>
<path opacity="0.1" d="M856.488 131.244C856.49 132.793 856.246 134.333 855.766 135.806C855.685 135.82 855.602 135.817 855.522 135.797C855.442 135.778 855.367 135.743 855.301 135.694C855.185 131.825 853.285 128.187 850.942 125.096C850.283 124.163 849.485 123.337 848.577 122.645C847.658 121.955 846.515 121.631 845.37 121.738C844.08 121.914 842.941 122.791 841.638 122.903C839.918 123.045 838.379 121.854 836.672 121.798C835.978 121.804 835.293 121.958 834.664 122.25C834.034 122.542 833.475 122.966 833.022 123.492C832.125 124.551 831.458 125.785 831.066 127.117C830.39 129.137 830.022 131.247 829.974 133.377C829.952 134.581 829.836 136.09 828.718 136.528C828.803 135.644 828.703 134.751 828.424 133.907C828.145 133.063 827.693 132.287 827.098 131.627L827.072 131.597C827.072 131.476 827.072 131.365 827.072 131.244C827.072 127.342 828.622 123.6 831.381 120.84C834.14 118.081 837.882 116.531 841.784 116.531C845.686 116.531 849.428 118.081 852.188 120.84C854.947 123.6 856.497 127.342 856.497 131.244H856.488Z" fill="black"/>
<path d="M847.889 107.884C845.655 106.833 843.114 106.635 840.744 107.325C839.553 107.678 838.43 108.25 837.222 108.538C834.643 109.161 831.633 108.486 829.419 109.996C828.189 110.855 827.45 112.214 826.762 113.538L825.042 116.81C824.105 118.603 823.159 120.426 822.768 122.4C822.377 124.373 822.613 126.583 823.864 128.174C824.771 129.327 826.121 130.053 827.11 131.141C827.704 131.804 828.155 132.583 828.433 133.429C828.711 134.275 828.811 135.169 828.727 136.055C829.845 135.625 829.956 134.108 829.982 132.904C830.03 130.774 830.399 128.664 831.074 126.644C831.467 125.312 832.133 124.078 833.03 123.019C833.483 122.492 834.042 122.068 834.672 121.775C835.301 121.482 835.986 121.327 836.681 121.321C838.4 121.381 839.944 122.572 841.646 122.426C842.936 122.318 844.08 121.441 845.378 121.265C846.523 121.156 847.667 121.48 848.586 122.172C849.495 122.862 850.291 123.689 850.946 124.623C853.293 127.718 855.198 131.339 855.31 135.221C855.796 135.574 856.496 135.11 856.737 134.559C856.978 134.009 856.987 133.364 857.292 132.839C857.644 132.233 858.319 131.906 858.848 131.451C860.19 130.294 860.525 128.346 860.473 126.579C860.422 124.812 860.078 123.019 860.413 121.282C860.615 120.22 861.071 119.218 861.32 118.165C861.57 117.111 861.6 115.929 861.011 115.022C860.151 113.693 858.341 113.427 856.763 113.302C854.97 113.147 853.366 113.345 852.223 111.836C851.685 111.049 851.081 110.31 850.417 109.626C850.181 109.398 847.889 107.979 847.889 107.884Z" fill="#512E4E"/>
<path opacity="0.1" d="M801.147 198.554L796.658 190.252L795.235 203.065C795.235 203.065 796.026 208.757 795.867 209.63C795.708 210.503 799.109 218.328 799.109 218.328C799.109 218.328 810.343 238.343 814.93 239.37L830.408 228.295L826.298 223.075C826.298 223.075 824.875 222.52 824.518 223.075C824.518 223.075 816.882 209.944 816.095 208.998C815.309 208.052 815.459 206.147 815.459 206.147C815.459 206.147 814.272 204.883 814.668 203.697C815.064 202.51 812.398 198.4 812.398 198.4L814.849 196.108L801.147 198.554Z" fill="black"/>
<path d="M796.894 189.302L795.708 190.252L794.284 203.065C794.284 203.065 795.075 208.757 794.916 209.63C794.757 210.503 798.162 218.328 798.162 218.328C798.162 218.328 809.392 238.343 813.98 239.371L829.483 228.295L825.369 223.075C825.369 223.075 823.946 222.52 823.589 223.075C823.589 223.075 815.958 209.944 815.167 208.998C814.375 208.052 814.535 206.147 814.535 206.147C814.535 206.147 813.348 204.883 813.743 203.697C814.139 202.51 811.448 198.4 811.448 198.4L813.898 196.108L796.894 189.302Z" fill="white"/>
<path opacity="0.1" d="M870.53 239.512C871.389 240.557 870.848 245.252 870.848 245.252L868.475 249.178C868.475 249.178 868.616 251.715 868.625 255.137L864.635 256.384C864.274 256.497 863.891 256.521 863.519 256.456C863.146 256.39 862.794 256.237 862.493 256.008C862.192 255.779 861.95 255.482 861.787 255.14C861.624 254.799 861.545 254.423 861.557 254.045L862.249 231.859L871.557 235.415C870.766 235.965 871.635 237.315 871.635 237.315C871.635 237.315 869.661 238.468 870.53 239.512Z" fill="black"/>
<path d="M871.003 239.04C871.863 240.08 871.321 244.775 871.321 244.775L868.956 248.705C868.956 248.705 869.098 251.238 869.111 254.66L865.048 255.928C864.695 256.039 864.321 256.064 863.957 256C863.593 255.937 863.249 255.787 862.954 255.563C862.66 255.34 862.423 255.049 862.263 254.716C862.104 254.382 862.027 254.015 862.038 253.645L862.731 231.382L872.035 234.946C871.239 235.497 872.108 236.847 872.108 236.847C872.108 236.847 870.134 237.995 871.003 239.04Z" fill="white"/>
<path d="M874.09 228.454C874.09 228.454 873.458 232.491 871.876 232.728C870.293 232.964 869.584 239.259 868.006 239.039C866.428 238.82 867.473 233.183 867.529 232.091C867.585 230.999 865.809 226.476 867.133 225.448C868.458 224.421 872.671 225.448 872.671 225.448L874.09 228.454Z" fill="#CF6F80"/>
<path opacity="0.1" d="M877.434 197.368L880.414 191.348C880.414 191.348 881.605 195.936 881.605 198.387C881.605 200.837 883.264 201.078 883.264 201.078C883.264 201.078 885.083 203.228 884.124 204.797C883.166 206.367 882.783 210.254 882.783 210.254C882.783 210.254 883.097 217.688 881.674 218.715C880.251 219.743 879.932 222.198 879.932 222.198C879.932 222.198 877.323 226.863 877.404 227.972C877.486 229.082 873.767 236.593 873.767 236.593C873.767 236.593 875.586 227.259 864.988 223.226C864.988 223.226 864.906 220.061 865.697 219.192C866.488 218.324 867.722 217.903 866.948 213.534C866.174 209.166 866.725 203.899 866.725 202.845C866.725 201.792 869.098 195.227 869.098 195.227L877.434 197.368Z" fill="black"/>
<path d="M878.759 190.488L881.364 191.348C881.364 191.348 882.555 195.936 882.555 198.387C882.555 200.837 884.215 201.078 884.215 201.078C884.215 201.078 886.033 203.228 885.075 204.797C884.116 206.367 883.729 210.254 883.729 210.254C883.729 210.254 884.047 217.688 882.624 218.715C881.201 219.743 880.904 222.198 880.904 222.198C880.904 222.198 878.294 226.863 878.376 227.972C878.458 229.082 874.735 236.593 874.735 236.593C874.735 236.593 876.553 227.258 865.955 223.225C865.955 223.225 865.878 220.061 866.669 219.192C867.46 218.324 868.694 217.903 867.92 213.534C867.146 209.166 867.696 203.899 867.696 202.845C867.696 201.792 870.07 195.226 870.07 195.226L878.759 190.488Z" fill="white"/>
<path opacity="0.1" d="M821.199 346.508C821.199 346.508 825.352 343.898 828.078 345.794C830.804 347.691 821.199 346.508 821.199 346.508Z" fill="black"/>
<path opacity="0.1" d="M853.479 338.438C853.479 338.438 857.154 337.965 860.241 341.288C863.328 344.612 853.479 338.438 853.479 338.438Z" fill="black"/>
<g opacity="0.1">
<path opacity="0.1" d="M858.848 130.505C858.319 130.965 857.64 131.287 857.288 131.893C856.987 132.414 856.978 133.059 856.737 133.613C856.496 134.168 855.796 134.628 855.306 134.275C855.194 130.406 853.289 126.773 850.946 123.677C850.291 122.744 849.494 121.918 848.586 121.23C847.666 120.537 846.521 120.212 845.374 120.319C844.084 120.495 842.949 121.372 841.646 121.484C839.927 121.626 838.383 120.435 836.676 120.379C835.983 120.384 835.299 120.538 834.67 120.83C834.041 121.123 833.482 121.546 833.03 122.073C832.133 123.132 831.467 124.366 831.074 125.698C830.399 127.718 830.03 129.828 829.982 131.958C829.956 133.157 829.845 134.654 828.735 135.101C828.761 135.42 828.761 135.741 828.735 136.06C829.857 135.63 829.969 134.112 829.995 132.908C830.043 130.778 830.411 128.668 831.087 126.648C831.479 125.316 832.146 124.082 833.043 123.023C833.495 122.497 834.054 122.073 834.683 121.78C835.311 121.487 835.996 121.332 836.689 121.325C838.409 121.385 839.957 122.576 841.659 122.43C842.949 122.322 844.093 121.445 845.387 121.269C846.533 121.161 847.678 121.484 848.598 122.176C849.507 122.866 850.304 123.693 850.959 124.627C853.302 127.723 855.207 131.343 855.318 135.226C855.809 135.578 856.509 135.114 856.75 134.563C856.991 134.013 856.999 133.368 857.3 132.844C857.653 132.237 858.332 131.911 858.861 131.455C860.203 130.298 860.538 128.35 860.486 126.583C860.486 126.527 860.486 126.476 860.486 126.42C860.4 127.959 859.992 129.52 858.848 130.505Z" fill="black"/>
<path opacity="0.1" d="M827.106 130.204C826.121 129.116 824.771 128.385 823.864 127.233C823.098 126.215 822.661 124.988 822.613 123.716C822.478 125.307 822.922 126.893 823.864 128.183C824.771 129.335 826.121 130.062 827.106 131.15C828.057 132.213 828.628 133.562 828.731 134.985C828.796 134.12 828.685 133.25 828.406 132.429C828.127 131.607 827.684 130.85 827.106 130.204Z" fill="black"/>
<path opacity="0.1" d="M861.32 117.219C861.067 118.272 860.615 119.274 860.409 120.336C860.285 121.054 860.24 121.784 860.276 122.512C860.29 122.1 860.334 121.691 860.409 121.286C860.615 120.224 861.067 119.222 861.32 118.169C861.466 117.588 861.514 116.986 861.462 116.389C861.435 116.669 861.387 116.946 861.32 117.219V117.219Z" fill="black"/>
</g>
<path opacity="0.1" d="M502.903 143.466H546.533V202.942H506.093C505.99 203.557 505.887 204.168 505.771 204.782H546.533V252.74C546.464 252.74 546.395 252.689 546.331 252.663C545.184 252.207 544.038 251.724 542.891 251.214C542.646 251.102 542.406 250.986 542.156 250.879C541.01 250.337 539.863 249.764 538.717 249.159C538.317 248.948 537.917 248.729 537.526 248.505C531.161 244.953 525.376 240.45 520.371 235.151C520.221 235.009 520.083 234.854 519.941 234.721C519.245 233.964 518.561 233.199 517.899 232.416C517.65 232.128 517.409 231.836 517.164 231.556C516.381 230.602 515.625 229.613 514.894 228.619C514.782 228.469 514.679 228.323 514.571 228.19C511.577 224.046 509.094 219.556 507.176 214.818C507.116 214.676 507.06 214.521 507.004 214.388C506.411 212.883 505.874 211.357 505.409 209.8C505.212 209.151 505.018 208.51 504.855 207.835C504.795 207.642 504.747 207.444 504.696 207.25C502.279 197.727 502 187.829 502 177.979C502 176.832 502 175.686 502 174.539C502.034 170.517 502.082 166.5 502.142 162.487C502.165 161.455 502.186 160.419 502.206 159.379C502.267 156.744 502.353 154.104 502.464 151.459C502.49 150.728 502.525 149.993 502.563 149.266C502.58 148.845 502.602 148.423 502.628 148.002C502.705 146.48 502.797 144.968 502.903 143.466Z" fill="#EA4848"/>
<path opacity="0.1" d="M546.533 77.2434H522.598C526.491 71.1573 530.742 65.3081 535.329 59.7268C538.889 55.3584 542.638 51.1018 546.533 47V77.2434Z" fill="#EA4848"/>
<path opacity="0.1" d="M546.533 79.075V141.626H503.041C503.041 141.445 503.066 141.26 503.084 141.08C503.122 140.585 503.161 140.095 503.204 139.6C503.247 139.024 503.303 138.448 503.359 137.881C503.415 137.313 503.47 136.625 503.539 136.002C503.608 135.378 503.664 134.746 503.733 134.123C503.802 133.499 503.87 132.876 503.948 132.257C504.025 131.638 504.094 131.01 504.18 130.391C504.244 129.879 504.309 129.363 504.382 128.847C504.481 128.121 504.584 127.394 504.691 126.672C504.691 126.56 504.726 126.452 504.743 126.345C505.529 121.057 506.597 115.816 507.942 110.643C509.354 105.217 511.158 99.8999 513.338 94.7341C515.654 89.3215 518.367 84.0875 521.455 79.075H546.533Z" fill="#EA4848"/>
<path opacity="0.1" d="M546.533 110.63V141.626H503.041C503.041 141.445 503.066 141.26 503.084 141.08C503.122 140.585 503.161 140.095 503.204 139.6C503.247 139.024 503.303 138.448 503.359 137.881C503.415 137.313 503.47 136.625 503.539 136.002C503.608 135.378 503.664 134.746 503.733 134.123C503.802 133.499 503.87 132.876 503.948 132.257C504.025 131.638 504.094 131.01 504.18 130.391C504.244 129.879 504.309 129.363 504.382 128.847C504.481 128.121 504.584 127.394 504.691 126.672C504.691 126.56 504.726 126.452 504.743 126.345C505.529 121.058 506.597 115.816 507.942 110.643L546.533 110.63Z" fill="#EA4848"/>
<path opacity="0.1" d="M502.903 143.466H546.533V202.942H506.093C505.99 203.557 505.887 204.168 505.771 204.782H546.533V252.74C546.464 252.74 546.395 252.689 546.331 252.663C545.184 252.207 544.038 251.724 542.891 251.214C542.646 251.102 542.406 250.986 542.156 250.879C541.01 250.337 539.863 249.764 538.717 249.159C538.317 248.948 537.917 248.729 537.526 248.505C531.161 244.953 525.376 240.45 520.371 235.151C520.221 235.009 520.083 234.854 519.941 234.721C519.245 233.964 518.561 233.199 517.899 232.416C517.65 232.128 517.409 231.836 517.164 231.556C516.381 230.602 515.625 229.613 514.894 228.619C514.782 228.469 514.679 228.323 514.571 228.19C511.577 224.046 509.094 219.556 507.176 214.818C507.116 214.676 507.06 214.521 507.004 214.388C506.411 212.883 505.874 211.357 505.409 209.8C505.212 209.151 505.018 208.51 504.855 207.835C504.795 207.642 504.747 207.444 504.696 207.25C502.279 197.727 502 187.829 502 177.979C502 176.832 502 175.686 502 174.539C502.034 170.517 502.082 166.5 502.142 162.487C502.165 161.455 502.186 160.419 502.206 159.379C502.267 156.744 502.353 154.104 502.464 151.459C502.49 150.728 502.525 149.993 502.563 149.266C502.58 148.845 502.602 148.423 502.628 148.002C502.705 146.48 502.797 144.968 502.903 143.466Z" fill="#EA4848"/>
<path opacity="0.1" d="M504.691 126.332V133.327H546.533V126.332H504.691ZM508.858 132.889H505.418V126.775H508.858V132.889ZM513.024 132.889H509.584V126.775H513.024V132.889ZM517.181 132.889H513.742V126.775H517.181V132.889ZM521.347 132.889H517.908V126.775H521.347V132.889ZM525.509 132.889H522.069V126.775H525.509V132.889ZM529.675 132.889H526.236V126.775H529.675V132.889ZM533.841 132.889H530.402V126.775H533.841V132.889ZM538.003 132.889H534.563V126.775H538.003V132.889ZM542.165 132.889H538.725V126.775H542.165V132.889ZM546.331 132.889H542.891V126.775H546.331V132.889Z" fill="#EA4848"/>
<path opacity="0.1" d="M504.691 146.695V153.69H546.533V146.695H504.691ZM508.858 153.252H505.418V147.138H508.858V153.252ZM513.024 153.252H509.584V147.138H513.024V153.252ZM517.181 153.252H513.742V147.138H517.181V153.252ZM521.347 153.252H517.908V147.138H521.347V153.252ZM525.509 153.252H522.069V147.138H525.509V153.252ZM529.675 153.252H526.236V147.138H529.675V153.252ZM533.841 153.252H530.402V147.138H533.841V153.252ZM538.003 153.252H534.563V147.138H538.003V153.252ZM542.165 153.252H538.725V147.138H542.165V153.252ZM546.331 153.252H542.891V147.138H546.331V153.252Z" fill="#EA4848"/>
<path opacity="0.1" d="M504.691 167.062V174.053H546.533V167.062H504.691ZM508.858 173.61H505.418V167.496H508.858V173.61ZM513.024 173.61H509.584V167.496H513.024V173.61ZM517.181 173.61H513.742V167.496H517.181V173.61ZM521.347 173.61H517.908V167.496H521.347V173.61ZM525.509 173.61H522.069V167.496H525.509V173.61ZM529.675 173.61H526.236V167.496H529.675V173.61ZM533.841 173.61H530.402V167.496H533.841V173.61ZM538.003 173.61H534.563V167.496H538.003V173.61ZM542.165 173.61H538.725V167.496H542.165V173.61ZM546.331 173.61H542.891V167.496H546.331V173.61Z" fill="#EA4848"/>
<path opacity="0.1" d="M504.691 187.425V194.416H546.533V187.425H504.691ZM508.858 193.978H505.418V187.855H508.858V193.978ZM513.024 193.978H509.584V187.855H513.024V193.978ZM517.181 193.978H513.742V187.855H517.181V193.978ZM521.347 193.978H517.908V187.855H521.347V193.978ZM525.509 193.978H522.069V187.855H525.509V193.978ZM529.675 193.978H526.236V187.855H529.675V193.978ZM533.841 193.978H530.402V187.855H533.841V193.978ZM538.003 193.978H534.563V187.855H538.003V193.978ZM542.165 193.978H538.725V187.855H542.165V193.978ZM546.331 193.978H542.891V187.855H546.331V193.978Z" fill="#EA4848"/>
<path opacity="0.1" d="M504.894 207.779C505.057 208.441 505.25 209.095 505.448 209.744V208.222H508.888V214.332H507.043C507.095 214.478 507.151 214.629 507.211 214.762H546.55V207.779H504.894ZM513.062 214.332H509.623V208.222H513.062V214.332ZM517.22 214.332H513.78V208.222H517.22V214.332ZM521.386 214.332H517.946V208.222H521.386V214.332ZM525.548 214.332H522.108V208.222H525.548V214.332ZM529.714 214.332H526.274V208.222H529.714V214.332ZM533.88 214.332H530.44V208.222H533.88V214.332ZM538.042 214.332H534.602V208.222H538.042V214.332ZM542.204 214.332H538.764V208.222H542.204V214.332ZM546.37 214.332H542.93V208.222H546.37V214.332Z" fill="#EA4848"/>
<path opacity="0.1" d="M514.584 228.142C514.696 228.28 514.799 228.435 514.907 228.572H517.181V231.509L517.916 232.369V228.555H521.356V234.721H519.941C520.079 234.863 520.212 235.013 520.371 235.151H546.524V228.142H514.584ZM525.53 234.721H522.091V228.581H525.53V234.721ZM529.697 234.721H526.257V228.581H529.697V234.721ZM533.863 234.721H530.423V228.581H533.863V234.721ZM538.024 234.721H534.585V228.581H538.024V234.721ZM542.186 234.721H538.747V228.581H542.186V234.721ZM546.352 234.721H542.913V228.581H546.352V234.721Z" fill="#EA4848"/>
<path opacity="0.1" d="M59.9029 146.466H103.533V205.942H63.093C62.9898 206.557 62.8866 207.168 62.7706 207.782H103.533V255.74C103.464 255.74 103.395 255.689 103.331 255.663C102.184 255.207 101.038 254.724 99.8914 254.214C99.6464 254.102 99.4056 253.986 99.1562 253.879C98.0097 253.337 96.8632 252.764 95.7167 252.159C95.3169 251.948 94.917 251.729 94.5258 251.505C88.1609 247.953 82.3759 243.45 77.3713 238.151C77.2208 238.009 77.0832 237.854 76.9413 237.721C76.2448 236.964 75.5612 236.199 74.8991 235.416C74.6497 235.128 74.409 234.836 74.1639 234.556C73.3814 233.602 72.6247 232.613 71.8938 231.619C71.7821 231.469 71.6789 231.323 71.5714 231.19C68.5773 227.046 66.0943 222.556 64.1765 217.818C64.1163 217.676 64.0604 217.521 64.0045 217.388C63.4112 215.883 62.8737 214.357 62.4094 212.8C62.2116 212.151 62.0182 211.51 61.8548 210.835C61.7946 210.642 61.7473 210.444 61.6957 210.25C59.2795 200.727 59 190.829 59 180.979C59 179.832 59 178.686 59 177.539C59.0344 173.517 59.0817 169.5 59.1419 165.487C59.1648 164.455 59.1863 163.419 59.2064 162.379C59.2666 159.744 59.3526 157.104 59.4643 154.459C59.4901 153.728 59.5245 152.993 59.5632 152.266C59.5804 151.845 59.6019 151.423 59.6277 151.002C59.7051 149.48 59.7968 147.968 59.9029 146.466Z" fill="#EA4848"/>
<path opacity="0.1" d="M103.533 80.2434H79.5984C83.4909 74.1573 87.7418 68.3081 92.3289 62.7268C95.8887 58.3584 99.6378 54.1018 103.533 50V80.2434Z" fill="#EA4848"/>
<path opacity="0.1" d="M103.533 82.075V144.626H60.0405C60.0405 144.445 60.0663 144.26 60.0835 144.08C60.1222 143.585 60.1609 143.095 60.2039 142.6C60.2469 142.024 60.3028 141.448 60.3587 140.881C60.4146 140.313 60.4705 139.625 60.5393 139.002C60.608 138.378 60.6639 137.746 60.7327 137.123C60.8015 136.499 60.8703 135.876 60.9477 135.257C61.0251 134.638 61.0939 134.01 61.1799 133.391C61.2444 132.879 61.3088 132.363 61.3819 131.847C61.4808 131.121 61.584 130.394 61.6915 129.672C61.6915 129.56 61.7259 129.452 61.7431 129.345C62.5289 124.057 63.5966 118.816 64.9418 113.643C66.3545 108.217 68.1577 102.9 70.3375 97.7341C72.6538 92.3215 75.3669 87.0875 78.4548 82.075H103.533Z" fill="#EA4848"/>
<path opacity="0.1" d="M103.533 113.63V144.626H60.0405C60.0405 144.445 60.0663 144.26 60.0835 144.08C60.1222 143.585 60.1609 143.095 60.2039 142.6C60.2469 142.024 60.3028 141.448 60.3587 140.881C60.4146 140.313 60.4705 139.625 60.5393 139.002C60.608 138.378 60.6639 137.746 60.7327 137.123C60.8015 136.499 60.8703 135.876 60.9477 135.257C61.0251 134.638 61.0939 134.01 61.1799 133.391C61.2444 132.879 61.3088 132.363 61.3819 131.847C61.4808 131.121 61.584 130.394 61.6915 129.672C61.6915 129.56 61.7259 129.452 61.7431 129.345C62.5289 124.058 63.5966 118.816 64.9418 113.643L103.533 113.63Z" fill="#EA4848"/>
<path opacity="0.1" d="M59.9029 146.466H103.533V205.942H63.093C62.9898 206.557 62.8866 207.168 62.7706 207.782H103.533V255.74C103.464 255.74 103.395 255.689 103.331 255.663C102.184 255.207 101.038 254.724 99.8914 254.214C99.6464 254.102 99.4056 253.986 99.1562 253.879C98.0097 253.337 96.8632 252.764 95.7167 252.159C95.3169 251.948 94.917 251.729 94.5258 251.505C88.1609 247.953 82.3759 243.45 77.3713 238.151C77.2208 238.009 77.0832 237.854 76.9413 237.721C76.2448 236.964 75.5612 236.199 74.8991 235.416C74.6497 235.128 74.409 234.836 74.1639 234.556C73.3814 233.602 72.6247 232.613 71.8938 231.619C71.7821 231.469 71.6789 231.323 71.5714 231.19C68.5773 227.046 66.0943 222.556 64.1765 217.818C64.1163 217.676 64.0604 217.521 64.0045 217.388C63.4112 215.883 62.8737 214.357 62.4094 212.8C62.2116 212.151 62.0182 211.51 61.8548 210.835C61.7946 210.642 61.7473 210.444 61.6957 210.25C59.2795 200.727 59 190.829 59 180.979C59 179.832 59 178.686 59 177.539C59.0344 173.517 59.0817 169.5 59.1419 165.487C59.1648 164.455 59.1863 163.419 59.2064 162.379C59.2666 159.744 59.3526 157.104 59.4643 154.459C59.4901 153.728 59.5245 152.993 59.5632 152.266C59.5804 151.845 59.6019 151.423 59.6277 151.002C59.7051 149.48 59.7968 147.968 59.9029 146.466Z" fill="#EA4848"/>
<path opacity="0.1" d="M61.6914 129.332V136.327H103.533V129.332H61.6914ZM65.8575 135.889H62.418V129.775H65.8575V135.889ZM70.0236 135.889H66.5841V129.775H70.0236V135.889ZM74.1811 135.889H70.7416V129.775H74.1811V135.889ZM78.3472 135.889H74.9077V129.775H78.3472V135.889ZM82.509 135.889H79.0695V129.775H82.509V135.889ZM86.6751 135.889H83.2356V129.775H86.6751V135.889ZM90.8412 135.889H87.4017V129.775H90.8412V135.889ZM95.003 135.889H91.5635V129.775H95.003V135.889ZM99.1648 135.889H95.7253V129.775H99.1648V135.889ZM103.331 135.889H99.8914V129.775H103.331V135.889Z" fill="#EA4848"/>
<path opacity="0.1" d="M61.6914 149.695V156.69H103.533V149.695H61.6914ZM65.8575 156.252H62.418V150.138H65.8575V156.252ZM70.0236 156.252H66.5841V150.138H70.0236V156.252ZM74.1811 156.252H70.7416V150.138H74.1811V156.252ZM78.3472 156.252H74.9077V150.138H78.3472V156.252ZM82.509 156.252H79.0695V150.138H82.509V156.252ZM86.6751 156.252H83.2356V150.138H86.6751V156.252ZM90.8412 156.252H87.4017V150.138H90.8412V156.252ZM95.003 156.252H91.5635V150.138H95.003V156.252ZM99.1648 156.252H95.7253V150.138H99.1648V156.252ZM103.331 156.252H99.8914V150.138H103.331V156.252Z" fill="#EA4848"/>
<path opacity="0.1" d="M61.6914 170.062V177.053H103.533V170.062H61.6914ZM65.8575 176.61H62.418V170.496H65.8575V176.61ZM70.0236 176.61H66.5841V170.496H70.0236V176.61ZM74.1811 176.61H70.7416V170.496H74.1811V176.61ZM78.3472 176.61H74.9077V170.496H78.3472V176.61ZM82.509 176.61H79.0695V170.496H82.509V176.61ZM86.6751 176.61H83.2356V170.496H86.6751V176.61ZM90.8412 176.61H87.4017V170.496H90.8412V176.61ZM95.003 176.61H91.5635V170.496H95.003V176.61ZM99.1648 176.61H95.7253V170.496H99.1648V176.61ZM103.331 176.61H99.8914V170.496H103.331V176.61Z" fill="#EA4848"/>
<path opacity="0.1" d="M61.6914 190.425V197.416H103.533V190.425H61.6914ZM65.8575 196.978H62.418V190.855H65.8575V196.978ZM70.0236 196.978H66.5841V190.855H70.0236V196.978ZM74.1811 196.978H70.7416V190.855H74.1811V196.978ZM78.3472 196.978H74.9077V190.855H78.3472V196.978ZM82.509 196.978H79.0695V190.855H82.509V196.978ZM86.6751 196.978H83.2356V190.855H86.6751V196.978ZM90.8412 196.978H87.4017V190.855H90.8412V196.978ZM95.003 196.978H91.5635V190.855H95.003V196.978ZM99.1648 196.978H95.7253V190.855H99.1648V196.978ZM103.331 196.978H99.8914V190.855H103.331V196.978Z" fill="#EA4848"/>
<path opacity="0.1" d="M61.8936 210.779C62.0569 211.441 62.2504 212.095 62.4482 212.744V211.222H65.8877V217.332H64.0432C64.0948 217.478 64.1507 217.629 64.2109 217.762H103.55V210.779H61.8936ZM70.0624 217.332H66.6229V211.222H70.0624V217.332ZM74.2199 217.332H70.7804V211.222H74.2199V217.332ZM78.386 217.332H74.9465V211.222H78.386V217.332ZM82.5478 217.332H79.1083V211.222H82.5478V217.332ZM86.7139 217.332H83.2744V211.222H86.7139V217.332ZM90.88 217.332H87.4405V211.222H90.88V217.332ZM95.0418 217.332H91.6023V211.222H95.0418V217.332ZM99.2036 217.332H95.7641V211.222H99.2036V217.332ZM103.37 217.332H99.9302V211.222H103.37V217.332Z" fill="#EA4848"/>
<path opacity="0.1" d="M71.5842 231.142C71.696 231.28 71.7992 231.435 71.9067 231.572H74.1811V234.509L74.9162 235.369V231.555H78.3558V237.721H76.9413C77.0788 237.863 77.2121 238.013 77.3712 238.151H103.524V231.142H71.5842ZM82.5305 237.721H79.0909V231.581H82.5305V237.721ZM86.6966 237.721H83.2571V231.581H86.6966V237.721ZM90.8627 237.721H87.4232V231.581H90.8627V237.721ZM95.0245 237.721H91.585V231.581H95.0245V237.721ZM99.1863 237.721H95.7468V231.581H99.1863V237.721ZM103.352 237.721H99.9129V231.581H103.352V237.721Z" fill="#EA4848"/>
<defs>
<linearGradient id="paint0_linear" x1="191.241" y1="362.387" x2="191.241" y2="114.021" gradientUnits="userSpaceOnUse">
<stop stop-color="#808080" stop-opacity="0.25"/>
<stop offset="0.54" stop-color="#808080" stop-opacity="0.12"/>
<stop offset="1" stop-color="#808080" stop-opacity="0.1"/>
</linearGradient>
<linearGradient id="paint1_linear" x1="82277.3" y1="232760" x2="82277.3" y2="69967.2" gradientUnits="userSpaceOnUse">
<stop stop-color="#808080" stop-opacity="0.25"/>
<stop offset="0.54" stop-color="#808080" stop-opacity="0.12"/>
<stop offset="1" stop-color="#808080" stop-opacity="0.1"/>
</linearGradient>
</defs>
</svg>
