<svg width="91" height="148" viewBox="0 0 91 148" fill="none" xmlns="http://www.w3.org/2000/svg">
<path d="M83.7868 12.9338C87.3584 12.9338 90.2537 10.0385 90.2537 6.46689C90.2537 2.89533 87.3584 0 83.7868 0C80.2152 0 77.3199 2.89533 77.3199 6.46689C77.3199 10.0385 80.2152 12.9338 83.7868 12.9338Z" fill="#DFDFDF"/>
<path d="M58.0135 12.9338C61.5851 12.9338 64.4804 10.0385 64.4804 6.46689C64.4804 2.89533 61.5851 0 58.0135 0C54.4419 0 51.5466 2.89533 51.5466 6.46689C51.5466 10.0385 54.4419 12.9338 58.0135 12.9338Z" fill="#DFDFDF"/>
<path d="M32.2402 12.9338C35.8117 12.9338 38.7071 10.0385 38.7071 6.46689C38.7071 2.89533 35.8117 0 32.2402 0C28.6686 0 25.7733 2.89533 25.7733 6.46689C25.7733 10.0385 28.6686 12.9338 32.2402 12.9338Z" fill="#DFDFDF"/>
<path d="M6.46692 12.9338C10.0385 12.9338 12.9338 10.0385 12.9338 6.46689C12.9338 2.89533 10.0385 0 6.46692 0C2.89535 0 0 2.89533 0 6.46689C0 10.0385 2.89535 12.9338 6.46692 12.9338Z" fill="#DFDFDF"/>
<path d="M83.7868 39.9338C87.3584 39.9338 90.2537 37.0385 90.2537 33.4669C90.2537 29.8953 87.3584 27 83.7868 27C80.2152 27 77.3199 29.8953 77.3199 33.4669C77.3199 37.0385 80.2152 39.9338 83.7868 39.9338Z" fill="#DFDFDF"/>
<path d="M58.0135 39.9338C61.5851 39.9338 64.4804 37.0385 64.4804 33.4669C64.4804 29.8953 61.5851 27 58.0135 27C54.4419 27 51.5466 29.8953 51.5466 33.4669C51.5466 37.0385 54.4419 39.9338 58.0135 39.9338Z" fill="#DFDFDF"/>
<path d="M32.2402 39.9338C35.8117 39.9338 38.7071 37.0385 38.7071 33.4669C38.7071 29.8953 35.8117 27 32.2402 27C28.6686 27 25.7733 29.8953 25.7733 33.4669C25.7733 37.0385 28.6686 39.9338 32.2402 39.9338Z" fill="#DFDFDF"/>
<path d="M6.46692 39.9338C10.0385 39.9338 12.9338 37.0385 12.9338 33.4669C12.9338 29.8953 10.0385 27 6.46692 27C2.89535 27 0 29.8953 0 33.4669C0 37.0385 2.89535 39.9338 6.46692 39.9338Z" fill="#DFDFDF"/>
<path d="M83.7868 66.9338C87.3584 66.9338 90.2537 64.0385 90.2537 60.4669C90.2537 56.8953 87.3584 54 83.7868 54C80.2152 54 77.3199 56.8953 77.3199 60.4669C77.3199 64.0385 80.2152 66.9338 83.7868 66.9338Z" fill="#DFDFDF"/>
<path d="M58.0135 66.9338C61.5851 66.9338 64.4804 64.0385 64.4804 60.4669C64.4804 56.8953 61.5851 54 58.0135 54C54.4419 54 51.5466 56.8953 51.5466 60.4669C51.5466 64.0385 54.4419 66.9338 58.0135 66.9338Z" fill="#DFDFDF"/>
<path d="M32.2402 66.9338C35.8117 66.9338 38.7071 64.0385 38.7071 60.4669C38.7071 56.8953 35.8117 54 32.2402 54C28.6686 54 25.7733 56.8953 25.7733 60.4669C25.7733 64.0385 28.6686 66.9338 32.2402 66.9338Z" fill="#DFDFDF"/>
<path d="M6.46692 66.9338C10.0385 66.9338 12.9338 64.0385 12.9338 60.4669C12.9338 56.8953 10.0385 54 6.46692 54C2.89535 54 0 56.8953 0 60.4669C0 64.0385 2.89535 66.9338 6.46692 66.9338Z" fill="#DFDFDF"/>
<path d="M83.7868 93.9338C87.3584 93.9338 90.2537 91.0385 90.2537 87.4669C90.2537 83.8953 87.3584 81 83.7868 81C80.2152 81 77.3199 83.8953 77.3199 87.4669C77.3199 91.0385 80.2152 93.9338 83.7868 93.9338Z" fill="#DFDFDF"/>
<path d="M58.0135 93.9338C61.5851 93.9338 64.4804 91.0385 64.4804 87.4669C64.4804 83.8953 61.5851 81 58.0135 81C54.4419 81 51.5466 83.8953 51.5466 87.4669C51.5466 91.0385 54.4419 93.9338 58.0135 93.9338Z" fill="#DFDFDF"/>
<path d="M32.2402 93.9338C35.8117 93.9338 38.7071 91.0385 38.7071 87.4669C38.7071 83.8953 35.8117 81 32.2402 81C28.6686 81 25.7733 83.8953 25.7733 87.4669C25.7733 91.0385 28.6686 93.9338 32.2402 93.9338Z" fill="#DFDFDF"/>
<path d="M6.46692 93.9338C10.0385 93.9338 12.9338 91.0385 12.9338 87.4669C12.9338 83.8953 10.0385 81 6.46692 81C2.89535 81 0 83.8953 0 87.4669C0 91.0385 2.89535 93.9338 6.46692 93.9338Z" fill="#DFDFDF"/>
<path d="M83.7868 120.934C87.3584 120.934 90.2537 118.038 90.2537 114.467C90.2537 110.895 87.3584 108 83.7868 108C80.2152 108 77.3199 110.895 77.3199 114.467C77.3199 118.038 80.2152 120.934 83.7868 120.934Z" fill="#DFDFDF"/>
<path d="M58.0135 120.934C61.5851 120.934 64.4804 118.038 64.4804 114.467C64.4804 110.895 61.5851 108 58.0135 108C54.4419 108 51.5466 110.895 51.5466 114.467C51.5466 118.038 54.4419 120.934 58.0135 120.934Z" fill="#DFDFDF"/>
<path d="M32.2402 120.934C35.8117 120.934 38.7071 118.038 38.7071 114.467C38.7071 110.895 35.8117 108 32.2402 108C28.6686 108 25.7733 110.895 25.7733 114.467C25.7733 118.038 28.6686 120.934 32.2402 120.934Z" fill="#DFDFDF"/>
<path d="M6.46692 120.934C10.0385 120.934 12.9338 118.038 12.9338 114.467C12.9338 110.895 10.0385 108 6.46692 108C2.89535 108 0 110.895 0 114.467C0 118.038 2.89535 120.934 6.46692 120.934Z" fill="#DFDFDF"/>
<path d="M83.7868 147.934C87.3584 147.934 90.2537 145.038 90.2537 141.467C90.2537 137.895 87.3584 135 83.7868 135C80.2152 135 77.3199 137.895 77.3199 141.467C77.3199 145.038 80.2152 147.934 83.7868 147.934Z" fill="#DFDFDF"/>
<path d="M58.0135 147.934C61.5851 147.934 64.4804 145.038 64.4804 141.467C64.4804 137.895 61.5851 135 58.0135 135C54.4419 135 51.5466 137.895 51.5466 141.467C51.5466 145.038 54.4419 147.934 58.0135 147.934Z" fill="#DFDFDF"/>
<path d="M32.2402 147.934C35.8117 147.934 38.7071 145.038 38.7071 141.467C38.7071 137.895 35.8117 135 32.2402 135C28.6686 135 25.7733 137.895 25.7733 141.467C25.7733 145.038 28.6686 147.934 32.2402 147.934Z" fill="#DFDFDF"/>
<path d="M6.46692 147.934C10.0385 147.934 12.9338 145.038 12.9338 141.467C12.9338 137.895 10.0385 135 6.46692 135C2.89535 135 0 137.895 0 141.467C0 145.038 2.89535 147.934 6.46692 147.934Z" fill="#DFDFDF"/>
</svg>
