<svg width="148" height="91" viewBox="0 0 148 91" fill="none" xmlns="http://www.w3.org/2000/svg">
<path d="M6.46689 12.9338C10.0385 12.9338 12.9338 10.0385 12.9338 6.46689C12.9338 2.89533 10.0385 0 6.46689 0C2.89532 0 0 2.89533 0 6.46689C0 10.0385 2.89532 12.9338 6.46689 12.9338Z" fill="#DFDFDF"/>
<path d="M6.46689 38.7067C10.0385 38.7067 12.9338 35.8114 12.9338 32.2398C12.9338 28.6683 10.0385 25.7729 6.46689 25.7729C2.89532 25.7729 0 28.6683 0 32.2398C0 35.8114 2.89532 38.7067 6.46689 38.7067Z" fill="#DFDFDF"/>
<path d="M6.46689 64.4802C10.0385 64.4802 12.9338 61.5848 12.9338 58.0133C12.9338 54.4417 10.0385 51.5464 6.46689 51.5464C2.89532 51.5464 0 54.4417 0 58.0133C0 61.5848 2.89532 64.4802 6.46689 64.4802Z" fill="#DFDFDF"/>
<path d="M6.46689 90.2536C10.0385 90.2536 12.9338 87.3583 12.9338 83.7867C12.9338 80.2152 10.0385 77.3198 6.46689 77.3198C2.89532 77.3198 0 80.2152 0 83.7867C0 87.3583 2.89532 90.2536 6.46689 90.2536Z" fill="#DFDFDF"/>
<path d="M33.4669 12.9338C37.0385 12.9338 39.9338 10.0385 39.9338 6.46689C39.9338 2.89533 37.0385 0 33.4669 0C29.8953 0 27 2.89533 27 6.46689C27 10.0385 29.8953 12.9338 33.4669 12.9338Z" fill="#DFDFDF"/>
<path d="M33.4669 38.7067C37.0385 38.7067 39.9338 35.8114 39.9338 32.2398C39.9338 28.6683 37.0385 25.7729 33.4669 25.7729C29.8953 25.7729 27 28.6683 27 32.2398C27 35.8114 29.8953 38.7067 33.4669 38.7067Z" fill="#DFDFDF"/>
<path d="M33.4669 64.4802C37.0385 64.4802 39.9338 61.5848 39.9338 58.0133C39.9338 54.4417 37.0385 51.5464 33.4669 51.5464C29.8953 51.5464 27 54.4417 27 58.0133C27 61.5848 29.8953 64.4802 33.4669 64.4802Z" fill="#DFDFDF"/>
<path d="M33.4669 90.2536C37.0385 90.2536 39.9338 87.3583 39.9338 83.7867C39.9338 80.2152 37.0385 77.3198 33.4669 77.3198C29.8953 77.3198 27 80.2152 27 83.7867C27 87.3583 29.8953 90.2536 33.4669 90.2536Z" fill="#DFDFDF"/>
<path d="M60.4669 12.9338C64.0385 12.9338 66.9338 10.0385 66.9338 6.46689C66.9338 2.89533 64.0385 0 60.4669 0C56.8953 0 54 2.89533 54 6.46689C54 10.0385 56.8953 12.9338 60.4669 12.9338Z" fill="#DFDFDF"/>
<path d="M60.4669 38.7067C64.0385 38.7067 66.9338 35.8114 66.9338 32.2398C66.9338 28.6683 64.0385 25.7729 60.4669 25.7729C56.8953 25.7729 54 28.6683 54 32.2398C54 35.8114 56.8953 38.7067 60.4669 38.7067Z" fill="#DFDFDF"/>
<path d="M60.4669 64.4802C64.0385 64.4802 66.9338 61.5848 66.9338 58.0133C66.9338 54.4417 64.0385 51.5464 60.4669 51.5464C56.8953 51.5464 54 54.4417 54 58.0133C54 61.5848 56.8953 64.4802 60.4669 64.4802Z" fill="#DFDFDF"/>
<path d="M60.4669 90.2536C64.0385 90.2536 66.9338 87.3583 66.9338 83.7867C66.9338 80.2152 64.0385 77.3198 60.4669 77.3198C56.8953 77.3198 54 80.2152 54 83.7867C54 87.3583 56.8953 90.2536 60.4669 90.2536Z" fill="#DFDFDF"/>
<path d="M87.4669 12.9338C91.0385 12.9338 93.9338 10.0385 93.9338 6.46689C93.9338 2.89533 91.0385 0 87.4669 0C83.8953 0 81 2.89533 81 6.46689C81 10.0385 83.8953 12.9338 87.4669 12.9338Z" fill="#DFDFDF"/>
<path d="M87.4669 38.7067C91.0385 38.7067 93.9338 35.8114 93.9338 32.2398C93.9338 28.6683 91.0385 25.7729 87.4669 25.7729C83.8953 25.7729 81 28.6683 81 32.2398C81 35.8114 83.8953 38.7067 87.4669 38.7067Z" fill="#DFDFDF"/>
<path d="M87.4669 64.4802C91.0385 64.4802 93.9338 61.5848 93.9338 58.0133C93.9338 54.4417 91.0385 51.5464 87.4669 51.5464C83.8953 51.5464 81 54.4417 81 58.0133C81 61.5848 83.8953 64.4802 87.4669 64.4802Z" fill="#DFDFDF"/>
<path d="M87.4669 90.2536C91.0385 90.2536 93.9338 87.3583 93.9338 83.7867C93.9338 80.2152 91.0385 77.3198 87.4669 77.3198C83.8953 77.3198 81 80.2152 81 83.7867C81 87.3583 83.8953 90.2536 87.4669 90.2536Z" fill="#DFDFDF"/>
<path d="M114.467 12.9338C118.038 12.9338 120.934 10.0385 120.934 6.46689C120.934 2.89533 118.038 0 114.467 0C110.895 0 108 2.89533 108 6.46689C108 10.0385 110.895 12.9338 114.467 12.9338Z" fill="#DFDFDF"/>
<path d="M114.467 38.7067C118.038 38.7067 120.934 35.8114 120.934 32.2398C120.934 28.6683 118.038 25.7729 114.467 25.7729C110.895 25.7729 108 28.6683 108 32.2398C108 35.8114 110.895 38.7067 114.467 38.7067Z" fill="#DFDFDF"/>
<path d="M114.467 64.4802C118.038 64.4802 120.934 61.5848 120.934 58.0133C120.934 54.4417 118.038 51.5464 114.467 51.5464C110.895 51.5464 108 54.4417 108 58.0133C108 61.5848 110.895 64.4802 114.467 64.4802Z" fill="#DFDFDF"/>
<path d="M114.467 90.2536C118.038 90.2536 120.934 87.3583 120.934 83.7867C120.934 80.2152 118.038 77.3198 114.467 77.3198C110.895 77.3198 108 80.2152 108 83.7867C108 87.3583 110.895 90.2536 114.467 90.2536Z" fill="#DFDFDF"/>
<path d="M141.467 12.9338C145.038 12.9338 147.934 10.0385 147.934 6.46689C147.934 2.89533 145.038 0 141.467 0C137.895 0 135 2.89533 135 6.46689C135 10.0385 137.895 12.9338 141.467 12.9338Z" fill="#DFDFDF"/>
<path d="M141.467 38.7067C145.038 38.7067 147.934 35.8114 147.934 32.2398C147.934 28.6683 145.038 25.7729 141.467 25.7729C137.895 25.7729 135 28.6683 135 32.2398C135 35.8114 137.895 38.7067 141.467 38.7067Z" fill="#DFDFDF"/>
<path d="M141.467 64.4802C145.038 64.4802 147.934 61.5848 147.934 58.0133C147.934 54.4417 145.038 51.5464 141.467 51.5464C137.895 51.5464 135 54.4417 135 58.0133C135 61.5848 137.895 64.4802 141.467 64.4802Z" fill="#DFDFDF"/>
<path d="M141.467 90.2536C145.038 90.2536 147.934 87.3583 147.934 83.7867C147.934 80.2152 145.038 77.3198 141.467 77.3198C137.895 77.3198 135 80.2152 135 83.7867C135 87.3583 137.895 90.2536 141.467 90.2536Z" fill="#DFDFDF"/>
</svg>
