<svg width="913" height="371" viewBox="0 0 913 371" fill="none" xmlns="http://www.w3.org/2000/svg">
<path opacity="0.1" d="M55 148.411V207.888H148.193V148.411H55ZM55 209.728V260.807C55.5331 260.915 56.0576 261.022 56.5865 261.113C57.2959 261.25 58.0096 261.375 58.7362 261.482L59.1661 261.542C59.4499 261.59 59.7379 261.628 60.026 261.663C60.744 261.766 61.462 261.843 62.1757 261.912C62.511 261.947 62.8593 261.972 63.1989 262.003L64.0287 262.063C64.4801 262.097 64.9273 262.123 65.3744 262.14C65.6496 262.14 65.9247 262.162 66.2042 262.17C66.4836 262.179 66.6341 262.17 66.8577 262.17H67.6703C68.04 262.17 68.4098 262.17 68.7752 262.17H69.2481C69.6179 262.17 69.9876 262.17 70.3531 262.136H70.3746C70.6326 262.136 70.8862 262.136 71.1442 262.106C71.2172 262.11 71.2904 262.11 71.3634 262.106C71.5784 262.106 71.7934 262.106 71.9998 262.08C72.0484 262.076 72.0973 262.076 72.1459 262.08C72.6232 262.05 73.1047 262.011 73.5905 261.968C74.0763 261.925 74.5364 261.874 75.0222 261.822L75.9982 261.702C79.9863 261.143 83.93 260.304 87.8 259.191C96.4976 256.766 104.998 253.373 113.691 250.892C124.921 247.689 137.337 246.111 148.189 250.011V209.728H55ZM148.193 82.1888V3.00725C137.991 2.895 127.817 4.08704 117.917 6.55442C94.3178 12.4836 73.1262 25.3437 55 41.7682V82.1845H59.6906V84.0204H55V146.571H148.193V84.0204H78.8788V82.1802L148.193 82.1888ZM267.923 55.4409C262.084 55.2346 256.28 53.39 251.026 50.5308C240.991 45.0746 232.969 36.6388 224.009 29.5272C205.392 14.7065 182.305 5.75899 158.619 3.5404V82.1888H291.647L291.978 81.8405L267.923 55.4409ZM280.043 53.2911L292.893 67.3981V49.5806C288.568 50.1266 284.802 51.395 280.043 53.2739V53.2911ZM292.893 273.491V209.728H265.489C265.42 209.457 265.343 209.182 265.257 208.907C265.339 209.182 265.412 209.457 265.485 209.728H158.619V255.837C159.634 256.589 160.636 257.385 161.629 258.185C162.701 259.062 163.766 259.949 164.823 260.846L165.89 261.727C166.401 262.157 166.921 262.587 167.437 262.996C168.472 263.83 169.514 264.655 170.563 265.472C171.088 265.885 171.615 266.291 172.145 266.689C180.543 273.107 189.4 278.9 198.647 284.021C200.719 285.177 202.813 286.291 204.919 287.379C206.321 288.101 207.733 288.809 209.154 289.503C211.287 290.543 213.436 291.547 215.603 292.513C235.581 301.481 256.706 307.633 278.374 310.794C283.184 311.502 288.015 312.061 292.868 312.471V273.483H293.297L292.893 273.491ZM158.619 84.0204V146.571H292.893V84.0204H158.619ZM158.619 148.403V207.888H292.893V148.411L158.619 148.403ZM303.315 49.4946V69.4018L319.713 51.3993C314.278 50.5021 308.813 49.8672 303.315 49.4946ZM303.315 148.411V207.888H433.909V148.411H303.315ZM433.449 278.208L433.909 209.728H303.315V313.164C311.727 313.513 320.151 313.411 328.552 312.858H328.699C332.711 312.6 336.705 312.233 340.681 311.758H340.771C361.987 309.288 382.73 303.747 402.351 295.307L433.449 278.208ZM459.103 158.18C458.607 157.033 458.098 155.887 457.577 154.74C456.605 152.591 455.582 150.501 454.524 148.416H444.335V207.888H470.092C470.071 191.042 465.806 173.843 459.103 158.18V158.18ZM444.335 209.728V268.633C451.588 261.68 457.723 253.722 462.134 244.624C467.444 233.664 469.873 221.806 470.075 209.724L444.335 209.728ZM444.335 131.08V146.558H453.57C450.77 141.237 447.688 136.07 444.335 131.08V131.08ZM355.768 61.168C355.088 60.9057 354.405 60.6435 353.721 60.3941C346.513 57.7301 339.147 55.5158 331.665 53.7641L306.565 81.3074L306.075 81.8362L306.398 82.1845H395.73C383.288 73.6223 369.873 66.5674 355.768 61.168V61.168ZM398.353 84.0204H305.147L303.315 85.693V146.571H319.373H433.909V117.076C423.552 104.551 411.598 93.4376 398.353 84.0204V84.0204Z" fill="#EA4848"/>
<path opacity="0.1" d="M292.893 148.407V207.888H158.619V182.232H230.14V197.367H265.837V148.407H292.893Z" fill="#EA4848"/>
<path opacity="0.1" d="M293.319 273.504C293.177 273.504 293.035 273.504 292.889 273.478V312.497C288.042 312.099 283.213 311.541 278.4 310.825C256.724 307.664 235.591 301.515 215.603 292.551C209.834 289.949 204.181 287.112 198.647 284.042C189.403 278.919 180.547 273.126 172.15 266.711C170.034 265.094 167.95 263.441 165.898 261.753C164.475 260.575 163.065 259.371 161.629 258.206C160.64 257.402 159.638 256.607 158.619 255.85V209.728H265.485C265.407 209.453 265.339 209.182 265.261 208.907C265.343 209.182 265.42 209.453 265.489 209.728H292.893V273.474C293.035 273.478 293.177 273.491 293.319 273.504Z" fill="#EA4848"/>
<path opacity="0.1" d="M220.733 206.508H158.619V207.888H220.733V206.508Z" fill="#EA4848"/>
<path opacity="0.1" d="M220.733 209.724H158.619V215.012H220.733V209.724Z" fill="#EA4848"/>
<path opacity="0.1" d="M220.733 232.348H158.619V240.853H220.733V232.348Z" fill="#EA4848"/>
<path opacity="0.1" d="M292.889 273.474H293.319H292.889ZM265.257 208.907C265.338 209.182 265.412 209.457 265.485 209.728C265.42 209.457 265.343 209.182 265.257 208.907ZM59.6904 82.1888V84.0204H78.8958V82.1802L59.6904 82.1888ZM292.893 273.474H293.323H292.893ZM265.257 208.907C265.338 209.182 265.412 209.457 265.485 209.728C265.42 209.457 265.343 209.182 265.257 208.907ZM292.889 273.474H293.319H292.889ZM265.257 208.907C265.338 209.182 265.412 209.457 265.485 209.728C265.42 209.457 265.343 209.182 265.257 208.907Z" fill="#EA4848"/>
<g opacity="0.1">
<path opacity="0.1" d="M190.848 143.17C189.971 145.242 189.595 147.491 189.751 149.736C189.847 148.131 190.218 146.554 190.848 145.075C191.858 142.714 193.492 140.659 194.489 138.294C195.304 136.32 195.648 134.182 195.491 132.051C195.402 133.545 195.064 135.013 194.489 136.394C193.492 138.759 191.858 140.81 190.848 143.17Z" fill="black"/>
<path opacity="0.1" d="M146.327 146.489C146.353 148.175 146.379 149.865 146.383 151.55C146.383 149.228 146.362 146.911 146.327 144.593C146.293 142.19 146.25 139.756 145.601 137.439C145.171 135.968 144.534 134.476 144.311 132.993C143.928 135.1 145.016 137.237 145.601 139.339C146.25 141.635 146.293 144.086 146.327 146.489Z" fill="black"/>
<path opacity="0.1" d="M193.401 167.433C192.111 167.781 190.787 167.704 189.467 167.695C186.443 167.676 183.429 168.055 180.503 168.822C179.023 169.276 177.52 169.655 176.002 169.957C174.248 170.174 172.476 170.221 170.713 170.094C161.857 169.746 152.875 169.372 144.393 166.839C144.141 167.402 143.854 167.947 143.533 168.473C152.273 171.251 161.569 171.633 170.731 171.99C172.494 172.117 174.265 172.071 176.019 171.853C177.532 171.554 179.029 171.176 180.503 170.722C183.423 169.952 186.431 169.569 189.45 169.583C190.77 169.583 192.111 169.664 193.384 169.316C194.657 168.968 195.882 168.095 196.226 166.822C196.371 166.233 196.356 165.615 196.183 165.034C195.8 166.237 194.618 167.076 193.401 167.433Z" fill="black"/>
</g>
<path opacity="0.1" d="M122.893 370.038C146.03 370.038 164.786 367.026 164.786 363.309C164.786 359.593 146.03 356.58 122.893 356.58C99.7562 356.58 81 359.593 81 363.309C81 367.026 99.7562 370.038 122.893 370.038Z" fill="#EA4848"/>
<path d="M169.483 182.745C169.472 182.703 169.45 182.664 169.418 182.634C168.777 182.002 160.609 170.449 160.609 170.449C160.609 170.449 160.179 169.159 159.482 167.482C159.705 167.193 159.873 166.865 159.977 166.514C160.014 166.366 160.041 166.215 160.058 166.063C160.058 166.016 160.093 165.977 160.106 165.93C160.255 165.347 160.24 164.733 160.063 164.158C160.015 164.306 159.956 164.45 159.886 164.588C159.725 164.087 159.508 163.606 159.241 163.152C158.158 161.286 156.61 159.712 155.471 157.894C153.746 155.068 153.06 151.729 153.532 148.452C153.532 148.619 153.532 148.791 153.532 148.959C153.575 148.309 153.661 147.663 153.79 147.024C153.969 146.298 154.21 145.587 154.508 144.9C155.531 142.557 157.186 140.515 158.192 138.163C158.53 137.37 158.786 136.544 158.958 135.699C159.312 134.288 159.441 132.83 159.34 131.378C159.34 131.722 159.284 132.066 159.233 132.406C159.124 128.916 157.715 125.593 155.282 123.088C151.769 119.558 146.726 118.187 141.902 117.465C139.875 117.228 137.939 116.489 136.27 115.315C134.417 114.115 132.022 113.827 129.855 114.089C127.365 114.359 125.05 115.503 123.324 117.318C121.033 119.838 120.04 123.407 117.365 125.531C115.745 126.82 113.689 127.422 111.802 128.3C109.915 129.177 108.13 130.449 107.524 132.333C107.524 132.333 107.524 132.307 107.524 132.294V132.401L107.498 132.47C106.871 134.697 108.083 136.963 108.715 139.186C109.373 141.486 109.416 143.916 109.45 146.293C109.498 149.2 109.541 152.111 109.493 155.022C109.472 156.165 109.433 157.322 109.347 158.461C108.329 158.769 107.341 159.166 106.393 159.648C105.43 160.276 101.827 164.167 101.827 164.167L94.7808 191.091L94.8753 191.198L94.7808 191.564L95.1376 191.482C96.1351 192.557 99.1145 195.618 102.33 197.527L102.631 202.807C102.631 202.807 102.993 208.105 107.864 210.293C107.976 212.129 108.324 219.584 106.712 222.538C105.595 224.696 105.07 227.111 105.19 229.538C105.19 229.538 105.753 234.018 105.112 236.374C104.738 237.949 104.71 239.586 105.03 241.173V241.173C105.03 241.173 105.03 241.693 105.03 242.587C105.03 247.356 105.086 262.636 105.03 264.365C104.949 266.407 105.03 296.612 105.03 296.612C105.03 296.612 104.631 311.708 103.349 315.797C102.068 319.886 102.391 333.425 102.391 333.425C102.391 333.425 101.587 349.553 104.429 352.735C104.429 352.877 104.403 353.023 104.398 353.165C104.398 353.229 104.398 353.302 104.398 353.367C104.364 354.592 104.601 355.895 105.654 356.295C107.804 357.12 110.645 359.597 111.183 360.306C111.72 361.016 114.846 362.783 118.922 362.31C121.475 362.023 124.045 361.905 126.613 361.957V361.957C126.613 361.957 128.221 361.665 127.701 359.666C127.366 358.419 126.11 356.501 125.216 355.241C125.379 355.284 125.539 355.319 125.689 355.349L125.844 355.379H125.964C126.03 355.383 126.096 355.383 126.162 355.379H126.248C126.328 355.385 126.409 355.385 126.489 355.379V355.379C127.568 355.276 131.592 357.15 132.31 358.389C133.028 359.627 135.56 360.569 137.469 360.805C138.604 360.943 141.468 360.71 143.871 360.401C145.081 360.276 146.28 360.057 147.457 359.747C148.024 359.532 148.145 358.844 147.981 358.07C147.788 357.088 147.263 356.201 146.494 355.559C145.797 355.065 144.877 353.762 144.198 352.696L144.017 352.408C145.217 351.264 147.384 347.524 148.042 346.75C148.841 345.808 146.752 311.372 146.752 311.372V294.11L149.955 277.771L152.195 269.125L154.117 256.071C154.117 256.071 157.479 240.825 156.443 239.328C156.443 239.298 155.583 223.6 154.68 219.83C154.289 218.148 154.387 214.365 154.62 210.684C154.862 210.443 155.031 210.138 155.107 209.805C155.184 209.472 155.164 209.123 155.05 208.801C154.985 208.581 154.902 208.366 154.8 208.16C154.8 208.096 154.8 208.027 154.8 207.963C156.657 207.108 158.598 206.448 160.591 205.993C163.794 205.366 162.995 203.715 162.995 203.715C162.995 203.715 163.717 202.3 164.194 201.436C164.672 200.572 164.276 192.944 164.194 192.316C164.164 192.063 163.966 190.661 163.739 189.07C164.766 188.339 166.103 187.432 167.561 186.572C170.334 184.93 169.71 183.197 169.483 182.745ZM127.693 291.753C127.693 291.753 125.289 297.885 126.252 299.454C127.215 301.023 126.093 306.849 126.093 306.849L125.289 315.496C125.289 315.496 123.049 331.533 123.849 335.304C124.477 338.262 124.709 347.098 124.782 350.783C124.727 350.804 124.674 350.83 124.623 350.86L124.515 350.916C124.885 349.467 124.73 346.535 122.894 340.636L122.74 316.27C122.74 316.27 122.456 288.124 124.679 284.977C126.901 281.83 127.688 276.485 127.688 276.485C127.688 276.485 127.207 284.195 126.893 286.237C126.579 288.279 127.693 291.753 127.693 291.753ZM123.217 352.318C123.195 352.369 123.17 352.421 123.152 352.468L123.032 352.313C123.093 352.319 123.155 352.321 123.217 352.318V352.318Z" fill="url(#paint0_linear)"/>
<path d="M149.369 364.612C148.126 365.089 141.389 365.902 139.506 365.674C137.623 365.446 135.129 364.492 134.42 363.245C133.711 361.998 129.734 360.115 128.667 360.235C128.23 360.248 127.794 360.187 127.378 360.055C126.642 359.832 125.924 359.556 125.228 359.229C125.131 358.687 125.147 358.131 125.275 357.595C125.3 357.487 125.332 357.381 125.37 357.277C125.621 356.572 126.14 355.994 126.814 355.669L126.969 355.596C127.267 355.467 127.579 355.372 127.898 355.312C131.277 354.663 145.22 355.966 145.22 355.966C145.22 355.966 145.611 356.666 146.149 357.535C146.819 358.61 147.731 359.921 148.419 360.416C149.181 361.067 149.698 361.959 149.885 362.944C150.048 363.705 149.928 364.401 149.369 364.612Z" fill="white"/>
<path opacity="0.1" d="M149.369 364.612C148.126 365.089 141.393 365.902 139.51 365.674C137.627 365.446 135.134 364.487 134.42 363.245C133.706 362.002 129.738 360.115 128.672 360.235C127.605 360.355 125.232 359.229 125.232 359.229C125.232 359.229 124.862 357.509 125.937 356.335L128.087 357.862C128.087 357.862 133.839 359.646 134.906 361.301C135.972 362.957 137.915 363.881 140.723 364.049C142.821 364.186 147.64 363.37 149.898 362.961C150.048 363.705 149.932 364.401 149.369 364.612Z" fill="black"/>
<path d="M128.788 366.805C126.252 366.756 123.715 366.875 121.195 367.162C117.158 367.635 114.075 365.872 113.538 365.145C113 364.419 110.219 361.964 108.082 361.104C107.037 360.699 106.792 359.384 106.839 358.154C106.839 358.09 106.839 358.017 106.839 357.952C106.879 357.173 106.994 356.4 107.183 355.643L123.912 355.286L125.361 357.251L125.585 357.552L126.466 358.752C126.466 358.752 126.866 359.276 127.391 360.042C128.276 361.332 129.514 363.236 129.845 364.496C130.374 366.513 128.788 366.805 128.788 366.805Z" fill="white"/>
<path opacity="0.1" d="M128.788 366.805C126.252 366.756 123.715 366.875 121.195 367.162C117.162 367.635 114.075 365.872 113.542 365.145C113.009 364.419 110.219 361.942 108.082 361.112C107.037 360.708 106.792 359.392 106.839 358.163C108.035 358.442 110.546 359.156 111.53 360.399C112.82 362.058 115.129 364.849 118.409 365.025C121.058 365.167 127.507 364.694 129.871 364.505C130.379 366.513 128.788 366.805 128.788 366.805Z" fill="black"/>
<path d="M154.314 257.623L152.414 270.754L150.204 279.456L147.04 295.907V313.32C147.04 313.32 149.095 347.966 148.304 348.912C147.513 349.858 144.507 355.246 143.716 354.932C142.925 354.618 136.442 353.509 134.382 354.454C132.323 355.4 125.354 354.614 125.354 354.614C125.354 354.614 125.195 341.169 124.404 337.372C123.612 333.576 125.827 317.439 125.827 317.439L126.618 308.741C126.618 308.741 127.727 302.885 126.777 301.303C125.827 299.72 128.2 293.563 128.2 293.563C128.2 293.563 127.095 290.076 127.413 288.021C127.731 285.966 128.2 278.214 128.2 278.214C128.2 278.214 127.413 283.597 125.216 286.757C123.019 289.917 123.299 318.239 123.299 318.239L123.453 342.747C127.413 355.723 123.453 354.454 123.453 354.454C123.453 354.454 108.431 357.778 105.396 355.086C102.361 352.395 103.229 335.454 103.229 335.454C103.229 335.454 102.915 321.851 104.179 317.74C105.443 313.63 105.843 298.439 105.843 298.439C105.843 298.439 105.761 268.062 105.843 266.012C105.903 264.292 105.843 248.895 105.843 244.084C105.843 243.189 105.843 242.66 105.843 242.66L107.657 238.154L129.154 235.463H139.438C139.438 235.463 154.916 239.1 156.516 240.67C156.55 240.696 156.579 240.728 156.602 240.764C157.638 242.282 154.314 257.623 154.314 257.623Z" fill="#EA4848"/>
<path d="M123.922 118.054C121.656 120.586 120.676 124.176 118.036 126.317C116.433 127.607 114.403 128.222 112.537 129.099C110.671 129.976 108.823 131.313 108.268 133.3C107.649 135.536 108.844 137.819 109.472 140.055C110.121 142.368 110.16 144.784 110.198 147.205C110.241 150.133 110.289 153.061 110.237 155.989C110.16 160.551 109.781 165.323 107.361 169.189C116.101 171.971 125.397 172.349 134.563 172.706C136.325 172.831 138.094 172.787 139.847 172.573C141.366 172.27 142.868 171.89 144.348 171.433C147.275 170.659 150.29 170.273 153.317 170.285C154.637 170.285 155.983 170.367 157.255 170.023C158.528 169.679 159.753 168.797 160.097 167.525C160.402 166.381 159.955 165.164 159.37 164.137C158.304 162.262 156.791 160.697 155.647 158.848C154.48 156.895 153.787 154.696 153.625 152.426C153.463 150.156 153.836 147.881 154.714 145.782C155.729 143.421 157.363 141.366 158.36 139.001C159.382 136.462 159.653 133.683 159.143 130.994C158.632 128.306 157.361 125.82 155.48 123.832C152.01 120.281 147.031 118.905 142.268 118.174C140.262 117.937 138.348 117.198 136.704 116.024C134.877 114.82 132.508 114.528 130.367 114.794C127.897 115.071 125.609 116.228 123.922 118.054Z" fill="#3F3D56"/>
<g opacity="0.1">
<path opacity="0.1" d="M154.848 143.301C153.971 145.373 153.595 147.622 153.751 149.866C153.847 148.261 154.218 146.685 154.848 145.206C155.858 142.845 157.492 140.79 158.489 138.425C159.304 136.45 159.648 134.313 159.491 132.182C159.402 133.675 159.064 135.143 158.489 136.525C157.492 138.889 155.858 140.94 154.848 143.301Z" fill="black"/>
<path opacity="0.1" d="M110.327 146.62C110.353 148.306 110.379 149.995 110.383 151.681C110.383 149.359 110.362 147.041 110.327 144.724C110.293 142.321 110.25 139.887 109.601 137.569C109.171 136.099 108.534 134.607 108.311 133.124C107.928 135.23 109.016 137.367 109.601 139.47C110.25 141.766 110.293 144.217 110.327 146.62Z" fill="black"/>
<path opacity="0.1" d="M157.401 167.563C156.111 167.912 154.787 167.834 153.467 167.826C150.443 167.807 147.429 168.185 144.503 168.952C143.023 169.407 141.52 169.786 140.002 170.087C138.248 170.305 136.476 170.351 134.713 170.225C125.857 169.877 116.875 169.503 108.393 166.97C108.141 167.532 107.854 168.078 107.533 168.604C116.273 171.382 125.569 171.764 134.731 172.121C136.494 172.247 138.265 172.201 140.019 171.983C141.532 171.685 143.029 171.307 144.503 170.853C147.423 170.083 150.431 169.7 153.45 169.713C154.77 169.713 156.111 169.795 157.384 169.447C158.657 169.098 159.882 168.226 160.226 166.953C160.371 166.363 160.356 165.746 160.183 165.164C159.8 166.368 158.618 167.207 157.401 167.563Z" fill="black"/>
</g>
<path d="M144.667 162.468C144.348 163.182 143.007 169.348 142.689 169.98C142.371 170.612 140.634 180.729 140.475 181.296C140.316 181.864 129.025 178.923 129.025 178.923L122.228 173.226L115.242 166.274C115.242 166.274 115.035 160 120.182 157.988C120.531 157.851 120.891 157.739 121.256 157.653C127.499 156.152 126.871 137.17 126.871 137.17L139.684 142.703C139.684 142.703 137.31 153.779 137.392 155.916C137.414 156.634 137.977 157.081 138.712 157.352C139.849 157.675 141.032 157.803 142.212 157.73C142.212 157.73 144.985 161.759 144.667 162.468Z" fill="#FBBEBE"/>
<path opacity="0.1" d="M133.909 149.574C140.898 149.574 146.562 143.909 146.562 136.92C146.562 129.932 140.898 124.266 133.909 124.266C126.921 124.266 121.256 129.932 121.256 136.92C121.256 143.909 126.921 149.574 133.909 149.574Z" fill="black"/>
<path d="M133.909 148.624C140.898 148.624 146.562 142.958 146.562 135.97C146.562 128.981 140.898 123.316 133.909 123.316C126.921 123.316 121.256 128.981 121.256 135.97C121.256 142.958 126.921 148.624 133.909 148.624Z" fill="#FBBEBE"/>
<path opacity="0.1" d="M156.61 242.2C153.729 242.53 150.891 243.166 148.145 244.096C143.415 245.67 106.355 244.122 105.839 244.096C105.839 243.202 105.839 242.673 105.839 242.673L107.653 238.167L129.15 235.476H139.434C139.434 235.476 154.912 239.113 156.511 240.683C156.576 241.628 156.61 242.2 156.61 242.2Z" fill="black"/>
<path opacity="0.1" d="M144.667 162.468C144.348 163.182 143.007 169.348 142.689 169.98C142.371 170.612 140.634 180.729 140.475 181.296C140.316 181.864 129.025 178.923 129.025 178.923L122.228 173.226L115.242 166.274C115.242 166.274 115.035 160 120.182 157.988L132.959 172.68L138.712 157.352C139.849 157.675 141.032 157.803 142.212 157.73C142.212 157.73 144.985 161.759 144.667 162.468Z" fill="black"/>
<path d="M132.959 173.153L119.881 158.104C119.115 157.616 118.24 157.325 117.334 157.258C116.429 157.191 115.52 157.351 114.691 157.722C111.764 158.99 108.126 160.018 107.176 160.65C106.226 161.282 102.666 165.194 102.666 165.194L113.268 192.931L108.599 211.2C108.599 211.2 109.313 220.535 107.494 223.936C106.387 226.11 105.868 228.537 105.989 230.974C105.989 230.974 106.544 235.484 105.912 237.853C105.543 239.437 105.515 241.082 105.83 242.678C105.83 242.678 143.403 244.26 148.145 242.678C150.891 241.744 153.729 241.108 156.61 240.781C156.61 240.781 155.75 224.959 154.891 221.162C154.031 217.366 155.604 202.893 155.604 202.893L154.577 187.389L160.742 171.48C160.742 171.48 157.401 161.282 153.919 160.254C153.919 160.254 147.595 158.749 146.249 158.04C144.903 157.33 140.948 156.694 140.948 156.694L138.871 157.391L132.959 173.153Z" fill="#EA4848"/>
<path opacity="0.1" d="M151.207 186.865L123.686 184.994C122.989 184.947 122.386 185.473 122.339 186.169L119.384 229.624C119.337 230.321 119.863 230.924 120.559 230.971L148.081 232.842C148.777 232.89 149.38 232.364 149.428 231.667L152.382 188.212C152.43 187.516 151.903 186.913 151.207 186.865Z" fill="black"/>
<path d="M152.154 185.922L124.633 184.05C123.937 184.003 123.334 184.529 123.286 185.226L120.332 228.68C120.284 229.377 120.811 229.98 121.507 230.027L149.028 231.899C149.725 231.946 150.328 231.42 150.375 230.723L153.33 187.269C153.377 186.572 152.851 185.969 152.154 185.922Z" fill="#3F3D56"/>
<path d="M151.246 189.328L125.072 187.548L122.382 227.108L148.556 228.888L151.246 189.328Z" fill="white"/>
<path opacity="0.1" d="M134.877 132.805C134.641 130.733 135.148 128.644 136.309 126.911C136.171 128.648 136.662 130.377 137.693 131.782C138.724 133.187 140.225 134.174 141.924 134.564C141.779 134.438 141.675 134.271 141.627 134.086C141.579 133.9 141.588 133.704 141.653 133.523C142.534 134.521 143.209 135.703 144.207 136.581C145.204 137.458 146.7 137.982 147.874 137.359C149.469 136.499 149.486 134.233 149.074 132.47C148.188 128.716 146.371 125.245 143.79 122.379C143.146 121.512 142.31 120.807 141.348 120.318C140.385 119.828 139.323 119.568 138.243 119.558C135.801 119.369 133.265 119.584 131.076 120.681C129.845 121.353 128.691 122.159 127.637 123.084L121.618 127.994C121.039 128.411 120.543 128.934 120.156 129.533C119.898 130.035 119.743 130.583 119.7 131.146C119.546 132.754 119.844 134.373 120.559 135.821C121.275 137.27 122.38 138.49 123.75 139.345C123.721 138.074 124.071 136.823 124.754 135.751C125.438 134.68 126.425 133.835 127.589 133.326C127.772 133.478 127.92 133.668 128.023 133.882C128.126 134.097 128.182 134.331 128.187 134.568L129.455 132.307C129.644 131.895 129.941 131.543 130.315 131.288C131.098 130.858 132.074 131.365 132.74 131.971C133.407 132.578 134.056 133.334 134.95 133.429L134.984 130.062" fill="black"/>
<path d="M134.877 132.333C134.64 130.259 135.147 128.168 136.309 126.433C135.922 129.873 138.514 133.425 141.928 134.087C141.783 133.962 141.679 133.796 141.631 133.611C141.582 133.426 141.592 133.23 141.657 133.051C142.538 134.048 143.213 135.226 144.211 136.108C145.208 136.989 146.705 137.509 147.878 136.882C149.473 136.022 149.491 133.756 149.078 131.997C148.192 128.243 146.375 124.772 143.794 121.906C142.993 120.93 141.984 120.145 140.84 119.61C140.012 119.304 139.142 119.127 138.261 119.085C135.818 118.896 133.282 119.107 131.093 120.203C129.863 120.878 128.709 121.686 127.654 122.611L121.635 127.521C121.055 127.937 120.559 128.46 120.173 129.061C119.914 129.562 119.759 130.11 119.717 130.673C119.564 132.28 119.862 133.899 120.577 135.346C121.292 136.794 122.397 138.013 123.767 138.868C123.739 137.597 124.089 136.347 124.773 135.275C125.456 134.204 126.443 133.359 127.607 132.848C127.788 133.002 127.936 133.191 128.039 133.406C128.142 133.62 128.198 133.853 128.204 134.091L129.468 131.838C129.656 131.426 129.953 131.073 130.328 130.819C131.111 130.389 132.087 130.896 132.753 131.503C133.419 132.109 134.069 132.861 134.963 132.96L134.997 129.589" fill="#3F3D56"/>
<path d="M140.87 212.146C139.765 211.587 121.493 214.438 121.493 214.438C121.493 214.438 118.483 213.578 111.209 212.383C103.934 211.187 103.47 204.076 103.47 204.076L102.675 189.84L105.13 187.69L115.646 194.569C115.646 194.569 115.809 198.048 115.646 198.675C115.543 199.105 115.267 199.617 115.293 199.965C115.301 200.06 115.34 200.149 115.404 200.219C115.468 200.289 115.553 200.336 115.646 200.352C116.36 200.533 126.085 202.107 126.085 202.107C126.085 202.107 148.626 200.563 154.246 208.156C154.691 208.713 155.028 209.349 155.239 210.031C156.632 215.22 141.872 212.641 140.87 212.146Z" fill="#FBBEBE"/>
<path opacity="0.1" d="M155.252 210.061C154.392 210.443 153.859 210.719 153.859 210.719C153.859 210.719 145.793 210.482 141.261 208.84C136.73 207.197 131.222 207.49 131.222 207.49C131.222 207.49 112.34 204.239 115.267 199.995C115.275 200.09 115.314 200.179 115.378 200.249C115.442 200.319 115.527 200.366 115.62 200.382C116.334 200.563 126.059 202.137 126.059 202.137C126.059 202.137 148.6 200.593 154.22 208.186C154.679 208.74 155.029 209.376 155.252 210.061V210.061Z" fill="black"/>
<path d="M163.094 185.011C163.094 185.011 164.203 192.841 164.28 193.477C164.358 194.113 164.758 201.78 164.28 202.652C163.803 203.525 163.094 204.944 163.094 204.944C163.094 204.944 163.885 206.604 160.72 207.24C157.556 207.877 153.841 209.768 153.841 209.768C153.841 209.768 145.772 209.532 141.266 207.872C136.76 206.213 131.222 206.526 131.222 206.526C131.222 206.526 107.253 202.412 117.538 197.39C127.822 192.368 135.096 199.17 135.096 199.17L146.563 198.46C146.563 198.46 150.836 195.846 152.023 196.087C152.861 196.194 153.712 196.056 154.473 195.691L154.555 187.385L163.094 185.011Z" fill="#FBBEBE"/>
<g opacity="0.1">
<path opacity="0.1" d="M136.287 126.472C136.268 126.142 136.276 125.812 136.309 125.483C135.654 126.466 135.204 127.57 134.984 128.729V129.727C134.984 129.727 134.984 129.705 134.984 129.693V129.929C134.984 130.626 134.984 131.326 134.963 132.023H134.903V132.345C134.903 132.234 134.903 132.126 134.881 132.014C134.021 131.877 133.406 131.154 132.766 130.578C132.125 130.002 131.124 129.452 130.341 129.895C129.966 130.149 129.669 130.501 129.481 130.914L128.204 133.167C128.199 132.93 128.142 132.696 128.039 132.483C127.936 132.269 127.789 132.08 127.607 131.928C126.442 132.438 125.455 133.282 124.771 134.354C124.088 135.426 123.738 136.677 123.767 137.948C122.593 137.212 121.61 136.207 120.9 135.016C120.191 133.825 119.775 132.482 119.687 131.099C119.612 132.643 119.951 134.18 120.668 135.55C121.386 136.921 122.455 138.075 123.767 138.894C123.739 137.623 124.089 136.373 124.773 135.301C125.456 134.229 126.443 133.385 127.607 132.874C127.788 133.027 127.936 133.217 128.039 133.431C128.142 133.646 128.198 133.879 128.204 134.117L129.468 131.864C129.656 131.452 129.953 131.099 130.328 130.845C131.111 130.415 132.087 130.922 132.753 131.529C133.419 132.135 134.069 132.887 134.963 132.986C134.963 131.885 134.974 130.788 134.997 129.693C135.208 128.544 135.647 127.449 136.287 126.472V126.472Z" fill="black"/>
<path opacity="0.1" d="M134.834 130.802C134.855 130.509 134.89 130.217 134.933 129.942L134.98 128.755C134.851 129.429 134.802 130.116 134.834 130.802Z" fill="black"/>
<path opacity="0.1" d="M147.878 135.931C146.704 136.559 145.208 136.034 144.211 135.157C143.213 134.28 142.538 133.098 141.657 132.1C141.592 132.281 141.583 132.477 141.631 132.663C141.679 132.848 141.783 133.015 141.928 133.141C141.842 133.141 141.76 133.098 141.678 133.076C142.538 134.065 143.222 135.226 144.211 136.086C145.2 136.946 146.704 137.488 147.878 136.86C149.052 136.232 149.387 134.762 149.284 133.33C149.207 134.457 148.802 135.433 147.878 135.931Z" fill="black"/>
<path opacity="0.1" d="M141.653 133.068C140.215 132.676 138.931 131.854 137.974 130.712C137.016 129.57 136.431 128.163 136.296 126.679C136.051 130.054 138.596 133.438 141.928 134.087C141.786 133.964 141.684 133.801 141.635 133.619C141.586 133.438 141.592 133.246 141.653 133.068V133.068Z" fill="black"/>
</g>
<path opacity="0.1" d="M456.281 233.066C456.677 233.29 457.076 233.496 457.476 233.716V233.501H460.916V235.44C461.165 235.547 461.402 235.663 461.647 235.775V233.501H465.086V237.224C465.152 237.254 465.219 237.278 465.288 237.297V233.066H456.281Z" fill="#EA4848"/>
<path opacity="0.1" d="M445.855 343.3C468.992 343.3 487.748 340.287 487.748 336.571C487.748 332.855 468.992 329.842 445.855 329.842C422.718 329.842 403.962 332.855 403.962 336.571C403.962 340.287 422.718 343.3 445.855 343.3Z" fill="#EA4848"/>
<path d="M447.205 207.664H444.509V268.362H447.205V207.664Z" fill="#535461"/>
<path d="M464.149 268.181L463.977 270.916L463.741 274.785L463.642 276.394L463.401 280.263L463.298 281.871L463.061 285.741L460.34 329.627C460.224 331.515 459.392 333.288 458.014 334.584C456.636 335.88 454.815 336.601 452.923 336.601H438.791C436.894 336.602 435.069 335.877 433.69 334.574C432.311 333.272 431.482 331.491 431.375 329.597L428.653 285.711L428.417 281.841L428.318 280.233L428.073 276.363L427.974 274.755L427.738 270.886L427.566 268.151C427.536 267.627 427.613 267.102 427.792 266.609C427.972 266.116 428.25 265.664 428.609 265.281C428.969 264.899 429.403 264.594 429.884 264.384C430.365 264.174 430.884 264.065 431.409 264.062H460.31C460.837 264.065 461.358 264.176 461.841 264.388C462.324 264.599 462.758 264.908 463.118 265.293C463.478 265.679 463.754 266.134 463.932 266.631C464.109 267.127 464.183 267.655 464.149 268.181V268.181Z" fill="#3F3D56"/>
<path d="M463.977 270.912L463.736 274.773H427.974L427.733 270.912H463.977Z" fill="#9D9CB5"/>
<path d="M463.637 276.381L463.401 280.242H428.314L428.073 276.381H463.637Z" fill="#9D9CB5"/>
<path d="M463.298 281.854L463.061 285.711H428.653L428.412 281.854H463.298Z" fill="#9D9CB5"/>
<path d="M423.636 230.418C439.337 241.778 445.877 259.544 445.877 259.544C445.877 259.544 426.959 258.894 411.254 247.535C395.548 236.175 389 218.422 389 218.422C389 218.422 407.917 219.058 423.636 230.418Z" fill="#EA4848"/>
<path d="M389 218.422C389 218.422 408.635 229.322 414.934 238.346C421.232 247.371 445.859 259.552 445.859 259.552" stroke="#535461" stroke-width="2" stroke-miterlimit="10"/>
<path d="M433.752 207.535C442.299 213.714 445.859 223.384 445.859 223.384C445.859 223.384 435.541 223.031 427.015 216.853C418.489 210.674 414.908 201 414.908 201C414.908 201 425.209 201.353 433.752 207.535Z" fill="#EA4848"/>
<path d="M414.908 201C414.908 201 425.596 206.933 429.027 211.844C432.458 216.754 445.859 223.384 445.859 223.384" stroke="#535461" stroke-width="2" stroke-miterlimit="10"/>
<path d="M458.276 222.894C448.46 233.681 446.384 247.78 446.384 247.78C446.384 247.78 460.223 244.383 470.03 233.591C479.837 222.799 481.922 208.705 481.922 208.705C481.922 208.705 468.091 212.106 458.276 222.894Z" fill="#EA4848"/>
<path d="M481.931 208.709C481.931 208.709 469.145 219.768 465.894 227.387C462.644 235.006 446.384 247.78 446.384 247.78" stroke="#535461" stroke-width="2" stroke-miterlimit="10"/>
<path opacity="0.1" d="M497 145.411V204.888H590.193V145.411H497ZM497 206.728V257.807C497.533 257.915 498.058 258.022 498.586 258.113C499.296 258.25 500.01 258.375 500.736 258.482L501.166 258.543C501.45 258.59 501.738 258.628 502.026 258.663C502.744 258.766 503.462 258.843 504.176 258.912C504.511 258.947 504.859 258.972 505.199 259.003L506.029 259.063C506.48 259.097 506.927 259.123 507.374 259.14C507.65 259.14 507.925 259.162 508.204 259.17C508.484 259.179 508.634 259.17 508.858 259.17H509.67C510.04 259.17 510.41 259.17 510.775 259.17H511.248C511.618 259.17 511.988 259.17 512.353 259.136H512.375C512.633 259.136 512.886 259.136 513.144 259.106C513.217 259.11 513.29 259.11 513.363 259.106C513.578 259.106 513.793 259.106 514 259.08C514.048 259.076 514.097 259.076 514.146 259.08C514.623 259.05 515.105 259.011 515.591 258.968C516.076 258.925 516.536 258.874 517.022 258.822L517.998 258.702C521.986 258.143 525.93 257.304 529.8 256.191C538.498 253.766 546.998 250.373 555.691 247.892C566.921 244.689 579.337 243.111 590.189 247.011V206.728H497ZM590.193 79.1888V0.00724769C579.991 -0.105003 569.817 1.08704 559.917 3.55442C536.318 9.48358 515.126 22.3437 497 38.7682V79.1845H501.691V81.0204H497V143.571H590.193V81.0204H520.879V79.1802L590.193 79.1888ZM709.923 52.4409C704.084 52.2346 698.28 50.39 693.026 47.5308C682.991 42.0746 674.969 33.6388 666.009 26.5272C647.392 11.7065 624.305 2.75899 600.619 0.540399V79.1888H733.647L733.978 78.8405L709.923 52.4409ZM722.043 50.2911L734.893 64.3981V46.5806C730.568 47.1266 726.802 48.395 722.043 50.2739V50.2911ZM734.893 270.491V206.728H707.489C707.42 206.457 707.343 206.182 707.257 205.907C707.339 206.182 707.412 206.457 707.485 206.728H600.619V252.837C601.634 253.589 602.636 254.385 603.629 255.185C604.701 256.062 605.766 256.949 606.823 257.846L607.89 258.727C608.401 259.157 608.921 259.587 609.437 259.996C610.472 260.83 611.514 261.655 612.563 262.472C613.088 262.885 613.615 263.291 614.145 263.689C622.543 270.107 631.4 275.9 640.647 281.021C642.719 282.177 644.813 283.291 646.919 284.379C648.321 285.101 649.733 285.809 651.154 286.503C653.287 287.543 655.436 288.547 657.603 289.513C677.581 298.481 698.706 304.633 720.374 307.794C725.184 308.502 730.015 309.061 734.868 309.471V270.483H735.297L734.893 270.491ZM600.619 81.0204V143.571H734.893V81.0204H600.619ZM600.619 145.403V204.888H734.893V145.411L600.619 145.403ZM745.315 46.4946V66.4017L761.713 48.3993C756.278 47.5021 750.813 46.8672 745.315 46.4946ZM745.315 145.411V204.888H875.909V145.411H745.315ZM875.449 275.208L875.909 206.728H745.315V310.164C753.727 310.513 762.151 310.411 770.552 309.858H770.699C774.711 309.6 778.705 309.233 782.681 308.758H782.771C803.987 306.288 824.73 300.747 844.351 292.307L875.449 275.208ZM901.103 155.18C900.607 154.033 900.098 152.887 899.577 151.74C898.605 149.591 897.582 147.501 896.524 145.416H886.335V204.888H912.092C912.071 188.042 907.806 170.843 901.103 155.18ZM886.335 206.728V265.633C893.588 258.68 899.723 250.722 904.134 241.624C909.444 230.664 911.873 218.806 912.075 206.724L886.335 206.728ZM886.335 128.08V143.558H895.57C892.77 138.237 889.688 133.07 886.335 128.08ZM797.768 58.168C797.088 57.9057 796.405 57.6435 795.721 57.3941C788.513 54.7301 781.147 52.5158 773.665 50.7641L748.565 78.3074L748.075 78.8362L748.398 79.1845H837.73C825.288 70.6223 811.873 63.5674 797.768 58.168ZM840.353 81.0204H747.147L745.315 82.693V143.571H761.373H875.909V114.076C865.552 101.551 853.598 90.4376 840.353 81.0204Z" fill="#EA4848"/>
<path opacity="0.1" d="M847.92 143.571H761.373C761.382 143.573 761.39 143.573 761.399 143.571H761.36H745.315V83.656H749.864V127.942H770.647V101.714H787.823V81.0204H805.45V101.727H822.618V127.955H847.924L847.92 143.571Z" fill="#EA4848"/>
<path opacity="0.1" d="M745.315 145.411V204.888H847.924V145.411H745.315ZM875.762 274.894L875.909 227.813H847.924V206.745H745.315V310.164C753.727 310.513 762.151 310.411 770.552 309.858H770.698C774.711 309.6 778.705 309.233 782.681 308.758H782.771C803.987 306.288 824.73 300.746 844.351 292.307" fill="#EA4848"/>
<path opacity="0.1" d="M782.78 151.173H770.552V163.401H782.78V151.173Z" fill="#EA4848"/>
<path opacity="0.1" d="M829.458 151.173H817.231V163.401H829.458V151.173Z" fill="#EA4848"/>
<path opacity="0.1" d="M782.78 181.334H770.552V193.563H782.78V181.334Z" fill="#EA4848"/>
<path opacity="0.1" d="M829.458 181.334H817.231V193.563H829.458V181.334Z" fill="#EA4848"/>
<path opacity="0.1" d="M782.78 211.492H770.552V223.72H782.78V211.492Z" fill="#EA4848"/>
<path opacity="0.1" d="M829.458 211.492H817.231V223.72H829.458V211.492Z" fill="#EA4848"/>
<path opacity="0.1" d="M782.78 241.654H770.552V253.882H782.78V241.654Z" fill="#EA4848"/>
<path opacity="0.1" d="M829.458 241.654H817.231V253.882H829.458V241.654Z" fill="#EA4848"/>
<path opacity="0.1" d="M782.78 271.815H770.552V284.043H782.78V271.815Z" fill="#EA4848"/>
<path opacity="0.1" d="M829.458 271.815H817.231V284.043H829.458V271.815Z" fill="#EA4848"/>
<path opacity="0.1" d="M770.552 309.858V301.973H782.776V308.736L770.552 309.858Z" fill="#EA4848"/>
<path opacity="0.1" d="M788.193 370.999C811.33 370.999 830.086 367.986 830.086 364.27C830.086 360.553 811.33 357.541 788.193 357.541C765.056 357.541 746.3 360.553 746.3 364.27C746.3 367.986 765.056 370.999 788.193 370.999Z" fill="#EA4848"/>
<path d="M826.126 200.21C826.126 200.21 824.432 199.973 824.432 197.51C824.432 195.046 823.22 190.433 823.22 190.433C823.22 190.433 822.171 182.405 820.722 181.132C819.273 179.86 817.411 172.387 817.411 172.387C817.411 172.387 817.093 168.333 816.444 167.46C815.795 166.587 814.918 164.45 813.623 161.402C812.329 158.353 806.946 156.264 806.946 156.264C806.946 156.264 797.191 150.605 794.427 148.761C794.174 148.608 793.938 148.429 793.722 148.228C793.24 147.6 791.142 147.587 791.142 147.587C790.923 146.198 790.712 144.607 790.643 143.167C790.643 143.012 790.643 142.857 790.643 142.703C793.726 140.88 796.048 138.007 797.183 134.611C797.234 134.447 797.277 134.28 797.324 134.112C797.513 134.054 797.687 133.956 797.836 133.826C797.984 133.695 798.103 133.535 798.184 133.355C798.429 132.801 798.438 132.156 798.748 131.635C799.109 131.025 799.797 130.698 800.338 130.242C801.706 129.077 802.058 127.121 801.994 125.345C801.951 123.9 801.718 122.447 801.809 121.015C801.809 120.895 801.809 120.775 801.835 120.654C801.86 120.444 801.89 120.224 801.929 120.018C802.14 118.952 802.6 117.945 802.858 116.888C803.116 115.83 803.142 114.639 802.54 113.728C801.658 112.39 799.822 112.124 798.21 112.008C796.383 111.853 794.771 112.051 793.58 110.533C793.033 109.74 792.418 108.998 791.74 108.314C791.499 108.091 789.16 106.659 789.16 106.569C786.872 105.505 784.275 105.305 781.851 106.005C780.634 106.358 779.495 106.934 778.261 107.222C775.613 107.85 772.56 107.171 770.307 108.688C769.052 109.548 768.299 110.92 767.594 112.249C767.021 113.343 766.439 114.44 765.849 115.538C764.894 117.339 763.931 119.171 763.531 121.166C763.448 121.602 763.395 122.043 763.372 122.486V122.486C763.372 122.645 763.372 122.804 763.372 122.963C763.372 123.032 763.372 123.101 763.372 123.169C763.372 123.316 763.372 123.462 763.398 123.599C763.424 123.737 763.398 123.776 763.428 123.866C763.458 123.956 763.467 124.158 763.493 124.296C763.518 124.434 763.57 124.679 763.622 124.864C763.622 124.945 763.673 125.023 763.699 125.104C763.725 125.186 763.794 125.392 763.85 125.534C763.905 125.676 763.91 125.685 763.944 125.758C764.009 125.908 764.086 126.055 764.163 126.188C764.198 126.244 764.224 126.3 764.258 126.356C764.376 126.557 764.508 126.749 764.653 126.932C765.569 128.08 766.928 128.811 767.93 129.885C767.93 129.928 767.93 129.971 767.93 130.014C767.93 130.131 767.93 130.247 767.93 130.367C767.991 132.765 768.637 135.111 769.812 137.201C770.987 139.292 772.655 141.064 774.671 142.363C774.671 142.526 774.693 142.694 774.701 142.862C774.785 144.137 774.769 145.416 774.654 146.688C774.478 146.483 774.259 146.319 774.012 146.209C773.765 146.098 773.497 146.045 773.226 146.052C773.042 146.043 772.857 146.059 772.676 146.099L772.637 146.069V146.108C771.692 146.34 770.526 147.325 769.413 150.124C769.413 150.124 766.025 153.942 763.445 153.783C760.866 153.624 754.335 157.76 754.335 157.76C754.335 157.76 747.963 161.892 746.596 166.105C745.832 168.495 744.914 170.833 743.849 173.105L735.951 189.323L734.502 202.222C734.502 202.222 735.306 207.945 735.147 208.822C734.988 209.699 738.453 217.567 738.453 217.567C738.453 217.567 749.902 237.681 754.58 238.713L754.915 238.481C755.116 238.582 755.329 238.66 755.547 238.713L756.51 238.038C756.57 238.794 756.544 239.554 756.433 240.304C755.792 242.294 756.678 255.253 757.805 257.794C758.931 260.335 758.531 293.657 758.531 293.657L758.372 296.594C758.372 296.594 758.372 296.689 758.411 296.852L758.372 297.549L758.488 297.609C758.609 298.543 758.569 299.491 758.372 300.412C757.968 301.702 757.805 305.344 757.805 305.344C757.805 305.344 754.58 325.93 756.111 330.066C757.641 334.203 758.935 338.734 758.935 338.734C758.935 338.734 760.548 343.894 759.013 344.754C757.478 345.614 753.131 347.14 754.017 349.286C754.834 351.272 757.934 356.595 758.394 357.373L758.355 357.803L757.723 364.652C757.825 365.557 758.07 366.439 758.449 367.267C759.142 368.763 760.483 370.306 763.046 370.139C763.475 370.109 763.97 370.061 764.456 369.997C769.138 369.365 774.899 367.275 774.899 367.275C774.6 367.086 774.327 366.859 774.086 366.6V366.6C773.856 366.377 773.674 366.11 773.55 365.814C773.427 365.518 773.365 365.201 773.368 364.88C773.437 363.629 771.103 357.691 770.518 356.225L770.385 355.899C770.385 355.899 775.707 350.331 774.822 345.403C774.822 345.403 768.931 341.963 770.87 340.072C772.809 338.18 776.275 332.762 776.275 332.762C776.275 332.762 776.434 312.49 776.275 309.467C776.109 307.365 776.209 305.25 776.571 303.172C776.636 302.863 776.713 302.558 776.795 302.252C779.479 302.657 782.189 302.863 784.904 302.867C785.895 302.867 786.898 302.847 787.913 302.807C787.913 303.094 787.926 303.403 787.952 303.736C788.175 308.758 788.592 317.568 788.932 320.84C789.414 325.526 792.075 338.171 792.075 338.171C792.075 338.171 786.997 341.426 792.961 349.462C792.961 349.462 792.961 352.369 792.565 352.794C792.142 354.173 791.802 355.576 791.546 356.995C791.297 358.504 791.194 360.039 791.598 360.83C792.565 362.731 798.369 362.576 798.369 362.576C798.416 362.565 798.463 362.558 798.511 362.554C799.607 362.438 800.714 362.542 801.769 362.86C802.824 363.177 803.805 363.702 804.655 364.403C806.86 366.175 815.227 365.401 819.763 364.833C821.539 364.605 822.725 364.403 822.725 364.403C822.782 364.202 822.803 363.992 822.785 363.784V363.784C822.738 362.67 821.865 360.228 815.949 358.048C815.949 358.048 810.386 354.308 810.463 351.049H810.339H809.698C810.102 351.036 810.386 351.036 810.386 351.036C810.386 351.036 808.206 343.086 809.096 342.436C809.986 341.787 807.321 332.977 807.321 332.977C807.321 332.977 805.794 318.187 805.708 317.155C805.714 316.265 805.85 315.382 806.112 314.532L805.708 306.419C805.708 306.419 805.631 303.723 805.708 302.846C805.7 302.084 805.639 301.324 805.528 300.571C805.489 300.27 805.45 299.956 805.407 299.647C807.492 299.118 808.847 298.632 808.847 298.632L808.606 270.405C810.377 266.965 810.704 259.415 810.696 254.067C810.696 250.627 810.541 248.082 810.541 248.082L812.961 244.13C812.961 244.13 813.52 239.401 812.635 238.365C812.243 237.896 812.42 237.41 812.742 237.01C812.912 236.871 813.091 236.745 813.279 236.632C813.258 236.602 813.24 236.57 813.224 236.537C813.393 236.396 813.572 236.268 813.761 236.155C813.761 236.155 812.901 234.822 813.671 234.258C814.393 234.749 815.038 235.14 815.528 235.419C815.494 235.733 815.459 235.914 815.459 235.914L815.666 235.484C816.139 235.75 816.427 235.914 816.427 235.914C816.427 235.914 820.219 228.359 820.137 227.25C820.055 226.141 822.717 221.446 822.717 221.446C822.717 221.446 823.039 218.978 824.492 217.946C825.945 216.914 825.619 209.437 825.619 209.437C825.619 209.437 826.023 205.541 826.99 203.955C827.958 202.368 826.126 200.21 826.126 200.21ZM753.57 196.895L753.643 198.696C753.213 198.004 752.903 197.51 752.903 197.51L753.57 196.895Z" fill="url(#paint1_linear)"/>
<path d="M816.65 232.646L815.722 236.602C815.722 236.602 808.284 232.796 806.947 227.981C805.61 223.165 809.187 221.329 809.187 221.329L816.122 224.262L816.65 232.646Z" fill="white"/>
<path opacity="0.1" d="M816.65 232.646L815.722 236.602C815.722 236.602 808.284 232.796 806.947 227.981C805.61 223.165 809.187 221.329 809.187 221.329L816.122 224.262L816.65 232.646Z" fill="black"/>
<path d="M774.908 367.271C774.908 367.271 768.029 369.799 763.299 370.117C760.789 370.285 759.469 368.746 758.789 367.262C758.42 366.444 758.18 365.574 758.076 364.683L758.699 357.868L759.026 354.243L769.074 351.629L770.497 355.984L770.63 356.311C771.197 357.769 773.493 363.676 773.425 364.91C773.419 365.23 773.478 365.547 773.599 365.842C773.719 366.138 773.898 366.406 774.125 366.63C774.358 366.876 774.621 367.091 774.908 367.271V367.271Z" fill="white"/>
<path d="M821.874 363.805C821.892 364.014 821.872 364.224 821.814 364.425C821.814 364.425 807.102 366.875 804.092 364.425C803.246 363.709 802.26 363.177 801.197 362.864C800.134 362.551 799.017 362.463 797.918 362.606C797.918 362.606 792.226 362.761 791.276 360.886C790.88 360.099 790.983 358.573 791.228 357.072C791.479 355.661 791.812 354.265 792.226 352.893L792.454 352.712L793.808 351.625L809.664 351.156H809.784C809.707 354.398 815.163 358.117 815.163 358.117C820.971 360.267 821.827 362.696 821.874 363.805Z" fill="white"/>
<path opacity="0.1" d="M821.878 363.805C821.894 364.014 821.872 364.224 821.814 364.425C821.814 364.425 807.101 366.875 804.096 364.425C803.25 363.708 802.263 363.176 801.199 362.863C800.135 362.55 799.017 362.462 797.918 362.606C797.918 362.606 792.221 362.761 791.271 360.886C790.88 360.099 790.979 358.573 791.224 357.068C793.416 357.287 796.877 357.833 798.236 359.14C800.291 361.118 803.774 363.096 805.906 363.255C807.591 363.358 817.613 363.676 821.878 363.805Z" fill="black"/>
<path opacity="0.1" d="M774.907 367.271C774.907 367.271 768.028 369.799 763.299 370.117C760.788 370.285 759.468 368.746 758.789 367.262C760.543 367.851 762.972 368.466 764.249 367.903C765.763 367.228 771.128 366.798 774.138 366.613C774.365 366.865 774.623 367.086 774.907 367.271V367.271Z" fill="black"/>
<path d="M785.114 163.517C779.439 161.311 772.139 154.023 773.962 150.618C774.365 149.758 774.605 148.831 774.671 147.884C774.788 146.597 774.806 145.303 774.723 144.014C774.595 141.901 774.341 139.798 773.962 137.715C773.962 137.715 791.679 138.115 790.648 140.725C790.347 141.494 790.295 142.823 790.381 144.306C790.467 145.79 790.678 147.479 790.901 148.903C791.207 150.85 791.52 152.342 791.52 152.342C791.52 152.342 790.433 153.86 789.801 153.942C789.169 154.023 793.257 166.677 785.114 163.517Z" fill="#CF6F80"/>
<path opacity="0.1" d="M770.612 356.29L770.479 356.436C765.182 350.029 758.776 358.018 758.776 358.018L758.682 357.846L759.008 354.222L769.056 351.607L770.479 355.963L770.612 356.29Z" fill="black"/>
<path opacity="0.1" d="M809.793 351.607C809.793 351.607 805.923 351.53 803.86 353.353C801.796 355.176 791.821 353.744 792.251 353.353C792.377 353.155 792.453 352.929 792.475 352.695L793.829 351.607L809.685 351.139C809.745 351.44 809.793 351.607 809.793 351.607Z" fill="black"/>
<path d="M777.203 301.298C776.916 302.01 776.697 302.749 776.55 303.503C776.191 305.57 776.092 307.673 776.253 309.764C776.412 312.773 776.253 332.943 776.253 332.943C776.253 332.943 772.852 338.322 770.952 340.218C769.052 342.114 774.822 345.519 774.822 345.519C775.681 350.425 770.471 355.963 770.471 355.963C765.174 349.557 758.768 357.541 758.768 357.541C758.768 357.541 755.285 351.521 754.417 349.372C753.548 347.222 757.817 345.738 759.318 344.861C760.818 343.984 759.241 338.842 759.241 338.842C759.241 338.842 757.977 334.332 756.472 330.217C754.967 326.102 758.131 305.623 758.131 305.623C758.131 305.623 758.295 301.981 758.686 300.713C758.881 299.797 758.92 298.855 758.802 297.927C758.776 297.613 758.746 297.355 758.725 297.174C758.703 296.994 758.686 296.916 758.686 296.916L758.746 296.813L760.896 292.806C760.896 292.806 778.235 298.774 777.203 301.298Z" fill="#EA4848"/>
<path d="M809.793 351.134C809.793 351.134 805.923 351.053 803.86 352.854C801.796 354.656 791.821 353.25 792.251 352.854C792.681 352.459 792.643 349.535 792.643 349.535C786.791 341.542 791.783 338.3 791.783 338.3C791.783 338.3 789.173 325.724 788.7 321.059C788.369 317.804 787.961 309.02 787.741 304.045C787.647 301.895 787.591 300.412 787.591 300.412L792.329 299.47L792.944 299.35L804.475 297.033C804.475 297.033 804.793 299.182 805.008 300.941C805.116 301.691 805.175 302.448 805.184 303.207C805.111 304.067 805.184 306.763 805.184 306.763L805.579 314.829C805.324 315.675 805.191 316.554 805.184 317.438C805.266 318.47 806.766 333.179 806.766 333.179C806.766 333.179 809.376 341.959 808.486 342.591C807.596 343.223 809.793 351.134 809.793 351.134Z" fill="#EA4848"/>
<path opacity="0.1" d="M790.648 140.738C790.347 141.507 790.295 142.836 790.381 144.319C788.008 145.748 785.28 146.479 782.51 146.427C779.74 146.376 777.041 145.544 774.723 144.027C774.595 141.914 774.341 139.811 773.962 137.728C773.962 137.728 791.68 138.128 790.648 140.738Z" fill="black"/>
<path d="M797.488 131.244C797.535 135.145 796.03 138.905 793.305 141.697C790.58 144.488 786.857 146.083 782.956 146.129C779.055 146.176 775.296 144.671 772.504 141.946C769.713 139.22 768.119 135.498 768.072 131.597C768.072 131.476 768.072 131.365 768.072 131.244C768.072 127.342 769.622 123.6 772.381 120.84C775.14 118.081 778.882 116.531 782.784 116.531C786.686 116.531 790.428 118.081 793.188 120.84C795.947 123.6 797.497 127.342 797.497 131.244H797.488Z" fill="#CF6F80"/>
<path opacity="0.1" d="M785.114 163.517C779.439 161.311 772.139 154.023 773.962 150.618C774.365 149.758 774.605 148.831 774.671 147.884L782.44 154.273L787.247 158.215L790.901 148.915C791.207 150.863 791.52 152.355 791.52 152.355C791.52 152.355 790.433 153.873 789.801 153.955C789.169 154.036 793.257 166.677 785.114 163.517Z" fill="black"/>
<path d="M805.205 191.752L798.718 300.747L790.256 301.302L768.343 238.102L771.937 163.07L772.698 147.217L782.44 155.219L787.247 159.161L791.009 149.586L798.004 155.683L805.205 191.752Z" fill="#EA4848"/>
<path opacity="0.1" d="M777.204 301.298C776.916 302.01 776.697 302.749 776.55 303.503C770.387 302.554 764.402 300.686 758.794 297.961L758.677 297.901L758.716 297.209V296.848L760.866 292.84C760.866 292.84 778.235 298.774 777.204 301.298Z" fill="black"/>
<path opacity="0.1" d="M792.471 303.521C790.897 303.79 789.309 303.972 787.715 304.067C787.621 301.917 787.565 300.434 787.565 300.434L792.329 299.47L792.471 303.521Z" fill="black"/>
<path opacity="0.1" d="M805.025 300.941C801.968 301.736 797.243 302.631 793.021 302.072L792.961 299.35L804.492 297.033C804.492 297.033 804.797 299.165 805.025 300.941Z" fill="black"/>
<path opacity="0.1" d="M792.943 302.57C775.316 305.58 759.172 296.951 759.172 296.951L759.327 294.027C759.327 294.027 759.726 260.881 758.617 258.34C757.508 255.799 756.644 242.931 757.272 240.966C757.899 239.001 754.98 209.334 754.98 209.334L754.507 197.295L737.185 190.256L744.924 174.12C745.969 171.858 746.868 169.531 747.615 167.154C748.961 162.962 755.208 158.848 755.208 158.848C755.208 158.848 761.614 154.737 764.146 154.892C766.679 155.047 769.998 151.254 769.998 151.254C772.448 145.007 774.667 147.815 774.667 147.815C774.667 148.116 774.667 147.815 774.546 148.739C773.687 155.597 788.451 177.267 788.661 177.654L790.084 211.905L791.508 255.249L792.943 302.57Z" fill="black"/>
<path d="M792.471 302.57C774.843 305.58 758.695 296.951 758.695 296.951L758.854 294.027C758.854 294.027 759.249 260.881 758.14 258.34C757.031 255.799 756.167 242.918 756.799 240.936C757.431 238.953 754.494 209.316 754.494 209.316L754.017 197.277L736.699 190.239L744.438 174.103C745.481 171.841 746.38 169.516 747.13 167.141C748.475 162.962 754.744 158.843 754.744 158.843C754.744 158.843 761.15 154.733 763.678 154.888C766.206 155.042 769.542 151.254 769.542 151.254C771.997 145.007 774.701 147.815 774.701 147.815C774.701 148.116 774.443 148.245 774.581 148.739C776.473 155.391 788.012 177.267 788.223 177.654L789.646 211.905L791.039 255.27L792.471 302.57Z" fill="white"/>
<path opacity="0.1" d="M787.72 178.621C785.824 177.83 775.78 166.363 775.78 166.363V163.753C775.415 162.894 773.239 163.418 771.481 164.02L772.238 148.167L773.098 148.881C774.976 155.528 787.513 178.239 787.72 178.621Z" fill="black"/>
<path d="M788.197 177.675C786.297 176.88 776.253 165.417 776.253 165.417V162.803C775.888 161.943 773.717 162.468 771.954 163.07L772.698 147.234L773.558 147.944C775.454 154.582 787.987 177.288 788.197 177.675Z" fill="white"/>
<path opacity="0.1" d="M759.172 234.86C759.408 234.86 771.429 233.596 771.429 233.596C771.429 233.596 778.708 247.914 778.231 251.392C777.754 254.871 776.89 257.958 773.962 257.412C771.034 256.866 758.205 257.842 758.205 257.842L759.172 234.86Z" fill="black"/>
<path d="M758.695 233.91C758.935 233.91 770.956 232.646 770.956 232.646C770.956 232.646 778.231 246.985 777.758 250.425C777.285 253.864 776.412 256.99 773.489 256.444C770.565 255.898 757.727 256.874 757.727 256.874L758.695 233.91Z" fill="white"/>
<path d="M767.753 227.207C767.753 227.207 778.786 233.14 779.022 234.946C779.259 236.752 773.407 234.155 772.143 233.837C771.311 233.639 770.464 233.507 769.611 233.441L761.18 233.669L767.753 227.207Z" fill="#CF6F80"/>
<path opacity="0.1" d="M784.637 179.361C785.278 179.361 785.798 178.841 785.798 178.2C785.798 177.559 785.278 177.039 784.637 177.039C783.996 177.039 783.476 177.559 783.476 178.2C783.476 178.841 783.996 179.361 784.637 179.361Z" fill="black"/>
<path d="M784.637 178.888C785.278 178.888 785.798 178.368 785.798 177.727C785.798 177.086 785.278 176.566 784.637 176.566C783.996 176.566 783.476 177.086 783.476 177.727C783.476 178.368 783.996 178.888 784.637 178.888Z" fill="#3F3D56"/>
<path opacity="0.1" d="M786.774 229.615C787.415 229.615 787.935 229.095 787.935 228.454C787.935 227.813 787.415 227.293 786.774 227.293C786.133 227.293 785.613 227.813 785.613 228.454C785.613 229.095 786.133 229.615 786.774 229.615Z" fill="black"/>
<path d="M786.774 229.138C787.415 229.138 787.935 228.618 787.935 227.977C787.935 227.336 787.415 226.816 786.774 226.816C786.133 226.816 785.613 227.336 785.613 227.977C785.613 228.618 786.133 229.138 786.774 229.138Z" fill="#3F3D56"/>
<path opacity="0.1" d="M785.798 204.488C786.439 204.488 786.959 203.968 786.959 203.327C786.959 202.686 786.439 202.166 785.798 202.166C785.157 202.166 784.637 202.686 784.637 203.327C784.637 203.968 785.157 204.488 785.798 204.488Z" fill="black"/>
<path d="M785.798 204.015C786.439 204.015 786.959 203.495 786.959 202.854C786.959 202.213 786.439 201.693 785.798 201.693C785.157 201.693 784.637 202.213 784.637 202.854C784.637 203.495 785.157 204.015 785.798 204.015Z" fill="#3F3D56"/>
<path d="M812.557 233.201C812.557 233.201 813.348 234.387 812.557 234.92C811.766 235.454 812.635 236.821 812.635 236.821C812.635 236.821 810.661 237.973 811.53 239.018C812.398 240.063 811.848 244.754 811.848 244.754L809.475 248.705C809.475 248.705 809.617 251.237 809.625 254.66C809.625 260 809.311 267.507 807.574 270.93L807.806 299.01C807.806 299.01 799.496 302.05 792.539 301.121L791.508 256.062C791.508 256.062 793.012 230.509 793.567 225.608C793.892 223.063 794.024 220.497 793.962 217.933C793.962 217.933 793.726 210.262 792.931 206.706C792.931 206.706 792.071 191.279 791.985 187.01C791.946 184.968 792.054 179.008 792.174 173.341C792.307 167.146 792.458 161.303 792.458 161.303L790.888 148.881C790.888 148.881 792.458 148.726 792.931 149.354C793.142 149.552 793.373 149.729 793.619 149.883C796.331 151.714 805.902 157.347 805.902 157.347C805.902 157.347 811.199 159.454 812.467 162.472C813.735 165.49 814.617 167.632 815.232 168.492C815.846 169.351 816.182 173.393 816.182 173.393C816.182 173.393 818.005 180.831 819.428 182.091C820.851 183.351 821.874 191.348 821.874 191.348L809.298 201.237C809.298 201.237 808.193 217.688 807.957 218.324C807.72 218.96 812.557 233.201 812.557 233.201Z" fill="white"/>
<path d="M813.034 233.201C813.034 233.201 813.821 234.387 813.034 234.92C812.248 235.454 813.108 236.821 813.108 236.821C813.108 236.821 811.134 237.973 812.003 239.018C812.871 240.063 812.321 244.754 812.321 244.754L809.956 248.705C809.956 248.705 810.098 251.237 810.111 254.66C810.111 260 809.797 267.507 808.06 270.93L808.297 299.01C808.297 299.01 799.986 302.05 793.029 301.121L792.002 256.062C792.002 256.062 793.502 230.509 794.061 225.608C794.386 223.063 794.517 220.497 794.453 217.933C794.453 217.933 794.216 210.262 793.425 206.706C793.425 206.706 792.565 191.279 792.475 187.01C792.436 184.968 792.544 179.008 792.664 173.342C792.797 167.146 792.948 161.303 792.948 161.303L790.875 148.713C790.875 148.713 792.948 148.713 793.425 149.354C793.635 149.554 793.865 149.732 794.113 149.883V149.883C796.822 151.715 806.392 157.347 806.392 157.347C806.392 157.347 811.676 159.454 812.966 162.472C814.256 165.49 815.115 167.632 815.73 168.492C816.345 169.351 816.68 173.393 816.68 173.393C816.68 173.393 818.503 180.831 819.926 182.091C821.35 183.351 822.377 191.348 822.377 191.348L809.801 201.237C809.801 201.237 808.696 217.688 808.456 218.324C808.215 218.96 813.034 233.201 813.034 233.201Z" fill="white"/>
<path opacity="0.1" d="M797.974 164.953L799.113 168.264L793.133 174.283C793.266 168.087 793.417 162.244 793.417 162.244L791.344 149.659C791.344 149.659 793.417 149.659 793.894 150.3C794.104 150.5 794.334 150.677 794.582 150.829V150.829L799.664 165.486L797.974 164.953Z" fill="black"/>
<path d="M797.488 164.003L798.627 167.309L792.651 173.329C792.78 167.133 792.935 161.29 792.935 161.29L790.858 148.701C790.858 148.701 792.935 148.701 793.408 149.341C793.619 149.54 793.849 149.717 794.096 149.87V149.87L799.208 164.54L797.488 164.003Z" fill="white"/>
<path opacity="0.1" d="M797.488 131.244C797.49 132.793 797.246 134.333 796.766 135.806C796.685 135.82 796.602 135.817 796.522 135.797C796.442 135.778 796.367 135.743 796.301 135.694C796.185 131.825 794.285 128.187 791.942 125.096C791.283 124.163 790.485 123.337 789.577 122.645C788.658 121.955 787.515 121.631 786.37 121.738C785.08 121.914 783.941 122.791 782.638 122.903C780.918 123.045 779.379 121.854 777.672 121.798C776.978 121.804 776.293 121.958 775.664 122.25C775.034 122.542 774.475 122.966 774.022 123.492C773.125 124.551 772.458 125.785 772.066 127.117C771.39 129.137 771.022 131.247 770.974 133.377C770.952 134.581 770.836 136.09 769.718 136.528C769.803 135.644 769.703 134.751 769.424 133.907C769.145 133.063 768.693 132.287 768.098 131.627L768.072 131.597C768.072 131.476 768.072 131.365 768.072 131.244C768.072 127.342 769.622 123.6 772.381 120.84C775.14 118.081 778.882 116.531 782.784 116.531C786.686 116.531 790.428 118.081 793.188 120.84C795.947 123.6 797.497 127.342 797.497 131.244H797.488Z" fill="black"/>
<path d="M788.889 107.884C786.655 106.833 784.114 106.635 781.744 107.325C780.553 107.678 779.43 108.25 778.222 108.538C775.643 109.161 772.633 108.486 770.419 109.996C769.189 110.855 768.45 112.214 767.762 113.538L766.042 116.81C765.105 118.603 764.159 120.426 763.768 122.4C763.377 124.373 763.613 126.583 764.864 128.174C765.771 129.327 767.121 130.053 768.11 131.141C768.704 131.804 769.155 132.583 769.433 133.429C769.711 134.275 769.811 135.169 769.727 136.055C770.845 135.625 770.956 134.108 770.982 132.904C771.03 130.774 771.399 128.664 772.074 126.644C772.467 125.312 773.133 124.078 774.03 123.019C774.483 122.492 775.042 122.068 775.672 121.775C776.301 121.482 776.986 121.327 777.681 121.321C779.4 121.381 780.944 122.572 782.646 122.426C783.936 122.318 785.08 121.441 786.378 121.265C787.523 121.156 788.667 121.48 789.586 122.172C790.495 122.862 791.291 123.689 791.946 124.623C794.293 127.718 796.198 131.339 796.31 135.221C796.796 135.574 797.496 135.11 797.737 134.559C797.978 134.009 797.987 133.364 798.292 132.839C798.644 132.233 799.319 131.906 799.848 131.451C801.19 130.294 801.525 128.346 801.473 126.579C801.422 124.812 801.078 123.019 801.413 121.282C801.615 120.22 802.071 119.218 802.32 118.165C802.57 117.111 802.6 115.929 802.011 115.022C801.151 113.693 799.341 113.427 797.763 113.302C795.97 113.147 794.366 113.345 793.223 111.836C792.685 111.049 792.081 110.31 791.417 109.626C791.181 109.398 788.889 107.979 788.889 107.884Z" fill="#512E4E"/>
<path opacity="0.1" d="M742.147 198.554L737.658 190.252L736.235 203.065C736.235 203.065 737.026 208.757 736.867 209.63C736.708 210.503 740.109 218.328 740.109 218.328C740.109 218.328 751.343 238.343 755.93 239.37L771.408 228.295L767.298 223.075C767.298 223.075 765.875 222.52 765.518 223.075C765.518 223.075 757.882 209.944 757.095 208.998C756.309 208.052 756.459 206.147 756.459 206.147C756.459 206.147 755.272 204.883 755.668 203.697C756.064 202.51 753.398 198.4 753.398 198.4L755.849 196.108L742.147 198.554Z" fill="black"/>
<path d="M737.894 189.302L736.708 190.252L735.284 203.065C735.284 203.065 736.075 208.757 735.916 209.63C735.757 210.503 739.162 218.328 739.162 218.328C739.162 218.328 750.392 238.343 754.98 239.371L770.483 228.295L766.369 223.075C766.369 223.075 764.946 222.52 764.589 223.075C764.589 223.075 756.958 209.944 756.167 208.998C755.375 208.052 755.535 206.147 755.535 206.147C755.535 206.147 754.348 204.883 754.743 203.697C755.139 202.51 752.448 198.4 752.448 198.4L754.898 196.108L737.894 189.302Z" fill="white"/>
<path opacity="0.1" d="M811.53 239.512C812.389 240.557 811.848 245.252 811.848 245.252L809.475 249.178C809.475 249.178 809.616 251.715 809.625 255.137L805.635 256.384C805.274 256.497 804.891 256.521 804.519 256.456C804.146 256.39 803.794 256.237 803.493 256.008C803.192 255.779 802.95 255.482 802.787 255.14C802.624 254.799 802.545 254.423 802.557 254.045L803.249 231.859L812.557 235.415C811.766 235.965 812.635 237.315 812.635 237.315C812.635 237.315 810.661 238.468 811.53 239.512Z" fill="black"/>
<path d="M812.003 239.04C812.863 240.08 812.321 244.775 812.321 244.775L809.956 248.705C809.956 248.705 810.098 251.238 810.111 254.66L806.048 255.928C805.695 256.039 805.321 256.064 804.957 256C804.593 255.937 804.249 255.787 803.954 255.563C803.66 255.34 803.423 255.049 803.263 254.716C803.104 254.382 803.027 254.015 803.038 253.645L803.731 231.382L813.035 234.946C812.239 235.497 813.108 236.847 813.108 236.847C813.108 236.847 811.134 237.995 812.003 239.04Z" fill="white"/>
<path d="M815.09 228.454C815.09 228.454 814.458 232.491 812.876 232.728C811.293 232.964 810.584 239.259 809.006 239.039C807.428 238.82 808.473 233.183 808.529 232.091C808.585 230.999 806.809 226.476 808.133 225.448C809.458 224.421 813.671 225.448 813.671 225.448L815.09 228.454Z" fill="#CF6F80"/>
<path opacity="0.1" d="M818.434 197.368L821.414 191.348C821.414 191.348 822.605 195.936 822.605 198.387C822.605 200.837 824.264 201.078 824.264 201.078C824.264 201.078 826.083 203.228 825.124 204.797C824.166 206.367 823.783 210.254 823.783 210.254C823.783 210.254 824.097 217.688 822.674 218.715C821.251 219.743 820.932 222.198 820.932 222.198C820.932 222.198 818.323 226.863 818.404 227.972C818.486 229.082 814.767 236.593 814.767 236.593C814.767 236.593 816.586 227.259 805.988 223.226C805.988 223.226 805.906 220.061 806.697 219.192C807.488 218.324 808.722 217.903 807.948 213.534C807.174 209.166 807.725 203.899 807.725 202.845C807.725 201.792 810.098 195.227 810.098 195.227L818.434 197.368Z" fill="black"/>
<path d="M819.759 190.488L822.364 191.348C822.364 191.348 823.555 195.936 823.555 198.387C823.555 200.837 825.215 201.078 825.215 201.078C825.215 201.078 827.033 203.228 826.075 204.797C825.116 206.367 824.729 210.254 824.729 210.254C824.729 210.254 825.047 217.688 823.624 218.715C822.201 219.743 821.904 222.198 821.904 222.198C821.904 222.198 819.294 226.863 819.376 227.972C819.458 229.082 815.735 236.593 815.735 236.593C815.735 236.593 817.553 227.258 806.955 223.225C806.955 223.225 806.878 220.061 807.669 219.192C808.46 218.324 809.694 217.903 808.92 213.534C808.146 209.166 808.696 203.899 808.696 202.845C808.696 201.792 811.07 195.226 811.07 195.226L819.759 190.488Z" fill="white"/>
<path opacity="0.1" d="M762.199 346.508C762.199 346.508 766.352 343.898 769.078 345.794C771.804 347.691 762.199 346.508 762.199 346.508Z" fill="black"/>
<path opacity="0.1" d="M794.479 338.438C794.479 338.438 798.154 337.965 801.241 341.288C804.328 344.612 794.479 338.438 794.479 338.438Z" fill="black"/>
<g opacity="0.1">
<path opacity="0.1" d="M799.848 130.505C799.319 130.965 798.64 131.287 798.288 131.893C797.987 132.414 797.978 133.059 797.737 133.613C797.496 134.168 796.796 134.628 796.306 134.275C796.194 130.406 794.289 126.773 791.946 123.677C791.291 122.744 790.494 121.918 789.586 121.23C788.666 120.537 787.521 120.212 786.374 120.319C785.084 120.495 783.949 121.372 782.646 121.484C780.927 121.626 779.383 120.435 777.676 120.379C776.983 120.384 776.299 120.538 775.67 120.83C775.041 121.123 774.482 121.546 774.03 122.073C773.133 123.132 772.467 124.366 772.074 125.698C771.399 127.718 771.03 129.828 770.982 131.958C770.956 133.157 770.845 134.654 769.735 135.101C769.761 135.42 769.761 135.741 769.735 136.06C770.857 135.63 770.969 134.112 770.995 132.908C771.043 130.778 771.411 128.668 772.087 126.648C772.479 125.316 773.146 124.082 774.043 123.023C774.495 122.497 775.054 122.073 775.683 121.78C776.311 121.487 776.996 121.332 777.689 121.325C779.409 121.385 780.957 122.576 782.659 122.43C783.949 122.322 785.093 121.445 786.387 121.269C787.533 121.161 788.678 121.484 789.598 122.176C790.507 122.866 791.304 123.693 791.959 124.627C794.302 127.723 796.207 131.343 796.318 135.226C796.809 135.578 797.509 135.114 797.75 134.563C797.991 134.013 797.999 133.368 798.3 132.844C798.653 132.237 799.332 131.911 799.861 131.455C801.203 130.298 801.538 128.35 801.486 126.583C801.486 126.527 801.486 126.476 801.486 126.42C801.4 127.959 800.992 129.52 799.848 130.505Z" fill="black"/>
<path opacity="0.1" d="M768.106 130.204C767.121 129.116 765.771 128.385 764.864 127.233C764.098 126.215 763.661 124.988 763.613 123.716C763.478 125.307 763.922 126.893 764.864 128.183C765.771 129.335 767.121 130.062 768.106 131.15C769.057 132.213 769.628 133.562 769.731 134.985C769.796 134.12 769.685 133.25 769.406 132.429C769.127 131.607 768.684 130.85 768.106 130.204Z" fill="black"/>
<path opacity="0.1" d="M802.32 117.219C802.067 118.272 801.615 119.274 801.409 120.336C801.285 121.054 801.24 121.784 801.276 122.512C801.29 122.1 801.334 121.691 801.409 121.286C801.615 120.224 802.067 119.222 802.32 118.169C802.466 117.588 802.514 116.986 802.462 116.389C802.435 116.669 802.387 116.946 802.32 117.219V117.219Z" fill="black"/>
</g>
<path opacity="0.1" d="M443.903 143.466H487.533V202.942H447.093C446.99 203.557 446.887 204.168 446.771 204.782H487.533V252.74C487.464 252.74 487.395 252.689 487.331 252.663C486.184 252.207 485.038 251.724 483.891 251.214C483.646 251.102 483.406 250.986 483.156 250.879C482.01 250.337 480.863 249.764 479.717 249.159C479.317 248.948 478.917 248.729 478.526 248.505C472.161 244.953 466.376 240.45 461.371 235.151C461.221 235.009 461.083 234.854 460.941 234.721C460.245 233.964 459.561 233.199 458.899 232.416C458.65 232.128 458.409 231.836 458.164 231.556C457.381 230.602 456.625 229.613 455.894 228.619C455.782 228.469 455.679 228.323 455.571 228.19C452.577 224.046 450.094 219.556 448.176 214.818C448.116 214.676 448.06 214.521 448.004 214.388C447.411 212.883 446.874 211.357 446.409 209.8C446.212 209.151 446.018 208.51 445.855 207.835C445.795 207.642 445.747 207.444 445.696 207.25C443.279 197.727 443 187.829 443 177.979C443 176.832 443 175.686 443 174.539C443.034 170.517 443.082 166.5 443.142 162.487C443.165 161.455 443.186 160.419 443.206 159.379C443.267 156.744 443.353 154.104 443.464 151.459C443.49 150.728 443.525 149.993 443.563 149.266C443.58 148.845 443.602 148.423 443.628 148.002C443.705 146.48 443.797 144.968 443.903 143.466Z" fill="#EA4848"/>
<path opacity="0.1" d="M487.533 77.2434H463.598C467.491 71.1573 471.742 65.3081 476.329 59.7268C479.889 55.3584 483.638 51.1018 487.533 47V77.2434Z" fill="#EA4848"/>
<path opacity="0.1" d="M487.533 79.075V141.626H444.041C444.041 141.445 444.066 141.26 444.084 141.08C444.122 140.585 444.161 140.095 444.204 139.6C444.247 139.024 444.303 138.448 444.359 137.881C444.415 137.313 444.47 136.625 444.539 136.002C444.608 135.378 444.664 134.746 444.733 134.123C444.802 133.499 444.87 132.876 444.948 132.257C445.025 131.638 445.094 131.01 445.18 130.391C445.244 129.879 445.309 129.363 445.382 128.847C445.481 128.121 445.584 127.394 445.691 126.672C445.691 126.56 445.726 126.452 445.743 126.345C446.529 121.057 447.597 115.816 448.942 110.643C450.354 105.217 452.158 99.8999 454.338 94.7341C456.654 89.3215 459.367 84.0875 462.455 79.075H487.533Z" fill="#EA4848"/>
<path opacity="0.1" d="M487.533 110.63V141.626H444.041C444.041 141.445 444.066 141.26 444.084 141.08C444.122 140.585 444.161 140.095 444.204 139.6C444.247 139.024 444.303 138.448 444.359 137.881C444.415 137.313 444.47 136.625 444.539 136.002C444.608 135.378 444.664 134.746 444.733 134.123C444.802 133.499 444.87 132.876 444.948 132.257C445.025 131.638 445.094 131.01 445.18 130.391C445.244 129.879 445.309 129.363 445.382 128.847C445.481 128.121 445.584 127.394 445.691 126.672C445.691 126.56 445.726 126.452 445.743 126.345C446.529 121.058 447.597 115.816 448.942 110.643L487.533 110.63Z" fill="#EA4848"/>
<path opacity="0.1" d="M443.903 143.466H487.533V202.942H447.093C446.99 203.557 446.887 204.168 446.771 204.782H487.533V252.74C487.464 252.74 487.395 252.689 487.331 252.663C486.184 252.207 485.038 251.724 483.891 251.214C483.646 251.102 483.406 250.986 483.156 250.879C482.01 250.337 480.863 249.764 479.717 249.159C479.317 248.948 478.917 248.729 478.526 248.505C472.161 244.953 466.376 240.45 461.371 235.151C461.221 235.009 461.083 234.854 460.941 234.721C460.245 233.964 459.561 233.199 458.899 232.416C458.65 232.128 458.409 231.836 458.164 231.556C457.381 230.602 456.625 229.613 455.894 228.619C455.782 228.469 455.679 228.323 455.571 228.19C452.577 224.046 450.094 219.556 448.176 214.818C448.116 214.676 448.06 214.521 448.004 214.388C447.411 212.883 446.874 211.357 446.409 209.8C446.212 209.151 446.018 208.51 445.855 207.835C445.795 207.642 445.747 207.444 445.696 207.25C443.279 197.727 443 187.829 443 177.979C443 176.832 443 175.686 443 174.539C443.034 170.517 443.082 166.5 443.142 162.487C443.165 161.455 443.186 160.419 443.206 159.379C443.267 156.744 443.353 154.104 443.464 151.459C443.49 150.728 443.525 149.993 443.563 149.266C443.58 148.845 443.602 148.423 443.628 148.002C443.705 146.48 443.797 144.968 443.903 143.466Z" fill="#EA4848"/>
<path opacity="0.1" d="M445.691 126.332V133.327H487.533V126.332H445.691ZM449.858 132.889H446.418V126.775H449.858V132.889ZM454.024 132.889H450.584V126.775H454.024V132.889ZM458.181 132.889H454.742V126.775H458.181V132.889ZM462.347 132.889H458.908V126.775H462.347V132.889ZM466.509 132.889H463.069V126.775H466.509V132.889ZM470.675 132.889H467.236V126.775H470.675V132.889ZM474.841 132.889H471.402V126.775H474.841V132.889ZM479.003 132.889H475.563V126.775H479.003V132.889ZM483.165 132.889H479.725V126.775H483.165V132.889ZM487.331 132.889H483.891V126.775H487.331V132.889Z" fill="#EA4848"/>
<path opacity="0.1" d="M445.691 146.695V153.69H487.533V146.695H445.691ZM449.858 153.252H446.418V147.138H449.858V153.252ZM454.024 153.252H450.584V147.138H454.024V153.252ZM458.181 153.252H454.742V147.138H458.181V153.252ZM462.347 153.252H458.908V147.138H462.347V153.252ZM466.509 153.252H463.069V147.138H466.509V153.252ZM470.675 153.252H467.236V147.138H470.675V153.252ZM474.841 153.252H471.402V147.138H474.841V153.252ZM479.003 153.252H475.563V147.138H479.003V153.252ZM483.165 153.252H479.725V147.138H483.165V153.252ZM487.331 153.252H483.891V147.138H487.331V153.252Z" fill="#EA4848"/>
<path opacity="0.1" d="M445.691 167.062V174.053H487.533V167.062H445.691ZM449.858 173.61H446.418V167.496H449.858V173.61ZM454.024 173.61H450.584V167.496H454.024V173.61ZM458.181 173.61H454.742V167.496H458.181V173.61ZM462.347 173.61H458.908V167.496H462.347V173.61ZM466.509 173.61H463.069V167.496H466.509V173.61ZM470.675 173.61H467.236V167.496H470.675V173.61ZM474.841 173.61H471.402V167.496H474.841V173.61ZM479.003 173.61H475.563V167.496H479.003V173.61ZM483.165 173.61H479.725V167.496H483.165V173.61ZM487.331 173.61H483.891V167.496H487.331V173.61Z" fill="#EA4848"/>
<path opacity="0.1" d="M445.691 187.425V194.416H487.533V187.425H445.691ZM449.858 193.978H446.418V187.855H449.858V193.978ZM454.024 193.978H450.584V187.855H454.024V193.978ZM458.181 193.978H454.742V187.855H458.181V193.978ZM462.347 193.978H458.908V187.855H462.347V193.978ZM466.509 193.978H463.069V187.855H466.509V193.978ZM470.675 193.978H467.236V187.855H470.675V193.978ZM474.841 193.978H471.402V187.855H474.841V193.978ZM479.003 193.978H475.563V187.855H479.003V193.978ZM483.165 193.978H479.725V187.855H483.165V193.978ZM487.331 193.978H483.891V187.855H487.331V193.978Z" fill="#EA4848"/>
<path opacity="0.1" d="M445.894 207.779C446.057 208.441 446.25 209.095 446.448 209.744V208.222H449.888V214.332H448.043C448.095 214.478 448.151 214.629 448.211 214.762H487.55V207.779H445.894ZM454.062 214.332H450.623V208.222H454.062V214.332ZM458.22 214.332H454.78V208.222H458.22V214.332ZM462.386 214.332H458.946V208.222H462.386V214.332ZM466.548 214.332H463.108V208.222H466.548V214.332ZM470.714 214.332H467.274V208.222H470.714V214.332ZM474.88 214.332H471.44V208.222H474.88V214.332ZM479.042 214.332H475.602V208.222H479.042V214.332ZM483.204 214.332H479.764V208.222H483.204V214.332ZM487.37 214.332H483.93V208.222H487.37V214.332Z" fill="#EA4848"/>
<path opacity="0.1" d="M455.584 228.142C455.696 228.28 455.799 228.435 455.907 228.572H458.181V231.509L458.916 232.369V228.555H462.356V234.721H460.941C461.079 234.863 461.212 235.013 461.371 235.151H487.524V228.142H455.584ZM466.53 234.721H463.091V228.581H466.53V234.721ZM470.697 234.721H467.257V228.581H470.697V234.721ZM474.863 234.721H471.423V228.581H474.863V234.721ZM479.024 234.721H475.585V228.581H479.024V234.721ZM483.186 234.721H479.747V228.581H483.186V234.721ZM487.352 234.721H483.913V228.581H487.352V234.721Z" fill="#EA4848"/>
<path opacity="0.1" d="M0.902873 146.466H44.533V205.942H4.09301C3.98983 206.557 3.88664 207.168 3.77056 207.782H44.533V255.74C44.4642 255.74 44.3954 255.689 44.3309 255.663C43.1844 255.207 42.0379 254.724 40.8914 254.214C40.6464 254.102 40.4056 253.986 40.1562 253.879C39.0097 253.337 37.8632 252.764 36.7167 252.159C36.3169 251.948 35.917 251.729 35.5258 251.505C29.1609 247.953 23.3759 243.45 18.3713 238.151C18.2208 238.009 18.0832 237.854 17.9413 237.721C17.2448 236.964 16.5612 236.199 15.8991 235.416C15.6497 235.128 15.409 234.836 15.1639 234.556C14.3814 233.602 13.6247 232.613 12.8938 231.619C12.7821 231.469 12.6789 231.323 12.5714 231.19C9.57729 227.046 7.09435 222.556 5.17646 217.818C5.11626 217.676 5.06037 217.521 5.00448 217.388C4.41117 215.883 3.87374 214.357 3.40941 212.8C3.21164 212.151 3.01817 211.51 2.85479 210.835C2.7946 210.642 2.74731 210.444 2.69571 210.25C0.279462 200.727 0 190.829 0 180.979C0 179.832 0 178.686 0 177.539C0.0343951 173.517 0.081689 169.5 0.14188 165.487C0.16481 164.455 0.186308 163.419 0.206372 162.379C0.266563 159.744 0.35255 157.104 0.464334 154.459C0.49013 153.728 0.524527 152.993 0.563221 152.266C0.580419 151.845 0.601916 151.423 0.627713 151.002C0.705101 149.48 0.796821 147.968 0.902873 146.466Z" fill="#EA4848"/>
<path opacity="0.1" d="M44.533 80.2434H20.5984C24.4909 74.1573 28.7418 68.3081 33.3289 62.7268C36.8887 58.3584 40.6378 54.1018 44.533 50V80.2434Z" fill="#EA4848"/>
<path opacity="0.1" d="M44.5331 82.075V144.626H1.04053C1.04053 144.445 1.06632 144.26 1.08352 144.08C1.12221 143.585 1.16091 143.095 1.2039 142.6C1.2469 142.024 1.30279 141.448 1.35868 140.881C1.41457 140.313 1.47046 139.625 1.53925 139.002C1.60804 138.378 1.66394 137.746 1.73273 137.123C1.80152 136.499 1.87031 135.876 1.9477 135.257C2.02509 134.638 2.09387 134.01 2.17986 133.391C2.24435 132.879 2.30884 132.363 2.38193 131.847C2.48082 131.121 2.584 130.394 2.69149 129.672C2.69149 129.56 2.72588 129.452 2.74308 129.345C3.52885 124.057 4.59662 118.816 5.94182 113.643C7.35446 108.217 9.15775 102.9 11.3375 97.7341C13.6538 92.3215 16.3669 87.0875 19.4548 82.075H44.5331Z" fill="#EA4848"/>
<path opacity="0.1" d="M44.5331 113.63V144.626H1.04053C1.04053 144.445 1.06632 144.26 1.08352 144.08C1.12221 143.585 1.16091 143.095 1.2039 142.6C1.2469 142.024 1.30279 141.448 1.35868 140.881C1.41457 140.313 1.47046 139.625 1.53925 139.002C1.60804 138.378 1.66394 137.746 1.73273 137.123C1.80152 136.499 1.87031 135.876 1.9477 135.257C2.02509 134.638 2.09387 134.01 2.17986 133.391C2.24435 132.879 2.30884 132.363 2.38193 131.847C2.48082 131.121 2.584 130.394 2.69149 129.672C2.69149 129.56 2.72588 129.452 2.74308 129.345C3.52885 124.058 4.59662 118.816 5.94182 113.643L44.5331 113.63Z" fill="#EA4848"/>
<path opacity="0.1" d="M0.902873 146.466H44.533V205.942H4.09301C3.98983 206.557 3.88664 207.168 3.77056 207.782H44.533V255.74C44.4642 255.74 44.3954 255.689 44.3309 255.663C43.1844 255.207 42.0379 254.724 40.8914 254.214C40.6464 254.102 40.4056 253.986 40.1562 253.879C39.0097 253.337 37.8632 252.764 36.7167 252.159C36.3169 251.948 35.917 251.729 35.5258 251.505C29.1609 247.953 23.3759 243.45 18.3713 238.151C18.2208 238.009 18.0832 237.854 17.9413 237.721C17.2448 236.964 16.5612 236.199 15.8991 235.416C15.6497 235.128 15.409 234.836 15.1639 234.556C14.3814 233.602 13.6247 232.613 12.8938 231.619C12.7821 231.469 12.6789 231.323 12.5714 231.19C9.57729 227.046 7.09435 222.556 5.17646 217.818C5.11626 217.676 5.06037 217.521 5.00448 217.388C4.41117 215.883 3.87374 214.357 3.40941 212.8C3.21164 212.151 3.01817 211.51 2.85479 210.835C2.7946 210.642 2.74731 210.444 2.69571 210.25C0.279462 200.727 0 190.829 0 180.979C0 179.832 0 178.686 0 177.539C0.0343951 173.517 0.081689 169.5 0.14188 165.487C0.16481 164.455 0.186308 163.419 0.206372 162.379C0.266563 159.744 0.35255 157.104 0.464334 154.459C0.49013 153.728 0.524527 152.993 0.563221 152.266C0.580419 151.845 0.601916 151.423 0.627713 151.002C0.705101 149.48 0.796821 147.968 0.902873 146.466Z" fill="#EA4848"/>
<path opacity="0.1" d="M2.69141 129.332V136.327H44.533V129.332H2.69141ZM6.85751 135.889H3.418V129.775H6.85751V135.889ZM11.0236 135.889H7.5841V129.775H11.0236V135.889ZM15.1811 135.889H11.7416V129.775H15.1811V135.889ZM19.3472 135.889H15.9077V129.775H19.3472V135.889ZM23.509 135.889H20.0695V129.775H23.509V135.889ZM27.6751 135.889H24.2356V129.775H27.6751V135.889ZM31.8412 135.889H28.4017V129.775H31.8412V135.889ZM36.003 135.889H32.5635V129.775H36.003V135.889ZM40.1648 135.889H36.7253V129.775H40.1648V135.889ZM44.3309 135.889H40.8914V129.775H44.3309V135.889Z" fill="#EA4848"/>
<path opacity="0.1" d="M2.69141 149.695V156.69H44.533V149.695H2.69141ZM6.85751 156.252H3.418V150.138H6.85751V156.252ZM11.0236 156.252H7.5841V150.138H11.0236V156.252ZM15.1811 156.252H11.7416V150.138H15.1811V156.252ZM19.3472 156.252H15.9077V150.138H19.3472V156.252ZM23.509 156.252H20.0695V150.138H23.509V156.252ZM27.6751 156.252H24.2356V150.138H27.6751V156.252ZM31.8412 156.252H28.4017V150.138H31.8412V156.252ZM36.003 156.252H32.5635V150.138H36.003V156.252ZM40.1648 156.252H36.7253V150.138H40.1648V156.252ZM44.3309 156.252H40.8914V150.138H44.3309V156.252Z" fill="#EA4848"/>
<path opacity="0.1" d="M2.69141 170.062V177.053H44.533V170.062H2.69141ZM6.85751 176.61H3.418V170.496H6.85751V176.61ZM11.0236 176.61H7.5841V170.496H11.0236V176.61ZM15.1811 176.61H11.7416V170.496H15.1811V176.61ZM19.3472 176.61H15.9077V170.496H19.3472V176.61ZM23.509 176.61H20.0695V170.496H23.509V176.61ZM27.6751 176.61H24.2356V170.496H27.6751V176.61ZM31.8412 176.61H28.4017V170.496H31.8412V176.61ZM36.003 176.61H32.5635V170.496H36.003V176.61ZM40.1648 176.61H36.7253V170.496H40.1648V176.61ZM44.3309 176.61H40.8914V170.496H44.3309V176.61Z" fill="#EA4848"/>
<path opacity="0.1" d="M2.69141 190.425V197.416H44.533V190.425H2.69141ZM6.85751 196.978H3.418V190.855H6.85751V196.978ZM11.0236 196.978H7.5841V190.855H11.0236V196.978ZM15.1811 196.978H11.7416V190.855H15.1811V196.978ZM19.3472 196.978H15.9077V190.855H19.3472V196.978ZM23.509 196.978H20.0695V190.855H23.509V196.978ZM27.6751 196.978H24.2356V190.855H27.6751V196.978ZM31.8412 196.978H28.4017V190.855H31.8412V196.978ZM36.003 196.978H32.5635V190.855H36.003V196.978ZM40.1648 196.978H36.7253V190.855H40.1648V196.978ZM44.3309 196.978H40.8914V190.855H44.3309V196.978Z" fill="#EA4848"/>
<path opacity="0.1" d="M2.89355 210.779C3.05693 211.441 3.2504 212.095 3.44818 212.744V211.222H6.88768V217.332H5.04324C5.09484 217.478 5.15073 217.629 5.21092 217.762H44.5502V210.779H2.89355ZM11.0624 217.332H7.62287V211.222H11.0624V217.332ZM15.2199 217.332H11.7804V211.222H15.2199V217.332ZM19.386 217.332H15.9465V211.222H19.386V217.332ZM23.5478 217.332H20.1083V211.222H23.5478V217.332ZM27.7139 217.332H24.2744V211.222H27.7139V217.332ZM31.88 217.332H28.4405V211.222H31.88V217.332ZM36.0418 217.332H32.6023V211.222H36.0418V217.332ZM40.2036 217.332H36.7641V211.222H40.2036V217.332ZM44.3697 217.332H40.9302V211.222H44.3697V217.332Z" fill="#EA4848"/>
<path opacity="0.1" d="M12.5842 231.142C12.696 231.28 12.7992 231.435 12.9067 231.572H15.1811V234.509L15.9162 235.369V231.555H19.3558V237.721H17.9413C18.0788 237.863 18.2121 238.013 18.3712 238.151H44.5243V231.142H12.5842ZM23.5305 237.721H20.0909V231.581H23.5305V237.721ZM27.6966 237.721H24.2571V231.581H27.6966V237.721ZM31.8627 237.721H28.4232V231.581H31.8627V237.721ZM36.0245 237.721H32.585V231.581H36.0245V237.721ZM40.1863 237.721H36.7468V231.581H40.1863V237.721ZM44.3524 237.721H40.9129V231.581H44.3524V237.721Z" fill="#EA4848"/>
<defs>
<linearGradient id="paint0_linear" x1="132.241" y1="362.387" x2="132.241" y2="114.021" gradientUnits="userSpaceOnUse">
<stop stop-color="#808080" stop-opacity="0.25"/>
<stop offset="0.54" stop-color="#808080" stop-opacity="0.12"/>
<stop offset="1" stop-color="#808080" stop-opacity="0.1"/>
</linearGradient>
<linearGradient id="paint1_linear" x1="82218.3" y1="232760" x2="82218.3" y2="69967.2" gradientUnits="userSpaceOnUse">
<stop stop-color="#808080" stop-opacity="0.25"/>
<stop offset="0.54" stop-color="#808080" stop-opacity="0.12"/>
<stop offset="1" stop-color="#808080" stop-opacity="0.1"/>
</linearGradient>
</defs>
</svg>
