<svg width="448" height="270" viewBox="0 0 448 270" fill="none" xmlns="http://www.w3.org/2000/svg">
<path d="M447.414 6.77214V262.496C447.414 263.341 447.248 264.178 446.924 264.959C446.601 265.74 446.127 266.449 445.53 267.047C444.933 267.645 444.223 268.119 443.442 268.443C442.662 268.767 441.825 268.934 440.98 268.934H6.86859C6.55955 268.936 6.25088 268.912 5.94592 268.862C4.41463 268.642 3.01412 267.877 2.0011 266.707C0.988079 265.538 0.430449 264.043 0.43042 262.496V6.77214C0.430137 5.92695 0.596317 5.08998 0.919495 4.30902C1.24267 3.52806 1.71653 2.8184 2.31397 2.22057C2.9114 1.62273 3.62074 1.14842 4.40149 0.824723C5.18224 0.501022 6.01907 0.334266 6.86426 0.333985H440.975C441.821 0.3337 442.658 0.499894 443.438 0.823075C444.219 1.14625 444.929 1.62009 445.527 2.21753C446.125 2.81497 446.599 3.52433 446.923 4.30508C447.247 5.08584 447.413 5.9227 447.414 6.7679V6.77214Z" fill="#E6E6E6"/>
<path d="M109.857 152.382C141.052 152.382 166.34 127.094 166.34 95.8995C166.34 64.7048 141.052 39.4165 109.857 39.4165C78.6624 39.4165 53.374 64.7048 53.374 95.8995C53.374 127.094 78.6624 152.382 109.857 152.382Z" fill="#EA4848"/>
<path d="M286.982 269.959H9.89288C9.54594 269.964 9.19933 269.936 8.85742 269.877L139.908 42.8794C140.707 41.4657 141.868 40.2896 143.271 39.4714C144.674 38.6531 146.27 38.2219 147.894 38.2219C149.518 38.2219 151.113 38.6531 152.516 39.4714C153.92 40.2896 155.08 41.4657 155.88 42.8794L243.831 195.213L248.045 202.502L286.982 269.959Z" fill="#3F3D56"/>
<path opacity="0.2" d="M286.981 269.959H192.377L238.818 202.502L242.161 197.643L243.832 195.212L248.045 202.502L286.981 269.959Z" fill="black"/>
<path d="M441.262 269.959H201.604L248.045 202.502L251.387 197.642L311.904 109.732C315.871 103.97 325.416 103.612 330.08 108.645C330.394 108.989 330.685 109.352 330.952 109.732L441.262 269.959Z" fill="#3F3D56"/>
</svg>
