<svg width="924" height="567" viewBox="0 0 924 567" fill="none" xmlns="http://www.w3.org/2000/svg">
<path d="M858.581 8H857.999C834.809 8 814.301 19.6053 802.504 36.7302C790.707 19.6053 770.199 8 747.009 8H746.426C729.023 8.15685 712.389 14.8029 700.138 26.494C687.887 38.1851 681.009 53.9764 681 70.4362C681 90.8759 690.465 119.878 708.922 143.743C744.087 189.216 802.504 229 802.504 229C802.504 229 860.921 189.223 896.078 143.743C914.542 119.878 924 90.8759 924 70.4362C923.991 53.9776 917.114 38.1874 904.865 26.4966C892.616 14.8057 875.983 8.15877 858.581 8ZM850.243 147.241C847.602 147.232 845.026 146.467 842.852 145.048C840.679 143.629 839.01 141.621 838.065 139.289H824.201C823.288 139.283 822.4 139.009 821.66 138.503C820.92 137.997 820.366 137.285 820.075 136.466L815.816 124.332L802.341 168.864C802.078 169.722 801.529 170.475 800.775 171.012C800.021 171.549 799.103 171.84 798.16 171.841H797.888C796.903 171.796 795.965 171.433 795.229 170.812C794.494 170.191 794.006 169.351 793.847 168.431L779.959 89.4354L769.81 136.18C769.577 137.068 769.037 137.857 768.275 138.42C767.513 138.984 766.573 139.289 765.606 139.289H746.077C745.491 139.312 744.907 139.223 744.359 139.028C743.81 138.832 743.31 138.533 742.887 138.15C742.464 137.766 742.127 137.306 741.897 136.796C741.667 136.287 741.549 135.738 741.549 135.184C741.549 134.63 741.667 134.081 741.897 133.572C742.127 133.062 742.464 132.601 742.887 132.218C743.31 131.835 743.81 131.536 744.359 131.34C744.907 131.144 745.491 131.056 746.077 131.079H762.186L776.563 68.2313C776.799 67.3021 777.369 66.4793 778.176 65.9035C778.982 65.3278 779.975 65.0348 780.985 65.0748C781.994 65.1147 782.958 65.485 783.71 66.1224C784.463 66.7599 784.959 67.6248 785.112 68.5694L799.294 149.152L811.371 109.309C811.622 108.47 812.154 107.73 812.887 107.2C813.619 106.671 814.513 106.379 815.435 106.369H815.521C816.434 106.369 817.324 106.642 818.064 107.149C818.803 107.656 819.355 108.371 819.64 109.192L827.341 131.101H837.894C838.645 128.945 840.01 127.027 841.84 125.559C843.67 124.091 845.894 123.129 848.265 122.78C850.637 122.432 853.064 122.71 855.279 123.583C857.494 124.457 859.411 125.892 860.818 127.731C862.225 129.57 863.067 131.74 863.252 134.003C863.437 136.266 862.957 138.534 861.865 140.555C860.774 142.577 859.113 144.273 857.066 145.458C855.019 146.643 852.666 147.271 850.266 147.271L850.243 147.241Z" fill="#EA4848"/>
<path opacity="0.1" d="M146.497 394.313H122.922V415.314H146.497V394.313Z" fill="#EA4848"/>
<path opacity="0.1" d="M105.938 343.679H169.193V428.598C161.731 430.508 154.128 431.947 146.439 432.903L144.549 433.11C143.621 433.206 142.7 433.287 141.789 433.369C140.877 433.45 139.932 433.509 139.012 433.561H138.722C138.324 433.561 137.893 433.605 137.503 433.612H137.08C136.583 433.612 136.086 433.657 135.588 433.671C134.884 433.708 134.179 433.716 133.458 433.723C133.151 433.723 132.861 433.723 132.554 433.723C131.842 433.723 131.137 433.723 130.424 433.723H128.857C128.435 433.723 128.028 433.723 127.589 433.723L125.989 433.671C125.16 433.671 124.265 433.59 123.403 433.538L121.811 433.435L119.83 433.273C118.438 433.162 117.053 433.021 115.686 432.852L114.028 432.645L113.199 432.542C111.815 432.35 110.447 432.143 109.054 431.906C108.035 431.751 107.023 431.559 105.996 431.375L105.938 343.679Z" fill="#EA4848"/>
<path opacity="0.1" d="M146.497 345.532H122.922V366.533H146.497V345.532Z" fill="#EA4848"/>
<path opacity="0.1" d="M146.497 296.752H122.922V317.752H146.497V296.752Z" fill="#EA4848"/>
<path opacity="0.1" d="M169.193 238.364H105.946V340.511H169.193V238.364Z" fill="#EA4848"/>
<path opacity="0.1" d="M146.497 247.978H122.922V268.979H146.497V247.978Z" fill="#EA4848"/>
<path opacity="0.1" d="M146.497 199.197H122.922V220.198H146.497V199.197Z" fill="#EA4848"/>
<path opacity="0.1" d="M169.193 143.172V235.21H105.938V143.172H114.956V112.01H151.976V143.172H169.193Z" fill="#EA4848"/>
<path opacity="0.1" d="M1.72417 238.371H85.8522V340.518H7.88312C7.67588 341.567 7.47694 342.623 7.26142 343.679H85.8522V426.058C85.7113 426.021 85.5869 425.977 85.4543 425.933C83.2328 425.15 81.0278 424.323 78.8229 423.437L77.4137 422.868C75.2032 421.938 72.9927 420.953 70.7822 419.914C70.0113 419.553 69.2404 419.176 68.4778 418.792C56.2062 412.668 45.0581 404.909 35.4201 395.782C35.1383 395.539 34.873 395.28 34.5912 395.044C33.2483 393.744 31.9303 392.43 30.6538 391.086L29.2446 389.609C27.736 387.963 26.277 386.271 24.8596 384.558C24.6523 384.307 24.4534 384.056 24.2379 383.82C18.4731 376.699 13.6865 368.989 9.98031 360.855C9.86426 360.611 9.76478 360.345 9.65702 360.116C8.51863 357.507 7.5101 354.873 6.63143 352.215C6.25012 351.1 5.8854 350 5.5704 348.84C5.45435 348.501 5.35488 348.168 5.2637 347.836C0.555381 331.465 0 314.459 0 297.571C0 295.599 0 293.62 0 291.664C0 284.833 0.0911826 277.958 0.223811 271.091C0.223811 269.311 0.306702 267.539 0.348149 265.752C0.464199 261.218 0.629986 256.684 0.845508 252.15C0.895244 250.887 0.961558 249.632 1.03616 248.377C1.03616 247.653 1.07761 246.929 1.1605 246.206C1.35944 243.577 1.52523 240.97 1.72417 238.371Z" fill="#EA4848"/>
<path opacity="0.1" d="M85.8522 127.798V235.21H1.98938C1.98938 234.9 2.0474 234.583 2.07227 234.273C2.14688 233.423 2.22148 232.574 2.30437 231.732C2.39555 230.743 2.49502 229.746 2.60279 228.779C2.71055 227.811 2.8266 226.63 2.95094 225.559C3.07528 224.488 3.19133 223.403 3.33224 222.332C3.47316 221.261 3.5975 220.191 3.74671 219.127C3.89592 218.064 4.02855 216.986 4.18604 215.923C4.31038 215.037 4.44301 214.158 4.57564 213.272C4.76629 212.024 4.96523 210.768 5.18076 209.528C5.18076 209.343 5.23878 209.151 5.27194 208.974C6.78489 199.892 8.84639 190.89 11.4475 182.006C14.1702 172.687 17.6469 163.556 21.8505 154.685C26.3182 145.404 31.5491 136.43 37.5007 127.835L85.8522 127.798Z" fill="#EA4848"/>
<path opacity="0.1" d="M85.8522 181.977V235.211H1.98938C1.98938 234.9 2.0474 234.583 2.07227 234.273C2.14688 233.424 2.22148 232.574 2.30437 231.732C2.39555 230.743 2.49502 229.746 2.60279 228.779C2.71055 227.811 2.8266 226.63 2.95094 225.559C3.07528 224.488 3.19133 223.403 3.33224 222.332C3.47316 221.262 3.5975 220.191 3.74671 219.127C3.89592 218.064 4.02855 216.986 4.18604 215.923C4.31038 215.037 4.44301 214.158 4.57564 213.272C4.76629 212.024 4.96523 210.768 5.18076 209.528C5.18076 209.343 5.23878 209.151 5.27194 208.974C6.78489 199.892 8.84639 190.89 11.4475 182.006L85.8522 181.977Z" fill="#EA4848"/>
<path opacity="0.1" d="M1.72417 238.371H85.8522V340.518H7.88312C7.67588 341.567 7.47694 342.623 7.26142 343.679H85.8522V426.058C85.7113 426.021 85.5869 425.977 85.4543 425.933C83.2328 425.15 81.0278 424.323 78.8229 423.437L77.4137 422.868C75.2032 421.938 72.9927 420.953 70.7822 419.914C70.0113 419.553 69.2404 419.176 68.4778 418.792C56.2062 412.668 45.0581 404.909 35.4201 395.782C35.1383 395.539 34.873 395.28 34.5912 395.044C33.2483 393.744 31.9303 392.43 30.6538 391.086L29.2446 389.609C27.736 387.963 26.277 386.271 24.8596 384.558C24.6523 384.307 24.4534 384.056 24.2379 383.82C18.4731 376.699 13.6865 368.989 9.98031 360.855C9.86426 360.611 9.76478 360.345 9.65702 360.116C8.51863 357.507 7.5101 354.873 6.63143 352.215C6.25012 351.1 5.8854 350 5.5704 348.84C5.45435 348.501 5.35488 348.168 5.2637 347.836C0.555381 331.465 0 314.459 0 297.571C0 295.599 0 293.62 0 291.664C0 284.833 0.0911826 277.958 0.223811 271.091C0.223811 269.311 0.306702 267.539 0.348149 265.752C0.464199 261.218 0.629986 256.684 0.845508 252.15C0.895244 250.887 0.961558 249.632 1.03616 248.377C1.03616 247.653 1.07761 246.929 1.1605 246.206C1.35944 243.577 1.52523 240.97 1.72417 238.371Z" fill="#EA4848"/>
<path opacity="0.1" d="M5.17285 208.959V220.974H85.8525V208.959H5.17285ZM13.2135 220.22H6.63177V209.698H13.2632L13.2135 220.22ZM21.2458 220.22H14.6144V209.698H21.2458V220.22ZM29.2615 220.22H22.6301V209.698H29.2615V220.22ZM37.2939 220.22H30.6707V209.698H37.3021L37.2939 220.22ZM45.3179 220.22H38.6865V209.698H45.3179V220.22ZM53.3502 220.22H46.7188V209.698H53.3502V220.22ZM61.3825 220.22H54.7511V209.698H61.3825V220.22ZM69.4066 220.22H62.7751V209.698H69.4066V220.22ZM77.4306 220.22H70.7992V209.698H77.4306V220.22ZM85.4546 220.22H78.8232V209.698H85.4546V220.22Z" fill="#EA4848"/>
<path opacity="0.1" d="M5.17285 243.917V255.931H85.8525V243.917H5.17285ZM13.2135 255.17H6.63177V244.677H13.2632L13.2135 255.17ZM21.2458 255.17H14.6144V244.677H21.2458V255.17ZM29.2615 255.17H22.6301V244.677H29.2615V255.17ZM37.2939 255.17H30.6707V244.677H37.3021L37.2939 255.17ZM45.3179 255.17H38.6865V244.677H45.3179V255.17ZM53.3502 255.17H46.7188V244.677H53.3502V255.17ZM61.3825 255.17H54.7511V244.677H61.3825V255.17ZM69.4066 255.17H62.7751V244.677H69.4066V255.17ZM77.4306 255.17H70.7992V244.677H77.4306V255.17ZM85.4546 255.17H78.8232V244.677H85.4546V255.17Z" fill="#EA4848"/>
<path opacity="0.1" d="M5.17285 278.889V290.925H85.8525V278.889H5.17285ZM13.2135 290.143H6.63177V279.642H13.2632L13.2135 290.143ZM21.2458 290.143H14.6144V279.642H21.2458V290.143ZM29.2615 290.143H22.6301V279.642H29.2615V290.143ZM37.2939 290.143H30.6707V279.642H37.3021L37.2939 290.143ZM45.3179 290.143H38.6865V279.642H45.3179V290.143ZM53.3502 290.143H46.7188V279.642H53.3502V290.143ZM61.3825 290.143H54.7511V279.642H61.3825V290.143ZM69.4066 290.143H62.7751V279.642H69.4066V290.143ZM77.4306 290.143H70.7992V279.642H77.4306V290.143ZM85.4546 290.143H78.8232V279.642H85.4546V290.143Z" fill="#EA4848"/>
<path opacity="0.1" d="M5.17285 313.861V325.86H85.8525V313.861H5.17285ZM13.2135 325.115H6.63177V314.607H13.2632L13.2135 325.115ZM21.2458 325.115H14.6144V314.607H21.2458V325.115ZM29.2615 325.115H22.6301V314.607H29.2615V325.115ZM37.2939 325.115H30.6707V314.607H37.3021L37.2939 325.115ZM45.3179 325.115H38.6865V314.607H45.3179V325.115ZM53.3502 325.115H46.7188V314.607H53.3502V325.115ZM61.3825 325.115H54.7511V314.607H61.3825V325.115ZM69.4066 325.115H62.7751V314.607H69.4066V325.115ZM77.4306 325.115H70.7992V314.607H77.4306V325.115ZM85.4546 325.115H78.8232V314.607H85.4546V325.115Z" fill="#EA4848"/>
<path opacity="0.1" d="M5.52063 348.826C5.84391 349.955 6.20864 351.085 6.58994 352.2V349.579H13.2214V360.079H9.67356C9.78132 360.323 9.88908 360.589 9.99684 360.818H85.8522V348.826H5.52063ZM21.2703 360.079H14.6389V349.579H21.2703V360.079ZM29.286 360.079H22.6546V349.579H29.286V360.079ZM37.3183 360.079H30.6703V349.579H37.3018L37.3183 360.079ZM45.3424 360.079H38.7109V349.579H45.3424V360.079ZM53.3747 360.079H46.7433V349.579H53.3747V360.079ZM61.407 360.079H54.7756V349.579H61.407V360.079ZM69.4311 360.079H62.7996V349.579H69.4311V360.079ZM77.4551 360.079H70.8237V349.579H77.4551V360.079ZM85.4791 360.079H78.8477V349.579H85.4791V360.079Z" fill="#EA4848"/>
<path opacity="0.1" d="M24.2546 383.798C24.4619 384.034 24.6608 384.3 24.8763 384.536H29.2614V389.58C29.7339 390.082 30.1981 390.584 30.6788 391.056V384.507H37.3103V395.044H34.6245C34.8898 395.288 35.1468 395.546 35.4535 395.782H85.8773V383.798H24.2546ZM45.3177 395.044H38.6863V384.551H45.3177V395.044ZM53.3501 395.044H46.7186V384.551H53.3501V395.044ZM61.3824 395.044H54.751V384.551H61.3824V395.044ZM69.4064 395.044H62.775V384.551H69.4064V395.044ZM77.4305 395.044H70.799V384.551H77.4305V395.044ZM85.4545 395.044H78.8231V384.551H85.4545V395.044Z" fill="#EA4848"/>
<path opacity="0.1" d="M106.65 239.361V337.273H286.322V239.361H106.65ZM106.65 340.295V424.377C107.678 424.561 108.697 424.738 109.708 424.886C111.084 425.113 112.452 425.318 113.853 425.495C114.118 425.53 114.391 425.566 114.682 425.587C115.229 425.665 115.792 425.729 116.339 425.792C117.723 425.955 119.099 426.089 120.484 426.196C121.138 426.252 121.801 426.302 122.465 426.344L124.064 426.45C124.935 426.507 125.797 426.55 126.65 426.571C127.181 426.571 127.711 426.613 128.258 426.627C128.673 426.627 129.087 426.627 129.518 426.627C129.949 426.627 130.563 426.627 131.085 426.627C131.798 426.627 132.51 426.627 133.215 426.627H134.168C134.881 426.627 135.594 426.627 136.298 426.571H136.348C136.837 426.571 137.334 426.571 137.832 426.514C137.97 426.521 138.108 426.521 138.246 426.514C138.66 426.514 139.075 426.514 139.473 426.465H139.763L142.54 426.281C143.451 426.21 144.371 426.118 145.3 426.033L147.189 425.842C154.878 424.922 162.481 423.541 169.942 421.708C186.701 417.717 203.096 412.133 219.847 408.042C241.505 402.769 265.435 400.178 286.363 406.626V340.295H106.65ZM286.322 130.36V0.0115746C266.651 -0.170407 247.033 1.79419 227.945 5.85766C182.449 15.6177 141.628 36.7867 106.65 63.8231V130.352H115.668V133.375H106.65V236.339H286.322V133.382H152.693V130.36H286.322ZM517.101 86.3299C505.846 85.9901 494.656 82.9468 484.536 78.2472C465.182 69.2587 449.723 55.3796 432.45 43.6661C396.56 19.2697 352.051 4.54831 306.389 0.896273V130.36H562.879L563.518 129.786L517.101 86.3299ZM540.467 82.7911L565.242 106.006V76.7043C556.945 77.582 549.676 79.6698 540.5 82.7627L540.467 82.7911ZM565.242 445.256V340.295H512.452C512.311 339.849 512.17 339.396 512.004 338.943C512.161 339.396 512.294 339.849 512.443 340.295H306.422V416.202C308.378 417.441 310.309 418.743 312.224 420.066C314.288 421.482 316.327 422.975 318.374 424.44L320.438 425.898C321.424 426.606 322.419 427.314 323.422 427.979C325.411 429.357 327.42 430.716 329.447 432.056C330.45 432.764 331.478 433.401 332.498 434.066C348.683 444.633 365.757 454.168 383.58 462.596C387.575 464.483 391.606 466.326 395.673 468.123C398.384 469.305 401.111 470.48 403.846 471.62C407.957 473.332 412.101 474.984 416.279 476.574C454.793 491.337 495.519 501.467 537.292 506.675C546.57 507.845 555.884 508.765 565.233 509.435V445.249H566.062L565.242 445.256ZM306.422 133.382V236.339H565.275V133.382H306.422ZM306.422 239.361V337.273H565.275V239.361H306.422ZM585.366 76.5769V109.261L616.987 79.6345C606.511 78.1906 595.97 77.1597 585.366 76.5415V76.5769ZM585.366 239.397V337.273H837.133V239.361L585.366 239.397ZM836.213 453.027L837.099 340.295H585.366V510.561C601.583 511.142 617.825 510.977 634.02 510.065H634.302C642.038 509.65 649.738 509.046 657.403 508.253H657.577C698.465 504.19 738.446 495.08 776.269 481.21L836.213 453.027ZM885.679 255.484C884.734 253.58 883.748 251.691 882.745 249.822C880.872 246.283 878.891 242.844 876.852 239.404H857.208V337.273H906.873C906.848 309.557 898.634 281.247 885.704 255.449L885.679 255.484ZM857.208 340.33V437.293C871.199 425.842 883.018 412.741 891.531 397.765C901.767 379.731 906.45 360.204 906.831 340.316L857.208 340.33ZM857.208 210.867V236.346H875.012C869.626 227.575 863.691 219.058 857.232 210.832L857.208 210.867ZM686.462 95.7855C685.153 95.3609 683.843 94.9291 682.525 94.5116C668.626 90.1286 654.423 86.4838 639.997 83.5979L591.608 128.944L590.679 129.786L591.301 130.367H763.522C739.536 116.268 713.677 104.648 686.487 95.7501L686.462 95.7855ZM768.569 133.417H588.897L585.366 136.177V236.339H616.316H616.366H837.166V187.822C817.192 167.195 794.139 148.893 768.594 133.382L768.569 133.417Z" fill="#EA4848"/>
<path opacity="0.1" d="M564.269 228.748V330.903H305.386V286.84H443.279V312.833H512.105V228.748H564.269Z" fill="#EA4848"/>
<path opacity="0.1" d="M565.09 443.587H564.261V510.6C554.922 509.896 545.61 508.938 536.326 507.727C494.528 502.276 453.782 491.684 415.253 476.255C404.128 471.795 393.231 466.927 382.56 461.649C364.735 452.852 347.657 442.903 331.464 431.883C327.397 429.107 323.382 426.266 319.42 423.362C316.676 421.346 313.949 419.278 311.189 417.269C309.274 415.889 307.343 414.53 305.386 413.23V334.063H511.417C511.276 333.59 511.135 333.118 510.986 332.653C511.143 333.118 511.292 333.59 511.433 334.063H564.261V443.543C564.543 443.55 564.816 443.572 565.09 443.587Z" fill="#EA4848"/>
<path opacity="0.1" d="M425.142 328.532H305.386V330.903H425.142V328.532Z" fill="#EA4848"/>
<path opacity="0.1" d="M425.142 334.056H305.386V343.138H425.142V334.056Z" fill="#EA4848"/>
<path opacity="0.1" d="M425.142 372.912H305.386V387.518H425.142V372.912Z" fill="#EA4848"/>
<path opacity="0.1" d="M425.134 417.292V431.898H331.465C327.397 429.131 323.38 426.291 319.412 423.376C316.668 421.361 313.949 419.293 311.181 417.292H425.134Z" fill="#EA4848"/>
<path opacity="0.1" d="M425.134 461.664V476.256H415.244C404.131 471.79 393.236 466.919 382.56 461.642L425.134 461.664Z" fill="#EA4848"/>
<path opacity="0.1" d="M615.323 225.595H615.373H615.323ZM564.261 443.536H565.09H564.261ZM510.986 332.645C511.143 333.118 511.276 333.591 511.425 334.056C511.293 333.591 511.152 333.118 510.986 332.645ZM615.323 225.573H615.373H615.323ZM114.65 115V118.153H151.678V115H114.65ZM564.261 443.536H565.09H564.261ZM510.986 332.645C511.143 333.118 511.276 333.591 511.425 334.056C511.293 333.591 511.152 333.118 510.986 332.645ZM615.323 225.573H615.373H615.323ZM564.261 443.514H565.09H564.261ZM510.986 332.645C511.143 333.118 511.276 333.591 511.425 334.056C511.293 333.591 511.152 333.118 510.986 332.645Z" fill="#EA4848"/>
<path opacity="0.1" d="M148.292 550.874C192.901 550.874 229.063 545.7 229.063 539.318C229.063 532.935 192.901 527.761 148.292 527.761C103.684 527.761 67.5216 532.935 67.5216 539.318C67.5216 545.7 103.684 550.874 148.292 550.874Z" fill="#EA4848"/>
<path d="M226.394 253.559C226.394 253.559 223.128 253.153 223.128 248.914C223.128 244.676 220.791 236.76 220.791 236.76C220.791 236.723 218.768 222.973 215.975 220.788C213.181 218.602 209.592 205.768 209.592 205.768C209.592 205.768 208.978 198.804 207.727 197.305C206.475 195.806 204.784 192.136 202.289 186.901C199.794 181.665 189.391 178.04 189.391 178.04C189.391 178.04 170.582 168.322 165.252 165.154C164.768 164.894 164.315 164.589 163.901 164.246C162.973 163.16 158.928 163.138 158.928 163.138C158.505 160.76 158.099 158.028 157.966 155.554C157.966 155.289 157.966 155.023 157.925 154.757C163.868 151.627 168.345 146.693 170.533 140.86C170.632 140.579 170.715 140.284 170.806 140.003C171.162 139.899 171.49 139.729 171.768 139.505C172.047 139.281 172.27 139.008 172.423 138.704C172.903 137.751 172.912 136.636 173.509 135.75C174.205 134.701 175.531 134.14 176.576 133.35C179.212 131.356 179.891 127.996 179.767 124.939C179.684 122.465 179.236 119.969 179.411 117.511L179.46 116.89C179.51 116.521 179.568 116.152 179.643 115.797C180.049 113.966 180.936 112.238 181.433 110.422C181.93 108.605 181.98 106.56 180.82 104.994C179.12 102.698 175.581 102.24 172.472 102.003C168.949 101.738 165.8 102.085 163.545 99.478C162.49 98.1156 161.302 96.8382 159.997 95.6603C159.533 95.2763 155.023 92.8247 155.023 92.6623C150.622 90.8464 145.634 90.5056 140.973 91.7023C138.636 92.3078 136.431 93.2973 134.06 93.7921C128.945 94.8702 123.06 93.7035 118.716 96.3101C116.296 97.787 114.845 100.135 113.486 102.424C112.381 104.31 111.259 106.193 110.12 108.073C108.288 111.167 106.423 114.313 105.652 117.739C105.49 118.485 105.391 119.24 105.354 119.999V120.036C105.354 120.309 105.354 120.582 105.354 120.856V121.203C105.354 121.461 105.354 121.712 105.404 121.941C105.453 122.17 105.445 122.244 105.47 122.399C105.495 122.554 105.536 122.901 105.586 123.137C105.636 123.374 105.735 123.787 105.835 124.112C105.876 124.252 105.934 124.385 105.984 124.518C106.067 124.769 106.166 125.013 106.274 125.257C106.332 125.382 106.39 125.515 106.456 125.641C106.581 125.899 106.73 126.15 106.879 126.379C106.946 126.482 106.995 126.578 107.062 126.674C107.293 127.018 107.548 127.348 107.824 127.664C109.598 129.636 112.209 130.891 114.141 132.737C114.141 132.811 114.141 132.885 114.141 132.951C114.141 133.158 114.141 133.357 114.141 133.564C114.243 137.681 115.473 141.714 117.724 145.311C119.975 148.908 123.178 151.96 127.055 154.203C127.055 154.484 127.097 154.772 127.113 155.052C127.275 157.244 127.245 159.444 127.022 161.632C126.685 161.278 126.262 160.996 125.786 160.806C125.309 160.617 124.791 160.526 124.27 160.539C123.914 160.523 123.557 160.551 123.209 160.62L123.135 160.568V160.635C121.311 161.034 119.064 162.725 116.918 167.532C116.918 167.532 110.386 174.089 105.412 173.816C100.438 173.543 87.847 180.639 87.847 180.639C87.847 180.639 75.5623 187.743 72.9263 194.979C71.4529 199.083 69.6864 203.098 67.6377 207.001L52.4517 234.877L49.6499 256.993C49.6499 256.993 51.2 266.829 50.8933 268.328C50.5866 269.827 57.2678 283.347 57.2678 283.347C57.2678 283.347 79.3422 317.899 88.3609 319.671L89.0075 319.265C89.3933 319.444 89.8026 319.581 90.226 319.671L92.0828 318.504C92.1943 319.805 92.1471 321.112 91.9419 322.403C90.6985 325.815 92.4061 348.078 94.5779 352.443C96.7497 356.807 95.9788 414.028 95.9788 414.028L95.6721 419.079C95.6721 419.079 95.6721 419.241 95.7467 419.522L95.6721 420.718L95.8959 420.821C96.1283 422.423 96.0526 424.049 95.6721 425.628C94.8929 427.844 94.5779 434.106 94.5779 434.106C94.5779 434.106 88.3692 469.462 91.3119 476.565C94.2546 483.669 96.758 491.452 96.758 491.452C96.758 491.452 99.8665 500.313 96.9072 501.827C93.9479 503.341 85.5343 505.881 87.2667 509.573C88.8417 512.985 94.8183 522.127 95.7052 523.463L95.6306 524.165L94.4121 535.928C94.6094 537.481 95.0823 538.997 95.813 540.418C97.1476 542.98 99.7421 545.638 104.674 545.35C105.503 545.299 106.465 545.21 107.393 545.099C116.42 544.021 127.536 540.432 127.536 540.432C126.959 540.106 126.43 539.716 125.961 539.273V539.273C125.517 538.89 125.166 538.431 124.928 537.923C124.69 537.415 124.57 536.87 124.577 536.319C124.709 534.178 120.208 523.973 119.089 521.462C118.915 521.1 118.824 520.894 118.824 520.894C118.824 520.894 129.086 511.338 127.379 502.868C127.379 502.868 116.022 496.961 119.761 493.719C123.499 490.478 130.18 481.166 130.18 481.166C130.18 481.166 130.487 446.349 130.18 441.15C129.861 437.542 130.053 433.912 130.752 430.347C130.877 429.808 131.026 429.284 131.183 428.767C136.354 429.454 141.573 429.807 146.8 429.823C148.707 429.823 150.647 429.823 152.603 429.719C152.603 430.212 152.628 430.743 152.678 431.314C153.109 439.939 153.913 455.062 154.568 460.682C155.496 468.738 160.627 490.448 160.627 490.448C160.627 490.448 150.837 496.045 162.335 509.839C162.335 509.839 162.335 514.838 161.572 515.562C160.758 517.928 160.102 520.334 159.607 522.769C159.127 525.368 158.928 527.997 159.707 529.363C161.572 532.627 172.763 532.361 172.763 532.361L173.036 532.317C175.149 532.122 177.284 532.304 179.317 532.85C181.351 533.396 183.242 534.297 184.881 535.5C189.134 538.542 205.273 537.205 214.01 536.238C217.434 535.854 219.721 535.5 219.721 535.5C219.832 535.154 219.872 534.794 219.837 534.436C219.746 532.524 218.064 528.33 206.657 524.586C206.657 524.586 195.931 518.161 196.08 512.564H195.856H194.613C195.517 512.52 196.097 512.564 196.097 512.564C196.097 512.564 191.894 498.903 193.61 497.795C195.326 496.688 190.187 481.55 190.187 481.55C190.187 481.55 187.244 456.148 187.086 454.368C187.093 452.841 187.353 451.323 187.857 449.864L187.086 435.937C187.086 435.937 186.937 431.307 187.086 429.801C187.061 428.493 186.942 427.188 186.73 425.894C186.655 425.377 186.581 424.838 186.498 424.307C190.518 423.398 193.129 422.557 193.129 422.557L192.665 374.079C196.08 368.171 196.71 355.212 196.694 346.018C196.694 340.111 196.395 335.739 196.395 335.739L201.062 328.953C201.062 328.953 202.14 320.83 200.432 319.051C199.678 318.246 200.018 317.411 200.639 316.725C200.962 316.496 201.303 316.289 201.659 316.104C201.659 316.104 201.609 316.038 201.551 315.942C201.877 315.699 202.224 315.48 202.587 315.285C202.587 315.285 200.93 312.995 202.413 312.028C203.806 312.87 205.049 313.505 205.994 314.022C205.928 314.561 205.862 314.871 205.862 314.871L206.26 314.133C207.171 314.59 207.727 314.871 207.727 314.871C207.727 314.871 215.038 301.897 214.88 299.984C214.723 298.072 219.854 290.015 219.854 290.015C219.854 290.015 220.476 285.784 223.277 284.012C226.079 282.24 225.449 269.398 225.449 269.398C225.449 269.398 226.228 262.708 228.094 259.976C229.959 257.244 226.394 253.559 226.394 253.559ZM86.5041 247.866L86.645 250.96C85.8161 249.771 85.2193 248.914 85.2193 248.914L86.5041 247.866Z" fill="url(#paint0_linear)"/>
<path d="M208.125 309.266L206.334 316.06C206.334 316.06 191.994 309.54 189.408 301.255C186.821 292.969 193.735 289.824 193.735 289.824L207.097 294.867L208.125 309.266Z" fill="white"/>
<path opacity="0.1" d="M208.125 309.266L206.334 316.06C206.334 316.06 191.994 309.54 189.408 301.255C186.821 292.969 193.735 289.824 193.735 289.824L207.097 294.867L208.125 309.266Z" fill="black"/>
<path d="M127.644 540.477C127.644 540.477 114.381 544.819 105.263 545.365C100.422 545.653 97.8771 543.01 96.5674 540.462C95.852 539.046 95.3904 537.538 95.1997 535.995L96.3851 524.29L97.0151 518.058L116.387 513.576L119.131 521.049L119.388 521.617C120.49 524.113 124.909 534.267 124.776 536.386C124.77 536.929 124.888 537.467 125.122 537.968C125.355 538.469 125.7 538.923 126.135 539.303C126.58 539.75 127.087 540.144 127.644 540.477V540.477Z" fill="white"/>
<path d="M218.238 534.525C218.271 534.88 218.232 535.238 218.122 535.581C218.122 535.581 189.756 539.797 183.953 535.581C182.317 534.349 180.41 533.436 178.355 532.899C176.299 532.362 174.14 532.214 172.017 532.465C172.017 532.465 161.042 532.731 159.21 529.511C158.447 528.16 158.646 525.538 159.119 522.954C159.601 520.532 160.243 518.138 161.042 515.784L161.481 515.474L164.092 513.605L194.663 512.8H194.895C194.746 518.368 205.273 524.756 205.273 524.756C216.456 528.448 218.105 532.62 218.238 534.525Z" fill="white"/>
<path opacity="0.1" d="M218.238 534.525C218.267 534.881 218.225 535.238 218.114 535.581C218.114 535.581 189.756 539.797 183.953 535.581C182.318 534.35 180.413 533.437 178.359 532.901C176.305 532.364 174.147 532.216 172.025 532.465C172.025 532.465 161.042 532.731 159.218 529.511C158.455 528.152 158.646 525.538 159.119 522.954C163.346 523.33 170.019 524.268 172.638 526.506C176.601 529.91 183.315 533.307 187.435 533.572C190.659 533.757 209.949 534.303 218.238 534.525Z" fill="black"/>
<path opacity="0.1" d="M127.644 540.477C127.644 540.477 114.381 544.819 105.263 545.365C100.422 545.653 97.8772 543.01 96.5758 540.455C99.9495 541.466 104.633 542.53 107.095 541.555C110.013 540.403 120.358 539.657 126.16 539.34C126.602 539.77 127.1 540.152 127.644 540.477Z" fill="black"/>
<path d="M147.323 190.571C136.381 186.783 122.306 174.266 125.82 168.418C126.601 166.942 127.065 165.349 127.188 163.722C127.414 161.512 127.448 159.29 127.288 157.076C127.041 153.449 126.551 149.839 125.82 146.265C125.82 146.265 159.981 146.952 157.991 151.434C157.411 152.748 157.32 155.03 157.477 157.585C157.635 160.14 158.049 163.027 158.48 165.472C159.077 168.824 159.674 171.379 159.674 171.379C159.674 171.379 157.585 173.986 156.358 174.126C155.131 174.266 163.023 195.969 147.323 190.571Z" fill="#CF6F80"/>
<path opacity="0.1" d="M119.363 521.617L119.106 521.868C108.894 510.866 96.5426 524.578 96.5426 524.578L96.3602 524.29L96.9902 518.058L116.362 513.576L119.106 521.049L119.363 521.617Z" fill="black"/>
<path opacity="0.1" d="M194.903 513.576C194.903 513.576 187.443 513.436 183.464 516.566C179.485 519.697 160.254 517.246 161.083 516.566C161.329 516.23 161.477 515.844 161.514 515.444L164.125 513.576L194.696 512.771C194.812 513.266 194.903 513.576 194.903 513.576Z" fill="black"/>
<path d="M132.07 427.172C131.515 428.396 131.093 429.664 130.81 430.96C130.119 434.509 129.927 438.12 130.238 441.712C130.545 446.881 130.238 481.52 130.238 481.52C130.238 481.52 123.682 490.758 120.026 494.015C116.37 497.271 127.486 503.12 127.486 503.12C129.144 511.538 119.098 521.049 119.098 521.049C108.885 510.046 96.5341 523.766 96.5341 523.766C96.5341 523.766 89.8198 513.428 88.1454 509.736C86.4709 506.044 94.7022 503.489 97.5952 501.99C100.488 500.491 97.4543 491.652 97.4543 491.652C97.4543 491.652 95.0089 483.906 92.1077 476.839C89.2064 469.772 95.3073 434.593 95.3073 434.593C95.3073 434.593 95.6223 428.346 96.3766 426.168C96.7572 424.596 96.833 422.977 96.6005 421.383C96.5507 420.843 96.4927 420.393 96.4512 420.09C96.4098 419.788 96.3766 419.647 96.3766 419.647L96.4927 419.47L100.637 412.588C100.637 412.588 134.06 422.837 132.07 427.172Z" fill="#EA4848"/>
<path d="M194.903 512.764C194.903 512.764 187.443 512.623 183.464 515.717C179.485 518.811 160.254 516.397 161.083 515.717C161.912 515.038 161.846 510.009 161.846 510.009C150.564 496.289 160.188 490.721 160.188 490.721C160.188 490.721 155.148 469.122 154.236 461.11C153.598 455.513 152.81 440.471 152.388 431.883C152.205 428.191 152.097 425.651 152.097 425.651L161.315 423.996L162.5 423.782L184.732 419.81C184.732 419.81 185.346 423.502 185.76 426.522C185.967 427.811 186.083 429.111 186.108 430.413C185.959 431.89 186.108 436.513 186.108 436.513L186.863 450.373C186.37 451.827 186.116 453.337 186.108 454.856C186.258 456.62 189.151 481.89 189.151 481.89C189.151 481.89 194.182 496.969 192.466 498.054C190.75 499.14 194.903 512.764 194.903 512.764Z" fill="#EA4848"/>
<path opacity="0.1" d="M157.991 151.434C157.411 152.748 157.32 155.03 157.477 157.585C152.902 160.04 147.642 161.295 142.301 161.206C136.961 161.117 131.757 159.688 127.288 157.083C127.042 153.454 126.552 149.842 125.821 146.265C125.821 146.265 159.981 146.937 157.991 151.434Z" fill="black"/>
<path d="M171.196 135.115C171.203 137.776 170.733 140.42 169.803 142.949C167.727 148.616 163.468 153.446 157.78 156.586C152.093 159.726 145.342 160.973 138.721 160.108C132.101 159.243 126.037 156.321 121.601 151.858C117.165 147.395 114.643 141.679 114.481 135.72C114.481 135.513 114.481 135.321 114.481 135.115C114.416 131.76 115.102 128.428 116.499 125.313C117.895 122.197 119.974 119.36 122.614 116.968C125.254 114.576 128.402 112.676 131.875 111.379C135.348 110.082 139.077 109.414 142.843 109.414C146.608 109.414 150.337 110.082 153.81 111.379C157.283 112.676 160.431 114.576 163.071 116.968C165.711 119.36 167.79 122.197 169.186 125.313C170.583 128.428 171.269 131.76 171.204 135.115H171.196Z" fill="#CF6F80"/>
<path opacity="0.1" d="M147.323 190.571C136.381 186.783 122.306 174.266 125.82 168.418C126.601 166.942 127.065 165.349 127.188 163.722L142.167 174.687L151.434 181.459L158.48 165.479C159.077 168.831 159.674 171.386 159.674 171.386C159.674 171.386 157.585 173.993 156.358 174.133C155.131 174.274 163.023 195.969 147.323 190.571Z" fill="black"/>
<path d="M186.059 239.034L173.55 426.227L157.237 427.179L114.995 318.637L121.924 189.773L123.383 162.547L142.167 176.29L151.443 183.061L158.696 166.616L172.182 177.087L186.059 239.034Z" fill="#EA4848"/>
<path opacity="0.1" d="M132.071 427.172C131.515 428.396 131.093 429.664 130.811 430.96C118.94 429.327 107.412 426.119 96.6091 421.442L96.3853 421.338L96.4599 420.149L96.5013 419.529L100.646 412.647C100.646 412.647 134.06 422.837 132.071 427.172Z" fill="black"/>
<path opacity="0.1" d="M161.506 430.99C158.471 431.449 155.411 431.76 152.338 431.92C152.155 428.228 152.048 425.688 152.048 425.688L161.265 424.034L161.506 430.99Z" fill="black"/>
<path opacity="0.1" d="M185.71 426.559C179.817 427.925 170.715 429.461 162.567 428.501L162.451 423.819L184.683 419.847C184.683 419.847 185.296 423.502 185.71 426.559Z" fill="black"/>
<path opacity="0.1" d="M162.418 429.358C128.431 434.527 97.3052 419.706 97.3052 419.706L97.6036 414.685C97.6036 414.685 98.3745 357.759 96.2359 353.395C94.0972 349.031 92.4311 326.9 93.6413 323.503C94.8516 320.107 89.2231 269.17 89.2231 269.17L88.3113 248.493L54.9386 236.45L69.8593 208.744C71.8746 204.859 73.6079 200.863 75.0484 196.781C77.643 189.589 89.6873 182.522 89.6873 182.522C89.6873 182.522 102.038 175.463 106.921 175.728C111.803 175.994 118.203 169.481 118.203 169.481C122.927 158.752 127.205 163.611 127.205 163.611C127.205 164.12 127.205 163.611 126.973 165.198C125.315 176.976 153.78 214.193 154.186 214.851L156.897 273.674L159.641 348.115L162.418 429.358Z" fill="black"/>
<path d="M161.506 429.358C127.52 434.527 96.3851 419.706 96.3851 419.706L96.6918 414.685C96.6918 414.685 97.4627 357.759 95.3158 353.395C93.1688 349.031 91.511 326.9 92.7295 323.503C93.948 320.107 88.3113 269.17 88.3113 269.17L87.3912 248.494L54.002 236.405L68.9227 208.7C70.9336 204.813 72.6668 200.818 74.1118 196.737C76.698 189.545 88.7507 182.478 88.7507 182.478C88.7507 182.478 101.102 175.418 105.976 175.684C110.85 175.95 117.258 169.437 117.258 169.437C121.991 158.708 127.205 163.567 127.205 163.567C127.205 164.076 126.707 164.305 126.973 165.154C130.62 176.578 152.868 214.149 153.275 214.806L156.018 273.63L158.762 348.071L161.506 429.358Z" fill="white"/>
<path opacity="0.1" d="M152.346 216.483C148.691 215.124 129.327 195.43 129.327 195.43V190.948C128.622 189.471 124.436 190.372 121.038 191.405L122.497 164.179L124.154 165.405C127.785 176.821 151.924 215.825 152.346 216.483Z" fill="black"/>
<path d="M153.266 214.851C149.602 213.492 130.239 193.798 130.239 193.798V189.316C129.534 187.839 125.348 188.74 121.949 189.774L123.417 162.547L125.074 163.773C128.713 175.189 152.86 214.201 153.266 214.851Z" fill="white"/>
<path opacity="0.1" d="M97.3052 313.069C97.7611 313.069 120.938 310.898 120.938 310.898C120.938 310.898 134.972 335.481 134.052 341.462C133.132 347.443 131.465 352.738 125.82 351.8C120.175 350.862 95.4401 352.539 95.4401 352.539L97.3052 313.069Z" fill="black"/>
<path d="M96.3851 311.437C96.841 311.437 120.018 309.266 120.018 309.266C120.018 309.266 134.043 333.856 133.132 339.83C132.22 345.804 130.537 351.106 124.9 350.168C119.264 349.23 94.52 350.907 94.52 350.907L96.3851 311.437Z" fill="white"/>
<path d="M113.851 299.896C113.851 299.896 135.121 310.079 135.577 313.188C136.033 316.296 124.751 311.829 122.314 311.29C120.71 310.946 119.077 310.718 117.432 310.611L101.176 311.002L113.851 299.896Z" fill="#CF6F80"/>
<path opacity="0.1" d="M146.411 217.753C147.647 217.753 148.649 216.86 148.649 215.759C148.649 214.658 147.647 213.765 146.411 213.765C145.175 213.765 144.173 214.658 144.173 215.759C144.173 216.86 145.175 217.753 146.411 217.753Z" fill="black"/>
<path d="M146.411 216.94C147.647 216.94 148.649 216.048 148.649 214.947C148.649 213.846 147.647 212.953 146.411 212.953C145.175 212.953 144.173 213.846 144.173 214.947C144.173 216.048 145.175 216.94 146.411 216.94Z" fill="#3F3D56"/>
<path opacity="0.1" d="M150.531 304.061C151.767 304.061 152.769 303.168 152.769 302.067C152.769 300.966 151.767 300.073 150.531 300.073C149.295 300.073 148.293 300.966 148.293 302.067C148.293 303.168 149.295 304.061 150.531 304.061Z" fill="black"/>
<path d="M150.531 303.241C151.767 303.241 152.769 302.348 152.769 301.247C152.769 300.146 151.767 299.253 150.531 299.253C149.295 299.253 148.293 300.146 148.293 301.247C148.293 302.348 149.295 303.241 150.531 303.241Z" fill="#3F3D56"/>
<path opacity="0.1" d="M148.641 260.907C149.877 260.907 150.879 260.014 150.879 258.913C150.879 257.812 149.877 256.919 148.641 256.919C147.405 256.919 146.403 257.812 146.403 258.913C146.403 260.014 147.405 260.907 148.641 260.907Z" fill="black"/>
<path d="M148.641 260.094C149.877 260.094 150.879 259.202 150.879 258.101C150.879 256.999 149.877 256.107 148.641 256.107C147.405 256.107 146.403 256.999 146.403 258.101C146.403 259.202 147.405 260.094 148.641 260.094Z" fill="#3F3D56"/>
<path d="M200.233 310.197C200.233 310.197 201.759 312.235 200.233 313.188C198.708 314.14 200.383 316.444 200.383 316.444C200.383 316.444 196.578 318.43 198.252 320.217C199.927 322.004 198.866 330.075 198.866 330.075L194.29 336.825C194.29 336.825 194.563 341.174 194.58 347.052C194.58 356.223 193.975 369.116 190.626 374.994L191.09 423.221C191.09 423.221 175.067 428.434 161.655 426.847L159.666 349.459C159.666 349.459 162.567 305.574 163.636 297.156C164.262 292.786 164.517 288.38 164.399 283.975C164.399 283.975 163.943 270.802 162.409 264.687C162.409 264.687 160.751 238.2 160.586 230.867C160.511 227.36 160.718 217.125 160.95 207.392C161.207 196.752 161.498 186.716 161.498 186.716L158.472 165.39C158.472 165.39 161.498 165.117 162.409 166.203C162.818 166.543 163.262 166.847 163.736 167.111V167.111C168.958 170.257 187.41 179.93 187.41 179.93C187.41 179.93 197.622 183.549 200.068 188.732C202.513 193.916 204.212 197.593 205.398 199.07C206.583 200.547 207.23 207.488 207.23 207.488C207.23 207.488 210.744 220.263 213.488 222.427C216.232 224.591 218.238 238.355 218.238 238.355L193.992 255.339C193.992 255.339 191.861 283.591 191.405 284.684C190.949 285.777 200.233 310.197 200.233 310.197Z" fill="white"/>
<path d="M201.153 310.197C201.153 310.197 202.67 312.235 201.153 313.188C199.636 314.14 201.294 316.444 201.294 316.444C201.294 316.444 197.514 318.453 199.172 320.24C200.83 322.027 199.786 330.098 199.786 330.098L195.21 336.847C195.21 336.847 195.483 341.196 195.508 347.074C195.508 356.246 194.903 369.139 191.554 375.017L192.01 423.243C192.01 423.243 175.962 428.457 162.567 426.869L160.586 349.482C160.586 349.482 163.487 305.597 164.556 297.178C165.183 292.808 165.435 288.402 165.31 283.997C165.31 283.997 164.854 270.824 163.329 264.71C163.329 264.71 161.671 238.222 161.497 230.889C161.423 227.382 161.638 217.147 161.862 207.415C162.119 196.774 162.409 186.739 162.409 186.739L158.414 165.125C158.414 165.125 162.409 165.125 163.329 166.225C163.734 166.569 164.178 166.873 164.656 167.133C169.878 170.279 188.338 179.952 188.338 179.952C188.338 179.952 198.542 183.571 200.988 188.754C203.433 193.938 205.132 197.616 206.326 199.092C207.519 200.569 208.149 207.511 208.149 207.511C208.149 207.511 211.664 220.285 214.408 222.449C217.152 224.613 219.133 238.348 219.133 238.348L194.887 255.331C194.887 255.331 192.756 283.584 192.292 284.677C191.828 285.77 201.153 310.197 201.153 310.197Z" fill="white"/>
<path opacity="0.1" d="M172.116 193.008L174.304 198.694L162.782 209.032C163.039 198.398 163.329 188.356 163.329 188.356L159.334 166.742C159.334 166.742 163.329 166.742 164.249 167.842C164.653 168.185 165.098 168.487 165.576 168.743L175.374 193.924L172.116 193.008Z" fill="black"/>
<path d="M171.196 191.376L173.392 197.062L161.87 207.4C162.127 196.759 162.417 186.724 162.417 186.724L158.414 165.11C158.414 165.11 162.417 165.11 163.329 166.21C163.736 166.552 164.18 166.856 164.656 167.118L174.462 192.291L171.196 191.376Z" fill="white"/>
<path opacity="0.1" d="M171.196 135.115C171.203 137.776 170.733 140.421 169.803 142.949C169.647 142.971 169.487 142.965 169.333 142.931C169.179 142.896 169.035 142.835 168.908 142.75C168.693 136.104 165.021 129.864 160.503 124.555C159.234 122.952 157.697 121.532 155.944 120.346C154.171 119.16 151.967 118.605 149.76 118.788C147.273 119.091 145.076 120.597 142.565 120.789C139.249 121.033 136.282 118.987 132.991 118.884C131.653 118.895 130.333 119.161 129.12 119.662C127.906 120.164 126.827 120.891 125.953 121.793C124.224 123.615 122.94 125.738 122.181 128.026C120.878 131.495 120.168 135.12 120.076 138.777C120.035 140.845 119.811 143.437 117.656 144.19C117.818 142.669 117.624 141.135 117.086 139.685C116.548 138.235 115.678 136.9 114.53 135.765L114.481 135.72C114.481 135.513 114.481 135.321 114.481 135.115C114.416 131.76 115.102 128.428 116.499 125.313C117.895 122.197 119.974 119.36 122.614 116.968C125.254 114.576 128.402 112.676 131.875 111.379C135.348 110.082 139.077 109.414 142.843 109.414C146.608 109.414 150.337 110.082 153.81 111.379C157.283 112.676 160.431 114.576 163.071 116.968C165.711 119.36 167.79 122.197 169.186 125.313C170.583 128.428 171.269 131.76 171.204 135.115H171.196Z" fill="black"/>
<path d="M154.584 94.9957C150.277 93.1907 145.378 92.8493 140.807 94.0357C138.511 94.6412 136.348 95.6234 134.019 96.1181C129.045 97.1888 123.242 96.0295 118.973 98.6214C116.603 100.098 115.177 102.432 113.851 104.699L110.535 110.326C108.728 113.405 106.904 116.536 106.15 119.925C105.396 123.315 105.851 127.11 108.264 129.835C110.021 131.821 112.616 133.069 114.522 134.937C115.664 136.074 116.531 137.408 117.067 138.857C117.603 140.305 117.798 141.837 117.639 143.356C119.802 142.617 120.01 140.018 120.059 137.95C120.152 134.293 120.862 130.668 122.165 127.199C122.921 124.91 124.206 122.787 125.936 120.966C126.811 120.064 127.89 119.338 129.104 118.837C130.317 118.335 131.636 118.069 132.974 118.057C136.29 118.16 139.266 120.198 142.548 119.955C145.035 119.77 147.24 118.256 149.743 117.961C151.951 117.775 154.156 118.331 155.927 119.519C157.68 120.704 159.215 122.124 160.478 123.728C165.004 129.037 168.676 135.262 168.892 141.923C169.828 142.536 171.179 141.738 171.644 140.793C172.108 139.848 172.124 138.74 172.713 137.84C173.393 136.798 174.694 136.244 175.714 135.462C178.3 133.475 178.947 130.13 178.847 127.095C178.748 124.06 178.084 120.981 178.731 117.998C179.121 116.167 179.999 114.453 180.48 112.644C180.961 110.835 181.019 108.804 179.883 107.246C178.225 104.957 174.736 104.507 171.693 104.293C168.237 104.027 165.145 104.366 162.94 101.774C161.905 100.422 160.74 99.152 159.458 97.979C159.019 97.595 154.584 95.1582 154.584 94.9957Z" fill="#512E4E"/>
<path opacity="0.1" d="M64.4878 250.716L55.8255 236.45L53.0818 258.462C53.0818 258.462 54.607 268.239 54.3003 269.738C53.9936 271.237 60.5504 284.677 60.5504 284.677C60.5504 284.677 82.2104 319.043 91.0551 320.816L120.938 301.794L113.013 292.829C113.013 292.829 110.27 291.877 109.582 292.829C109.582 292.829 94.8681 270.277 93.3429 268.645C91.8177 267.014 92.1161 263.757 92.1161 263.757C92.1161 263.757 89.8283 261.586 90.5909 259.548C91.3535 257.51 86.1727 250.443 86.1727 250.443L90.8976 246.507L64.4878 250.716Z" fill="black"/>
<path d="M56.2815 234.825L53.9936 236.45L51.2499 258.462C51.2499 258.462 52.7751 268.239 52.4684 269.738C52.1617 271.237 58.7268 284.677 58.7268 284.677C58.7268 284.677 80.3785 319.043 89.2231 320.816L119.114 301.794L111.182 292.829C111.182 292.829 108.438 291.877 107.75 292.829C107.75 292.829 93.0362 270.277 91.511 268.645C89.9858 267.013 90.2925 263.757 90.2925 263.757C90.2925 263.757 88.0046 261.586 88.7672 259.548C89.5299 257.51 84.3408 250.443 84.3408 250.443L89.0657 246.507L56.2815 234.825Z" fill="white"/>
<path opacity="0.1" d="M198.252 321.059C199.91 322.854 198.866 330.91 198.866 330.91L194.29 337.659C194.29 337.659 194.564 342.016 194.58 347.886L186.888 350.028C186.193 350.221 185.456 350.264 184.738 350.152C184.021 350.04 183.344 349.777 182.764 349.384C182.184 348.992 181.717 348.482 181.404 347.896C181.09 347.311 180.938 346.667 180.961 346.018L182.287 307.908L200.234 314.022C198.708 314.967 200.383 317.286 200.383 317.286C200.383 317.286 196.578 319.265 198.252 321.059Z" fill="black"/>
<path d="M199.172 320.24C200.83 322.034 199.786 330.098 199.786 330.098L195.21 336.847C195.21 336.847 195.483 341.196 195.508 347.074L187.675 349.253C186.994 349.441 186.273 349.482 185.57 349.372C184.868 349.262 184.206 349.004 183.638 348.619C183.07 348.235 182.614 347.736 182.307 347.162C182 346.589 181.851 345.959 181.872 345.324L183.207 307.096L201.162 313.21C199.628 314.155 201.302 316.466 201.302 316.466C201.302 316.466 197.514 318.453 199.172 320.24Z" fill="white"/>
<path d="M205.116 302.074C205.116 302.074 203.897 309.008 200.847 309.414C197.796 309.82 196.429 320.631 193.386 320.247C190.344 319.863 192.358 310.197 192.466 308.321C192.574 306.446 189.151 298.677 191.712 296.913C194.273 295.148 202.38 296.913 202.38 296.913L205.116 302.074Z" fill="#CF6F80"/>
<path opacity="0.1" d="M211.606 248.678L217.359 238.34C217.359 238.34 219.647 246.219 219.647 250.428C219.647 254.637 222.846 255.051 222.846 255.051C222.846 255.051 226.353 258.743 224.504 261.431C222.656 264.119 221.91 270.809 221.91 270.809C221.91 270.809 222.515 283.576 219.771 285.341C217.027 287.106 216.455 291.323 216.455 291.323C216.455 291.323 211.415 299.335 211.573 301.24C211.73 303.145 204.56 316.045 204.56 316.045C204.56 316.045 208.066 300.014 187.633 293.087C187.633 293.087 187.476 287.645 189.001 286.154C190.526 284.662 192.905 283.983 191.413 276.443C189.921 268.904 190.982 259.895 190.982 258.086C190.982 256.277 195.558 244.993 195.558 244.993L211.606 248.678Z" fill="black"/>
<path d="M214.093 236.863L219.116 238.34C219.116 238.34 221.412 246.219 221.412 250.428C221.412 254.637 224.612 255.051 224.612 255.051C224.612 255.051 228.118 258.743 226.27 261.431C224.421 264.119 223.684 270.809 223.684 270.809C223.684 270.809 224.289 283.576 221.545 285.341C218.801 287.106 218.188 291.323 218.188 291.323C218.188 291.323 213.156 299.335 213.314 301.24C213.471 303.145 206.293 316.045 206.293 316.045C206.293 316.045 209.807 300.014 189.366 293.087C189.366 293.087 189.217 287.645 190.742 286.154C192.267 284.662 194.646 283.983 193.154 276.443C191.662 268.904 192.723 259.895 192.723 258.086C192.723 256.277 197.299 244.993 197.299 244.993L214.093 236.863Z" fill="white"/>
<path opacity="0.1" d="M103.141 504.818C103.141 504.818 111.148 500.336 116.404 503.592C121.659 506.849 103.141 504.818 103.141 504.818Z" fill="black"/>
<path opacity="0.1" d="M165.36 490.958C165.36 490.958 172.448 490.145 178.399 495.853C184.351 501.561 165.36 490.958 165.36 490.958Z" fill="black"/>
<g opacity="0.1">
<path opacity="0.1" d="M175.73 133.845C174.711 134.627 173.401 135.189 172.721 136.23C172.141 137.123 172.124 138.224 171.66 139.184C171.196 140.144 169.845 140.926 168.908 140.321C168.692 133.675 165.012 127.435 160.494 122.118C159.231 120.514 157.696 119.094 155.944 117.909C154.169 116.721 151.961 116.166 149.751 116.351C147.265 116.654 145.076 118.16 142.565 118.345C139.249 118.596 136.273 116.551 132.982 116.447C131.645 116.459 130.326 116.726 129.113 117.229C127.901 117.732 126.824 118.46 125.953 119.364C124.222 121.182 122.938 123.303 122.181 125.589C120.879 129.059 120.169 132.683 120.076 136.341C120.026 138.401 119.811 140.971 117.672 141.739C117.722 142.284 117.722 142.832 117.672 143.378C119.827 142.639 120.043 140.04 120.092 137.973C120.185 134.315 120.895 130.69 122.198 127.221C122.954 124.932 124.239 122.81 125.969 120.989C126.842 120.087 127.92 119.361 129.132 118.859C130.344 118.357 131.662 118.092 132.999 118.079C136.315 118.183 139.299 120.221 142.581 119.977C145.068 119.792 147.273 118.279 149.768 117.983C151.978 117.797 154.186 118.353 155.96 119.541C157.713 120.726 159.248 122.146 160.511 123.75C165.029 129.06 168.709 135.285 168.925 141.945C169.861 142.558 171.212 141.761 171.677 140.816C172.141 139.87 172.157 138.763 172.738 137.862C173.417 136.821 174.727 136.267 175.747 135.484C178.333 133.498 178.98 130.153 178.88 127.118C178.88 127.022 178.88 126.926 178.88 126.837C178.723 129.466 177.935 132.146 175.73 133.845Z" fill="black"/>
<path opacity="0.1" d="M114.539 133.321C112.632 131.452 110.029 130.204 108.28 128.225C106.808 126.473 105.966 124.365 105.868 122.178C105.607 124.91 106.464 127.635 108.28 129.85C110.029 131.836 112.632 133.084 114.539 134.952C116.369 136.78 117.468 139.096 117.664 141.539C117.791 140.052 117.579 138.558 117.042 137.146C116.505 135.734 115.654 134.433 114.539 133.321V133.321Z" fill="black"/>
<path opacity="0.1" d="M180.497 111.027C180.007 112.836 179.137 114.557 178.739 116.381C178.504 117.6 178.417 118.838 178.482 120.073C178.51 119.369 178.596 118.668 178.739 117.976C179.137 116.144 180.007 114.431 180.497 112.622C180.782 111.624 180.874 110.591 180.77 109.565C180.719 110.058 180.627 110.546 180.497 111.027V111.027Z" fill="black"/>
</g>
<path opacity="0.1" d="M146.497 150.416H122.922V171.417H146.497V150.416Z" fill="#EA4848"/>
<path opacity="0.1" d="M85.8523 124.638H39.7058C47.2072 114.178 55.4033 104.128 64.2504 94.5392C71.1056 87.0368 78.3422 79.7263 85.8523 72.6816V124.638Z" fill="#EA4848"/>
<path opacity="0.1" d="M733.843 566.633C789.507 566.633 834.632 561.459 834.632 555.077C834.632 548.694 789.507 543.52 733.843 543.52C678.178 543.52 633.053 548.694 633.053 555.077C633.053 561.459 678.178 566.633 733.843 566.633Z" fill="#EA4848"/>
<path opacity="0.1" d="M564.6 132.303H512.444V235.203H564.6V132.303Z" fill="#EA4848"/>
<path opacity="0.1" d="M782.509 235.21H615.662C615.662 235.21 615.662 235.21 615.72 235.247L615.646 235.21H584.694V132.31H593.464V208.368H633.542V163.324H666.65V127.798H700.636V163.354H733.743V208.398H782.509V235.21Z" fill="#EA4848"/>
<path opacity="0.1" d="M584.694 238.364V340.518H782.509V238.364H584.694ZM836.207 460.764L836.481 379.906H782.509V343.723H584.694V521.316C600.912 521.923 617.155 521.75 633.352 520.799V520.799H633.634C641.37 520.366 649.071 519.736 656.736 518.908H656.91C697.801 514.669 737.786 505.165 775.613 490.693" fill="#EA4848"/>
<path opacity="0.1" d="M860.073 343.679H906.219C905.813 364.421 901.138 384.794 890.909 403.61C882.396 419.242 870.567 432.911 856.591 444.851V379.869H860.073V343.679Z" fill="#EA4848"/>
<path opacity="0.1" d="M906.244 340.518H860.072V255.148H885.056C897.987 282.064 906.202 311.601 906.244 340.518Z" fill="#EA4848"/>
<path opacity="0.1" d="M564.609 160.91H536.666V193.172H564.609V160.91Z" fill="#EA4848"/>
<path opacity="0.1" d="M564.609 227.782H536.666V235.21H564.609V227.782Z" fill="#EA4848"/>
<path opacity="0.1" d="M564.609 238.364H536.666V260.037H564.609V238.364Z" fill="#EA4848"/>
<path opacity="0.1" d="M564.609 294.654H536.666V326.916H564.609V294.654Z" fill="#EA4848"/>
<path opacity="0.1" d="M564.609 361.527H536.666V393.789H564.609V361.527Z" fill="#EA4848"/>
<path opacity="0.1" d="M564.601 453.159C564.882 453.159 565.156 453.159 565.429 453.203H564.601V460.698H536.666V428.399H564.601V453.159Z" fill="#EA4848"/>
<path opacity="0.1" d="M564.601 495.257V520.179C555.261 519.475 545.95 518.517 536.666 517.306V495.257H564.601Z" fill="#EA4848"/>
<path opacity="0.1" d="M656.935 248.266H633.36V269.267H656.935V248.266Z" fill="#EA4848"/>
<path opacity="0.1" d="M746.932 248.266H723.357V269.267H746.932V248.266Z" fill="#EA4848"/>
<path opacity="0.1" d="M656.935 300.067H633.36V321.068H656.935V300.067Z" fill="#EA4848"/>
<path opacity="0.1" d="M746.932 300.067H723.357V321.068H746.932V300.067Z" fill="#EA4848"/>
<path opacity="0.1" d="M656.935 351.861H633.36V372.862H656.935V351.861Z" fill="#EA4848"/>
<path opacity="0.1" d="M746.932 351.861H723.357V372.862H746.932V351.861Z" fill="#EA4848"/>
<path opacity="0.1" d="M656.935 403.661H633.36V424.662H656.935V403.661Z" fill="#EA4848"/>
<path opacity="0.1" d="M746.932 403.661H723.357V424.662H746.932V403.661Z" fill="#EA4848"/>
<path opacity="0.1" d="M656.935 455.463H633.36V476.464H656.935V455.463Z" fill="#EA4848"/>
<path opacity="0.1" d="M746.932 455.463H723.357V476.464H746.932V455.463Z" fill="#EA4848"/>
<path opacity="0.1" d="M633.36 520.799V507.256H656.926V518.872L633.36 520.799Z" fill="#EA4848"/>
<path opacity="0.1" d="M68.5112 418.762C69.2656 419.146 70.0365 419.501 70.8157 419.885V419.516H77.4471V422.839L78.8563 423.422V419.516H85.4877V425.903C85.6149 425.959 85.7482 426.004 85.8856 426.036V418.762H68.5112Z" fill="#EA4848"/>
<path d="M818.908 336.966C818.908 336.966 805.222 276.312 810.461 268.765C810.461 268.765 810.652 261.75 810.337 252.807C810.337 252.468 810.337 252.128 810.337 251.781C811.258 252.328 812.219 252.822 813.213 253.258C818.04 255.467 823.581 256.104 828.88 255.059L824.735 250.946C823.74 249.964 822.704 248.901 822.489 247.601C822.273 246.302 822.87 245.142 823.384 243.983C827.322 235.122 827.529 223.979 819.944 217.215C813.536 211.529 811.978 204.189 805.023 198.998C799.942 195.195 797.148 189.62 794.512 184.229C792.283 179.673 790.036 175.08 788.76 170.251C787.765 166.477 787.367 162.571 785.999 158.886C784.632 155.201 782.07 151.62 778.067 149.973C776.641 149.39 775.058 149.058 773.756 148.282C772.048 147.256 771.021 145.587 769.786 144.125C763.511 136.741 742.497 141.09 732.55 144.088C729.846 144.843 727.342 146.079 725.189 147.721L725.28 147.588C725.355 147.477 725.446 147.367 725.529 147.256C724.44 148.04 723.5 148.975 722.744 150.025C721.293 152.07 720.688 154.456 719.478 156.671C718.019 159.292 709.904 166.61 713.393 169.557C713.638 169.754 713.918 169.914 714.222 170.029C715.532 170.515 716.975 170.643 718.367 170.398L718.218 170.716C717.026 173.315 716.415 176.097 716.419 178.905C716.419 191.037 727.651 200.873 741.519 200.873C744.126 200.876 746.718 200.519 749.203 199.817C749.261 200.098 749.311 200.379 749.369 200.659C749.369 200.77 749.41 200.881 749.427 200.992L748.988 201.538C748.966 201.504 748.941 201.472 748.913 201.442L735.899 217.643C733.909 218.891 722.454 226.275 721.807 231.814C721.127 237.876 720.448 244.973 720.448 244.973L720.356 246.494C719.788 246.917 719.123 247.225 718.407 247.398C717.691 247.57 716.943 247.601 716.212 247.491C712.15 246.9 712.15 260.782 712.15 260.782C712.15 260.782 709.448 262.998 707.591 261.078C705.734 259.158 700.827 265.663 700.827 265.663L670.074 266.845L669.369 266.882L667.711 262.311C667.533 261.829 667.148 261.429 666.64 261.198C666.133 260.967 665.544 260.924 665.001 261.078C664.872 261.115 664.747 261.162 664.628 261.218L664.512 261.277L664.296 261.41L664.188 261.499C664.129 261.547 664.073 261.598 664.022 261.654L663.923 261.757L663.873 261.801C663.682 262.037 663.555 262.31 663.503 262.597C663.451 262.884 663.476 263.178 663.575 263.455L665.001 267.377C659.065 268.44 652.998 271.438 657.946 279.694L632.863 275.566L640.978 281.636L682.872 289.337C682.317 290.224 682.682 291.508 684.414 293.318C691.874 301.123 705.469 303.242 710.94 303.789C712.385 306.668 714.189 309.393 716.32 311.911L715.847 319.687C715.847 319.687 701.996 378.954 699.459 381.959C700.74 380.666 701.912 379.292 702.966 377.846C698.945 390.023 693.325 406.689 691.85 409.185C689.479 413.173 687.282 429.307 689.985 430.341C690.813 430.659 693.184 430.503 696.566 430.275V431.611L696.417 482.26C696.417 482.26 697.097 513.326 695.232 516.287C693.367 519.248 692.869 525.458 692.869 525.458C692.869 525.458 685.409 537.709 679.499 542.634C679.458 542.673 679.414 542.707 679.366 542.738L679.184 541.586C679.184 541.586 672.08 549.576 656.363 549.125C656.363 549.125 646.905 554.604 660.931 554.9C674.956 555.195 692.869 554.457 692.869 554.457C692.869 554.457 705.378 537.473 715.855 539.688V552.559H719.063V539.481C720.551 538.609 721.824 537.476 722.806 536.152C723.788 534.828 724.458 533.341 724.775 531.779C725.049 530.17 724.848 528.525 724.191 527.006C723.534 525.487 722.444 524.147 721.028 523.118C720.392 522.605 719.882 521.981 719.529 521.285C719.177 520.589 718.99 519.835 718.98 519.071L718.864 519.16C718.864 518.901 718.79 518.635 718.757 518.362C717.837 511.716 716.684 498.004 720.754 487.857C726.333 473.945 728.024 454.569 723.962 443.035C722.652 439.348 721.575 435.598 720.738 431.803C720.638 431.323 720.547 430.865 720.464 430.437C723.241 430.772 725.99 431.265 728.696 431.914C738.104 434.225 758.686 434.653 776.259 434.528C776.301 434.956 776.351 435.407 776.409 435.857C776.722 438.988 777.377 442.084 778.365 445.102C780.57 451.01 781.581 477.054 781.581 477.054C781.581 477.054 784.424 498.469 782.874 507.182C782.045 512.026 781.216 516.893 780.744 521.781V521.877C780.744 521.877 776.085 533.692 772.678 540.109C772.596 540.271 772.504 540.434 772.422 540.589C771.513 540.663 770.619 540.839 769.761 541.113C769.761 541.113 765.193 549.236 760.642 550.58C756.092 551.924 757.6 556.347 767.904 554.722C778.207 553.098 793.766 551.769 793.766 551.769L794.438 543.484L797.604 539.954L796.775 548.217L800.149 547.626L799.702 537.576L804.882 531.802C804.882 531.802 811.141 526.839 801.84 517.077V517.291C801.741 517.151 801.65 517.003 801.542 516.863V516.819C800 514.692 798.773 510.727 801.02 503.689C805.081 490.974 807.444 479.432 807.444 479.432C807.444 479.432 816.512 448.514 805.612 433.885H806.093C804.975 431.827 804.186 429.64 803.747 427.387C803.691 427.121 803.642 426.848 803.597 426.568C811.663 426.154 819.579 424.854 826.037 422.048C826.012 422.019 822.124 348.648 818.908 336.966ZM716.51 285.793V285.941L714.852 286.015L716.51 285.793ZM710.824 286.495C710.551 286.548 710.296 286.657 710.078 286.812C709.365 287.71 708.917 288.754 708.776 289.847L706.19 289.33C706.19 289.33 704.375 288.983 701.764 288.592L700.528 287.484C703.927 287.233 707.458 286.864 710.824 286.495V286.495Z" fill="url(#paint1_linear)"/>
<path d="M796.394 537.68L795.408 548.143L798.715 547.552L798.218 536.203L796.394 537.68Z" fill="#1D2366"/>
<path d="M720.937 487.998C716.949 498.114 718.077 511.768 718.972 518.399C719.304 520.851 719.61 522.342 719.61 522.342C719.61 522.342 713.65 534.438 713.153 534.896C712.656 535.353 695.613 544.621 695.613 544.621L683.701 550.816C683.701 550.816 671.615 546.098 677.409 544.473C678.593 544.05 679.66 543.402 680.534 542.575C686.337 537.665 693.623 525.458 693.623 525.458C693.623 525.458 694.121 519.263 695.944 516.317C697.768 513.37 697.105 482.408 697.105 482.408L697.246 431.936V425.357L719.917 425.504C720.06 427.738 720.387 429.959 720.895 432.15C721.709 435.932 722.763 439.67 724.053 443.345C728.049 454.857 726.391 474.137 720.937 487.998Z" fill="#FFB0B1"/>
<path opacity="0.1" d="M719.61 522.342C719.61 522.342 713.65 534.438 713.153 534.896C712.656 535.354 695.613 544.621 695.613 544.621L683.701 550.816C683.701 550.816 671.615 546.098 677.409 544.473C678.593 544.05 679.66 543.402 680.534 542.575L681.048 545.802L685.019 545.655L719.005 518.414C719.304 520.851 719.61 522.342 719.61 522.342Z" fill="black"/>
<path d="M719.196 519.101L685.019 546.526L681.049 546.674L680.22 541.505C680.22 541.505 673.273 549.465 657.839 549.022C657.839 549.022 648.571 554.479 662.307 554.774C676.042 555.07 693.582 554.331 693.582 554.331C693.582 554.331 705.834 537.347 716.087 539.563V552.389H719.237V539.444C720.702 538.566 721.952 537.433 722.912 536.113C723.872 534.793 724.523 533.314 724.824 531.765C725.097 530.168 724.904 528.537 724.264 527.026C723.624 525.515 722.558 524.177 721.169 523.14C720.548 522.622 720.053 521.996 719.714 521.302C719.375 520.607 719.199 519.858 719.196 519.101V519.101Z" fill="#1D2366"/>
<path d="M799.544 503.771C797.339 510.786 798.541 514.736 800.049 516.856V516.9C801.984 519.517 803.33 522.444 804.012 525.518L804.144 526.182L788.594 546.378L780.155 549.332C780.155 549.332 766.585 545.204 769.064 544.023C769.686 543.735 770.655 542.199 771.766 540.079C775.082 533.692 779.658 521.907 779.658 521.907V521.811C780.138 516.944 780.901 512.093 781.747 507.264C783.264 498.572 780.478 477.239 780.478 477.239C780.478 477.239 779.484 451.298 777.328 445.398C776.355 442.398 775.709 439.322 775.397 436.212C774.949 432.52 774.85 429.477 774.85 429.477C774.85 429.477 783.786 418.401 800.165 430.363C801.475 431.317 802.628 432.431 803.589 433.672C814.904 448.012 805.794 479.602 805.794 479.602C805.794 479.602 803.514 491.092 799.544 503.771Z" fill="#FFB0B1"/>
<path opacity="0.1" d="M804.17 526.182L788.619 546.378L780.18 549.332C780.18 549.332 766.611 545.204 769.089 544.023C769.711 543.735 770.681 542.199 771.792 540.079C777.536 540.035 780.512 544.909 780.512 544.909L787.79 543.875C787.79 543.875 797.389 527.068 799.544 526.042C801.699 525.015 799.876 518.37 799.876 518.37V516.678C799.934 516.738 799.984 516.804 800.05 516.863V516.907C801.985 519.524 803.33 522.451 804.012 525.525L804.17 526.182Z" fill="black"/>
<path d="M781.009 545.344C781.009 545.344 776.864 538.566 768.923 541.069C768.923 541.069 764.455 549.192 759.987 550.506C755.519 551.82 757.011 556.251 767.108 554.634C777.204 553.017 792.423 551.68 792.423 551.68L793.086 543.417L803.348 531.772C803.348 531.772 809.466 526.832 800.364 517.107V518.798C800.364 518.798 802.188 525.444 800.033 526.47C797.878 527.497 788.312 544.311 788.312 544.311L781.009 545.344Z" fill="#1D2366"/>
<path opacity="0.1" d="M719.942 425.49C720.085 427.723 720.412 429.945 720.92 432.135C711.586 430.917 702.924 431.523 697.246 431.921V425.342L719.942 425.49Z" fill="black"/>
<path opacity="0.1" d="M804.509 435.51C804.509 435.51 791.246 436.086 775.43 436.204C774.983 432.512 774.883 429.47 774.883 429.47C774.883 429.47 783.819 418.393 800.198 430.356C801.508 431.31 802.661 432.424 803.622 433.664C803.879 434.294 804.175 434.91 804.509 435.51V435.51Z" fill="black"/>
<path d="M804.509 434.181C804.509 434.181 746.418 436.684 728.712 432.261C711.006 427.838 693.458 431.67 690.813 430.644C688.169 429.618 690.316 413.542 692.637 409.562C694.958 405.582 707.69 365.33 707.69 365.33L719.942 308.426L732.848 305.258L733.76 305.029L756.249 299.506L772.728 295.452C772.728 295.452 805.496 409.414 802.686 417.817C801.665 421.035 801.501 424.421 802.205 427.705C802.634 429.948 803.41 432.127 804.509 434.181V434.181Z" fill="#1D2366"/>
<path d="M677.235 269.511C677.235 269.511 665.63 280.587 674.417 286.76C683.204 292.934 688.981 287.351 688.981 287.351L677.235 269.511Z" fill="#C7DAF5"/>
<path opacity="0.1" d="M677.235 269.511C677.235 269.511 665.63 280.587 674.417 286.76C683.204 292.934 688.981 287.351 688.981 287.351L677.235 269.511Z" fill="black"/>
<path d="M770.996 196.687C770.996 196.687 769.636 197.839 767.589 199.537C764.671 201.966 760.352 205.518 756.523 208.494C751.218 212.607 746.841 215.627 748.408 213.05C749.974 210.473 749.676 205.983 748.897 201.782C748.839 201.501 748.789 201.221 748.731 200.947C748.086 197.862 747.23 194.814 746.169 191.82C746.169 191.82 754.741 181.955 759.482 178.063C761.248 176.586 762.483 175.981 762.557 177.007C762.64 178.388 763.801 181.438 765.243 184.672C765.284 184.776 765.326 184.872 765.376 184.975C766.337 187.19 767.423 189.465 768.376 191.429C769.835 194.442 770.996 196.687 770.996 196.687Z" fill="#FFB0B1"/>
<path opacity="0.1" d="M765.376 184.975C764.57 188.834 762.616 192.43 759.717 195.387C756.818 198.343 753.081 200.552 748.897 201.782C748.238 198.411 747.326 195.083 746.169 191.82C746.169 191.82 762.309 173.249 762.557 177.007C762.615 178.433 763.875 181.593 765.376 184.975Z" fill="black"/>
<path opacity="0.1" d="M747.288 206.744L749.377 204.123C749.377 204.123 750.761 211.64 755.851 208.324C760.941 205.009 761.189 233.276 761.189 233.276L755.727 306.034L716.253 303.929L717.372 268.772L721.84 251.05L732.89 225.286L739.463 216.772L747.288 206.744Z" fill="black"/>
<path d="M761.189 233.726L756.216 299.513L755.694 306.484L733.686 305.31L732.857 305.265L716.278 304.379L717.397 269.215L721.865 251.493L732.915 225.729L739.488 217.215L747.313 207.15L749.402 204.536C749.402 204.536 750.786 212.053 755.876 208.738L755.984 208.671C760.957 205.865 761.189 233.726 761.189 233.726Z" fill="#1D2366"/>
<path d="M722.42 245.334C722.42 245.334 720.439 249.027 716.46 248.429C712.481 247.83 712.49 261.72 712.49 261.72C712.49 261.72 709.845 263.936 708.022 262.016C706.198 260.096 701.39 266.587 701.39 266.587L671.267 267.768C671.267 267.768 684.671 273.225 682.043 289.736C682.043 289.736 727.551 287.226 729.043 283.393C730.536 279.561 722.42 245.334 722.42 245.334Z" fill="white"/>
<path opacity="0.03" d="M722.42 245.334C722.42 245.334 720.439 249.027 716.46 248.429C712.481 247.83 712.49 261.72 712.49 261.72C712.49 261.72 709.845 263.936 708.022 262.016C706.198 260.096 701.39 266.587 701.39 266.587L671.267 267.768C671.267 267.768 684.671 273.225 682.043 289.736C682.043 289.736 727.551 287.226 729.043 283.393C730.536 279.561 722.42 245.334 722.42 245.334Z" fill="black"/>
<path d="M634.877 276.444L642.818 282.485L708.188 294.721L700.081 287.351L634.877 276.444Z" fill="white"/>
<path d="M747.413 209.07C746.327 210.547 743.218 218.108 740.624 224.71C738.46 230.211 736.653 235.048 736.653 235.048C736.653 235.048 732.434 259.52 730.279 263.943C728.123 268.366 729.292 285.616 729.292 285.616L721.26 328.216C721.26 328.216 717.621 350.184 712.001 363.306C706.455 376.221 700.28 382.276 700.089 382.468C702.576 379.47 716.129 320.44 716.129 320.44L720.605 245.992C720.605 245.992 721.26 238.917 721.923 232.87C722.586 226.822 736.015 218.566 736.015 218.566L748.963 202.166C750.264 203.716 749.394 206.419 747.413 209.07Z" fill="white"/>
<path d="M713.65 304.749C713.65 304.749 694.585 304.01 685.351 294.13C676.116 284.25 706.695 290.187 706.695 290.187L714.645 291.811L713.65 304.749Z" fill="#FFB0B1"/>
<path opacity="0.1" d="M802.685 417.825C801.665 421.042 801.5 424.428 802.204 427.712C781.407 429.027 759.158 424.02 759.158 424.02C755.014 427.417 744.097 432.423 744.097 432.423L738.145 366.703C734.34 357.842 732.848 311.417 732.848 311.417C732.848 311.417 733.188 308.987 733.677 305.347C733.677 305.258 733.677 305.162 733.719 305.074C735.202 294.905 738.145 275.817 739.587 273.24C741.577 269.695 733.47 260.266 733.47 260.266L737.159 232.242L737.606 228.86C745.382 225.766 751.342 215.886 751.342 215.886L755.917 208.745C760.891 205.902 761.148 233.763 761.148 233.763L756.174 299.55L772.653 295.496C772.653 295.496 805.495 409.421 802.685 417.825Z" fill="black"/>
<path d="M824.031 422.366C801.359 432.394 760.153 423.104 760.153 423.104C756.008 426.501 745.091 431.508 745.091 431.508L739.131 365.787C735.335 356.926 733.843 310.501 733.843 310.501C733.843 310.501 738.634 275.861 740.623 272.324C741.204 271.29 740.922 269.754 740.234 268.1C736.851 260.227 735.607 251.753 736.603 243.37L738.195 231.326L738.634 227.952C746.418 224.85 752.378 214.97 752.378 214.97L756.522 208.501L764.149 196.583L767.763 190.942L768.376 191.436L773.06 195.217C773.06 195.217 775.049 196.694 778.033 198.909C784.524 203.783 795.739 212.363 801.525 217.614C806.615 222.236 808.223 240.217 808.687 253.753C808.994 262.665 808.811 269.651 808.811 269.651C803.68 277.176 817.101 337.587 817.101 337.587C820.226 349.261 824.031 422.366 824.031 422.366Z" fill="white"/>
<path opacity="0.03" d="M780.512 214.822C780.512 214.822 764.953 241.207 766.76 251.234C768.567 261.262 773.706 272.612 771.228 275.263C770.376 276.267 769.275 277.083 768.011 277.645C766.747 278.207 765.354 278.502 763.941 278.505C761.455 278.652 754.823 282.78 754.823 283.223C754.823 283.666 748.697 283.666 743.218 285.734C737.739 287.802 729.649 288.976 729.649 288.976C729.649 288.976 713.899 288.533 712.432 289.862C710.965 291.191 709.456 299.144 712.598 305.487C715.739 311.83 719.229 316.564 721.865 317.428C724.501 318.291 741.229 313.3 754.798 312.118C768.368 310.937 783.098 301.359 783.098 301.359C783.098 301.359 799.32 296.19 802.163 287.499C805.006 278.808 798.69 231.038 798.69 231.038C798.69 231.038 793.915 208.775 780.512 214.822Z" fill="black"/>
<path opacity="0.03" d="M778.522 212.607C778.522 212.607 762.963 238.999 764.787 249.019C766.611 259.04 771.733 270.397 769.247 273.055C768.398 274.06 767.299 274.877 766.036 275.439C764.773 276.002 763.381 276.295 761.969 276.297C759.482 276.444 752.85 280.572 752.85 281.015C752.85 281.458 746.725 281.458 741.245 283.519C735.766 285.579 727.676 286.76 727.676 286.76C727.676 286.76 711.926 286.317 710.467 287.646C709.008 288.976 707.483 296.936 710.633 303.272C713.783 309.607 717.264 314.348 719.9 315.212C722.536 316.076 739.264 311.084 752.834 309.91C766.403 308.736 781.133 299.144 781.133 299.144C781.133 299.144 797.347 293.975 800.157 285.291C802.968 276.607 796.684 228.823 796.684 228.823C796.684 228.823 791.926 206.567 778.522 212.607Z" fill="black"/>
<path d="M780.022 213.493C780.022 213.493 764.463 239.885 766.287 249.905C768.111 259.926 773.234 271.283 770.755 273.934C769.907 274.942 768.807 275.76 767.542 276.324C766.277 276.888 764.883 277.182 763.469 277.183C760.982 277.331 754.351 281.458 754.351 281.894C754.351 282.33 748.233 282.337 742.746 284.405C737.258 286.472 729.176 287.646 729.176 287.646C729.176 287.646 713.426 287.203 711.959 288.533C710.492 289.862 708.983 297.822 712.125 304.158C715.267 310.494 718.756 315.234 721.392 316.098C724.028 316.962 740.756 311.97 754.326 310.789C767.895 309.607 782.625 300.03 782.625 300.03C782.625 300.03 798.847 294.861 801.691 286.17C804.534 277.478 798.259 229.709 798.259 229.709C798.259 229.709 793.418 207.482 780.022 213.493Z" fill="white"/>
<path opacity="0.1" d="M779.683 284.279C779.683 284.279 767.249 282.064 771.576 285.756C775.903 289.448 775.878 292.683 781.175 292.535C786.472 292.387 779.683 284.279 779.683 284.279Z" fill="black"/>
<path opacity="0.1" d="M800.696 363.72C800.696 363.72 795.076 367.109 805.827 374.922C816.578 382.735 800.696 363.72 800.696 363.72Z" fill="black"/>
<path opacity="0.1" d="M789.97 391.581C789.97 392.024 787.98 407.826 795.424 411.777C802.867 415.728 789.97 391.581 789.97 391.581Z" fill="black"/>
<path d="M671.781 267.731C665.779 267.916 652.815 269.548 659.538 280.72C665.481 290.608 675.47 283.999 681.09 278.985C679.719 274.31 676.387 270.282 671.781 267.731V267.731Z" fill="#FFB0B1"/>
<path d="M681.164 278.896L681.413 278.667L681.164 278.896Z" fill="#FFB0B1"/>
<path opacity="0.1" d="M778.033 199.36C771.667 203.236 766.329 206.508 765.284 207.187C762.433 209.07 756.995 220.124 753.489 225.766C750.695 230.307 741.618 231.474 738.195 231.762L738.634 228.387C746.418 225.286 752.378 215.406 752.378 215.406L767.763 191.377L773.06 195.667C773.06 195.667 775.049 197.144 778.033 199.36Z" fill="black"/>
<path d="M778.033 198.917C771.667 202.793 766.329 206.065 765.284 206.751C762.433 208.627 756.995 219.681 753.489 225.323C750.695 229.864 741.618 231.031 738.195 231.319L738.634 227.944C746.418 224.843 752.378 214.963 752.378 214.963L767.763 190.934L773.06 195.21C773.06 195.21 775.049 196.672 778.033 198.917Z" fill="#DCE7FF"/>
<path d="M765.781 180.101C765.785 184.534 764.276 188.863 761.454 192.514C758.122 196.831 753.163 199.942 747.477 201.28C741.791 202.619 735.755 202.097 730.463 199.81C725.172 197.523 720.976 193.622 718.637 188.815C716.298 184.008 715.971 178.613 717.715 173.61C719.46 168.606 723.159 164.326 728.143 161.544C733.128 158.763 739.066 157.665 744.881 158.451C750.695 159.236 756.002 161.852 759.836 165.825C763.671 169.797 765.78 174.862 765.781 180.101V180.101Z" fill="#FFB0B1"/>
<path opacity="0.1" d="M808.687 253.76C805.321 251.915 802.579 249.292 800.754 246.169C799.37 243.732 798.45 240.919 796.087 239.191C793.957 237.64 791.114 237.263 788.461 236.569C779.741 234.273 772.429 227.184 772.156 219.09C772.023 215.28 773.358 211.477 772.753 207.704C772.409 205.568 771.455 203.547 769.984 201.833C769.254 201.014 768.453 200.246 767.589 199.537C766.428 198.562 765.209 197.617 764.148 196.583C763.48 195.943 762.896 195.237 762.408 194.479C762.013 193.858 761.694 193.202 761.454 192.522C759.797 188.003 761.305 182.642 759.482 178.071L759.382 177.82C758.694 176.195 757.293 174.57 755.345 174.445C753.397 174.319 751.731 175.759 749.874 176.402C745.987 177.746 741.792 175.457 738.551 173.123C735.31 170.79 731.654 168.124 727.535 168.641C724.807 168.988 722.652 170.642 720.141 171.499C719.574 171.694 718.988 171.845 718.392 171.949C720.517 167.227 724.422 163.311 729.436 160.876C734.451 158.44 740.26 157.636 745.868 158.601C751.475 159.567 756.53 162.241 760.164 166.166C763.798 170.091 765.784 175.021 765.781 180.109C765.784 181.645 765.604 183.177 765.243 184.68C765.284 184.783 765.326 184.879 765.375 184.982C766.337 187.198 767.423 189.472 768.376 191.436L773.059 195.217C773.059 195.217 775.049 196.694 778.033 198.909C784.524 203.783 795.739 212.363 801.525 217.614C806.614 222.251 808.206 240.224 808.687 253.76Z" fill="black"/>
<path d="M719.851 158.007C721.036 155.859 721.625 153.451 723.042 151.413C725.123 148.46 728.753 146.569 732.484 145.425C742.223 142.434 762.806 138.092 768.956 145.425C770.167 146.901 771.17 148.541 772.844 149.56C774.121 150.335 775.662 150.667 777.063 151.251C780.984 152.89 783.488 156.464 784.822 160.112C786.157 163.76 786.555 167.674 787.533 171.432C788.784 176.254 790.981 180.825 793.169 185.366C795.747 190.727 798.483 196.288 803.456 200.076C810.245 205.245 811.746 212.563 818.046 218.234C825.506 224.968 825.266 236.082 821.419 244.906C820.914 246.065 820.342 247.277 820.541 248.51C820.74 249.743 821.768 250.865 822.737 251.847L826.816 255.946C817.167 258.021 806.25 253.531 801.757 245.652C800.373 243.215 799.453 240.409 797.082 238.674C794.96 237.123 792.108 236.754 789.464 236.06C780.744 233.756 773.433 226.659 773.159 218.566C773.026 214.763 774.361 210.96 773.756 207.194C773.419 205.045 772.462 203.009 770.979 201.287C768.699 198.636 765.259 196.856 763.403 193.903C760.261 188.963 762.648 182.546 760.385 177.244C759.689 175.619 758.296 173.995 756.348 173.869C754.4 173.743 752.734 175.183 750.869 175.826C746.99 177.17 742.795 174.888 739.554 172.547C736.313 170.206 732.658 167.548 728.53 168.072C725.802 168.412 723.655 170.066 721.144 170.93C719.287 171.565 715.524 172.134 713.899 170.738C710.467 167.925 718.417 160.636 719.851 158.007Z" fill="#591D4B"/>
<path opacity="0.1" d="M804.062 243.215C802.669 240.778 801.757 237.972 799.387 236.244C797.265 234.694 794.413 234.317 791.76 233.623C783.048 231.326 775.737 224.23 775.455 216.137C775.323 212.334 776.657 208.524 776.061 204.758C775.713 202.621 774.757 200.6 773.284 198.887C770.996 196.236 767.556 194.456 765.707 191.503C762.566 186.57 764.953 180.153 762.682 174.844C761.994 173.226 760.593 171.602 758.653 171.469C756.713 171.336 755.031 172.791 753.174 173.433C749.294 174.777 745.092 172.488 741.859 170.155C738.626 167.821 734.954 165.155 730.834 165.672C728.107 166.019 725.952 167.673 723.448 168.53C721.592 169.165 717.82 169.741 716.195 168.345C712.78 165.392 720.729 158.118 722.155 155.504C723.341 153.348 723.929 150.948 725.355 148.91C725.429 148.799 725.512 148.688 725.595 148.578C724.529 149.365 723.608 150.297 722.868 151.339C721.451 153.377 720.862 155.77 719.677 157.934C718.243 160.548 710.293 167.843 713.717 170.775C715.375 172.178 719.105 171.602 720.962 170.967C723.448 170.103 725.62 168.449 728.347 168.109C732.492 167.585 736.139 170.251 739.372 172.584C742.605 174.917 746.832 177.207 750.695 175.863C752.552 175.22 754.177 173.773 756.166 173.906C758.156 174.039 759.482 175.656 760.203 177.28C762.466 182.582 760.079 188.999 763.22 193.94C765.077 196.842 768.517 198.658 770.797 201.324C772.28 203.046 773.237 205.081 773.574 207.231C774.179 210.997 772.844 214.8 772.977 218.603C773.25 226.726 780.562 233.793 789.282 236.097C791.91 236.791 794.778 237.16 796.9 238.711C799.279 240.446 800.216 243.252 801.575 245.689C806.068 253.568 816.985 258.058 826.634 255.983L824.71 254.048C816.347 254.159 807.883 249.92 804.062 243.215Z" fill="black"/>
<path opacity="0.1" d="M746.915 209.513C745.829 210.99 742.721 218.551 740.126 225.153C737.697 224.311 735.492 218.943 735.492 218.943L748.44 202.535C749.766 204.159 748.896 206.855 746.915 209.513Z" fill="black"/>
<path d="M747.413 209.07C746.327 210.547 743.218 218.108 740.624 224.71C738.195 223.875 735.99 218.5 735.99 218.5L748.938 202.099C750.264 203.716 749.394 206.419 747.413 209.07Z" fill="#DCE7FF"/>
<path d="M672.129 284.508L664.951 264.342C664.866 264.106 664.834 263.857 664.857 263.61C664.88 263.363 664.958 263.122 665.086 262.902C665.214 262.682 665.389 262.486 665.602 262.326C665.815 262.167 666.061 262.046 666.327 261.971V261.971C666.861 261.823 667.439 261.868 667.936 262.098C668.433 262.327 668.808 262.722 668.979 263.197L676.158 283.342L675.445 287.558L672.129 284.508Z" fill="#BE8B87"/>
<path opacity="0.1" d="M665.63 262.569C666.166 262.419 666.746 262.463 667.245 262.693C667.744 262.922 668.12 263.319 668.291 263.795L675.47 283.94L674.931 287.1L675.453 287.587L676.166 283.371L668.946 263.227C668.775 262.752 668.4 262.357 667.903 262.127C667.406 261.898 666.828 261.852 666.294 262.001V262.001C665.844 262.131 665.456 262.391 665.191 262.739C665.332 262.672 665.479 262.615 665.63 262.569V262.569Z" fill="white"/>
<path d="M672.129 284.508L676.158 283.371L675.569 286.827L675.445 287.587L674.268 286.495L672.129 284.508Z" fill="#EFC8C4"/>
<path d="M674.268 286.495C674.338 286.416 674.425 286.35 674.525 286.303C674.583 286.27 674.651 286.252 674.72 286.252C674.788 286.252 674.856 286.27 674.914 286.303C674.971 286.363 675.018 286.43 675.055 286.502C675.11 286.583 675.185 286.653 675.274 286.705C675.362 286.758 675.463 286.792 675.569 286.805L675.445 287.543L674.268 286.495Z" fill="#727A9C"/>
<path d="M664.909 271.504C664.909 271.504 679.307 271.431 675.917 276.888C672.527 282.345 667.23 283.002 667.23 283.002L664.909 271.504Z" fill="#FFB0B1"/>
<defs>
<linearGradient id="paint0_linear" x1="139.133" y1="545.387" x2="139.133" y2="91.0008" gradientUnits="userSpaceOnUse">
<stop stop-color="#808080" stop-opacity="0.25"/>
<stop offset="0.54" stop-color="#808080" stop-opacity="0.12"/>
<stop offset="1" stop-color="#808080" stop-opacity="0.1"/>
</linearGradient>
<linearGradient id="paint1_linear" x1="185020" y1="342829" x2="185020" y2="109589" gradientUnits="userSpaceOnUse">
<stop stop-color="#808080" stop-opacity="0.25"/>
<stop offset="0.54" stop-color="#808080" stop-opacity="0.12"/>
<stop offset="1" stop-color="#808080" stop-opacity="0.1"/>
</linearGradient>
</defs>
</svg>
